/* XPM */
static char *coin_0[] = {
/* columns rows colors chars-per-pixel */
"64 64 131 2 ",
"   c None",
".  c #000A16",
"X  c #13171C",
"o  c #241D1F",
"O  c #241E20",
"+  c #361B23",
"@  c #292221",
"#  c #392223",
"$  c #3B2B27",
"%  c #561D1F",
"&  c #451A23",
"*  c #4A1E24",
"=  c #531E22",
"-  c #402324",
";  c #4C2327",
":  c #452B25",
">  c #542427",
",  c #5A2525",
"<  c #512C24",
"1  c #5A2827",
"2  c #542628",
"3  c #562828",
"4  c #5E2A29",
"5  c #533227",
"6  c #5C3227",
"7  c #662823",
"8  c #6B2D26",
"9  c #632E29",
"0  c #692F28",
"q  c #66302B",
"w  c #6C342B",
"e  c #733026",
"r  c #7D3526",
"t  c #71342A",
"y  c #7A3629",
"u  c #74382C",
"i  c #7D3A2B",
"p  c #7C412F",
"a  c #843C2A",
"s  c #893F2B",
"d  c #843E33",
"f  c #86432F",
"g  c #8C442E",
"h  c #94462E",
"j  c #844433",
"k  c #8A4933",
"l  c #914530",
"z  c #914931",
"x  c #9A4D32",
"c  c #904B38",
"v  c #945136",
"b  c #9C5235",
"n  c #97533B",
"m  c #9D553C",
"M  c #A04F33",
"N  c #A45536",
"B  c #AA5737",
"V  c #A25837",
"C  c #A25538",
"Z  c #A45A39",
"A  c #AA5A3A",
"S  c #A7623F",
"D  c #AE603D",
"F  c #B4633E",
"G  c #9E5A40",
"H  c #A55E47",
"J  c #9C6142",
"K  c #A96045",
"L  c #AF6B43",
"P  c #A5674B",
"I  c #AF674A",
"U  c #B16444",
"Y  c #B36C43",
"T  c #BA6C44",
"R  c #B86E48",
"E  c #BA7146",
"W  c #B5734F",
"Q  c #B97649",
"!  c #BB784B",
"~  c #B67451",
"^  c #BD7553",
"/  c #C37B47",
"(  c #C17749",
")  c #C57C4B",
"_  c #C17753",
"`  c #BE895E",
"'  c #C4814F",
"]  c #CD854F",
"[  c #C78354",
"{  c #C98451",
"}  c #CD8B55",
"|  c #C0895B",
" . c #CF8F58",
".. c #D08751",
"X. c #D28E55",
"o. c #D69256",
"O. c #DD9254",
"+. c #D4945A",
"@. c #D7985C",
"#. c #DC9D5C",
"$. c #E29B5F",
"%. c #E5A45F",
"&. c #CD9664",
"*. c #E19D60",
"=. c #D9AA70",
"-. c #DDB87D",
";. c #E6A562",
":. c #EEAF65",
">. c #EFAD64",
",. c #EAAA62",
"<. c #F0AE64",
"1. c #EEB066",
"2. c #F3B265",
"3. c #F5B466",
"4. c #F7B667",
"5. c #F6B767",
"6. c #F2B266",
"7. c #FBB866",
"8. c #F2B468",
"9. c #F3B86B",
"0. c #F8B868",
"q. c #F8B969",
"w. c #F9BA69",
"e. c #F8BC69",
"r. c #FBBD6B",
"t. c #FFBF6B",
"y. c #FFC16C",
"u. c #FFC56F",
"i. c #FFC870",
"p. c #D7B880",
"a. c #D5B882",
/* pixels */
"                                                                                                                                ",
"                                                                                                                                ",
"                                                                                                                                ",
"                                                                                                                                ",
"                                                                                                                                ",
"                                                                                                                                ",
"                                                                                                                                ",
"                                                                                                                                ",
"                                                                                                                                ",
"                                                                                                                                ",
"                                                                                                                                ",
"                                                                                                                                ",
"                                                                                                                                ",
"                                                                                                                                ",
"                                                                                                                                ",
"                                                                                                                                ",
"                                                                                                                                ",
"                                                                                                                                ",
"                                                                                                                                ",
"                                                                                                                                ",
"                                                    w.] A     ,.^     +.{ I                                                     ",
"                                                  +.{ A A     2.R     +.{ m z                                                   ",
"                                              w.;.! i       w.%.b %       s f b A                                               ",
"                                              ,.Q s       ,.*.~ y * 2       a x A                                               ",
"                                            2.' j ,       w.{ d 2 > 8       8 f C z                                             ",
"                                            ,.V 7 ;       u.} f 9 8 a       > w f z                                             ",
"                                            } x 7 >         2.o.v r         2 3 w z                                             ",
"                                          ;.W i ,             2.Z             * 3 t f                                           ",
"                                        w.$.H q               %.Z               , > y z                                         ",
"                                        w.O.x 9               X.A               8 > y z                                         ",
"                                        7.O.x 4 w             { F             / e > y z                                         ",
"                                        9.o.z 4 q f         ,.{ F 6         ;.E i 4 t f                                         ",
"                                        -.| a 9 > 9       u.1.} Z < X       ~ T a 3 w f                                         ",
"                                        a.` s 9 ; , y ] i.,.X.Y h y 5 @ . o G A a 8 c U                                         ",
"                                        a.&.C q * 4 i ) <.@.E x y s f : @ 5 x h e r n P                                         ",
"                                          =.! w & 4 f C T } ) x 9 > w f b b f 0 4 r 6 $                                         ",
"                                            #.k = 2 q f F +.] x 4 + # 5 p j 0 , t x 5                                           ",
"                                            2.Y i , * w Z ' ( x t - O o # > > t h B                                             ",
"                                              +.S y > * 9 k A A z w ; ; ; 1 e h M s                                             ",
"                                              8.o.L J j y f x x x a 8 8 7 e h T E a                                             ",
"                                              w.,.+.;...F F C f z f a f f l x { }                                               ",
"                                                    2.;.} } E x z f z I ^ K a Y                                                 ",
"                                                        +.+.} E C x C U _                                                       ",
"                                                           .+.} D C A C                                                         ",
"                                                                                                                                ",
"                                                                                                                                ",
"                                                                                                                                ",
"                                                                                                                                ",
"                                                                                                                                ",
"                                                                                                                                ",
"                                                                                                                                ",
"                                                                                                                                ",
"                                                                                                                                ",
"                                                                                                                                ",
"                                                                                                                                ",
"                                                                                                                                ",
"                                                                                                                                ",
"                                                                                                                                ",
"                                                                                                                                ",
"                                                                                                                                ",
"                                                                                                                                ",
"                                                                                                                                ",
"                                                                                                                                ",
"                                                                                                                                "
};
