/* XPM */
static char *storm_4[] = {
/* columns rows colors chars-per-pixel */
"100 100 12 1 ",
"  c None",
". c black",
"X c #083868",
"o c #205878",
"O c #487890",
"+ c #78A0A8",
"@ c #88A8B8",
"# c #A0B8C0",
"$ c #B0C8D0",
"% c #C8D8E0",
"& c #E0E8E8",
"* c #F8F8F8",
/* pixels */
"                                                                                                    ",
"                                                                                                    ",
"                                                                                                    ",
"                                                                                                    ",
"                                                                                                    ",
"                                                                                                    ",
"                                                                                                    ",
"                                                                                                    ",
"                                                                                                    ",
"                                                                                                    ",
"                                                                                                    ",
"                                                                                                    ",
"                                                                                                    ",
"                                                                                                    ",
"                                                                                                    ",
"                                                                                                    ",
"                                                                                                    ",
"                                                                                                    ",
"                                                                                                    ",
"                                                                                                    ",
"                                                                                                    ",
"                                                                                                    ",
"                                                                                                    ",
"                                             O*****                                                 ",
"                                            O*$#+%&*                                                ",
"                                            O*%XO%O@#                                               ",
"                                            ....X*&&*                                               ",
"                                            $o.O%.&&*                                               ",
"                                            *#O.+*%&*                                               ",
"                                            .OXoO*****                                              ",
"                                            &o+O**%++$                                              ",
"                                            +#O*$O...                                               ",
"                                            .#*OX.X#%#+o                                            ",
"                                            O.*#.##&O.&@o                                           ",
"                                                #%%XX@O*@o                                          ",
"                                               .&OO.@%@O*@                                          ",
"                                               *@XO.$%#O*@                                          ",
"                                              ***Oo.+$$+*@                                          ",
"                                              &OOXX..+##&@                                          ",
"                                              &O+Xo..O+oOO                                          ",
"                                              O$$Xo...o@+*                                          ",
"                                              ++$$$X..+$+$                                          ",
"                                           OOO ++$$+X.oOoO                                          ",
"                                      $   O... +$+++o....o                                          ",
"                                      .OOOOo.o OX+$+oX+$O*                                          ",
"                                      O.......Oo..@+*+o.oO*                                         ",
"                                      .XXXXX...OX@+**o.ooo@                                         ",
"                                           .&*..&X$*$.o$O@                                          ",
"                                           .+$*.*.+$.oX.Oo                                          ",
"                                           ..+$.*+..oX.X&+                                          ",
"                                            .X.....+$$+.+*                                          ",
"                                               @@o&O@@$+.@                                          ",
"                                              @@+o&O@@$$.O                                          ",
"                                             @+++o&O@@$%..                                          ",
"                                            ..@+oo&O@@$%O                                           ",
"                                           #o..oOo&O@@%O                                            ",
"                                           #@@.o.o&O@@%O                                            ",
"                                           ++OoOo.o+O@%O                                            ",
"                                             ++Oo.#+++@...##Oo                                      ",
"                                               ++o*.+%....##o.                                      ",
"                                                 o*&&.....ooo.                                      ",
"                                                   &$++X..OOX.                                      ",
"                                                    &O**+ ++..                                      ",
"                                                    &+#** ++.o                                      ",
"                                                     %O** O+o.                                      ",
"                                                     &++** +O.                                      ",
"                                                      #O**  +.                                      ",
"                                                      &++*  %.                                      ",
"                                                       #O**                                         ",
"                                                       $+#.                                         ",
"                                                        #.**                                        ",
"                                                        .O**+                                       ",
"                                                        @@OO.                                       ",
"                                                       %%$X                                         ",
"                                                     %@O...                                         ",
"                                                     .o..                                           ",
"                                                                                                    ",
"                                                                                                    ",
"                                                                                                    ",
"                                                                                                    ",
"                                                                                                    ",
"                                                                                                    ",
"                                                                                                    ",
"                                                                                                    ",
"                                                                                                    ",
"                                                                                                    ",
"                                                                                                    ",
"                                                                                                    ",
"                                                                                                    ",
"                                                                                                    ",
"                                                                                                    ",
"                                                                                                    ",
"                                                                                                    ",
"                                                                                                    ",
"                                                                                                    ",
"                                                                                                    ",
"                                                                                                    ",
"                                                                                                    ",
"                                                                                                    ",
"                                                                                                    "
};
