/* XPM */
static char *storm_8[] = {
/* columns rows colors chars-per-pixel */
"100 100 12 1 ",
"  c None",
". c black",
"X c #083868",
"o c #205878",
"O c #487890",
"+ c #78A0A8",
"@ c #88A8B8",
"# c #A0B8C0",
"$ c #B0C8D0",
"% c #C8D8E0",
"& c #E0E8E8",
"* c #F8F8F8",
/* pixels */
"                                                                                                    ",
"                                                                                                    ",
"                                                                                                    ",
"                                                                                                    ",
"                                                                                                    ",
"                                                                                                    ",
"                                                                                                    ",
"                                                                                                    ",
"                                                                                                    ",
"                                                                                                    ",
"                                                                                                    ",
"                                                                                                    ",
"                                                                                                    ",
"                                                                                                    ",
"                                                                                                    ",
"                                                                                                    ",
"                                                                                                    ",
"                                                                                                    ",
"                                                                                                    ",
"                                                                                                    ",
"                                                                                                    ",
"                                                                                                    ",
"                                                                                                    ",
"                                                                                                    ",
"                                                                                                    ",
"                                                                                                    ",
"                                                                                                    ",
"                                                                                                    ",
"                                                                                                    ",
"                                                                                                    ",
"                                                                                                    ",
"                                                                                                    ",
"                                         *****                                                      ",
"                                       O*$#+%&*                                                     ",
"                                       O*%XO%O@#                                                    ",
"                                       ....X*&&*                                                    ",
"                                       $o.O%.&&*                                                    ",
"                                       *#O.+*%&*                                                    ",
"                                       .OXoO*****                                                   ",
"                                       &o+O**%++$                                                   ",
"                                       +#O*$O...                                                    ",
"                                       .#*O%%%#%#+o                                                 ",
"                                       O.**%OO&#O%*                                                 ",
"                                         .%o#O&+.#**                                                ",
"                                          #+@O*#.+%*                                                ",
"                                         #+%@O*%..%%*                                               ",
"                                         *o%#O**..#%%                                               ",
"                                         %.#$O*%..+#%                                               ",
"                                         #.+$+*#..o+#                                               ",
"                                         +.o#&*+..Oo+                                               ",
"                                         o.......oO$o                                               ",
"                                      OOO o.OoO..OO$                                                ",
"                                 $   O... +.$+*..#O$                                                ",
"                                 .OOOOo.o #.+O*.X$O$                                                ",
"                                 O.......O%..o$.O$O@                                                ",
"                                 .XXXXX...$.....+$+@*                                               ",
"                                      .&*.$$O..O$$+OO*                                              ",
"                                      .+$*$O..O+$+oOo@                                              ",
"                                     O..+$...o@@@ooO@                                               ",
"                                    O......ooOO....$&                                               ",
"                                    &..XOOoX....@..+$                                               ",
"                                    %@..XOOoX..%@+@..                                               ",
"                                    %OO#XoXOO.$+$+#**                                               ",
"                                    O%$OOXXXXo@@+#*&$                                               ",
"                                    O+ooO     o$+O****                                              ",
"                                     OooOO    o%#+#**$                                              ",
"                                      OXoO    OO$++***                                              ",
"                                       OoOO    o%$O%**    &$. *.                                    ",
"                                        OoO    o#%+@**  &**$.#**.                                   ",
"                                        O..    Oo%#O..&&&*&+..*$$.                                  ",
"                                        ....    oo...&+*$#@o..&*#.                                  ",
"                                       ++Oo#     ..&&***OOOo .&O**.                                 ",
"                                     ++++Oo#     .%++@OO%%      *$.                                 ",
"                                   ++Oo..Xoo      %OOO@$                                            ",
"                                   ....o....       %%%&                                             ",
"                                                                                                    ",
"                                                                                                    ",
"                                                                                                    ",
"                                                                                                    ",
"                                                                                                    ",
"                                                                                                    ",
"                                                                                                    ",
"                                                                                                    ",
"                                                                                                    ",
"                                                                                                    ",
"                                                                                                    ",
"                                                                                                    ",
"                                                                                                    ",
"                                                                                                    ",
"                                                                                                    ",
"                                                                                                    ",
"                                                                                                    ",
"                                                                                                    ",
"                                                                                                    ",
"                                                                                                    ",
"                                                                                                    ",
"                                                                                                    ",
"                                                                                                    ",
"                                                                                                    ",
"                                                                                                    "
};
