/* XPM */
static char *storm_16[] = {
/* columns rows colors chars-per-pixel */
"100 100 12 1 ",
"  c None",
". c black",
"X c #083868",
"o c #205878",
"O c #487890",
"+ c #78A0A8",
"@ c #88A8B8",
"# c #A0B8C0",
"$ c #B0C8D0",
"% c #C8D8E0",
"& c #E0E8E8",
"* c #F8F8F8",
/* pixels */
"                                                                                                    ",
"                                                                                                    ",
"                                                                                                    ",
"                                                                                                    ",
"                                                                                                    ",
"                                                                                                    ",
"                                                                                                    ",
"                                                                                                    ",
"                                                                                                    ",
"                                                                                                    ",
"                                                                                                    ",
"                                                                                                    ",
"                                                                                                    ",
"                                                                                                    ",
"                                                                                                    ",
"                                                                                                    ",
"                                                                                                    ",
"                                                                                                    ",
"                                                                                                    ",
"                                                                                                    ",
"                                                                                                    ",
"                                                                                                    ",
"                                                                                                    ",
"                                                 *****O                                             ",
"                                                *&%+#$*O                                            ",
"                                               #@O%OX%*O                                            ",
"                                               *&&*X....                                            ",
"                                               *&&.%O.o$                                            ",
"                                               *&%*+.O#*                                            ",
"                                              *****OoXO.                                            ",
"                                              $++%**O+o&                                            ",
"                                               ...O$*O#+                                            ",
"                                            o+#%#X.XO*#.                                            ",
"                                           o@&.O&##.#*.O                                            ",
"                                          o@*O@XX%%#                                                ",
"                                          @*O@%@.OO&.                                               ",
"                                          @*O#%$.OX@*                                               ",
"                                          @*+$$+.oO***                                              ",
"                                          @&##+..XXOO&                                              ",
"                                          OOo+O..oX+O&                                              ",
"                                          *+@o...oX$$O                                              ",
"                                          $+$+..X$$$++                                              ",
"                                          OoOo.X+$$++ OOO                                           ",
"                                          o....o+++$+ ...O   $                                      ",
"                                          *O$+Xo+$+XO o.oOOOO.                                      ",
"                                         *Oo.o+*+@..oO.......O                                      ",
"                                         @ooo.o**+@XO...XXXXX.                                      ",
"                                          @O$o.$*$X&..*&.                                           ",
"                                          oO.Xo.$+.*.*$+.                                           ",
"                                          +&X.Xo..+*.$+..                                           ",
"                                          *+.+$$+.....X.                                            ",
"                                          @.+$@@O&o@@                                               ",
"                                          O.$$@@O&o+@@                                              ",
"                                          ..%$@@O&o+++@                                             ",
"                                           O%$@@O&oo+@..                                            ",
"                                            O%@@O&oOo..o#                                           ",
"                                            O%@@O&o.o.@@#                                           ",
"                                            O%@O+o.oOoO++                                           ",
"                                      oO##...@+++#.oO++                                             ",
"                                      .o##....%+.*o++                                               ",
"                                      .ooo.....&&*o                                                 ",
"                                      .XOO..X++$&                                                   ",
"                                      ..++ +**O&                                                    ",
"                                      o.++ **#+&                                                    ",
"                                      .o+O **O%                                                     ",
"                                      .O+ **++&                                                     ",
"                                      .+  **O#                                                      ",
"                                      .%  *++&                                                      ",
"                                         **O#                                                       ",
"                                         .#+$                                                       ",
"                                        **.#                                                        ",
"                                       +**O.                                                        ",
"                                       .OO@@                                                        ",
"                                         X$%%                                                       ",
"                                         ...O@%                                                     ",
"                                           ..o.                                                     ",
"                                                                                                    ",
"                                                                                                    ",
"                                                                                                    ",
"                                                                                                    ",
"                                                                                                    ",
"                                                                                                    ",
"                                                                                                    ",
"                                                                                                    ",
"                                                                                                    ",
"                                                                                                    ",
"                                                                                                    ",
"                                                                                                    ",
"                                                                                                    ",
"                                                                                                    ",
"                                                                                                    ",
"                                                                                                    ",
"                                                                                                    ",
"                                                                                                    ",
"                                                                                                    ",
"                                                                                                    ",
"                                                                                                    ",
"                                                                                                    ",
"                                                                                                    ",
"                                                                                                    "
};
