/* XPM */
static char *storm_21[] = {
/* columns rows colors chars-per-pixel */
"100 100 12 1 ",
"  c None",
". c black",
"X c #083868",
"o c #205878",
"O c #487890",
"+ c #78A0A8",
"@ c #88A8B8",
"# c #A0B8C0",
"$ c #B0C8D0",
"% c #C8D8E0",
"& c #E0E8E8",
"* c #F8F8F8",
/* pixels */
"                                                                                                    ",
"                                                                                                    ",
"                                                                                                    ",
"                                                                                                    ",
"                                                                                                    ",
"                                                                                                    ",
"                                                                                                    ",
"                                                                                                    ",
"                                                                                                    ",
"                                                                                                    ",
"                                                                                                    ",
"                                                                                                    ",
"                                                                                                    ",
"                                                                                                    ",
"                                                                                                    ",
"                                                                                                    ",
"                                                                                                    ",
"                                                                                                    ",
"                                                                                                    ",
"                                                                                                    ",
"                                                                                                    ",
"                                                                                                    ",
"                                                                                                    ",
"                                                                                                    ",
"                                                                                                    ",
"                                                                                                    ",
"                                                                                                    ",
"                                                                                                    ",
"                                                                                                    ",
"                                                                                                    ",
"                                                                                                    ",
"                                                                                                    ",
"                                                      *****                                         ",
"                                                     *&%+#$*O                                       ",
"                                                    #@O%OX%*O                                       ",
"                                                    *&&*X....                                       ",
"                                                    *&&.%O.o$                                       ",
"                                                    *&%*+.O#*                                       ",
"                                                   *****OoXO.                                       ",
"                                                   $++%**O+o&                                       ",
"                                                    ...O$*O#+                                       ",
"                                                 o+#%#X.oO*#.                                       ",
"                                                o*&.O&#..#*.O                                       ",
"                                               o@*O@XX%#.X.                                         ",
"                                               @*O@%@.O&&.                                          ",
"                                               **O#%$.O@@*                                          ",
"                                               **+$$+.o****                                         ",
"                                               *&##+..XOO&&                                         ",
"                                               OOo+O..o+OO&                                         ",
"                                               *+@o...o$$+O                                         ",
"                                               $+$+..X$$+$+                                         ",
"                                               OoOo.X+$+++                                          ",
"                                               o....o++$+$ OOO                                      ",
"                                               *O$+Xo+$$+$ ...O   $                                 ",
"                                               O$@&$X+$+$. o.oOOOO.                                 ",
"                                               *&O$#@.+...O.......O                                 ",
"                                              *O.**+@X.......XXXXX.                                 ",
"                                              @oO.O*$.+&...*&.                                      ",
"                                               @Oo...+$*..*$+.O                                     ",
"                                               &$....$*o...X...O                                    ",
"                                               $+..@....XoOOX..&                                    ",
"                                               ..@+@%..XoOOX..@%                                    ",
"                                               **#+$+$.OOXoX#OO%                                    ",
"                                               $&*#+@@oXXXXOO$%O                                    ",
"                                              ****O+$o     Ooo+O                                    ",
"                                              $**#+#%o    OOooO                                     ",
"                                              ***++$OO    OoXO                                      ",
"                                    .* .$&    **%O$%o    OOoO                                       ",
"                                   .**#.$**&  **@+%#o    OoO                                        ",
"                                  .$$*..+&*&&&..O#%oO    ..O                                        ",
"                                  .#*&..o@#$*+&...oo    ....                                        ",
"                                 .**O&. oOOO***&&..     #oO++                                       ",
"                                 .$*      %%OO@++%.     #oO++++                                     ",
"                                            $@OOO%      ooX..oO++                                   ",
"                                             &%%%       ....o....                                   ",
"                                                                                                    ",
"                                                                                                    ",
"                                                                                                    ",
"                                                                                                    ",
"                                                                                                    ",
"                                                                                                    ",
"                                                                                                    ",
"                                                                                                    ",
"                                                                                                    ",
"                                                                                                    ",
"                                                                                                    ",
"                                                                                                    ",
"                                                                                                    ",
"                                                                                                    ",
"                                                                                                    ",
"                                                                                                    ",
"                                                                                                    ",
"                                                                                                    ",
"                                                                                                    ",
"                                                                                                    ",
"                                                                                                    ",
"                                                                                                    ",
"                                                                                                    ",
"                                                                                                    ",
"                                                                                                    "
};
