/* XPM */
static char *storm_24[] = {
/* columns rows colors chars-per-pixel */
"100 100 12 1 ",
"  c None",
". c black",
"X c #083868",
"o c #205878",
"O c #487890",
"+ c #78A0A8",
"@ c #88A8B8",
"# c #A0B8C0",
"$ c #B0C8D0",
"% c #C8D8E0",
"& c #E0E8E8",
"* c #F8F8F8",
/* pixels */
"                                                                                                    ",
"                                                                                                    ",
"                                                                                                    ",
"                                                                                                    ",
"                                                                                                    ",
"                                                                                                    ",
"                                                                                                    ",
"                                                                                                    ",
"                                                                                                    ",
"                                                                                                    ",
"                                                                                                    ",
"                                                                                                    ",
"                                                                                                    ",
"                                                                                                    ",
"                                                OO+O                                                ",
"                                          **    ....    **                                          ",
"                                       .O..O++++o..oO++++..O                                        ",
"                                       O....................                                        ",
"                                       .X..XXX...XX..XX.X..X                                        ",
"                                        o..#  X..  X.   #..o                                        ",
"                                        Xo.   ..   X.    .oX                                        ",
"                                        X.X        ..    X.X                                        ",
"                                       XX.+              +.X                                        ",
"                                       X*.#   O*****O    #.*                                        ",
"                                       o#.&  O*#++#&*O   &.#                                        ",
"                                       ...#  oX&&%&#Xo   #..                                        ",
"                                       %+.O  O.......O   O.+%                                       ",
"                                       %+.O  @oX.OX.X@   O.+%                                       ",
"                                       &&.O O@X.O$Oo.@O  O.&&                                       ",
"                                       *#.o *O$O#*#+$O*  o.#*                                       ",
"                                       *..% %*$*o.o*$*%  %..*                                       ",
"                                       o..+ @*%O***O%*@  +..o                                       ",
"                                       oX.X o%*&#O+**%o  X.Xo                                       ",
"                                       oX..*X#O.X.X.O# X*..Xo                                       ",
"                                       ooX..&+XX...XX++&..Xo                                        ",
"                                       oX...X%@OOOOO@%%X...X                                        ",
"                                        oX...o%++#++%oo...Xo                                        ",
"                                        oX..XO%&%%%&%OOX..Xo                                        ",
"                                         oX.O$*&ooo&*$$O.Xo                                         ",
"                                         ooo+&OO@@@OO&&+ooo                                         ",
"                                          o..o@O+++O@oo..o                                          ",
"                                           X.##########.X                                           ",
"                                            X##+OOO+###X+                                           ",
"                                            #Oo.....oOO#+                                           ",
"                                            +ooO++++Ooo+                                            ",
"                                            oO+oOOOOo+OoX                                           ",
"                                            .%&O%&o%&O%&X                                           ",
"                                            @$oX$oo$oX$oo                                           ",
"                                            o%o@%oo%o@%o                                            ",
"                                            oXo++OO+@oXo                                            ",
"                                            o.XO#&&#OX.o                                            ",
"                                            $o.o+$$+o.o$                                            ",
"                                            &Oo.o##X.oO&                                            ",
"                                            &@O.XOOX.O@&                                            ",
"                                            *+@O.oX.O@+*                                            ",
"                                            *@+$+..+$+@*                                            ",
"                                            *$+%oooo%+$*                                            ",
"                                            *%o+oXXo+o%*                                            ",
"                                           $#$O$oXXo$O$#$                                           ",
"                                           &+%o$OXXO$o%+&                                           ",
"                                           &#$O+o  o+O$#&                                           ",
"                                           *#%o$o  o$o%#*                                           ",
"                                           *$%+$o  o$+%$*                                           ",
"                                          *X*X*X+  +X*X*X*                                          ",
"                                          *X*X*X    X*X*X*                                          ",
"                                           X.+oo    oo+.                                            ",
"                                            **..    ..***                                           ",
"                                            $O*.    .*O$*                                           ",
"                                            *O#*    *#O*o                                           ",
"                                            *oO$O  O$Oo*                                            ",
"                                            o%o$O  O$o%o                                            ",
"                                            o+O#O  O#O+o                                            ",
"                                             +OOO  OOO+                                             ",
"                                             o@O+  +O@o                                             ",
"                                              +o#  #o+                                              ",
"                                              OO+  +OO                                              ",
"                                              o+o  o+o                                              ",
"                                              .o.  .o.                                              ",
"                                              &&*O *&&                                              ",
"                                              O*$O $*O                                              ",
"                                              ##$. $##                                              ",
"                                             O***O ***O                                             ",
"                                             O*$$  $$*O                                             ",
"                                             O$$O  O$$O                                             ",
"                                             ....  ....                                             ",
"                                                                                                    ",
"                                                                                                    ",
"                                                                                                    ",
"                                                                                                    ",
"                                                                                                    ",
"                                                                                                    ",
"                                                                                                    ",
"                                                                                                    ",
"                                                                                                    ",
"                                                                                                    ",
"                                                                                                    ",
"                                                                                                    ",
"                                                                                                    ",
"                                                                                                    ",
"                                                                                                    "
};
