/* XPM */
static char *storm_3[] = {
/* columns rows colors chars-per-pixel */
"100 100 12 1 ",
"  c None",
". c black",
"X c #083868",
"o c #205878",
"O c #487890",
"+ c #78A0A8",
"@ c #88A8B8",
"# c #A0B8C0",
"$ c #B0C8D0",
"% c #C8D8E0",
"& c #E0E8E8",
"* c #F8F8F8",
/* pixels */
"                                                                                                    ",
"                                                                                                    ",
"                                                                                                    ",
"                                                                                                    ",
"                                                                                                    ",
"                                                                                                    ",
"                                                                                                    ",
"                                                                                                    ",
"                                                                                                    ",
"                                                                                                    ",
"                                                                                                    ",
"                                                                                                    ",
"                                                                                                    ",
"                                                                                                    ",
"                                                                                                    ",
"                                                                                                    ",
"                                                                                                    ",
"                                                                                                    ",
"                                                                                                    ",
"                                                                                                    ",
"                                                                                                    ",
"                                                                                                    ",
"                                                                                                    ",
"                                        O*****                                                      ",
"                                       O*$#+%&*                                                     ",
"                                       O*%XO%O@#                                                    ",
"                                       ....X*&&*                                                    ",
"                                       $o.O%.&&*                                                    ",
"                                       *#O.+*%&*                                                    ",
"                                       .OXoO*****                                                   ",
"                                       &o+O**%++$                                                   ",
"                                       +#O*$X.&@..                                                  ",
"                                       .#*Oo.&@..&&&                                                ",
"                                       O.*#.&@..OO&&&                                               ",
"                                         .oo@o.O$+O&&&                                              ",
"                                          @@$$.o@$+o&.                                              ",
"                                        *O***$..o@$+.O*                                             ",
"                                       *.&***Oo..oo.XO*+                                            ",
"                                       *O&OOO+$.....OXo.                                            ",
"                                       &OOO@@$$o..o. .#&*                                           ",
"                                       &O@+$$$$$o.o O@O#*                                           ",
"                                       &.$OOO$$+$+.O#O**X                                           ",
"                                     $ .&$...$+++OO#+**X                                            ",
"                                     .OOOOo.o...X..@**X                                             ",
"                                     O..........&+.$+X                                              ",
"                                     .XXXXX&*X.X*$+X.                                               ",
"                                          .+$*..+*$.O*                                              ",
"                                           .+$.o...oo@                                              ",
"                                           .......O&&                                               ",
"                                            OOo...oO$                                               ",
"                                           .....oo++$                                               ",
"                                           &OOo..O+$+                                               ",
"                                           **$oo+.OO      #.                                        ",
"                                           **$OOO...     ###.                                       ",
"                                          **$+o+O..XO   #.#++.                                      ",
"                                          **$+o+OXXoO  @O.@#+.                                      ",
"                                          *$$OO+XXooO @OO.@o#*.                                     ",
"                                          *$$O#OXXooX#Oo+   #$.                                     ",
"                                         &..$$+OXXoX++o+    #                                       ",
"                                         *.... OXXX.#oo+                                            ",
"                                         ***..  O..#Oo+                                             ",
"                                         *$O*.  O.XOoo+                                             ",
"                                          *O#*   +OOo+                                              ",
"                                          *oO$*  +oo++                                              ",
"                                          o%o$*   +++                                               ",
"                                           *O#*                                                     ",
"                                           *OO*                                                     ",
"                                           *@O+*                                                    ",
"                                            *o#*                                                    ",
"                                            *+o*                                                    ",
"                                             &o*                                                    ",
"                                             ....                                                   ",
"                                           %$@O**                                                   ",
"                                         %%%$@O**                                                   ",
"                                       %%@O..XoO+                                                   ",
"                                       ....o....O                                                   ",
"                                                                                                    ",
"                                                                                                    ",
"                                                                                                    ",
"                                                                                                    ",
"                                                                                                    ",
"                                                                                                    ",
"                                                                                                    ",
"                                                                                                    ",
"                                                                                                    ",
"                                                                                                    ",
"                                                                                                    ",
"                                                                                                    ",
"                                                                                                    ",
"                                                                                                    ",
"                                                                                                    ",
"                                                                                                    ",
"                                                                                                    ",
"                                                                                                    ",
"                                                                                                    ",
"                                                                                                    ",
"                                                                                                    ",
"                                                                                                    ",
"                                                                                                    ",
"                                                                                                    "
};
