/* XPM */
static char *storm_14[] = {
/* columns rows colors chars-per-pixel */
"100 100 12 1 ",
"  c None",
". c black",
"X c #083868",
"o c #205878",
"O c #487890",
"+ c #78A0A8",
"@ c #88A8B8",
"# c #A0B8C0",
"$ c #B0C8D0",
"% c #C8D8E0",
"& c #E0E8E8",
"* c #F8F8F8",
/* pixels */
"                                                                                                    ",
"                                                                                                    ",
"                                                                                                    ",
"                                                                                                    ",
"                                                                                                    ",
"                                                                                                    ",
"                                                                                                    ",
"                                                                                                    ",
"                                                                                                    ",
"                                                                                                    ",
"                                                                                                    ",
"                                                                                                    ",
"                                                                                                    ",
"                                                                                                    ",
"                                                                                                    ",
"                                                                                                    ",
"                                                                                                    ",
"                                                                                                    ",
"                                                                                                    ",
"                                                                                                    ",
"                                                                                                    ",
"                                                                                                    ",
"                                                                                                    ",
"                                                 *****O                                             ",
"                                                *&%+#$*O                                            ",
"                                               #@O%OX%*O                                            ",
"                                               *&&*X....                                            ",
"                                               *&&.%O.o$                                            ",
"                                               *&%*+.O#*                                            ",
"                                              *****OoXO.                                            ",
"                                              $++%**O+o&                                            ",
"                                               ...O$*O#+                                            ",
"                                             o+#%#X.O*#.                                            ",
"                                            o*&.O&#.#*.O                                            ",
"                                           o@*O@XX%#                                                ",
"                                           @*O@%@.O&.                                               ",
"                                           **O#%$.O@*                                               ",
"                                           **+$$+.o***                                              ",
"                                           *&##+..XO&&                                              ",
"                                           OOo+O..o+O&                                              ",
"                                           *+@o...o$+O                                              ",
"                                           $+$+..X$$$+                                              ",
"                                           OoOo.X+$++ OOO                                           ",
"                                           O.....o++$ ...O   $                                      ",
"                                          *@..X+Xo+XO o.oOOOO.                                      ",
"                                         *Oo.o+*+@..oO.......O                                      ",
"                                         @ooo.o**+@XO...XXXXX.                                      ",
"                                          @O$o.$*$X&..*&.                                           ",
"                                          oO.Xo.$+.*.*$+.                                           ",
"                                          +&X.Xo..+*.$+..                                           ",
"                                          &$O...o....X..                                            ",
"                                           &++..O+***                                               ",
"                                            &$.@#OO%**                                              ",
"                                            ...+##+O+&*                                             ",
"                                            %ooooO+@OO..                                            ",
"                                            %o+OOoo++O.o*                                           ",
"                                            %O**&**+o.&&*                                           ",
"                                            **&*$***.O+$$                                           ",
"                                      O+**.**@@#OOO@+++                                             ",
"                                      .O**. O$%%%%$@+                                               ",
"                                      .oOO.%%....oo                                                 ",
"                                      .X@@.....OOOo                                                 ",
"                                      ..$$ +ooXO                                                    ",
"                                      o.%% +oXoO                                                    ",
"                                      .O%+ +oXO                                                     ",
"                                      .@% +oXoO                                                     ",
"                                      .+  +oXO                                                      ",
"                                      .+  +XoO                                                      ",
"                                         +oXO                                                       ",
"                                         ++oO                                                       ",
"                                        +.OO                                                        ",
"                                        #o.+                                                        ",
"                                       ooOO+                                                        ",
"                                         O++++                                                      ",
"                                         .X.oO++                                                    ",
"                                          ......                                                    ",
"                                                                                                    ",
"                                                                                                    ",
"                                                                                                    ",
"                                                                                                    ",
"                                                                                                    ",
"                                                                                                    ",
"                                                                                                    ",
"                                                                                                    ",
"                                                                                                    ",
"                                                                                                    ",
"                                                                                                    ",
"                                                                                                    ",
"                                                                                                    ",
"                                                                                                    ",
"                                                                                                    ",
"                                                                                                    ",
"                                                                                                    ",
"                                                                                                    ",
"                                                                                                    ",
"                                                                                                    ",
"                                                                                                    ",
"                                                                                                    ",
"                                                                                                    ",
"                                                                                                    "
};
