/* XPM */
static char *luke_113[] = {
/* columns rows colors chars-per-pixel */
"49 124 255 2 ",
"   c None",
".  c #010101",
"X  c #01040B",
"o  c #0A080A",
"O  c #140806",
"+  c #000513",
"@  c #020A14",
"#  c #020D1B",
"$  c #050717",
"%  c #181319",
"&  c #130E17",
"*  c #2D1611",
"=  c #010E22",
"-  c #010725",
";  c #021224",
":  c #02142B",
">  c #07172A",
",  c #191625",
"<  c #011A34",
"1  c #021C3C",
"2  c #051835",
"3  c #101634",
"4  c #271C2A",
"5  c #281C30",
"6  c #08233E",
"7  c #2A2435",
"8  c #34253D",
"9  c #382638",
"0  c #332528",
"q  c #481B00",
"w  c #551C06",
"e  c #5C2507",
"r  c #4D2B17",
"t  c #692C02",
"y  c #7A380B",
"u  c #773311",
"i  c #523030",
"p  c #7E1A00",
"a  c #097A2E",
"s  c #2B6E27",
"d  c #794A33",
"f  c #566F33",
"g  c #71501E",
"h  c #011E43",
"j  c #001C4E",
"k  c #051A54",
"l  c #032243",
"z  c #03234B",
"x  c #06264B",
"c  c #152646",
"v  c #012553",
"b  c #022A57",
"n  c #0C315A",
"m  c #3B2B44",
"M  c #2C334E",
"N  c #012D64",
"B  c #022D69",
"V  c #023166",
"C  c #00326B",
"Z  c #03396D",
"A  c #003372",
"S  c #023A77",
"D  c #123966",
"F  c #2D3369",
"G  c #141C64",
"H  c #432D46",
"J  c #47324C",
"K  c #4B3657",
"L  c #54395A",
"P  c #533349",
"I  c #5A3F63",
"U  c #553D63",
"Y  c #493B66",
"T  c #633D57",
"R  c #334A55",
"E  c #05427C",
"W  c #1B487D",
"Q  c #355175",
"!  c #4E4D4B",
"~  c #5D4167",
"^  c #4A5075",
"/  c #64446A",
"(  c #694A76",
")  c #724D79",
"_  c #784E72",
"`  c #666854",
"'  c #873C14",
"]  c #88380F",
"[  c #894717",
"{  c #934F11",
"}  c #9B651B",
"|  c #A6731E",
" . c #995327",
".. c #91512F",
"X. c #A75929",
"o. c #AD572D",
"O. c #B46A34",
"+. c #A54C1B",
"@. c #CC6E37",
"#. c #B76F49",
"$. c #987A6B",
"%. c #CB734A",
"&. c #039017",
"*. c #00B61A",
"=. c #00A418",
"-. c #00852E",
";. c #008B2B",
":. c #009C2C",
">. c #039628",
",. c #008632",
"<. c #008B34",
"1. c #058738",
"2. c #019433",
"3. c #189532",
"4. c #0DA92B",
"5. c #01A526",
"6. c #0BB727",
"7. c #1AA933",
"8. c #11AE30",
"9. c #25AB39",
"0. c #208421",
"q. c #778B3B",
"w. c #12D51C",
"e. c #1ADB19",
"r. c #0ACF18",
"t. c #19D623",
"y. c #18C82A",
"u. c #28DC29",
"i. c #2ECF36",
"p. c #2FE529",
"a. c #22E61C",
"s. c #4ED73B",
"d. c #54ED34",
"f. c #59EE38",
"g. c #44E835",
"h. c #64EB3D",
"j. c #6BF63C",
"k. c #31AD46",
"l. c #15A140",
"z. c #69925A",
"x. c #709169",
"c. c #42BF49",
"v. c #36C041",
"b. c #4DD049",
"n. c #68E749",
"m. c #77EC4A",
"M. c #79F646",
"N. c #76EB55",
"B. c #74E96A",
"V. c #62E559",
"C. c #BA8D2E",
"Z. c #CA8D39",
"A. c #DD9E3B",
"S. c #87AB70",
"D. c #A69661",
"F. c #D59154",
"G. c #D68C64",
"H. c #F59774",
"J. c #F5A07A",
"K. c #D8AD5D",
"L. c #8BF758",
"P. c #8DF156",
"I. c #ABCA74",
"U. c #8DEC63",
"Y. c #96F662",
"T. c #93EF64",
"R. c #A6FA66",
"E. c #B5FC6B",
"W. c #B3F271",
"Q. c #9AF159",
"!. c #C4F866",
"~. c #CAF973",
"^. c #C9F979",
"/. c #D9FD7C",
"(. c #013B81",
"). c #034688",
"_. c #014D94",
"`. c #024A98",
"'. c #04519B",
"]. c #185292",
"[. c #015AAC",
"{. c #0355A9",
"}. c #015BB5",
"|. c #0A54A4",
" X c #0161B9",
".X c #1B6BBA",
"XX c #38689C",
"oX c #4A5C8A",
"OX c #735283",
"+X c #7C5587",
"@X c #6D5082",
"#X c #516B8D",
"$X c #506EA6",
"%X c #67799F",
"&X c #0267C7",
"*X c #036CD2",
"=X c #0C6DD1",
"-X c #0779E8",
";X c #82588A",
":X c #708AB0",
">X c #65849F",
",X c #0987FB",
"<X c #1A80E3",
"1X c #308EEE",
"2X c #699DCF",
"3X c #6EBAFB",
"4X c #5B95CB",
"5X c #6CC98A",
"6X c #92B293",
"7X c #B6A599",
"8X c #8D9DAE",
"9X c #98ACB5",
"0X c #9A948F",
"qX c #85EB8B",
"wX c #B0E494",
"eX c #CEF884",
"rX c #CAF483",
"tX c #D7FB87",
"yX c #DAFA97",
"uX c #D2EE8C",
"iX c #E5FE86",
"pX c #E8FE99",
"aX c #F8FF96",
"sX c #DBD6B8",
"dX c #CBFEAC",
"fX c #DBF9A7",
"gX c #CEFFB3",
"hX c #D8FDB6",
"jX c #E4FCA7",
"kX c #F7FFA5",
"lX c #E1F8B5",
"zX c #EAFCBD",
"xX c #F5FDBC",
"cX c #D9CB85",
"vX c #96B6C7",
"bX c #9FA4D5",
"nX c #B2CBE1",
"mX c #CBD1DA",
"MX c #EAF8CD",
"NX c #E7FAC6",
"BX c #F8FDCA",
"VX c #ECF8D9",
"CX c #F5FADA",
"ZX c #F2F8E5",
"AX c #F4F9EC",
"SX c #FEFBEB",
"DX c #FCFAE3",
"FX c #FBF9F4",
"GX c #F8F8F9",
"HX c #FEF8FF",
"JX c #FCF9FC",
"KX c #F6F8F5",
"LX c #EBF2EF",
"PX c #D8F3DB",
"IX c #D3BBBA",
/* pixels */
"          2.4.y.e.e.t.t.w.w.w.w.w.w.t.t.w.w.w.w.t.t.u.u.y.2.                                      ",
"          7.b.n.h.n.B.qXqXqXB.B.n.n.n.n.n.n.h.n.n.n.N.N.b.8.                                      ",
"    <.:.i.N.E.eXtXfXMXAXLXLXZXlXeX^.eXeXtXyXyXtXeXeXtXpXR.u.5.                                    ",
"  2.8.b.U.~.pXBXDXSXHXHXHXHXHXBXiXiXiXpXxXDXSXBXpXiXkXkXE.p.6.<.                                  ",
"<.5.t.L.iXkXBXHXHXHXHXHXHXHXFXlXeX~.~.eXMXHXHXCXyXtXiXeXN.y.5.<.                                  ",
"<.5.t.L.kXCXHXHXHXHXHXHXGXHXAXhX^.~.~.eXMXHXHXVXyXtX~.n.y.:.<.                                    ",
"<.:.t.L.jXSXHXHXHXGXHXHXHXHXAXhX^.~.tXlXZXHXHXVXyXiXE.g.*.<.                                      ",
"<.:.w.M.pXSXHXHXHXAXHXHXHXHXAXlX~.~.fXAXHXHXHXNXyXiX^.g.5.<.                                      ",
"<.:.w.M.pXDXHXHXHXAXGXGXHXHXAXhX~.~.lXHXGXKXNXyXtXaXrXv.:.<.                                      ",
"<.5.u.Y.zXFXHXHXHXAXGXHXHXHXVXfX~.!.fXFXHXZXfX~./.tXU.l.<.                                        ",
"<.4.g.dXFXHXHXHXGXGXHXHXHXVXfX^.~.^.hXHXHXZXyX/./.Y.i.2.                                          ",
"<.4.f.gXHXHXHXHXGXGXHXHXHXNX^.!.eXfXVXHXHXAXfXiXiXM.r.:.                                          ",
"<.4.f.gXHXHXHXHXHXGXHXHXHXNX^.!.yXVXHXHXGXZXjXiX^.h.r.:.                                          ",
"<.4.d.gXHXHXHXHXGXHXHXHXHXNXeX!.yXAXHXHXVXlXtXE.n.i.:.2.                                          ",
"<.4.d.gXHXHXHXAXGXGXHXHXHXNX^.!.tXCXGXGXlXtX/.L.u.5.<.1.                                          ",
"<.4.d.gXHXHXHXGXAXAXHXHXHXNX^.!.yXVXGXGXlXtXiXL.t.5.<.1.                                          ",
"<.4.d.gXHXGXGXGXGXGXHXHXHXNXeXeXlXAXHXHXNXiXaXR.u.5.<.                                            ",
"<.4.d.gXHXGXHXHXHXHXHXHXHXNXyXhXAXHXHXKXlXtXtXL.t.5.<.                                            ",
"<.4.d.gXHXHXHXHXHXHXHXHXHXNXyXNXHXGXAXlXyX^.L.i.4.2.                                              ",
"<.4.d.gXHXHXHXHXHXHXHXHXAXfXeXNXHXGXMXtX/.E.p.*.;.                                                ",
"<.4.d.gXHXHXHXAXGXGXHXZXfX^.^.NXHXHXMXtX/.E.p.*.<.                                                ",
"<.8.n.hXHXHXHXAXGXGXHXMXtX~.fXZXHXGXVXyXiX^.i.5.<.                                                ",
"<.7.P.NXHXHXHXAXGXGXHXMXtXyXVXHXGXGXMXyXiXW.k.-.<.                                                ",
"<.7.m.hXHXHXHXHXGXHXHXMXyXfXAXHXFXMXjXeXR.b.1.a 1.                                                ",
"<.4.f.gXHXHXHXAXHXHXHXMXtXfXZXHXZXyXiXtXm.r.                                                      ",
"<.4.d.gXHXHXHXAXHXHXHXMXtXfXZXHXZXyXiXeXh.w.                                                      ",
"<.4.d.gXHXHXHXHXHXHXHXVXlXNXAXHXFXlX~.T.i.y.                                                      ",
"<.4.d.gXHXHXHXHXGXHXGXAXAXAXHXHXSXjXQ.u.5.2.                                                      ",
"<.4.d.gXHXGXHXHXGXGXGXHXHXHXGXVXzXtXL.w.5.<.                                                      ",
"<.4.d.gXHXGXHXHXGXGXGXGXHXHXAXlXiXiXY.y.:.<.                                                      ",
"<.4.d.gXHXHXHXHXGXGXGXAXHXHXAXlX/.iXU.4.;.                                                        ",
"<.4.d.gXHXHXHXHXGXGXHXGXHXHXFXzX/.R.c.<.                                                          ",
"<.4.d.gXHXHXHXHXAXAXHXHXHXHXFXxXE.d.6.<.                                                          ",
"<.4.d.gXHXHXHXHXFXAXHXHXHXAXBXkXE.p.*.<.                                                          ",
"<.8.h.gXHXHXHXHXFXFXHXHXHXMXtX/.Y.u.5.2.                                                          ",
"<.7.m.NXHXHXHXAXAXFXHXHXHXMXeXR.n.8.2.                                                            ",
"<.7.m.NXHXHXHXAXGXAXHXHXHXCXeXj.u.:.                                                              ",
"<.8.h.gXHXHXHXHXGXGXHXHXHXCXeXh.r.>.                                                              ",
"<.4.d.gXHXHXHXHXHXHXHXAXBXkXeXb.5.;.                                                              ",
"<.4.d.gXHXHXHXHXHXHXHXCXpX/.W.k.-.                                                                ",
"<.4.d.gXHXGXGXHXHXHXHXDXyXQ.s.4.a                                                                 ",
"<.4.d.gXHXGXHXHXHXHXHXSXfXM.e.=.;.                                                                ",
"<.4.d.gXHXHXHXHXHXHXHXDXjXM.w.=.0.                                                                ",
"<.4.d.gXHXHXHXHXHXFXCXxXpXN.8.a f                                                                 ",
"<.4.d.dXHXHXHXHXHXAXlXtX~.b.1.f @.A.cXsXcXZ.}                                                     ",
"<.4.d.dXHXHXHXHXHXFXlXE.h.8.1.q.Z.A.F.K.K.A.C.}                                                   ",
"<.4.d.dXHXHXHXHXHXHXxXR.a.*.3.z.Z.@.X.| C.Z.F.Z.}                                                 ",
"-.4.f.dXHXHXHXHXHXFXxXR.a.*.3.` O.+.y [ X.#.%.Z.C.} y y                                           ",
"-.8.m.hXHXHXHXHXZXBXkXW.i.3.f ..+.] y  .O.O.X.{ } D.D.D.}                                         ",
"-.7.U.zXHXHXHXHXBXpX/.B.l.s ..] t t ' O.F.Z.} ' ..7XsXK.| [                                       ",
"-.9.T.BXHXHXHXHXBX/.L.i.2.s ] p w e '  .O.@.O.#.7XsXcXC.{ y                                       ",
"-.9.T.NXHXHXHXZXjXR.p.*.>.f  .] u .. .y '  .o.$.7XD.| { ' y                                       ",
"-.9.T.zXHXHXSXlXE.h.6.;.  z.G.%.%.G.%.[ w e u d d g { X.X.                                        ",
"-.9.U.zXHXHXDXtXM.u.5.a   z.H.J.J.J.G.X.t q q t y ' o.%.                                          ",
"-.9.U.zXHXHXDXyXj.w.5.<.  f #.H.J.G.#.o. .y e u  .O.#.                                            ",
"-.9.U.zXHXHXSXpXM.w.5.2.  s ..%.G.%.o.X.o.o.[ y u d                                               ",
"-.9.U.NXHXHXSXyXm.6.:.    f [ +.o.O.o.X. ...[ t q                                                 ",
"-.9.U.zXHXHXDXrXs.:.;.    O.o.+.' [ X.X.i * q e w 0                                               ",
"<.9.U.yXBXCXfXN.6.;.        @.+.t q q r O . o 0 i P m                                             ",
"<.k.Y.tXkXkXR.u.5.;.            e O . . . X - 3 m T I J                                           ",
"-.9.Y.jXBXpXm.6.;.                5 * q i 8 - X & K ) ~ H                                         ",
"a =.s.dXFXdXs.;.                    T .._ ( ! 0 > c U I K J                                       ",
"&.=.u.wXAXqXr.&.                  I _ _ ^ oX8X8X].N c J / / K                                     ",
"5XB.qXPXVXB.r.&.                J 9 m F A ].2X3X1X).M P ( ( K 8                                   ",
"LXLXGXHXZX                    U m & @ 2 v A |.-X-X].K / ) I H 8                                   ",
"bXbXnXLXPX                    M c ; . . - j A }.&X].M ( ) L m 8                                   ",
"8X%XoX8XbX                    : < < # X + 2 v ).`.C c U ) / J 8                                   ",
"wXx.R oX$XF R I.              . X 2 z z 1 h b A A v 6 J ) ) L 8                                   ",
"6XS.x.S.6Xx.z.z.              . X x XX>X#XE A b 2 : 2 7 L OXU 8                                   ",
"9X6XI.W.eXtXI.!               . + E 2XnX2X|.B : X - < , H OXI 8                                   ",
"wX6Xx.` S.^.uX#X            . . : '.1X3X4XS : + : l < % H ) ~ 8                                   ",
"S.z.M - M I.pXvX    3X3X  W M M ).{.*X-X}.v . ; N b : & H ) ( J                                   ",
"R R W G M S.uXvX1X,X<X.X X>X9X2X=X`.'.}.`.v : z C h X O 9 ~ OX/ J                                 ",
"oX%X:X$XQ ` x.^ ].(.b h b #XvX4X_.N S ).V 1 v N l @ . O % 7 / OXK                                 ",
"LXmX:X$XoXQ R c ; X X . . 3 D c # - z b < : z l @ . o & o o J ( L                                 ",
"HXmX#XQ %X8X%Xc . @ b x @ X - + . . X - 2 h 1 @ . o % 3 @ . 9 ( U                                 ",
"    M     GXmXR - v |.{.b 1 v 1 X . . . < l # . . O , 2 + + m OXI                                 ",
"                  j S `._._._.A v h ; . X + . . . & , $ + : Y @XL                                 ",
"                    v (.{.&X X).S A h . . . . . . $ 4 r r i J J m                                 ",
"                                C N 2 . O % O . . X 0 ..o.[ r 4                                   ",
"                                  b - o ! $.i * O O & i d d i 9                                   ",
"                                    j 6 >X7Xd e w * . ; M U I U                                   ",
"                                    `._.Q ! r i T 0 . , M U / (                                   ",
"                                    '.E l o O m K 8 4 J ~ L ~ (                                   ",
"                                    m 7 5 4 , % 4 4 m / / J U / ~                                 ",
"                                    i i K L 7 o o % 9 J U I K K U (                               ",
"                                  J J L ) / 8 & o & , 8 I OX/ K ~ OXOX                            ",
"                                  D F U / / J 7 % % 4 m ~ OXOX( OXOX/                             ",
"                                  B n M I ) ( I J m J J J L / OX+X( J                             ",
"                                  B v c K ) ;X+XOX( L J 8 5 8 I +X( J                             ",
"                                  C b 1 3 H / +X+X( ~ L J 8 % 0 / )                               ",
"                                  C N h X o m U K J J J J H % ;                                   ",
"                                  A V h . . l c , & & % % % : z                   DXDX            ",
"                                C N z ; . @ b z X . . . . . < A                 LXnX9X:X          ",
"                              C V v : . . # v z @ . . . . . < A               vXvXXXn n ).        ",
"                              C N z # . . @ v B h @ . . . . < C             .X$XXXN + . h A       ",
"                              C N x ; . . # V ).A ; . . . . < C           2X(.k 2 - @ ; z b v     ",
"                              C V x ; . . ; ).}.S ; . . . . < C         mX>X1 X . X z _.'.N -     ",
"                              C V x ; . . # Z {.).1 X . . . h C       :X0X^ v - . . l _.{.).1     ",
"                              C V x ; . . X < ).{.A ; . . . 1 v     E D 7 D _.A ; . @ < b ).).< X ",
"                              N N x # . . # > Z }.`.h . . . ; -   X < z v b A S z X . . . l A Z b ",
"                              C b x # . # 2   C {.{.V # . . . . . . ; C A <           . . @ b _.{.",
"                              ).N 1 @ . # 1     {.&X_.l X . . . . ; C E l             . . ; ).}.&X",
"                              &XA : . . @ 2       &X{.n # . . . X z E x                 . l {. X X",
"                            ,X*XS # . . ; <       &X{.V ; . . . ; 1 <                             ",
"                          *X&X_.l - 1 b x           {._.b # . . # @                               ",
"                           X_.1 . 1 _.{.              }._.l X . .                                 ",
"                          }._.; . h {.                 X'.x X .                                   ",
"                           X_.< . 1                    X_.x @ X                                   ",
"                           X'.< . 1                     ).l > 2                                   ",
"                           X_.< X b                       l 2                                     ",
"                           X_.: @ S                                                               ",
"                           X_.: @ ).                                                              ",
"                          *X'.; X A                                                               ",
"                          -X_.; @ E                                                               ",
"                          &Xb : N '.                                                              ",
"                        ,X).X l {.                                                                ",
"                      ,X-Xb . x  X                                                                ",
"                    *X*X_.; . V *X                                                                ",
"              ,X-X X`.V ; . X ).,X                                                                ",
"              {._.N < + . . # '.,X                                                                ",
"              1 ; . . . . . @ '.,X                                                                ",
"              > @ . . . . . @ `.,X                                                                ",
"              1 # . . . . . @ '.,X                                                                "
};
