/* XPM */
static char *luke_2[] = {
/* columns rows colors chars-per-pixel */
"58 89 256 2 ",
"   c None",
".  c #010102",
"X  c #0B0302",
"o  c #01040C",
"O  c #0A080C",
"+  c #150909",
"@  c #010412",
"#  c #020A13",
"$  c #020C1B",
"%  c #0D0917",
"&  c #150A15",
"*  c #02111D",
"=  c #1B151A",
"-  c #05150D",
";  c #3B1602",
":  c #25151A",
">  c #2D0A06",
",  c #0C2411",
"<  c #020D26",
"1  c #021225",
"2  c #02142C",
"3  c #0A1529",
"4  c #171927",
"5  c #031933",
"6  c #031C3A",
"7  c #051937",
"8  c #111234",
"9  c #271C27",
"0  c #2D1B34",
"q  c #371938",
"w  c #2F1328",
"e  c #16273D",
"r  c #0D2E31",
"t  c #2A2335",
"y  c #38263A",
"u  c #2E2C31",
"i  c #481701",
"p  c #501D00",
"a  c #53270B",
"s  c #6B3408",
"d  c #70320E",
"f  c #411231",
"g  c #4B2D2D",
"h  c #663E25",
"j  c #074F16",
"k  c #00711A",
"l  c #08572B",
"z  c #006526",
"x  c #0D6D33",
"c  c #307929",
"v  c #6A482F",
"b  c #514339",
"n  c #041847",
"m  c #011A54",
"M  c #0B1141",
"N  c #321B48",
"B  c #032145",
"V  c #02244C",
"C  c #072547",
"Z  c #172746",
"A  c #022652",
"S  c #032B54",
"D  c #032D5B",
"F  c #07285A",
"G  c #02325E",
"H  c #1F2A53",
"J  c #3C2844",
"K  c #2E3551",
"L  c #012E64",
"P  c #012C68",
"I  c #033263",
"U  c #01346B",
"Y  c #063868",
"T  c #003C7B",
"R  c #023875",
"E  c #072F6D",
"W  c #081A6B",
"Q  c #442B46",
"!  c #49324B",
"~  c #4C3757",
"^  c #52365A",
"/  c #542952",
"(  c #593B64",
")  c #433668",
"_  c #6C3072",
"`  c #471F48",
"'  c #304B52",
"]  c #0E724E",
"[  c #2B6D49",
"{  c #0B4375",
"}  c #324B6D",
"|  c #525051",
" . c #715559",
".. c #5E4369",
"X. c #51516A",
"o. c #65456C",
"O. c #684976",
"+. c #6E5175",
"@. c #526E76",
"#. c #6A6566",
"$. c #833E12",
"%. c #954B17",
"&. c #8D4D15",
"*. c #916A1C",
"=. c #944C27",
"-. c #A65829",
";. c #AF5D2E",
":. c #B56637",
">. c #B46F2E",
",. c #A55E1A",
"<. c #C96F3B",
"1. c #EC7324",
"2. c #986A4C",
"3. c #B66D4A",
"4. c #BD7A65",
"5. c #895E4F",
"6. c #CE7A4B",
"7. c #01991C",
"8. c #06B918",
"9. c #02AF13",
"0. c #019B2D",
"q. c #009826",
"w. c #008C36",
"e. c #008A38",
"r. c #008235",
"t. c #019433",
"y. c #039935",
"u. c #008C29",
"i. c #02A32A",
"p. c #05A826",
"a. c #0CB526",
"s. c #12B927",
"d. c #07A933",
"f. c #16AD37",
"g. c #31B231",
"h. c #289B2D",
"j. c #54B83A",
"k. c #07C719",
"l. c #18C91C",
"z. c #25D61E",
"x. c #09C824",
"c. c #14CB25",
"v. c #28D725",
"b. c #35DC2B",
"n. c #2DC92E",
"m. c #39E42C",
"M. c #35E72D",
"N. c #45E636",
"B. c #4EF131",
"V. c #4ED133",
"C. c #2D854A",
"Z. c #219255",
"A. c #4BA960",
"S. c #2BC754",
"D. c #53D148",
"F. c #6DF451",
"G. c #76F759",
"H. c #6AF34B",
"J. c #7DF863",
"K. c #5ED55C",
"L. c #B5861C",
"P. c #C68A3B",
"I. c #C79B35",
"U. c #D0AF39",
"Y. c #BD8E5C",
"T. c #D1834E",
"R. c #D6916B",
"E. c #EC9A67",
"W. c #F4A878",
"Q. c #DDA556",
"!. c #8AFA6E",
"~. c #86FB67",
"^. c #96FC79",
"/. c #8CFC6F",
"(. c #013A84",
"). c #043C98",
"_. c #002F89",
"`. c #00138C",
"'. c #014688",
"]. c #034B93",
"[. c #044A99",
"{. c #0C5196",
"}. c #2D568A",
"|. c #0255A9",
" X c #025CB5",
".X c #0651A4",
"XX c #0362BA",
"oX c #0063A4",
"OX c #3171AE",
"+X c #28619F",
"@X c #4E5289",
"#X c #785587",
"$X c #775186",
"%X c #526E95",
"&X c #6A748C",
"*X c #6E76B5",
"=X c #0558CB",
"-X c #0265C8",
";X c #056DD3",
":X c #0673D9",
">X c #0366E9",
",X c #0879E8",
"<X c #057DF2",
"1X c #1773E8",
"2X c #397DD3",
"3X c #7672C5",
"4X c #835D95",
"5X c #8E7B9F",
"6X c #708AA9",
"7X c #6899A5",
"8X c #6ECF88",
"9X c #3B84CB",
"0X c #1088F9",
"qX c #3694ED",
"wX c #4B8ACF",
"eX c #56ABF6",
"rX c #5DA2E4",
"tX c #2FAA8D",
"yX c #8E8792",
"uX c #ABAAAB",
"iX c #A19FA3",
"pX c #F2B48C",
"aX c #CDB6AF",
"sX c #D9B19A",
"dX c #9BF683",
"fX c #A4FD89",
"gX c #ACFD94",
"hX c #B5F184",
"jX c #BBF7AF",
"kX c #D4C8B5",
"lX c #F2CCB7",
"zX c #D4FFBD",
"xX c #C8FDB3",
"cX c #D6CD8F",
"vX c #ADB5C3",
"bX c #A5ADD8",
"nX c #97C9F2",
"mX c #ABCAE5",
"MX c #ADC6DD",
"NX c #D5D4C3",
"BX c #DBFFC5",
"VX c #DDFFCB",
"CX c #DAFCD4",
"ZX c #E3FFCA",
"AX c #EBFFD5",
"SX c #EDFFDA",
"DX c #E5FFD2",
"FX c #F2FFDC",
"GX c #F2FFD7",
"HX c #FDE3D9",
"JX c #D3CDF2",
"KX c #F3FFE4",
"LX c #F5FFEA",
"PX c #F3F8F1",
"IX c #E0D5E9",
"UX c #CAB0CA",
/* pixels */
"                                                                                                      e.e.e.        ",
"                                                                                                    e.t.y.y.        ",
"                                                                                                  e.t.d.n.f.f.      ",
"                                                                                                e.e.d.b.B.N.n.f.    ",
"                        4.sXkXNXNXaXsXT.<.                                                    e.e.i.b.J.^.H.m.s.y.e.",
"                      4.aXkXQ.Q.Y.2.>.P.P.3.                                                e.e.i.l.F.BXZX~.m.s.y.e.",
"                      Y.cXcXU.L.,.%.%.*.L.P.                                              e.e.p.l.F.zXKXjXH.n.d.w.e.",
"                      T.I.U.L.&.&.=.d s *.U.                                            e.e.i.l.F.zXLXgXB.n.y.e.    ",
"                      P.>.,.&.%.=.d i i *.U.                                          e.e.p.l.F.zXKXgXN.c.q.e.      ",
"                      P.6.2.2.3.3.d > ; &.I.                                        e.e.i.v.F.zXLXgXN.s.y.e.        ",
"                      >.R.sXaXsXR.&.i i d %.                                      e.e.i.z.G.BXKXfXN.s.q.e.          ",
"                      $.R.lXHXlXR.%.s p a a                                     e.e.i.v.G.BXKXfXN.s.y.e.            ",
"                      s :.W.pXR.:.%.&.d s p                                   e.e.i.v.F.VXLXfXN.s.q.e.              ",
"                      s ;.6.6.;.%.=.-.%.s p                                 e.e.p.z.G.BXKXfXN.s.y.e.                ",
"                        ;.T.T.:.%.-.=.d i ;                               e.e.p.v.G.BXLXfXN.s.y.e.                  ",
"                        &.T.W.T.;.%.$.p +                               e.e.p.z.G.VXKXdXN.s.q.e.                    ",
"                        ; v 2.2.=.:.:.d +                             e.e.p.v.G.BXKXfXN.s.y.e.                      ",
"                      t O . X X g Y.W.3.; .                         e.t.p.v.G.VXKX^.N.s.y.e.                        ",
"                    5X5XK o . . . b R.E.h . 4                     e.t.p.z.J.DXKX^.N.a.t.e.                          ",
"              ! ! o.uXvX+.0 & . . O  .sX2.+ O t                 e.t.p.v.G.DXKX^.m.s.t.e.                            ",
"             .iXyX#X5X5X+.J = . . . | kXR.a X % 0             e.t.p.z.~.AXSX^.N.s.t.e.                              ",
"          #.uXvX6XO._ $XO.~ t & . . | kXpX&.X # J /         e.t.p.v.!.AXGX^.m.a.t.e.                                ",
"        } uXMXwX{ Z ^ $X#XO.~ 9 . . | sXpX-.> O ( _ Q     t.t.p.z.~.SXGX^.m.s.t.e.                                  ",
"        } 7XeX;Xm @ y +.4X#X( t o . v W.W.:.; & / _ ( ] e.q.p.v.!.SXAX^.m.a.t.e.                                    ",
"        L {.,X,XI o w o.#X#X..t . . v E.E.;.u 8 N _ X.] q.8.b.!.SXSX!.b.s.t.e.                                      ",
"        A E |.-XT 3 0 o.#X#XO.J . . g <.1.=.}.).H u [ y.8.v.^.SXAX!.b.a.t.e.                                        ",
"        I P T [.T C t ! o.#X#X~ % . i %.;.@X>X=X{ l 7.x.M.^.AXSX!.b.a.t.e.                                          ",
"      ].[.T L L D 6 4 t ^ #X#XO.t . ; h &X1X>XoX] 7.8.M.^.GXDX~.b.s.t.e.                                            ",
"    6XwXXX(.V $ o # 9 ! o.#X#XO.Q & 9 }.1X>XoX] q.k.m.^.GXAX!.b.a.t.e.                                              ",
"    MXrX.XP 2 # . X 0 ( O.#X#Xo.g : F =X>XoX] 7.k.m.^.GXAX!.b.a.t.e.                                                ",
"{ OXeX9XI < 5 D 5 . : Q ~ ( ....Q w M _.'.] q.k.m.dXSXZX!.b.a.t.e.                                                  ",
"(.|.:X[.2 $ G '.A o X = y ^ o.o./ w % r z 7.k.N.^.AXAX!.b.a.t.e.                                                    ",
"E ]..XA $ G ].Y 2 . . & J O.#XO./ w , z q.k.m.dXSXZX!.b.a.y.w.                                                      ",
"V I I 1 * ].|.S O . . O J O.O./ q r z i.x.N.dXDXZX/.M.a.d.y.                                                        ",
"D L V o * ].|.D 4 & . O 0 ^ / q r z i.x.m.^.AXZX!.M.s.t.r.                                                          ",
" X[.V . * '.|.D 4 & . O 0 f 0 r z i.x.m.fXSXBX/.M.x.y.l r                                                           ",
"<X-XI 2 6 T '.D t : X & q q r z i.c.N.fXGXZX!.b.x.q.l 5 8                                                           ",
"-X.XT T '.I B     y & & J ' x i.c.m.fXKXBX!.M.x.q.j - < M                                                           ",
"T D A ]. XI 3     / & O e Z.d.k.N.fXAXZX/.b.k.y.x = % m E S                                                         ",
"A 2 # I [.I 8     / & , z d.x.N.fXGXZXJ.z.8.t.[ ~ f 8 T [.I 5                                                       ",
"V < . 2 D A       Q r z p.k.N.gXGXzX!.v.8.u.] X./ f % I '.D 6                                                       ",
"m < . o < 7       ' x i.k.N.fXSXBXJ.v.x.S.A.X./ / > X < V C 6                                                       ",
"F 2 . @ < M       x r.a.N.gXGXzXJ.b.9.f.8XiX .f     O . # 6 C                                                       ",
"&X| O n `.W     n.j k S.gXGXBX/.M.x.k j |  .g 4     I @ . < V                                                       ",
"uX#.4 R =X(.  B.j.u l K.CXZX~.B.v.q.j * < & X B     XX6 . $ B                                                       ",
"6X} , C.tX{ x H.hXyX' C.dX^.M.x.i.l C R ).P 1 I <X    u i a g                                                       ",
"[.A - c j.C.x D.jXJX5X@.g.b.x.y.l = M ).-X[.e Z .X{.  %.,.,.%.                                                      ",
").m o , c j.h.[ %XmXJXiX[ k e.x t : % 5 A 6 # $ V n g 6.E.6.:.                                                      ",
"(.n o @ ' D.g.r @XJXPXUX) r l u q w & X X X . # D L ! 4.E.6.-.                                                      ",
"{.F @ @ [ B.n.' *XIXUX#X/ N t y Q J 9 : : : + D -X.X! ;.<.-.d                                                       ",
"bX@X3 j V.B.D.@.&XyX+./ Q q q ^ ..^ y 0 Q Q Z [.<X Xy =.;.%.s                                                       ",
"PXuX[ h.H.F.8X6XO.J Q Q J J ^ $X4XO.t : y Q H (. X(.9 &.;.%.                                                        ",
"PXxXD.A.8X7X7X6XX.q y ! J ^ $X4X4XO.9 O 9 t 4 2 A n : d %.                                                          ",
"PXjXK.A.*X3X*X@XK q y y t ! ..O...! = . & = O u X.} 9 a                                                             ",
"    7X%X*X*X%XH 4 = : : 9 9 9 9 9 9 O . & O < X.iX&Xe                                                               ",
"    MXwX2XwX    2 * O . . . . . O 3 3 & = & @ u @.} C                                                               ",
"      eX<X        2 @ . . . . . . 2 e 4 : X . 4 } } n                                                               ",
"                  6 2 $ . . . . .     e O . # } yX&XZ                                                               ",
"                  6 G D 1 . . @ 2       1 o $ | yX&XZ 7                                                             ",
"                  A ].[.D o . 2 I         2 @ & u Z D A 6                                                           ",
"                I |.-X|.D o . 6 (.        5 # . . 7 (.I 6                                                           ",
"              n +XqX0X|.B . o B R         5 # . o R XX{ 6                                                           ",
"              Z 6XnXeX.X< o 6 L           5 o . 2 |.,X].6                                                           ",
"              Z 6XnXrXT o $ P (.          5 o . 2 [.-X'.6                                                           ",
"              B }.OX{.2 . < I T           5 # . o V (.I 6                                                           ",
"              n R ].L $ . $ A L             1 . . $ V A C                                                           ",
"              2 n n < o . @ 6 C             C 2 . . 1 5 5                                                           ",
"              < @ . . . . # 5 C             I A 1 . . $ 3                                                           ",
"              X.| b e 2 < 2 C                 I I 5 1 V T                                                           ",
"              NXkXvXwX|.E B                     ].R L .X,X                                                          ",
"              nXvXiXqX-XP 1                     .XI A .X<X                                                          ",
"              0X{.Y ].].5 .                     |.V o I XX                                                          ",
"              >XR n T R 1 .                     ;XA . A |.                                                          ",
"              ,XE 6 T { 1 .                     ,XI . D  X                                                          ",
"              ,XI * Y '.5 .                     <XY . D XX                                                          ",
"              ,XD o I ].V @                     ;XD . D XX                                                          ",
"              ,XD . G .X'.L                     .X6 . D  X                                                          ",
"              ,XD . G XX X.X                    T < . G  X                                                          ",
"              ,XD . G XX X.X                    V $ < T -X                                                          ",
"              ,XD . G |.].R                     = 3 A ].-X                                                          ",
"              -X6 . B '.E                         e D L ].,X                                                        ",
"              .Xn @ 7 L                             A $ 6 XX0X                                                      ",
"              .X).(.L A                             R $ . E ,X<X                                                    ",
"              9XrXqX+XP                             |.5 . 2 ].;X-X                                                  ",
"            qXMXPXmX9X.X                            :XV . . 2 (.|.-X<X0X                                            ",
"            nXMXuXyXOX;X                            ,XD . . o 1 V R [. X                                            ",
"            bXOXe = Y  X                            ,XD . . . . . O 5                                               ",
"            ' 5 . . $ B                                                                                             ",
"            . . . . . .                                                                                             "
};
