/* XPM */
static char *luke_22[] = {
/* columns rows colors chars-per-pixel */
"67 59 251 2 ",
"   c None",
".  c #010001",
"X  c #01040C",
"o  c #060705",
"O  c #150606",
"+  c #000413",
"@  c #030A14",
"#  c #030C1C",
"$  c #090817",
"%  c #170814",
"&  c #0B1714",
"*  c #281819",
"=  c #2F1008",
"-  c #322719",
";  c #010C25",
":  c #01142C",
">  c #031425",
",  c #181828",
"<  c #030A36",
"1  c #021B34",
"2  c #01153C",
"3  c #021B3B",
"4  c #071836",
"5  c #100A23",
"6  c #280735",
"7  c #34142E",
"8  c #09253B",
"9  c #10292E",
"0  c #2A2828",
"q  c #272935",
"w  c #392437",
"e  c #37312F",
"r  c #002909",
"t  c #4C1B03",
"y  c #582A0A",
"u  c #672B06",
"i  c #6D330C",
"p  c #783609",
"a  c #723816",
"s  c #491F38",
"d  c #463233",
"f  c #00521A",
"g  c #004617",
"h  c #006114",
"j  c #05542D",
"k  c #006428",
"l  c #066234",
"z  c #126B28",
"x  c #267232",
"c  c #634314",
"v  c #774A31",
"b  c #595520",
"n  c #001845",
"m  c #09104A",
"M  c #092243",
"N  c #01234C",
"B  c #042548",
"V  c #032B54",
"C  c #002B5C",
"Z  c #032657",
"A  c #04335D",
"S  c #183556",
"D  c #322C4D",
"F  c #012866",
"G  c #00346A",
"H  c #053566",
"J  c #033D7A",
"K  c #053A75",
"L  c #052570",
"P  c #242D65",
"I  c #461A43",
"U  c #4F1C53",
"Y  c #502F4F",
"T  c #4D386C",
"R  c #6B366E",
"E  c #166F4C",
"W  c #2A754F",
"Q  c #04427E",
"!  c #1B477D",
"~  c #314C67",
"^  c #017B65",
"/  c #374D54",
"(  c #4C4B4E",
")  c #6B574B",
"_  c #675C54",
"`  c #544C6A",
"'  c #6A4874",
"]  c #714D73",
"[  c #4E6876",
"{  c #727577",
"}  c #8B380E",
"|  c #88430B",
" . c #864215",
".. c #944A1B",
"X. c #935918",
"o. c #95550C",
"O. c #A74E1C",
"+. c #964B22",
"@. c #9D5426",
"#. c #90522F",
"$. c #A7572A",
"%. c #B0562B",
"&. c #B66939",
"*. c #BD793B",
"=. c #B3732D",
"-. c #9C6519",
";. c #CB6433",
":. c #B36E43",
">. c #8D7272",
",. c #C57548",
"<. c #D6714E",
"1. c #05BA19",
"2. c #00942D",
"3. c #009B2C",
"4. c #009825",
"5. c #008A36",
"6. c #008B38",
"7. c #008730",
"8. c #009333",
"9. c #029B33",
"0. c #049538",
"q. c #038B29",
"w. c #07AA29",
"e. c #0BB224",
"r. c #09B427",
"t. c #13B62B",
"y. c #12AE37",
"u. c #2E9B27",
"i. c #47B53B",
"p. c #07C41C",
"a. c #13DE1F",
"s. c #09C726",
"d. c #16D32D",
"f. c #2BD626",
"g. c #35DC2B",
"h. c #34DB28",
"j. c #31D431",
"k. c #34E32C",
"l. c #38E329",
"z. c #39E533",
"x. c #2BE326",
"c. c #4AD330",
"v. c #4CF134",
"b. c #6FFA33",
"n. c #09A548",
"m. c #3AA94D",
"M. c #45B050",
"N. c #7AF85C",
"B. c #7BF168",
"V. c #57CF55",
"C. c #B99038",
"Z. c #B6891D",
"A. c #C58E39",
"S. c #CFAA3D",
"D. c #978B79",
"F. c #A18375",
"G. c #CF904B",
"H. c #CEB151",
"J. c #D49068",
"K. c #EA9770",
"L. c #F7A27B",
"P. c #DCA262",
"I. c #8AFA6C",
"U. c #84F968",
"Y. c #8EFB72",
"T. c #91FB75",
"R. c #95FB7A",
"E. c #99FC7D",
"W. c #87FE5E",
"Q. c #063C83",
"!. c #003D91",
"~. c #0035A0",
"^. c #034484",
"/. c #03458C",
"(. c #044B96",
"). c #045399",
"_. c #194F8D",
"`. c #3C6390",
"'. c #0148A8",
"]. c #015BAD",
"[. c #0454A7",
"{. c #004AB6",
"}. c #035AB8",
"|. c #2E71B7",
" X c #235D97",
".X c #55719C",
"XX c #546BA3",
"oX c #706A9C",
"OX c #075BC8",
"+X c #036AD7",
"@X c #0E6DCE",
"#X c #2576CD",
"$X c #0778E6",
"%X c #047BF9",
"&X c #107CEA",
"*X c #005EE0",
"=X c #7273C4",
"-X c #85518D",
";X c #967693",
":X c #5483B5",
">X c #6B8BAC",
",X c #65A38D",
"<X c #1183F7",
"1X c #2B8EEF",
"2X c #398FE1",
"3X c #6E9AC5",
"4X c #4895E2",
"5X c #57A8F9",
"6X c #74B1EA",
"7X c #488CD2",
"8X c #7ACAFF",
"9X c #959391",
"0X c #AC9A90",
"qX c #8C8BB2",
"wX c #8DAFA8",
"eX c #A5AAAC",
"rX c #B2A0A0",
"tX c #CCB28E",
"yX c #FBAC87",
"uX c #9DFE82",
"iX c #ABFB8B",
"pX c #9FE59B",
"aX c #D8CB90",
"sX c #D5D3B4",
"dX c #D9F2AB",
"fX c #8AA5CD",
"gX c #ADB9CC",
"hX c #BEB4E0",
"jX c #8DA1CF",
"kX c #C3BDC6",
"lX c #B6C6CD",
"zX c #8AC9FC",
"xX c #86D2FF",
"cX c #96C9F3",
"vX c #CECDD4",
"bX c #E5DDD8",
"nX c #DEFFC5",
"mX c #DBE0D3",
"MX c #E4FFCC",
"NX c #E6FFCC",
"BX c #EAFFD3",
"VX c #ECFFDA",
"CX c #E6FED2",
"ZX c #F2F7D7",
"AX c #CED4E6",
"SX c #F3FFE5",
"DX c #F8FEE8",
"FX c #FFFFFE",
"GX c #FAF6FA",
"HX c #E9F5E9",
"JX c #D5DEF6",
/* pixels */
"                                                                                                                    6.6.6.6.          ",
"                                                                                                                    8.9.9.0.          ",
"                                                                                                                  5.9.t.d.y.0.        ",
"                                                                                                                6.9.t.l.v.j.y.0.      ",
"                                                                                                              6.2.t.v.T.W.v.j.y.6.    ",
"                                                                                                            6.8.e.l.iXVXiXv.f.y.6.    ",
"                                                                                                          6.8.e.l.uXDXMXI.j.t.0.6.    ",
"                                                                                                        5.8.e.l.E.DXnXN.j.y.8.6.      ",
"                                                                                                      6.8.e.l.E.DXnXN.f.w.5.6.        ",
"                                                                                                    6.8.e.l.R.DXnXN.f.w.8.6.          ",
"                                                                                                  5.8.e.l.E.DXnXN.f.w.8.6.            ",
"                                                                                                6.8.e.l.R.DXMXN.f.w.8.6.              ",
"                                                                                              5.8.e.l.R.DXMXN.f.w.8.6.                ",
"                                                                                            6.8.e.h.R.DXMXN.f.w.0.6.                  ",
"                                                                                          6.8.e.h.T.DXCXN.f.w.8.6.                    ",
"                                            p -.H.mXsXH.=.                              6.8.e.h.Y.DXMXN.f.w.8.6.                      ",
"                                          p o.Z.H.sXaXG.A.*.                          6.8.e.h.Y.DXMXN.f.w.0.6.                        ",
"                                        p X.C.S.S.H.G.:.A.A.*.                      5.8.e.h.I.DXCXN.f.w.8.6.                          ",
"                                      p -.A.G.G.C.-.o.+.&.G.A.A.                  6.8.e.h.Y.SXMXU.f.w.8.6.                            ",
"                                   .#.#.Z.=.&.:.&...p p +.*.G.S.                5.2.e.h.Y.SXCXU.f.w.8.5.                              ",
"                                o.C.tX0X:.| | =.G.&. .p p @.*.G.              5.8.e.h.Y.VXCXU.h.w.8.6.                                ",
"                              p o.C.aXsX0X#...=.G.,.+.u t u } O.            6.2.e.h.Y.VXVXI.f.e.8.5.                                  ",
"                              p p o.C.aXsX0X:.&.&.@. .p t t u }           5.2.e.h.Y.DXBXI.h.e.2.6.                                    ",
"                                } ..o.=.D.F.:.+.a i ..&.#.a @.<.        5.2.e.g.Y.VXBXI.h.e.8.6.                                      ",
"                                  %.%.| a a i y t i &.K.J.<.K.yX      5.2.t.g.I.VXBXI.h.w.8.5.                                        ",
"                                    ;.%...p t t u +.,.K.L.L.L.J.    5.2.e.g.R.VXMXY.g.1.2.5.                                          ",
"                                      $.%.| u p @.$.%.,.K.L.<.v   0.2.e.g.Y.BXBXY.h.1.4.q.                                            ",
"                                        u u p $.&.$.@.&.<.<.O.b k 9.e.h.T.VXMXI.h.1.2.5.                                              ",
"                                        . = u a v @.%.%.%.O.c z q.r.z.R.MXBXR.l.1.6.^                                                 ",
"                                    _.q q 0 = = * v %.} } c z 2.r.l.R.VXBXI.l.p.2.^                                                   ",
"                      + 0 0XAX5X%X<X3XrXeXoXd o X * t = - z 9.s.l.R.BXNXR.z.s.3.l G OXzX                                              ",
"                    K ; S 3XcX7X{.}.3XAXbXeX` , X . . o f 3.s.z.T.BXBXT.z.s.4.f > m Q.:X9X                                            ",
"    4 '.5XAX9X! OX+XK n ).1X2X_.< : ~ .XqX;XT 7 % . o f 8.s.l.R.BXMXT.z.s.3.f o . X ; 8 0 y } &.K.yXJ.$.}                             ",
"  n (.4XxXcX7X{.{.(.N 1 K [.}./.3 . . < T oX' U 6 & f 3.s.z.R.MXBXR.l.p.9.l # . . . . . = p &.J.K.K.G.&.@.|                           ",
"N Q.#XcXlX4X<X&X(.: . . X ; J +X[.4 . # Y -X-XR D l 3.s.z.Y.CXBXT.l.s.9.l 1 < 4 4 3 4 * u O.G.L.K.,.&.:.&.@. .                        ",
"[.{.].[ ( A #X6X[ . . . . . V @X}.3 : H ` -X-X` E 9.s.l.R.MXMXE.l.p.y.W S                  .;.K.,.O...@.@... .                        ",
"%X}.Z & . . ( 0X` & - 0 > X : G C : N Q.T R ' W 3.p.z.Y.MXVXR.l.1.4.E ` T                 7 ..%.@.i p | | | |                         ",
"<X}.n . . . = e S `.9X>X! n # @ # ; : m D ( W 9.1.x.Y.CXNXR.z.p.4.l q U ]     DXDXFXHX>XL      .y 0                                   ",
"%X+X/.3 # X . . Z 2XzX6X_.4 , ( ( , . O q E 9.1.x.Y.MXBXE.l.p.n.^ S 6 7 >.  HXcXzXJXGXlXXX    0 q                                     ",
"    +X/.G N # . N &X1X#XZ . e 0X>.* . & l 9.r.x.I.BXBXR.v.p.3.^ ).L 6 s ;XvXzX<X%X5XAXZXgX`.L                                         ",
"      (.Q.[.C X H $X%XOXF n P ] Y O o k 9.p.l.Y.MXBXuXz.s.3.l A L m I >.gX6X#X{.~._.[ >.9XwX:XJ n 4 4                                 ",
"        K @X^.# K <X%X*X{.{.(.9 o o g 2.s.l.I.MXVXR.z.s.4.k 8 < < D >.kXzX<X'.Z < + . . - D.fX Xm ; 3 N                               ",
"                                q.h k w.k.Y.CXBXE.z.s.3.f & 6 6 s >.vXzX<X'.F 4 X . . . . - `.}.F + N J V                             ",
"                                  V.n.y.B.MXVXiXv.s.9.k & % I ] >.kXzX1X'.F 4 @ . . . . . . 8 7X>X( _.}./.N                           ",
"                              V.iX  ,XM.pXBXiXv.x.r.k 9 7 I Y >.vXcX1X'.F 3 @ . . . . @ # X e eXHXgX|.{.(.K M                         ",
"                        b.x 9 i.dXGX>XW pXiXv.a.y.W q 7 U Y 7 ` 6X5X{.F 1 @ . . . . X + 9 ` >.D.sXbX.X4 N /.[.                        ",
"                        c.x j i.pXAX;X/ M.v.d.w.z / I * 7 w , K @XOXF 4 # . . . . > n ; 0 D.>.e { lX{ O . C +X                        ",
"                        x m.u.x [ jXhXqXW q.4.h , I s O . , Q }.'.K 3 @ . . . . @ H /.N O d - . H 5XgX) O + K $X                      ",
"                        4 M.c.j L qXGXJX[ 9 g r $ 7 I * . > [.+XQ.3 # . . . . @ V /.^.N # # X . n #X8XlX) . . G $X                    ",
"                        8 i.h.j T AX        . + ; D T T * @ G /.V @ . . . . @ V (.^.1 ; G /.C X . n #XxXlX) . + ^.$X                  ",
"              FXFXAXP : u.v.c.W qX            5 q T -X-XI . + 4 > . . . . # V ^.Q N # 3     ].H X . n #XxXlX) O X G @X                ",
"              FXFXvX~ z c.b.V.,XgX            D Y ] -X] w . . . . . . . . 3 (.).N X 3         ].G X . 4 #XxXlX) . . Z +X              ",
"                FXCXV.i.V.,X,X>XjX          w T ] ] ' d % . . . . . . . . M ].[.> . N           ].G @ . n #X8XlX) . . G +X      $X[.M ",
"                  VXB.M.>X=X=XXX.X          Y ` ' ` P 8 @ . . . . . . . # A /.G > ; N             ].G @ . 4 |.xXgX_ y d  X[.  ^.}.J : ",
"                    wX,X=X=XXX~ B           ' Y q S ^.^.8 . . . . . . # H /.A > 4 C                 ].H @ . 4 #X8XlXtX0X[ N n A A : X ",
"                    hXqX                    ' w % 1 J (.^.V V V V V A J ).(.V ; N                     ].A @ X L @XfXAXcX~ X + # @ .   ",
"                    GXhX                    T w % % 8 K (.].].].].].].].(.J G C                         ].G 3 n N S |.1XA . . . .     ",
"                                                        J Q Q J K K J K G                                 }.^.3 . . !.+X              ",
"                                                        C B M M M M M M N                                 OX).3 . . /.+X              "
};
