/* XPM */
static char *luke_181[] = {
/* columns rows colors chars-per-pixel */
"54 102 256 2 ",
"   c None",
".  c #010102",
"X  c #02050C",
"o  c #0B0708",
"O  c #140809",
"+  c #010914",
"@  c #020C1B",
"#  c #040715",
"$  c #150D15",
"%  c #181319",
"&  c #0D1114",
"*  c #25151A",
"=  c #23120C",
"-  c #010D27",
";  c #031224",
":  c #02142B",
">  c #091629",
",  c #161829",
"<  c #011A34",
"1  c #021E3B",
"2  c #051836",
"3  c #0C0E33",
"4  c #261A27",
"5  c #361E29",
"6  c #2B1A2E",
"7  c #04203D",
"8  c #1C253C",
"9  c #2B2237",
"0  c #34263B",
"q  c #372639",
"w  c #332D35",
"e  c #26221E",
"r  c #531A01",
"t  c #512509",
"y  c #7A3509",
"u  c #6F2F0D",
"i  c #462B3A",
"p  c #62392D",
"a  c #04712F",
"s  c #3B6525",
"d  c #145C27",
"f  c #61562B",
"g  c #021B46",
"h  c #001D56",
"j  c #012243",
"k  c #062549",
"l  c #172445",
"z  c #032957",
"x  c #06325D",
"c  c #1A3156",
"v  c #3C2A43",
"b  c #382A47",
"n  c #2F2F4F",
"m  c #002B62",
"M  c #002B6A",
"N  c #033569",
"B  c #013977",
"V  c #0E3372",
"C  c #31356B",
"Z  c #051B77",
"A  c #452E48",
"S  c #45314D",
"D  c #4A374B",
"F  c #4B3554",
"G  c #4A3555",
"H  c #533A5B",
"J  c #563958",
"K  c #56364E",
"L  c #673B5B",
"P  c #573D63",
"I  c #4E3B66",
"U  c #653D65",
"Y  c #06437D",
"T  c #32466F",
"R  c #37465B",
"E  c #585453",
"W  c #734B54",
"Q  c #5C4269",
"!  c #46506D",
"~  c #63446C",
"^  c #684975",
"/  c #765477",
"(  c #616E5C",
")  c #90380B",
"_  c #A23E04",
"`  c #884618",
"'  c #965A1B",
"]  c #934412",
"[  c #B44A0B",
"{  c #914F29",
"}  c #AD572A",
"|  c #B06D31",
" . c #9F6F25",
".. c #C76A32",
"X. c #C6501F",
"o. c #9C6F58",
"O. c #DC7856",
"+. c #009719",
"@. c #01BA1C",
"#. c #09AE0F",
"$. c #019A2A",
"%. c #008B35",
"&. c #048B38",
"*. c #009434",
"=. c #049A37",
"-. c #0C9033",
";. c #00A42C",
":. c #01AA2B",
">. c #00A225",
",. c #04BD24",
"<. c #07B62A",
"1. c #03A631",
"2. c #15D81B",
"3. c #0DD217",
"4. c #0AC326",
"5. c #15CA2A",
"6. c #19D724",
"7. c #1CD925",
"8. c #17D624",
"9. c #19C530",
"0. c #21D929",
"q. c #26DB2A",
"w. c #24CD31",
"e. c #31D533",
"r. c #33E82B",
"t. c #39E332",
"y. c #2BEB28",
"u. c #27E418",
"i. c #4AEE2B",
"p. c #45EC34",
"a. c #59F539",
"s. c #51F033",
"d. c #65FA3B",
"f. c #45F91D",
"g. c #159B43",
"h. c #7D9E67",
"j. c #19D15F",
"k. c #5CEF43",
"l. c #6DF747",
"z. c #6BF946",
"x. c #67F744",
"c. c #77F949",
"v. c #7AF351",
"b. c #75ED59",
"n. c #609A3D",
"m. c #BA9436",
"M. c #CC8B32",
"N. c #CBA338",
"B. c #E8AE3D",
"V. c #8D8F76",
"C. c #CD8E45",
"Z. c #D9A843",
"A. c #ED9171",
"S. c #E0A352",
"D. c #89FE48",
"F. c #89FC53",
"G. c #98FE58",
"H. c #96FE4B",
"J. c #A6FE59",
"K. c #A9FD55",
"L. c #A9FD64",
"P. c #B3FE65",
"I. c #B9FD69",
"U. c #B8FD72",
"Y. c #ABFD74",
"T. c #9CF867",
"R. c #C4FE6D",
"E. c #C5FD71",
"W. c #CAFD77",
"Q. c #D1FB7D",
"!. c #D1FC77",
"~. c #81FF3E",
"^. c #003E82",
"/. c #003A89",
"(. c #083390",
"). c #0033AB",
"_. c #024385",
"`. c #03478C",
"'. c #034995",
"]. c #01529D",
"[. c #154F92",
"{. c #315489",
"}. c #0154A4",
"|. c #0358AA",
" X c #015BB5",
".X c #1059A5",
"XX c #0262BB",
"oX c #1C68B6",
"OX c #306AAA",
"+X c #2C609A",
"@X c #745283",
"#X c #795589",
"$X c #6D4F8C",
"%X c #5D698B",
"&X c #005ACB",
"*X c #0566C8",
"=X c #056BD3",
"-X c #0E6FD5",
";X c #337DCA",
":X c #036CE4",
">X c #0676E5",
",X c #0F7AF0",
"<X c #207BE5",
"1X c #5A6AC1",
"2X c #845B94",
"3X c #907392",
"4X c #068BAA",
"5X c #7393B1",
"6X c #4C87BB",
"7X c #0D88F7",
"8X c #3095F0",
"9X c #3484D5",
"0X c #4E90D0",
"qX c #4FAAF9",
"wX c #72B9FA",
"eX c #70A0CC",
"rX c #8B868C",
"tX c #ADA4AC",
"yX c #949EAD",
"uX c #C6ACA9",
"iX c #AFF6A2",
"pX c #D3FC83",
"aX c #DAFC87",
"sX c #DBF998",
"dX c #C9FC88",
"fX c #E3FB98",
"gX c #E1FE8B",
"hX c #D8F9A8",
"jX c #E6FBA8",
"kX c #E7F8BB",
"lX c #EAF9B8",
"zX c #E4CBB6",
"xX c #A9B7C5",
"cX c #87B5E3",
"vX c #95CDF8",
"bX c #ABD7F6",
"nX c #A5D2E4",
"mX c #EBF9C6",
"MX c #F2FAC7",
"NX c #F4F8D4",
"BX c #F4F9DC",
"VX c #F8F8D7",
"CX c #F0F4D3",
"ZX c #F5F8E6",
"AX c #FBF9EC",
"SX c #F9F9E6",
"DX c #FAF8F5",
"FX c #F8F8F8",
"GX c #F8F8F9",
"HX c #FAF8FA",
"JX c #FBF8FF",
"KX c #FDF8FF",
"LX c #F9F8FA",
"PX c #FAF8F6",
"IX c #EBF0F2",
"UX c #D8EACC",
/* pixels */
"                        %.%.%.%.%.%.%.%.%.%.%.%.%.%.%.%.%.%.%.%.%.%.%.%.%.%.%.%.%.%.%.%.%.%.%.%.*.          ",
"                        *.;.;.;.;.;.;.;.;.;.;.:.:.:.:.:.:.:.:.:.:.:.:.:.;.;.;.;.;.;.;.;.;.;.;.;.:.:.        ",
"                      *.;.4.7.7.7.6.6.6.6.7.7.7.7.7.0.0.0.0.0.0.0.0.0.7.7.7.6.6.6.8.8.8.6.6.7.7.5.<.:.      ",
"                    *.;.4.t.l.c.l.l.l.l.l.l.l.l.l.l.l.l.l.l.l.l.l.l.l.l.l.l.l.l.l.l.l.l.l.l.l.a.r.5.<.      ",
"                  *.1.5.r.c.P.R.P.P.P.P.P.P.P.P.P.P.P.P.P.P.P.P.P.P.P.P.P.P.P.P.P.P.P.P.P.I.P.F.a.y.4.      ",
"                  1.e.a.F.U.aXaX!.!.Q.!.!.!.!.!.!.!.!.!.!.!.!.!.!.!.!.!.!.!.!.!.!.!.!.!.!.pX!.U.D.a.q.:.    ",
"                  5.k.J.W.sXmXmXmXkXkXkXkXkXkXkXkXkXkXkXkXkXkXkXkXkXkXkXkXkXkXkXkXkXkXkXlXmXkXdXL.D.a.w.<.  ",
"                  q.v.R.aXMXKXKXKXDXKXKXKXKXKXKXKXKXKXKXKXKXKXKXKXKXKXKXKXKXKXKXKXKXKXDXKXKXDXmXpXP.F.a.9.<.",
"                  q.F.E.aXNXKXKXKXKXKXKXKXKXKXKXKXKXKXKXKXKXKXKXKXKXKXKXKXKXKXKXKXKXKXKXKXKXKXAXMXaXJ.a.0.5.",
"                  q.v.I.aXmXKXKXKXKXKXKXKXFXFXFXKXFXKXFXFXFXFXKXKXKXFXFXFXFXFXFXKXKXKXKXKXKXKXKXAXjXP.l.r.7.",
"                  0.v.I.pXmXKXKXKXFXFXFXFXFXFXFXKXFXFXFXFXFXKXKXFXFXFXFXFXFXFXFXFXFXFXFXDXDXKXKXAXjXE.F.p.7.",
"                  0.v.I.pXmXKXKXKXFXFXFXFXFXFXFXFXFXFXFXFXFXKXFXFXFXFXFXFXFXFXFXFXFXFXFXFXFXKXKXAXjX!.L.k.0.",
"                  q.v.U.pXmXKXKXKXFXFXFXFXFXFXFXFXFXFXFXFXFXFXFXFXFXFXFXFXFXKXDXFXFXKXFXFXKXKXKXZXjXE.L.p.7.",
"                9.p.F.U.pXmXKXKXFXDXFXFXFXFXFXFXFXFXFXFXFXFXFXFXFXFXFXFXFXFXKXKXFXFXKXKXKXKXDXBXjXQ.L.c.t.7.",
"              :.w.x.L.I.Q.mXKXKXKXKXFXFXFXFXKXKXKXKXFXFXFXFXFXDXKXKXKXFXFXFXFXKXFXFXKXDXKXKXKXmXQ.J.l.p.q.6.",
"              :.w.l.U.!.aXmXKXKXKXKXFXFXFXFXKXKXKXFXFXFXFXFXFXKXKXKXKXKXFXFXFXFXFXFXKXKXKXKXKXlXR.D.p.0.7.  ",
"              :.5.d.U.fXlXZXKXKXFXFXFXFXFXKXKXKXKXKXDXFXFXFXKXKXFXFXKXKXFXFXFXFXFXDXKXKXKXKXBXjXL.s.7.8.    ",
"              <.q.z.R.lXAXKXKXKXDXKXFXFXFXFXKXKXKXKXFXFXFXFXKXKXFXFXFXKXFXFXFXFXFXKXKXKXKXNXsXE.v.r.2.      ",
"              <.p.G.E.lXDXKXKXKXDXFXFXFXFXFXDXFXFXKXFXFXFXFXFXFXFXFXKXKXFXFXFXFXFXKXKXKXBXsXI.G.a.q.        ",
"              5.a.L.!.kXDXKXKXKXFXFXFXFXFXFXFXFXFXFXFXFXFXFXFXFXFXFXKXFXFXFXFXKXKXKXKXBXsXI.G.x.t.          ",
"            ;.8.a.U.!.kXFXKXKXFXFXFXFXFXFXFXFXFXFXFXFXFXFXFXFXFXFXFXFXFXKXFXKXKXKXKXNXsXI.G.x.e.<.          ",
"            $.5.a.L.R.jXAXKXKXFXFXFXFXFXFXFXFXFXFXFXFXFXFXFXFXFXFXFXKXFXDXDXKXKXDXNXsXI.G.d.r.<.            ",
"            ;.8.a.L.!.kXFXKXKXFXFXFXFXFXFXKXKXKXKXDXKXFXFXFXDXFXFXFXKXKXDXFXKXKXBXsXI.G.x.r.6.              ",
"            <.r.D.Q.lXZXKXKXKXFXKXKXFXFXFXKXKXKXKXKXKXFXFXFXKXKXFXDXDXKXFXKXKXKXmXI.H.k.e.5.                ",
"            9.s.J.fXAXKXKXKXDXFXKXDXFXFXFXFXFXKXKXFXFXFXFXFXFXKXFXFXKXKXKXKXKXDXhXG.d.e.<.                  ",
"            5.s.J.fXDXKXKXFXFXFXKXDXFXFXFXFXKXKXKXDXFXFXFXFXKXKXFXFXKXKXKXKXDXlXU.d.y.5.                    ",
"            9.s.J.fXAXKXKXFXFXFXFXFXFXFXFXFXFXFXFXFXFXFXFXFXFXFXFXFXFXKXKXAXmXpXD.r.7.                      ",
"            5.a.J.sXAXKXKXFXFXFXFXFXFXFXFXFXFXFXFXFXFXFXFXFXFXFXFXFXKXKXDXmX!.J.a.7.                        ",
"          :.e.c.I.sXAXKXKXKXFXFXFXFXFXFXFXFXFXFXFXFXFXFXFXFXFXFXFXFXKXKXDXsXK.D.t.4.                        ",
"        *.,.p.G.E.sXZXKXKXKXFXFXKXKXFXFXFXFXFXKXKXKXFXFXFXFXFXKXKXKXKXKXAXdXD.p.9.;.                        ",
"        *.4.p.G.E.sXZXKXKXKXKXFXKXKXDXFXFXFXKXKXKXDXFXFXFXKXKXKXKXKXKXAXjXG.i.9.;.*.                        ",
"        *.,.p.G.E.sXZXKXKXKXKXKXKXKXFXFXFXFXKXKXKXKXFXFXFXKXKXKXAXZXmXsXD.i.9.;.%.%.                        ",
"        *.,.p.G.R.sXZXKXKXFXFXFXFXFXFXFXFXFXFXFXFXFXFXFXKXKXKXAXlXsXU.d.2.,.;.%.%.                          ",
"        *.,.p.G.R.sXZXKXKXFXFXFXFXFXFXFXKXFXFXFXKXFXFXKXKXKXAXlXpXJ.s.3.@.$.%.%.                            ",
"        *.,.p.G.R.sXZXKXKXKXFXFXFXFXKXDXFXFXFXFXKXDXFXKXKXKXmX!.K.a.2.,.$.%.%.                              ",
"        *.,.p.G.E.sXZXKXKXKXFXFXFXFXKXKXKXFXFXFXFXFXKXKXKXKXlXJ.s.8.,.;.*.%.                                ",
"        *.,.p.G.E.sXZXKXKXFXFXFXFXKXKXKXKXFXFXFXFXKXKXKXKXAXdXa.2.,.1.=.g.                                  ",
"        *.,.p.G.R.sXZXKXKXKXFXFXFXFXKXKXFXFXFXKXKXKXKXKXAXjXc.2.@.;.%.%.                                    ",
"        *.,.t.F.R.sXZXKXKXFXFXFXFXFXDXDXKXFXKXKXKXZXNXkXdXc.2.@.;.a s s                                     ",
"        *.4.s.G.W.kXAXKXKXFXFXFXFXFXFXFXKXKXKXKXAXlX!.J.s.2.@.1.=.s ` )                                     ",
"        =.w.d.J.hXZXKXKXKXKXFXFXFXFXFXFXFXKXKXZXlX!.J.s.2.@.;.-.n.m.M.[ )                                   ",
"        =.e.~.U.mXKXKXKXKXKXFXFXFXFXKXKXFXKXKXMX!.K.s.8.4.;.a s | B.B. .y                                   ",
"        =.e.D.pXBXKXKXKXKXKXFXFXFXFXKXDXKXKXKXmXL.s.2.,.;.-.s ` ..S.Z. .y                                   ",
"        =.e.D.aXBXKXKXKXKXKXFXFXFXFXKXKXKXKXKXUXx.3.@.>.-.( | ..M.C.C.|  .`                                 ",
"        =.e.D.pXBXKXKXKXFXFXFXFXKXKXKXKXKXKXKXiX0.#.>.g.( | ..M.N.C.C.C.m.' y                               ",
"        1.t.D.pXNXKXKXKXFXFXFXKXKXKXKXKXKXKXmXb.@.+.g.V.C.} y y | C.C.Z.N.' y                               ",
"        <.t.D.pXNXKXKXKXFXKXKXKXKXAXBXBXUXiXb.w.:.g.h.A.O.} r r u | C.B.N.' y                               ",
"        <.t.D.pXNXKXKXKXFXKXKXKXAXjXpXL.k.0.4.>.-.h.A.A.O.} ` u r y | Z.N.' y                               ",
"        <.t.D.pXNXKXKXKXKXKXKXZXlXE.H.i.3.@.+.a s o.A.O.} } } ' y r y | M.' y                               ",
"        <.t.D.pXNXKXKXKXKXKXKXMXQ.G.p.3.@.:.$.s ] X...| } } } } ` r t { | ' )                               ",
"        <.t.D.pXNXKXKXKXKXKXDXjXG.i.8.,.;.=.    } X.] ` ' } } ] r = q J W `                                 ",
"        <.q.c.Q.MXKXKXKXKXKXmXY.p.3.,.;.$.%.    p ) ) u u y f w > # , n F                                   ",
"        <.t.D.pXNXKXKXKXKXNXY.i.3.,.$.*.%.      n p ] ] u * z `.z # X ,                                     ",
"        w.b.E.gXNXKXKXKXBXU.i.3.,.$.*.%.      Z C W o.A.o.b V '.z + o % 9                                   ",
"        t.T.aXfXMXDXKXSXfXl.3.@.$.*.*.      (.C P L / tXyX@X#X#XG 6 0 v v 0                                 ",
"        y.l.L.E.sXlXMXjXE.s.,.$.*.*.        $XH * O 4 R T R rXuX3XP P Q S 0 0                               ",
"        #.u.d.F.U.aXgXE.F.e.$.%.*.          U 0 ; - k R c x %XtX3X#X#X^ H F S v                             ",
"        d <.y.a.H.P.I.F.t.<.%.%.            % > B  X9XyX5X.XN w K ^ @X^ P ~ Q A 0                           ",
"        ).4Xj.y.f.d.l.p.<.$.+.            3 . : `.:X8XwXwX7XM . * P @X@X^ ^ P v 0                           ",
"        ).&X4Xj.u.2.2.4.$.-.            T T l k B }.XXoX-X*Xk . $ F #X2X@XQ F v 0                           ",
"      < g Z OX    #.#.+.+.            c 5XyXOXB M B B M z g + . O A @X2X#XQ A 0 0                           ",
"    n $ . v tXIX    a               - V eXvX9XB g : : ; : : + . o 0 ~ #X@XP v 9 9                           ",
"k C P * = o.CXIXcX                h ; V 9X8X.X2 . . . . 1 N j X O 4 A ^ ^ H 9 4 4                           ",
"1 l v $ % E V.rX;X:X  ).<XvXIXwX*Xk ; M &X&Xk . + j 1 X ; z 1 . O 4 0 H Q S 9 6 6                           ",
"8 , X . . . o # `.=X'.Z *XwXbXqX&XM ; g `._.; + N }.N @ . . . . O 6 v H H A 0 9 9                           ",
"P 0 o . . . . + ^.*XN - B ;X0XoX'.M : @ z N < z }.`.7 . . . . . $ q Q ~ J v 9 l l                           ",
"1XC # . . . . + `.=Xj . @ k M g 2 < X . + j N _._.z @ . . . . . o S @X@XH v 9 7 7                           ",
"<X[.@ . . . . + `.=Xk . . . . . . . . . . < _.B < < < + . . . . O S #X@XJ v 9 7 g                           ",
"+X[._.B M B B ^. X*XY j 1 7 7 7 j j k j @ < N j . + ; + @ : @ . $ G #X^ A 6 , 1                             ",
"` ! *X7X8X8X<X-X=XXX X|.|.|.|.|.|.XXXX}.x 1 l , . . . . ; k < + 4 Q @XQ 0 4 ,                               ",
"[ p [.8XvXxX3X( {.                          S A $ X X . X ; < 2 b Q ~ F 0 6 9                               ",
"..{ D %XuXC.[ _                             ^ L 0 z z < . . + 2 b ~ J b b 0                                 ",
"    { ` ` ] [                               L L I [.`.z X . . # b ~ H l l                                   ",
"                                            i K ^ {.N < . . . $ F ^ H , ;                                   ",
"                                            4 b ^ P 9 # . . o q ^ @XF $ . 4                                 ",
"                M M z M M M M M M M M M n 9 > l I U L K 6 % 0 ^ #X/ H % . 4 v                               ",
"              B ^.^._._.^.^.^.^.^._.`.C l % 4 D W / @X2X^ D F H S v 0 % o 4 v                               ",
"            ^.].|.}.}.}.|.|.|.|.|.|.+X! 6 O t  .m.o.Q $X2X^ v $ . . o o % 0 v                               ",
"            XX*X|._.Y _.`.`.`.`.`.`.T P A 5 t '  .f C {.+XQ 0 % $ $ $ % 9 0 v                               ",
"            =X|.N k k k k 1 7 k k j , 6 J ~ H i 5 5 c '._.8 5 A H S 0 0 v v v                               ",
"            ].j ; 2 1 > X . X > > + . o 6 Q $XC , . > x z % 4 J ^ H q v S A v                               ",
"            N . . ; > @ . . . @ ; X . . o q ^ ^ v o . % 4 4 0 H H 0 4 0 F S v                               ",
"            B : . . . . . . . . . . . . o 4 S ~ ~ S 4 * * 0 P ~ v % % q H S v                               ",
"              '.k . . . . X X . . . . . X % 4 q D U ~ H H Q ~ S % . O v H S 0                               ",
"                }.1 X @ j N z ; . . . . . o O o $ n ^ / / ^ P 6 . . % q F A 0                               ",
"                  `.`.`.|.*X*XV : ; + . . . + < k z n q q D Q F 6 4 0 0 0 0 0                               ",
"                    >X=X].}.|.N 2 : 1 < + X k +X0X+Xk + . O q J Q ^ ^ S 4 5                                 ",
"                      ].7 @ : @ X + z B k g }.qXbXeX_.< . . o 6 ^ 2X#XH 5                                   ",
"                        j ; + . . . < N B '.:XqXcX6XB - . . @ z C J D i 5                                   ",
"                          }._.1 . . . @ N *X7X8XoXV < + X + z B 7 o o O $ 2                                 ",
"                              `.j . . . B 8XvX0XN + + k N z z 1 X . . X @ 2 (.>XwXIXKXtX                    ",
"                                `.< . . /.qXvX5X8 . + Y }.M @ . . + j T T [. X:X0XxXzXrXo                   ",
"                                  `.; . `.7X8X{.> . + N N < ; 1 g M [.5XxX0X:X&X.X{.! 8 . .                 ",
"                                  >XB < ].,X Xg @ @ : < : : N }.*X:X7X5XrX%X`.`.`.B g # . .                 ",
"                                  ,X}.B  X=XB X X < g @ + j _. X=X,X>XY % o ; h /./.z # . .                 ",
"                                ,X*X}.*X=X|.k . . : k , O ; 1 k z z z g g g 2 3 g z g @ . .                 ",
"                              =X X^.}.7X7X}.1 . X < k , O . . . . . X z |.*X.X! E ! V g X .                 ",
"                        7X>X X`.N z ].7X7X*Xz $ : z k > o . . ; z N N ].      xXzXxX0X].# .                 ",
"                        |.`.x < ; : N *X7X7X|.N z k < @ @ < z Y |.            V.xXbXvX0X> .                 ",
"                          ; . . . . ; B =X,X*X`.M ; X ; N ]. X X              $ c 6XnXyXe .                 ",
"                                        N N x k : .                           . X g ! E = .                 ",
"                                          X . . . .                           . . . . o . .                 "
};
