/* XPM */
static char *luke_151[] = {
/* columns rows colors chars-per-pixel */
"59 92 256 2 ",
"   c None",
".  c #010101",
"X  c #0B0303",
"o  c #02050B",
"O  c #0B050A",
"+  c #09090C",
"@  c #180607",
"#  c #010513",
"$  c #030913",
"%  c #030D1B",
"&  c #050518",
"*  c #180D14",
"=  c #1A1419",
"-  c #0B1119",
";  c #251617",
":  c #31100B",
">  c #03301B",
",  c #010D25",
"<  c #031124",
"1  c #04152C",
"2  c #171525",
"3  c #000735",
"4  c #001532",
"5  c #00153B",
"6  c #031D3C",
"7  c #0A1C3A",
"8  c #051A33",
"9  c #19182F",
"0  c #241A25",
"q  c #2A1E2C",
"w  c #281926",
"e  c #321D32",
"r  c #03203D",
"t  c #142139",
"y  c #113029",
"u  c #372639",
"i  c #2D2834",
"p  c #39261B",
"a  c #4D1C01",
"s  c #4E250D",
"d  c #682B07",
"f  c #7A3808",
"g  c #74340D",
"h  c #45273A",
"j  c #4A372F",
"k  c #682F1A",
"l  c #047413",
"z  c #11762F",
"x  c #2A531D",
"c  c #4B5119",
"v  c #714E35",
"b  c #4E6228",
"n  c #64452E",
"m  c #021C43",
"M  c #051847",
"N  c #001D57",
"B  c #0D1449",
"V  c #01244B",
"C  c #062447",
"Z  c #022552",
"A  c #042A54",
"S  c #012B5C",
"D  c #062756",
"F  c #172E55",
"G  c #392844",
"H  c #313153",
"J  c #012C63",
"K  c #012966",
"L  c #02326A",
"P  c #043465",
"I  c #002B77",
"U  c #033B72",
"Y  c #023D7B",
"T  c #043775",
"R  c #163668",
"E  c #2A3868",
"W  c #001B67",
"Q  c #462D47",
"!  c #4A314C",
"~  c #55324C",
"^  c #4D3553",
"/  c #483558",
"(  c #543758",
")  c #402F52",
"_  c #643C59",
"`  c #543D64",
"'  c #663368",
"]  c #085249",
"[  c #3E4F50",
"{  c #03417D",
"}  c #184066",
"|  c #334A6F",
" . c #386274",
".. c #4B5159",
"X. c #4A474E",
"o. c #67534B",
"O. c #53744D",
"+. c #514A6D",
"@. c #664775",
"#. c #67476F",
"$. c #4E6B6E",
"%. c #6D6D71",
"&. c #6F6358",
"*. c #85390A",
"=. c #8A3612",
"-. c #823F24",
";. c #8A4108",
":. c #894516",
">. c #964A14",
",. c #AE5418",
"<. c #9A5426",
"1. c #8F4F2B",
"2. c #A95829",
"3. c #AB542D",
"4. c #AA683A",
"5. c #B96632",
"6. c #C36439",
"7. c #98664E",
"8. c #B26945",
"9. c #8B7F74",
"0. c #C87B52",
"q. c #C47549",
"w. c #04831D",
"e. c #009115",
"r. c #00AB1E",
"t. c #00AA19",
"y. c #02B71C",
"u. c #05BD0E",
"i. c #008D2E",
"p. c #088823",
"a. c #00952C",
"s. c #00992E",
"d. c #089822",
"f. c #008B36",
"g. c #008636",
"h. c #019833",
"j. c #14912F",
"k. c #00AC20",
"l. c #03A62C",
"z. c #06B824",
"x. c #13AC2A",
"c. c #5D9539",
"v. c #04C31C",
"b. c #24D81F",
"n. c #01C223",
"m. c #11CB2D",
"M. c #2CDB23",
"N. c #26DA21",
"B. c #33D72A",
"V. c #37E72A",
"C. c #36EA34",
"Z. c #36ED2A",
"A. c #45E332",
"S. c #4BE534",
"D. c #4BE832",
"F. c #46D239",
"G. c #05984E",
"H. c #0E9561",
"J. c #6F8B6D",
"K. c #6D8D56",
"L. c #67F343",
"P. c #4ED642",
"I. c #8DB16E",
"U. c #9B8D61",
"Y. c #D58F65",
"T. c #E6936D",
"R. c #F3A679",
"E. c #E0914C",
"W. c #98FA5D",
"Q. c #8DFE4F",
"!. c #9DFB62",
"~. c #96F678",
"^. c #A5FD6A",
"/. c #ADFD74",
"(. c #A6FD75",
"). c #B3FE7B",
"_. c #B4FD7A",
"`. c #B6EC76",
"'. c #96DC69",
"]. c #CDF67C",
"[. c #023B8A",
"{. c #00398C",
"}. c #044588",
"|. c #014B93",
" X c #024895",
".X c #04529A",
"XX c #144E8F",
"oX c #2F5390",
"OX c #006E8D",
"+X c #014CA5",
"@X c #0255AA",
"#X c #0357A7",
"$X c #0259B5",
"%X c #135BAC",
"&X c #0D64B6",
"*X c #3372B4",
"=X c #2D6891",
"-X c #4D6695",
";X c #73758F",
":X c #5576AB",
">X c #6E6EA2",
",X c #0466C7",
"<X c #066DD4",
"1X c #0672DC",
"2X c #1573D6",
"3X c #2875C7",
"4X c #057AE9",
"5X c #007CFB",
"6X c #005CD0",
"7X c #83578F",
"8X c #877D99",
"9X c #718698",
"0X c #708AAD",
"qX c #68A5A6",
"wX c #0685FD",
"eX c #1086F9",
"rX c #238DF0",
"tX c #3981C8",
"yX c #4C8EC9",
"uX c #64A5E3",
"iX c #368690",
"pX c #8B8C8F",
"aX c #8EB292",
"sX c #8994AA",
"dX c #8EA6AE",
"fX c #A0AEB8",
"gX c #E1BC98",
"hX c #B1F98C",
"jX c #A6D496",
"kX c #CFF98A",
"lX c #F0FEA8",
"zX c #D2DFAB",
"xX c #929EC8",
"cX c #92AACA",
"vX c #A4B4CD",
"bX c #87BAEC",
"nX c #B4C4CF",
"mX c #8EC6F8",
"MX c #9FE6F1",
"NX c #D2D1CF",
"BX c #F3FFC5",
"VX c #F4FFCC",
"CX c #FAFFCC",
"ZX c #F5FFD4",
"AX c #FAFFD5",
"SX c #FAFFDB",
"DX c #F6FFDA",
"FX c #F0F2D8",
"GX c #D1D6E8",
"HX c #CDE8FD",
"JX c #FFFFFF",
"KX c #FFFFFE",
"LX c #FCFDF5",
"PX c #EFEFEB",
"IX c #E1D4C6",
"UX c #C5B5DA",
/* pixels */
"    h.z.M.Z.m.a.g.                                                                                                    ",
"    l.B.L.L.P.l.a.                                                                                                    ",
"f.l.m.L.].lX/.B.r.i.                                                                                                  ",
"f.l.N.Q.lXLXVX!.M.k.i.                                                                                                ",
"f.s.m.L.kXSXJXBXW.N.r.i.                                                                                              ",
"  f.h.x.S.hXSXJXBXW.b.r.i.                                                                                            ",
"    f.s.z.S.).SXJXBXW.N.r.i.                                                                                          ",
"      f.s.z.S.).SXJXBXW.N.r.i.                                                                                        ",
"        f.s.z.S.).SXJXBXW.b.r.i.                                                                                      ",
"          f.s.z.S.).SXJXBXW.b.r.i.                                                                                    ",
"            f.s.z.A.).SXJXBXW.M.k.i.                                                                                  ",
"              f.a.z.S.).DXJXBXW.N.k.i.                                                                                ",
"                f.s.z.S.).DXJXBXW.N.k.i.                                                                              ",
"                  f.s.z.A.).DXJXBXW.M.k.i.                                                                            ",
"                    f.a.z.S.).DXJXVX!.M.r.i.                                                                          ",
"                      f.a.z.A./.DXJXVX!.M.r.i.                                                                        ",
"                        f.a.z.A./.DXJXCXW.M.r.i.                                                                      ",
"                          f.a.z.A./.DXJXVX!.M.r.i.                                                                    ",
"                            f.a.z.A./.DXJXVX!.M.r.i.                                                                  ",
"                              f.a.z.A./.DXJXCX!.M.r.i.                                                                ",
"                                f.a.z.A./.AXJXVX^.M.k.i.                                                              ",
"                                  f.a.z.S./.DXJXVX^.M.r.a.                                                            ",
"                                    f.a.z.A./.DXJXVX^.M.k.i.                                                          ",
"                                      f.a.z.A./.DXJXVX^.M.k.i.                                                        ",
"                                        g.a.y.A./.DXJXVX^.M.r.i.                                                      ",
"                                          f.a.y.C.(.DXJXCX^.M.r.i.                                                    ",
"                                            c.x.n.V.(.DXJXCX^.M.y.h.                                                  ",
"                                            E.c.j.z.C.(.DXJXVX^.V.y.i.c *.                                            ",
"                                            E.4.b w.z.C.(.DXJXAX^.V.y.z c *.                                          ",
"                                            3.=.d x l n.C.^.DXJXAX^.Z.n.p.c g                                         ",
"                                            =.d a a x p.z.C.(.DXJXAX/.Z.z.p.z                                         ",
"                                            4.1.g <.4.b w.y.C.(.DXJXSX/.V.z.h.                                        ",
"                                            R.Y.0.T.T.4.c l z.C.^.VXJXAX^.V.z.a.                                      ",
"                                            T.T.R.R.T.6.:.c w.n.C.^.VXJXDX/.V.y.a.                                    ",
"                                            4.0.T.T.q.3.,.<.b p.u.V.^.DXJXAX/.V.y.a.                                  ",
"                                            f <.0.0.5.<.3.5.<.c w.n.Z.^.VXJXAX^.V.z.a.                                ",
"                                            :.<.2.2.2.2.1.-.*.d ] H.m.Z.^.VXJXAX/.V.y.a.                              ",
"                                            5.2.:.f :.2.n : : u XXOXg.u.Z.(.VXJXAX/.A.y.e.                            ",
"                                              5.;.a s g s . 3 Y +XL > l v.C.^.VXJXAX/.A.u.e.                          ",
"                                                  @ X a d p P |.[.B 2 > l v.Z.^.VXJXAX_.A.t.j.qXdX| M 3               ",
"                                                  O X a 5.Y...C E @.' u y l v.Z.(.VXJXSXhXF.h.G.H.|.I 3 o . <         ",
"                                                  & X *.E.gXv O G 7X7XQ 9 y g.n.L.kXSXJXDXhXx.l ] iX .1 3 R $...      ",
"                                            ) ( G 2 ; 1.R.R.1.@ w ` #.H M N ] z F.!.kXVXLXhXx.> O.jXU.- I uXMXsXF     ",
"                                          t ! _ ~ u H -XpXq.,.d ; u ` H D W N > l B.D.).lXI.z $.zXlXU.y =XMXMXyX.X    ",
"                                        C R | ` ~ h E &X=Xo.7.1.s : Q H F M 3 3 ] G.m.D.'.J.+.xXFXzXK.O.I.jXyX$X+X    ",
"                                      C .X,XXXF e h / E T XX3X:Xo.a : u G 2 4 I @XOXG.d.z ;XUXGX0X[ O.I.I.[ 8 M N     ",
"                                    C T ,X,XL % @ h ~ h F $X5XeX:XX.* e ! H A T [.U ] > 7 sXJXPX-X3 O.`.J.< . . &     ",
"                                  C U @X@XL % . = Q ~ h E @X,X,X2XXX2 p ` oXU 4 & $ - &       JXvXE O.`.I.2 . & B F B ",
"                                6 A }..XJ & . @ u ^ ! ! E E A C J C + @ G oXR o . . @ O         PX>XJ.].].O.% F 0XdXdX",
"                              7 m S L D % . . 0 ^ ^ ! ^ ^ u * X O O . . 0 ^ Q = . . O O           xXaXkXkXI.O.pXPXJXJX",
"                              7 C D 6 $ . . . 0 ^ ^ ! ^ Q w ; h ~ h = X = u ! G = . + *           0X0XdXdXaXI.zXJXJX  ",
"                              A U L 6 $ . . $ 9 Q ! ^ ^ u = u @.7X#.0 * 0 e ! ( G 0 q u           -X-X:X:X9XaXzXLX    ",
"                            A }.#XT C < . % C C i h ^ ! e 0 u #.;X@.u q q 0 u ^ ( ^ / /           C | :X:X:X0XnX      ",
"                          S }..X{ 6 $ $ 6 L T J C i u e u u u Q #.@.` G 0 0 q u ( ` / u           5 | :X0X0XcX        ",
"                        M Y  XL < . . $ { $X    J t ; ; u ! u w u ~ ( e O * = 2 i G Q s                     GX        ",
"                        D I L < . . o C @X          = ; w u ; @ * w w * X @ * * & = n 1.d                             ",
"                        X...u * & 1 D T               ; = @ X X 5 R ..o.&.&.X.; . : *.2.>.g                           ",
"                      <.8.8.<.j D |.+X                      . 4 #XuXnXIXNXNXpXu p g f *.<.:.a                         ",
"                    4.0.5.,.,.1.$.,X                        4 %XuXHXLXHXmXuX:X%X9XY.v a s s @                         ",
"                  4.Y.Y.<.d *.3.7.                        . L rXmXPXPXmX2X{.I ,XuXvX%.9 + @ *                         ",
"                  T.0.<.f d *.>.2.        8 7 7 7 7 m 6 $ . D #XtXvXGXuX+X3 3 [.*X*X3X|.7 e ! u                       ",
"                  T.2.f :.:.:.;.;.      S T T U P A 7 1 $ . % S {.*XuXyXT & . < 5 J $X<XXX| #.~ u                     ",
"                  8.:.:.2.2.>.*.      D @X1X,X#X|.U C C < . o 6 J |.&X%XJ & . . . & D $X1XXXG _ #.u                   ",
"                  :.:.:.<.<.:.      L @X4X4X$X}.{ }.}.}.P < o $ 6 L [.Y m o . . . . o L $XT q _ @.u                   ",
"                  f     ;.>.      M }.1X1X@XU C 6 L @X$X|.A $ . < A J 5 & . . . . . . < C 6 q #.@.u                   ",
"                                  m }.,X@XT S 4 & 8 L T T J < . % C m % . - % . . . . . o + q ( ( i                   ",
"                                  m T #X|.L S 6 $ o $ % 6 S 4 . . 4 P | %.;X[ . . . . . . X ; u u 0                   ",
"                                  6 U #X|.L C t 1 $ . o < 6 % . . 6 }.0XNXIXpXq . . . . . O 2 q 0 ;                   ",
"                                  7 P }.}.R i ; - 1 m m 4 $ . o A T P ..%.9.U.9.j X . . . % t t = ;                   ",
"                                  r D L J t : : X 1 D D 4 o . r $X$XC . . X ..fX9X2 . . & m J                         ",
"                                        4 O @ X . o < < < 4 4 P $X,XU % . o R yX*XZ 3 5 M J                           ",
"                                        C < o . . % r C C S J L |.,X,XA . $ L $X{.N M J I                             ",
"                                        @X}.m o o A |.            1X4XU . o P +X}.F                                   ",
"                                        4X,XD . . 1 }.              wX@Xr o 7 oX>XsX                                  ",
"                                        wX<X{ % . . 1 T #X          wX4X|.< @ Q 8XnX                                  ",
"                                          4X<XT % . . < U #X          wX,X6 . @ | yX                                  ",
"                                            wX<XT % . . r #X          wX6X5 . @ | yX                                  ",
"                                              wX<XT $ . < |.          rX2XF * h ;XcX                                  ",
"                                                wX<XT $ . C |.        mXmXsXo.u +.0X                                  ",
"                                                  wX1X{ % . C |.      NXIXgXU.u } &X                                  ",
"                                                    wX1X}.< o C |.    %.n n &.pXdXcX                                  ",
"                                                      4X#X1 . o P @X  J < o i pXIXFX                                  ",
"                                                      ,X{ $ . . 8 D   L T m o ; pXPX                                  ",
"                                                      @XU < o % % o   S T C . . | bXHX                                ",
"                                                      ,X.XD 1 < o       C 8 o o S 3XbXGX                              ",
"                                                    <X4X,XP < o .       r U P 8 % S *XuX                              ",
"                                                  }.#X$X}.8 . .           @X#XC . & @XwX                              ",
"                                                  D C 6 < . .               #X4 . & +XwX                              ",
"                                                    < . . .                   % . o A }.                              ",
"                                                                                . . . o                               ",
"                                                                                . . . .                               ",
"                                                                                . . . .                               "
};
