/* XPM */
static char *luke_94[] = {
/* columns rows colors chars-per-pixel */
"59 89 256 2 ",
"   c None",
".  c #010101",
"X  c #0A0403",
"o  c #01040B",
"O  c #0B080A",
"+  c #150909",
"@  c #000511",
"#  c #010A14",
"$  c #020D1A",
"%  c #0B0A14",
"&  c #160A14",
"*  c #0B1116",
"=  c #19121A",
"-  c #0D170D",
";  c #251519",
":  c #2B100D",
">  c #0C2C17",
",  c #020B26",
"<  c #011224",
"1  c #02142B",
"2  c #0B1526",
"3  c #191727",
"4  c #050D3A",
"5  c #011532",
"6  c #021B34",
"7  c #091A34",
"8  c #031C3B",
"9  c #061A3A",
"0  c #171B34",
"q  c #150E28",
"w  c #261A27",
"e  c #351A37",
"r  c #2C1026",
"t  c #13282F",
"y  c #362436",
"u  c #2E2C2E",
"i  c #352F1B",
"p  c #551A00",
"a  c #471801",
"s  c #582304",
"d  c #4E281D",
"f  c #662A06",
"g  c #763709",
"h  c #72370B",
"j  c #4B2E36",
"k  c #5A2631",
"l  c #005615",
"z  c #075630",
"x  c #056729",
"c  c #086A31",
"v  c #066414",
"b  c #774835",
"n  c #031C46",
"m  c #001B53",
"M  c #171C4C",
"N  c #3A1B47",
"B  c #032244",
"V  c #02234B",
"C  c #092448",
"Z  c #032A54",
"A  c #002559",
"S  c #022C5C",
"D  c #052754",
"F  c #142E4F",
"G  c #3C2944",
"H  c #2F354C",
"J  c #012E64",
"K  c #022B69",
"L  c #01346C",
"P  c #043569",
"I  c #013B73",
"U  c #013878",
"Y  c #0A2E73",
"T  c #051468",
"R  c #471E48",
"E  c #511F5A",
"W  c #452A46",
"Q  c #46314C",
"!  c #4B3656",
"~  c #553157",
"^  c #5A3C64",
"/  c #5D2C65",
"(  c #6A3371",
")  c #67344F",
"_  c #384651",
"`  c #0A774A",
"'  c #00427D",
"]  c #144377",
"[  c #314B71",
"{  c #21714D",
"}  c #744F4C",
"|  c #4F7152",
" . c #5C4267",
".. c #49526B",
"X. c #64466D",
"o. c #6B4B79",
"O. c #6E4D78",
"+. c #4F6E71",
"@. c #6E7271",
"#. c #5B5858",
"$. c #843E0F",
"%. c #894617",
"&. c #954A1A",
"*. c #925615",
"=. c #89480B",
"-. c #AA7719",
";. c #AC7518",
":. c #944F2A",
">. c #A75829",
",. c #AF5C31",
"<. c #B66837",
"1. c #AE732A",
"2. c #9B631F",
"3. c #C16C3A",
"4. c #D46722",
"5. c #825E50",
"6. c #906A4C",
"7. c #B67249",
"8. c #AA7C6E",
"9. c #C7744D",
"0. c #009410",
"q. c #00AA19",
"w. c #008A2E",
"e. c #009D24",
"r. c #009E28",
"t. c #0D9E2A",
"y. c #008633",
"u. c #008C34",
"i. c #028A3A",
"p. c #019534",
"a. c #00A226",
"s. c #02A629",
"d. c #06B529",
"f. c #33AF3D",
"g. c #14CC1A",
"h. c #13CB18",
"j. c #18D71A",
"k. c #08D218",
"l. c #22DB16",
"z. c #1ACA23",
"x. c #16C822",
"c. c #16D521",
"v. c #2ECE33",
"b. c #19E323",
"n. c #0FE122",
"m. c #2AE326",
"M. c #18E21B",
"N. c #55F138",
"B. c #739054",
"V. c #66B25A",
"C. c #11C343",
"Z. c #6EF145",
"A. c #6AF745",
"S. c #73F344",
"D. c #74F249",
"F. c #7BF74B",
"G. c #74F351",
"H. c #60E756",
"J. c #2A8055",
"K. c #B98634",
"L. c #C48D32",
"P. c #CEA732",
"I. c #92B76D",
"U. c #AC936C",
"Y. c #CD8951",
"T. c #EC8C54",
"R. c #D3AD49",
"E. c #D3936B",
"W. c #EA986C",
"Q. c #C7AE65",
"!. c #F4A477",
"~. c #85F955",
"^. c #84F951",
"/. c #A2E370",
"(. c #C2FF76",
"). c #003C86",
"_. c #003992",
"`. c #003FAB",
"'. c #024385",
"]. c #01458B",
"[. c #03498A",
"{. c #024A96",
"}. c #105295",
"|. c #024BA8",
" X c #0255A4",
".X c #0357AB",
"XX c #035BB6",
"oX c #0041B7",
"OX c #0361BB",
"+X c #0461B9",
"@X c #0962A6",
"#X c #2B72B6",
"$X c #335A8E",
"%X c #795689",
"&X c #755086",
"*X c #556B8F",
"=X c #4D76AD",
"-X c #697BAC",
";X c #5C6B8D",
":X c #025DC9",
">X c #0467C7",
",X c #0773DC",
"<X c #0C6ADA",
"1X c #0778E5",
"2X c #076FED",
"3X c #1B6ED3",
"4X c #437EC9",
"5X c #836581",
"6X c #845E96",
"7X c #6D8AAF",
"8X c #648CAB",
"9X c #0887FC",
"0X c #1286F1",
"qX c #2A8AE9",
"wX c #378EE0",
"eX c #4D8BCA",
"rX c #5BA5EA",
"tX c #6AC98F",
"yX c #8B9089",
"uX c #9194A5",
"iX c #A496AC",
"pX c #8FA9AF",
"aX c #AEADB2",
"sX c #A79693",
"dX c #CFB9B0",
"fX c #DDA987",
"gX c #AFD28D",
"hX c #ABD295",
"jX c #D6FF9C",
"kX c #DAFF9D",
"lX c #D1F88E",
"zX c #E5FF8E",
"xX c #D9CFB1",
"cX c #DBFFA2",
"vX c #DEFFAB",
"bX c #DDFEB5",
"nX c #E1FFAE",
"mX c #E1FFA6",
"MX c #E3FFB3",
"NX c #E7FFB9",
"BX c #F1FFAD",
"VX c #EFC6AB",
"CX c #8CA9CA",
"ZX c #B2BACD",
"AX c #8FBCE4",
"SX c #CEBAD3",
"DX c #8DC7F8",
"FX c #AAC4DC",
"GX c #EDF8C9",
"HX c #CDD4EB",
"JX c #FFFFEE",
"KX c #FDFFE7",
"LX c #FFFFF1",
"PX c #FFFFFB",
"IX c #ECF1F3",
"UX c #D8D9D8",
/* pixels */
"      i.p.x.m.m.d.w.                                                                                                  ",
"      p.d.v.Z.Z.v.a.w.                                                                                                ",
"i.i.u.d.m.~.zXkX~.z.e.y.                                              7.<.L.Q.xXUXHXHXxXR.;.=.                        ",
"i.i.u.d.N.(.GXJXMXF.g.e.y.                                            L.K.-.K.Q.U.8.8.E.R.P.-.%.                      ",
"i.i.p.s.v.~.vXLXPXvXS.h.e.y.                                          R.L.*.*.-.-.*.&.>.3.P.P.*.                      ",
"      p.s.v.G.cXLXPXcXS.h.e.y.                                        9.<.%.h =.-.;.*.$.<.R.P.2.                      ",
"        u.a.z.D.cXLXPXvXS.h.e.y.                                      &.$.f p f *.-.-.7.sXE.L.-.*.                    ",
"          u.a.z.D.kXLXPXvXS.h.e.y.                                    %.g s s h %.=.-.Q.xXdXE.L.-.=.                  ",
"            u.a.z.D.cXLXPXvXS.h.e.y.                                  E.7.:.>.7.,.g h 6.fXxXdXE.1.=.                  ",
"              u.s.z.D.cXLXPXvXS.g.e.u.                                fX!.E.W.!.Y.%.p p %.U.dXfX<.=.                  ",
"                u.r.z.D.kXLXPXnXS.g.e.u.                              Y.E.!.!.W.9.>.g p p h 6.Y.K.*.                  ",
"                  u.a.z.D.cXLXPXvXS.g.e.u.                            %.>.E.W.9.,.>.:.%.f a f 2.-.                    ",
"                    u.a.z.D.cXLXPXvXS.g.e.y.                          $.&.<.9.<.&.&.<.<.%.s s g                       ",
"                      u.s.z.D.cXLXPXvXS.g.e.u.                        >.>.>.&.&.%.>.9.3.%.f f                         ",
"                        u.a.z.S.kXLXPXnXS.h.e.u.                      7.:.h s g <.T.9.b a a s                         ",
"                          u.e.z.D.kXLXPXvXS.g.e.y.                      j & : &.W.!.b + . X + w                       ",
"                            u.r.z.S.kXLXPXvXS.h.e.u.                    0 . : 7.!.6.= . . o 3 #.@.                    ",
"                              u.a.z.D.kXLXPXvXS.g.e.u.                N q . j E.U.; . . o 3  .iXaXX.y j               ",
"                                u.r.z.Z.cXJXPXvXS.g.a.w.            e 3 O : 6.VX@.* . . & e X.iXiX%X5XyX}             ",
"                                  u.r.z.S.kXJXPXnXD.g.e.u.        R W q . s E.VX@.* . O w G  .&X&Xo.uXZXsX!           ",
"                                    u.r.z.Z.kXJXPXnXF.g.a.p.    u / / 3 X g !.VX@.O . = W  .O.&X^ H }.eXZXiX[         ",
"                                      u.r.z.Z.jXLXPXMXF.z.a.r.c H ( ( r + %.!.VX5.+ . w ~ O.%X%XQ % m >XrXCX[         ",
"                                        u.r.x.Z.kXJXPXMXF.g.q.i...( E q ; :.T.!.5.+ . w ^ O.%XO.y . A <X0X@XP         ",
"                                          u.r.x.Z.kXJXPXnXF.g.s.{ _ N Y ] } 4.T.b + . w  .%X%XX.y % L >X:XU A         ",
"                                            u.e.x.Z.jXLXPXnXD.j.s.x F |.<X*X>.4.f X o G O.%XO.~ y 7 U .X].K J         ",
"                                              u.e.x.Z.jXJXPXnXF.j.0.c  X<X<X+.&.p X 3 ^ %X&X^ y 3 8 J I L I ].'.      ",
"                                                u.r.x.Z.jXJXPXvXF.j.q.`  X2X3X*Xu X e X.%X&XX.W w < < 5 V ).XX#X*X    ",
"                                                  u.e.x.Z.kXJXPXnXF.j.q.` @X<X<XY 3 y X.&X&XO. .y O . o 8 K .XrXZX    ",
"                                                    u.e.z.Z.kXJXPXnXF.l.q.` {.`.T r j ^ X. . .! w . $ B 8 1 I eXrX=X] ",
"                                                      u.e.x.Z.kXJXPXMX^.l.q.c 8 , r W ^ X.^ G w X . V '.S # 5 .X1XXX).",
"                                                        u.a.z.Z.kXJXPXMX^.l.q.l > r R ^ O.X.Q = . . 1 I [.Z < S .X{.U ",
"                                                          p.d.c.Z.jXLXPXMXF.b.q.l > e / o.O.Q & . . % D .X[.< < I I Z ",
"                                                            u.a.c.A.jXJXPXMXF.b.s.x t e / ^ G % . X = D .X{.< @ V S D ",
"                                                            z z s.b.A.jXJXPXMXF.b.s.l t e R e % . + 3 D .X[.< . n '.{.",
"                                                            4 7 z e.j.A.jXLXPXMXF.b.q.l t e e & X = 3 D ].' 7 < J XX1X",
"                                                            4 4 $ l e.n.A.jXJXPXMXF.b.q.x H N & + y     V L I L U XX,X",
"                                                          n S V , - z s.n.A.jXJXPXMXF.M.d.` H & + W     7 J .X{.J I ].",
"                                                        7 V '.].n r G { s.k.N.lXJXPXMXF.b.d.x - & R     0 J .XI < 8 S ",
"                                                        7 V '.'.7 r R  .{ e.k.N.lXJXPXNX~.b.q.v > N       V L 8 . < V ",
"                                                        7 C J V o + k / ! J.C.b.A.lXKXPXNX~.m.s.c u       n 5 # . 1 m ",
"                                                        B n 5 o .     R ~ yXtXC.k.A.lXKXPXNX~.v.w.x       4 , o . 1 m ",
"                                                        V n @ . 1     M r 5.@.c 0.j.~.BXLXPXbXH.0.v V.    m T 4 % H ..",
"                                                        V 8 . # ].    I X + ; * l s.G.(.BXLXIXH.0.> I.lX  Y oXI 3 @.aX",
"                                                        u i : ;     9X[.$ 8 K K B z f.N.~.nXGXV.c #.xXlX| ] eX+.3 ..7X",
"                                                        %.%.&.%.  }.:XP 0 U :X|.m 3 z s.b.G./.@.;XZXGXgX| +.gXB.- D }.",
"                                                        ,.3.T.Y.b M A 7 % B J Z q & 3 c a.t.| uXSXHXuX| B.I.B.i O m _.",
"                                                        ,.<.W.E.} M A 1 . . X . + r e u z z H iXIXHX$XF I.gX#.o o n ).",
"                                                        %.&.3.9.) Y XXL O + ; ; ; e W G u 0 N %XSXHX-X_ I.lX| o o m {.",
"                                                        f $.,.,.k }.2XXXD y W y y Q ^ ! G e W ~ %XiX-X+./.zXI.u $ [ eX",
"                                                          %.,.>.d P :X|.J G W w u ^ %X&X~ G G Q Q Q ..7XhXzXlXB._ uXIX",
"                                                            &.%.i 8 K A 7 y y & w  .6X6XO.! G Q W e ..7XpXaXhXI.I.GXPX",
"                                                              g : H [ H = 3 = . & Q X.O.X.! G W j e H *X8X-X-XyXgXGXPX",
"                                                                w ..uX@.0 % + . O w y y y u w w w w 0 H *X-X-X*XpX    ",
"                                                                7 [ ;X..2 % & + = q % . X O O X + = 1     8X4XeXCX    ",
"                                                                8 F [ H # X = = 0 7 o . . . . . o 1         1XrX      ",
"                                                                5 [ 7X+.2 . O 0     o . . . . o < 8                   ",
"                                                              8 n +.uX@.2 . $       1 o . . # B Z 8                   ",
"                                                            7 n S H H w @ <         J 7 . . 7 '.].A                   ",
"                                                            7 Z U V o . o 1         ).V . . C {.XX|.K                 ",
"                                                            7 S .X].< . o 1         U V @ . 8 {.1XqX#XD               ",
"                                                            7 P >X>XV . . 1           J 8 @ < {.qXDX7XF               ",
"                                                            7 P >XOXV . . <           U L < o I wXDX7XF               ",
"                                                            7 S ].I < . . 1           U I 1 . 1 }.eX$XC               ",
"                                                            7 D S 5 . . #             J S 1 . * S {.U V               ",
"                                                            7 7 5 # . # 8             D B $ . . 1 m m 4               ",
"                                                            2 2 o . # 8 S             C 7 $ . . . . @ ,               ",
"                                                            P Z < $ B J                 C 1 $ < 2 u u _               ",
"                                                            <XXXJ Z '                     8 A {.#XpXdXdX              ",
"                                                            1X>XJ Z [.                    < A XXqXCXaXFX              ",
"                                                            >X[.< < [.                    . < '..X] $XqX              ",
"                                                            +XI # 1 .X                    . # I '.n L <X              ",
"                                                            OX' # 8 >X                    . # I '.n L ,X              ",
"                                                            OX' # 8 >X                    . $ I ' < Z ,X              ",
"                                                            OX' # 7 OX                    o 7 '.I o B ,X              ",
"                                                            OX' # < {.                    Z I .XI o B ,X              ",
"                                                            OX'.$ @ J                     {..XOXI o V ,X              ",
"                                                            >X{.7 # n                     .XXXOXI o V ,X              ",
"                                                            ,X.XS 7 q                     U {..XI o B ,X              ",
"                                                          9XOXI S C                         I ].Z . 7 OX              ",
"                                                        9X9XI # 8                             L 8 o 8 {.              ",
"                                                      1X9XOX1 . V                             A A K ).|.              ",
"                                                    >X1X>XJ o . I                             J }.wXwX4X              ",
"                                              9X9X1X>X.XL # . $ .X                            {.#XDXHXFXwX            ",
"                                              >XOX XI B $ . . < XX                            >X#XuXdXFXDX            ",
"                                                Z 7 # . . . . < OX                            >X[.u H =XAX            ",
"                                                                                              J 7 . o B ..            ",
"                                                                                              . . . . . X             ",
"                                                                                              . . . . . .             ",
"                                                                                              . . . . . .             "
};
