/* XPM */
static char *luke_86[] = {
/* columns rows colors chars-per-pixel */
"54 102 256 2 ",
"   c None",
".  c #010102",
"X  c #02050C",
"o  c #0B0708",
"O  c #140809",
"+  c #010914",
"@  c #010C1B",
"#  c #040715",
"$  c #150D15",
"%  c #181319",
"&  c #0E1114",
"*  c #25151A",
"=  c #23120C",
"-  c #010D26",
";  c #031224",
":  c #02142B",
">  c #091629",
",  c #161829",
"<  c #011A34",
"1  c #021E3B",
"2  c #051836",
"3  c #0C0E32",
"4  c #261A27",
"5  c #361E29",
"6  c #2B1A2E",
"7  c #04203D",
"8  c #1C253C",
"9  c #2B2237",
"0  c #35263C",
"q  c #372639",
"w  c #332D35",
"e  c #26221E",
"r  c #531A01",
"t  c #512509",
"y  c #7A360A",
"u  c #6F2F0D",
"i  c #462B3A",
"p  c #62392C",
"a  c #04712C",
"s  c #396724",
"d  c #32591F",
"f  c #724C34",
"g  c #4D732F",
"h  c #644A22",
"j  c #021D43",
"k  c #021A48",
"l  c #001D56",
"z  c #012243",
"x  c #062549",
"c  c #172445",
"v  c #012C5D",
"b  c #042855",
"n  c #0D325A",
"m  c #3C2A43",
"M  c #382A47",
"N  c #2F2F4F",
"B  c #012B63",
"V  c #002B6A",
"C  c #033568",
"Z  c #013877",
"A  c #0E3372",
"S  c #31356B",
"D  c #041D76",
"F  c #452E48",
"G  c #45314D",
"H  c #4A374A",
"J  c #4B3554",
"K  c #4A3555",
"L  c #533A5B",
"P  c #563958",
"I  c #56364E",
"U  c #673B5B",
"Y  c #583D64",
"T  c #4E3B66",
"R  c #653D65",
"E  c #06437D",
"W  c #32466E",
"Q  c #284653",
"!  c #585453",
"~  c #734B54",
"^  c #5C4269",
"/  c #46506D",
"(  c #63446C",
")  c #684975",
"_  c #765477",
"`  c #5F705B",
"'  c #90380B",
"]  c #A23E04",
"[  c #965A1B",
"{  c #8D4614",
"}  c #B44B0B",
"|  c #935029",
" . c #AD572A",
".. c #B06E30",
"X. c #9F6F25",
"o. c #C76A31",
"O. c #C5501F",
"+. c #9C6F58",
"@. c #E37554",
"#. c #00981C",
"$. c #06B61A",
"%. c #019629",
"&. c #008D38",
"*. c #058C36",
"=. c #019535",
"-. c #039338",
";. c #059939",
":. c #0C9D38",
">. c #059D33",
",. c #0D9332",
"<. c #07A429",
"1. c #0DB328",
"2. c #14B62A",
"3. c #08A335",
"4. c #12A438",
"5. c #1BAC38",
"6. c #18AA37",
"7. c #1CB338",
"8. c #1CB535",
"9. c #22B434",
"0. c #24BA38",
"q. c #25B937",
"w. c #26B62E",
"e. c #17CB16",
"r. c #2CD61E",
"t. c #37EA1A",
"y. c #31EB13",
"u. c #27C928",
"i. c #38DB27",
"p. c #2BC436",
"a. c #35C936",
"s. c #39D236",
"d. c #37D038",
"f. c #38D138",
"g. c #3AD435",
"h. c #31CE2D",
"j. c #3BE225",
"k. c #1AC72C",
"l. c #45F71E",
"z. c #41DD32",
"x. c #41DE2D",
"c. c #42EB26",
"v. c #44E92A",
"b. c #44E62B",
"n. c #4DF926",
"m. c #4AF426",
"M. c #53FB2C",
"N. c #51F72D",
"B. c #48E434",
"V. c #5AF837",
"C. c #52EC37",
"Z. c #63FD3E",
"A. c #159945",
"S. c #29B750",
"D. c #7DA166",
"F. c #42D246",
"G. c #5BEA47",
"H. c #68FC45",
"J. c #74F956",
"K. c #79F263",
"L. c #619F3B",
"P. c #BA9535",
"I. c #CC8B32",
"U. c #CBA338",
"Y. c #E8AF3D",
"T. c #8B9075",
"R. c #CD8D47",
"E. c #DAA843",
"W. c #ED9370",
"Q. c #E0A352",
"!. c #87FD6A",
"~. c #96FD7D",
"^. c #96FE7A",
"/. c #8AF576",
"(. c #81FF5E",
"). c #003E82",
"_. c #003A89",
"`. c #083590",
"'. c #002BA1",
"]. c #024385",
"[. c #03488C",
"{. c #034995",
"}. c #01529D",
"|. c #154F92",
" X c #315489",
".X c #0154A4",
"XX c #0358AA",
"oX c #015BB5",
"OX c #0D54A7",
"+X c #0362BE",
"@X c #1C68B6",
"#X c #306BAA",
"$X c #2C609A",
"%X c #745283",
"&X c #795589",
"*X c #6D4F8B",
"=X c #5D698B",
"-X c #005BCB",
";X c #0566C8",
":X c #056BD3",
">X c #0E6FD5",
",X c #337DCA",
"<X c #036CE4",
"1X c #0676E5",
"2X c #0E7AF0",
"3X c #207BE5",
"4X c #5A6AC1",
"5X c #845B94",
"6X c #907392",
"7X c #0B93A2",
"8X c #7393B1",
"9X c #4C87BB",
"0X c #0886F8",
"qX c #138BF6",
"wX c #3095F0",
"eX c #3484D5",
"rX c #4E90D0",
"tX c #4FAAF9",
"yX c #71B9FA",
"uX c #70A0CC",
"iX c #8B868C",
"pX c #ADA4AC",
"aX c #949EAD",
"sX c #C6ACA9",
"dX c #9AFC83",
"fX c #9CFB86",
"gX c #9BE59B",
"hX c #A3FE8B",
"jX c #ADFB9A",
"kX c #B2FE9E",
"lX c #BAFDA8",
"zX c #BFF7B2",
"xX c #C7FDB8",
"cX c #E4CBB6",
"vX c #A9B7C5",
"bX c #87B6E3",
"nX c #95CDF8",
"mX c #ABD7F6",
"MX c #A5D2E4",
"NX c #D5FCCA",
"BX c #DDFBD5",
"VX c #D0F1D0",
"CX c #CCF8C2",
"ZX c #E2FCDA",
"AX c #F3E1D7",
"SX c #EAFBE4",
"DX c #F6F9F6",
"FX c #F8F8F8",
"GX c #F9F8F9",
"HX c #FAF8FA",
"JX c #FFF8FF",
"KX c #FDF9FD",
"LX c #FAF8FA",
"PX c #F9FAF7",
"IX c #EFF6F1",
"UX c #D4CCC5",
/* pixels */
"          ;.;.;.&.&.&.&.&.&.&.&.&.&.&.&.&.&.&.&.&.&.&.&.&.&.&.&.&.&.&.&.&.&.&.&.&.&.                        ",
"        :.:.:.:.;.;.;.;.;.;.;.;.;.;.;.;.;.;.;.;.;.;.;.;.;.;.;.;.;.;.;.;.;.;.;.;.;.;.                        ",
"      :.4.5.7.7.7.7.7.7.7.7.7.7.7.7.7.7.7.7.7.7.7.7.7.7.7.7.7.7.7.7.7.7.7.7.7.7.6.;.;.                      ",
"      4.5.q.a.d.d.d.a.d.d.f.f.f.f.f.f.f.d.d.d.d.d.d.f.f.d.d.d.d.d.d.d.f.d.d.d.d.q.6.:.;.                    ",
"      6.q.a.z.v.c.v.v.v.v.v.v.v.c.c.c.c.c.j.j.c.c.c.v.v.v.v.v.v.v.v.v.v.v.c.c.c.g.q.5.:.;.                  ",
"    :.5.p.g.v.M.M.n.n.n.n.n.n.n.n.n.n.n.n.n.n.n.n.n.n.n.n.n.n.n.n.n.n.n.n.n.M.M.B.g.p.9.:.                  ",
"  4.5.p.i.t.H.~.hXdX~.~.~.dXdXdXdXdXdXdXdXfXfXdXfXdXdXdX~.~.~.dX~.dX~.dXdXdXhXhXJ.V.B.p.5.                  ",
"4.5.p.z.c.V.hXSXKXKXKXKXKXKXKXKXKXKXKXKXKXKXKXKXKXKXKXKXKXKXKXKXKXKXKXKXKXKXKXFXjXV.v.d.q.                  ",
"5.9.a.b.H.hXSXKXKXKXKXKXKXKXKXKXKXKXKXKXKXKXKXKXKXKXKXKXKXKXKXKXKXKXKXKXKXKXKXKXlXV.c.d.q.                  ",
"7.q.h.c.!.ZXKXKXKXKXKXKXKXKXKXKXKXKXKXKXKXKXKXKXKXKXKXKXKXKXKXKXKXKXKXKXKXKXKXKXjXM.v.d.q.                  ",
"7.p.i.l.!.ZXKXKXKXKXKXFXKXKXFXFXKXKXFXFXFXFXFXKXFXFXKXFXFXFXFXFXKXKXKXKXKXKXKXKXjXM.v.d.q.                  ",
"7.p.b.l.!.SXKXKXKXKXKXKXKXFXFXFXKXKXKXFXFXFXKXKXFXFXKXFXFXFXFXKXKXKXKXKXKXKXKXKXkXM.v.d.q.                  ",
"7.p.b.m.J.CXKXKXKXKXKXKXFXKXFXFXFXFXFXFXFXFXFXFXFXKXFXKXFXKXKXKXFXFXFXFXKXKXKXKXkXM.v.d.q.                  ",
"7.q.d.b.V.!.NXKXKXKXKXKXFXFXFXFXFXFXFXFXFXFXFXFXFXFXFXKXFXFXKXKXFXFXFXFXKXKXKXKXkXM.c.d.p.5.                ",
"7.q.p.s.t.m.hXKXKXKXFXFXFXFXFXFXFXFXKXKXFXKXFXFXFXFXKXKXFXFXFXFXFXFXFXFXKXKXKXKXjXl.m.B.a.9.:.              ",
"  7.q.q.r.t.~.KXKXKXKXKXFXFXFXFXFXFXFXKXKXKXFXFXFXKXFXKXFXFXFXFXFXFXFXFXFXKXKXKXjXM.n.C.a.5.:.              ",
"    7.9.p.b.J.xXKXKXKXKXKXKXFXFXFXFXKXFXFXFXFXFXFXFXFXFXFXFXFXFXKXFXFXFXFXKXKXKXNX~.H.V.s.5.:.              ",
"      7.q.d.m.H.xXKXKXKXKXKXFXKXFXFXKXFXFXFXKXKXFXFXFXFXFXFXFXFXFXFXFXKXFXFXKXKXKXZX!.N.h.5.4.              ",
"        q.a.i.t.Z.xXKXKXKXKXKXKXKXFXFXFXFXFXFXFXFXFXKXKXFXKXKXFXFXFXKXFXFXFXFXKXKXSXdXN.i.q.4.              ",
"          q.p.i.t.V.xXKXKXKXKXFXKXFXFXFXKXFXFXFXFXKXKXKXKXKXKXKXFXFXKXFXFXFXFXKXKXSX~.n.v.a.5.              ",
"          4.9.p.i.t.H.xXKXKXKXKXFXFXFXFXKXFXFXFXFXFXFXKXKXKXFXFXFXFXFXKXKXKXKXKXKXSX/.n.b.a.7.;.            ",
"            4.q.a.i.t.H.xXFXKXKXKXFXFXFXFXFXFXFXFXFXFXFXKXFXFXFXFXFXKXKXKXKXKXKXKXZX!.t.j.a.7.;.            ",
"              7.q.a.i.y.H.xXKXKXKXFXKXFXFXFXKXKXFXFXFXFXKXKXFXFXFXKXFXFXFXKXKXKXKXSXdXm.b.a.7.;.            ",
"                5.9.p.r.t.jXKXKXKXFXKXFXFXFXFXKXFXFXFXFXFXKXFXFXFXKXKXFXFXFXFXKXKXKXBXdXV.i.q.6.            ",
"                  4.9.u.i./.SXKXKXKXKXKXFXFXFXFXFXFXFXFXFXFXFXFXFXFXKXKXKXKXKXFXKXKXKXBXJ.c.p.6.            ",
"                    5.q.h.B.dXSXKXKXKXKXFXKXFXFXFXFXFXFXFXKXFXFXFXFXFXFXKXKXFXFXKXKXKXZXJ.c.p.5.            ",
"                      q.p.i.N.~.SXKXKXKXKXKXKXKXFXFXFXKXKXKXFXFXFXFXFXFXFXFXFXFXKXKXKXBXH.j.p.6.            ",
"                        7.h.t.M.hXFXKXKXKXKXKXFXFXKXKXKXKXKXKXFXFXFXFXFXFXFXFXFXFXKXKXBXH.j.p.5.            ",
"                        6.q.i.y.K.FXKXKXKXKXKXFXFXFXKXKXKXKXFXFXKXFXFXFXFXFXFXKXKXKXKXBXH.c.d.9.:.          ",
"                        :.5.p.r.G.NXKXKXKXKXKXKXFXFXKXFXFXKXFXFXKXFXFXFXFXFXKXKXKXKXKXBXH.m.z.p.4.;.        ",
"                        ;.:.6.w.b.!.NXKXKXKXKXKXFXFXFXFXFXFXFXFXKXKXFXFXFXFXKXKXFXKXKXBXH.m.B.p.4.;.        ",
"                        &.&.;.6.u.j.K.lXCXSXKXKXKXFXFXFXFXFXFXFXKXKXFXFXFXFXFXFXKXKXKXBXH.m.z.p.4.;.        ",
"                          &.&.;.4.2.h.B.H.dXZXKXKXKXFXFXFXFXKXFXKXFXFXFXFXKXKXKXKXKXKXBXH.m.z.p.4.;.        ",
"                            &.&.;.;.1.e.y.n.~.ZXKXKXKXFXFXKXKXFXFXFXFXFXKXKXFXFXKXKXKXBXH.m.z.p.4.;.        ",
"                              &.&.=.4.7.h.y.n.jXKXKXKXFXFXFXKXKXFXFXFXFXFXFXFXFXFXKXKXBXH.m.z.p.4.;.        ",
"                                ;.;.;.4.7.e.t.fXKXKXKXKXKXFXKXKXFXFXFXFXFXFXFXFXFXKXKXBXH.m.z.p.4.;.        ",
"                                  ;.;.;.4.1.u.K.NXKXKXKXKXKXKXKXFXFXFXFXFXFXFXFXKXKXKXBXH.m.z.p.4.;.        ",
"                                    &.&.=.3.1.i.K.NXKXKXKXKXKXKXFXFXFXFXFXFXKXKXKXKXKXBXH.l.j.p.4.;.        ",
"                                    d d a ;.3.$.i.K.fXlXZXKXKXKXFXKXFXFXFXFXKXKXKXKXKXNXV.t.i.p.4.;.        ",
"                                    ' { g :.3.3.1.u.t.N.^.ZXKXKXKXKXFXFXFXKXKXKXKXKXKXZX!.N.i.p.6.;.        ",
"                                  ' } I.P.L.:.;.3.1.e.y.n.~.BXKXKXKXFXFXFXFXFXFXFXKXKXKXBX/.b.h.5.;.        ",
"                                  y X.Y.Y...s a =.3.2.u.y.N.lXKXKXKXFXFXFXKXFXFXFXKXKXKXKXlXC.i.9.;.        ",
"                                  y X.E.Q.o.{ s ,.;.4.1.e.b.zXKXKXFXFXFXFXKXKXKXFXFXKXKXKXxXV.j.9.;.        ",
"                                { X...R.R.I.o...g *.=.<.$.a.CXKXKXKXKXKXKXKXKXKXFXFXKXKXKXlXV.j.9.;.        ",
"                              y [ I.R.R.R.U.I.o...` A.;.#.9.gXFXKXKXKXKXKXKXKXKXFXFXKXKXKXlXV.i.9.;.        ",
"                              y [ U.E.E.R...y y  .R.T.A.%.<.F.jXPXKXKXKXKXKXKXKXKXFXKXKXKXlXV.i.9.:.        ",
"                              y [ U.Y.E...u r r  .@.W.D.A.>.$.F.gXVXNXCXBXKXKXKXKXKXKXKXKXlXV.i.9.:.        ",
"                              y [ U.E...y r r {  .@.W.W.D.,.#.1.0.F.C.V.!.ZXKXKXKXKXKXKXKXlXV.i.9.:.        ",
"                              y [ I...y r y |  . . .@.W.+.s a %.%.$.e.y.m.!.NXKXKXKXKXKXKXlXV.i.9.4.        ",
"                              ' [ ..| t r {  . . . ...o.O.{ s =.;.>.1.u.y.l.hXIXKXKXKXKXKXlXV.i.9.4.        ",
"                                { ~ P q = r {  . .| { { O. .    ;.;.4.7.e.y.!.SXKXKXKXKXKXkXV.i.9.4.        ",
"                                  J N , # ; w f y u u ' ' f     ;.;.;.;.1.u.G.zXFXKXKXKXFXkXV.i.9.:.        ",
"                                    , X # v [.v % u { { p c       =.=.=.4.2.u.G.zXKXKXKXKXlXV.i.q.:.        ",
"                                  9 % o + b |.A M +.W.+.( S D       &.=.=.4.1.e.G.xXKXKXKXlXZ.m.d.7.        ",
"                                0 m m 0 6 K &X&X%XaXpX_ U T S `.      >.=.=.;.1.r.J.xXKXIXjXZ.M.B.p.        ",
"                              0 0 G ^ ( R 6XsXiX/ W Q 4 O * L *X        =.&.;.;.u.N.(.hXdXK.C.v.g.p.        ",
"                            m G J L ) %X&X6XpX=Xn N Q x - ; 0 R           =.&.=.7.i.N.M.M.v.x.i.w.,.        ",
"                          0 F ^ ^ Y ) &X_ I w C OX8XaX,XoXZ > %             *.&.;.p.j.c.c.i.g.p.A.n         ",
"                          0 m Y ) ) %X&XY * . B qXyXyXwX<X{.: . 3             %.*.4.p.d.g.r.k.7X7X`.        ",
"                          0 m J ^ &X5X&XJ $ . b ;X>X@X+X.XZ x c W W             ,.%.1.2.2.u.S.7X-X.X        ",
"                          0 0 F ^ &X5X&XF O . + j v V Z Z V Z #XaX8XA             %.#.#.<.    #XD k <       ",
"                          9 9 m Y &X&X^ q o . + : : ; : : j Z eXnXuXA -               a     IXpXm . $ N     ",
"                          4 4 9 L _ ) F 4 O X z C 1 . . . . 1 OXwXeXA - l                 bXIXAX+.= * T S x ",
"                          6 6 9 G ^ L q 4 O . 1 v ; X 7 z + . b -X-XB @ b ;XyXIXnX3X'.  <X,XiXT.! % $ m c 1 ",
"                          9 9 0 F L L F 6 O . . . . @ C .XC + ; ].{.j - B ;XtXmXyX;XD {.:X[.& o . . . X , 8 ",
"                          c c 9 F J ( ^ 0 $ . . . . . 7 [..Xb < C v @ ; V {.@XrX,XZ - C ;X).+ . . . . o q Y ",
"                          j 7 9 m L &X&XG o . . . . . @ b ].].C z + . X < 1 k B b @ . z ;X[.+ . . . . & S 4X",
"                          j 7 9 0 P &X%XG O . . . . + < < < Z ].< . . . . . . . . . . x ;X{.+ . . . . @ |.3X",
"                            1 , 6 F ) &XK $ . @ : @ + ; + . z C < @ z x z z z 7 7 1 z E ;XoX).Z Z V Z E |.$X",
"                              , 4 0 ^ &XY 4 + < x ; . . . . , c 1 C .X+XoXoXoXXXXXXXXXoX+X:X>X3XwXwX0X:X/ { ",
"                              9 6 0 J ( ^ M 2 < ; X . X X $ F G                            X` 6XvXnXwX|.p } ",
"                                0 M M P Y M 2 + . . < v b 0 U )                             ] } R.sX=XH | o.",
"                                  c c L ( M & . . X v {.|.L U U                               } { y f |     ",
"                                  ; , J ) J $ . . . < C  X) I i                                             ",
"                                4 . $ J &X_ 0 o . . & 9 Y ) M 4                                             ",
"                              m 4 . % L _ &X) q $ 6 J P R T c > 6 N B V B v v v v v v B B V                 ",
"                              m 6 o % 0 m G L J J ) 5X%X_ ~ H * % c S |.].).).).).).].].).).Z               ",
"                              m q % o o . X $ m _ 5X*X^ +.P.X.t O 6 / $XXX.X.X.X.X.X.X.X.XXX}.).            ",
"                              m 0 9 % & $ $ % q ^ $X XS f X.[ t 5 F Y W [.[.[.[.{.[.].E ].XX;X+X            ",
"                              m m m 0 0 G L F 5 9 ].{.c 5 5 i L ( P 6 , z x x x 1 x x x x C XX:X            ",
"                              m F G m 0 L ( P 4 % b n ; . , S *X^ 6 o . + > > X . X > 1 2 ; z }.            ",
"                              m G J 0 4 0 L Y 0 4 4 % . o m ) ( 0 o . . . ; @ . . . @ : ; . . C             ",
"                              m G L 0 % % m ( Y 0 * * 4 G ( ( G 4 o . . . . . . . . . . . . : Z             ",
"                              0 G L m O . % G ( ^ L L ( R H q 4 % . . . . . . . X . . . . x {.              ",
"                              0 F J 0 % . . 6 Y _ _ _ _ M $ o O o . . . . . ; b C z @ X 1 OX                ",
"                              0 0 q 0 q 4 6 J ^ J q q N b b < + . . . + ; : Z ;X:XXX{.[.{.                  ",
"                                5 4 G ( ( ( P q O . + x $XrX$Xx X + < 1 : 2 C XX.X}.:X1X                    ",
"                                  5 L &X5X( q o . . < ].uXmXtXOXk x E b + X @ : @ 7 }.                      ",
"                                  5 i I J S b - . . - Z 9XbXtX<X{.Z C : . . . + ; z                         ",
"                                2 $ O o o 7 Z v + X + < A @XqXqX>XC @ . . . 1 ]..X                          ",
"                    pXKXIXyX1X`.1 @ X . . X 1 b b C x + + C rXnXwXZ . . . z {.                              ",
"                  o iXUXvXrX<XoX|.W W z + . . @ B .XE + . 8 8XnXtX_.. . < [.                                ",
"                . . 9 /  XOX-X<XrXvX8X|.B k 1 - < C C + . >  XwXqX[.. ; [.                                  ",
"                . . # k Z {.{.[./ iX8X2X<X;X.XC : : < : @ @ j XX2X{.< Z 1X                                  ",
"                . . # v _._.l - o % E 1X2X:XoX].z + @ z < X X Z :XoXZ .X2X                                  ",
"                . . @ j v k 2 1 z j k b v b x 1 ; O , x : . . x XX:X;X.X+X2X                                ",
"                . X j A / ! / OX;X.Xv X . . . . . O , x < X . 7 .X0X0X.X).oX:X                              ",
"                . # {.rXvXcXvX      }.C C b ; . . o ; b b : @ b ;X0X0X}.v C {.oX1X0X                        ",
"                . > rXnXmXvXT.            XXE b < @ @ < b v C .X0X0X;XC : - < v {.XX                        ",
"                . e aXMX9Xn $               oXoX}.C - X ; B [.;X2X:XZ ; . . . . ;                           ",
"                . = ! / j + .                           . : x v C C                                         ",
"                . . o . . . .                           . . . . X                                           "
};
