/* XPM */
static char *luke_21[] = {
/* columns rows colors chars-per-pixel */
"63 89 252 2 ",
"   c None",
".  c #010001",
"X  c #01030A",
"o  c #0B0508",
"O  c #150906",
"+  c #030817",
"@  c #17141A",
"#  c #0D0E15",
"$  c #2A110D",
"%  c #072F0E",
"&  c #2F2515",
"*  c #010A26",
"=  c #021225",
"-  c #02152C",
";  c #081628",
":  c #1A1725",
">  c #000D35",
",  c #021A33",
"<  c #031838",
"1  c #16162F",
"2  c #261926",
"3  c #311634",
"4  c #102F2E",
"5  c #36252B",
"6  c #272537",
"7  c #35253A",
"8  c #382739",
"9  c #332E29",
"0  c #511A07",
"q  c #651B01",
"w  c #751A04",
"e  c #4B3213",
"r  c #7B3A0A",
"t  c #712A08",
"y  c #43273C",
"u  c #753D32",
"i  c #015813",
"p  c #066E0F",
"a  c #13592F",
"s  c #1D732A",
"d  c #0C6E2A",
"f  c #23732A",
"g  c #296F1E",
"h  c #564515",
"j  c #4F4715",
"k  c #734A2B",
"l  c #000746",
"z  c #001946",
"x  c #001D56",
"c  c #042348",
"v  c #022857",
"b  c #123053",
"n  c #292844",
"m  c #3B2946",
"M  c #303555",
"N  c #002B66",
"B  c #01336C",
"V  c #053466",
"C  c #013574",
"Z  c #033A7A",
"A  c #153A6D",
"S  c #1A3064",
"D  c #442C47",
"F  c #47324C",
"G  c #4B3557",
"H  c #573A59",
"J  c #542F4E",
"K  c #583B62",
"L  c #483565",
"P  c #623A69",
"I  c #6E3974",
"U  c #633755",
"Y  c #1A494B",
"T  c #1A6943",
"R  c #317654",
"E  c #154478",
"W  c #034F79",
"Q  c #304C72",
"!  c #314358",
"~  c #4A494C",
"^  c #6C5A4F",
"/  c #5D4268",
"(  c #514C73",
")  c #63446D",
"_  c #694A76",
"`  c #724D75",
"'  c #6F6E6B",
"]  c #616F63",
"[  c #84360D",
"{  c #8D320E",
"}  c #A23D18",
"|  c #864516",
" . c #954B1D",
".. c #8F4F10",
"X. c #AB5214",
"o. c #A8711C",
"O. c #9C5327",
"+. c #915026",
"@. c #AA552A",
"#. c #8B723B",
"$. c #B46736",
"%. c #AF7134",
"&. c #9A610F",
"*. c #CE6D33",
"=. c #B46D4A",
"-. c #827A73",
";. c #916350",
":. c #C47745",
">. c #D17950",
",. c #029A2C",
"<. c #008C35",
"1. c #008B38",
"2. c #008739",
"3. c #019434",
"4. c #029A32",
"5. c #069A38",
"6. c #0E8E31",
"7. c #02A526",
"8. c #06A828",
"9. c #09B625",
"0. c #13B829",
"q. c #07A434",
"w. c #19B535",
"e. c #33B52F",
"r. c #10A521",
"t. c #47A938",
"y. c #18CE1B",
"u. c #23D61D",
"i. c #06C327",
"p. c #27D625",
"a. c #35DD2C",
"s. c #3CDE32",
"d. c #2AC531",
"f. c #2AE129",
"g. c #36E52E",
"h. c #3AE333",
"j. c #46D030",
"k. c #45E536",
"l. c #4CF231",
"z. c #6BE02E",
"x. c #1C9D5A",
"c. c #56A45A",
"v. c #75F75A",
"b. c #6AF34E",
"n. c #52C26C",
"m. c #64E255",
"M. c #31C94A",
"N. c #B4842A",
"B. c #9F892A",
"V. c #CA8B38",
"C. c #CAA430",
"Z. c #968875",
"A. c #AB8D71",
"S. c #AE964C",
"D. c #CE9745",
"F. c #EF8B47",
"G. c #CCAC4E",
"H. c #E9966E",
"J. c #D0B269",
"K. c #F4A67C",
"L. c #D78962",
"P. c #85FB6A",
"I. c #87FB68",
"U. c #8EFC72",
"Y. c #93FD74",
"T. c #98FD7C",
"R. c #98FF6F",
"E. c #9AFB64",
"W. c #013A84",
"Q. c #01318E",
"!. c #112794",
"~. c #01458C",
"^. c #014686",
"/. c #004C95",
"(. c #014D9B",
"). c #054794",
"_. c #00519C",
"`. c #184F91",
"'. c #326596",
"]. c #004CA3",
"[. c #0054A3",
"{. c #0258AA",
"}. c #015BB5",
"|. c #0446BA",
" X c #0C64BA",
".X c #2671B2",
"XX c #285A8B",
"oX c #475893",
"OX c #795587",
"+X c #75518F",
"@X c #516E92",
"#X c #666B85",
"$X c #4F6EAE",
"%X c #6976B8",
"&X c #0255C8",
"*X c #0167C9",
"=X c #0C70D7",
"-X c #2B74D5",
";X c #0876E5",
":X c #0773EA",
">X c #706EC5",
",X c #826599",
"<X c #7A8594",
"1X c #6D8EB0",
"2X c #6398A1",
"3X c #2E83DA",
"4X c #0883F6",
"5X c #2992FD",
"6X c #3AA5FF",
"7X c #4D8ED1",
"8X c #6B97C4",
"9X c #76A7D5",
"0X c #4A9AE7",
"qX c #6FB8FA",
"wX c #23A3A8",
"eX c #928E91",
"rX c #A79491",
"tX c #AEA595",
"yX c #9593AB",
"uX c #98B3AE",
"iX c #A7A7A7",
"pX c #AEB0B6",
"aX c #C2B6AA",
"sX c #E7B191",
"dX c #94F489",
"fX c #A4FD86",
"gX c #A6FE94",
"hX c #B6F9A2",
"jX c #D8D2AD",
"kX c #D6FFBE",
"lX c #E0C7AE",
"zX c #91AFD4",
"xX c #A8B5CD",
"cX c #9A98CE",
"vX c #B1D6F3",
"bX c #A8D5F2",
"nX c #D0D0D2",
"mX c #DCFFC5",
"MX c #D6FECF",
"NX c #E3FFCB",
"BX c #E1FFC6",
"VX c #EBFFD4",
"CX c #EEFFDA",
"ZX c #E6FFD2",
"AX c #F1FFDB",
"SX c #D1CEE9",
"DX c #D3E9F0",
"FX c #F5FFE1",
"GX c #F8FCE8",
"HX c #FAF6F9",
"JX c #E6E8E8",
"KX c #E2D6E8",
/* pixels */
"                                                                                                                2.2.2.        ",
"                                                                                                              1.3.5.5.        ",
"                                                                                                            2.3.q.d.w.q.      ",
"                                                                                                          2.1.q.a.l.s.e.q.    ",
"                                                                                                        2.1.7.a.P.R.b.s.w.5.2.",
"                                                                                                      2.1.8.p.v.NXBXI.g.w.5.2.",
"                                                                                                    2.1.7.y.v.kXFXhXb.d.q.3.2.",
"                                                                                                  2.1.7.y.b.kXGXfXk.d.5.3.    ",
"                                                                                                2.1.7.y.b.mXFXfXk.0.4.2.      ",
"                                                                                              2.1.7.p.v.mXGXfXk.0.4.2.        ",
"                                                                                            2.1.8.y.v.NXFXfXk.0.4.1.          ",
"                                                                                          2.1.7.y.v.NXGXfXk.0.4.1.            ",
"                                                                                        2.1.8.u.v.NXGXfXk.0.4.1.              ",
"                                                                                      2.1.7.u.v.ZXFXfXk.0.4.2.                ",
"                                                                                    2.1.7.u.v.NXFXfXk.0.4.1.                  ",
"                                                                                  2.1.7.u.v.ZXFXT.k.0.4.2.                    ",
"                                                                                2.1.7.p.v.NXFXfXk.0.4.1.                      ",
"                                                                              2.1.7.p.v.ZXFXY.k.0.4.1.                        ",
"                                                                            2.1.8.u.v.VXAXT.k.0.4.2.                          ",
"                                                                          1.1.8.p.I.VXAXY.h.0.4.1.                            ",
"                                                                        1.3.8.u.I.CXAXY.k.0.4.2.                              ",
"                                                                      2.1.8.u.P.VXCXT.g.0.4.2.                                ",
"                                                                    1.1.8.u.I.CXCXY.h.0.4.2.                                  ",
"                                                                  2.1.8.u.P.CXVXY.h.0.4.2.                                    ",
"                                      ..N.J.jXjXG.V.*.          1.3.8.p.I.VXAXY.a.0.4.1.                                      ",
"                                    ..N.C.G.J.J.D.V.V.*.      1.3.8.p.I.AXVXU.s.0.4.2.                                        ",
"                                  ..N.D.D.V.N.o.@.%.F.F.#.    ,.8.a.P.CXVXU.a.0.3.2.                                          ",
"                            r r ..N.V.:.:.$...r [ @.*.V.B.6.3.8.p.I.CXVXI.a.0.3.1.                                            ",
"                          ..%.A.A.%... .%.%.@.[ [ { @.#.t.,.9.a.Y.CXVXU.a.9.3.2.                                              ",
"                        r &.G.jXjX=.| ..%.D.:.@.{ [ h s ,.0.a.U.AXVXI.a.0.3.1.                                                ",
"                        r | o.J.jXaXA.$.*.*.$.} { h d 3.9.f.Y.CXVXI.s.9.3.2.                                                  ",
"                          r ..o.S.tXrX=.@. .{ [ h s 4.i.h.Y.VXVXY.a.9.3.1.                                                    ",
"                            @.X.| k k [ t w t h s 4.i.g.T.AXVXI.a.0.,.2.                                                      ",
"                              *. .[ t q q q j f 4.i.h.T.VXNXU.a.9.3.2.                                                        ",
"                                $.@.{ w q h s q.i.h.Y.CXVXP.a.0.4.3.                                                          ",
"                                  [ { t j s 4.i.g.fXAXNXI.a.9.4.3.                                                            ",
"                                  $ 0 j f 8.i.h.T.CXZXI.a.9.q.3.                                                              ",
"                                o + 4 d q.i.g.T.AXmXP.h.9.4.3.                                                                ",
"                              %X` Y a 4.i.h.fXVXNXU.f.i.2.T T                                                                 ",
"              * < ! pXbX3X&X-XzXuXx.,.0.h.fXFXNXP.p.9.,.a 6 7                                                                 ",
"          . . - B  X0X0X`.l b c.n.w.y.k.fXCXNXP.a.9.,.g & $ 2 3 1 < ,                                                         ",
"        ~ b > - v (.*X&XQ.- % i ,.i.k.fXZXmXP.f.i.w.c.+.q o @ m n < c c                                                       ",
"      eXxX7XZ + X > v ).&XW i p r.h.fXAXmXP.f.9.5.c.J.>.t o 1 H H S ^.Z c ; ;                                                 ",
"    `.9XbX3Xx . . . . Y wXx.i p M.gXVXBXY.g.i.d a Z.sXH.| O 2 H ` oX=X*X~.V c ,                                               ",
"    {.=X-X`.1 O O X . g m.t.% i n.MXBXI.l.f.8.% O ;.K.F.+.2 1 D ` $X-X*X{.{./.V V                                             ",
"    V N A #XrXA.c.g % p z.E.Z.! R dXY.h.i.8.i X o u F.*.^ `.Z m U ( S c v  X;X X[.*X=X}.C                                     ",
"    * X 9 pXHXDXdXj.f s t.hXSXcX] e.p.9.4.T 6 X o t X.O.'.=X{.M J 8 O . + Z  X{.~.~./.W.x @                                   ",
"< z > . & tXDXqX.XR t.e.T @XxXKXpXR p 1.x.( H : o 0 +.@X;X;X`.F J 5 o . + - , - = = = + X O t  .:.K.sX>.O.r                   ",
"v Z Q.> o ~ $X|.!.b j.e.4 Q xXnXyXL b R #X,XI 3 O 8 oX;X:X*XE D J D 2 ; , + . . . . . . O 0  .:.H.K.H.>.$.O.|                 ",
"v ~.*XE 2 O * l l a j.e.Y ,XKXeX7 3 L _ OXOXP 5 : E ;X;X*X[.A m J H m n   < - - > > > ; e | $.H.K.L.=.=.=.$. .|               ",
"    `.1XtXZ.G > 4 j.l.d.2XSXHX' . O J P P ) H y 6 C ].~.V V b m H H F m                   ..@.>.L.$. . .O.O. .|               ",
"      <XHXHXxXR 6.b.b.n.1XSX    o . 2 D K ) / D 2 ; - - - c n m F G D                       | O.@. .r r r r |                 ",
"        yXHXZXm.M.2X2X2X1XyX    2 . # F _ OX) D 2 o . . : G K D 7 m                           [ |                             ",
"          nXVXv.c.%X>X%XoXM     m o o G ` _ G 7 @ . . # F _ ) m 7 7                                                           ",
"              uX@X%X%XoXS <       o o m K G 7 2 @ . o F ` ) G 7 7 8                                                           ",
"              SXcX1X              . # 6 7 7 7 7 @ . o / OXH 7 7 7                                                             ",
"              HXxX                . : n 6 6 m m : # 2 G K m 3 8                                                               ",
"                                  . : F G m 6 : : 7 G G D D D 7                                                               ",
"                                  . $ u ;.#.e $ $ 8 / #XrXyX#X! c                                                             ",
"                                  . $ | V.V.&.q 0 $ F eXnXnX1X`.x >                                                           ",
"                                  # 5 ;.=.A.;.u 0 $ 5 ~ ' ] XX].x * + * -                                                     ",
"                                  m / OX,X,X` _ ( Q M 5 $ & ! '.Q n n b v z                                                   ",
"                                F ) +X+X+XP P oX-X:X-X<XZ.A.iXxXpXiXiX7X}.N >                                                 ",
"                              F ) ` ` U D y M `.=X:X4XqXvXvXvXvXvXDXJXvXqX7X( 1                                               ",
"                            D / _ ) F 2 $ @ c Z W.Z (.3X6X6X5X5X5XqXDXGXDXnXyX! >                                             ",
"                            / H G S A v + . + - + + > W.&X&X&X|.|.3XnXlXZ.eX1X X`.                                            ",
"                            _ y : c ~._.v X . . . . . * x x z > z Q yX-.& @ C &X0X                                            ",
"                            K 5 O ; V /.(.v + . . . . . . . . . . 1 Q 6 . . l Q.7XDX                                          ",
"                              5 O O 1 C ]./.v , , , , , , - - = = c N > . . l Q.$XSX                                          ",
"                                          ~./.[.{.{.{.[._._./././.{.].v X X N &X0XnX                                          ",
"                                            ~.[._.(.(.(.(._.[.[.{.}.{.^.x > Z 7X9X<XrX                                        ",
"                                              V V V V V C C C C V v N W.~.E #XuX' 2 ] nX                                      ",
"                                                            B v - X X x `.1XpX<X1 . ^ JX                                      ",
"                                                              v + . . + E 8XzXXX+ . 9 iXnX                                    ",
"                                                              N = . . X   .X.XW.* . O 8 iXnX                                  ",
"                                                              /.< . . .     ].(.N * . # iXJX                                  ",
"                                                            *X/., . . .       *X[.v X O ' nX                                  ",
"                                                          *X{.c X . + *       4X*XC + . 9 Z.nX                                ",
"                                                        W.^.c . . * c           ;X~.< X . 9 iX                                ",
"                                                      C v = . . = v               }.Z > . & pX                                ",
"                                                      Z z . . - Z /.              *X/.z . 9 nXHX                              ",
"                                                      V < X + N [.}.              }.].v . $ eXnXnX                            ",
"                                                      = = = , V [. X                *X~.+ . 9 eXnX                            ",
"                                                        X = < b W [.}.              4X;XQ 9 & -.nX                            ",
"                                                          X = < c V _.=X4X          4X5X9XtXtXaXnX                            ",
"                                                            X + + - V (.{.          }. X8XxXpXzXzX                            ",
"                                                              . . X , c c           < c S M M `.;X                            ",
"                                                                                    . . X . . B :X                            ",
"                                                                                    . . . . . N ;X                            "
};
