/* XPM */
static char *luke_72[] = {
/* columns rows colors chars-per-pixel */
"106 59 246 2 ",
"   c None",
".  c #000101",
"X  c #02040B",
"o  c #090807",
"O  c #170802",
"+  c #010A14",
"@  c #010C1C",
"#  c #030615",
"$  c #02111D",
"%  c #171617",
"&  c #150F15",
"*  c #2D1208",
"=  c #28201B",
"-  c #020C23",
";  c #040B26",
":  c #01142B",
">  c #061527",
",  c #021534",
"<  c #011C3C",
"1  c #041937",
"2  c #16152C",
"3  c #2A1C32",
"4  c #142232",
"5  c #292928",
"6  c #36263C",
"7  c #323638",
"8  c #471B02",
"9  c #561E01",
"0  c #470F00",
"q  c #562405",
"w  c #4A2A1A",
"e  c #652902",
"r  c #6B3109",
"t  c #773508",
"y  c #75300C",
"u  c #4A3634",
"i  c #6B4627",
"p  c #001B43",
"a  c #07164D",
"s  c #032447",
"d  c #022858",
"f  c #183352",
"g  c #3C2B45",
"h  c #29334C",
"j  c #002867",
"k  c #013569",
"l  c #013877",
"z  c #163769",
"x  c #001D6A",
"c  c #493556",
"v  c #523A5D",
"b  c #4E2E4A",
"n  c #633D54",
"m  c #35455A",
"M  c #03407D",
"N  c #324D6D",
"B  c #474748",
"V  c #4E4D50",
"C  c #6B5C55",
"Z  c #69635A",
"A  c #52526A",
"S  c #64486A",
"D  c #6E5474",
"F  c #586572",
"G  c #69656A",
"H  c #6F6F7A",
"J  c #5E615E",
"K  c #853B07",
"L  c #853816",
"P  c #874814",
"I  c #95551A",
"U  c #91490D",
"Y  c #AE5516",
"T  c #99681C",
"R  c #92542D",
"E  c #AB6D28",
"W  c #9C5B26",
"Q  c #CD783C",
"!  c #915947",
"~  c #B4754F",
"^  c #876E5F",
"/  c #C67449",
"(  c #009C2C",
")  c #00982A",
"_  c #008C35",
"`  c #008536",
"'  c #009434",
"]  c #009933",
"[  c #00AB26",
"{  c #00A32D",
"}  c #02AC2D",
"|  c #00A426",
" . c #00B325",
".. c #03B32A",
"X. c #08B929",
"o. c #05AC30",
"O. c #03A431",
"+. c #14B432",
"@. c #17BB2D",
"#. c #0CCC1D",
"$. c #24DC1A",
"%. c #0DCB23",
"&. c #06C224",
"*. c #15C828",
"=. c #14D422",
"-. c #1BD825",
";. c #26DB29",
":. c #35CB39",
">. c #2BCE30",
",. c #2AE227",
"<. c #35E72C",
"1. c #35F125",
"2. c #3EE932",
"3. c #28E91D",
"4. c #44D93A",
"5. c #4BEA3A",
"6. c #49E63A",
"7. c #54EB39",
"8. c #49F431",
"9. c #57F437",
"0. c #4BF32C",
"q. c #68FC3A",
"w. c #72FD3C",
"e. c #69F734",
"r. c #3AC842",
"t. c #53DB45",
"y. c #59EC42",
"u. c #69F545",
"i. c #79FB47",
"p. c #6EEC4D",
"a. c #B88C2A",
"s. c #B88830",
"d. c #CEA938",
"f. c #CC9635",
"g. c #86FF3F",
"h. c #8C847C",
"j. c #BA9254",
"k. c #C7854D",
"l. c #D5A343",
"z. c #E1BC48",
"x. c #F3A970",
"c. c #D89D69",
"v. c #87FE48",
"b. c #93FE4C",
"n. c #8AF955",
"m. c #9CFB5D",
"M. c #96FC57",
"N. c #80EF52",
"B. c #A7FD5B",
"V. c #B8FF5D",
"C. c #9CF562",
"Z. c #90FF71",
"A. c #A5FB64",
"S. c #A9FB67",
"D. c #B3FE64",
"F. c #B8FC69",
"G. c #B5FB76",
"H. c #ACFD75",
"J. c #C7FE6C",
"K. c #CBFC73",
"L. c #C6FD77",
"P. c #D3FD79",
"I. c #E3C37A",
"U. c #003A86",
"Y. c #00368D",
"T. c #044588",
"R. c #024A97",
"E. c #0F5195",
"W. c #245791",
"Q. c #2D6299",
"!. c #0154A7",
"~. c #025BB6",
"^. c #0650A8",
"/. c #1163B9",
"(. c #445C8C",
"). c #745586",
"_. c #58708B",
"`. c #727389",
"'. c #4678B0",
"]. c #7279A5",
"[. c #0669CA",
"{. c #016ED8",
"}. c #0779EC",
"|. c #0179F6",
" X c #197BE4",
".X c #1F69C4",
"XX c #6778C5",
"oX c #85728D",
"OX c #788897",
"+X c #6583AC",
"@X c #0184FF",
"#X c #368DDE",
"$X c #6F9DCB",
"%X c #69A9E4",
"&X c #918C92",
"*X c #A99893",
"=X c #B4A38E",
"-X c #949BA7",
";X c #8896AD",
":X c #BBB6B9",
">X c #AEAAAB",
",X c #C6B2B6",
"<X c #B7FD88",
"1X c #C8FB87",
"2X c #D7FB86",
"3X c #DBF997",
"4X c #C7FC97",
"5X c #D7CAB6",
"6X c #DDFAA3",
"7X c #D8FCBA",
"8X c #CBFBAC",
"9X c #E3FAA5",
"0X c #E3F9A9",
"qX c #E9FAAD",
"wX c #E7F9B8",
"eX c #EEF5BB",
"rX c #D6DD97",
"tX c #B6B3CC",
"yX c #91A9D1",
"uX c #C6BACC",
"iX c #B7C7D5",
"pX c #9BCEF4",
"aX c #B6D8F7",
"sX c #CAC7C6",
"dX c #D9D7D5",
"fX c #D9D2CB",
"gX c #E2D8D2",
"hX c #DCFCCA",
"jX c #E7FAC6",
"kX c #F1FCC9",
"lX c #ECF9D6",
"zX c #F5FAD7",
"xX c #E5E0DB",
"cX c #CCD6E6",
"vX c #DCE6E7",
"bX c #E6E8E8",
"nX c #F4F9E5",
"mX c #F6F8EC",
"MX c #FAFAEC",
"NX c #FBF7E7",
"BX c #F6F8F6",
"VX c #FAF8F5",
"CX c #FAF8FA",
"ZX c #FCF6FD",
"AX c #EEF4EF",
"SX c #F7DAF7",
/* pixels */
"                                                                                                                                                                |.}.$X5XfXsXsX                                      ",
"                                                                                                                                                                |.}.'.^ h.`.H >X                                    ",
"                                                                                                                                                                @X}.T.2 % % % F cX                                  ",
"                                                                                                                                                                  |.!.d - . . z %XaX                                ",
"                                                                                                                                                                    U.j p @ . , /.pX                                ",
"                                                                                                                                                                    X - 1 @ . . s -X                                ",
"                                                                                                                                                                    u B 5 X . . % *X                                ",
"                                                                                                                                                                    fX*Xh . . . h -X        %X                      ",
"                                                                                                                                                              bXZXZXsXH z < . . f '.      [.#X'.                    ",
"                                                                                                                                                            bXsX:X>XV # d l s - < l     R.T.T.T.m                   ",
"                                                                                                                                                        bXZXsXG 5 = . . @ k T.d +         @ @ m -XG                 ",
"                                                                                                                                                      dX>X&XG & . . . . . : k s .         . + _.bXtXf               ",
"                                                                                                                                                dXxXxX&X7 & & . . . . . . . @ + . .     . X s +XcXpXW.              ",
"                                                                                                                                          sXZXNX*XZ Z 5 . . . . . . . . . . . . X . . . . X < z F ].'.z             ",
"                                                                                                                                        % &XdXtXA X . . . X X . . . . X @ - : : 1 : : - + . . . . A ;X).            ",
"                                                                                                                                      . . = V (.T.j , X . : < + . . @ d M !.~.M d T.~.R.k - . . . J uX&X            ",
"                                                                                                                                      u 5 - ; a Y.~.U.: . p l p . . : U.~.{.}.~.R.[.}.{.R.d @ . . 7 h.H             ",
"                                                                                                                                      sX;XE.x j j l l < . : l l , o : k U.T.R.R.!.R.R.T.U.j - . . & 5 6             ",
"                                                                                                                                      ZXtXE.E._.h 1 A F & X p U.Q.H B > - - : s d < - : , , = 8 8 u J V             ",
"                                                                                                                                      ZXtX_._.-XJ J :X>X5 . X W.%XiXH & . . . X X . . . . O q K U j.:X`.            ",
"                                                                                                  X.} } } } o.o.o.} } } } { {         SXxX:XOXH H 5XVX>X5 . & OXaX$XN , . . . . . . . . . * e K Y ~ &XD             ",
"                                                                                                %.X. . . . . . . . . . . . . .#.      tX-X&XV > B >X>XV & . & &X;Xz , p < $ . . . . . O 8 e e e e w 6 g             ",
"                                                                ' ` { %.-.-.=.=.=.=.=.=.=.=.=.=.=.%.%.%.%.%.%.*.%.%.%.#.#.#.;.1.0.    ;Xh = . o # 5 5 & . o 4 Q.W.@ . : M l $ . X . * r t e 9 8 O . X 3             ",
"                                          o.o.o.o.o.O.} X.=.=.%.[ | X.-.2.5.6.6.6.6.6.6.6.6.6.6.6.5.5.5.5.5.5.5.5.7.7.0.0.e.v.M.<XlXZXcXA . = J 7 > B B 4 B OX.X^.p . $ T.R.: @ p @ * K L 8 * O . . & g v           ",
"                                        X.} }  .} } }  .*.;.,.;.-.-.;.2.u.m.D.S.A.A.A.A.A.A.A.A.A.A.A.A.S.A.A.B.D.L.1XG.G.1X2XqXMXZXBXAX&X% V >X_.N -X;Xm &XiX#X~.R.s : k k $ < U.d = r q O . . . # 6 v v g         ",
"                  o.o.o.o.o.o.o.O.o.*.=.%.&.&.&.&.X.&.>.6.p.p.p.p.u.p.i.m.J.P.K.K.K.K.K.K.K.K.K.K.K.K.K.K.K.K.J.2XeXzXzXzXzXNXZXZXuXOX`.A & 7 _.m h F F 4 V `.m l ~.~.l < + . + d T.z = O . . . . % g v v c g       ",
"                 . . . . . . . .}  .*.,.<.<.<.<.;.;.2.u.M.F.F.F.F.D.S.B.G.3XqXqXqXqXqXqXqXqXqXqXqXqXqXqXqXqX9X3X0XnXZXZXZXZXZXZXnXOXa , ; . + > + . > ; . # ; X + l [.~.s . . . + k l 1 . . . . . % g v S v c 6     ",
"          o.o. .X.*.=.%.%.%.%.%.%.%.,.9.i.n.n.n.n.n.n.M.F.2X2XP.P.P.K.K.3XlXVXMXmXmXmXmXmXmXmXmXmXmXmXmXmXmXnXnXmXZXZXZXZXZXzX9X4X                              . $ T.~.l s < @ . + 1 , @ . . . . & 6 c S D v g     ",
"        o.X. .X.=.<.8.7.5.5.5.5.5.5.y.n.D.K.K.J.J.J.F.F.1XwXkXjXwXjXwXwXlXZXZXZXZXZXZXZXZXZXZXZXZXZXZXZXZXZXZXZXZXZXZXZXBXjX1XF.b.                                . < T.!.R.R.j , . . @ 1 1 @ . . X % 6 S ).).v g 6 ",
"      }  .*.=.-.2.w.M.A.A.m.m.m.m.m.m.S.1X3X3X2X2X2X2X2XjXVXZXZXZXZXZXVXZXZXZXZXZXZXZXZXZXZXZXZXZXZXZXZXZXZXZXZXZXZXZXZX7XH.B.b.w.                                  + d R.~.[.[.E.: . X < d : . . . . 2 c ).).D c 6 ",
"    }  .%.,.8.u.n.D.K.K.K.K.K.K.K.J.F.L.0XzXzXlXlXlXlXlXmXZXZXZXZXZXZXZXZXZXZXVXZXVXVXBXBXBXZXZXZXZXZXZXZXZXZXZXZXZXZXkXG.i.w.u.8.                                    1 l ~.}.%X$XN - # : , + X @ X . @ h c D ).v 6 ",
"  }  .*.<.9.v.D.2XqXqX9X6X6X6X6X6X3X3X0XnXZXZXZXZXZXZXZXZXZXZXZXZXZXZXZXZXZXVXZXZXZXZXBXBXBXZXZXZXBXBXBXZXZXZXZXMXmXzX3XM.0.8.2.;.                                      d Y. XpXvXOXa - X . . X - + . X : 3 S oXS g ",
"}  .*.5.n.m.B.1XkXVXVXmXmXmXmXmXmXmXnXmXZXZXZXZXZXZXZXZXZXBXBXBXZXZXBXBXBXBXBXZXBXVXZXZXBXBXBXBXBXBXZXZXZXZXZXzX6X1X1XF.p.,.-.-.                                        , j /.pXbX`.1 . . . . . . . . . . 2 oX:XoXg ",
"X.*.y.A.J.F.L.wXVXZXZXZXZXZXZXZXZXZXZXZXZXBXBXBXZXZXZXZXBXBXBXZXZXZXBXBXBXBXZXZXBXBXZXZXZXZXBXBXBXZXZXZXZXZXNX9XF.b.b.n.t.X.&.                                            p l '.OXB X X @ @ X . + 1 < X . 6 >XAX-Xb ",
"-.6.C.2X2X2XwXmXZXZXZXZXZXZXZXZXZXZXZXZXZXZXBXBXZXZXBXZXBXBXZXZXZXVXVXBXZXZXZXZXBXBXZXZXZXZXZXBXZXZXZXZXZXMX9XJ.M.w.q.9.:.'                                               1 s s 1 X X p k d s < d U.l : . b tXdX&Xg ",
";.y.D.2X3XjXmXZXZXZXZXBXBXBXZXZXBXBXZXZXZXZXBXBXZXZXBXBXBXBXZXZXZXVXVXBXZXZXZXZXBXVXVXZXZXZXBXBXZXZXmXlX7X4XJ.B.i.8.1.,.+.                                                ! u # # X - j R.R.T.l j U.l @ O b oXoX    ",
"-.5.A.K.qXMXZXZXZXZXVXZXBXZXZXZXBXZXZXZXZXVXBXBXZXBXBXBXZXZXZXZXVXVXZXZXZXBXBXBXZXZXVXBXZXZXZXZXZXVXwXL.D.S.n.u.2.-.=.=.                                                  x.I 8 4 d d j R.{.{./.Q.W.l ; = D ).g     ",
"-.6.m.K.qXVXZXZXZXZXVXVXBXBXZXZXZXZXZXZXZXZXBXBXVXBXBXBXZXVXZXZXVXVXZXZXZXBXBXBXZXZXZXZXZXZXZXZXVXwXL.V.V.N.:.@.X.O.X.                                                  x.x.Y K C W.U.j R.}.@X#XyX$X/.z D ,X&X6     ",
"*.4.m.K.9XmXZXZXBXBXVXVXBXBXBXBXVXBXZXVXZXZXZXZXBXBXBXBXBXVXBXBXZXZXZXZXBXBXBXBXZXZXZXZXZXZXlXhX6XP.B.p.p.r.O.(                                                       P ~ k./ Q / H z , j ~.}.#X;X]..XXXuX,XH       ",
" .:.C.J.9XmXZXZXBXZXVXVXBXBXBXBXBXBXBXBXZXZXZXZXZXBXBXBXBXBXBXBXBXBXZXVXBXBXZXZXZXZXZXZXMX7XS.i.v.m.t.+.o.O.'                                                       r t r R c.x./ R w O # j ^.E.A S ].tXuXH         ",
"} r.C.J.9XmXZXZXBXBXBXBXVXZXBXBXBXBXZXZXZXVXBXBXBXBXBXZXZXZXBXBXBXBXBXBXZXZXZXZXZXZXlX7X<Xi.1.$.>.:.+.(                                                           8 r t e i ~ ~ W U t 9 * & f (.`.*X,X:XG           ",
"} r.C.P.9XmXZXZXBXBXBXBXZXZXVXZXBXBXZXZXZXZXBXBXBXBXBXZXZXZXBXBXBXBXBXBXZXZXZXBXVXzX<Xv.0.;.&. .} { '                                                           q q r t t t P I P t r t r q b ).:XdX,XG             ",
"} r.A.P.9XmXZXZXBXBXZXZXZXZXZXZXBXZXZXZXBXBXBXBXBXBXBXVXZXZXZXBXZXZXBXZXZXZXlX8X4XG.b.0.#.| (     '                                                             t t e q q q t T E t 0 9 U W n v D oXG               ",
" .:.n.J.qXVXZXZXBXBXBXZXZXZXZXZXBXBXZXZXBXBXBXBXBXBXBXVXZXZXZXZXZXZXZXZXZXMX6XB.b.w.8.*.( `                                                                     L t e 8 0 0 e E d.T 8 * L / ! b                     ",
" .*.q.D.9XMXZXZXZXZXZXZXBXBXZXZXVXBXBXBXBXZXZXZXZXZXZXZXZXZXZXZXZXZXZXZXmX4XD.b.9.-.&.O.`                                                                       P P t t r 9 9 T d.d.T q y E /                       ",
"{ X.<.b.1X0XnXZXZXZXZXZXBXBXBXZXZXBXBXBXZXZXZXZXVXZXZXZXBXZXZXVXhX8X7XjX8Xp.4.4.>. .{ `                                                                         s.E W W E I y I k.I.rXh.! U Y                       ",
"` { =.u.D.2XwXVXZXZXBXBXBXBXZXZXZXZXBXBXBXVXZXZXBXZXZXZXZXZXZXlX<XB.D.F.p.@.) {  .{ '                                                                           d.f.k.k.l.l.Q E k.5XBXvX=XR t                       ",
"     .y.D.P.0XVXZXZXBXBXBXBXZXZXZXZXBXBXBXZXZXZXZXZXZXZXZXZXlX<XB.B.B.w.;.( ` `                                                                                 T E s.l.z.z.l.f.c.fXbXeXrX=Xi                       ",
"    } t.B.P.wXVXZXZXZXZXZXZXVXVXZXZXZXZXZXBXBXZXZXZXZXmXnXlX<Xv.v.n.i.2.X.' `                                                                                     t T a.a.a.a.a.j.=X=Xj.c.=XC                       ",
"    } ;.v.K.wXZXZXZXZXZXVXVXBXBXZXZXZXZXBXZXZXZXZXZXnX8XG.D.n.9.<.,.;.*.} `                                                                                         P P P P P P P R P U I R i                       ",
"     .=.0.S.wXZXZXZXVXZXBXBXBXBXZXZXBXBXZXZXZXnXjXjX4XM.w.9.<.-.&.X.} O.'                                                                                                     t r e K I U t                         ",
"      &.,.i.6XVXZXZXZXZXBXBXBXBXBXBXZXZXZXZXVX7XG.B.M.q.1.=. .} } { ' `                                                                                                         t r I a.E                           ",
"        %.8.D.eXMXZXZXZXBXZXZXZXZXZXZXZXZXZX7XD.B.v.q.1.=. .( ]                                                                                                                                                     ",
"        } >.e.J.zXZXZXZXZXZXZXZXZXZXVXmXnX7XD.v.i.9.,.*.X.] `                                                                                                                                                       ",
"        ' } $.i.7XZXZXZXZXZXZXZXZXZXjX4X1XA.w.8.;.*.X. .O._                                                                                                                                                         ",
"          `  .1.Z.7XlXkXkXkXjX7X7X8XH.g.e.9.<.*.} ( ]                                                                                                                                                               ",
"            ( *.1.u.M.A.A.C.n.u.9.9.9.8.,.%.} ] ` `                                                                                                                                                                 ",
"              { X.=.>.:.:.>.>.*.%.%.*.*.} ( ' `                                                                                                                                                                     ",
"              ` {  . .[ [ [ [ [ [ [  .} ' ` ` `                                                                                                                                                                     "
};
