/* XPM */
static char *luke_29[] = {
/* columns rows colors chars-per-pixel */
"47 79 254 2 ",
"   c None",
".  c #000102",
"X  c #01040C",
"o  c #080608",
"O  c #170704",
"+  c #000513",
"@  c #010A14",
"#  c #020C1B",
"$  c #06071A",
"%  c #121017",
"&  c #340200",
"*  c #2E100E",
"=  c #0E3C0A",
"-  c #352417",
";  c #000D22",
":  c #00062A",
">  c #031225",
",  c #02142C",
"<  c #081629",
"1  c #1C1A28",
"2  c #000B38",
"3  c #031C3B",
"4  c #051835",
"5  c #1A1A38",
"6  c #271926",
"7  c #351B2A",
"8  c #301733",
"9  c #12223C",
"0  c #372439",
"q  c #2E2634",
"w  c #581901",
"e  c #4A1A19",
"r  c #4E0F0A",
"t  c #5A2906",
"y  c #4B2714",
"u  c #67280A",
"i  c #752F08",
"p  c #76350A",
"a  c #6D3815",
"s  c #471233",
"d  c #472329",
"f  c #463139",
"g  c #6B2C19",
"h  c #164A0D",
"j  c #304A2F",
"k  c #18552E",
"l  c #724E3B",
"z  c #574D30",
"x  c #021D42",
"c  c #031D46",
"v  c #001148",
"b  c #35174A",
"n  c #042145",
"m  c #03234A",
"M  c #0A2547",
"N  c #022552",
"B  c #032A55",
"V  c #032B5B",
"C  c #062759",
"Z  c #02325E",
"A  c #162D50",
"S  c #372745",
"D  c #2F2F50",
"F  c #012D62",
"G  c #002767",
"H  c #023265",
"J  c #01326A",
"K  c #053669",
"L  c #003572",
"P  c #033A74",
"I  c #013C7C",
"U  c #073776",
"Y  c #0B336E",
"T  c #152565",
"R  c #472B45",
"E  c #483455",
"W  c #563856",
"Q  c #4F304B",
"!  c #583C63",
"~  c #4C366C",
"^  c #581B5A",
"/  c #2E4457",
"(  c #0B4771",
")  c #2D5072",
"_  c #06494D",
"`  c #544C4E",
"'  c #695654",
"]  c #7C4446",
"[  c #4C744C",
"{  c #514F62",
"}  c #6A4D6E",
"|  c #56626C",
" . c #696E72",
".. c #863B07",
"X. c #8B3F16",
"o. c #A43A01",
"O. c #854514",
"+. c #8C5217",
"@. c #924C13",
"#. c #A85318",
"$. c #A84D13",
"%. c #9C5528",
"&. c #93502C",
"*. c #A65929",
"=. c #B35F31",
"-. c #AC6234",
";. c #B86837",
":. c #B36F2D",
">. c #9C6617",
",. c #CB7332",
"<. c #C45B1C",
"1. c #8C5A48",
"2. c #9C7661",
"3. c #C87B4C",
"4. c #00BA18",
"5. c #019837",
"6. c #02AC2E",
"7. c #00B626",
"8. c #00BB24",
"9. c #03B32A",
"0. c #0AB92C",
"q. c #05AC30",
"w. c #07A231",
"e. c #1E9714",
"r. c #4FBD38",
"t. c #03C719",
"y. c #0BD21C",
"u. c #12D81D",
"i. c #13CE10",
"p. c #3AC21C",
"a. c #18E41B",
"s. c #0CCA24",
"d. c #17D424",
"f. c #11CD25",
"g. c #33CE2A",
"h. c #29E427",
"j. c #3AE933",
"k. c #38EA2B",
"l. c #3BFA18",
"z. c #4AD330",
"x. c #54E83B",
"c. c #4FF332",
"v. c #64FC3D",
"b. c #77FC3B",
"n. c #60FC2D",
"m. c #008D4C",
"M. c #07AD5E",
"N. c #4DCE42",
"B. c #5CEE42",
"V. c #69F445",
"C. c #78F446",
"Z. c #6BEC43",
"A. c #5DE15B",
"S. c #53B256",
"D. c #B78B2A",
"F. c #C3883A",
"G. c #C69637",
"H. c #C58C2E",
"J. c #D79F3B",
"K. c #83FF38",
"L. c #D08B4A",
"P. c #D5AD4A",
"I. c #ED9B6B",
"U. c #F9A87A",
"Y. c #E09F58",
"T. c #8AFC54",
"R. c #98FC59",
"E. c #8DFF47",
"W. c #A8FD5C",
"Q. c #A9FB66",
"!. c #B6FB69",
"~. c #B6FB78",
"^. c #89D169",
"/. c #C6FC6E",
"(. c #C9FC7B",
"). c #D2FD7D",
"_. c #013A85",
"`. c #003192",
"'. c #002FA7",
"]. c #014385",
"[. c #00448B",
"{. c #04488C",
"}. c #014A96",
"|. c #04519C",
" X c #145293",
".X c #26578F",
"XX c #036995",
"oX c #004AA7",
"OX c #0153A4",
"+X c #0255AA",
"@X c #0259AC",
"#X c #0159B6",
"$X c #0A53AA",
"%X c #0161BA",
"&X c #116BAA",
"*X c #3573B1",
"=X c #3259A3",
"-X c #725288",
";X c #52718F",
":X c #767981",
">X c #0059CB",
",X c #0266C8",
"<X c #0268D4",
"1X c #0472DB",
"2X c #1673D1",
"3X c #077AEA",
"4X c #037AF6",
"5X c #0974EA",
"6X c #8B6893",
"7X c #5089BD",
"8X c #7B93AC",
"9X c #2D83D7",
"0X c #198AF6",
"qX c #3795F0",
"wX c #50A8FA",
"eX c #6CB4F2",
"rX c #6898CD",
"tX c #878890",
"yX c #B09694",
"uX c #A89DA9",
"iX c #8AA2BA",
"pX c #BAB0B7",
"aX c #ABA396",
"sX c #CFAF8B",
"dX c #DCB69C",
"fX c #9DFF85",
"gX c #A3FF88",
"hX c #BFFDAF",
"jX c #D6FB86",
"kX c #D5F992",
"lX c #E3FB9B",
"zX c #E0FF86",
"xX c #FFDDB4",
"cX c #E7FBA6",
"vX c #E7F9B6",
"bX c #F4FAB1",
"nX c #D8E0B6",
"mX c #A9BCCD",
"MX c #94ACC8",
"NX c #98C6EF",
"BX c #BCD3ED",
"VX c #D2D1D6",
"CX c #E6DDD3",
"ZX c #EBF8C4",
"AX c #F6FBDA",
"SX c #ECF9D3",
"DX c #FDF9EC",
"FX c #F7F8E8",
"GX c #F7FBF5",
"HX c #F9FBF4",
"JX c #FAF8FB",
"KX c #FDF7FE",
"LX c #EAF2F4",
"PX c #DADFE5",
/* pixels */
"                                  O.>.P.nXVXVXVXnXP.H.;.                                      ",
"                                O.>.D.P.sXyXyXsXsXY.F.F.                                      ",
"                              i +.D.P.G.;.&.+.D.L.3.;.G.                                      ",
"                              i >.J.P.;.X.O.>.D.:.*.*.D.                                      ",
"                              O.:.F.L.:.>.:.H.,.@.u u %.                                      ",
"                            O.:.F.3.L.G.D.H.L.-.a r w p                                       ",
"                          i +.D.P.L.L.G.D.>.%.-.%.a O.-.                                      ",
"                          i +.D.P.P.L.%.a t O.3.I.L.L.I.                                      ",
"                          i +.G.P.L.%.u w u &.3.I.U.U.I.'                                     ",
"                          i +.H.L.-.i u p %.*.;.L.U.I.;.f V J V                               ",
"                          p @.;.-.a w p =.-.%.*.3.L.,.@.D +X<X+XM                             ",
"                            @.1.] d * t *.;.=.*.-.=.<.#.` #X4X<XH $                           ",
"                              Q E S % O t *.;.%.p p $.=.` {.#X@XL 3 B                         ",
"                              0 D D 5 + O a %.a * * y l R N L I F H {.@X                      ",
"                              { } } ! 5 . * i t o . o q q x N x 4 H %X1X+X                    ",
"                            { uXuX6X-XE % O i ..* o X 5 S S n ; . 4 +X4X,XC                   ",
"                          * 0 :XtX-X-X-XD 7 a *.@.w O 0 W ! D < X + V #X#XC                   ",
"                        q o % D / A ~ -X-XE R &.,.#.t 0 ! } W q > X @ B U B                   ",
"                        5 3 A  .| B 4 R } D 5 1.I.L.X.- 0 ! ! S $ . . X 3 B m                 ",
"                        3 _.9XNXiXY + O R 5 @ l U.Y.&.q 5 R W S % . . . ; F V 3               ",
"                        x +X0XwX*XK X O Q S X a L.,.'  XU 0 Q E 4 X . . # F H n               ",
"                        n +X3X,X_.N X o 0 S 1 y ..o.' 5X<X/ R Q D 4 X . X 3 U P               ",
"                        n {.#X[.C 4 X . o 8 S 6 & u | 0X4X$XD R Q D 4 X . X Z }.U             ",
"                        3 J [.L m , ; + + q Q 6 % / *X3X4X@XA d W D M , X . > P [.].          ",
"                        n N F J F C / ( M D Q d 9 |.1X,X+X[.M d Q     n , X . @ P @X          ",
"                        V m m F L  X8XiX) T R d 1 J [.J V B 5 f W     m n , . . 4 P           ",
"                        J V 3 4 C $XeXNX*XY D f 7 5 < > 5 D 0 f W     m N n @ . # 3           ",
"                          J n X # U 9XqX2XI M 0 R 0 % 6 Q ! 0 7 Q       m x @ . 4 V x         ",
"                          L B # + F >X1X#XL x b R 7 7 W } } 0 6 R         3 X @ I +XH         ",
"                          J F n 4 N [.@X[.c 3 E ` 7 7 W } Q 6 q E         1 . ; +X<XU         ",
"                            J H 3 > B I F 2 9 :XyX' 7 7 7 6 6 S E       ..t O $ [.%XJ         ",
"                              L m # ; 4 , ; C 7XBXpX} D Z M 1 6 0     @.#.#.u O H [.N         ",
"                                J m ; . . X C 2XeXBXMX2X1X+X3 % f l ..#.L.I.,.a ( [.C         ",
"                                  L 3 X . . ; _.2XeXeX0X5X>X_.) tX2.$.<.U.xXxXyX*X2X;X        ",
"                                  L B , @ X + 2 J  X XJ C _.>XqXmXdX3.=.3.dXCXmXqXwX          ",
"                                    F H U ].J , X + $ . . x ,X5X;XsXdX1.- f ' { ( rXPX        ",
"                                      _.}.&X.XA > ; , # . # @XoX4 ` tXj . $ X . X ) iX|       ",
"                                        C f ` ) ].[.}.U > > +XoX: o 1 @ 4 _.C . . 9  XC %  .CX",
"                                        * w i z ) ) ) ) D D =X.X6 O o . : _..X| ' / N 2 A tXCX",
"                                        r r w w e e e e Q } ~ R r r * O . >  .VXCXtX6 :  X    ",
"                                      s ^ s 7 & r & & & s b 8 * e e d                         ",
"                                    e.` | [ j j j h = = = = = h j 0 b                         ",
"                              6.8.d.N.^.A.N.z.z.z.g.p.p.p.p.p.z.z.[ E b                       ",
"                            6.9.s.x.R.~.gXfXfXfXfXgXgXgXgXgXgXgXgX^. .[ [                     ",
"                          q.9.s.j.T./.lXAXHXGXGXGXHXHXHXHXHXHXHXHXvXQ.b.r.j                   ",
"                        q.0.f.h.v.W./.lXDXKXKXKXKXKXKXKXKXKXKXKXKXAX(.E.z.j                   ",
"                        6.0.d.c.T.Q.(.vXDXKXKXKXKXKXKXKXKXKXKXKXKXAXzXE.g._ G                 ",
"                        6.8.h.V.Q.(.vXFXKXKXKXHXGXGXGXGXGXGXKXKXKXAXjXE.N.XX`.G               ",
"                      6.9.s.j.T.!.jXSXKXKXKXKXGXGXJXJXJXGXKXKXKXKXSXQ.K.A.XX'._.J             ",
"                    q.0.f.k.v.R.!.kXAXKXKXKXGXKXGXGXJXJXGXKXKXKXKXhXb.n.N.( '.oX].J           ",
"                  6.0.d.k.v.T.W.jXZXFXKXKXKXHXHXJXKXJXJXGXKXKXHXAX~.c.p.h < G oX+X].J         ",
"                6.9.s.h.v.R.!.jXZXHXKXKXGXGXHXHXKXGXJXJXGXKXKXFXcXW.z.h . . # F +X+X].J       ",
"              q.0.s.d.j.T.!.jXSXDXKXKXGXGXGXGXGXKXJXGXJXKXKXKXFXlXW.z.h . . . # H +X+X_.J     ",
"            6.0.d.h.h.x.R./.lXDXKXKXGXGXGXGXGXGXGXGXGXGXKXKXKXDXlXW.z.h . . . X # V }.|.I J   ",
"          q.0.d.j.c.c.V.R./.vXFXKXKXKXKXGXJXGXGXGXGXGXGXKXKXKXDXcXW.z.h . . @ # X # F +X+X].J ",
"          q.0.d.c.v.C.R.!.kXSXGXKXKXKXKXKXKXGXGXGXGXGXGXKXKXKXDXlXW.z.k $ $ @ @ # 4 F +X%X}.J ",
"          q.7.d.c.C.R.!.lXAXKXKXGXGXGXGXGXGXJXJXGXGXKXHXKXKXKXHXcXW.x.k v 2 > # 3 N V ].+X].F ",
"          6.7.d.c.R.!.lXFXKXKXKXGXGXGXGXKXGXKXKXGXGXKXKXKXKXKXDXcXW.x.    v x m B x > n U J m ",
"        q.9.s.h.C.(.cXAXKXKXKXKXGXGXKXKXKXKXKXKXGXHXKXKXKXKXDXZX(.E.      : m J J , . @ m B m ",
"      q.9.s.d.c.W.lXFXKXKXKXKXKXGXKXKXKXKXKXKXKXKXKXKXKXKXKXZX~.C.              F 3 . X 3 V V ",
"      q.9.f.k.E./.vXKXKXKXKXKXGXKXKXKXKXKXKXKXKXKXKXKXKXKXKXvXW.n.            n 4 ; @ > m F   ",
"      q.9.s.c.Q.).vXFXKXHXKXKXKXKXKXKXKXKXKXHXHXGXGXDXHXKXHXbX!.v.          $X< . . , V L     ",
"      q.7.s.x.Q.jXlXvXvXvXFXKXKXKXKXKXKXKXFXZXvXvXvXvXvXvXbXcX~.b.        4X|.# . # N _.|.    ",
"        4.i.c.R.(.jX)./.).vXDXHXDXDXDXHXDXZXjX/.(.(.).(.!.Q.~.W.b.      <X<XU X @ m I |.      ",
"          7.h.V.Q.~.!.W.Q.jXcXcXlXlXcXcXcXjX!.W.Q.!.!.W.Z.k.n.b.      #X@X_.x > x I +X        ",
"            M.j.c.V.V.B.B.Z.C.C.C.C.C.C.C.Z.V.B.B.V.V.B.d.y.l.        >X}.4 # m I +X          ",
"            XXw.i.a.a.u.u.u.y.y.y.y.y.y.y.d.d.d.d.d.d.d.t.t.          @XB . @ J +X            ",
"          4XoX= e.t.y.t.t.8.8.8.7.7.7.7.7.7.7.8.8.8.8.4.4.          @XZ X X m }.              ",
"          4X`.. = 5.M.m.m.5.9.9.6.6.6.6.6.6.6.6.6.6.9.9.          +XH # X n {.                ",
"          0X_.. X ( XX{.(                                       @XZ @ + V }.                  ",
"        0XeX;XO : '.'.`.                                      }.Z # + B }.                    ",
"      3XwXmX2.% C oX`.                                      >XU @ @ F +X%X                    ",
"      NXmX2.- 3 [.@X                                        5XU . > +X3X1X                    ",
"      LXtX- . F +X}.                                        4X}., , }.3X4X                    ",
"    LXNX=X+ ; [.+XL                                         ,X+XV # 3 |.<X,X@X%X1X4X          ",
"DXVX8X&X_.v J ,X%X].                                        @X}.m . . 4 H H B J @X1X          ",
"pX8XA 2 4 N }.5X<X+X                                        %X( ; . . . X . . @ U             ",
"` 1 X . . # J +X+X[.                                                                          ",
". . . . . . , J I J                                                                           "
};
