/* XPM */
static char *luke_17[] = {
/* columns rows colors chars-per-pixel */
"46 127 256 2 ",
"   c None",
".  c #010101",
"X  c #01040B",
"o  c #0A0607",
"O  c #16080A",
"+  c #010413",
"@  c #030A14",
"#  c #020C1B",
"$  c #080A18",
"%  c #190D17",
"&  c #1A1318",
"*  c #131312",
"=  c #26151D",
"-  c #2F1408",
";  c #000C24",
":  c #021224",
">  c #01132C",
",  c #08172D",
"<  c #161329",
"1  c #031A34",
"2  c #021C3B",
"3  c #061836",
"4  c #111230",
"5  c #291A2B",
"6  c #291C35",
"7  c #331830",
"8  c #08233C",
"9  c #2B213A",
"0  c #37263A",
"q  c #2F2C2F",
"w  c #3E2009",
"e  c #551A00",
"r  c #4B1300",
"t  c #582704",
"y  c #48230D",
"u  c #682904",
"i  c #773707",
"p  c #6D320F",
"a  c #4B3432",
"s  c #64382B",
"d  c #6E1701",
"f  c #106F2F",
"g  c #1B5D36",
"h  c #554B30",
"j  c #695B26",
"k  c #011D42",
"l  c #001D4C",
"z  c #0F1D4B",
"x  c #022245",
"c  c #02234C",
"v  c #06264A",
"b  c #022654",
"n  c #012A55",
"m  c #012B5B",
"M  c #042559",
"N  c #162F52",
"B  c #392947",
"V  c #2E3453",
"C  c #012D62",
"Z  c #012B6A",
"A  c #043164",
"S  c #01336B",
"D  c #0A356B",
"F  c #013573",
"G  c #013B73",
"H  c #003C7B",
"J  c #053775",
"K  c #0E356F",
"L  c #393867",
"P  c #21396F",
"I  c #220B52",
"U  c #462D47",
"Y  c #49314D",
"T  c #4B3757",
"R  c #54395A",
"E  c #56334B",
"W  c #573C64",
"Q  c #493768",
"!  c #643C5C",
"~  c #27564C",
"^  c #03427E",
"/  c #174878",
"(  c #35546D",
")  c #2B6157",
"_  c #544549",
"`  c #6E4C54",
"'  c #5A4369",
"]  c #504A71",
"[  c #654369",
"{  c #6B4D7C",
"}  c #694976",
"|  c #724E79",
" . c #774F73",
".. c #757B42",
"X. c #88360B",
"o. c #993F26",
"O. c #89470C",
"+. c #884618",
"@. c #954716",
"#. c #955611",
"$. c #A54E18",
"%. c #9B6917",
"&. c #AB7217",
"*. c #91522A",
"=. c #A75928",
"-. c #AF5A2E",
";. c #B56F32",
":. c #C15834",
">. c #C36837",
",. c #C97A31",
"<. c #905956",
"1. c #B36B4D",
"2. c #8D736F",
"3. c #98685D",
"4. c #CB774D",
"5. c #E47957",
"6. c #06931A",
"7. c #06A81D",
"8. c #11B31C",
"9. c #008E2D",
"0. c #008C27",
"q. c #009324",
"w. c #009A25",
"e. c #00932A",
"r. c #009929",
"t. c #008735",
"y. c #008A32",
"u. c #008B38",
"i. c #049438",
"p. c #0EAE20",
"a. c #05A128",
"s. c #14B122",
"d. c #19B327",
"f. c #1BB336",
"g. c #10AA30",
"h. c #21B42F",
"j. c #23B635",
"k. c #3BB52D",
"l. c #279927",
"z. c #1DC71C",
"x. c #2EC531",
"c. c #2DC831",
"v. c #31C435",
"b. c #3BCF3C",
"n. c #30CF2C",
"m. c #20C423",
"M. c #42D63B",
"N. c #51D339",
"B. c #5FFF33",
"V. c #28A74E",
"C. c #48B348",
"Z. c #61B176",
"A. c #50D14B",
"S. c #7EDF77",
"D. c #7BDB7E",
"F. c #63D66A",
"G. c #78EE70",
"H. c #5FE44C",
"J. c #B4862B",
"K. c #819A3D",
"L. c #C88931",
"P. c #CFA734",
"I. c #A59659",
"U. c #D18C53",
"Y. c #D5906C",
"T. c #F39874",
"R. c #CEA971",
"E. c #E5A15D",
"W. c #83E07C",
"Q. c #80FF6D",
"!. c #80DF79",
"~. c #003D89",
"^. c #302A91",
"/. c #01458B",
"(. c #01498C",
"). c #044385",
"_. c #174B89",
"`. c #014B93",
"'. c #024A98",
"]. c #00519C",
"[. c #0B5093",
"{. c #175394",
"}. c #2A5492",
"|. c #0154A4",
" X c #0258AB",
".X c #015DB3",
"XX c #0358B6",
"oX c #0147A4",
"OX c #0261BC",
"+X c #3975B1",
"@X c #3B6793",
"#X c #775588",
"$X c #6D528F",
"%X c #446389",
"&X c #54718E",
"*X c #4D72AA",
"=X c #625C90",
"-X c #0059C4",
";X c #0366C8",
":X c #036DD8",
">X c #0874DA",
",X c #1973CC",
"<X c #0B77E4",
"1X c #077BF7",
"2X c #2E7BC7",
"3X c #4132AA",
"4X c #845B91",
"5X c #897994",
"6X c #8474CF",
"7X c #6C8D90",
"8X c #6FAD93",
"9X c #7490AF",
"0X c #518A9D",
"qX c #0F8AF8",
"wX c #37A3FF",
"eX c #3490E5",
"rX c #4A8DCB",
"tX c #74A5D3",
"yX c #49ACFF",
"uX c #76B5ED",
"iX c #5498DC",
"pX c #5AC2FF",
"aX c #75D681",
"sX c #8D8F8F",
"dX c #A5998F",
"fX c #8690AC",
"gX c #A0ABB8",
"hX c #C9AE98",
"jX c #D3ADA5",
"kX c #8FE389",
"lX c #89E283",
"zX c #95EA8B",
"xX c #A4F593",
"cX c #A4EC97",
"vX c #BCF9AA",
"bX c #B6ECB5",
"nX c #86D39A",
"mX c #D7C8B7",
"MX c #C0F2B6",
"NX c #C4F3BC",
"BX c #C2FCAE",
"VX c #D9C69D",
"CX c #ABB5CB",
"ZX c #91BCE3",
"AX c #92AFCB",
"SX c #C6BBC5",
"DX c #AED3E3",
"FX c #D4D7E2",
"GX c #EDDCFF",
"HX c #CCECF9",
"JX c #F7FFED",
"KX c #FCFFF4",
"LX c #FDFEFD",
"PX c #F4F3F6",
"IX c #EDFCE9",
"UX c #D4DDCD",
/* pixels */
"                                                                          u.u.g.x.n.x.f.i.u.",
"                                                                          u.u.g.c.n.c.f.u.u.",
"                                                                          u.u.g.b.H.M.f.i.u.",
"                                                                          u.u.a.F.vXlXf.r.u.",
"                                                                          u.9.a.nXLXbXj.e.u.",
"                                                                          u.9.7.nXLXbXj.e.u.",
"                                                                          u.9.7.aXKXbXf.r.u.",
"                                                                          u.9.7.D.KXbXj.r.9.",
"                                                                          u.9.7.D.KXMXj.r.u.",
"                                                                          u.9.8.W.KXMXx.r.u.",
"                                                                          u.9.p.S.KXMXx.r.u.",
"                                                                          u.9.p.S.KXMXx.r.u.",
"                                                                          u.9.p.S.KXMXx.r.u.",
"                                                                          u.9.p.D.KXMXx.r.u.",
"                                                                          u.9.p.D.KXMXx.r.u.",
"                                                                          u.9.p.S.KXMXx.r.u.",
"                                                                          u.9.p.S.KXMXx.r.u.",
"                                                                          u.9.p.S.KXMXx.r.u.",
"                                                                          u.9.p.S.KXMXx.r.u.",
"                                                                          u.9.p.S.KXMXx.r.9.",
"                                                                          u.9.s.W.KXMXx.w.u.",
"                                                                          u.9.d.W.KXMXx.w.u.",
"                                                                          u.9.d.lXKXMXv.w.u.",
"                                                                          u.9.d.kXJXMXv.w.u.",
"                                                                          t.e.h.kXJXMXv.w.u.",
"                                                                          t.e.h.kXJXMXv.w.u.",
"                                                                          t.0.h.kXJXMXv.w.u.",
"                                                                          t.e.h.kXJXMXv.w.u.",
"                                                                          t.e.h.kXJXMXv.w.u.",
"                                                                          t.e.h.kXJXMXv.w.u.",
"                                                                          u.0.d.kXJXbXv.w.u.",
"                                                                          u.0.d.kXKXbXv.w.u.",
"                                                                          u.e.d.kXKXbXv.w.u.",
"                                                                          u.r.p.kXKXMXv.w.u.",
"                                                                          u.r.8.W.KXMXv.w.u.",
"                                                                          u.e.8.W.KXMXv.w.u.",
"                                                                          u.e.p.W.KXMXx.w.u.",
"                                                                          u.0.s.!.KXMXx.r.u.",
"                                                                          u.e.s.W.KXMXx.r.u.",
"                                                                          u.e.d.W.KXMXv.w.9.",
"                                                                          u.e.d.W.KXMXv.r.u.",
"                                                                          u.e.p.kXKXMXv.r.u.",
"                                                                          u.e.d.kXKXMXv.r.u.",
"                                                                          u.e.d.kXKXMXv.r.u.",
"                                                O.&.P.VXSXSXSXmXR.L.,.    u.e.d.kXKXMXv.r.u.",
"                                              O.J.P.P.U.1.<.I.I.;.&.L.K.  u.e.d.kXKXMXv.r.u.",
"                                            p #.P.P.;.$.@.#.&.%.O.$.,.K.  u.e.d.kXKXMXv.r.u.",
"                                            i %.P.U.1.=.#.&.&.i u X.-...  u.e.d.kXKXbXv.r.u.",
"                                            %.&.L.hXhXI.J.&.#.t r d X.j   i.e.d.zXKXvXb.r.u.",
"                                          O.;.U.Y.mXmXR.%.O.+.+.p d +.j   u.w.z.xXKXvXb.r.u.",
"                                          O.;.R.mXmXY.*.u i -.U.1.:.4.K.  9.e.z.xXKXvXM.a.u.",
"                                          O.;.R.hX3.i e e +.4.T.T.T.T.I.  9.e.z.xXKXvXM.r.u.",
"                                          #.L.J.*.p e u X.=.1.Y.T.T.U...  u.e.z.xXKXvXM.a.t.",
"                                          #.&.#.t r p @.=.=.=.4.Y.5.-.h   u.w.z.xXKXvXM.a.t.",
"                                          p i i e e i -.>.=.=.;.>.:.@.h   u.w.m.xXKXvXM.a.t.",
"                                          q p X.i t i -.4.>.=.@.@.$.-...  u.w.m.xXKXBXM.a.u.",
"                                        M V ` *.s s ` 3.1.*.t w t o.>.    u.w.m.xXKXBXM.a.u.",
"                                      k L $X4X[ E T [ | R = . . &         u.6.z.zXJXvXn.a.u.",
"                                    k b L #X4XW 5 % < 6 6 < < < 6         9.6.8.S.IXcXm.6.0.",
"                                  c C K L [ [ V : * & o $ B W W U 7       0.0.V.bXKXNXA.r.f ",
"                                x m P =X' Y B M / 7XsX~ > 6 ! | R 7         V.nXIXLXLXbXV.  ",
"                              b b c V |  .U < M ,XuXZX@Xl 4 T | W 7           DXGXGXGXFX    ",
"                            v m l # = ! 4XE O b :XqX2X_.l 3 T | R <           8X6X6X6X9X    ",
"                            m x # . O T 4X! O 3 XX;X~.M > # B { W %         N.) ^.3X^.( N.  ",
"                            C > . . & ' 4X! O > /.'.C 1 + X 6 W T 0       cXk.f ( &X( ) C.F.",
"                            C > . . 5 { #XE O # A H m 3 > 3 z B 0       FX7Xg l.A.H.H.C.Z.8X",
"                            C > . o Y #X} 7 o @ b F F S }.&X] 7         5X=X) A.B.N.k.C.Z.8X",
"                            m : . = ' #XR % . # m Z Z /.rXCXsXU         & L 8XG.N.g 8 g C.A.",
"                            m ; . 5 [ #XT O . > m c > Z 2XuXrX_.        . V nXG.k.8 I P g 6.",
"                            C ; . 0 { #XT % . ; k ; . 3 |.<X>X-X        4 N 7XA.l.~ }.*X] V ",
"                            C # O T #X} U & . . + # # k ~.XX XoX:XpXHXCX_.C N g ~ ( *X9XCXCX",
"                            3 # 5 } { B & o . . X 3 A c n /.~.Z ~.+XtX9XK 3 4 ] fXfX%X&XSXLX",
"                            X % T #XT * . . . . @ A (.c > n m > @ , N N # + V CXPXFX&X(     ",
"                            . % W #XB X . . . o 5 N S S n > # X . X ; + . > +XHXLXPXCXfX    ",
"                            o < Q $XQ $ X + + < 6 & : C m @ . X @ > k ; # Z eX    LXLXPX    ",
"                            t a Q $X} B B B B 9 % . . ; # X o 8 G ^ S k l '.                ",
"                            +.<.2. .` ` ` <.` a - - O . O _ ( [.XX XH M Z                   ",
"                            =.Y.Y.=.i +.-.;.*.i i i t y ` dX7X                              ",
"                            $.U.E.#.t t O.@.t e u X.+.2.dX2.a                               ",
"                            i =.>.*.y 7 s p - o - r j dXsXq .                               ",
"                            w i *.<.' ' [ ' 9 $ O = a ` ( D l                               ",
"                            0 y s  .$X$X{ T B 9 B W W Y V _.).                              ",
"                            ' U Y { 4X#XT 9 0 R { #X#X} W L K F                             ",
"                            ' W } #X{ R 0 0 R { { } { } E 5 v /.~.                          ",
"                            B W { { ' T Y R [ R 0 9 0 B = o 8 (.`.F                         ",
"                              U T T W ' W Y 7 % o . O & O . $ N [.`.F                       ",
"                                a E [ [ U % X + X . o O o . o < ^ |./.F                     ",
"                                  [ [ U % @ k c 3 < * o . . o , A `.|./.F                   ",
"                                  L L z x m S c 3 3 8 @ . . X # k S `.|./.G                 ",
"                                  D F ~.|.].m @ @ x m 3 . . . . # k A `.|./.F               ",
"                                S ~.XX:X;XH : . # m S c # . . . . @ 3 S `.].(.F             ",
"                                K +XyX<X~.> . X k S S m , @ . . . . @ 3 A `.]./.H           ",
"                                %XCXAX_.> . . # m F   n v , # . . . . @ 3 A /.|..X          ",
"                              %XgXgX&Xv X . @ 3 C       v v 3 # . . . . @ 3 S .X;X          ",
"                            P 9XCX%Xb > . . x H               , X . . . . @ c `..X          ",
"                            K +X*XK 1 > . # G .X                , @ . . . . : A ).          ",
"                            %X{.~.C 3 # @ 3 ].:X                (.A @ . . . . k S           ",
"                          &XgX*XF M > X ; A |.                  >X X3 . . . X k S           ",
"                        A 0XuX*XM > X . ; b                     .X`.).G n 3 3 b             ",
"                        m XXqX;Xc . . . : c                   ).> 3 .X<X.XH C               ",
"                        C XX1X-Xc . . . x ).                (.3 . : |.:X|.H                 ",
"                        /.;X;X).> . . 3 ^ OX              (.3 . X n ].'.F                   ",
"                      /.:X:X).3 . . > (.OX              `.3 . X n |.                        ",
"                    `.:X1X;XC + . . x .X              (.8 . . 3 `.                          ",
"                  F ;X1X;XH 3 X . o n               (.3 . X > m                             ",
"                  F OX;XG : . . X c `.            ^ 3 . X m F                               ",
"                  ~.`.G x 3 > @ 3 `.OX          .Xm . . c ].|.                              ",
"                  ;XK 3 b '. XH S ].            |.x . # H .X.X                              ",
"                yXtXV # F OXXX).H             ].n . X m |..X                                ",
"              wXZXdXh 3 H ).n c             ;X^ : . o G .X                                  ",
"            yXZXdXh N G S x ,                 '.k . o G OX                                  ",
"          1XrXsX` n S F c ,                     k . o ).:X                                  ",
"        1X;XP 0 / oXC : ,                       @ . @ |.qX                                  ",
"      yXtX( ; l /.H : .                           . # |.qXqX                                ",
"    qXuXdXa 1 Z n # .                               X S OX>X>X                              ",
"    <X%X_ V C x # .                                   # 3 c n                               ",
"    rXN + F F X .                                       . .                                 ",
"    gXa + F ^ @                                                                             ",
"    9Xq X ( rX                                                                              ",
"1X<X[., h hX                                                                                ",
";XoXZ ] hXJXHXwX                                                                            ",
"H l 8 7XHXHXtX,X;X                                                                          ",
"3 + $ }.yXeX{.A b                                                                           ",
"4 @ . k ~.F 3 @ X                                                                           ",
"    . . X . . . .                                                                           ",
"    . . . . . . .                                                                           ",
"    . . . . . . .                                                                           "
};
