/* XPM */
static char *luke_160[] = {
/* columns rows colors chars-per-pixel */
"104 71 254 2 ",
"   c None",
".  c #010101",
"X  c #02040B",
"o  c #0B070A",
"O  c #160707",
"+  c #000512",
"@  c #030914",
"#  c #020C1B",
"$  c #030719",
"%  c #190D16",
"&  c #14131A",
"*  c #250A05",
"=  c #381701",
"-  c #2C1310",
";  c #352316",
":  c #010C23",
">  c #020A29",
",  c #031124",
"<  c #03142B",
"1  c #08162B",
"2  c #181929",
"3  c #011533",
"4  c #091A34",
"5  c #021C3D",
"6  c #091E3C",
"7  c #021935",
"8  c #171B38",
"9  c #0A0B2F",
"0  c #271A27",
"q  c #2F1D31",
"w  c #04213F",
"e  c #18223D",
"r  c #28252D",
"t  c #2D2533",
"y  c #372638",
"u  c #383637",
"i  c #302E2D",
"p  c #491802",
"a  c #51260B",
"s  c #672807",
"d  c #773609",
"f  c #723613",
"g  c #492E34",
"h  c #61302E",
"j  c #77452C",
"k  c #4F4139",
"l  c #021B46",
"z  c #061B50",
"x  c #02234C",
"c  c #072447",
"v  c #172847",
"b  c #012453",
"n  c #012A5B",
"m  c #032957",
"M  c #04325D",
"N  c #173559",
"B  c #372847",
"V  c #292E55",
"C  c #2D3250",
"Z  c #012A66",
"A  c #033364",
"S  c #02336C",
"D  c #063669",
"F  c #023B74",
"G  c #023877",
"H  c #0D336F",
"J  c #31325C",
"K  c #482C47",
"L  c #49324C",
"P  c #493454",
"I  c #553958",
"U  c #543348",
"Y  c #5B3C5C",
"T  c #394855",
"R  c #02417C",
"E  c #314A6E",
"W  c #4D4A52",
"Q  c #6C5654",
"!  c #4B526C",
"~  c #6A4873",
"^  c #5D656E",
"/  c #787572",
"(  c #726B5F",
")  c #8B3B0C",
"_  c #A83F06",
"`  c #894518",
"'  c #924F14",
"]  c #A8561B",
"[  c #BB5213",
"{  c #9A552A",
"}  c #92502F",
"|  c #A75929",
" . c #AA5E33",
".. c #B66736",
"X. c #B1702F",
"o. c #9F6A18",
"O. c #CE6D34",
"+. c #C55E1D",
"@. c #AA6D4C",
"#. c #8F6452",
"$. c #CB7B4A",
"%. c #018D38",
"&. c #049438",
"*. c #0D9D38",
"=. c #069736",
"-. c #0C9E34",
";. c #0AA52B",
":. c #18B928",
">. c #0FA038",
",. c #0DA533",
"<. c #12A438",
"1. c #15AA38",
"2. c #19AD38",
"3. c #15A835",
"4. c #1CB338",
"5. c #1CB235",
"6. c #0FB723",
"7. c #23BA34",
"8. c #21B638",
"9. c #23BA38",
"0. c #25B837",
"q. c #20B530",
"w. c #13BF17",
"e. c #1AC817",
"r. c #28D51B",
"t. c #24CF1B",
"y. c #37E91A",
"u. c #33EA14",
"i. c #1CC325",
"p. c #28CA28",
"a. c #3CDC2D",
"s. c #36D629",
"d. c #2BC235",
"f. c #2EC636",
"g. c #34CC35",
"h. c #33C836",
"j. c #37D135",
"k. c #3AD334",
"l. c #3AD535",
"z. c #30D328",
"x. c #3BE325",
"c. c #46F91D",
"v. c #40EF1E",
"b. c #42DE31",
"n. c #42ED23",
"m. c #45E82B",
"M. c #49F525",
"N. c #52FA2B",
"B. c #57FA32",
"V. c #58F735",
"C. c #4DE737",
"Z. c #61FD3C",
"A. c #51D749",
"S. c #5AE547",
"D. c #6AFB49",
"F. c #74FA55",
"G. c #6CEA58",
"H. c #76E967",
"J. c #7DF466",
"K. c #79DC73",
"L. c #B78A2A",
"P. c #C69737",
"I. c #C38638",
"U. c #D1AC3B",
"Y. c #9F8B78",
"T. c #D08C4A",
"R. c #E78B51",
"E. c #D4AC4D",
"W. c #F1996B",
"Q. c #FBAB7A",
"!. c #DEA05F",
"~. c #84FB68",
"^. c #94FD79",
"/. c #89F275",
"(. c #003A84",
"). c #003F95",
"_. c #0030A5",
"`. c #034282",
"'. c #02468B",
"]. c #034D93",
"[. c #034594",
"{. c #03519C",
"}. c #165090",
"|. c #275489",
" X c #2C6499",
".X c #0049A2",
"XX c #0456A7",
"oX c #015BB4",
"OX c #1257B6",
"+X c #0262BB",
"@X c #1565B5",
"#X c #3371B1",
"$X c #285AA0",
"%X c #74538A",
"&X c #516B8B",
"*X c #76748F",
"=X c #025BC7",
"-X c #0366C7",
";X c #066CD3",
":X c #0572DB",
">X c #1373D3",
",X c #2E77C9",
"<X c #0679E8",
"1X c #0179F4",
"2X c #8D748B",
"3X c #6F8198",
"4X c #4982B9",
"5X c #7493B3",
"6X c #3987D1",
"7X c #0783FC",
"8X c #1486F7",
"9X c #2C8EEF",
"0X c #3EA0FC",
"qX c #4DA8F9",
"wX c #67A9EB",
"eX c #5A99D8",
"rX c #97928B",
"tX c #AC9A90",
"yX c #8898AD",
"uX c #96A5B2",
"iX c #B3B1B1",
"pX c #BFAF94",
"aX c #C8B197",
"sX c #9BF986",
"dX c #95EC89",
"fX c #A8FA96",
"gX c #A9FE93",
"hX c #B4FCA2",
"jX c #B9FAAA",
"kX c #BBF4B1",
"lX c #C4FAB7",
"zX c #E3CBB2",
"xX c #93B4D1",
"cX c #ADB5C6",
"vX c #8FBAE5",
"bX c #C9BFCA",
"nX c #9CC6EB",
"mX c #ADCEEA",
"MX c #BAC6D0",
"NX c #CFD0D4",
"BX c #D3FCC7",
"VX c #DCF8D7",
"CX c #CCF6C5",
"ZX c #E2FBDC",
"AX c #ECE5D9",
"SX c #CEE3F3",
"DX c #EAF9E5",
"FX c #F4FAED",
"GX c #F6F9F5",
"HX c #F8FBF6",
"JX c #FAF8FA",
"KX c #F0F7F0",
"LX c #EFEBED",
"PX c #C6DAEB",
/* pixels */
"                                                                                                                                                                          @...I.E.zXPXNXNXzXE.o.`               ",
"                                                                                                                                                                          I.I.I.E.aXpXtXtXaXE.L.o.              ",
"                                                                                                                                                                          U.P.X.$.T.L.{ } ..P.U.P.'             ",
"                                                                                                                                                                          T.I.| | X.X.o.` ) ..E.U.o.            ",
"                                                                                                                                                                          O.| f s ` X.P.X.] X.T.P.X.            ",
"                                                                                                                                                                          ' ) p p s  .T.P.L.P.T.$.I.X.          ",
"                                                                                                                                                                          }  .` f }  .{ { L.P.T.T.E.P.'         ",
"                                                                                                                                                                          Q !.R.T.!.T.` a s { T.E.E.P.'         ",
"                                                                                                                                                                        3 Q W.Q.Q.W.$.{ s p s { T.E.P.'         ",
"                                                                                                                                                                    m Z n g ..W.Q.T... .| ) s f | T.P.'         ",
"                                                                                                                                                                  c {.;XXXC ' O.R.$.| { ..| ) s f  .X.'         ",
"                                                                                                                                                                < A -X1X-X! | +.O...| | } j a = a h } `         ",
"                                                                                                                                                              4 c G oXoX[.W | ] ) ) |  .h O o % B Y Q           ",
"                                                                                                                                                            w A S A F (.n i a a * * f } ; . X 9 P *X            ",
"                                                                                                                                                          6 F +X].5 5 n l , X . . . a d = . 9 B ~               ",
"                                                                                                                                                        w A -X7X].@ + c v q 9 . . = d d * @ P ~ 2XNXAX          ",
"                                                                                                                                                      4 c ].<X:XF + @ B I P 0 o = ` | f ; B %X%X%X3X*Xu         ",
"                                                                                                                                                      4 b {.oXF 5 : 2 I ~ K O = ' O.} g J ~ %X! V N t o O       ",
"                                                                                                                                                    6 c n `.A , . @ y ~ ~ q O s $.W.#.8 z J K 8 x ! ^ N 7 8     ",
"                                                                                                                                                  6 6 b G n , . . o B I K 2 2 j R.Q.#.o > 8 o + N 5XnX6X(.l     ",
"                                                                                                                                                  4 6 Z S 3 . . . 1 B U g H }.Q O.R.j o 8 B o X A 4XqX9XoXx     ",
"                                                                                                                                                  c A F x X . X 1 v P K J =X<X^ _ _ a 2 B g O X b '.-X1XoXx     ",
"                                                                                                                                                4 S ].S # . X < V P U C }.1X8X^ d = 0 B t % . . 3 n [.oX].c     ",
"                                                                                                                                                R '.F < . X , c J I g v XX1X<X#XT & 0 P q X + $ < c G '.F w     ",
"                                                                                                                                                oXF , . X <     J U g v '.oX-X:XXXe q U C c N N m n S G n 5     ",
"                                                                                                                                                `.c . . < c     C I g t m A F [.G 1 ; K V E yX5X}.G Z b x x     ",
"                                                                                                                                                6 , X @ 7 c     C I K y v 8 < 4 , . * B H #XnXvX@XG l # 7 S     ",
"                                                                                                                                                4 4 < @ @ <     C P y y I P 0 0 % o o 6 `.>X0X6X].n : . 7 ].    ",
"                                                                                                                                                6 c c $ . :     V L q t ~ ~ I y % . X 5 F oX1X=XG l 1 7 S       ",
"                                                                                                2.<.<.<.<.<.>.*.=.=.=.*.*.*.=.                  6 Z G 5 . @     C P t t I ~ ~ U & . X 3 n '.oX.Xn , 6 R         ",
"                                                                =.=.*.1.4.4.4.4.4.4.4.4.4.4.4.4.2.1.1.1.1.1.1.1.<.<.<.<.<.<.1.q.                5 (.=X}.; p     U I B t t K I U t # $ > 3 n (.S , . 1 ].        ",
"                                                              1.*.=.>.2.9.9.9.9.9.9.9.9.9.9.9.9.9.9.9.9.9.9.9.9.7.:.:.:.:.i.p.k.A.              l (.@X&X{ ]     j Y B & o o * g q 8 v T t 5 b 3 . . w ].        ",
"                                        <.>.*.>.*.*.*.*.<.4.4.1.1.<.1.0.f.j.l.j.j.j.g.g.g.j.j.j.j.l.l.l.l.l.l.j.a.x.x.z.z.y.v.G.kX              l v W } O.R.R.] j K 9 . . . O - 0 K 2XiX^ 6 3 + . 7 ].          ",
"                                      2.1.<.<.<.<.>.<.2.0.d.d.d.d.d.d.h.l.m.M.n.n.n.n.n.n.n.n.n.n.n.n.n.n.n.y.y.N.~.^././.~.^.BXJX              ; a ' [ O.W.R.] a % $ & u T H S E 2XbXmX4XS l . . S             ",
"                >.<.>.>.<.>.*.*.*.>.1.4.4.4.4.4.2.2.0.0.j.a.a.a.a.a.a.a.m.V.Z.V.V.V.B.B.B.B.B.B.B.B.B.B.V.V.N.M.F.lXHXHXFXHXJXHXGX              f ` +.O.R.R.O.d * X B 2XbXvX>X=X,XxXvX9X-X'.l X + F             ",
"            *.>.<.<.<.<.<.<.<.<.<.<.4.0.f.g.g.f.f.f.g.l.m.M.M.M.M.M.y.u.V.sXlXjXjXhXhXhXhXhXhXhXhXhXhXhXhXhXhXfXlXHXJXJXJXJXZXfXdX              ! Q $.W.zXzX@.= * ^ cXLXJXnXOX_.OX6X#X.X(.n : > A               ",
"          <.<.<.1.4.0.9.0.0.9.4.4.0.0.j.b.m.m.m.m.m.x.x.V.D.D.D.D.D.Z.V.^.DXJXJXJXJXJXJXJXJXHXHXJXJXJXJXJXJXHXHXJXJXJXJXJXBXJ.M.x.              [.E #.tXNXSXyXW / AXLXzXiX&XG G }. X XE v o . 3 |.              ",
"        <.1.1.2.8.d.g.l.l.l.j.j.j.j.l.b.m.M.M.M.M.M.u.M.~.BXZXVXBXBXBXBXZXJXJXJXJXJXJXJXJXJXJXJXJXJXJXJXJXJXJXJXJXJXJXJXlXG.x.y.t.              n b E E E 6XqXxXAXKXrXg 0 A XX4XuXiXcXuXW * p a k @.O.)         ",
"      *.<.0.9.d.p.a.n.n.m.m.m.m.m.n.y.m.F.^.^.^.^.^.~.^.CXJXJXJXJXJXJXJXJXJXJXJXJXJXJXJXJXJXJXJXJXJXJXJXJXJXJXJXJXJXJXBXG.r.r.j.d.            OX! W M # + [.9XxXaXY.0 . > }.wXSXLXPXmXxX&X! @.] s f f a         ",
"    *.<.4.d.g.a.m.N.N.N.N.N.N.N.N.M.c.D.jXDXKXDXDXDXZXDXHXJXJXJXJXJXJXJXJXJXGXGXGXJXGXGXGXGXGXJXJXJXJXJXJXJXJXJXJXJXBXJ.x.p.f.f.9.          oX,XuXrXi . . G {.C i - . : [.qXSXFXSXwX#X|.OXeXMXY.g * * O         ",
"*.*.<.7.h.l.s.M.F.hXhXfXfXfXfXfXfXgXgXjXGXJXJXJXJXJXJXJXJXJXJXJXJXJXJXJXJXJXJXJXJXGXGXGXJXJXJXJXJXJXJXJXJXJXJXDXjXfXJ.m.z.7.0.9.            z E 3X/ - . + b x $ . . . > XX9XxXAXmX6XZ > G >XwXeX}.3 O 0 q       ",
">.<.9.l.C.x.y.D.lXJXJXJXJXJXJXJXJXJXJXJXJXJXJXJXJXJXJXJXJXJXJXJXJXJXJXJXJXJXJXJXGXGXGXGXJXJXJXJXJXJXJXJXJXJXFXsXN.x.b.b.d.2.2.              . X 2 v c x b m x 3 > @ . + n [.#XxXnX#Xl . : n F XX;X].C I I t     ",
"1.7.l.C.N.c.D.lXJXJXJXJXJXJXJXJXJXJXJXJXJXJXJXJXJXJXJXGXJXJXJXJXJXJXJXJXJXJXJXGXJXJXGXGXJXJXJXJXJXJXJXJXJXFXfXN.y.r.k.g.2.*.                  X + b XX-XXX].F c 6 1 . . < Z '.#X6X}.3 . . X + b oX:X@XE I I y 0 ",
"4.d.b.V.V.F.lXJXJXJXJXJXJXJXJXJXJXJXJXJXJXJXJXJXJXJXJXGXJXJXJXJXJXJXJXJXJXJXJXGXJXJXJXGXJXJXJXJXJXJXFXDXVXsXN.n.a.g.h.0.<.                    6 M XX<X<XoX{.].F F M < X @ 5 Z [..XG < . . . . X b -X-XN U ~ I q ",
"4.d.b.N.F.lXJXJXJXJXJXGXGXGXGXGXJXGXJXGXJXJXJXJXGXGXGXGXJXGXGXGXJXJXJXJXJXJXGXGXJXJXJXJXJXJXJXJXJXJXjXF.V.C.m.k.f.9.9.4.                    7 m XX<X:XXXF m A ].oXXXM # . @ l S G l + . . . . . # S F w U ~ I q ",
"4.d.b.M.~.ZXJXJXJXJXGXGXGXGXGXJXJXJXJXGXJXJXJXJXGXJXGXGXJXGXGXGXGXGXJXJXJXJXGXGXJXJXJXGXJXJXJXJXJXjXD.u.u.a.d.8.2.<.1.                      1 n +X:XXXG x # < F XX{.F 5 . . 6 b 3 + . . . . . . . # , 2 U ~ U 0 ",
"2.d.b.c.~.ZXJXJXJXJXJXJXGXGXJXJXJXJXGXGXJXJXGXJXJXJXJXJXJXJXGXGXGXGXJXJXJXGXGXGXJXJXJXJXJXJXJXHXjXD.y.x.a.d.<.*.=.=.                        1 m {.oXF Z x # X , 6 x A x X . < x c r u C , . . . . . . % y P y 0 ",
"<.7.b.c.J.VXJXJXJXJXJXJXJXJXJXJXJXJXGXGXGXJXJXJXJXJXJXJXJXJXGXGXGXGXJXJXJXJXGXJXJXJXJXJXJXBXdXK.G.m.p.8.0.<.=.                              4 b ].XXF n x 3 @ . . @ l 5 X . + n  XyXbXuXC . . . . . . % q t q 0 ",
"*.8.b.c.~.ZXJXJXJXJXJXJXGXGXGXJXGXGXGXGXGXJXJXJXGXGXGXGXJXJXJXJXJXJXJXJXGXJXJXJXJXJXGXVXkXH.t.w.p.g.2.=.=.=.                                4 x `..X(.v r 2 < : , , , @ . @ 5 Z |.uXbXiX/ i o . . . . 2 2 0 & & ",
"*.2.b.c.~.ZXJXJXJXJXJXJXGXGXGXGXGXGXGXGXJXJXJXJXGXGXGXGXJXJXJXJXJXJXJXJXJXJXJXJXJXZXdXG.A.d.6.;.;.<.*.=.                                    4 c S (.S i p * : l n x # . . n XXS 2 u k Q rXrXi . . . @ c         ",
"*.8.b.c.~.VXJXJXJXJXJXJXJXJXGXJXJXJXJXJXJXJXJXJXJXJXGXGXJXJXJXJXJXJXJXJXJXJXKXCXlXdXm.e.6.,.=.=.*.=.%.                                            b 3 * = O X < 5 7 : @ , ].:X]., . . & *X5XE # @ # 5           ",
"*.8.b.c.~.ZXJXJXHXHXJXJXJXJXJXJXJXJXJXJXJXJXJXJXJXJXJXJXJXJXJXJXJXJXJXJXJXJXjXS.x.b.g.:.;.=.      =.                                              x # . o . . @ # # 5 b n '.+X-XA X . < XX@XG z z n             ",
"=.2.l.M.~.ZXJXJXJXJXJXJXJXJXJXJXJXJXJXJXJXJXJXJXJXJXGXGXJXJXJXJXJXJXJXJXJXlXV.u.t.i.2.>.%.                                                        `.A 7 + . # m             oX<XXX, . 5 .X.XZ                   ",
"*.<.d.m.F.lXJXJXJXJXJXJXJXJXJXJXJXGXJXJXJXJXJXJXJXJXGXGXJXJXJXJXDXVXKXGXkXA.r.p.7.1.=.=.                                                          -X-X`., . , R               7X-Xc . < `.$X!                   ",
"=.*.2.l.M.F.jXGXJXJXJXJXGXGXGXGXGXGXGXGXJXJXJXJXJXJXJXJXJXJXJXDXdXS.G.J.A.:.;.1.1.*.=.                                                            7X7XXX1 . . 1 `.-X          7X<X].1 X B *XiX                  ",
"  =.1.h.x.c.^.GXJXJXGXGXGXGXGXGXGXGXGXGXJXJXJXJXGXJXJXJXJXJXGXdXx.u.u.x.i.=.%.=.*.                                                                  7X;XF # . . , F XX          7X:XA . * W yX                  ",
"    =.d.n.c.^.GXJXJXJXJXJXJXJXJXJXJXJXJXJXHXJXJXJXJXJXJXJXDXdXm.u.x.x.p.,.=.%.%.                                                                      7X;XF # . . < `.          7X1XG . . 2  X                  ",
"    *.0.a.N.sXHXJXJXJXJXJXJXJXJXJXJXJXJXJXJXJXJXJXJXJXkXfX/.b.t.p.j.h.0.*.%.%.                                                                          7X;XF @ . + S           7X1XG . O P 5X                  ",
"    *.4.s.M.sXJXJXJXJXJXJXGXJXJXJXJXJXGXJXJXJXJXKXVXjXS.r.z.f.7.2.4.1.*.=.%.                                                                              7X;XD @ . w XX        qXqX#Xu ; ~ yX                  ",
"    <.2.p.x.dXJXJXJXJXJXGXGXJXGXJXJXJXJXJXJXJXCX/.H.S.s.e.:.1.<.<.*.=.=.=.                                                                                  7X;XD @ . m {.      PXSXPXtXg 8 |.                  ",
"      <.:.s.G.lXHXJXJXJXJXJXGXJXJXJXJXJXJXJXVXH.u.u.k.g.7.1.*.=.                                                                                              7X:XF @ + n [.    MXpXtXrX( T  X                  ",
"      *.<.7.a.F.BXJXJXJXJXJXJXJXJXJXJXJXJXVXH.y.y.s.f.7.2.*.=.                                                                                                  7X;XA . . m oX   Xi O i / iXNX                  ",
"      =.=.<.e.m.hXJXJXJXJXJXJXJXJXJXZXlXfXH.a.r.f.9.2.<.*.=.                                                                                                    <X;XA . . , F   G z > X u tXAX                  ",
"        %.=.;.g.dXGXJXHXGXHXHXHXJXFXdXb.x.a.f.7.1.>.*.*.=.                                                                                                      +X{.w . . # 3   n '.G < X i cXKX                ",
"          %.=.8.A./././././.J.H.K.K.A.t.e.:.2.*.=.=.=.                                                                                                          oX{.b , , #       A m # . $ ,XnXAX              ",
"            =.,.:.:.p.p.p.p.e.:.6.6.q.7.1.,.=.%.                                                                                                              +X:X;X'.c 1 @       1 c 1 # : G 6XvX              ",
"              =.=.;.;.;.;.;.;.;.;.;.<.<.=.=.%.                                                                                                              oX+X<X<X].4 X           F ].M $ $ `.9X              ",
"                                                                                                                                                            F `.].`.c X               -XF . . n 1X              ",
"                                                                                                                                                              w , X .                   M . . b -X              ",
"                                                                                                                                                                                          . . , m               ",
"                                                                                                                                                                                          . . . .               "
};
