/* XPM */
static char *luke_20[] = {
/* columns rows colors chars-per-pixel */
"54 100 248 2 ",
"   c None",
".  c #000001",
"X  c #01050C",
"o  c #07070A",
"O  c #16080A",
"+  c #000612",
"@  c #010A14",
"#  c #010C1B",
"$  c #040418",
"%  c #160C15",
"&  c #1B151B",
"*  c #0C1017",
"=  c #281519",
"-  c #2F100B",
";  c #152C0F",
":  c #342419",
">  c #000B24",
",  c #01142C",
"<  c #041427",
"1  c #01073A",
"2  c #031A35",
"3  c #021D3C",
"4  c #041637",
"5  c #18152D",
"6  c #261925",
"7  c #2D1536",
"8  c #0E2E37",
"9  c #362638",
"0  c #2E2B31",
"q  c #531900",
"w  c #592404",
"e  c #4A2713",
"r  c #652906",
"t  c #78360A",
"y  c #6F3509",
"u  c #470F35",
"i  c #4D2C37",
"p  c #007817",
"a  c #135335",
"s  c #0D6B34",
"d  c #226A39",
"f  c #72472C",
"g  c #5D4A2B",
"h  c #001D45",
"j  c #021649",
"k  c #07154C",
"l  c #2E1A44",
"z  c #01234B",
"x  c #052445",
"c  c #022453",
"v  c #012B5C",
"b  c #022857",
"n  c #103052",
"m  c #272748",
"M  c #392946",
"N  c #2F2F54",
"B  c #002D64",
"V  c #002D6B",
"C  c #00246A",
"Z  c #033265",
"A  c #01336B",
"S  c #08376B",
"D  c #013373",
"F  c #023A79",
"G  c #002C72",
"H  c #283368",
"J  c #431A4D",
"K  c #432B49",
"L  c #48324D",
"P  c #4A3657",
"I  c #553A5B",
"U  c #532F50",
"Y  c #6A395B",
"T  c #583965",
"R  c #493868",
"E  c #653A6A",
"W  c #02417B",
"Q  c #174176",
"!  c #2E4973",
"~  c #275E54",
"^  c #5D4168",
"/  c #445B79",
"(  c #654369",
")  c #694978",
"_  c #744979",
"`  c #714D74",
"'  c #4E6577",
"]  c #746D75",
"[  c #5F5050",
"{  c #853E15",
"}  c #90360B",
"|  c #884617",
" . c #974B1B",
".. c #8F5413",
"X. c #996618",
"o. c #984A24",
"O. c #9C5629",
"+. c #94542E",
"@. c #A6592A",
"#. c #A75A33",
"$. c #B4552E",
"%. c #916932",
"&. c #B4673B",
"*. c #BA7939",
"=. c #AB6F27",
"-. c #C76C38",
";. c #8F5A44",
":. c #B97045",
">. c #84737A",
",. c #9E6149",
"<. c #C9754A",
"1. c #009819",
"2. c #008D1A",
"3. c #04A819",
"4. c #09B41A",
"5. c #09B210",
"6. c #008D2C",
"7. c #008727",
"8. c #009B24",
"9. c #01922C",
"0. c #039929",
"q. c #008634",
"w. c #008B33",
"e. c #018C39",
"r. c #008538",
"t. c #049239",
"y. c #089935",
"u. c #2E8837",
"i. c #09A429",
"p. c #12A92D",
"a. c #19B429",
"s. c #14A735",
"d. c #14B230",
"f. c #23BA2A",
"g. c #26BB37",
"h. c #28AD3C",
"j. c #48AF2F",
"k. c #14C614",
"l. c #23CD1A",
"z. c #2CE11C",
"x. c #26C428",
"c. c #38C938",
"v. c #2FCE2E",
"b. c #42D238",
"n. c #52E938",
"m. c #57F33A",
"M. c #69FF3E",
"N. c #31B748",
"B. c #58A864",
"V. c #3ACA43",
"C. c #45C847",
"Z. c #53D44D",
"A. c #58D756",
"S. c #4CCC50",
"D. c #63D95A",
"F. c #55E94C",
"G. c #6DF453",
"H. c #6AD767",
"J. c #78DA78",
"K. c #6ED671",
"L. c #77EE69",
"P. c #59CE63",
"I. c #B6872B",
"U. c #A6A53C",
"Y. c #C79236",
"T. c #D1AC38",
"R. c #BA8F56",
"E. c #CD8A4F",
"W. c #D5AB46",
"Q. c #D9936A",
"!. c #E5966F",
"~. c #F2A47D",
"^. c #CAAD6C",
"/. c #81DE7D",
"(. c #8AF077",
"). c #8BC844",
"_. c #023B82",
"`. c #003791",
"'. c #633A84",
"]. c #02468A",
"[. c #034996",
"{. c #0F4C92",
"}. c #305589",
"|. c #014DA8",
" X c #0355A9",
".X c #0459B2",
"XX c #1E53A2",
"oX c #0E63B7",
"OX c #2F6EA8",
"+X c #34629A",
"@X c #75548A",
"#X c #506F96",
"$X c #62739E",
"%X c #005EC3",
"&X c #0266CA",
"*X c #026AD6",
"=X c #1071D0",
"-X c #237BCF",
";X c #0274E8",
":X c #0676EA",
">X c #845B92",
",X c #8E718A",
"<X c #835BAC",
"1X c #638498",
"2X c #6D8BB7",
"3X c #5A94A4",
"4X c #7EE68C",
"5X c #2E94F4",
"6X c #1B88EB",
"7X c #4D8ECF",
"8X c #6D9BC8",
"9X c #5294E3",
"0X c #6CA5DE",
"qX c #8B99A9",
"wX c #969799",
"eX c #C2BAAC",
"rX c #E6B08A",
"tX c #87DD88",
"yX c #92E58B",
"uX c #89E888",
"iX c #A4EB9B",
"pX c #A9F699",
"aX c #9ED6B1",
"sX c #A9E7A7",
"dX c #B8EAB8",
"fX c #B5F0AE",
"gX c #9DE1A3",
"hX c #C2EEBE",
"jX c #C6FAB6",
"kX c #E2D9A5",
"lX c #8FAECE",
"zX c #ABB3CC",
"xX c #87B9E9",
"cX c #B1B2EC",
"vX c #9F9CD0",
"bX c #83C4F7",
"nX c #CCD3D6",
"mX c #C8EFC6",
"MX c #CAF3C5",
"NX c #D6FACC",
"BX c #D9F7D3",
"VX c #E2F7DE",
"CX c #F1E2CC",
"ZX c #E8FAE5",
"AX c #F3FEEB",
"SX c #FEFEFC",
"DX c #F9FCF5",
"FX c #C9CFF8",
/* pixels */
"                                                                                              w.8.C.fXVXyXc.",
"                                                                                              9.h.tXhXsXD.c.",
"                                                                                            6.3.K.ZXmXZ.x.f.",
"                                                                                            7.5.yXDXmXc.3.0.",
"                                                                                          w.y.C.iXBXiXc.8.q.",
"                                                                                        w.8.V.sXBXtXb.x.y.w.",
"                                                                                        q.1.Z.BXAXH.5.p.y.e.",
"                                                                                        6.p.H.BXNXA.3.6.    ",
"                                                                                      9.p.H.hXfXH.b.p.w.    ",
"                                                                                    q.2.f.fXDXyXx.a.s.t.    ",
"                                                                                    q.2.c.MXDXtXa.8.t.      ",
"                                                                                    9.N.tXdXgXA.d.9.r.      ",
"                                                                                  7.3.K.ZXdXV.4.p.t.e.      ",
"                                                                                  7.3.J.DXdXg.1.9.t.        ",
"                                                                                w.0.N.gXMXtXg.8.w.          ",
"                                                                              w.2.N.dXBXK.c.d.y.w.          ",
"                                                                              q.1.S.AXZXC.3.i.t.            ",
"                                                                              6.p.K.BXmXC.8.w.              ",
"                                                                            9.d.K.dXgXP.g.i.w.              ",
"                                                                          q.2.x.fXDX4X4.i.y.e.              ",
"                                ..Y.T.T.T.Y.*.:.                          w.1.c.MXDX/.4.8.w.                ",
"                              | I.T.W.E.*.X.O.#.&.                        0.N.tXmXiXD.f.9.q.                ",
"                            | I.T.W.E.#.| t { O.&.:.                    7.3.tXAXdXC.x.g.9.e.                ",
"                          ..I.T.W.E.#.{ y t o.*.Y.Y.                    2.4.iXDXfXx.3.y.t.                  ",
"                        %.R.T.T.*.#.o.| t | #.E.W.W.                  6.p.S.sXBXyXx.8.w.                    ",
"                      ,.eXkXW.Y.#.o.o.@. .t | @.*.<.                6.1.C.dXmXJ.c.g.y.e.                    ",
"                    ..R.kXCXkXQ.I.=.=.@.{ w q r {  .                7.3.D.ZXZXZ.5.p.y.                      ",
"                  | I.T.W.eXeX^.Y.I.X.| | y w r |  .                9.a./.VXMXZ.3.w.                        ",
"                   .*.Y.X.f [ %.X.t y | :.:.+.#.E.Q.              8.h.J.mXsXH.c.p.w.                        ",
"                  | @.#. .t r r q q r O.Q.~.!.!.rXrX            q.1.V.NXDXJ.l.a.s.e.                        ",
"                    | o.#.#. .r q r | &.<.!.~.!.E.<.            q.1.C.VXDXJ.4.8.e.                          ",
"                      | ;.;.o.t { @.#.@.&.E.!.<.o.}             0.C.yXhXiXA.a.w.r.                          ",
"                            w r | #.O. .@.<.<.@.} }           2.a.yXZXfXb.x.d.t.e.                          ",
"                          = - - - : f @.@. . . .$.$.          2.f.iXDXfXx.3.9.t.                            ",
"                        T U e O . . f <.O.q w O.<.          9.p.P.fXNX(.x.8.q.                              ",
"                      K ) >X` M X o ;.Q.f . 6             7.i.P.mXmXK.b.g.y.r.                              ",
"                    O O 9 _ >X@Xl 6 ,.<.e . 5             7.3.J.DXBXC.4.p.y.                                ",
"                  9 = O o M @X>XR M ;.&.e . 5 J           9.f.tXZXhXC.i.w.                                  ",
"                c ! >.] n h H @XR 0 ;.E.f O 5 l m       8.c.tXhXpXL.c.p.w.                                  ",
"              [.F }.lXbX-XD m ^ N % +.!.] n 7 u 9 s   6.3.n.NXDX(.l.a.y.e.                                  ",
"            [.&X[.F OX5X6X[.N ( N O y <.2X.XH u 9 s   9.4.F.BXAX(.k.0.w.                                    ",
"            F ].Z c F %X*X{.I ` P O q +.#X&XH u 9 s   d.S.iXhXpXG.x.9.q.                                    ",
"            3 @ @ , b [. XQ I ` P % - [ OX XH u 7 a 3.l.pXDXfXn.z.g.9.r.                                    ",
"            h $ + , c F _.n P ` I 6 n OX=X{.N u 7 a 3.z.jXDXpXz.4.y.e.                                      ",
"            Q / ! Z V B z 5 P _ Y 0 F &X%XF m 9 0 s d.D.jXNX(.v.8.r.                                        ",
"            $XzX8X[.D 4 X % P _ ( 0 3 V V m 7 0 p 3.A.MXMX(.n.v.y.r.                                        ",
"            7XxX9X].h X . % K ( I 9 % 5 m J J a 2.k.H.DXBXn.k.d.y.                                          ",
"            =X6X=Xv X . . % L ^ I 9 7 K E E M a 8.x.yXZXjXF.4.w.                                            ",
"            .X*X|.b @ . . & I ) I 9 K E E P a 7.g.tXmXpXG.n.p.q.                                            ",
"            ].[.F v Z x X = ( @XP 0 L _ T 8 p 5.V.BXAXL.z.x.s.e.                                            ",
"            v v , x  X Xz 6 Y ( 9 6 L _ T 8 p 5.A.VXAXL.k.0.e.                                              ",
"            @ @ . < .X;X[.m U i = O K E U P B.uXfXDXAXL.4.6.                                                ",
"            . . . X F =X-X+XR M 9 9 I T l ` nXDXDXSX                                                        ",
"            5 , @ . @ / lX0XXX{.#XwX,XK 7 ^ vXFXcXcX                                                        ",
"            m Z z + . g wX8X_.V +XwX>.9 : ~ }.#X$X                                                          ",
"            * v [.A @ & ! H @ + 8 I U 0 j.h.~ K                                                             ",
"            . 2 .X*XA 4 j @ . 2 ! @X'.' Z.F.' Y                                                             ",
"            X @ ].;X|.V j X X D 9XcXvX3XF.F.1X>.:.-.                                                        ",
"            @ . x [..X[.h X . 4 +XvXaXL.G.S.' B.).U.-.                                                      ",
"            # . . x OXOXS h , . & B.L.M.n.u.x s C.U.<.                                                      ",
"            & . . 0 qXqX}.[.`.> ; j.G.m.u.x 1 3 a %.                                                        ",
"            9 % % U ,X] n V C $ ; S.G.F.d j 1 1 5                                                           ",
"            K M T _ ( 9 o X X . l 1XuXG.d k k c                                                             ",
"            M L ) >X) K 6 O O 7 '.2X4Xm.d n }.#X                                                            ",
"            9 K ^ ) ( I L L I @X<X$XB.j.a H $XlX                                                            ",
"              P T P 9 9 K ( @X>X@X) i ; 3 Q 2X                                                              ",
"                I L 9 9 K I ^ ^ I i = $ j S                                                                 ",
"                      P P 9 6 & = = 5 c G F                                                                 ",
"                        H 2 . . . . x |.&X|.G                                                               ",
"                          , . . . . 3 oX5X7X].c                                                             ",
"                              . . . + ! lXlX}.c                                                             ",
"                                . . . N 8X8X! h                                                             ",
":X9XnXCXlX-X0X                  . . . b =X-X[.B                                                             ",
"].OX7X1XN n $XnXxXoX          . . . X c  X;X*X[.A                                                           ",
"@ v |._.> . i wX$X{..X      3 X . . . 2 ].*X;X XV v                                                         ",
"+ z |._.> . O : & 2 ].&X&X].B 3 @ . . @ F &X=X[.B B                                                         ",
"Z F W z < @ @ . . . 3 Z A ].[.F c < . . h OX2X#XZ B                                                         ",
"[.F 3 X @ c z @ X . . . @ A .X].c , X . @ ' zX2XS b                                                         ",
"z 2 X . @     b z , . . . A .XZ @ X . . + ! 0X7XA b                                                         ",
". . . .         F B , . . 3 W b @ . . . X F :X*XA v                                                         ",
". . . .             B , . . 3 W Z @ . . . v *X&XD v                                                         ",
". . .                 v , @ z [.].< . . . 2 [. XD B                                                         ",
"                        A v v A z X . . . > v F A B                                                         ",
"                        F v , @ X . @ 3 h x c B A                                                           ",
"                        z < X . . . 2 D F D B B                                                             ",
"                      z @ X 2 z , .                                                                         ",
"                      b X @ Z _.h                                                                           ",
"                      v + < D _.                                                                            ",
"                    z 2 < x D D                                                                             ",
"                  Z @ . 2 Z A                                                                               ",
"                  W @ . z D                                                                                 ",
"                A z @ @ c V                                                                                 ",
"              A , X 2 v A A                                                                                 ",
"              ].@ X W .X X                                                                                  ",
"              W X @ |.:X;X                                                                                  ",
"            .X, . X A  X&X;X6X                                                                              ",
"            [.. . . @ 3 v ]. X X                                                                            ",
"            [.. . . . . . < x x                                                                             ",
"            |.X . . . . . @ , 2                                                                             ",
"            |.X . . . . . @ 3 x                                                                             "
};
