/* XPM */
static char *luke_63[] = {
/* columns rows colors chars-per-pixel */
"50 139 256 2 ",
"   c None",
".  c #010001",
"X  c #01040B",
"o  c #0A0509",
"O  c #140606",
"+  c #010914",
"@  c #020D1B",
"#  c #020617",
"$  c #160B16",
"%  c #171218",
"&  c #05111E",
"*  c #250C02",
"=  c #25151B",
"-  c #32110A",
";  c #3A2414",
":  c #000926",
">  c #031225",
",  c #04152C",
"<  c #06172D",
"1  c #191726",
"2  c #021633",
"3  c #031B35",
"4  c #001439",
"5  c #021C3B",
"6  c #091B37",
"7  c #171B37",
"8  c #010F34",
"9  c #261A27",
"0  c #291C36",
"q  c #162236",
"w  c #34262A",
"e  c #2A2437",
"r  c #372538",
"t  c #282529",
"y  c #4C1802",
"u  c #4F2812",
"i  c #682702",
"p  c #7A370A",
"a  c #7B3B14",
"s  c #6D2F0C",
"d  c #512F32",
"f  c #66311A",
"g  c #7B4834",
"h  c #5E482B",
"j  c #011D42",
"k  c #011B4A",
"l  c #001C55",
"z  c #01234C",
"x  c #052446",
"c  c #022453",
"v  c #032954",
"b  c #042959",
"n  c #102A50",
"m  c #392945",
"M  c #2D314E",
"N  c #001570",
"B  c #012C66",
"V  c #023264",
"C  c #04356A",
"Z  c #043B73",
"A  c #023978",
"S  c #083073",
"D  c #2D3B6C",
"F  c #321E44",
"G  c #452C46",
"H  c #48324D",
"J  c #4B3555",
"K  c #543A5C",
"L  c #553957",
"P  c #512F4A",
"I  c #583D63",
"U  c #4A3B62",
"Y  c #623F64",
"T  c #10437A",
"R  c #2F4E76",
"E  c #384454",
"W  c #4C5054",
"Q  c #6C534D",
"!  c #706458",
"~  c #514A6B",
"^  c #68456B",
"/  c #684A74",
"(  c #734D7A",
")  c #736D69",
"_  c #54667B",
"`  c #873908",
"'  c #884318",
"]  c #8F4613",
"[  c #AB551C",
"{  c #9A661A",
"}  c #974C25",
"|  c #9D5629",
" . c #915A2D",
".. c #A55629",
"X. c #AC572D",
"o. c #B06F32",
"O. c #A6742C",
"+. c #C9723A",
"@. c #E3722B",
"#. c #B26F4B",
"$. c #887869",
"%. c #8F624F",
"&. c #C97547",
"*. c #00B519",
"=. c #008C35",
"-. c #008939",
";. c #008735",
":. c #049F32",
">. c #009434",
",. c #03AD2D",
"<. c #02A82C",
"1. c #09B42D",
"2. c #07B82A",
"3. c #04A132",
"4. c #05AC30",
"5. c #18B334",
"6. c #10B432",
"7. c #20B439",
"8. c #0FCD18",
"9. c #2AEF15",
"0. c #0CC427",
"q. c #15CC28",
"w. c #18D326",
"e. c #17D723",
"r. c #17C030",
"t. c #35DC35",
"y. c #25D130",
"u. c #28E426",
"i. c #36E92A",
"p. c #3AF729",
"a. c #39F628",
"s. c #39E333",
"d. c #1EE31C",
"f. c #45F82B",
"g. c #55FF29",
"h. c #47EC34",
"j. c #4BF632",
"k. c #58F636",
"l. c #51EF38",
"z. c #68FC3A",
"x. c #74FD3B",
"c. c #68FE2C",
"v. c #37CD46",
"b. c #67FB42",
"n. c #75FF41",
"m. c #79FD46",
"M. c #7FFD50",
"N. c #68F259",
"B. c #C89235",
"V. c #CEAA38",
"C. c #E1AB3A",
"Z. c #AD907F",
"A. c #D09244",
"S. c #D4AF44",
"D. c #F5A876",
"F. c #E79C5E",
"G. c #87FE4A",
"H. c #96FE54",
"J. c #8EFD51",
"K. c #A7FD5A",
"L. c #B1FF5B",
"P. c #93FB68",
"I. c #AAFD66",
"U. c #B9FD67",
"Y. c #BCFB71",
"T. c #C0FB71",
"R. c #C4FB7B",
"E. c #CAFB73",
"W. c #DBC062",
"Q. c #BF8938",
"!. c #013A86",
"~. c #003C97",
"^. c #024484",
"/. c #01438A",
"(. c #03488C",
"). c #174A88",
"_. c #014B94",
"`. c #014C9B",
"'. c #064A96",
"]. c #05519B",
"[. c #1C569C",
"{. c #255292",
"}. c #386996",
"|. c #0254A3",
" X c #0358AA",
".X c #035AB5",
"XX c #0B53A9",
"oX c #0661BB",
"OX c #1763B2",
"+X c #246CB7",
"@X c #3671B0",
"#X c #545690",
"$X c #775384",
"%X c #4A6A8B",
"&X c #6E798D",
"*X c #4379B2",
"=X c #005DCF",
"-X c #0167C7",
";X c #036DD5",
":X c #0F72D6",
">X c #2B79C9",
",X c #0778E8",
"<X c #077DF3",
"1X c #036CE7",
"2X c #4F78DF",
"3X c #6D92B8",
"4X c #6894AE",
"5X c #0385FA",
"6X c #0F81ED",
"7X c #3599F4",
"8X c #3BA0F7",
"9X c #4F8FCD",
"0X c #5096E7",
"qX c #6DB1EE",
"wX c #5EA6E4",
"eX c #58A3DF",
"rX c #938D8C",
"tX c #9093A7",
"yX c #8FA3B3",
"uX c #B3AFAF",
"iX c #B29C9F",
"pX c #D4BA97",
"aX c #B2FA89",
"sX c #A8EBA9",
"dX c #D6FC88",
"fX c #DAF996",
"gX c #CAF887",
"hX c #EFFE8D",
"jX c #D5F9A8",
"kX c #CBFAB4",
"lX c #E8FAAA",
"zX c #EBF8B9",
"xX c #D3CBAE",
"cX c #94AFC9",
"vX c #A1B9D0",
"bX c #93C6F1",
"nX c #B2D2F0",
"mX c #B3C7D5",
"MX c #D3D1CE",
"NX c #D9FBC7",
"BX c #CFFBC1",
"VX c #F2F8C2",
"CX c #F1F8CA",
"ZX c #E9F8D8",
"AX c #F6F8DA",
"SX c #F1EECE",
"DX c #D2E7F4",
"FX c #F9F7EA",
"GX c #FBF8F5",
"HX c #F8F8F8",
"JX c #FEF8FF",
"KX c #FBF8FC",
"LX c #F8F8FA",
"PX c #EBEDE9",
"IX c #DBD8D9",
"UX c #C2B8C4",
/* pixels */
"                                                            >.-.-.=.=.;.;.;.=.=.=.4.                ",
"                                                          ,.,.6.5.5.5.5.5.5.5.5.5.1.                ",
"                                                      >.:.1.q.i.k.k.k.k.k.k.k.z.z.t.1.>.-.          ",
"                                                    ,.1.y.s.f.f.g.x.J.K.L.K.L.U.U.G.t.,.>.-.        ",
"                                                  ,.0.u.j.k.x.m.P.aXfXlXlXlXlXzXzXgXn.w.<.=.=.      ",
"                                                ,.0.u.f.g.x.I.jXZXPXFXFXGXFXFXGXGXlXH.i.8.,.>.=.    ",
"                                              1.0.u.j.n.x.K.lXGXJXJXJXJXJXJXJXJXJXCXY.x.h.y.4.=.    ",
"                                            ,.2.e.j.G.K.Y.jXFXJXJXJXJXJXJXJXJXJXJXFXfXU.J.z.y.=.    ",
"                                            ,.0.u.m.I.gXzXFXJXJXJXJXJXHXHXHXJXJXJXGXAXgXK.n.t.:.=.-.",
"                                            ,.0.h.J.T.fXAXJXJXJXHXHXGXGXHXHXHXHXJXJXJXjXK.x.s.1.>.-.",
"                                            ,.y.b.H.T.fXAXJXJXJXHXHXHXHXHXHXHXHXJXJXJXVXU.x.p.q.:.-.",
"                                            ,.s.J.Y.E.fXAXJXJXJXHXHXHXHXHXHXHXHXJXJXJXVXT.n.p.w.4.-.",
"                                            ,.t.M.T.E.fXZXJXJXJXJXHXHXHXHXHXHXJXJXJXJXVXT.n.p.w.4.-.",
"                                            ,.q.l.J.K.gXZXJXJXJXJXJXHXHXHXHXHXJXJXJXJXVXY.n.p.w.4.-.",
"                                            ,.0.u.j.z.P.NXJXJXJXJXJXHXHXHXHXJXJXHXJXJXVXT.n.p.w.4.-.",
"                                              0.u.f.g.m.kXJXJXJXHXHXHXHXHXHXHXHXHXJXJXVXT.n.p.w.4.-.",
"                                              2.q.i.a.b.kXJXJXJXHXHXHXHXHXHXHXHXHXJXJXVXT.n.p.w.:.-.",
"                                              4.1.w.9.z.kXJXJXJXHXHXHXHXHXHXHXHXHXJXJXVXT.n.p.w.:.-.",
"                                              4.,.0.d.b.kXJXJXJXHXHXJXHXHXJXJXGXHXJXJXVXT.n.p.w.:.-.",
"                                              4.1.0.9.b.kXJXJXJXJXJXJXHXHXJXJXGXHXJXJXVXT.n.p.w.:.-.",
"                                              4.1.0.9.b.BXJXJXJXHXHXHXHXHXHXHXHXHXJXJXVXY.n.p.w.:.-.",
"                                                1.q.9.b.BXJXJXJXHXHXHXHXHXHXHXHXHXJXJXVXT.n.p.w.:.-.",
"                                                  0.9.n.BXJXJXJXHXHXHXGXJXJXHXHXHXJXJXVXT.n.p.w.:.-.",
"                                                  1.d.n.BXJXJXJXHXHXHXGXJXJXHXHXHXJXJXVXT.n.p.w.4.-.",
"                                                  <.8.k.NXJXJXJXHXHXHXHXHXHXHXHXJXJXJXVXT.n.p.w.4.-.",
"                                                  <.*.t.kXJXJXJXHXHXHXHXHXHXHXHXJXJXJXVXT.n.p.w.:.-.",
"                                                  ,.*.w.N.NXAXFXGXJXJXHXHXHXJXJXJXJXJXVXT.n.p.w.:.-.",
"                                                  ,.2.e.j.J.gXCXGXJXJXHXHXHXJXJXJXJXJXVXT.n.p.w.:.-.",
"                                                    2.e.9.c.U.VXJXJXJXHXHXHXHXHXJXJXJXVXT.n.p.w.:.-.",
"                                                      q.i.x.Y.CXJXJXJXHXHXHXHXHXJXJXJXVXT.n.p.w.:.-.",
"                                                      2.t.n.I.zXJXJXJXJXHXHXHXHXJXJXJXVXT.n.p.w.:.-.",
"                                                      4.y.j.m.aXAXJXJXJXJXHXHXHXJXJXJXVXT.n.p.w.:.-.",
"                                                      ,.0.u.j.J.fXFXJXJXJXJXHXHXJXJXJXVXY.n.p.w.:.-.",
"                                                      ,.2.e.f.G.dXAXJXJXHXHXHXHXJXJXJXVXY.n.p.w.:.-.",
"                                                      ,.0.d.f.J.dXAXJXJXHXHXHXHXJXJXJXVXT.n.p.w.4.-.",
"                                                      ,.0.u.j.J.dXAXJXJXHXHXHXJXJXJXJXVXT.n.p.w.4.-.",
"                                                      ,.0.u.j.G.gXAXJXJXHXHXHXJXJXJXJXVXT.n.p.w.4.-.",
"                                                        0.u.j.m.Y.ZXJXJXHXHXHXJXJXJXJXVXT.n.p.w.4.-.",
"                                                        1.q.k.m.I.ZXJXJXHXGXJXJXJXJXJXVXT.n.p.w.4.-.",
"                                                        ,.6.s.x.K.NXJXJXJXJXJXJXJXJXJXVXT.n.p.w.4.-.",
"                                                        4.1.y.f.n.aXCXGXJXJXJXJXJXJXJXVXY.n.p.w.4.-.",
"                                                          ,.0.u.j.K.lXFXJXJXJXJXJXJXJXVXY.n.p.w.4.-.",
"                                                            q.u.j.K.lXFXJXJXJXJXJXJXJXVXT.n.p.w.:.-.",
"                                                            w.u.k.I.lXGXJXJXJXJXJXJXJXVXY.n.p.w.:.-.",
"                                                            w.u.k.K.lXFXJXJXJXJXJXJXJXVXY.n.p.w.:.-.",
"                                                            2.y.k.J.fXFXJXJXJXJXJXJXJXVXY.n.p.w.:.-.",
"                                                            ,.y.k.x.aXFXJXJXJXJXJXJXJXVXT.n.p.w.:.-.",
"                                                            4.y.k.g.P.ZXJXJXJXJXJXJXJXVXT.n.p.w.:.-.",
"                                                            ,.r.i.f.m.jXFXJXJXJXJXJXJXVXT.n.p.w.:.-.",
"                                                            4.2.e.a.x.R.VXGXJXJXJXJXJXVXY.n.p.w.4.-.",
"                                                            4.2.w.a.x.Y.zXGXJXJXJXJXJXzXY.n.p.w.4.-.",
"                                                              2.e.p.m.T.VXJXJXJXJXJXJXVXT.n.p.w.4.-.",
"                                                                w.p.m.T.VXJXJXJXJXJXJXzXY.n.p.w.4.-.",
"                                                                0.i.x.U.zXJXJXJXJXJXJXlXI.x.i.q.:.  ",
"                                                                1.t.z.J.jXJXJXJXJXJXJXjXH.x.s.1.    ",
"                                                                4.t.k.x.aXHXJXJXJXJXJXjXJ.x.t.1.    ",
"                                                                4.y.f.g.P.ZXJXJXJXJXJXjXJ.k.y.4.    ",
"                                                                1.q.u.f.J.fXFXJXJXJXJXjXG.i.2.>.    ",
"                                                                  0.d.f.G.dXAXJXJXGXCXdXG.u.,.=.    ",
"                                                                  2.e.f.G.dXAXJXJXAXfXT.m.u.,.=.    ",
"                                                                  1.q.h.J.fXFXJXJXAXdXK.z.u.1.>.    ",
"                                                                  <.2.h.H.dXCXFXFXVXR.m.p.e.4.=.    ",
"                                                                  4.6.h.G.U.fXlXlXfXI.l.e.2.4.      ",
"                                                                    1.y.h.G.T.hXhXdXK.t.2.,.        ",
"                                                                      *.w.b.Y.gXgXE.I.v.,.          ",
"                                                                        v.sX4X%X                    ",
"                                                                          mX2XN                     ",
"              p O.V.V.V.V.&.#.                                              0XN . .                 ",
"            a { B.V.A.Q.O.| | X.                                          LXnX*Xl :                 ",
"          p { V.S.A.o.| p p } o.#.                                      IXMXMXcX@X{.                ",
"        p { V.S.S.o.} p s ' o.B.B.                                  GXFXiXQ h ) cXbX                ",
"      g O.B.V.B.o.} ' p a | o.A.C.                                UXuXuX_ @ . = tXDX                ",
"    a Z.xXW.B.o.} } ..} p a | +.A.                              MX! w R OXA @ @ @X8X                ",
"p ' O.pXzXlXW.B.O.O.X.} s y i ] ..                        E MXSX$.% # S 1X5X|.!.=X1X                ",
"' { B.S.W.xXpXS.B.O.] ' p i i ` f                       4 R uXrXe : k !.-X<X<X<X,X{.                ",
"' ..B.O. .! %.O.{ p p | #.| X.#.Q c ~.-X-X-X.X/.c , @ 2 /.+X_ R A l 2 2 k Z 3XcXtXg `               ",
"' | o...p i s s i i ] A.D.D.D.D.%.7 b (._._.!.B z v C (.-X/.& z _.c . O . = #.D.F.[ `               ",
"      o.X.} p y y p ..&.F.D.pXF.g O + > x v j 2 B .X,X:X(.> . X 3 @ * y y y ..F.@.[ '               ",
"        &.%.u * * u d f g %.#.g - . . X x ~ ) R .X<X5X].> . . > 3 X O y i i ` ..X.[                 ",
"          m + . @ M M q 7 n M e q 3 , j ^.3XmXwX<X-XA > . X 3 ^.^.5 . O u a p i p '                 ",
"          7 + @ ~ tXtX}.S S R &X4XOX`.!./.9XqX8X.Xc X . . 5 ^.|./.b 4 4 M %.' i ; w                 ",
"        m m M ~ yXDXDXwX.X~.@XbXbX6X=X`./.XXoX/.2 . . . 3 ^.].A z c B S D / g u q                   ",
"      0 F Y rXuXqX0X8X7X.X!.OX0X7XXX!._._.A 4 X . . X 3 ^.|.Z x 6 x c v b M M q                     ",
"      e G ( tXcX}.!.`.|././.`._.B , @ v ^.v X . X 5 C /.].Z x                                       ",
"      e J ( #XR v k k j c A A 3 . . . @ B C 5 , z ^. X|.Z x                                         ",
"      e L ( M , 8 b c , + , x , X . . , ^.|.`.(.A C C Z v                                           ",
"      e K $XG . @ B b > . . @ c C b c b !.`.oX>X)., + 5                                             ",
"      e K $XP . . > > X . X 2 S `..X.X!.j 6 D #X#X7 +                                               ",
"        H ^ D 3 X . . . X z Z Z S (.@X&Xd - - P J q ,                                               ",
"          H )._.5 . . X v _.OXD 1 q $.D.+.s = 9 9 9 1                                               ",
"          r )..Xv . . 5 _.|.{.J $ * | F.@.Q T v 9 w r                                               ",
"          r R ].v X X v /.C M H 1 O ` @. .}.;X).r P K                                               ",
"          r M ~ J F x z 3 + 9 H 0 O i  .%X,X;XT G P I                                               ",
"            r P ^ / D , . . = J r O w %X6X<X.XD d P K                                               ",
"              G ^ $XU 1 . . % G d e ).:X,X-X`.n d P K                                               ",
"                K ( / e . . X = r m )._.!.A C x e H K                                               ",
"                H ^ $XJ o . . . 9 J m 1 , 6 n n M J K                                               ",
"                r J $X/ 9 . . . % G d = $ r U U M J K                                               ",
"                  H / $XK $ . . % e r = % H $X^ H J K                                               ",
"                    K $X/ 9 . o 9 9 9 % = K ( J w G K                                               ",
"                    m ^ / H 9 9 9 % % 9 H ^ J 9 = G I                                               ",
"                      m I ^ K m 9 % O r / / r % 9 H I                                               ",
"                        J / / r % O O m / ^ 9 % r J I                                               ",
"                          H H 9 $ o O r ( ^ 9 $ 0 J L                                               ",
"                          1 r G G 9 % 0 I / K H M m d                                               ",
"          y | +.' i i y * W rXiXiX&X{.B 7 Q uXUX&Xt y `                                             ",
"          - a | s i ' d M 4XMXDXPXDXqXOXk W MXPXtXq O s                                             ",
"          O - u - f Z.yX+X@X9XqXnXHXDXqXOXT W                                                       ",
"        % 1 $ o 2 %XcXqX:XS N .XqXPXPXqX:XB . . 4 j 5 4 2 2 ,                                       ",
"      % e K G 7 _.:X+X[.A > : !.wXIXcX+X_.4 . X , j j j j 5 5 6                                     ",
"    1 r L Y ~ [.;X.Xl : + . X B 9X9X+X!.l + . + , 6 v Z ^.(.'.C 6                                   ",
"    9 ^ ^ G T ;X.Xz X . . . X z `. X!.b 2 X . < v b Z ]. X-X,X.Xb 6                                 ",
"    9 / ^ e V |.B X . . . . . 5 A !.B 2 X . , C |.|.^.Z A |.;X,X.XC 6                               ",
"    9 ^ ^ e , 5 @ . . . . . . X , c c > . X v _.oX XC , 5 C ].;X,X^.6                               ",
"    9 H K w o . . . . . . & 1 % @ j x @ . > C Z C v > . , b A  X-XZ 6                               ",
"    9 e r = O . . . . . . W tXrX%XT 4 . . 2 v 3 X . . @ j b B _. XC 6                               ",
"    % = 9 1 o . . . . O w rXIXIX3X).j + . @ , @ X X @ < 7 n C `.|.C 6                               ",
"          x , . . . . d rXrX) ) E n !.C + . X , z z 2 $ - w n /.^.b 6                               ",
"            c > X X @ &XcX~ . . . 3 oX-Xz X + 2 z z > . * - 1 b                                     ",
"              b c k c [.>XZ + . @ ^.-XoXA z j > + + X . O O . 2                                     ",
"                    l !..X!.> . x -X;X            z , . . + < C                                     ",
"                    D ).XXA + . C ,X              |.z . . z ].-X                                    ",
"                    uXtX#X7 X x .X5X          -X-XZ @ . . b ;X5X                                    ",
"                    mXtXP O @ _.<X          .X XC + . . , ].,X                                      ",
"                    9XR $ . 2 .X5X           XV X . . , ].,X                                        ",
"                    3X%X9 . , .X5X           X3 . . 3 ].,X                                          ",
"                    mXtXG = M >X7X        -X(.@ . , ].<X                                            ",
"                    9XR 0 Q yXnXnX      .X(.3 . > '.,X                                              ",
"                    +XR W $.iXpXxX    .X/.5 X , ].,X                                                ",
"                    vXmXiX! ; ; W   :X_.3 . > '.,X                                                  ",
"                    FXSXrX9 . # b   `.b X . 3 |.<X                                                  ",
"                  FXPXrXt . 2 A S   j , . . @ Z oX                                                  ",
"                SXDXqXT . . 2 Z       + @ @ > C  X                                                  ",
"                mXbX>Xl + @ 3 x       . > , v |.;X-X                                                ",
"                8X>Xb # , C T           X $ b -X<X-X X                                              ",
"                5X=X# . 3 ].              . , Z ].(.T                                               ",
"                6X X+ . &                   . X @ 3                                                 ",
"                Z z X .                                                                             ",
"                . . . .                                                                             "
};
