/* XPM */
static char *luke_100[] = {
/* columns rows colors chars-per-pixel */
"39 114 256 2 ",
"   c None",
".  c #010101",
"X  c #0A0303",
"o  c #01040A",
"O  c #0A0A0C",
"+  c #160908",
"@  c #020A14",
"#  c #020D1C",
"$  c #050715",
"%  c #150D16",
"&  c #09131A",
"*  c #1A131A",
"=  c #220C05",
"-  c #25171A",
";  c #2E1311",
":  c #010D25",
">  c #02142B",
",  c #061428",
"<  c #191728",
"1  c #021B35",
"2  c #051A37",
"3  c #191A33",
"4  c #0D0E30",
"5  c #271A27",
"6  c #341E29",
"7  c #2B162F",
"8  c #04203D",
"9  c #1A283A",
"0  c #362429",
"q  c #2A2336",
"w  c #34253C",
"e  c #38263A",
"r  c #2F262E",
"t  c #28231D",
"y  c #541A01",
"u  c #4B1201",
"i  c #5B2402",
"p  c #4E2819",
"a  c #783708",
"s  c #6A310D",
"d  c #482B35",
"f  c #6E231E",
"g  c #004A15",
"h  c #0E5530",
"j  c #0A6E31",
"k  c #305C22",
"l  c #714E2E",
"z  c #625729",
"x  c #031C42",
"c  c #030E54",
"v  c #012344",
"b  c #062549",
"n  c #022957",
"m  c #173459",
"M  c #102D4F",
"N  c #3D2B43",
"B  c #392845",
"V  c #2C304E",
"C  c #022D62",
"Z  c #022A66",
"A  c #01346C",
"S  c #043567",
"D  c #013A73",
"F  c #023878",
"G  c #103472",
"H  c #242061",
"J  c #422C47",
"K  c #46314D",
"L  c #4A3455",
"P  c #53395B",
"I  c #553558",
"U  c #51304F",
"Y  c #573E65",
"T  c #4E3B69",
"R  c #643A70",
"E  c #582B50",
"W  c #324B53",
"Q  c #236B48",
"!  c #134578",
"~  c #254976",
"^  c #324D6C",
"/  c #256A54",
"(  c #504D55",
")  c #5C4369",
"_  c #4D576A",
"`  c #64456B",
"'  c #6A4A78",
"]  c #714B7C",
"[  c #6C596C",
"{  c #536578",
"}  c #716A75",
"|  c #635658",
" . c #853D26",
".. c #8F4A16",
"X. c #884727",
"o. c #955328",
"O. c #AA5A29",
"+. c #AD592D",
"@. c #956B33",
"#. c #B66C32",
"$. c #A2571D",
"%. c #CA7138",
"&. c #D3612B",
"*. c #967257",
"=. c #AD7149",
"-. c #A06960",
";. c #CE744B",
":. c #008E0D",
">. c #008A2D",
",. c #008D25",
"<. c #009C23",
"1. c #009727",
"2. c #008A32",
"3. c #008C38",
"4. c #068739",
"5. c #039436",
"6. c #049A36",
"7. c #059938",
"8. c #199931",
"9. c #308F36",
"0. c #04A525",
"q. c #16B72C",
"w. c #04A638",
"e. c #17AB37",
"r. c #05B737",
"t. c #1AB635",
"y. c #0BB92A",
"u. c #26BA34",
"i. c #0BBD1C",
"p. c #49993B",
"a. c #27DF1C",
"s. c #3BF714",
"d. c #2FEE11",
"f. c #17CB2E",
"g. c #29C529",
"h. c #2DCB28",
"j. c #37DA29",
"k. c #2CC538",
"l. c #34CB3B",
"z. c #38D63A",
"x. c #25D930",
"c. c #37E528",
"v. c #39E133",
"b. c #19CD19",
"n. c #44FA1C",
"m. c #50FF1D",
"M. c #46D736",
"N. c #48F824",
"B. c #55FE29",
"V. c #49E837",
"C. c #53EC3B",
"Z. c #59F936",
"A. c #45EE2E",
"S. c #65FF39",
"D. c #268E45",
"F. c #1B9E47",
"G. c #4BB14E",
"H. c #61BB6D",
"J. c #449765",
"K. c #5BF246",
"L. c #69FB47",
"P. c #73FE49",
"I. c #79FD57",
"U. c #6AEF55",
"Y. c #7BF169",
"T. c #57D056",
"R. c #AD9537",
"E. c #C6A237",
"W. c #979179",
"Q. c #D28752",
"!. c #EA8C52",
"~. c #D69671",
"^. c #EF976A",
"/. c #F8AB73",
"(. c #84FF5D",
"). c #88FD69",
"_. c #89F973",
"`. c #92FC77",
"'. c #92FF6D",
"]. c #003B84",
"[. c #002E93",
"{. c #034587",
"}. c #034A97",
"|. c #02519B",
" X c #174E8E",
".X c #0155A4",
"XX c #0258AC",
"oX c #025CB5",
"OX c #0B52A6",
"+X c #0162BC",
"@X c #1A66AA",
"#X c #276BB2",
"$X c #1C6596",
"%X c #755285",
"&X c #705289",
"*X c #536D92",
"=X c #6D7C8F",
"-X c #4E76AD",
";X c #50589D",
":X c #0467C7",
">X c #046CD4",
",X c #0772DC",
"<X c #1372D1",
"1X c #0477EC",
"2X c #1C64C8",
"3X c #4073E4",
"4X c #855292",
"5X c #89728C",
"6X c #748CB0",
"7X c #73A09C",
"8X c #0984FB",
"9X c #1885F4",
"0X c #2C93F2",
"qX c #3197E9",
"wX c #6797CF",
"eX c #5CA5E9",
"rX c #63A6E3",
"tX c #40ADC6",
"yX c #908F95",
"uX c #8E95B1",
"iX c #ABA8AE",
"pX c #A59690",
"aX c #E7BB9A",
"sX c #9BFA85",
"dX c #84E582",
"fX c #A9F998",
"gX c #B2FE99",
"hX c #A7FE8D",
"jX c #B7EFAD",
"kX c #B1EEA7",
"lX c #B4F9A5",
"zX c #BAF8AA",
"xX c #B1EAAE",
"cX c #9FE1A7",
"vX c #C6FBB7",
"bX c #C9FBB8",
"nX c #E8CBAC",
"mX c #9B91CC",
"MX c #90B2CA",
"NX c #ACB9D1",
"BX c #91A1E9",
"VX c #92C6F4",
"CX c #ABCFE9",
"ZX c #CCF8C4",
"AX c #D7FBCB",
"SX c #DBF8D4",
"DX c #E4FCDA",
"FX c #EAF9E5",
"GX c #F1FBED",
"HX c #F6FAF4",
"JX c #FEF8FE",
"KX c #FDFAFD",
"LX c #F9FBF6",
"PX c #F1E7F6",
"IX c #D4D2DE",
"UX c #C8BDC0",
/* pixels */
"                    3.3.3.3.3.3.3.3.3.3.3.3.3.3.>.>.>.>.>.3.3.3.              ",
"                    5.7.7.5.5.5.5.5.5.5.5.5.5.5.1.1.1.1.5.5.7.5.              ",
"                  5.e.u.u.t.t.t.q.q.t.t.t.t.t.t.t.t.t.t.t.q.q.q.7.            ",
"                5.e.z.C.C.V.V.v.c.c.v.V.V.V.V.U.cXxXxXxXdXV.d.c.h.e.          ",
"              3.7.k.C.P.P.S.S.I._._.I.L.S.B.B.sXGXJXJXJXDXsX(.P.Z.j.q.7.5.    ",
"              3.7.k.C.P.S.Z.L.gXFXFXlXL.N.N.B.sXGXJXJXJXJXFXDXbX_.B.A.l.e.5.3.",
"              3.5.e.l.C.Z.B.L.bXJXJXZXL.s.N.N.`.FXLXLXJXJXJXJXJXAX`.S.V.t.7.3.",
"                3.5.e.z.Z.B.P.bXJXJXAXI.N.N.N.`.FXLXLXLXJXJXJXJXJXAX(.c.q.5.3.",
"                  3.6.l.Z.B.P.bXJXJXGXvXY.N.s.`.GXLXLXLXLXLXLXLXJXDX).a.q.5.3.",
"                  3.7.k.Z.S.P.fXFXJXJXJXfXN.s.sXHXLXLXLXLXLXLXLXJXAXI.a.q.5.3.",
"                    3.e.C.S.S.L.sXSXJXJXfXN.s.`.GXLXLXLXLXLXLXLXJXDXI.a.y.5.3.",
"                    3.7.l.K.Z.n.P.ZXJXJXsXs.s.P.zXGXLXLXLXLXLXLXJXGXlXU.q.1.3.",
"                    3.5.t.V.Z.B.I.AXJXJXfXC.N.n.L.zXLXLXLXLXLXLXJXJXHXkXg.<.3.",
"                    3.5.e.z.Z.B.).SXJXJXDXfXL.s.n.fXLXLXLXLXLXHXJXJXJXbXh.<.>.",
"                    3.5.w.l.V.Z.I.zXGXJXLXFX_.s.n.lXLXLXLXLXLXLXJXJXJXjXg.<.>.",
"                    3.3.5.e.k.V.S.I.lXJXJXFX_.s.N.zXLXLXLXLXLXLXJXJXJXjXg.<.3.",
"                      3.3.5.t.V.B.B._.HXJXSXI.d.n.lXLXJXJXJXJXJXJXJXJXjXg.<.3.",
"                        3.5.u.V.B.B.sXLXJXFX_.s.N.lXJXJXJXJXJXLXJXJXJXjXg.<.3.",
"                        3.7.u.C.S.S.hXLXJXJXZXY.Z.fXJXJXLXLXLXLXJXJXJXjXg.<.3.",
"                        3.5.t.z.Z.S.`.AXJXJXJXzXL.fXJXJXLXLXLXLXJXJXJXjXg.<.3.",
"                          3.7.t.z.Z.L.).ZXJXJXvXL.sXLXJXLXLXLXLXJXJXJXzXg.<.3.",
"                            3.w.k.C.N.Z.fXHXJXzXZ.L.bXHXLXLXLXLXJXJXJXjXg.<.3.",
"                            3.7.k.C.B.Z.lXHXJXZXL.s.U.AXLXLXLXLXJXJXJXzXh.<.3.",
"                            3.5.t.C.B.L.vXJXJXGXzXC.Z.zXLXLXLXLXJXJXJXzXh.0.3.",
"                            3.3.w.z.B.L.fXDXJXJXGX`.Z.zXLXLXLXLXJXJXJXzXj.0.3.",
"                                5.t.v.Z.P.sXFXJXHXsXZ.lXLXLXLXLXJXJXJXzXh.<.3.",
"                                  e.z.Z.B.P.ZXJXGX_.Z.fXLXLXLXLXJXJXJXzXg.<.3.",
"                                  9.x.A.B.I.SXJXGXsXL.zXLXLXLXLXJXJXJXzXg.<.3.",
"                                =.9.r.x.A.Y.DXJXHXZXlXSXLXLXLXLXJXJXJXjXg.<.3.",
"                              ;.=.9.7.r.c.I.vXHXJXLXLXLXLXLXLXLXJXJXJXjXg.<.3.",
"                            ;.Q.R.9.7.r.v.S.I.lXGXJXLXLXLXLXLXLXJXJXJXjXg.<.3.",
"                            %.#.@.p.D.e.v.B.m._.FXJXLXLXLXLXLXLXJXJXJXjXg.<.3.",
"                            E...a X.z F.x.N.m.`.GXLXLXLXLXLXHXHXJXJXJXzXg.<.3.",
"                            E.a u f z 4.r.c.B.hXHXLXLXLXLXJXHXHXJXJXJXzXg.<.3.",
"                            R.a u u k 2.r.f.N.`.AXJXLXLXLXLXHXHXJXJXJXzXg.<.3.",
"                            $.s u y k 3.r.f.C.S.`.AXLXLXLXLXLXHXJXJXJXzXg.<.3.",
"                            s i i a z p.F.t.v.N.Z.fXJXLXJXJXLXHXJXJXJXzXh.<.3.",
"                            y s a ..O.@.9.7.f.a.Z.lXJXLXJXJXJXHXJXJXJXzXj.0.3.",
"                            y a ..+.&.O.k >.r.a.Z.vXJXJXJXJXJXJXJXJXJXzXh.<.3.",
"                            y s ..+.+...z F.r.f.C.gXGXJXJXJXJXJXJXJXJXjXg.<.3.",
"                              u s ..O.+.Q.W.F.r.A.P.hXFXJXJXJXJXJXJXJXzXg.<.3.",
"                              ; y a ..%.;.*.Q w.x.n.L.ZXJXJXJXJXJXJXJXzXg.<.>.",
"                      J B q * ; u a O.;. .0 h w.f.d.L.AXJXJXJXJXJXJXJXzXg.<.3.",
"                    } 5X) q O + =  .!.^.f . g w.f.a.I.DXJXJXJXJXJXJXJXjXg.<.3.",
"              G V ) pXiX} w $ . + o.^.^.d X g 5.r.c.I.vXHXJXJXJXJXJXJXkXg.<.3.",
"            ~ 6XyX5X5X5X[ L 3 o ; =.~.l % . & h 6.z.S.(.zXGXJXJXJXJXJXkXg.<.3.",
"          ~ 6XNXuX&XR ] ` Y B + p ~.W.O . X - 9 j f.A.m.).DXJXJXJXJXJXkXg.<.3.",
"        ~ uXNXwX XM L ] %X' U p @.aXyXO . * J W 4.r.b.s._.FXJXJXJXJXJXkXg.<.3.",
"        ~ 6XeX9X].: 6 ' 4X%X` X.;.aXpXO . 7 U W 4.0.f.c.`.LXJXJXJXJXJXkXg.<.3.",
"        F OX<X>XS @ - ) ] &X&X-.!./.-.X . 5 U _ D.w.f.A.'.DXJXJXJXJXJXkXh.<.3.",
"      ].}.}.F n > , w U P ;X#X5X!./.=.X . 5 Y %X{ Q w.c.L.`.AXJXJXJXJXlXj.0.3.",
"    Z F ].C : . . 2 V d e  X:X} %.!.*.. . w ' 4X%X/ 7.x.n.B.gXLXJXJXJXlXj.0.3.",
"    C S b # . . @ 2 9 6 6 ].XX_ O.&.X.X $ L %X4XR / 5.y.a.N.hXHXJXJXJXlXj.0.3.",
"    =X*Xm o . > v 3 7 0 e G XX@X} +.a + 3 Y %X%X' ( Q 3.y.v.Y.vXGXJXJXlXj.0.3.",
"    NXrX! # 1 {.D q d d J m .X,X#X| i ; q Y ' %X] R V j w.f.A.I.bXJXJXlXj.0.>.",
"S #XeX-XM x }.+X    - d e M S }.{.V - - e P ` ) I J q h 7.t.a.Z.vXJXJXlXj.0.>.",
"S .X>XD @ n :X      = - e V V 2 # : : < d Y ` Y J 7 * h 7.t.a.L.bXJXJXlXj.0.3.",
"C }..Xb . C >X      + - K ` ) 5 . . o * e ) ' ' I 7 * j w.f.a.L.AXJXJXzXv.0.>.",
"x C D > . n :X      = 5 J ` ] P 5 . . % r K ` ' I 7 < j w.r.b.L.AXJXJXbXj.0.>.",
"b C n > # A :X      = - e L ` %XY * . % 5 w K L N 7 <     7.y.K.vXJXJXgXM.0.>.",
"oX}.F n A |.        = 5 N J P %X' < . % w e w q q 7 *     2.w.l.Y.gXhXI.V.e.3.",
"1XoXC F oX          = 6 K L L ) ) q % * w N w w e q -     j w.t.v.S.(.I.V.e.5.",
":X{.> n XX          = 6 L P L K L Y K 5 * r J P P e -       7.0.b.I.vXfXV.0.,.",
"XXC o # A           = 7 K P K w K %X` 5 O < e P Y N %       7.1.i.Y.LXZXl.:.:.",
"oXA @ . ,           - r L L w 5 B ` ) w q q 5 q J N -       5.,.:.H.FXSXT.e.8.",
"oXD @ . O           - r L I B 5 w L ) Y T N < $ 5 B B         j g _ IXHXZXxXcX",
"oXA @ # S             ; d ` 5X5X` N K ` ` U d 0 5 d `           M ;XIXJXJXPXPX",
"oXS @ b oX              5 [ UXIXiXK p f s s X.l 0 d =.          $X3XIXPXNXmXmX",
"+XF # > ].              & 0 *.pXyX} *.$.i u a a ; t  .        L.$X2XBXmX;X{ J.",
"XXS @ X %               2 X + * W yXaX;.p + ; ; + O -       S.V.Q ~ *X*XW 9.M.",
"W 0 ; s o.            ,Xn > Z F A { -.-.I N e 6 * < 4       9.Q 9.p.T.G.G.G.H.",
"....O.Q./.aX        }.}.b b |.oXD 2 5 K ' &XY J B B w       H W G.S.Z.M.M.H.7X",
"#.;.^.Q.Q./.nX    N n x @ # v b > o % w Y ) L K L K e       ;X*XU.S.9.h Q G.T.",
"+.;.~.#.a o.!.    N C n @ . X X X * 7 w N J J P ) P w       BXMX_.M.h c H Q 8.",
"..O.=.X.i s ..    V oXoXv + ; - - 7 N N w w J ) ' Y w       wX7XT.u.h H ;X^ W ",
"a ..+.X.y i       V <X1X{.V J e r N Y ) K w e P ` P w q     _ ^ j j ^ *X6XuXuX",
"..o.+.X.s         3 }.oXF V J w 5 J ] %X' K B J P L N w e   3 2 V *X-X-X-XIXLX",
"    ....a         , M n 1 < w * % e ' 4X%X` K N L L N w e   4 V yXCXeX}.~     ",
"      a ..        3 _ _ q % % O . 5 I ` ' ) N e N e w w e     V MXCXqX[.      ",
"                  m yXyXW # O X . % 5 7 7 7 5 - - - 5 w d       #X0X          ",
"                  M { { 9 @ % + % , & . . . X X . @ 3 w                       ",
"                  b ^ W < . + * 3 8 , . . . . . . # 8                         ",
"                  M =XyXW o . & b     . . . . . # 1 x                         ",
"                2 m =XyXV @ o >       , o . . 1 S n 1                         ",
"              8 n C 9 - X @ 1         n : . @ S |.{.b                         ",
"              b D F > . . # 2         F , . $ D oX+X}.n                       ",
"              b {.oXS o . # 2         S 1 o @ n :X0XqX~ 1                     ",
"              b .X,X}.# . @ 2           C 1 o x <XVXVX{ 1                     ",
"              b }.:X{.# . @ 2           ].n o :  XrXMX_ 1                     ",
"              b S F 2 . . @ 2           F n @ . b @X#X! 2                     ",
"              b n x o . o ,             C v o . , F ].C 2                     ",
"              , , # . . 1 b             b > o . @ 1 x 2 >                     ",
"              , @ . . > n C             b 1 o . . . . # >                     ",
"              D v , 2 S S                 b > > 2 q ( ( (                     ",
"              ,X}.C D }.                    b ].:XwXUXnXIX                    ",
"              ,X{.v D .X                    > F ,XwXuXMXVX                    ",
"              XXb @ C oX                    . v }.{.m @X8X                    ",
"              |.1 . A ,X                    . 1 {.A x }.1X                    ",
"              .X8 o {.8X                    . 8 {.S 2 }.8X                    ",
"              .Xv o {.8X                    . v }.n # }.8X                    ",
"              .Xv o D ,X                    # S }.v @ }.8X                    ",
"              .Xv . n XX                    F }..X8 @ }.8X                    ",
"              .Xn . 1 F                     .X:XXX2 @ |.8X                    ",
"              +XS : , b                     .X+XXX8 @ |.8X                    ",
"              +X{.n < *                     D }.|.1 @ {.8X                    ",
"            ,X! n n <                         ].F , o S >X                    ",
"          8X.X, # n                             n > : A oX                    ",
"        8X>Xn . # {.                            n F }.}..X                    ",
"      >X:XF @ . v +X                            F 2XeXeXqX                    ",
"8X1X:X.XF : . . S 1X                            XXwXIXPXVX0X                  ",
"XX}.S x # . . o A 8X                            :X*XW.iXVXVX                  ",
"x > o . . . . o S 8X                            |.b & m -XNX                  ",
"                                                1 o . @ b (                   ",
"                                                . . . . . .                   "
};
