/* XPM */
static char *luke_161[] = {
/* columns rows colors chars-per-pixel */
"104 74 254 2 ",
"   c None",
".  c #010001",
"X  c #01040B",
"o  c #0A0507",
"O  c #160807",
"+  c #020A15",
"@  c #020C1C",
"#  c #050715",
"$  c #190D14",
"%  c #04111E",
"&  c #1A141A",
"*  c #240A03",
"=  c #291607",
"-  c #30170F",
";  c #020C23",
":  c #020628",
">  c #031224",
",  c #03142C",
"<  c #09162A",
"1  c #040B32",
"2  c #031B3B",
"3  c #091D3B",
"4  c #051835",
"5  c #181A36",
"6  c #161426",
"7  c #281B29",
"8  c #311D2E",
"9  c #03203E",
"0  c #18243B",
"q  c #2A2328",
"w  c #372638",
"e  c #2D2836",
"r  c #342114",
"t  c #491B07",
"y  c #50260B",
"u  c #692A09",
"i  c #73360D",
"p  c #492E33",
"a  c #6D3929",
"s  c #75462C",
"d  c #57483D",
"f  c #021D43",
"g  c #021947",
"h  c #021D58",
"j  c #042145",
"k  c #03244C",
"l  c #092548",
"z  c #022553",
"x  c #012B5B",
"c  c #042856",
"v  c #143052",
"b  c #2A2849",
"n  c #392847",
"m  c #2A2E56",
"M  c #343552",
"N  c #022C63",
"B  c #012A69",
"V  c #043363",
"C  c #02346B",
"Z  c #03386C",
"A  c #013473",
"S  c #023A78",
"D  c #103674",
"F  c #2F3B65",
"G  c #001D6C",
"H  c #492D45",
"J  c #4A324B",
"K  c #4A3556",
"L  c #573958",
"P  c #533249",
"I  c #563E65",
"U  c #623F60",
"Y  c #2B4258",
"T  c #08437D",
"R  c #2D4C71",
"E  c #514E52",
"W  c #675257",
"Q  c #505666",
"!  c #6B4974",
"~  c #59687B",
"^  c #727374",
"/  c #776859",
"(  c #883A0B",
")  c #A23B04",
"_  c #8A4417",
"`  c #935014",
"'  c #9D651C",
"]  c #9A5628",
"[  c #924F2B",
"{  c #A65928",
"}  c #A95D35",
"|  c #B46736",
" . c #B56D2E",
".. c #A76214",
"X. c #CB6B32",
"o. c #C45917",
"O. c #926C53",
"+. c #956B56",
"@. c #C47844",
"#. c #CB7F56",
"$. c #E37940",
"%. c #009C2D",
"&. c #00982A",
"*. c #008A37",
"=. c #009234",
"-. c #009932",
";. c #02AB2C",
":. c #00A729",
">. c #02B32A",
",. c #06B728",
"<. c #04AC30",
"1. c #02A231",
"2. c #12AF34",
"3. c #24B63C",
"4. c #11CD1D",
"5. c #0CCA23",
"6. c #08C324",
"7. c #14C928",
"8. c #14D323",
"9. c #1AD724",
"0. c #1BDB24",
"q. c #1DCB30",
"w. c #26D92B",
"e. c #32CF34",
"r. c #2BE229",
"t. c #36EA29",
"y. c #3AE433",
"u. c #32F226",
"i. c #20DC20",
"p. c #43D73C",
"a. c #49F62E",
"s. c #46E738",
"d. c #57F538",
"f. c #4EED34",
"g. c #66FB37",
"h. c #6CF73C",
"j. c #39C741",
"k. c #67F544",
"l. c #74FB45",
"z. c #6FED4D",
"x. c #52DD46",
"c. c #B58728",
"v. c #C59737",
"b. c #C38638",
"n. c #D1AC3B",
"m. c #E7813C",
"M. c #83FF3C",
"N. c #988472",
"B. c #D08C4A",
"V. c #E78C52",
"C. c #D4AC4D",
"Z. c #E89469",
"A. c #FBA877",
"S. c #DFA160",
"D. c #87FD49",
"F. c #88F953",
"G. c #9BFC5D",
"H. c #95FB57",
"J. c #93FB4C",
"K. c #A9FE5B",
"L. c #BBFF5C",
"P. c #9CFA62",
"I. c #9BF662",
"U. c #8AFF6B",
"Y. c #A9FC66",
"T. c #B6FD66",
"R. c #B8FD76",
"E. c #ADFF7B",
"W. c #C8FE6E",
"Q. c #CBFD72",
"!. c #C8FC77",
"~. c #D2FD79",
"^. c #013B87",
"/. c #002E94",
"(. c #03448A",
"). c #044689",
"_. c #034C97",
"`. c #01529A",
"'. c #15518E",
"]. c #0356A8",
"[. c #025CB5",
"{. c #0E51A9",
"}. c #0262BC",
"|. c #1865B6",
" X c #1B63AD",
".X c #2F71B3",
"XX c #345E8E",
"oX c #725288",
"OX c #4F6B8A",
"+X c #737190",
"@X c #4170A5",
"#X c #015AC9",
"$X c #0365C7",
"%X c #036CD3",
"&X c #0572DB",
"*X c #1371CF",
"=X c #2D7ACC",
"-X c #0578E7",
";X c #037BF4",
":X c #0975E5",
">X c #217FE3",
",X c #886690",
"<X c #7696B7",
"1X c #5486B0",
"2X c #3385D4",
"3X c #0784FD",
"4X c #1A8EFB",
"5X c #2A8CF2",
"6X c #518EC9",
"7X c #4CA4F6",
"8X c #77B3EC",
"9X c #669DD5",
"0X c #72C0FF",
"qX c #938C90",
"wX c #AB988E",
"eX c #909DAE",
"rX c #B2B3B4",
"tX c #A8A4A7",
"yX c #CAB491",
"uX c #B3FC84",
"iX c #C7FB88",
"pX c #D6FB86",
"aX c #C5FB97",
"sX c #DAFA99",
"dX c #D2CDB7",
"fX c #D7FCB7",
"gX c #D4FAA8",
"hX c #E1F9A4",
"jX c #E5FAAC",
"kX c #E7F9B7",
"lX c #F1E6A6",
"zX c #91B5D4",
"xX c #99B8DD",
"cX c #93C4F0",
"vX c #B1D1EC",
"bX c #BEC9D0",
"nX c #D2CFD7",
"mX c #EADBCB",
"MX c #DEFACC",
"NX c #E9FAC9",
"BX c #F3FDCA",
"VX c #ECFAD6",
"CX c #F7FBD8",
"ZX c #E6E3DC",
"AX c #D0E5F6",
"SX c #F5F8E5",
"DX c #F5F8EA",
"FX c #FAF9ED",
"GX c #FFFAE3",
"HX c #FAF8F5",
"JX c #FAF8FA",
"KX c #F9F8F7",
"LX c #EFF0EA",
"PX c #D6DDE3",
/* pixels */
"                                                                                                                                                                          | | b.C.dXnXnXnXdXC..._               ",
"                                                                                                                                                                          b.b.b.C.yXyXwXwXyXC.c.'               ",
"                                                                                                                                                                          n.v. .@.B.c.[ [ | v.n.v.'             ",
"                                                                                                                                                                          B.b.{ {  .c..._ ( | C.n.'             ",
"                                                                                                                                                                          | ] i u _  .v. .'  .B.v. .            ",
"                                                                                                                                                                          ` ( t t u } @.v.c.v.B.@.v. .          ",
"                                                                                                                                                                          [ } _ i ] } ] ] c.v.B.B.C.v.`         ",
"                                                                                                                                                                          / Z.V.B.Z.B._ y u ] B.C.C.v.`         ",
"                                                                                                                                                                        1 W Z.A.A.Z.#.] u t u ] B.C.v.`         ",
"                                                                                                                                                                    c B N p | Z.A.B.| } { ( u u { B.v.`         ",
"                                                                                                                                                                  l ].%X].M ` X.V.@.{ ] } { ( u u {  .`         ",
"                                                                                                                                                                < V $X;X#XQ { o. .| { { [ a y - y a [ _         ",
"                                                                                                                                                              4 j A ].[.).E { ..i i { } a O o $ n I W           ",
"                                                                                                                                                            j V C V S S x 8 y t * = i [ t X X 6 K +X            ",
"                                                                                                                                                          9 ).}.).2 2 z f < X X X X y i = X 6 n !               ",
"                                                                                                                                                        9 C %X3X).+ # l b e 6 X o - ( i * $ K ! ,XnXnX          ",
"                                                                                                                                                      4 j _.-X%XC + # b I K 7 O t _ { a 8 J oXoXoX+X^ w         ",
"                                                                                                                                                      4 k `.].S 4 > 7 L ! n O - ` X.[ H M oXoXI v m e # o       ",
"                                                                                                                                                    3 j N S V @ X # w I ! 7 O u V.A.O.5 g M n 4 k ~ ^ Y 2 5     ",
"                                                                                                                                                  3 3 c C c @ X X o n L H 5 0 s V.A.O.o : 5 X X D <XcX2X).f     ",
"                                                                                                                                                  4 3 N C < X X X < M P p D {.W X.m.s o 5 n o X V .X7X4X[.k     ",
"                                                                                                                                                  l C S j X X X < b K H F $X:XQ ) ( y & n w O X k ^.#X;X[.k     ",
"                                                                                                                                                3 Z _.V + X X < m K H M _.;X4X~ u * & n w O X X 4 z ^.[._.k     ",
"                                                                                                                                                ).).Z > X X < l F L p v ].-X-X.XY & 7 P e # + ; < j A ).C 9     ",
"                                                                                                                                                [.S @ X X <     M P p 0 ).].}.&X].0 8 P b l Y R v x C C c 2     ",
"                                                                                                                                                S 9 X X < l     M L p 0 c x C ).C < r H m R eX<X'.A N k j z     ",
"                                                                                                                                                3 > # + < j     M L H w b 5 < < % X $ b D .XcXcX XA 2 @ 4 A     ",
"                                                                                                                                                4 3 < + # <     m P w w I K 7 7 $ o X 3 ).*X5X2X).z ; X 2 _.    ",
"                                                                                                                                                3 k k @ X ;     m J 8 w ! ! L w $ X X 4 S [.&X#XA f < 9 S       ",
"                                                                                                                                                3 N ^.j X #     M K w 8 K ! ! P & X X : z ^.].`.z ; 2 ).        ",
"                                                                                                                                                2 ^.$X'.y y     P L n 8 7 w P P e < ; < 4 z S x @ X , _.        ",
"                                                                                                                                                g A  X~ {  .    s L b # o o * t 8 5 M Q M 2 g < X X j `.        ",
"                                                                                                                                                4 0 d ] X.Z.V.{ a n 6 X X X O & 7 P qXrXOXj 4 X X 9 `.          ",
"                                                                                                                                                y u ` o.X.V.V.{ t # + 7 E Q ).^.R qXnXcX2XS f X X C             ",
"                                                                                                                                                s [ X.$.Z.Z.| u * # K tXnXcX:X#X=XzXzX>X#X^.f # ; D             ",
"                                                                                                  >.<.<.<.<.<.<.<.<.<.<.<.:.:.                  R W @.A.lXmX+.- q ^ nXKXFXxX{./.{..X X/.A g + 1 S               ",
"                                                                                                5.,.>.>.>.>.>.>.>.>.>.>.>.>.>.w.                ^.D / wXrXvX<XQ qXLXZXrXwXOXA A XX@X@XXX0 o o , R               ",
"                                                                =.*.;.7.0.0.8.8.8.8.9.9.9.9.9.9.8.7.7.7.5.5.5.5.5.5.5.5.5.7.r.f.d.              z k T Y m .X7XxXZXZX^ - $ C |.9XrXbXbXtXE = t y a } o.(         ",
"                                                              5.;.:.,.9.y.s.s.s.s.s.y.y.y.y.s.s.s.s.s.s.s.s.s.s.f.f.f.s.s.d.D.G.uX            |.~ Q v X X ^.5X<XwX/ = X 1  XcXLXLXvXxX<XXXOXN. .u u i -         ",
"                                        ,.;.;.;.;.;.;.;.7.0.0.0.9.8.0.y.l.H.Y.P.P.P.I.I.I.I.P.P.P.P.P.P.P.P.G.G.Y.!.R.Y.R.!.pXkXDX          /..XzXqXq X X C ).0 & O X : ].7XAXGXAX7X XD {.7XvXwXw O O o         ",
"                  <.<.<.<.<.<.<.1.<.6.8.5.6.6.6.6.6.5.w.s.z.z.z.k.k.k.l.G.W.~.~.Q.Q.Q.Q.Q.Q.Q.Q.Q.Q.Q.Q.Q.Q.Q.W.pXBXCXCXCXCXGXJXJX          ; v ~ Q & X @ k j + X X X ; `.=XzXZXvX2XG ; N |.6X6X{.f $ w n       ",
"                >.>.>.>.>.>.>.>.;.>.5.w.y.y.r.r.w.w.y.k.H.R.T.T.T.T.Y.K.R.sXjXjXhXhXhXhXhXhXhXhXhXhXhXhXhXhXsXsXkXFXJXJXJXJXJXFXVX          X X # 3 N V V V k 4 < @ X X g ^. X9XzX.Xf X # 2 z `.%X].F I I w     ",
"          <.<.<.,.7.5.5.5.5.5.5.6.5.w.f.l.F.F.F.l.l.F.H.R.~.pX~.~.~.Q.Q.sXVXFXFXDXDXDXDXDXDXDXDXDXDXDXDXDXSXSXSXDXJXJXJXJXJXBXsXuX            # @ N $X%X].`.T c l 4 X X > h ^. X.X'.4 X X X X 4 `.-X|.F L U H 7 ",
"        <.>.>.,.5.r.s.s.s.s.s.s.s.s.d.F.Y.W.W.T.T.T.T.T.iXkXNXkXkXkXkXkXNXJXJXJXJXJXJXJXJXJXJXJXJXJXJXJXJXJXJXJXJXJXJXJXHXkXiXK.D.            g D }.;X&X]._.).T ).Z 4 X # < x ^._.B ; X X X X X j [.[.v H ! L q ",
"      <.,.7.8.0.t.g.H.Y.Y.G.G.G.G.G.G.Y.!.sXsXpXpXpXpXpXNXKXJXJXKXKXJXKXJXJXJXJXJXJXJXJXJXJXJXJXJXJXJXJXJXJXJXJXJXJXJXKXfXY.G.F.g.          : h [.-X%X`.C j x _.}.].C > X # f N N 4 X X X X X X # z N 0 P ! K 7 ",
"    <.>.5.r.a.k.F.T.W.Q.Q.W.W.W.Q.W.T.!.fXCXCXVXVXVXVXVXDXJXJXJXJXJXJXJXJXJXJXJXJXJXJXJXKXKXJXJXJXJXJXJXJXJXJXJXJXJXJXNXY.h.l.k.y.          : z [.%X`.A k + @ V ).).S f X X 3 k 1 X X X X X X X X X @ & P ! J 7 ",
"  ;.>.7.r.d.D.Y.pXhXjXhXhXhXsXsXsXsXsXjXSXJXJXJXJXJXJXJXJXJXJXJXJXJXJXJXJXJXJXJXJXJXJXJXKXJXJXJXJXJXJXJXJXJXJXJXFXSXBXpXD.a.a.y.0.          1 z `.].S N k ; X + < 4 x k X X ; k v M Q Q 6 X X X X X X $ w P w 7 ",
";.>.5.s.F.G.K.!.BXFXFXDXSXSXDXDXDXSXSXDXJXJXJXJXJXJXJXJXJXJXKXKXJXJXKXKXJXJXJXJXJXJXJXJXKXJXJXJXJXJXJXJXJXJXJXCXhXiXR.Y.h.i.0.w.            1 z ).].S z j 4 @ X X X 2 4 X X # N .XeXnXrXE X X X X X X $ 7 7 7 & ",
",.7.s.P.Q.W.!.kXKXJXJXJXJXJXJXJXJXJXJXJXJXJXJXJXJXJXJXJXKXKXKXKXKXKXKXKXKXKXJXJXJXJXJXJXJXJXJXJXJXJXJXJXJXJXSXsXT.J.D.F.p.>.6.              4 k T `.^.v q & < < 4 < > X X % z C R qXtXwX+.E O X X X X < 0 & & & ",
"8.s.I.pXpXpXkXKXJXJXJXJXJXJXJXJXJXJXJXJXJXJXJXJXKXHXKXJXKXKXKXKXKXKXKXKXKXKXKXJXJXJXJXJXJXJXJXJXJXJXJXJXJXSXhXW.G.g.g.d.3.=.                3 l N A N q t * @ g N k @ X X Z [.S % & q p qXtXw X X X @ z         ",
"0.f.Y.pXsXkXFXJXJXJXJXJXJXJXJXJXKXKXKXKXJXJXJXJXJXJXJXJXKXKXKXKXKXKXKXKXKXKXJXJXJXJXJXJXJXJXJXJXJXJXSXNXfXaXW.K.l.a.u.r.2.                        k ; O * O X @ < < > > 4 _.&X`.< X X % @X6XR < ; < k           ",
"0.s.Y.Q.hXFXJXJXJXJXJXKXJXJXJXJXKXKXKXKXJXJXJXJXKXJXJXJXKXKXKXKXKXKXKXHXHXKXJXJXKXJXHXHXJXJXJXJXJXFXkX!.T.Y.F.k.y.9.8.8.                          z > X X X X @ > < f z N ).}.%XS + X 4 ].].A g h N             ",
"8.s.G.Q.hXFXJXJXHXKXHXHXJXJXJXJXKXKXKXKXKXKXKXKXKXKXKXKXKXKXKXKXKXKXKXKXJXJXJXJXKXJXJXJXJXJXJXJXKXkX!.L.K.z.e.2.,.1.,.                            _.T k + X % Z             [.;X].< X 2 `._.N                   ",
"5.p.P.Q.hXDXJXJXKXHXHXHXJXJXJXJXKXKXKXKXKXKXKXKXKXKXKXKXKXKXKXKXKXKXKXKXJXJXJXJXKXJXJXJXJXKXVXMXjX!.H.z.z.j.1.&.-.*.                              -X&X).< X @ Z               3X%Xc X ; D XX+X                  ",
">.e.I.W.hXDXJXJXKXKXHXHXJXJXJXJXKXKXKXKXKXKXKXKXKXKXHXKXKXKXKXKXKXKXKXKXJXJXJXJXJXJXJXJXKXfXP.l.F.G.p.,.<.1.=.                                    3X3X].3 X X @ C [.          3X;X].9 X 8 +XrX                  ",
";.j.I.W.hXDXJXJXKXKXHXKXKXJXJXJXKXKXKXKXKXKXKXKXKXHXKXKXKXKXKXKXKXKXKXKXJXJXJXJXJXKXVXfXuXl.t.i.e.e.2.&.                                            3X&X).< X X + x `.          3X-XC X O n 1X                  ",
";.j.Y.~.hXDXJXJXKXKXKXKXKXKXKXKXKXKXKXKXKXKXKXKXKXKXJXJXJXJXJXJXKXKXJXJXJXJXJXKXJXVXR.D.a.9.,.>.;.1.=.                                                3X-X_.< X X % S           3X;XA X X 5 XX                  ",
";.j.I.~.jXDXJXJXKXKXKXKXKXKXKXKXKXKXKXKXKXKXKXKXKXKXJXJXJXJXJXJXKXJXJXJXJXJXVXgXaXR.D.t.5.:.:.  :.=.                                                    3X:X_.> X X V           3X;XS X O Q eX                  ",
";.e.F.W.jXFXJXJXKXKXKXKXKXKXKXKXKXKXKXKXKXKXKXKXKXHXJXJXJXJXJXJXJXJXJXJXJXFXsXT.D.g.y.7.&.*.                                                              3X-X).> X , ).        8X0X<XE p K <X                  ",
";.9.g.T.jXFXJXJXJXKXKXKXKXKXKXKXKXKXKXKXKXKXKXKXHXHXJXJXJXJXJXJXJXJXJXJXDXaXY.D.f.9.,.1.*.                                                                  3X-X_.> X 4 ).      PXZXPXtXE 0 '.                  ",
"-.,.t.D.iXkXSXJXJXKXKXKXKXKXKXKXHXHXKXKXJXJXJXJXHXKXKXKXJXJXJXHXMXgXfXNXaXx.p.e.q.>.&.*.                                                                      3X;X_.< X 2 ^.    eXN.O.+.^ ^ 1X                  ",
"*.&.7.z.T.pXkXKXJXJXKXKXKXKXKXKXHXKXKXKXJXJXJXJXHXHXJXJXJXJXJXNXuXK.Y.Y.z.,.&.;.>.;.=.                                                                          3X&XZ X X j ].  '.4 X $ ^ dXZX                  ",
"  =.>.x.T.~.kXKXJXJXKXKXKXKXKXKXKXKXJXJXJXJXJXJXJXJXJXJXJXJXVXuXK.K.K.l.w.&.*.=.                                                                                &X}.c X X @ x   A B g + q +.mX                  ",
"    <.x.K.~.kXJXJXJXKXKXKXKXKXKXKXKXJXJXJXJXJXJXJXJXJXDXDXVXuXD.D.F.l.y.,.=.*.                                                                                  [._.9 X X @ ;   k ).S < X & <XAX                ",
"    ;.e.D.Q.kXJXJXJXJXJXJXJXJXJXJXJXJXJXJXJXJXJXJXJXSXaXR.Y.D.a.y.r.w.7.:.*.                                                                                    }.].V < < @       k j + X ; |.8XPX              ",
"    >.8.a.K.kXJXJXJXJXJXJXJXJXJXJXJXKXJXJXJXJXDXNXfXaXF.g.f.y.9.6.,.;.1.=.                                                                                    }.-X-X_.l > X       < k k , ; z |.8X              ",
"    >.6.r.l.sXKXJXJXJXKXJXJXJXJXKXJXJXJXJXJXKXfXY.Y.H.g.u.8.>.;.<.1.=.*.                                                                                    ].].%X%XT > X           ).].Z # X C :X              ",
"      >.5.f.Y.kXKXJXJXJXJXJXJXJXJXJXJXJXJXKXfXR.K.D.g.t.8.>.-.-.                                                                                            V V V k > X               $XZ X X x -X              ",
"      :.<.w.g.R.CXJXJXJXJXJXJXJXJXJXFXDXSXfXY.D.l.f.r.7.>.-.*.                                                                                                4 + X X                   c X X j ].              ",
"      =.=.;.i.l.fXJXJXJXJXJXJXJXJXJXNXiXiXY.h.a.w.7.,.>.1.=.                                                                                                                              X X + <               ",
"        *.*.>.t.U.fXVXCXBXBXNXfXfXfXE.M.g.d.r.6.;.&.-.                                                                                                                                                          ",
"          *.&.7.y.k.G.Y.Y.I.F.k.d.d.d.d.r.5.;.-.*.*.                                                                                                                                                            ",
"            =.1.,.7.e.e.e.e.q.7.5.7.9.q.;.&.=.*.                                                                                                                                                                ",
"              *.&.;.;.;.;.;.;.;.;.;.;.:.=.*.*.                                                                                                                                                                  "
};
