/* XPM */
static char *luke_166[] = {
/* columns rows colors chars-per-pixel */
"106 59 246 2 ",
"   c None",
".  c #000101",
"X  c #02040B",
"o  c #090807",
"O  c #170802",
"+  c #010A14",
"@  c #010C1C",
"#  c #030615",
"$  c #02111D",
"%  c #171617",
"&  c #150F15",
"*  c #2D1208",
"=  c #28201B",
"-  c #020C23",
";  c #040A27",
":  c #01142B",
">  c #061527",
",  c #021434",
"<  c #011C3C",
"1  c #041837",
"2  c #16152C",
"3  c #2A1C32",
"4  c #142233",
"5  c #292928",
"6  c #36263C",
"7  c #323638",
"8  c #471B02",
"9  c #561E01",
"0  c #470F00",
"q  c #562405",
"w  c #4A2A1A",
"e  c #652902",
"r  c #6B3109",
"t  c #773508",
"y  c #75300B",
"u  c #4B3634",
"i  c #6B4627",
"p  c #001B43",
"a  c #07154C",
"s  c #032447",
"d  c #022858",
"f  c #183352",
"g  c #3C2B45",
"h  c #29334C",
"j  c #002867",
"k  c #013569",
"l  c #013877",
"z  c #163769",
"x  c #001D6A",
"c  c #493556",
"v  c #523A5D",
"b  c #4E2E4A",
"n  c #633D54",
"m  c #35455A",
"M  c #03407D",
"N  c #324D6D",
"B  c #474748",
"V  c #4E4D50",
"C  c #6B5C55",
"Z  c #69635A",
"A  c #52526A",
"S  c #64486A",
"D  c #6E5474",
"F  c #586572",
"G  c #69666A",
"H  c #6F6F7A",
"J  c #5E615E",
"K  c #853B07",
"L  c #853816",
"P  c #874914",
"I  c #94551B",
"U  c #91490D",
"Y  c #AE5516",
"T  c #99681C",
"R  c #92542D",
"E  c #AB6D28",
"W  c #9C5B26",
"Q  c #CD783C",
"!  c #915947",
"~  c #B4754F",
"^  c #876D5F",
"/  c #C67449",
"(  c #009D2C",
")  c #00982A",
"_  c #008C35",
"`  c #008637",
"'  c #019434",
"]  c #009833",
"[  c #00AB26",
"{  c #00A32D",
"}  c #02AD2D",
"|  c #03A829",
" . c #00B325",
".. c #03B42A",
"X. c #08B929",
"o. c #04AC30",
"O. c #03A431",
"+. c #14B532",
"@. c #17BB2E",
"#. c #0DCF1D",
"$. c #24DC1A",
"%. c #0DCB23",
"&. c #06C224",
"*. c #15C828",
"=. c #14D422",
"-. c #1CD726",
";. c #26DB29",
":. c #35CB39",
">. c #2BCE30",
",. c #2AE227",
"<. c #35E72C",
"1. c #35F125",
"2. c #3EE932",
"3. c #3CF11E",
"4. c #44D93A",
"5. c #4BEA3A",
"6. c #49E63A",
"7. c #54EB39",
"8. c #49F431",
"9. c #57F437",
"0. c #4BF32C",
"q. c #68FC3A",
"w. c #72FD3C",
"e. c #69F734",
"r. c #3AC842",
"t. c #53DB45",
"y. c #59EC42",
"u. c #69F545",
"i. c #79FB47",
"p. c #6EEC4D",
"a. c #B78A2A",
"s. c #BC8C34",
"d. c #CEA938",
"f. c #CC9635",
"g. c #86FF3F",
"h. c #8C847C",
"j. c #BA9254",
"k. c #C7854D",
"l. c #D5A343",
"z. c #E1BC48",
"x. c #F3A971",
"c. c #D89D69",
"v. c #87FE48",
"b. c #93FE4C",
"n. c #8AF955",
"m. c #9CFB5D",
"M. c #96FC57",
"N. c #80EF52",
"B. c #A7FD5B",
"V. c #B8FF5D",
"C. c #9CF562",
"Z. c #90FF71",
"A. c #A5FB64",
"S. c #A9FB67",
"D. c #B3FE64",
"F. c #B8FC69",
"G. c #B5FB76",
"H. c #ACFD75",
"J. c #C7FE6C",
"K. c #CBFC73",
"L. c #C6FD77",
"P. c #D3FD79",
"I. c #E3C37A",
"U. c #003A86",
"Y. c #00368D",
"T. c #044589",
"R. c #024B98",
"E. c #0F5194",
"W. c #245791",
"Q. c #2D6299",
"!. c #0154A7",
"~. c #025BB6",
"^. c #0650A8",
"/. c #1163B9",
"(. c #445C8C",
"). c #745586",
"_. c #58708B",
"`. c #727389",
"'. c #4678B0",
"]. c #7279A5",
"[. c #0669CA",
"{. c #016ED8",
"}. c #0779EC",
"|. c #0179F6",
" X c #197BE4",
".X c #1F69C4",
"XX c #6778C5",
"oX c #85728D",
"OX c #788897",
"+X c #6583AC",
"@X c #0184FE",
"#X c #368DDE",
"$X c #6F9DCB",
"%X c #69A9E4",
"&X c #908C91",
"*X c #A99893",
"=X c #B4A38E",
"-X c #949BA7",
";X c #8B94AB",
":X c #BBB6B9",
">X c #AEAAAB",
",X c #C6B2B6",
"<X c #B7FD88",
"1X c #C8FB87",
"2X c #D7FB86",
"3X c #DBF997",
"4X c #C7FC97",
"5X c #D7CAB6",
"6X c #DDFAA3",
"7X c #D8FCBA",
"8X c #CBFBAC",
"9X c #E3FAA5",
"0X c #E3F9A9",
"qX c #E9FAAD",
"wX c #E7F9B8",
"eX c #EEF5BB",
"rX c #D6DD97",
"tX c #B6B3CC",
"yX c #91A9D1",
"uX c #C6BACC",
"iX c #B7C7D5",
"pX c #9BCEF4",
"aX c #B6D8F7",
"sX c #CAC7C6",
"dX c #D9D7D5",
"fX c #D9D2CB",
"gX c #E2D8D2",
"hX c #DCFCCA",
"jX c #E7FAC6",
"kX c #F1FCC9",
"lX c #ECF9D6",
"zX c #F5FAD7",
"xX c #E5E0DB",
"cX c #CBD6E6",
"vX c #DCE6E7",
"bX c #E6E8E8",
"nX c #F4F9E5",
"mX c #F6F8EC",
"MX c #FAFAEC",
"NX c #FBF7E7",
"BX c #F6F8F6",
"VX c #FAF8F5",
"CX c #FAF8FA",
"ZX c #FCF6FD",
"AX c #EEF4EF",
"SX c #F7DAF7",
/* pixels */
"                                      sXsXfX5X$X}.|.                                                                                                                                                                ",
"                                    >XH `.h.^ '.}.|.                                                                                                                                                                ",
"                                  cXF % % % 2 T.|.@X                                                                                                                                                                ",
"                                aX%Xz . . - d !.|.                                                                                                                                                                  ",
"                                pX/., . @ p j U.                                                                                                                                                                    ",
"                                -Xs . . @ < ; X                                                                                                                                                                     ",
"                                *X% . . . 5 B u                                                                                                                                                                     ",
"                      %X        -Xh . . . h *XfX                                                                                                                                                                    ",
"                    '.#X[.      '.f . . < z H sXCXCXAX                                                                                                                                                              ",
"                  N T.T.T.T.    l < - s l d & V >X:XsXbX                                                                                                                                                            ",
"                G -Xm @ @         + d T.k @ . . = 5 G sXCXAX                                                                                                                                                        ",
"              f tXAX_.+ .         . s k : . . . . . & G &X>XdX                                                                                                                                                      ",
"              W.pXcX+Xs X .     . . + $ . . . . . . . o % 7 &XxXxXdX                                                                                                                                                ",
"            z '.].F z < X . . . . X . . . . . . . . . . . . 5 Z Z *XmXCX5X                                                                                                                                          ",
"            ).;XA . . . . + - : : 1 : : - @ X . . . . X X . . . + A iXdX&X%                                                                                                                                         ",
"            &XuXJ . . . - k !.~.T.d M ~.!.M d @ . . + < : . + , j T.(.V = . .                                                                                                                                       ",
"            H h.7 . . @ d R.{.}.[.R.~.}.{.~.U.: . . p l p . ; U.^.Y.a ; ; 5 u                                                                                                                                       ",
"            6 5 o . . - j U.T.R.R.!.!.R.T.U.k : X 1 l l : . < l l j j x E.;XsX                                                                                                                                      ",
"            V J u 8 8 = 1 , : - p d s : ; @ > B H Q.U.p X & A N 1 h _.E.E.tXCX                                                                                                                                      ",
"            `.:Xj.U K q O . . . . X X . . . & H iX%XW.+ . 5 >X:XZ Z -X_._.tXZX                                                                                                                                      ",
"            D &X~ Y K e * o . . . . . . . . , N $XaXOX& . 5 >XVX5XH H OX:XxXSX        ( { } } } } o.o.o.} } } } ..                                                                                                  ",
"            g 6 w e e e e 8 O o . . . . $ < p , z ;X&X& . o V >X>XB > B &X-XtX      #. . . .....................X.%.                                                                                                ",
"            3 X . O 8 9 e t r * . . . - l M : . @ W.Q.4 o . o 5 5 # o . = h ;X    0.3.;.%.#.%.%.%.%.%.%.%.%.%.%.%.=.=.=.=.=.=.=.=.=.=.=.-.-.%.{ _ '                                                                 ",
"          v g & . . O * 8 K K * @ p ; : !.T.$ . p ^..XOXB 4 B B > 7 Z = . A cXCXlX<Xb.v.e.0.0.7.7.5.5.5.5.5.5.5.5.6.6.6.6.6.6.6.6.6.6.6.5.<.-.X.| [ %.=.=.X.{ O.o.o.o.o.o.                                          ",
"        b v v 6 # . . . O q r = d U.< $ k k : s R.~.#XiX&Xm ;X-XN _.>XV % &XAXBXCXMX0X2X1XG.G.1XL.D.B.A.S.S.A.A.A.A.A.A.A.A.A.A.A.A.S.S.m.u.2.;.-.-.;.;.;.*...} } ....} } X.                                        ",
"      g c v v b % . . . . O = z T.d + . + < l ~.~.l m `.V 4 A F h m `.7 & A `.OXuXCXCXNXzXzXzXzXeX2XJ.K.K.K.K.K.K.K.K.K.K.K.K.K.K.K.K.P.J.m.i.p.u.p.p.p.p.6.;.&.&.&.&.&.&.%.=.*.o.O.o.o.o.o.o.o.o.                  ",
"    6 c v S v g % . . . . . 1 l k + . . . s ~.[.l + X ; + . ; ; X + > X . ; , a OXnXCXCXCXCXCXCXnXqX3X9X0X0X0X0X0X0X0X0X0X0X0X0X0X0X0XqX3XG.B.S.D.F.F.F.F.M.u.2.;.;.<.<.<.<.;.%. .} ................                ",
"    g v D S c 6 & . . . . @ , 1 + . @ < s l ~.T.$ .                               1X9XzXCXCXCXCXCXmXnXnXmXmXmXmXmXmXmXmXmXmXmXmXmXmXMXVXlX3XK.K.P.P.P.2X2XF.M.n.n.n.n.n.n.i.7.,.%.%.%.%.%.%.%.=.%.X.} } o.          ",
"6 g v ).).S 6 2 o . . @ 1 1 @ . . , j R.R.!.T.1 .                                 b.F.1XjXBXCXCXCXCXCXCXCXCXCXCXCXCXCXCXCXCXCXCXCXCXCXCXCXlXwXwXjXjXjXkXwX2XF.F.J.J.J.K.K.D.n.y.5.5.5.5.5.5.7.5.<.=.X.....o.        ",
"6 c D ).).c 2 . . . . : d < . . : E.[.[.~.R.d +                                   q.b.m.H.7XCXCXCXCXCXCXCXCXCXCXCXCXCXCXCXCXCXCXCXCXCXCXCXCXCXCXCXCXCXCXVXjX2X2X2X3X2X3X3X1XS.m.m.m.m.B.m.A.A.b.q.<.-.=.*...}       ",
"6 v ).D c h @ . + @ X + : : # ; N $X%X}.~.l <                                     8.u.w.i.G.zXCXCXCXCXCXCXCXCXCXCXCXCXCXCXCXVXCXVXCXCXCXCXCXCXCXCXCXCXZXCXmXlXkXlXlXlXzXzXqXL.F.J.K.K.K.K.K.K.K.D.n.u.8.,.%...o.    ",
"g S oXS 3 : + . + - X . . X ; a OXvXpX XY.d                                       ;.2.0.0.b.3XzXmXVXCXCXCXCXCXCXCXCXCXCXCXCXCXCXCXCXCXCXCXCXCXCXCXCXCXCXCXCXCXCXCXCXCXCXCXmXqX3X3X6X6X6X6X6X9X0X9X2XD.v.9.<.*...}   ",
"g oX:XoX2 . . . . . . . . . . 1 `.bXpX/.j ,                                         -.=.,.u.F.1X1X6XzXCXCXCXCXCXCXCXCXCXCXCXCXCXCXBXBXBXBXBXCXCXCXBXBXBXCXCXCXCXCXCXCXCXCXCXmXnXmXmXmXmXmXmXmXVXVXkX2XB.m.n.5.%. .} ",
"b -XAX>X6 . X 1 1 + . X @ @ X X B OX'.l p                                             &...t.n.b.b.F.9XNXCXZXCXCXZXCXCXCXCXCXCXCXCXCXBXBXVXVXCXCXBXBXBXBXCXCXCXCXCXCXCXCXCXCXCXCXCXCXCXCXCXCXCXCXCXVXwXL.F.J.A.y.*.X.",
"g &XdXtXb o : l U.d < s d k p X X 4 s s 4                                               ' :.9.q.w.m.J.9XMXZXZXZXCXCXCXCXBXBXCXCXCXCXCXCXCXCXCXCXCXCXVXCXCXCXBXBXBXCXCXCXCXCXCXCXCXCXCXCXCXCXCXCXCXCXmXwX2X2X2XC.6.-.",
"    oXoXb O @ l U.j l T.R.R.j ; X # # u !                                                 +.,.1.8.i.B.J.4X7XjXmXCXCXCXCXBXBXVXVXCXCXCXCXCXCXCXCXCXCXCXCXCXVXBXBXCXCXCXCXCXCXCXCXCXCXCXBXCXCXCXCXCXCXCXmXjX3X2XD.y.;.",
"    g ).D 3 ; l W.Q./.{.{.R.j d d 3 8 I x.                                                  =.=.-.2.u.n.S.D.L.wXVXZXCXCXCXCXBXVXBXCXCXCXCXCXCXCXCXCXVXVXCXCXBXBXCXCXCXCXCXCXCXCXCXBXBXBXBXBXBXVXCXCXCXCXMX0XK.A.7.;.",
"    6 &X,XD z /.$XyX#X@X}.R.j U.W.C K Y x.x.                                                  ..O...@.:.N.V.V.L.wXVXCXCXCXCXCXCXBXCXCXCXVXCXCXCXCXCXBXBXCXCXBXCXCXCXCXCXCXCXCXCXCXCXBXBXBXBXBXCXCXCXCXCXVX0XK.m.6.-.",
"      H ,XuXXX.X].;X#X}.~.d , z H / Q / k.~ P                                                       ( O.r.p.p.B.P.6XhXlXCXCXCXCXCXCXBXCXVXCXCXCXCXCXBXBXCXCXCXCXCXCXVXVXBXCXCXCXCXCXCXCXVXCXCXCXCXCXCXCXmX9XK.m.4.*.",
"        H uXtX].S A E.^.d + O w R / x.c.R r y r                                                       ' O...+.t.m.n.i.S.wXVXCXCXCXCXCXCXCXVXCXCXCXCXBXBXCXCXCXCXCXCXBXBXBXCXCXBXCXCXCXCXCXCXCXCXCXCXCXCXmX9XK.C.:...",
"          G :X,X*X`.(.f & * 9 K U W / ~ t e t r 8                                                           ( +.:.>.$.1.i.<X7XlXCXCXCXCXCXCXCXCXBXBXBXBXCXCXCXCXCXBXBXBXCXCXCXCXCXBXBXBXCXCXCXCXCXCXCXCXmX9XK.C.r.} ",
"            G ,XdX:X).b q y t t t P I P y t t r q q                                                           ' O.}  .&.;.0.v.<XzXVXBXCXCXCXCXCXBXBXBXBXVXCXCXCXBXBXBXBXCXCXCXCXCXCXBXBXCXCXCXCXCXCXCXCXmX9XK.C.r.} ",
"              G `.D v n W U 9 8 t E T t q q q e r y                                                             '     ( | %.0.b.G.1X8XlXCXCXCXCXCXCXCXVXCXCXCXCXCXCXBXVXCXCXBXBXCXCXBXBXVXCXBXBXCXCXCXCXmX9XK.A.r.} ",
"                    b ! / L * 8 T d.E e 8 8 8 e t K                                                                     ` ( *.8.q.b.B.6XMXCXCXCXCXCXCXCXCXCXCXCXCXCXCXCXVXVXBXBXCXCXCXCXBXBXBXBXCXCXCXCXVXqXK.n.:...",
"                      / E y q T d.d.T 9 q r y t P P                                                                       _ O.&.-.7.b.D.4XmXCXCXCXCXCXCXCXCXCXCXCXCXCXCXCXCXBXBXCXCXBXBXVXCXCXBXCXCXCXCXMX9XD.q.*...",
"                      Y U ! h.rXI.k.I y I E W W E a.                                                                        _ {  .>.4.4.p.8XjX7X8XhXCXCXCXBXCXCXCXCXVXBXCXCXBXCXCXCXBXBXCXCXCXCXCXCXCXnXqX1Xb.<.X.{ ",
"                      t R =XvXAX5Xk.E Q l.l.k.k.f.f.                                                                          ' { ..{ ( @.p.F.D.B.<XlXCXCXCXCXCXCXBXCXBXCXCXCXCXCXCXCXBXCXCXCXCXCXCXVXwX2XD.u.=.{ _ ",
"                      i =XrXeXbXdXc.f.l.z.z.l.s.E T                                                                                 _ ` ( ;.i.B.B.B.<XlXCXCXCXCXCXCXCXBXCXCXCXCXCXCXVXBXCXCXCXCXCXCXVXqXK.D.y...    ",
"                      C =Xc.j.=X=Xs.a.a.a.s.a.T t                                                                                     ` ' X.<.i.n.v.v.<XlXnXmXCXCXCXCXCXCXCXCXCXCXCXBXCXBXVXCXCXCXCXVXwXP.B.t.}     ",
"                      i R I P P R P P P P P P P                                                                                         ' } *.;.,.<.9.n.D.G.8XnXCXCXCXCXCXCXCXCXBXBXBXVXCXCXCXCXCXCXCXwXK.v.;.}     ",
"                        t P I K e y y                                                                                                     ' O.} X.&.-.<.9.w.b.4XjXjXmXCXCXCXCXCXBXBXCXCXCXCXCXVXCXCXCXjXS.0.=...    ",
"                          E a.I y y                                                                                                         _ ' { } } ..=.1.q.b.B.G.7XVXCXCXCXCXBXBXCXCXCXCXCXCXCXCXVX6Xi.,.&.      ",
"                                                                                                                                                    ] (  .=.1.q.v.B.D.7XCXCXCXCXCXCXCXCXZXZXZXCXCXMXeXF.5.%.        ",
"                                                                                                                                                      ` ] ..%.,.7.i.v.D.7XmXmXVXCXCXCXCXZXZXZXZXCXzXJ.q.;.}         ",
"                                                                                                                                                        _ O...X.*.;.8.w.A.1X4XjXCXCXCXCXCXCXCXCXCX7Xi.$.} '         ",
"                                                                                                                                                              ] ( } *.<.9.e.g.H.8X7X7XjXkXkXkXkX7XZ.1. ._           ",
"                                                                                                                                                                _ _ ] } %.,.8.9.9.9.u.n.C.A.A.M.u.1.=.(             ",
"                                                                                                                                                                    _ ' ( o.*.*.%.%.*.>.>.:.:.>.*.X.{               ",
"                                                                                                                                                                    ` ` _ ' } ..[ [ [ [ [ [ [  . .{ _               "
};
