/* XPM */
static char *luke_13[] = {
/* columns rows colors chars-per-pixel */
"63 97 256 2 ",
"   c None",
".  c #000001",
"X  c #01040A",
"o  c #090608",
"O  c #150807",
"+  c #000412",
"@  c #010913",
"#  c #020C1B",
"$  c #040619",
"%  c #19151C",
"&  c #0D1110",
"*  c #2B100D",
"=  c #000D23",
"-  c #000A2A",
";  c #021124",
":  c #02142A",
">  c #091226",
",  c #000938",
"<  c #021433",
"1  c #051934",
"2  c #011B3C",
"3  c #091C36",
"4  c #191828",
"5  c #291A2A",
"6  c #311933",
"7  c #04263B",
"8  c #142933",
"9  c #372538",
"0  c #2D2F2D",
"q  c #1E3216",
"w  c #551B01",
"e  c #471600",
"r  c #512510",
"t  c #652802",
"y  c #773707",
"u  c #7C3C12",
"i  c #6E3505",
"p  c #452D38",
"a  c #6F2A12",
"s  c #035311",
"d  c #0D5630",
"f  c #036527",
"g  c #0B7039",
"h  c #1D671D",
"j  c #725235",
"k  c #011D43",
"l  c #001C4C",
"z  c #051B55",
"x  c #00094A",
"c  c #092245",
"v  c #02244B",
"b  c #052445",
"n  c #022553",
"m  c #022955",
"M  c #00245C",
"N  c #022B5C",
"B  c #092853",
"V  c #17334E",
"C  c #2A2848",
"Z  c #362945",
"A  c #30374F",
"S  c #0B1E66",
"D  c #022C63",
"F  c #002969",
"G  c #033265",
"H  c #01336B",
"J  c #063568",
"K  c #173666",
"L  c #003473",
"P  c #033B74",
"I  c #01387A",
"U  c #093374",
"Y  c #27356A",
"T  c #311C46",
"R  c #452A49",
"E  c #553757",
"W  c #4E3153",
"Q  c #5A3D63",
"!  c #472B67",
"~  c #6D366E",
"^  c #552C4F",
"/  c #364C52",
"(  c #11714B",
")  c #05427B",
"_  c #174170",
"`  c #264A74",
"'  c #354F71",
"]  c #25774D",
"[  c #524A51",
"{  c #5D466B",
"}  c #5C496F",
"|  c #644569",
" . c #674977",
".. c #754776",
"X. c #79527D",
"o. c #6E7374",
"O. c #606A59",
"+. c #883C0F",
"@. c #993E2A",
"#. c #864514",
"$. c #934716",
"%. c #935914",
"&. c #8D4F0D",
"*. c #AF5317",
"=. c #AB7718",
"-. c #A46E1E",
";. c #9B5326",
":. c #915532",
">. c #A7592C",
",. c #AF522F",
"<. c #B76538",
"1. c #B47131",
"2. c #9A6C23",
"3. c #CB672E",
"4. c #C15330",
"5. c #AF7146",
"6. c #A27B75",
"7. c #8B6A59",
"8. c #D06C4A",
"9. c #EA7F45",
"0. c #009413",
"q. c #00AC18",
"w. c #01B31D",
"e. c #07BB1C",
"r. c #04BD0E",
"t. c #008D2D",
"y. c #00932D",
"u. c #009A26",
"i. c #008D31",
"p. c #008535",
"a. c #009231",
"s. c #138636",
"d. c #01AB23",
"f. c #04A629",
"g. c #03B422",
"h. c #05B820",
"j. c #13B730",
"k. c #27BA37",
"l. c #4C863D",
"z. c #05C618",
"x. c #16DA17",
"c. c #01D01B",
"v. c #1CE219",
"b. c #13CE24",
"n. c #2BD924",
"m. c #28D725",
"M. c #33DD28",
"N. c #39D537",
"B. c #3AE228",
"V. c #29E525",
"C. c #1FE01F",
"Z. c #45E62D",
"A. c #4AEA34",
"S. c #55EA36",
"D. c #5AF23D",
"F. c #61EC3F",
"G. c #1C895B",
"H. c #68965C",
"J. c #658E57",
"K. c #69F545",
"L. c #78F450",
"P. c #56E947",
"I. c #3FD44D",
"U. c #B78631",
"Y. c #C78B33",
"T. c #CDA732",
"R. c #96B671",
"E. c #A39C65",
"W. c #CB9572",
"Q. c #F59071",
"!. c #CDB06F",
"~. c #D8A749",
"^. c #87F955",
"/. c #95FA5C",
"(. c #80FA4B",
"). c #A9CE78",
"_. c #9BFA61",
"`. c #A6FC6A",
"'. c #B7FE79",
"]. c #AFFE70",
"[. c #9DC467",
"{. c #C6FF76",
"}. c #023887",
"|. c #1E3FA2",
" X c #024585",
".X c #05488A",
"XX c #034997",
"oX c #0C5196",
"OX c #2A548E",
"+X c #0555A6",
"@X c #025BB9",
"#X c #0D55A6",
"$X c #1265B6",
"%X c #2C66AB",
"&X c #544789",
"*X c #7A5488",
"=X c #516A91",
"-X c #6F768F",
";X c #537BB0",
":X c #697DAE",
">X c #0365C8",
",X c #036BD7",
"<X c #1470D1",
"1X c #0477E8",
"2X c #0578F1",
"3X c #2073C7",
"4X c #835B92",
"5X c #81588B",
"6X c #85698D",
"7X c #708AB1",
"8X c #56869F",
"9X c #3785D6",
"0X c #0B86F6",
"qX c #3590E8",
"wX c #3FA5FB",
"eX c #4B88C7",
"rX c #659ACB",
"tX c #69B0F5",
"yX c #908A8C",
"uX c #879AAF",
"iX c #8EACB0",
"pX c #A8A6B0",
"aX c #A4A692",
"sX c #D5B7B4",
"dX c #D0A98B",
"fX c #BBDC91",
"gX c #BEFF85",
"hX c #BCE5AC",
"jX c #C4FE8B",
"kX c #CBFF98",
"lX c #CDF293",
"zX c #E7FF95",
"xX c #D9FFA6",
"cX c #C9F4AC",
"vX c #EAFFB8",
"bX c #EEFCB3",
"nX c #DACFB7",
"mX c #90B1CE",
"MX c #AAAFCB",
"NX c #9DBAE8",
"BX c #DBBEC4",
"VX c #B9C7D6",
"CX c #B6CFD3",
"ZX c #AED5F4",
"AX c #CCCDCD",
"SX c #F2FFC8",
"DX c #F8FFD6",
"FX c #EDF5CB",
"GX c #D2D3E8",
"HX c #FCFFE3",
"JX c #FDFFED",
"KX c #FFFFF4",
"LX c #FFFFFD",
"PX c #F1F3F7",
"IX c #EFEBF1",
"UX c #DDF1DA",
/* pixels */
"                                                                                                            p.y.b.V.V.j.a.    ",
"                                                                                                            y.f.N.L.K.N.f.    ",
"                                                                                                          i.d.M.`.zXjXK.C.f.i.",
"                                                                                                        i.d.n./.SXKXbX/.V.d.i.",
"                                                                                                      i.d.m./.SXLXHXjXK.b.u.i.",
"                                                                                                    i.d.n./.SXLXHXjXS.j.y.    ",
"                                                                                                  i.d.n./.SXLXHX'.A.h.y.      ",
"                                                                                                i.d.n./.SXLXHX'.Z.h.y.        ",
"                                                                                              y.d.n._.SXLXHX'.Z.h.y.          ",
"                                                                                            i.d.n.`.DXLXDX'.Z.h.y.            ",
"                                                                                          a.d.M.`.DXLXDX'.Z.h.y.              ",
"                                                                                        y.d.M.`.DXLXDX'.Z.h.y.                ",
"                                                                                      i.w.B.`.DXLXDX].B.h.y.                  ",
"                                                                                    a.w.B.`.DXLXDX].B.h.y.                    ",
"                                                                                  y.w.B.].DXLXDX].M.w.y.                      ",
"                                                                                y.w.B.].DXLXDX`.B.h.y.                        ",
"                                                                              y.w.B.].DXLXSX].M.h.y.                          ",
"                                      +.=.~.nXGXGXGXAX!.Y.1.                y.w.Z.'.DXLXSX`.M.d.y.                            ",
"                                    #.=.T.~.W.W.6.W.!.U.-.U.T.            y.w.Z.'.HXLXSX`.M.d.y.                              ",
"                                  y %.T.T.Y.>.$.&.=.=.%.%.Y.~.          y.e.Z.'.HXLXSX_.M.d.y.                                ",
"                                  y 2.T.~.<.$.&.=.=.&.i +.<.9.        y.e.A.'.HXLXSX_.M.d.y.                                  ",
"                                  %.=.Y.W.W.5.=.=.%.t e t +.>.      u.e.A.gXHXLXSX_.M.d.y.                                    ",
"                                &.U.Y.W.sXnX!.=.&.#.u t t +.j     u.e.A.gXHXLXSX_.M.d.a.                                      ",
"                                &.1.W.sXBXdX2.i i >.5.>.,.8.O.  f.z.A.jXHXLXvX/.n.d.y.                                        ",
"                                $.1.dXsXaX:.w w +.8.Q.Q.Q.W.H.f.z.A.jXHXLXvX/.n.d.i.                                          ",
"                                %.Y.~.5.u w w y >.8.Q.Q.W.H.j.z.A.jXJXLXvX/.n.d.a.                                            ",
"                                %.=.%.t e t #.;.>.4.8.W.H.f.r.A.jXJXLXvX/.M.d.a.                                              ",
"                                $.&.i w w +.>.<.,.,.:.] f.z.A.jXJXLXvX/.n.d.i.                                                ",
"                                j u y t t +.<.8.,.:.h u.z.A.kXJXLXvX/.m.d.i.                                                  ",
"                                  :.#.i e r ,.8.5.] u.c.D.kXKXLXvX/.m.d.i.                                                    ",
"                          U ! ..*XX.| p O * @.5.l.f.c.D.kXKXLXvX^.m.d.i.                                                      ",
"                        qX@XOX{ ..*X .T X O p l.f.c.D.kXJXLXvX^.m.w.i.                                                        ",
"                + ' MXZXwX2X,XOX| .. .T $ o s d.b.D.kXKXLXvX^.m.d.i.                                                          ",
"              # $ V ;XeX3X,X2X,X%X} ~ ~ 0 s 0.b.K.kXJXLXvX^.m.d.i.                                                            ",
"        OX.XM 2 : m XX.Xm v .X,X<X&X~ } ( f.x.K.kXKXLXvX^.x.w.y.                                                              ",
"      o.mXeX}.D n D I M # X # H |.&X} ] f.x.K.xXKXLXvX^.C.w.y.                                                                ",
"    O o.NXwX>XXXI D v < # @ $ , S ' ] d.x.K.xXKXLXvX^.v.d.g (                                                                 ",
"    X _ 3X0X1X@XXXN # @ 2 M l x 7 g d.x.K.xXKXLXvX^.v.w.g A E                                                                 ",
"    2 M L P  XXXXXM + X = , , 7 f w.x.K.xXKXKXxX^.v.q.f A W E                                                                 ",
"    H v # X @ v L z $ X X X & f f.m.L.xXKXKXxXL.v.g.( V R ^ E                                                                 ",
"    L 1 X X X + l M     X & s t.j.L.xXKXKXxXL.x.h.G..XY R ^ E                                                                 ",
"    H ; X X X o /       0 q s 0.I.cXKXLXbX].B.q.f ) }.Y R ^ E                                                                 ",
"    D = X X X O E.      [.E.q s I.UXKXvX{.L.j.f 7 z z C R E Q                                                                 ",
"    N = X X X O [.jX    lXbXE.d l.cXbX/.A.k.f 8 Y ! Z % 6 E                                                                   ",
"    J A 0 4 - 3 H.).H.O.R.FXGX7Xo.R.L.V.w.f 8 R ~ ..R O o                                                                     ",
"      -XuX=X}.}._ O.R.H.O.-XNXGXMXo.s.u.f 8 W ....E 5 o X               3.                                                    ",
"        7XOXH F x A [.[.V Y MXIXpXY 7 d q 5 ~ 4XE * o X X               3.                                                    ",
"        ` 8 X X $ [ ).[./ =XAXpXE 5 C Z 6 6 ~ X.W 4 @ X X X             3.    >.5.                                            ",
"        pXyXp X q R.zXfX8X-XyX[ % % 6 9 R W Q ^ R _  X2 X X X         3.*.#.u #.>.                                            ",
"        PXKXAXO.J.lXzXhXuX} 9 O o O o % | 6XE * 6 oX@Xv X X X < +XeX6.*.+.i y #.;.<.                                          ",
"        mXPXJXlXaXiXiXmX7X{ * X o * o % -XpX[ o 2 J v @ X X < ) =X6.8.>.y i #.;.<.                                            ",
"        K 7XCXfXaX:X:X;X=X[ r * O * * 9 o.yX/ D XXH # X @ = M .XO.3.3.>.u u ;.<.                                              ",
"          oXeXiXuXrX;X=XY C p 9 6 9 E | [ A ) >X1X+Xn k N D D B r *.3.>.#.$.<.                                                ",
"            9XNXNX9X%XY C C Z Z R Q *X .p 5 K #X>X+XI L I I D < r $.<.>.$.;.                                                  ",
"            tXZXmX#XM 3 9 R R R Q  . .Z 5 5 9 C                                                                               ",
"            9XeX' < $ > 9 E  . . .| 9 & X * 6 9 B                                                                             ",
"            @X@XH = # 3 Z  .4X4X| 9 o X X o 5 Y oX}.                                                                          ",
"              1X@XP b C  .4X*X| 9 o X X X X # .X,X@XL                                                                         ",
"                >X_ A } 4X5XQ 5 o X X X X X X m @X1X@XL                                                                       ",
"                  W Q *X*X{ Z # X X X X X X X X m @X1X@XL                                                                     ",
"                  | E E W Z c v < X X X X X X X X m @X1X@XL                                                                   ",
"                  | R 9 9 4 ; n H m ; X X X X X X X n @XqX;X`                                                                 ",
"                  R Z 9 9 % X = P XXH # X X X X X X X n ;XVXuXK                                                               ",
"                    9 p p 5 = X 1 )  Xn < ; X X X X X X V 7XVX7X_                                                             ",
"                            N ; X : v D L H 7 ; @ X X X X c 7XVXuXK                                                           ",
"                            L v @ X + : v P .X XN # X X X X c 8XVXuX`                                                         ",
"                            L N 1 X X X X 7 P .XI N b : X X X k :XVXuX`                                                       ",
"                            L D 3 X X X X X @ ; b P .XP 2 X X X c ;XVXuX`                                                     ",
"                            L D 3 X X # X X X X # b m N n k # X X V rXrXOX                                                    ",
"                            H v ; X # 2 = X         ; 7 D m ; X X ; .X#X}.                                                    ",
"                          H v : X X ; < +              XI 2 X X X X k L I                                                     ",
"                        H H c @ X X # # X             +X XH : X X X + 1 B                                                     ",
"                        H D 3 X X = : X X           XXv m +X X# X X X & 4                                                     ",
"                        L n ; X X @ < 2           XX2 X @ H XX) v # o O *                                                     ",
"                        H 2 X X X X ,       FX7XoXk X X X @ ) 1X@XN % *                                                       ",
"                      H m ; X X X X , 3X  FXyXA : X X X X #  X0X,X                                                            ",
"                      D m ; X X O 0 ` 3XrX6.5 X X X @ 1 3 3 oX2X                                                              ",
"                      N N < X X / pXmX$XG % X X X @ 1 c 3 3 oX                                                                ",
"                      c n ; X k 3XtXrXK X X X # ; 1 c c > 3                                                                   ",
"                      c > X @ XX0X<XV X X X $ < < <                                                                           ",
"                    @XH # X # @X1XI + X X X =                                                                                 ",
"                   X.XP 2 @     1Xb X X + 3                                                                                   ",
"                m ; 1 H  X X      : X X l %X                                                                                  ",
"              H X X # H @X        @ X + F qXZX                                                                                ",
"            H X X X 2 I           X X X l %XNXUX                                                                              ",
"          H X X X 2 N               X X # c ' o.                                                                              ",
"        ) ; X X 2 N                   X X X + =                                                                               ",
"      +Xv X X 2 H                       X X X X                                                                               ",
"    ,X.X= # k H                           X X                                                                                 ",
"    @XH @ ; n                                                                                                                 ",
"n N m 1 # @ : N                                                                                                               ",
"I k X X # # 1  X,X                                                                                                            ",
">XP @ X + 2 H +X1X0X                                                                                                          ",
"2XXX# X X : n H .X+X+X                                                                                                        ",
"2X.X# X X X X X ; c c                                                                                                         ",
"2X.X# X X X X X @ > 3                                                                                                         ",
"2X.X# X X X X X # 3 c                                                                                                         "
};
