/* XPM */
static char *luke_104[] = {
/* columns rows colors chars-per-pixel */
"64 89 255 2 ",
"   c None",
".  c #231235",
"X  c #23292B",
"o  c #7C0100",
"O  c #750201",
"+  c #6F0305",
"@  c #4C3214",
"#  c #6C2E0D",
"$  c #4F1613",
"%  c #17772B",
"&  c #0F732E",
"*  c #2C6B33",
"=  c #0F5920",
"-  c #514B16",
";  c #685716",
":  c #724E12",
">  c #687B33",
",  c #66661B",
"<  c #062E54",
"1  c #282F49",
"2  c #1E655A",
"3  c #5D5D7A",
"4  c #840400",
"5  c #8C0C00",
"6  c #8B0703",
"7  c #950200",
"8  c #940C00",
"9  c #980804",
"0  c #941300",
"q  c #9B1401",
"w  c #9C1C01",
"e  c #93120C",
"r  c #880D0D",
"t  c #A30100",
"y  c #A70B00",
"u  c #B80E00",
"i  c #A41C01",
"p  c #AB1600",
"a  c #B41800",
"s  c #992505",
"d  c #8F2D0D",
"f  c #A42400",
"g  c #A92400",
"h  c #AC2B00",
"j  c #B22B02",
"k  c #BA2C01",
"l  c #B72500",
"z  c #B43300",
"x  c #BB3501",
"c  c #BD3C00",
"v  c #B63808",
"b  c #AE3915",
"n  c #AE372F",
"m  c #C71600",
"M  c #C62900",
"N  c #C13300",
"B  c #C33C00",
"V  c #CC3D00",
"C  c #D42F01",
"Z  c #E83A00",
"A  c #BD4407",
"S  c #B14A16",
"D  c #926D10",
"F  c #99680F",
"G  c #C44300",
"H  c #CB4500",
"J  c #C74B04",
"K  c #CC4B00",
"L  c #C64A0C",
"P  c #D24E00",
"I  c #D84800",
"U  c #CE5204",
"Y  c #C9550C",
"T  c #D35200",
"R  c #D95500",
"E  c #DC5B01",
"W  c #D55B06",
"Q  c #C25013",
"!  c #E74700",
"~  c #E25D00",
"^  c #E55402",
"/  c #F95903",
"(  c #F44600",
")  c #DD6508",
"_  c #D46B14",
"`  c #E46301",
"'  c #EB6500",
"]  c #E46906",
"[  c #EC6A01",
"{  c #E56B09",
"}  c #F36C00",
"|  c #FA6802",
" . c #EE7C0D",
".. c #E9720A",
"X. c #F47201",
"o. c #FB7401",
"O. c #F87C07",
"+. c #E87C14",
"@. c #F47415",
"#. c #CA5E2B",
"$. c #D36C2A",
"%. c #C86736",
"&. c #CA6B2F",
"*. c #E47B39",
"=. c #BC7572",
"-. c #9D5B60",
";. c #C7734B",
":. c #C5685A",
">. c #029B2D",
",. c #01972F",
"<. c #008C35",
"1. c #008C38",
"2. c #058736",
"3. c #168A32",
"4. c #019234",
"5. c #039836",
"6. c #16882F",
"7. c #23842B",
"8. c #2A8B2D",
"9. c #04A42B",
"0. c #04A72E",
"q. c #0BB824",
"w. c #13BC24",
"e. c #1ABE2B",
"r. c #00AC33",
"t. c #03A733",
"y. c #00B634",
"u. c #18B235",
"i. c #2AB138",
"p. c #289D1B",
"a. c #0AD01D",
"s. c #0BCC26",
"d. c #18CB25",
"f. c #0AD425",
"g. c #14D62C",
"h. c #0DC531",
"j. c #22CD24",
"k. c #24CB2A",
"l. c #38D634",
"z. c #2ACC2E",
"x. c #16E430",
"c. c #37EC31",
"v. c #42E52D",
"b. c #45E534",
"n. c #4CE83A",
"m. c #52F537",
"M. c #6EFB3A",
"N. c #6EC133",
"B. c #139C4A",
"V. c #2A984D",
"C. c #2EAE50",
"Z. c #47B75E",
"A. c #3EC15A",
"S. c #59ED49",
"D. c #57F248",
"F. c #50EC50",
"G. c #6AF34D",
"H. c #67F44C",
"J. c #67F454",
"K. c #76F85B",
"L. c #65D96C",
"P. c #8E9524",
"I. c #FC860A",
"U. c #E8821A",
"Y. c #FD8E12",
"T. c #F88617",
"R. c #FD9515",
"E. c #FF900B",
"W. c #EB8928",
"Q. c #FA9823",
"!. c #EC9035",
"~. c #F8A728",
"^. c #F9B435",
"/. c #F8AD30",
"(. c #CF9E26",
"). c #F8C039",
"_. c #A98272",
"`. c #ED9948",
"'. c #FABD45",
"]. c #F0B254",
"[. c #D8996C",
"{. c #DBAA7B",
"}. c #E9AA67",
"|. c #F0B76F",
" X c #E1915A",
".X c #90FB57",
"XX c #9FFE7F",
"oX c #F9C74B",
"OX c #F8C75A",
"+X c #F8D35A",
"@X c #F7CB64",
"#X c #FAD966",
"$X c #F8D977",
"%X c #F3C478",
"&X c #FEEC75",
"*X c #1B5091",
"=X c #546689",
"-X c #747590",
";X c #5275B2",
":X c #6478BE",
">X c #6878C6",
",X c #5F7DC4",
"<X c #508E8E",
"1X c #69BE9A",
"2X c #74CE8D",
"3X c #5EC498",
"4X c #68AEC0",
"5X c #A98E9D",
"6X c #CCBBB5",
"7X c #DFB49A",
"8X c #9AF889",
"9X c #A6FD8B",
"0X c #ADFE93",
"qX c #B8FE9D",
"wX c #BDFFA5",
"eX c #94DCAF",
"rX c #F6CB85",
"tX c #F8D886",
"yX c #F7D998",
"uX c #ECC592",
"iX c #F9E28A",
"pX c #FAE697",
"aX c #FFF69A",
"sX c #D7C7B5",
"dX c #EECBAC",
"fX c #C4FFAA",
"gX c #C9FFAD",
"hX c #C6FFA5",
"jX c #CBFFB3",
"kX c #CEFFB8",
"lX c #D2FFBC",
"zX c #D9FFBD",
"xX c #F9E7A7",
"cX c #F8E8B8",
"vX c #FEF9B6",
"bX c #FFF6A6",
"nX c #A3AAD3",
"mX c #E2BAC1",
"MX c #D4CFC6",
"NX c #EBCEC1",
"BX c #ECCECB",
"VX c #F8ECC5",
"CX c #FDF7CB",
"ZX c #F9EDD9",
"AX c #EDFFD9",
"SX c #F3FFDB",
"DX c #FEF8D8",
"FX c #CCD5F9",
"GX c #F2FFE5",
"HX c #F4FFE8",
"JX c #FBF9E7",
"KX c #FDFCFC",
"LX c #F9F8F4",
"PX c #F0F5E9",
"IX c #D9F0C5",
/* pixels */
"              4.u.e.z.u.<.2.                                                                                                    ",
"              5.u.l.l.z.5.<.<.                                                                                                  ",
"            4.u.l.m.K.S.e.>.<.1.                                              cX$X^.R.Q.~./.~.~.'.$XpX                          ",
"            5.e.v..XzXqXS.w.,.1.1.                                            @X#XOX^.^.OXtXrX'./.oX$XiX                        ",
"            4.u.z.K.zXHX0Xb.q.,.1.1.                                          OX$XtX@XoX#XxXVXyX'.~.oXiX                        ",
"              4.u.l.K.lXHX0Xv.q.4.<.1.                                        yXpXiX$XOXoX$XxXcXrX^.oXtX                        ",
"                1.9.j.G.lXGX9Xb.w.,.1.<.                                      xXtX#X$X$XOXoXOX%XrXrX@XOX$X                      ",
"                  <.0.k.G.lXHX9Xb.w.4.<.1.                                    pX#X+X$XpXtXoX^./.|.yX$XOX$XiX                    ",
"                    1.9.j.G.lXGX9Xb.q.>.1.1.                                  VXpXyXcXCXpXoX).OX%X|.%XtXyXiX                    ",
"                      4.0.j.G.lXGXXXb.w.>.<.1.                                LXJXJXLXJXxX#X#XiXrX].|.yXpXiX                    ",
"                        <.9.j.G.jXGX9Xb.w.>.<.1.                              ZXLXKXLXZXcXpX$X$X$X@XOX@XiXpX                    ",
"                          1.9.j.G.lXGX9Xb.w.>.<.<.                            xXZXLXZXcXxXxXpX$X#X#X#X#X&X                      ",
"                            <.9.j.G.lXGX8Xv.w.>.<.<.                          pXvXCXVXxXpXcXVXxX&X#X#X$X                        ",
"                              1.9.j.G.kXSX9Xb.w.>.<.<.                        vXvXbXpXpXxXCXDXbX&X&X|.                          ",
"                                <.9.j.G.lXHX9Xb.w.>.<.1.                      dX%X@X$XvXHXJXuX].oX@X%.                          ",
"                                  <.9.j.G.lXGX9Xv.w.>.<.2.                      b $.rXJXKX7X%.Y _ $.v 0                         ",
"                                    1.0.j.G.lXSX9Xn.w.>.<.2.                    7 n dXKXNX%.l a p g A Y A                       ",
"                                      <.0.k.G.kXHX9Xb.e.>.<.2.                8 y %.dXNX;.k k j 0 0 Y U.Q w w w                 ",
"                                        1.9.j.G.jXGX9Xn.w.>.<.2.            p h _ ].$X`.N l B c f 0 b S s s Q S f               ",
"                                          4.9.j.H.jXGXXXn.e.>.<.1.        y y v ].aX&XW.B k x z i 5 o O o v U.U.A J             ",
"                                            <.9.j.G.jXGX9Xn.e.>.4.5.    y t 7 v }.DXJX{.L l h i 5 4 + O 0 T E.R.U.) ~           ",
"                                              1.9.d.G.jXHX9Xn.w.9.5.2.- t t 7 h [.JXKXNXQ l i 0 4 o O 4 j ~ O.R.R. .E           ",
"                                                <.9.j.H.jXHX0Xb.s.r.2.@ 4 t y k [.ZXKXNXQ l g 0 4 O o 5 h E I.E.O.[ E           ",
"                                                  1.9.j.G.jXGXqXn.s.t.= @ 8 m ^ ].CXKXdXL k g 0 o O o 5 z E O.O.[ ~ E           ",
"                                                    <.9.j.H.kXJXqXD.s.0.& @ N o.^.pXDXuXL l i 5 o o 4 w c ` X.} ` ~ ~           ",
"                                                      <.9.j.H.gXHXwXD.f.t.& D [ I.'.aX%XL p 8 4 o 4 0 h G E [ ` ` [ [ `         ",
"                                                        1.0.d.H.jXGXqXS.s.0.7.D [ T.oX].A 0 4 o o 4 0 f G K T E ` } X...{       ",
"                                                          <.9.j.H.gXGXwXD.s.9.7.D X.E.@.c 0 6 4 o 4 5 w z G K T E [ O.T.+.      ",
"                                                            1.9.j.G.fXSXwXS.s.9.7.D [ ( M 0 5 4 5 5 0 s z K E R T E  .T.U.{     ",
"                                                              <.9.j.H.gXSXqXS.s.t.7.: V M p 6 4 5 0 f z c P [ ~ P P `  . .`     ",
"                                                                <.9.d.J.fXAXfXS.s.t.7.: j u 7 4 4 0 h c G K E [ ~ P T [ X.`     ",
"                                                                  4.r.s.J.jXSXwXS.s.0.% : i y 7 4 5 h G A c K [ } R K ~ [ E     ",
"                                                                    4.0.g.D.fXSXfXD.s.r.7.: i y 7 0 z G c z K [ } R G T ~ E     ",
"                                                                    , 7.r.f.J.gXSXfXD.f.r.7.: i u a z B z z K [ } R G T ` {     ",
"                                                                    K , 3.y.g.J.gXHXfXD.s.r.7.: i u M B z z K [ } R K E ..I.    ",
"                                                                    ! A ; 3.y.g.J.fXSXgXD.a.r.% # 8 m M g f     ` ` ` ` [ O.    ",
"                                                                  E ^ ! z - 2.y.f.D.fXSXfXD.f.y.% @ h C a 8     R } o.` E [     ",
"                                                                T ` } ^ M 5 @ 2.y.g.J.wXSXjXD.f.r.% : x u 7     P X.} T K E     ",
"                                                                T ` } E l t o @ & 0.g.J.fXSXfXD.a.y.8.: w t       [ E G K E     ",
"                                                                T E ) T j 7 6 5 - 3.y.s.D.fXAXfXD.f.y.6.- d       ^ H c G R     ",
"                                                                K K K G z     p Q P.i.0.s.J.wXAXgXS.s.<.& 8.      Z V c H E     ",
"                                                                V N k H U     N / +.> & r.x.J.gXSXwXF.>.= p.m.    Z ! H U ..    ",
"                                                                V x x E I.    H H ! G ; 6.h.c.G.hXAXeX8.- P.M.C.  S o.^ W W.    ",
"                                                                !.!.W._      .K G ~ / K ; 3.h.x.K.wXL.* -.@X.XB.< > (.) R T.    ",
"                                                                pXbXyX;.  E { G Y  .O./ x - 2.y.x.F.V.=XnXIXK.3.& C.N.F ! |     ",
"                                                                CXLXPX=.0 N T G J ) [ ! M s - 2.t.2.<XnXFXnX2 % i.B.* d ! /     ",
"                                                                cXJXPX=.i N T G z z c x k a s - = X -.BXFX>X< % l.2 . e ( |     ",
"                                                                pXCXZX=.g T ..U g w f h g p p d # + r :.mXnX2 6.b.V.. r Z @.    ",
"KXKX                                                            iXvXVX:.j { E.) f 0 f h w 5 8 p a y 4 e :.5X=XC.m.v.* $ b }.ZXKX",
"KXKX                                                              vXcX:.j E I.` g 0 f h 0 o o 8 i i 8 6 y n -X3XJ.H.i.= -XPXKXKX",
"                                                                    xX;.j H ` T g w h h 0 o O o 8 w 0 7 7 d -X4X1X2XZ.i.2XKXKX  ",
"                                                                       Xx K ) K h g z z w 5 5 4 0 w w 0 y d 3 ;X,X>X<XA.8XLX    ",
"                                                                        T ..U.T z h c c h f f f f h h j l d 1 *X;X>X;X<XeX      ",
"                                                                        R ..+.U z h z c c c c c c c z B V d .     5X_.5XFX      ",
"                                                                        T ) ) K z h z c K K G c c c c H I d         !.dX        ",
"                                                                        R +.+.U c x c K     G G c c G K R G                     ",
"                                                                      K ) U.U.R G G K       K G c G P E R I                     ",
"                                                                    T R E ) Y G H K         T G c K ~ [ ~ I                     ",
"                                                                    T ~ ~ H x c K T         E K c K [ o.} ~ P                   ",
"                                                                    T ` [ P c c K T         E K G H ~ O.Q.W.W H                 ",
"                                                                    T { ..E G G K T           R K G ~ Q.%X{.$.H                 ",
"                                                                    T { { R G G K K           ` T B P W.uX7X$.H                 ",
"                                                                    T ) ) T G G K K           ` T G G ) !.!._ K                 ",
"                                                                    T T T K G G K             E T G c P [ ' R K                 ",
"                                                                    K U K G G K T             T K c c H I ! H H                 ",
"                                                                    K K G G K T E             T K c c c B V V V                 ",
"                                                                    R U K T E E                 K H H L #.%.%.&.                ",
"                                                                    ..) E ` [                     R ` +.{.6XMXsX                ",
"                                                                     .` E [ }                     T } Y.}.6XsXsX                ",
"                                                                    X.R K ` o.                    G ~ o.{ $.W.Q.                ",
"                                                                    } P G { I.                    c E ' ^ I X.I.                ",
"                                                                    } T K ..Y.                    c E } R T  .E.                ",
"                                                                    } T K ..Y.                    G ~ } T U  .Y.                ",
"                                                                    } P K { E.                    K ` [ P J  .Y.                ",
"                                                                    } T G ` O.                    ` } } P J  .T.                ",
"                                                                    } T G E X.                    } o.} P K  .Y.                ",
"                                                                    o.E K U E                     } o.} K J +.Y.                ",
"                                                                    o.[ T c z                     [ X.} K J  .Y.                ",
"                                                                   .[ ` T z                         [ ` G G ..I.                ",
"                                                                T.{ K T R                             E G H [ o.                ",
"                                                              T.I.R G T [                             E E ~ | o.                ",
"                                                            I.I.{ G c E o.                            ] W.`.!.T.                ",
"                                                      T.I.O.X.` K c c ) I.                            @.|.MXMX}.E.              ",
"                                                       ...[ E K B z c ) T.                            @.[.6XsXuX|.              ",
"                                                        T K G G c x c ) T.                            } #.%.*.}.sX              ",
"                                                                                                      R B M I $.[.              ",
"                                                                                                      c c c B A A               ",
"                                                                                                      c c c c x x               ",
"                                                                                                      c G A c c c               "
};
