/* XPM */
static char *luke_150[] = {
/* columns rows colors chars-per-pixel */
"59 92 256 2 ",
"   c None",
".  c #010101",
"X  c #0B0303",
"o  c #02050B",
"O  c #0B050A",
"+  c #0A090D",
"@  c #180607",
"#  c #010513",
"$  c #030913",
"%  c #030D1B",
"&  c #060517",
"*  c #180D14",
"=  c #1B1419",
"-  c #0B1219",
";  c #251617",
":  c #30100C",
">  c #052E1B",
",  c #020D25",
"<  c #031124",
"1  c #04152C",
"2  c #171524",
"3  c #000737",
"4  c #001532",
"5  c #031D3C",
"6  c #0A1C3A",
"7  c #021738",
"8  c #19192F",
"9  c #241A25",
"0  c #2A1E2C",
"q  c #281926",
"w  c #311D31",
"e  c #03203D",
"r  c #13213A",
"t  c #0A3922",
"y  c #372639",
"u  c #2D2834",
"i  c #38261B",
"p  c #4E1900",
"a  c #4F240C",
"s  c #692C06",
"d  c #7A3808",
"f  c #74310C",
"g  c #45273A",
"h  c #4A372F",
"j  c #6C3D27",
"k  c #0D6E12",
"l  c #095037",
"z  c #067928",
"x  c #197A2C",
"c  c #136E2F",
"v  c #235614",
"b  c #4C541B",
"n  c #794116",
"m  c #53652A",
"M  c #684B34",
"N  c #021C43",
"B  c #041846",
"V  c #041C55",
"C  c #0C144C",
"Z  c #01244B",
"A  c #062447",
"S  c #022552",
"D  c #012B5C",
"F  c #052855",
"G  c #182E55",
"H  c #372743",
"J  c #323253",
"K  c #012C63",
"L  c #012966",
"P  c #02326A",
"I  c #043465",
"U  c #002B79",
"Y  c #033B72",
"T  c #023D7B",
"R  c #043775",
"E  c #173669",
"W  c #2B3768",
"Q  c #001B68",
"!  c #452D46",
"~  c #4A314C",
"^  c #55324C",
"/  c #4D3553",
"(  c #483558",
")  c #543758",
"_  c #402F52",
"`  c #643C59",
"'  c #543D65",
"]  c #663467",
"[  c #08504C",
"{  c #2C5753",
"}  c #0C7053",
"|  c #03417B",
" . c #184066",
".. c #34496F",
"X. c #237259",
"o. c #4B4C53",
"O. c #665148",
"+. c #514A6C",
"@. c #664775",
"#. c #67476F",
"$. c #6B6F72",
"%. c #676265",
"&. c #853A0A",
"*. c #8A3612",
"=. c #823F24",
"-. c #8A4108",
";. c #8A4517",
":. c #964A14",
">. c #AE5418",
",. c #9A5326",
"<. c #8F502D",
"1. c #A85828",
"2. c #AC562E",
"3. c #B16836",
"4. c #C36538",
"5. c #98664E",
"6. c #B26945",
"7. c #8B7F74",
"8. c #C87B52",
"9. c #C47549",
"0. c #009119",
"q. c #0DBD1D",
"w. c #0CB01A",
"e. c #019B2D",
"r. c #00972E",
"t. c #008B36",
"y. c #008B39",
"u. c #038536",
"i. c #009136",
"p. c #049736",
"a. c #118D2E",
"s. c #04A32C",
"d. c #02A92C",
"f. c #09B724",
"g. c #12BE22",
"h. c #18BE26",
"j. c #02A631",
"k. c #14B035",
"l. c #35B73A",
"z. c #309721",
"x. c #42AC3B",
"c. c #63983A",
"v. c #12C81D",
"b. c #30E81F",
"n. c #18C724",
"m. c #0DD328",
"M. c #16D429",
"N. c #09CD22",
"B. c #24CA2B",
"V. c #22C929",
"C. c #2ED032",
"Z. c #24E523",
"A. c #45E92E",
"S. c #4CEB35",
"D. c #48E734",
"F. c #52ED3B",
"G. c #56F13E",
"H. c #52F12C",
"J. c #52E838",
"K. c #098E4B",
"L. c #378B48",
"P. c #05926B",
"I. c #129F5A",
"U. c #56B865",
"Y. c #04C044",
"T. c #5BEF46",
"R. c #58F147",
"E. c #5DF150",
"W. c #62EF4C",
"Q. c #65F34A",
"!. c #69F352",
"~. c #6EF155",
"^. c #5DDA61",
"/. c #A5876F",
"(. c #D58F65",
"). c #E6936D",
"_. c #F3A679",
"`. c #E68C50",
"'. c #8AFD57",
"]. c #CDA23E",
"[. c #013A8B",
"{. c #044588",
"}. c #014B93",
"|. c #004695",
" X c #0E5094",
".X c #2E4F8D",
"XX c #006F93",
"oX c #014CA5",
"OX c #0255AA",
"+X c #0357A7",
"@X c #025AB4",
"#X c #135BAC",
"$X c #0D64B6",
"%X c #3372B4",
"&X c #215EA1",
"*X c #4F6690",
"=X c #717590",
"-X c #5077AA",
";X c #6972AD",
":X c #7C588E",
">X c #0466C7",
",X c #066DD4",
"<X c #0672DC",
"1X c #1573D6",
"2X c #2875C7",
"3X c #057AE9",
"4X c #007CFB",
"5X c #0558C9",
"6X c #7073C1",
"7X c #83578F",
"8X c #877D99",
"9X c #718994",
"0X c #6F8AAF",
"qX c #629D96",
"wX c #79C196",
"eX c #0685FD",
"rX c #1086F9",
"tX c #238DF0",
"yX c #3981C8",
"uX c #4E8ECA",
"iX c #51A5EC",
"pX c #6EA4DF",
"aX c #41BFC2",
"sX c #8C8B8E",
"dX c #8C94AB",
"fX c #8FA4B4",
"gX c #A0AEB8",
"hX c #E1BC98",
"jX c #99E994",
"kX c #B5FF9C",
"lX c #B9FF9A",
"zX c #ACFF92",
"xX c #BCFFA3",
"cX c #BBFFA6",
"vX c #A1CE98",
"bX c #C2FFA5",
"nX c #C3FFAB",
"mX c #CAFFAE",
"MX c #C7FFB2",
"NX c #D3FFB5",
"BX c #CAE3AB",
"VX c #A8B1D1",
"CX c #91ACD7",
"ZX c #B0C3CC",
"AX c #8EC6F8",
"SX c #96E3F7",
"DX c #D2D1CF",
"FX c #F5F9DB",
"GX c #D6D6EB",
"HX c #CDE8FD",
"JX c #FAFFED",
"KX c #F6FEE7",
"LX c #FCFEF7",
"PX c #EBE9EE",
"IX c #D5E0C8",
"UX c #C5B9D9",
/* pixels */
"    i.k.h.B.k.p.u.                                                                                                    ",
"    p.k.C.C.B.p.t.                                                                                                    ",
"y.p.k.C.G.~.W.B.e.t.                                                                                                  ",
"y.p.h.A.'.NXxXF.g.e.y.                                                                                                ",
"y.i.k.C.~.NXKXkXS.g.r.y.                                                                                              ",
"  y.p.k.C.~.mXJXkXA.g.r.u.                                                                                            ",
"    y.i.s.V.!.mXKXkXD.q.r.y.                                                                                          ",
"      y.p.s.B.Q.mXJXzXD.g.r.t.                                                                                        ",
"        y.p.s.B.!.bXJXkXD.q.r.y.                                                                                      ",
"          y.p.s.B.Q.bXJXzXD.g.e.t.                                                                                    ",
"            y.p.s.B.Q.bXJXkXA.g.e.y.                                                                                  ",
"              y.p.s.V.!.bXJXxXS.g.e.y.                                                                                ",
"                y.p.s.B.Q.bXJXkXA.g.e.t.                                                                              ",
"                  y.i.s.B.Q.bXJXxXD.g.e.y.                                                                            ",
"                    y.p.s.V.Q.bXJXxXS.g.e.t.                                                                          ",
"                      y.p.s.B.Q.bXJXxXS.q.e.t.                                                                        ",
"                        y.i.s.n.W.bXJXkXS.q.e.y.                                                                      ",
"                          y.p.s.B.W.bXJXkXS.g.e.t.                                                                    ",
"                            y.p.s.B.W.kXJXxXS.q.e.y.                                                                  ",
"                              y.p.s.B.T.xXJXkXS.g.e.t.                                                                ",
"                                y.p.s.B.Q.kXJXxXS.n.e.y.                                                              ",
"                                  t.p.s.n.W.bXJXcXS.g.e.t.                                                            ",
"                                    y.t.s.B.T.xXJXxXS.n.e.t.                                                          ",
"                                      y.t.s.n.W.bXKXcXS.n.e.t.                                                        ",
"                                        u.t.e.n.T.bXJXcXF.n.e.t.                                                      ",
"                                          y.t.s.n.T.xXJXbXS.v.e.y.                                                    ",
"                                            x.k.d.N.R.bXJXxXF.v.e.i.                                                  ",
"                                            ].c.a.s.m.R.xXJXcXF.v.j.t.b &.                                            ",
"                                            `.3.m z d.m.E.kXJXbXF.v.s.x b &.                                          ",
"                                            2.*.s v z j.m.R.kXJXxXF.N.j.x b n                                         ",
"                                            *.f p a b a.d.n.R.kXJXbXG.m.j.u.x                                         ",
"                                            3.<.f ,.3.m z s.m.R.xXJXbXR.n.s.i.                                        ",
"                                            _.(.8.).).2.b z d.m.R.kXJXbXS.n.s.p.                                      ",
"                                            ).)._._.).4.;.b z d.m.R.xXKXMXG.n.s.t.                                    ",
"                                            2.8.).).9.2.>.,.m a.d.v.R.xXJXMXG.n.e.t.                                  ",
"                                            d 1.8.8.3.1.2.4.,.b a.d.m.T.kXJXMXF.v.e.t.                                ",
"                                            ;.,.1.2.2.1.<.;.*.s { P.Y.v.G.xXJXbXT.n.s.t.                              ",
"                                            3.1.;.d ;.1.j : : y  XXXK.w.M.R.kXJXMXT.n.s.0.                            ",
"                                              3.-.p a d a . < T oXP > k d.M.R.lXJXbXW.n.s.0.                          ",
"                                                  @ X p s i I |.[.C 2 > z d.M.G.lXJXbXQ.B.0.a.wXfX.XC ,               ",
"                                                  + . p 3./.o.Z W @.] y t z d.M.R.lXKXNX!.h.e.K.P. XU 3 o . <         ",
"                                                  # X &.`.hXO.O H 7X7X! 8 l } j.Z.Q.kXFXNX^.s.k l P.X.1 3 E *Xo.      ",
"                                            _ ) H 2 ; <._._.<.@ q ' #.J B S [ z g.b.Q.lXFXjXa.t X.T.z.- U iXSXdXG     ",
"                                          r ~ ` ^ y J *XsX9.>.s ; y ' J F Q V > k q.Z.!.zXU.{ $.vX'.z.> X.aXSXiX X    ",
"                                        Z E ..' ^ g W $X&XO.5.<.a : ! J G B 3 , [ K.Y.M.C.L.+.VXIX^.z.c x.U.yX5XoX    ",
"                                      A  X>X XG w g ( W Y  X2X-XO.p : H y 2 4 U OXXXP.0.c $.UXGX0X{ x x.x.l 4 B V     ",
"                                    A R >X>XP % @ g ^ g G @X4XrX-Xo.* w ~ G F R [.| [ > r dXLXPX;XC x D.L.< . . &     ",
"                                  A Y OXOXP % . ; ! ^ g W OX>X>X1X X2 i ' .XY 4 # $ - $       LXVXW x A.l.> . , C G C ",
"                                5 F {.}.K # . @ y / ~ ~ W W F Z K Z $ : J .XE o . . @ O         PX=XL.H.H.x % W 0XfXfX",
"                              6 N D P F % . . 9 / / ~ / / y * X O O . X 9 / ! * . . O O           CXqXW.Q.l.c 9XPXLXLX",
"                              6 A F 5 $ . . . 9 ) / ~ / ! 9 ; g ^ g = X = y ~ H = . + +           0X0XqXwXU.l.jXJXLX  ",
"                              F Y P 5 $ . . $ 8 ! ~ ) / y = y @.7X#.9 + 9 w ~ ) ! 9 0 y           *X*X;X6XqXU.jXJX    ",
"                            F {.+XR Z < . % Z A u g / ~ 0 9 y #.:X@.y 0 0 9 y ) ' / ( (           A ..;X;X-X9XZX      ",
"                          D {. X| 5 $ $ 5 P R K A u y w y y y ! #.@.' H 9 9 0 y ) ' ( y           7 ..;X0X0XVX        ",
"                        N T |.P < . . $ | @X    K r = ; y ~ y 9 y ^ ) 0 + * 2 2 0 H ! a                     GX        ",
"                        F U P < . . o Z OX          = ; 9 y ; @ * q q * X @ * + o = j <.s                             ",
"                        o...y + # 1 F R               ; = @ X X 7 E o.O.%.%.O.; . : &.1.,.f                           ",
"                      ,.6.6.<.h F |.oX                      . 4 +XiXZXDXDXDXsXy i f d &.,.;.p                         ",
"                    3.8.4.>.>.<.+.>X                        4 #XiXHXJXHXAXpX-X&X9X/.n p a a @                         ",
"                  3.(.(.,.f &.2.5.                        . P tXAXPXKXAX1X[.U >XpXVX$.8 + @ +                         ",
"                  ).8.,.d f &.:.1.        4 6 6 6 6 N 5 $ . F +XyXVXGXpXoX3 3 [.%X%X2X|.6 w ~ y                       ",
"                  ).1.d ;.;.;.-.-.      D R R Y I S 6 1 $ . % S [.%XpXuXR & . < 7 K @X,X X..#.^ y                     ",
"                  6.;.;.1.1.:.&.      F OX<X>X+X}.Y A A < . o 5 K }.$X#XD # . . . # F @X<X XJ ` #.y                   ",
"                  ;.;.;.,.,.;.      P OX3X3X@X{.| {.{.{.I < o $ 5 P [.T N o . . . . o P @XR 0 ` @.y                   ",
"                  d     -.:.      B {.<X<XOXY A 5 Y OX@X}.F $ . < F K 7 # . . . . . . % Z 5 0 #.@.y                   ",
"                                  N {.>XOXR D 4 # 4 P R R I < . % A N % . - % . . . . . o + 0 ) ) 0                   ",
"                                  N R +X}.P S 5 $ o $ % 5 D 4 . . 4 I ..%.=X... . . . . . X ; y y 9                   ",
"                                  5 Y +X}.P A r 1 $ . o < 5 % . . 5 {.0XDXDXsX0 . . . . . O 9 0 9 ;                   ",
"                                  6 I {.{.E 0 ; - 1 N N 4 $ . o F R I o.$.7./.7.h X . . . % r r = ;                   ",
"                                  e F P K r : : X 1 F F 4 o . e @X@XA . . . o.gX9X2 . . # N K                         ",
"                                        4 O @ X . o < < < 4 4 I @X>XY % . o E uX%XS 3 7 N K                           ",
"                                        Z < o . . % e A Z D K P }.>X>XS . $ P @X[.V B K U                             ",
"                                        OX{.N o o S }.            <X3XY . o I oX{.G                                   ",
"                                        3X>XF . . 1 {.              eXOXe o 6 .X;XdX                                  ",
"                                        eX,X| % . . 1 R +X          eX3X}.< @ ! 8XZX                                  ",
"                                          3X,XY % . . < Y +X          eX>X5 . @ ..uX                                  ",
"                                            eX,XY % . . e +X          eX5X7 . @ ..uX                                  ",
"                                              eX,XY $ . < }.          tX1XG * g =XCX                                  ",
"                                                eX,XY $ . A }.        AXAXdXO.y +.0X                                  ",
"                                                  eX<X| % . A |.      DXDXhX/.y  .#X                                  ",
"                                                    eX<X{.< o A }.    $.M M %.sXfXCX                                  ",
"                                                      3X+X1 . o I OX  K < o u sXDXFX                                  ",
"                                                      >X| $ . . 4 F   P R N . ; sXPX                                  ",
"                                                      OXY < o % % o   D R A . . ..CXHX                                ",
"                                                      >X XF 1 < o       A 4 o o F 2XAXGX                              ",
"                                                    ,X3X>XI < o .       e Y I 4 % D %XiX                              ",
"                                                  {.+X@X{.4 . .           OX+XZ . # OXeX                              ",
"                                                  F Z 5 < o .               +X1 . # oXeX                              ",
"                                                    < . . .                   % . o F {.                              ",
"                                                                                . . . o                               ",
"                                                                                . . . .                               ",
"                                                                                . . . .                               "
};
