/* XPM */
static char *luke_6[] = {
/* columns rows colors chars-per-pixel */
"39 114 256 2 ",
"   c None",
".  c #010101",
"X  c #0A0303",
"o  c #01040A",
"O  c #0A0A0C",
"+  c #180A07",
"@  c #020A14",
"#  c #020D1C",
"$  c #050715",
"%  c #150D16",
"&  c #09131A",
"*  c #1B1319",
"=  c #26181C",
"-  c #2C120E",
";  c #010D25",
":  c #02142B",
">  c #061428",
",  c #191728",
"<  c #021B35",
"1  c #051A38",
"2  c #191A33",
"3  c #0D0E30",
"4  c #271A27",
"5  c #341E29",
"6  c #2B162F",
"7  c #02203D",
"8  c #1A283A",
"9  c #362429",
"0  c #2A2336",
"q  c #34253C",
"w  c #38263A",
"e  c #2F262E",
"r  c #28231D",
"t  c #541A01",
"y  c #4B1201",
"u  c #5B2302",
"i  c #4E2819",
"p  c #783708",
"a  c #6A310D",
"s  c #492B34",
"d  c #6E231E",
"f  c #004A15",
"g  c #0E5530",
"h  c #0A6F31",
"j  c #305C22",
"k  c #714E2E",
"l  c #625729",
"z  c #021B42",
"x  c #030E54",
"c  c #012344",
"v  c #092243",
"b  c #05264B",
"n  c #022957",
"m  c #173459",
"M  c #102D4F",
"N  c #3D2B43",
"B  c #392845",
"V  c #2C314E",
"C  c #032D62",
"Z  c #022B66",
"A  c #01346C",
"S  c #043567",
"D  c #013A73",
"F  c #023878",
"G  c #103472",
"H  c #241F61",
"J  c #422C47",
"K  c #46314D",
"L  c #4A3455",
"P  c #53395B",
"I  c #553558",
"U  c #51304F",
"Y  c #573E65",
"T  c #4E3B69",
"R  c #643A70",
"E  c #582B50",
"W  c #324B53",
"Q  c #236B48",
"!  c #0E447A",
"~  c #254976",
"^  c #324D6C",
"/  c #256A54",
"(  c #504D55",
")  c #5C4369",
"_  c #4D576A",
"`  c #64456B",
"'  c #6A4A78",
"]  c #6F4F77",
"[  c #536578",
"{  c #716A75",
"}  c #645558",
"|  c #853D26",
" . c #8F4A16",
".. c #884727",
"X. c #955328",
"o. c #AA5A29",
"O. c #AD592D",
"+. c #956B33",
"@. c #B66C32",
"#. c #A2571D",
"$. c #CA7138",
"%. c #D3612B",
"&. c #967257",
"*. c #AD7149",
"=. c #A06960",
"-. c #CE744B",
";. c #008E0D",
":. c #008A2D",
">. c #008D25",
",. c #009C23",
"<. c #009727",
"1. c #008A32",
"2. c #008C38",
"3. c #068739",
"4. c #039436",
"5. c #049A36",
"6. c #059938",
"7. c #199931",
"8. c #308F36",
"9. c #04A525",
"0. c #16B72C",
"q. c #04A638",
"w. c #17AB37",
"e. c #05B737",
"r. c #1AB635",
"t. c #0BB92A",
"y. c #26BA34",
"u. c #0BBD1C",
"i. c #49993B",
"p. c #27DF1C",
"a. c #3BF714",
"s. c #2FEE11",
"d. c #17CB2E",
"f. c #29C529",
"g. c #2DCB28",
"h. c #37DA29",
"j. c #2CC538",
"k. c #34CB3B",
"l. c #38D63A",
"z. c #25D930",
"x. c #37E528",
"c. c #39E133",
"v. c #19CD19",
"b. c #44FA1C",
"n. c #50FF1D",
"m. c #46D736",
"M. c #48F824",
"N. c #55FE29",
"B. c #49E837",
"V. c #53EC3B",
"C. c #59F936",
"Z. c #45EE2E",
"A. c #65FF39",
"S. c #268E45",
"D. c #1B9E47",
"F. c #4BB14E",
"G. c #61BB6D",
"H. c #449765",
"J. c #5BF246",
"K. c #69FB47",
"L. c #73FE49",
"P. c #79FD57",
"I. c #6AEF55",
"U. c #7BF169",
"Y. c #57D056",
"T. c #AD9537",
"R. c #C6A237",
"E. c #979179",
"W. c #D28752",
"Q. c #EA8C52",
"!. c #D69671",
"~. c #EF976A",
"^. c #F8AB73",
"/. c #84FF5D",
"(. c #88FD69",
"). c #89F973",
"_. c #92FC77",
"`. c #92FF6D",
"'. c #003A85",
"]. c #002D93",
"[. c #034587",
"{. c #034A97",
"}. c #02519B",
"|. c #174E8E",
" X c #0155A4",
".X c #0258AC",
"XX c #025CB5",
"oX c #0B52A6",
"OX c #0162BC",
"+X c #1A66AA",
"@X c #276BB2",
"#X c #1C6596",
"$X c #755285",
"%X c #705289",
"&X c #536D92",
"*X c #6D7C8E",
"=X c #4E76AD",
"-X c #50589D",
";X c #0467C7",
":X c #046CD5",
">X c #0773DD",
",X c #1372D1",
"<X c #2F75C5",
"1X c #0478ED",
"2X c #0F5CCB",
"3X c #4073E4",
"4X c #855292",
"5X c #89728C",
"6X c #748CB0",
"7X c #73A09C",
"8X c #0984FB",
"9X c #1885F4",
"0X c #2C93F2",
"qX c #31A3FB",
"wX c #6797D0",
"eX c #5CA5E9",
"rX c #63A6E3",
"tX c #40ADC6",
"yX c #908F95",
"uX c #8E95B1",
"iX c #ABA8AE",
"pX c #A59690",
"aX c #E7BB9A",
"sX c #9BFA85",
"dX c #84E582",
"fX c #A9F998",
"gX c #B2FE99",
"hX c #A7FE8D",
"jX c #B7EFAD",
"kX c #B1EEA7",
"lX c #B4F9A5",
"zX c #BAF8AA",
"xX c #B1EAAE",
"cX c #9FE1A7",
"vX c #C6FBB7",
"bX c #C9FBB8",
"nX c #E8CBAC",
"mX c #9B91CC",
"MX c #90B2CA",
"NX c #ACB9D1",
"BX c #91A1E9",
"VX c #92C6F4",
"CX c #AACFE9",
"ZX c #CCF8C4",
"AX c #D7FBCB",
"SX c #DBF8D4",
"DX c #E4FCDA",
"FX c #EAF9E5",
"GX c #F1FBED",
"HX c #F6FAF4",
"JX c #FEF8FE",
"KX c #FDFAFD",
"LX c #F9FBF6",
"PX c #F1E7F6",
"IX c #D4D2DE",
"UX c #C8BDC0",
/* pixels */
"              2.2.2.:.:.:.:.:.2.2.2.2.2.2.2.2.2.2.2.2.2.2.                    ",
"              4.6.4.<.,.,.,.,.<.4.4.4.4.4.4.4.4.4.4.4.4.4.                    ",
"            6.0.0.0.r.r.r.r.r.r.r.r.r.r.r.0.0.r.r.r.y.y.w.4.                  ",
"          w.g.x.s.Z.dXxXxXxXcXI.Z.Z.B.Z.x.x.x.x.B.B.V.V.l.w.4.                ",
"    4.6.0.h.C.L./.sXDXJXJXJXGXsXN.N.A.L.P.`.`.P.A.A.L.L.C.j.5.2.              ",
"2.4.w.k.Z.N.`.bXDXFXJXJXJXJXGXsXN.N.M.K.lXFXFXgXL.C.A.L.V.j.5.2.              ",
"2.6.r.Z.A.`.AXJXJXJXJXJXJXJXFX_.M.M.a.K.ZXJXJXbXK.N.C.V.k.w.4.2.              ",
"2.4.0.x./.AXJXJXJXJXJXJXJXJXFX_.M.M.M.P.AXJXJXbXL.N.C.l.w.4.2.                ",
"2.4.0.p.(.DXJXJXJXJXLXLXJXJXFX_.a.M.U.vXGXJXJXbXL.N.C.k.5.2.                  ",
"2.4.0.p.P.AXJXJXJXJXLXJXJXJXLXsXa.M.fXJXJXJXFXfXL.A.C.j.6.2.                  ",
"2.4.t.p.P.SXJXJXJXLXJXJXJXJXFX_.a.M.fXJXJXSXsXK.A.A.V.w.2.                    ",
"2.<.0.I.zXGXJXJXJXJXJXJXJXFXlXI.a.a.sXJXJXZXK.b.C.J.k.6.2.                    ",
":.,.f.kXLXJXJXJXJXJXJXJXJXzXK.b.M.C.fXJXJXAXP.N.C.m.r.4.2.                    ",
":.,.f.bXJXJXJXLXLXJXJXJXJXfXb.a.K.fXDXJXJXSX(.N.C.l.w.4.2.                    ",
":.,.f.jXJXJXJXLXJXJXJXJXJXlXb.a.).FXJXJXFXzXP.C.Z.j.q.4.2.                    ",
"2.,.f.jXJXJXJXLXJXJXJXJXJXlXM.a.).FXJXJXlXP.A.Z.g.w.4.2.2.                    ",
"2.,.f.jXJXJXJXLXLXJXJXJXJXlXb.s.P.SXJXLX).N.N.B.r.4.2.2.                      ",
"2.,.f.jXJXJXJXJXLXJXJXJXJXfXM.a.).FXJXJXsXN.N.B.y.4.2.                        ",
"2.,.f.jXJXJXJXJXLXJXJXJXJXfXC.U.ZXJXJXLXhXA.C.V.y.6.2.                        ",
"2.,.f.jXJXJXJXJXLXJXJXJXJXfXK.zXJXJXJXAX).C.C.l.r.4.2.                        ",
"2.,.f.jXJXJXJXJXJXJXJXJXJXsXK.vXJXJXZX`.K.C.l.r.6.2.                          ",
"2.,.f.jXJXJXJXJXJXJXJXHXvXK.C.zXJXLXfXC.M.V.j.q.2.                            ",
"2.,.g.jXJXJXJXJXJXJXJXAXI.a.K.ZXJXLXlXA.N.V.j.6.2.                            ",
"2.9.g.zXJXJXJXJXJXJXJXzXN.C.lXFXJXJXvXL.N.V.r.4.2.                            ",
"2.9.h.zXJXJXJXJXJXJXJXzXJ._.GXJXJXDXfXK.N.l.q.2.2.                            ",
"2.,.g.zXJXJXJXJXJXJXJXlXC.sXLXJXDXsXL.C.c.r.4.                                ",
"2.,.f.jXJXJXJXJXJXJXJXfXC.).FXJXZXL.N.C.l.w.                                  ",
"2.,.f.jXJXJXJXJXJXJXJXlXK.sXFXJXSXP.N.Z.z.8.                                  ",
"2.,.f.jXJXJXJXJXJXJXJXSXlXZXLXJXDX(.Z.z.e.8.*.                                ",
"2.,.f.jXJXJXJXLXJXJXJXJXLXJXJXLXvXP.x.e.6.8.*.-.                              ",
"2.,.f.jXJXJXJXJXJXJXJXJXJXJXFXlXP.A.c.e.6.8.T.W.-.                            ",
"2.,.f.jXJXJXJXJXJXJXJXJXJXJXDX`.n.N.c.w.S.i.+.@.$.                            ",
"2.,.f.jXJXJXJXJXLXJXJXJXJXJXFX_.n.M.z.D.l ..p  .R.                            ",
"2.,.f.jXJXJXJXJXLXJXJXJXJXJXLXhXN.x.e.3.l d y p R.                            ",
"2.,.f.jXJXJXJXJXLXJXJXJXJXJXAX`.Z.d.e.2.j y y p T.                            ",
"2.,.f.jXJXJXJXLXLXJXJXJXJXAX`.A.V.d.e.2.j t y a #.                            ",
"2.,.g.zXJXJXJXLXLXJXJXJXJXfXN.M.l.r.D.i.l p u u a                             ",
"2.9.h.zXJXJXJXLXJXJXJXJXJXlXN.p.d.6.8.+.o. .p a t                             ",
"2.,.g.zXJXJXJXLXJXJXJXJXJXzXC.p.e.2.j o.%.O. .p t                             ",
"2.,.f.jXJXJXJXJXJXJXJXJXFXgXC.d.e.D.l X.O.O. .a t                             ",
"2.,.f.jXJXJXJXJXJXJXJXDXhXP.Z.e.D.E.W.O.o. .a y                               ",
"2.,.f.jXJXJXJXJXJXJXJXZXL.b.z.q.Q &.-.$. .p u -                               ",
"2.,.f.jXJXJXJXJXJXJXJXAXL.s.d.q.g 9 | -.o.p t - * 0 B J                       ",
"2.,.f.jXJXJXJXJXJXJXJXDXP.p.d.q.f . d ~.Q.| - X O 0 ) 5X{                     ",
"2.,.f.kXJXJXJXJXJXJXLXvXP.x.e.4.f . s ~.~.X.+ . $ w { iXpX) V G               ",
"2.,.f.kXJXJXJXJXJXFXzX/.A.l.5.g & . % k !.*.- . 2 K ] 5X5X5XyX6X~             ",
"2.,.f.kXJXJXJXJXJXDX(.n.Z.d.h 8 4 X . O E.!.i + B Y ` ' R %XuXNX6X~           ",
"2.,.f.kXJXJXJXJXJXFX`.a.v.e.3.W J * . O yXaX+.i U ' $X] U M |.wXNXuX~         ",
"2.,.f.kXJXJXJXJXJXLX_.x.d.9.3.W U 6 . O yXaX-...` $X4X] 5 ; '.9XrX6X~         ",
"2.,.g.kXJXJXJXJXJXDX`.Z.d.q.S._ U 4 . O =.^.Q.=.%X%X] ) - @ S :X,XoXF         ",
"2.9.h.kXJXJXJXJXAX`.L.x.e.Q [ $XY 4 . X *.^.Q.5X@X|.P U w > : n F {.{.'.      ",
":.9.h.zXJXJXJXLXgXN.M.z.6./ $X4X' w . . &.Q.$.[ ;X|.w s V 1 . . ; C '.F Z     ",
"2.9.h.zXJXJXJXLXhXM.p.t.4./ R 4X$XL $ X ..%.o._ .X[.5 5 8 1 @ . . # b S C     ",
"2.9.h.zXJXJXGXvX(.c.t.2.Q ( ' $X$X) 2 + p o.{ +X.XG s s 5 2 c : . o m &X*X    ",
"2.9.h.zXJXJXbXP.Z.d.q.h N R ' $X' Y 0 - u } @X>X Xm J s s 0 D [.< # ~ rXNX    ",
"2.9.h.zXJXJXvXC.p.r.6.g 0 J I ) ` P w = = V [.[.S M w s -     OX{.z M tXeX@XS ",
"2.9.h.zXJXJXbXK.p.r.q.g * 6 J Y ` Y s , ; ; # : V N w = +       ;Xn @ D :X XS ",
":.9.x.zXJXJXAXL.h.e.q.h * 6 I ' ' ) w * o . . 4 ) ` K = +       :XC . b  X[.C ",
":.9.h.bXJXJXAXK.v.e.q.h , 6 I ' ` K e % . . 4 P ] ` J 4 +       ;Xn . : D C z ",
":.9.m.gXJXJXvXJ.t.6.    , 6 B L K q 4 % . * Y $X` L w = +       ;XA # ; n C b ",
"2.w.Z.P.hXgXU.k.q.1.    * 6 q 0 q w q % . , ' $XP J N 4 +         }.A n F {.XX",
"4.w.Z.P./.A.x.r.q.h     * q N w w N q * % 0 ) ) P L K 5 +           XXD C XX1X",
">.9.m.gXvXP.v.9.6.      * w P P J e * 4 K Y P K L P L 5 +           .Xb : [.;X",
";.;.k.ZXLXU.u.<.6.      * N Y P w , O 4 ) $XK w K P K 5 +           A # o C .X",
"7.w.Y.SXFXG.;.:.4.      , B J 0 4 0 6 w ) ` B 4 w P L q *           : . @ A XX",
"cXxXZXLXIX_ f h         B B 4 $ , B T ) ) P 0 4 B I L 5 *           O . @ D XX",
"PXPXJXJXIX-XM           ` s 4 9 s U ` ` K B ` 5X5X` s -             S # @ A XX",
"mXmXNXPXIX3X#X          *.s 9 k ..a a d i ( iXIXUX} 4               XXb @ S XX",
"H./ -XmXBX2X#XK.        | r - a p y u #.&.{ E.pX&.9 #               '.; # F OX",
"m.8.W &X&X~ Q B.A.      * O X - - + i -.aXyXW * + X 1               % X @ S .X",
"G.F.F.Y.Y.i.8.Q 8.      3 , * 5 w J I =.=.[ S F Z : M >X            X.a - 9 W ",
"7XG.m.m.C.A.F.W H       w B B J Y %X' K 4 2 D XX Xb 2 [.{.        aX^.W.o. . .",
"Y.F.g g 8.C.I.&X-X      w K L K P ) Y w % o : b c # @ z b B     nX^.W.W.~.-.@.",
"7.Q H x g m.).MXBX      w P ) P J J N w 5 * X X X . @ b C B     Q.X.p @.!.-.O.",
"W ^ -XH g y.Y.7XwX      w Y ' ) J w w N N 5 = = - + c XXXXV      .a u ..*.O. .",
"uXuX6X&X^ h h ^ _     5 w P ` P w w K ) Y N e s J V [.1X:XM       u t ..@.X.p ",
"HXIX=X=X=X&XV 1 2   w w N L P J B K ' $X] J 4 q J V F XX{.2         a ..O.X. .",
"    ~ {.eXCXyXV 3   w w N L L N K ` $X4X' N % * q , : n M ,         p  . .    ",
"      ].qXCXMXV     N w q w N w N ) ' ` I 4 . O * % 0 _ _ 2          .p       ",
"          qX@X      J q 4 = = = 4 4 5 5 4 % . X O # W yXyXm                   ",
"                      w 2 @ . X . . . o & > % + % @ 8 [ [ b                   ",
"                        7 # . . . . . . : 1 2 = X . , W ^ v                   ",
"                        v < # . . . . .     v & . o W yX*XM                   ",
"                        < M C < . . o :       : o @ V yX*Xm 1                 ",
"                        b [.}.C @ . ; n         : @ X = 8 C b 1               ",
"                      n {.OXXXD $ . : F         7 # . . ; F D v               ",
"                    : ~ 0X0X;Xn @ o < S         1 # . o C XX{.v               ",
"                    : [ VXVX,Xz o : C           1 @ . # {.>XoXv               ",
"                    : _ MXrX|.; o b '.          < @ . @ [.;X{.v               ",
"                    1 ~ @X+Xb . @ n F           1 @ . . 1 F S v               ",
"                    1 C '.F : . o c C             : o . o z b v               ",
"                    : 1 z : @ . o : v             b : o . # : :               ",
"                    ; # . . . . o 1 v             C n : . . @ :               ",
"                    ( ( ( 0 1 : : v                 S C 1 : b D               ",
"                    IXnXUXwX;X'.b                     {.D C {.>X              ",
"                    VXMXuXwX>XF :                      XD c [.>X              ",
"                    8X+Xm [.{.c .                     XXn @ b .X              ",
"                    1X{.z A [.< .                     >XA . < }.              ",
"                    8X{.1 C {.7 .                     8X[.o 7  X              ",
"                    8X{.# n {.c .                     8X[.o 7  X              ",
"                    8X{.@ c {.C #                     >XD o c  X              ",
"                    8X}.@ 7  X{.F                     .Xn . c  X              ",
"                    8X}.@ 1 .X;X X                    F < . b  X              ",
"                    8X}.@ 7 .XOX X                    b : ; S OX              ",
"                    8X{.@ < }.{.D                     * , b [.OX              ",
"                    :XS o : F F                         , b b ! >X            ",
"                    XXA ; ; n                             n # :  X8X          ",
"                     X{.[.F n                             ! # . n :X1X        ",
"                    0XeXeX<XF                             OXc . @ F ;X:X      ",
"                  0XVXPXIXwX.X                            1XC . . ; F  X;X1X8X",
"                  VXVXiXyX&X;X                            8XA o . . # z S {..X",
"                  NX=Xm & v }.                            8XS o . . . . o : v ",
"                  ( v @ . o <                                                 ",
"                  . . . . . .                                                 "
};
