/* XPM */
static char *luke_91[] = {
/* columns rows colors chars-per-pixel */
"92 62 256 2 ",
"   c None",
".  c #010102",
"X  c #01040B",
"o  c #0B0606",
"O  c #160905",
"+  c #020A14",
"@  c #010D1B",
"#  c #050816",
"$  c #170E16",
"%  c #121213",
"&  c #26141A",
"*  c #2D1006",
"=  c #010D23",
"-  c #010829",
";  c #021225",
":  c #01142B",
">  c #081527",
",  c #010D34",
"<  c #021C3C",
"1  c #041835",
"2  c #181A37",
"3  c #15172C",
"4  c #281B28",
"5  c #351C2A",
"6  c #2E1B34",
"7  c #17233B",
"8  c #082536",
"9  c #372437",
"0  c #302734",
"q  c #023515",
"w  c #4B1A01",
"e  c #53240D",
"r  c #682B09",
"t  c #743509",
"y  c #6D3611",
"u  c #45283A",
"i  c #49292E",
"p  c #6D3A2A",
"a  c #401C25",
"s  c #0A7231",
"d  c #144E19",
"f  c #714833",
"g  c #5C4B3D",
"h  c #021E42",
"j  c #031A49",
"k  c #000F4E",
"l  c #032244",
"z  c #02234B",
"x  c #08274A",
"c  c #162744",
"v  c #012453",
"b  c #032C5B",
"n  c #052956",
"m  c #123159",
"M  c #292848",
"N  c #392945",
"B  c #2F3354",
"V  c #012D63",
"C  c #00296A",
"Z  c #023265",
"A  c #03366B",
"S  c #022977",
"D  c #023A76",
"F  c #153A69",
"G  c #0F2367",
"H  c #462C45",
"J  c #48314B",
"K  c #55314B",
"L  c #493456",
"P  c #553958",
"I  c #502D43",
"U  c #643A54",
"Y  c #583D63",
"T  c #513C6A",
"R  c #044947",
"E  c #07457F",
"W  c #2E4C6F",
"Q  c #1A5B66",
"!  c #524A54",
"~  c #6A4F53",
"^  c #534F66",
"/  c #674974",
"(  c #6A4C6F",
")  c #576473",
"_  c #686B70",
"`  c #8E3809",
"'  c #894718",
"]  c #98581B",
"[  c #8F4C11",
"{  c #995327",
"}  c #93502A",
"|  c #A65829",
" . c #A95C32",
".. c #B76736",
"X. c #B06C2F",
"o. c #A85E16",
"O. c #C77134",
"+. c #CF6525",
"@. c #9F6248",
"#. c #C77948",
"$. c #00992C",
"%. c #008C35",
"&. c #008839",
"*. c #009334",
"=. c #019A33",
"-. c #019138",
";. c #008C2C",
":. c #00A42B",
">. c #02AC2C",
",. c #01A827",
"<. c #01B426",
"1. c #03BB24",
"2. c #03B22B",
"3. c #0ABC2A",
"4. c #07BC29",
"5. c #02A731",
"6. c #12B235",
"7. c #02A418",
"8. c #0AD219",
"9. c #2AD418",
"0. c #19E815",
"q. c #0AC724",
"w. c #15C82B",
"e. c #19D624",
"r. c #0DD829",
"t. c #25DB29",
"y. c #28DA29",
"u. c #2DD036",
"i. c #2AE428",
"p. c #39E927",
"a. c #3DE733",
"s. c #38FA30",
"d. c #25E21D",
"f. c #4FDB38",
"g. c #47F628",
"h. c #45E935",
"j. c #57F737",
"k. c #52F334",
"l. c #68FA39",
"z. c #71F83D",
"x. c #09AE50",
"c. c #3BCA42",
"v. c #00C34E",
"b. c #51D846",
"n. c #5AEA42",
"m. c #73EE4D",
"M. c #67FA44",
"N. c #78F74B",
"B. c #71F04E",
"V. c #6ADF46",
"C. c #6D8608",
"Z. c #BB8D2A",
"A. c #808B20",
"S. c #C4873A",
"D. c #C69737",
"F. c #CC8E36",
"G. c #D1AC3C",
"H. c #CE8C4B",
"J. c #E38951",
"K. c #D5AE4D",
"L. c #DE936C",
"P. c #FBA976",
"I. c #E6A563",
"U. c #88FC49",
"Y. c #88FA52",
"T. c #97FC58",
"R. c #92FB4E",
"E. c #A7FC5A",
"W. c #B3FF5C",
"Q. c #9DF962",
"!. c #8EF96A",
"~. c #ABFC65",
"^. c #BCFD6B",
"/. c #B5FD67",
"(. c #B7FC76",
"). c #ACFA74",
"_. c #C6FE6B",
"`. c #C9FC75",
"'. c #D3FD7A",
"]. c #AE9E46",
"[. c #003A84",
"{. c #003B98",
"}. c #012991",
"|. c #02438B",
" X c #034586",
".X c #024B95",
"XX c #03519C",
"oX c #195592",
"OX c #2E588E",
"+X c #0356A9",
"@X c #025CB5",
"#X c #035AB7",
"$X c #0852AE",
"%X c #0562BA",
"&X c #1A6EBF",
"*X c #3574B0",
"=X c #1A6892",
"-X c #735186",
";X c #717C89",
":X c #4867A2",
">X c #015AC8",
",X c #0466C8",
"<X c #026AD7",
"1X c #0D73D7",
"2X c #0678E8",
"3X c #077AF1",
"4X c #2A78CA",
"5X c #896294",
"6X c #078E9C",
"7X c #3089DA",
"8X c #0F89F8",
"9X c #2B91F4",
"0X c #54ACF6",
"qX c #70B5F3",
"wX c #68A1D0",
"eX c #72C6FC",
"rX c #7A9BBB",
"tX c #8A8B96",
"yX c #B49791",
"uX c #AEA5AA",
"iX c #A7A4A4",
"pX c #CBAE86",
"aX c #D89C86",
"sX c #B6FD8B",
"dX c #BDEFB1",
"fX c #C7FD8A",
"gX c #D5FA84",
"hX c #DBFC89",
"jX c #C8FC96",
"kX c #D9FA98",
"lX c #D7CDB8",
"zX c #D9FAB6",
"xX c #D9FCAB",
"cX c #E4FAA8",
"vX c #E6F9B6",
"bX c #F2FBB1",
"nX c #E0FA95",
"mX c #8AACCE",
"MX c #AAB9C7",
"NX c #8FC3EE",
"BX c #B0D2E9",
"VX c #CECED6",
"CX c #ECF9CB",
"ZX c #E9F9C5",
"AX c #EEF8D1",
"SX c #EAF9D8",
"DX c #F3F8D9",
"FX c #EFF0D2",
"GX c #F3F9E3",
"HX c #F4F9EB",
"JX c #FBFBE9",
"KX c #FAF9F5",
"LX c #FAF8FA",
"PX c #F8F8F7",
"IX c #F2F2EC",
"UX c #D3F0D9",
/* pixels */
"              [ X.K.lXVXVXVXlXK.F.....                                                                                                                                                  ",
"            ' ] Z.K.pXyXyXpXpXK.S.S.S.                                                                                                                                                  ",
"          t ] D.G.D...} ] Z.H.O...D.G.                                                                                                    %.%.=.5.2.<.<.>.>.>.>.>.<.<.:.-.              ",
"          t ] G.K...` [ o.Z.X.{ | H.H.                                                                                              %.%.%.-.:.3.t.i.d.0.9.f.f.f.f.f.y.e.2.-.            ",
"          ' X.D.H.X.] X.D.X.' r t { ..                                                                                            =.%.-.5.3.e.p.j.N.!.!.!.sXfXjXjXfX!.j.e.:.&.          ",
"        ' X.S.#.H.D.Z.S.#. .y w w ` [                                                                                       %.=.5.:.:.1.e.h.z.U.T.sXSXHXHXHXJXJXJXJXGXsXg.q.$.%.        ",
"        [ D.K.H.H.D.X.{ {  .{ y '  .}                                                                                     %.-.5.4.w.u.h.j.U.(.jXzXSXLXLXLXLXLXLXLXLXLXZXT.p.3.=.-.      ",
"        [ D.K.K.H.} r e ' H.L.H.J.L.~                                                                                   -.%.5.4.e.a.z.R.T.(.ZXLXLXLXLXLXLXLXLXLXLXLXLXJXkXU.i.4.>.      ",
"        [ D.K.H.} e w r { #.L.P.P.L.! , -                                                                       &.%.=.5.=.$.1.e.s.z.R.E.sXZXLXLXLXLXLXLXPXPXPXPXLXLXLXLXDXfXl.e.<.2.    ",
"        ] F.F.| y r y {  ...H.P.I. .H V C b                                                                   %.-.-.:.2.2.w.t.g.z.Q.(.sXZXLXLXLXLXLXLXLXPXPXPXPXLXLXLXLXLXvXT.p.q.2.    ",
"        ] O. .y e `  . .{ | #.J.O.' B @X<X+Xx                                                               %.=.>.3.q.8.t.k.N.U.T.zXGXHXPXLXLXLXLXLXLXLXPXPXPXPXLXLXLXLXLXZX^.l.e.2.    ",
"        [ @.~ a * r | .. . .....+.] ^ ,X3X,Xb #                                                           &.%.:.w.a.j.k.l.T.fXxXzXHXLXLXLXLXLXKXPXPXLXLXLXLXLXLXLXLXLXLXLXZX'.T.a.>.    ",
"          K L N # O r  ...{ t t o. .! |.#X+XA < b                                                       -.s ;.1.a.U.E.T.T.sXGXLXLXLXLXLXLXLXPXLXLXLXLXLXLXLXLXLXLXLXLXLXKXvX'.~.n.>.    ",
"          6 B B 2 X O y { y O * e f N v D D b Z .X+X                                              -.5.>.$.;.$.u.N.E.E.E.jXSXLXLXLXLXKXPXLXLXLXPXLXLXLXLXLXLXLXLXLXLXLXLXKXvX`.~.n.3.$.&.",
"          ( ( / P 3 . * t e . . # 6 7 h v < 1 A ,X<XXX                                          %.-.:.3.6.6.u.!.fXfX).sXSXLXLXLXLXLXLXLXLXLXPXPXLXPXLXLXLXLXPXPXLXLXLXLXKXZXkX^.N.t.>.-.",
"        ^ iXuX5X-XL # * t ` * . X 2 N M < @ . < @X3X%Xn                                       &.-.:.1.u.n.m.!.zXJXGXSXSXPXLXLXPXPXPXLXLXLXLXPXPXPXPXPXLXLXLXPXPXLXLXLXLXLXPXAXkXT.k.q.:.",
"      $ 9 ;X;X-X-X-XJ 5 p | [ w O 9 Y Y M > X X V >X@Xn >                                   &.%.5.w.i.l.T.^.zXKXLXLXLXLXLXLXLXLXPXPXPXPXPXPXLXLXLXLXPXPXPXPXPXPXLXLXLXLXLXLXKXcX_.N.u.2.",
"    6 o % M B m T -X-XL H @.O.] e 9 Y / P 7 ; . @ b A z <                           %.5.  =.-.:.w.k.R.E.~.xXKXLXLXLXLXLXLXLXLXLXLXLXPXPXPXPXLXLXLXLXPXPXPXPXPXPXLXLXLXLXLXLXKXcX`.T.u.2.",
"    2 h W ;X) x 1 J / M 2 @.P.J.y & N Y P 9 # . . X < n v x                       %.-.:.>.>.<.e.g.R.jXZXZXSXLXLXLXLXLXLXLXLXLXLXLXLXLXLXPXLXLXLXPXPXPXPXLXLXLXLXLXLXLXLXLXLXHXcX`.~.c.>.",
"    h |.7XNXrXF X $ J 2 o @.P.J.f 7 2 H P N # . . . : V V <                     $.=.6.3.1.8.p.M.T.jXGXLXLXLXLXLXLXLXLXLXLXLXLXLXLXLXLXLXPXLXLXLXPXPXPXPXLXLXLXLXLXLXLXLXLXLXHXcX`.Q.c.>.",
"    z @X9X0X*XZ . O L M o f O.+.^ +XD u K N 3 X . . ; V Z j               -.=.:.$.6.V.j.p.k.Q.zXSXHXLXLXLXLXLXLXLXLXPXPXLXKXKXKXPXPXLXLXLXLXLXLXLXLXPXPXPXPXLXLXLXLXLXLXLXLXHXcX`.Q.c.>.",
"    z +X2X#X[.z . O 9 N 4 e ` ` ^ 3X,XB H L M 3 X . X h D S j           $.$.6.u.u.V.~.^.sXsXZXLXLXLXLXLXLXLXLXLXLXPXPXPXLXKXLXKXPXPXLXLXLXLXLXLXLXLXLXLXPXPXLXLXLXLXLXKXLXLXHXcX`.Q.f.3.",
"    x |.@X[.v : . . o 6 N & * r ) 8X3XXXB I L B : X . # Z {.S s     =.=.,.>.b.Y.T.W.gXZXHXKXLXLXLXLXLXLXPXLXLXLXLXLXPXPXPXPXLXLXPXPXPXPXLXLXLXLXLXLXLXLXPXPXPXLXPXPXPXPXLXLXHXcX`.T.h.e.",
"    l A  XA l : = X X 6 J 4 % W 4X3X2X+Xc i P B   : X . ; S }.Q w.8.1.w.u.b.Y.W._.gXZXLXLXLXLXLXPXPXLXLXLXLXLXLXLXLXPXPXPXLXLXLXPXPXPXPXLXLXPXPXLXLXLXLXPXPXPXLXPXPXPXPXLXLXKXcX`.E.h.e.",
"    l v V A V m W W x M K 5 x +X<X#X+XE 7 i K B   h : . . - S 6Xt.0.i.k.N.~./.(.jXZXKXLXLXLXLXLXPXPXPXPXLXLXLXLXLXLXPXPXPXLXLXLXLXLXLXLXLXLXPXPXLXLXLXLXLXLXLXLXPXPXLXLXLXLXDXcX'.~.n.e.",
"    n z z V D =XmXmXW m J i 2 A [.V b x 7 u L     l h - . . R x.s.g.k.N.E.`.cXSXGXKXLXLXLXLXLXLXLXPXPXPXLXLXLXLXLXLXPXPXPXPXLXLXLXLXLXLXLXLXPXPXLXLXLXLXLXLXLXLXLXPXLXLXLXDXcXnXhX~.n.t.",
"      b < : v $XqXNX*XA M u 5 3 > > 7 M 9 H L B     k k ; q 7.u.M.z.z.T.`.vXJXLXLXLXLXLXLXLXLXLXLXLXPXPXLXLXLXLXLXPXPXPXLXLXLXLXLXLXLXLXLXPXPXLXLXLXLXLXLXLXLXLXLXLXLXLXDXkX`.'.`.N.y.w.",
"        h X @ D 7X9X,XD c 9 H 9 & 5 P ^ 9 9 L Y       l s q.0.h.T.~.~.`.vXJXLXLXLXLXLXLXLXLXLXLXLXLXPXPXPXLXLXLXLXLXPXPXLXLXLXLXLXLXLXLXLXLXLXLXLXLXLXLXLXLXLXLXLXLXLXJXkX^.~.~.N.y.1.2.",
"        v # # C >X<X@XV < M H 5 9 P -X( 5 4 L T       s t.s.s.l./.kXvXZXGXLXLXLXLXLXLXLXLXLXLXLXLXLXLXLXLXLXLXLXLXLXLXLXLXPXPXLXLXLXLXLXLXLXLXLXAXZXZXZXZXZXZXZXZXAXAXcX`.T.N.j.y.1.>.  ",
"        V l 1 v .X+X[.j 2 ! ~ 5 5 U U u 4 6 L Y       y.s.j.j.U.jXJXLXLXLXLXLXLXLXLXLXLXLXLXLXLXLXLXLXLXLXLXLXLXLXLXLXLXLXLXLXKXKXKXKXKXKXKXLXSXkX`.'.gXgXgXgXgXgXhXgX^.T.M.g.e.1.>.    ",
"          V 1 = n D v , M tXyX~ 5 5 5 & 4 N L U     C.g.M.U.U.(.AXLXLXLXLXLXLXLXLXLXLXLXLXLXLXLXPXLXLXLXLXLXLXLXLXLXLXLXLXLXLXGXvXcXvXvXvXvXvXkX^.W.~.^.^.^.^._._.~.T.l.h.i.e.3.>.      ",
"            l @ = : = - F wXBXuX( F A x & & u p   ` A.z.R.~.fXZXLXLXLXLXLXLXLXLXLXLXLXLXLXLXLXLXLXLXLXLXLXLXLXHXDXDXGXGXGXGXGXzX`._.`.'.`.'.'.`.T.Y.m.m.m.N.m.N.N.M.k.i.q.q.3.2.        ",
"              v @ . . X V 1XqXBXmX7X2X+X: $ I p ` o.].E.(.kXAXLXLXLXLXLXLXLXLXLXLXLXLXLXLXLXLXLXLXLXLXLXLXLXKXvXkXkXkXkXkXcXkX`.~.E.~.~.~.~./.T.N.h.t.e.t.t.t.t.t.t.e.q.2.>.2.          ",
"              A h X . . = [.4XqX0X1X<X#X|.OXtX#.o.+.I.zXZXGXLXLXLXLXLXDXZXZXZXZXZXAXAXAXAXAXAXAXAXAXZXZXAXDXZXfX/._._.`.`.`.`.~.Y.M.n.n.n.n.M.j.a.e.1.1.1.4.4.4.4.3.3.3.                ",
"              A b < @ # # , V  XE b v [.<X0XMXaX#.| aXLXLXLXLXLXLXLXJXcX'.gXgXgXgXgXgXgXgXgXgXgXgXgXgXgXhXhXgX/.T.T.T.T.T.Q.Q.N.h.t.e.e.e.e.e.e.e.w.2.>.>.>.>.>.>.>.>.                  ",
"              M m A  X.XA : . X X . . v <X1X_ pXyXp ( IXLXCXbXcXxXvXcXgX/./.^.^.^.^.^.^.^.^.^.^.^.^.^.^.^.`./.T.M.h.a.a.a.h.a.u.w.2.<.<.<.<.<.q.                                        ",
"              9 c Z |.=XOXm ; = : # . : @X{.$ g _ 3 B dXvX^.E.Y.N.Y.T.Y.N.N.N.N.N.N.N.N.m.m.m.m.m.m.m.m.m.N.m.j.i.q.1.1.q.e.e.q.>.5.5.5.5.5.5.                                          ",
"              9 4 3 7 i f W |..X.XD ; 1 @X.X# o % . d V.R.l.p.d.d.i.i.i.i.i.i.i.y.y.y.y.y.t.t.t.t.t.t.t.t.y.y.i.e.2.$.-.                                                                ",
"              9 9 4 & e p ^ OXoX+X%X|. X,X,Xb . . . o d 9.0.8.8.8.r.8.8.r.r.8.8.q.1.1.q.                                                                                                ",
"              N N 9 9 u P Y H 4 m +X+X.XXX%XoXn @ X # ; s 5.v.x.:.,.5.5.:.$.$.5.2.<.>.                                                                                                  ",
"              N L J 0 N P P 5 * 4 m n < < W :XOXA v S {. X=X6X=XR q R R q q R Q x.                                                                                                      ",
"              N L J 5 4 J Y J 5 & & o o 5 U / OX XZ [.$X[.S {.S # . - - . . k +X                                                                                                        ",
"              N P L 5 % 4 P / L 4 & & u U ( P B 7 ; : < - - - # . . . . . = S #X                                                                                                        ",
"              N P L 4 . . 5 Y / ^ P ( ( K u 4 O o . . . . . . . . . . . 1  X@X                                                                                                          ",
"              N L J 5 . . $ J / / / / Y 3 X O o . . . . . # < F n : X ;  X1X                                                                                                            ",
"              9 9 9 9 4 4 N ^ P 9 9 N m V j @ . . . . ; ; n $X<X@XXX.X|.%X                                                                                                              ",
"                & 9 Y / / Y J 4 o . : E *X*XF = X : < 1 ; n XX+X.X%X2X,X                                                                                                                ",
"                  H / 5X-XJ $ . . # V *XNXNX4XC l D A ; X # ; @ ; D ,X                                                                                                                  ",
"                  9 H K L m < X . X v *XwX0X8X#XD A l X . . # : < A                                                                                                                     ",
"                > O o o # b D 1 # # = x oX7X9X8X.X1 . . . ; D +X+X                                                                                                                      ",
"    FXLXBX9X>XV - # X . . @ z v b b ; X , :XNX0X@X- . . ; E %X                                                                                                                          ",
"  ! uXVXmX7X<X$XOX^ m = . . X < |.XXl . X ) BXeX,X: . # D @X                                                                                                                            ",
". % B W OX@X<X1XmXMX*X[.v h : = z A 1 . # B 7X9X,X: + A @X                                                                                                                              ",
". . , V [..X|.oX_ tX7X3X<X#X Xl ; : : ; @ : [.2X,Xz z ,X2X                                                                                                                              ",
". . : S {.S , # % c %X3X2X,XXXZ ; # < h # . h @X<X|. X<X8X                                                                                                                              ",
". X : v v , , h j j z n b x l : # $ 7 h X . ; |.,X,X+X+X2X3X                                                                                                                            ",
". = v W ! ^ OX%X,X X: . . . . . o $ c l @ . > D <X8X,X[.XX<X,X                                                                                                                          ",
". v &XwXlXlXwX       XA Z < # . . o l b h # < XX8X8X,XA b |.+X<X8X8X                                                                                                                    ",
"+ W eXBXBXiX)             XXA l : # ; z b b  X2X8X2X X< = : x  X+X@X                                                                                                                    ",
"% _ MXqXOX3 o               %X+X X< . # z D +X<X2X+X< . . . . @ <                                                                                                                       ",
"o 0 ~ F = . .                           @ < b Z A V                                                                                                                                     ",
". . o . . . .                           . . . . @                                                                                                                                       "
};
