/* XPM */
static char *luke_142[] = {
/* columns rows colors chars-per-pixel */
"54 111 256 2 ",
"   c None",
".  c #010001",
"X  c #01040B",
"o  c #0C0607",
"O  c #130909",
"+  c #010512",
"@  c #020A14",
"#  c #010D1B",
"$  c #070917",
"%  c #140C14",
"&  c #04111E",
"*  c #181517",
"=  c #241819",
"-  c #2E0F09",
";  c #020A23",
":  c #021224",
">  c #02142B",
",  c #09172A",
"<  c #171827",
"1  c #021533",
"2  c #041A34",
"3  c #011D3B",
"4  c #081B39",
"5  c #101433",
"6  c #261A27",
"7  c #321A2E",
"8  c #08203D",
"9  c #17233D",
"0  c #2B2538",
"q  c #352639",
"w  c #292329",
"e  c #352911",
"r  c #531A02",
"t  c #55280B",
"y  c #77350B",
"u  c #6F300D",
"i  c #462B31",
"p  c #421E2A",
"a  c #017A2A",
"s  c #2D6C26",
"d  c #0F5533",
"f  c #734830",
"g  c #5C5325",
"h  c #011C42",
"j  c #011C49",
"k  c #001B55",
"l  c #000B56",
"z  c #052447",
"x  c #002453",
"c  c #012B54",
"v  c #052A59",
"b  c #152D51",
"n  c #3B2B45",
"m  c #303051",
"M  c #012B66",
"N  c #023264",
"B  c #04366B",
"V  c #023A78",
"C  c #0E2C6F",
"Z  c #26336B",
"A  c #031D72",
"S  c #432E48",
"D  c #48324C",
"F  c #493454",
"G  c #553A5B",
"H  c #50324A",
"J  c #663C54",
"K  c #583B64",
"L  c #4F3B6C",
"P  c #673D68",
"I  c #08417D",
"U  c #194874",
"Y  c #2F4C6A",
"T  c #374758",
"R  c #574F4B",
"E  c #6F5748",
"W  c #5C4166",
"Q  c #4F4C73",
"!  c #654469",
"~  c #6A4B77",
"^  c #734C71",
"/  c #72716D",
"(  c #6A6468",
")  c #863A09",
"_  c #903F19",
"`  c #B53F00",
"'  c #884517",
"]  c #945B19",
"[  c #96501C",
"{  c #A95014",
"}  c #A6711B",
"|  c #904F29",
" . c #AC562A",
".. c #B56D31",
"X. c #976C34",
"o. c #C56F2E",
"O. c #C64D26",
"+. c #886F79",
"@. c #925D48",
"#. c #D46D4A",
"$. c #EA795A",
"%. c #019B1C",
"&. c #05AD1B",
"*. c #008D38",
"=. c #028D36",
"-. c #029535",
";. c #039338",
":. c #059938",
">. c #0C9C39",
",. c #049A35",
"<. c #06932B",
"1. c #06A52A",
"2. c #16B82B",
"3. c #08A536",
"4. c #12A438",
"5. c #1BAC38",
"6. c #17AA36",
"7. c #1BB238",
"8. c #1EB636",
"9. c #0FB723",
"0. c #23B534",
"q. c #23BA38",
"w. c #25BA36",
"e. c #21AB33",
"r. c #47903C",
"t. c #18CD16",
"y. c #28D21D",
"u. c #36EB18",
"i. c #3CF218",
"p. c #2DEB0E",
"a. c #2AC72A",
"s. c #2AD226",
"d. c #38DB27",
"f. c #2BC338",
"g. c #2CC434",
"h. c #35C935",
"j. c #3AD335",
"k. c #37D038",
"l. c #39D139",
"z. c #38D336",
"x. c #32CF30",
"c. c #3CE524",
"v. c #1CCA32",
"b. c #41DE32",
"n. c #49DF37",
"m. c #42EB25",
"M. c #44E929",
"N. c #43E52C",
"B. c #46F323",
"V. c #4BF924",
"C. c #4BF528",
"Z. c #53FB2C",
"A. c #47E534",
"S. c #5AFA35",
"D. c #58F637",
"F. c #55E93C",
"G. c #65FE3D",
"H. c #47F81F",
"J. c #13A853",
"K. c #66A262",
"L. c #498043",
"P. c #69FC47",
"I. c #73F756",
"U. c #79F064",
"Y. c #59D954",
"T. c #3DC251",
"R. c #AD8835",
"E. c #C9A236",
"W. c #D59A36",
"Q. c #A58260",
"!. c #C98B46",
"~. c #DAA844",
"^. c #E59B62",
"/. c #86FD69",
"(. c #8BF873",
"). c #95FC7C",
"_. c #92FD75",
"`. c #003B84",
"'. c #002A92",
"]. c #003FA3",
"[. c #014583",
"{. c #03468B",
"}. c #034A96",
"|. c #05519C",
" X c #155295",
".X c #0157A9",
"XX c #035AB7",
"oX c #0C53AD",
"OX c #0361BB",
"+X c #1D6CBB",
"@X c #2B6EB1",
"#X c #2E558D",
"$X c #765487",
"%X c #734E83",
"&X c #566E8E",
"*X c #5F6598",
"=X c #0367C9",
"-X c #046BD4",
";X c #1172D3",
":X c #0678E8",
">X c #0576EC",
",X c #1E73D4",
"<X c #515DAE",
"1X c #8E7292",
"2X c #805C8B",
"3X c #098E9E",
"4X c #688197",
"5X c #6D8AA6",
"6X c #5C81B7",
"7X c #3989D3",
"8X c #0486FD",
"9X c #2B97F5",
"0X c #3AAAFF",
"qX c #4890D6",
"wX c #73A6D5",
"eX c #6FB1EF",
"rX c #569CE5",
"tX c #68C7FF",
"yX c #B0A395",
"uX c #B5AEB1",
"iX c #978EA2",
"pX c #C6B2A6",
"aX c #9CFB85",
"sX c #A3FD8C",
"dX c #ABFC97",
"fX c #B2FE9E",
"gX c #B9FEA7",
"hX c #B0EFAB",
"jX c #C7FCB8",
"kX c #C1FFAE",
"lX c #DECFBD",
"zX c #90B0CD",
"xX c #8DC6FC",
"cX c #ABCAE6",
"vX c #B5CAD8",
"bX c #CDC5C4",
"nX c #CCFAC1",
"mX c #D4FBC9",
"MX c #DDFCD4",
"NX c #DFE0D6",
"BX c #E5FDDC",
"VX c #FAE8D6",
"CX c #CADEED",
"ZX c #D2E4F4",
"AX c #EBFBE5",
"SX c #F6F9F5",
"DX c #F8F8F8",
"FX c #F9F9F9",
"GX c #FAF8FA",
"HX c #FFF8FF",
"JX c #FDF9FD",
"KX c #FAF8FA",
"LX c #F8F9F6",
"PX c #F3F7EA",
"IX c #ECDDDA",
"UX c #CDB8C0",
/* pixels */
"                        *.*.*.*.*.*.*.*.*.*.*.*.*.*.*.*.*.*.*.*.*.*.*.*.*.*.*.*.*.*.*.*.*.*.;.;.;.          ",
"                        ;.;.:.:.:.:.:.:.:.:.:.:.:.:.:.:.:.:.:.:.:.:.:.:.:.:.:.:.:.:.:.:.:.:.:.>.>.          ",
"                      ;.>.6.7.7.7.7.7.7.7.7.7.7.7.7.7.7.7.7.7.7.7.7.7.7.7.7.7.7.7.7.7.7.7.7.7.7.6.4.        ",
"                    ;.:.4.w.k.j.k.k.k.k.k.k.k.k.k.l.l.l.j.j.j.j.j.j.l.l.l.l.l.l.k.k.k.k.k.j.k.x.q.5.        ",
"                  ;.>.5.w.x.M.m.M.M.M.M.M.M.M.M.M.M.m.m.c.c.c.m.m.m.M.M.M.M.M.M.M.M.M.M.M.m.M.j.x.q.        ",
"                  >.0.h.j.M.Z.Z.V.V.V.V.V.V.V.V.V.V.V.V.V.V.V.V.V.V.V.V.V.V.V.V.V.V.V.V.V.V.C.M.j.h.5.      ",
"                  5.h.A.D.I.aXsX).).).).).).).).).).aXaXaXaXaXaXaXaXaX).).).).).).).).).).sX_.D.u.d.g.5.    ",
"                  q.j.M.S.dXLXJXLXDXLXJXJXJXJXJXJXJXJXJXLXLXJXJXJXJXJXJXJXJXJXJXJXJXJXJXJXJXAXaXD.m.j.w.5.4.",
"                  q.j.m.S.gXJXJXJXJXJXJXJXJXJXJXJXJXJXJXJXJXJXJXJXJXJXJXJXJXJXJXJXJXJXJXJXJXJXAXsXD.N.x.0.6.",
"                  q.j.M.Z.fXJXJXJXJXJXJXJXJXJXJXJXJXJXJXJXJXJXJXJXJXJXJXJXJXJXJXJXJXJXJXJXJXJXJXMX/.m.x.w.7.",
"                  q.j.M.Z.fXJXJXJXDXDXDXDXJXDXJXDXDXDXDXJXJXDXDXDXDXJXJXJXDXJXJXDXDXDXDXJXJXJXJXBX/.H.d.g.7.",
"                  q.k.M.Z.fXJXJXJXDXDXDXDXDXJXJXJXDXDXDXDXJXDXDXDXDXJXDXJXJXJXJXDXDXDXJXJXJXJXJXAX/.H.N.g.7.",
"                  q.j.M.Z.fXJXJXJXJXJXDXDXJXJXDXJXDXDXJXDXDXDXDXDXDXJXJXDXDXDXDXDXDXJXDXJXJXJXJXmXI.B.N.g.7.",
"                5.f.j.M.Z.fXJXJXJXDXDXDXDXJXJXDXJXDXDXDXDXDXDXDXJXDXJXJXDXDXDXDXJXDXJXJXJXJXLXmX_.D.N.j.w.7.",
"              >.0.h.n.B.B.dXJXJXJXDXDXDXDXDXJXJXDXDXDXDXJXJXDXDXDXDXDXDXDXDXDXDXDXDXDXDXJXJXJXsXC.u.j.h.w.7.",
"              >.5.h.F.V.V.dXJXJXJXDXDXDXDXDXDXDXDXDXDXDXJXJXJXDXDXDXDXDXDXDXDXDXDXDXDXJXJXJXJX).i.s.g.q.7.  ",
"              >.5.h.D.G._.mXJXJXJXJXDXDXDXDXDXDXDXDXDXJXJXJXDXDXDXDXDXDXDXDXDXDXJXDXJXJXJXJXnXI.N.a.0.7.    ",
"              >.5.x.C./.MXJXJXGXJXJXDXDXDXDXDXDXDXDXJXJXDXJXDXDXDXDXDXDXDXDXDXDXJXJXJXJXJXnXP.C.j.w.7.      ",
"              4.w.d.C.aXAXJXJXJXJXJXDXDXDXDXJXJXDXDXDXDXDXDXDXDXDXDXJXJXDXDXDXDXJXJXJXJXmXP.i.d.x.q.        ",
"              5.x.N.V.).AXJXJXDXJXJXDXDXDXJXJXJXDXDXDXDXDXDXDXDXDXDXJXDXJXDXDXJXJXJXJXmXP.i.d.x.w.          ",
"            :.7.k.M.V._.AXJXJXDXDXDXDXDXDXDXDXDXJXJXJXDXDXDXJXJXDXDXJXJXJXDXJXJXJXJXjXP.i.d.x.0.6.          ",
"          *.:.7.x.c.i./.BXJXJXDXDXDXDXDXDXDXDXDXJXJXDXDXDXDXJXJXDXDXJXJXJXJXJXJXJXjXP.i.d.h.w.4.            ",
"          *.:.7.x.c.B.).AXJXJXDXDXDXJXDXJXJXDXDXDXDXDXDXDXDXJXJXDXDXJXJXJXJXJXJXnXP.i.d.x.w.7.              ",
"          ;.>.w.d.D._.mXJXJXJXDXDXDXJXJXJXDXDXDXDXDXDXDXDXDXJXDXDXDXDXJXJXJXJXJXfXi.d.h.0.5.                ",
"          >.6.g.m.I.MXJXJXJXJXDXDXJXJXJXDXDXDXDXDXJXJXJXDXDXDXDXDXDXJXDXJXJXJXPXaXd.s.0.4.                  ",
"          >.6.g.m.I.BXJXJXDXJXJXDXDXJXJXDXDXDXDXDXDXJXJXDXDXDXDXDXDXJXJXJXJXDXdXF.x.w.5.                    ",
"          >.6.g.c.P.MXJXJXDXDXDXDXDXDXDXDXDXJXJXDXDXJXDXDXDXDXDXDXDXJXJXJXPXsXD.d.g.q.                      ",
"          >.5.h.m.P.MXJXJXDXDXDXDXDXDXDXDXDXDXJXDXDXDXDXDXDXDXJXDXDXJXJXDXfXS.i.a.8.                        ",
"          >.0.j.m.P.MXJXJXJXDXDXDXDXDXDXDXDXJXJXDXDXDXDXDXDXJXJXLXLXJXJXDXU.p.d.w.6.                        ",
"        ;.4.f.b.B.P.MXJXJXJXDXJXDXDXJXJXDXDXDXDXDXDXJXJXDXDXDXJXJXJXJXJXBXI.y.a.5.>.                        ",
"        ;.4.f.A.B.P.MXJXJXJXJXJXDXDXJXJXDXDXDXDXDXDXDXJXDXDXJXJXJXJXJXBX_.A.a.5.>.;.                        ",
"        ;.4.f.b.B.P.MXJXJXJXJXJXDXDXJXJXDXDXDXDXDXDXJXJXDXJXJXJXPXMXjX(.c.a.5.>.*.*.                        ",
"        ;.4.f.b.B.P.MXJXJXDXDXDXDXDXDXDXDXDXDXDXDXJXJXJXJXJXJXAXdXI.F.d.2.6.>.;.*.                          ",
"        ;.4.f.b.B.P.MXJXJXDXDXDXDXDXDXDXDXDXDXDXJXJXJXJXJXJXAXdXD.p.t.2.3.:.;.*.                            ",
"        ;.4.f.b.B.P.MXJXJXDXDXDXDXDXJXJXDXDXDXDXJXDXDXJXJXJXgXS.p.s.2.3.:.*.*.                              ",
"        ;.4.f.A.B.P.MXJXJXDXDXDXDXDXJXJXJXDXDXDXDXJXJXGXJXJXsXi.y.8.6.:.;.*.                                ",
"        ;.4.f.A.B.P.MXJXJXDXJXDXDXDXJXJXJXDXJXDXJXJXJXJXJXBX(.s.9.3.3.:.;.                                  ",
"        ;.4.f.A.B.P.MXJXJXDXJXJXDXDXJXJXDXJXJXJXJXJXJXJXBX_.j.2.3.:.;.*.                                    ",
"        ;.4.f.d.i.S.mXJXJXDXDXDXDXDXJXJXJXDXJXJXJXAXjXgX(.A.t.3.;.a s                                       ",
"        ;.4.g.d.B.I.MXJXJXDXDXDXDXDXDXDXJXJXJXJXAXsXP.M.x.2.1.3.:.s f                                       ",
"        ;.5.a.N.U.nXLXJXJXJXDXDXDXDXJXDXDXJXJXBXsXS.p.t.9.3.:.>.r.R.o.{                                     ",
"        ;.0.s.M.fXJXJXJXJXJXDXDXDXDXJXJXDXJXJXgXS.p.s.8.3.,.a s R.~.~.} y                                   ",
"        ;.0.d.D.kXJXJXJXJXDXDXJXDXDXDXDXJXJXJXgXM.t.2.3.3.*.s f o.~.~.} y                                   ",
"        ;.7.c.S.gXJXJXJXJXJXGXJXDXDXJXJXJXJXJXjXl.&.1.:.=.L.X.o.o.!.!...] '                                 ",
"        ;.0.c.S.gXJXJXJXJXJXJXJXJXGXGXJXJXJXJXhXw.%.,.>.s X.o.W.W.!.!.!.R.] y                               ",
"        >.0.d.S.gXJXJXJXJXJXJXJXGXJXJXJXJXJXjXY.1.<.>.K.Q. .) ] R.!.!.~.E.] y                               ",
"        4.0.d.S.gXJXJXJXJXJXJXJXJXAXBXAXDXhXY.t.1.>.K.^.^.{ r r y ..~.~.E.] y                               ",
"        4.0.d.S.gXJXJXJXJXJXJXJXAXaXI.I.Y.T.2.%.>.K.^.^.#. .y r r _ ..~.E.] y                               ",
"        4.0.d.S.gXJXJXJXJXJXJXBXsXZ.p.t.9.1.<.a s Q.^.$... . .[ u t ' o.W.] y                               ",
"        4.0.d.S.gXJXJXJXJXJXDXfXZ.p.s.2.1.,.:.s ' O.#.#. .[  ...' r t | ..[ )                               ",
"        4.0.d.S.fXJXJXJXJXJXAX_.p.y.7.4.:.:.,.s  .O.[ [  . .o.{ r - p J @.[                                 ",
"        >.0.s.D.fXJXJXJXJXJXmXI.s.2.3.>.,.;.    | _ ) y ) | | i * $ 0 F G                                   ",
"        >.0.d.S.gXJXJXJXJXMXU.x.8.3.,.:.:.      n u ) ) t e b I x $ + 6                                     ",
"        5.x.m.G.gXJXJXJXMXU.t.9.3.,.:.*.      A Z J @.!.@.0 C }.v + . *                                     ",
"        f.A.Z.G.gXDXJXMX/.c.9.1.:.:.,.      A Z L P +.uXiX~ %X*Xm < 6 q q                                   ",
"        x.A.C.D./.gXkX_.D.y.1.;.:.:.        ~ L 7 - q Q Q Q 1XuX+.G K G S q                                 ",
"        e.w.d.N.D.G.G.S.N.w.:.*.:.          ^ n $ X , m b b 4XuXiX%X%X~ F S n                               ",
"        d 4.a.d.m.B.B.M.g.3.*.*.            7 < N }.@X5X4X XU R ^ %X$X~ K W K n                             ",
"        `.3XJ.v.y.d.j.x.6.<.<.            1 . : }.>X9XxXeX,XM o 7 ! %X~ ! ~ W S                             ",
"        XX-X3XJ.a.a.a.2.<.<.            C b 2 h V XX;X,X9X;Xv . % G %X$X~ ! F n                             ",
"      z M '.@X  Y.9.&.%.%.            C &X5X#XV M V {.`.V N : . % D %X2X%XW D n                             ",
"    b & . n iX    J.a a             ; Z zXcX7X`.k h 3 1 > : X . o q ~ 2X%XW n q                             ",
"z Z L 6 O / IXDX                  k ; B qX0X+Xx + . . . 2 N 3 . o 6 F ~ %XG q 6                             ",
"h m F = * / pXuXrX              =Xx ; N =X-XB + X : & X 2 B z X o 6 q K ~ F 0 6                             ",
"4 5 % . o = e w  X-X].'.;XxXZXeX=Xv ; z .X}.1 X x {.B # . # + . % 6 n F G S q 0                             ",
"F 6 o . . . . + `.-XV j }.qXeX7X.XM > > B B > z }..Xc X . . . . % q G W F S 0 0                             ",
"*Xm o . . . . + {.=Xc . 1 V {.B v j # . > z v I }.N # . . . . . o S ~ ~ G S 0 9                             ",
",X X+ . . . . + }.=Xz . . + $ X X X . . . 3 [.[.c 3 > X . . . . o D %X%XG n 0 8                             ",
"+X Xv h j j j M XX=XB : # # # # & : > : X 2 V c X # 1 + + # X . % F $X~ D q 6 3                             ",
"f Y OX-X;X;X-X-X=XOX|.[.[.[.[.[.[.{.}.[.z 2 z > . . X . : z > . = K %X! q 6 <                               ",
"{ R XX9XtXeX6X<X X                        z m 0 % . . . + 3 2 , q W ~ G q 6 6                               ",
"..f m 5XbX^. .'                             ! J w 2 h # . X # 2 m W K F n q                                 ",
"    f E @.{ `                               ! J F U {.c X . . : n ! G m b                                   ",
"      y r t                                 H J W #X[.z X . . % D ! G 9 >                                   ",
"                                            6 F ~ Q 9 + . . . 6 K ~ F < .                                   ",
"                                            ; b L P H p O . $ n K K D % .                                   ",
"                                            : m ! ^ P ~ m 0 H +.2X! S % .                                   ",
"                                          o t X.R.f m oX7XiXpXbXpX+.i - - r ' o. .r                         ",
"                                          % t } } g N ,XxXZXZXCXcX5XY R X.y u ' u -                         ",
"                                                e B ;XeXPXLXxXqX@X X;XzXpXE - - - o                         ",
"                                , , 2 4 z   h + X M ,XeXNXVXeXXXl k XXrXwX<Xc + % 6 <                       ",
"                              z z z z z z h 2 + . 1 `.oXwXvXwX{.; + x I  X-XXXb S K S <                     ",
"                            4 I oX|.{.[.c 2 , + . + k V @XqX@XB + . X + 1 }.-X=X#XG G D 6                   ",
"                          8 V -X:X=X.X}.V N v 2 X X > x `..X}.x + . . . . > }.-X{.0 J ~ q                   ",
"                        4 I -X:X=X}.B N [..X.XV 2 . X 1 M V M 1 X . . . . . z {.N 0 ! ~ q                   ",
"                        4 }.>X=X{.M 1 : v .X.X}.v + . : x j ; . . . . . . . X > : w ! ! 0                   ",
"                        4 [.OX}.B v > X : z c N M > . + h z , 6 0 < . . . . . . o 6 D F 6                   ",
"                        4 V .X{.M x 3 # . . . 1 x > . . 1 I &XyXuX( X . . . . . o = q q 6                   ",
"                        4 V .X}.N 9 < , ; # # : : X . & x [.5XbXbXiXR * . . . . o < 6 = =                   ",
"                        8 v `.`.b p - $ 1 x x 1 X . # [.}.z 0 R R +.yXE o . . . > z                         ",
"                              j * - - . ; h h > + + c =X=Xz . . . T zX4X, X + : x                           ",
"                              > . o o . X + # > z x V .X=X}.: . + B +X Xv j x M                             ",
"                              B 3 # . . 3 N             -X-Xc . # V .X`.k                                   ",
"                              =X|.z . . c .X              :XI X X M  X#XQ                                   ",
"                              8X=Xc . . + B OX=X          8XOXc X < Q iXuX                                  ",
"                                :X}.2 . . X c |.XX          8X.X> o p *XzX                                  ",
"                                  :X|.2 . . X c .X          8XOX3 . o Y @X                                  ",
"                                    :X|.2 . . 2 .X          8XXX1 . 6 &XwX                                  ",
"                                      :X|.> . : [.OX        0X7XY = i *XzX                                  ",
"                                        :X}., . > [.XX      ZXCXuX( 6 Z @X                                  ",
"                                          >X|.2 . 2 `.XX    pXyXyX+.R Y @X                                  ",
"                                            :X}.: . > {.;X  T = = R yXbXvX                                  ",
"                                            :X|.: . . c }.  M 1 + < / lXPX                                  ",
"                                            OXB + . X > 2   V {.h . * / CXLX                                ",
"                                            .XB > # : +       B 2 . X B eXZXVX                              ",
"                                          =X-X.Xv , : .       8 3 # $ j oXeXcX                              ",
"                                        .X-X>XOXc + X           [.V 3 + h +X9X                              ",
"                                        V {.}.N # .               .Xz . X .X8X                              ",
"                                          2 + . .                   : . X }.:X                              ",
"                                                                      . . 8 N                               ",
"                                                                      . . . .                               "
};
