/* XPM */
static char *luke_162[] = {
/* columns rows colors chars-per-pixel */
"109 53 248 2 ",
"   c None",
".  c #000001",
"X  c #0A0201",
"o  c #01030B",
"O  c #09090D",
"+  c #150A07",
"@  c #000413",
"#  c #010A13",
"$  c #010C1C",
"%  c #030619",
"&  c #04101E",
"*  c #161719",
"=  c #130B18",
"-  c #280D00",
";  c #301306",
":  c #29241C",
">  c #010E23",
",  c #000628",
"<  c #011226",
"1  c #03142B",
"2  c #181B26",
"3  c #000C36",
"4  c #011B3B",
"5  c #021835",
"6  c #1C1A30",
"7  c #251C27",
"8  c #2D1E36",
"9  c #01213D",
"0  c #1B232F",
"q  c #393737",
"w  c #2E2734",
"e  c #491700",
"r  c #521D00",
"t  c #5A2503",
"y  c #44230B",
"u  c #672A02",
"i  c #722C01",
"p  c #6A3207",
"a  c #7C3C0C",
"s  c #773609",
"d  c #783714",
"f  c #4C3039",
"g  c #6A392F",
"h  c #3E403C",
"j  c #7F4116",
"k  c #4B443C",
"l  c #76482C",
"z  c #011A46",
"x  c #001A55",
"c  c #01234C",
"v  c #072549",
"b  c #022757",
"n  c #133150",
"m  c #392A45",
"M  c #373743",
"N  c #002D67",
"B  c #01346B",
"V  c #043466",
"C  c #013977",
"Z  c #082D70",
"A  c #45334C",
"S  c #493757",
"D  c #54395B",
"F  c #462D48",
"G  c #583F63",
"H  c #3B4956",
"J  c #03417D",
"K  c #2C4E74",
"L  c #514F4F",
"P  c #72534A",
"I  c #4F546B",
"U  c #624869",
"Y  c #6B5273",
"T  c #6F7077",
"R  c #5C6779",
"E  c #853906",
"W  c #913D04",
"Q  c #854513",
"!  c #8A5216",
"~  c #945616",
"^  c #8A4510",
"/  c #A74E11",
"(  c #904F27",
")  c #AA7826",
"_  c #B26D31",
"`  c #A56722",
"'  c #C86E39",
"]  c #946C55",
"[  c #996D56",
"{  c #C87648",
"}  c #009B2C",
"|  c #00972A",
" . c #008D35",
".. c #008437",
"X. c #009333",
"o. c #009C31",
"O. c #00832F",
"+. c #00AC25",
"@. c #01A42D",
"#. c #03AD2D",
"$. c #0AAF2B",
"%. c #01B425",
"&. c #03BE24",
"*. c #03B32B",
"=. c #08BB29",
"-. c #04A831",
";. c #1AB736",
":. c #15BD2A",
">. c #12CF1D",
",. c #0BC526",
"<. c #16C928",
"1. c #1CD925",
"2. c #16D325",
"3. c #29DC2C",
"4. c #24DB27",
"5. c #34C73A",
"6. c #2ED033",
"7. c #2BE427",
"8. c #34E829",
"9. c #3BE632",
"0. c #3AF229",
"q. c #29E21C",
"w. c #47F22E",
"e. c #48E837",
"r. c #53EB3D",
"t. c #59F638",
"y. c #4FF330",
"u. c #69FB37",
"i. c #75FD35",
"p. c #43DB3F",
"a. c #5AE644",
"s. c #5CF340",
"d. c #6BF546",
"f. c #77F84A",
"g. c #74EE50",
"h. c #79EF53",
"j. c #6DEE4D",
"k. c #4CD544",
"l. c #B88D2D",
"z. c #C99738",
"x. c #D1A83C",
"c. c #81FF3B",
"v. c #AC8E6E",
"b. c #A2895B",
"n. c #CC8A53",
"m. c #D8AE49",
"M. c #CD8B63",
"N. c #EEA565",
"B. c #86FD49",
"V. c #87F853",
"C. c #97FB58",
"Z. c #83EC51",
"A. c #A5FE5A",
"S. c #B3FF5A",
"D. c #9BF863",
"F. c #82FF63",
"G. c #A8FC65",
"H. c #BCFE6D",
"J. c #B4FD67",
"K. c #B6FC78",
"L. c #AAFF7A",
"P. c #C6FE6D",
"I. c #CCFE74",
"U. c #C6FC78",
"Y. c #D4FC7D",
"T. c #D1FF73",
"R. c #003987",
"E. c #044587",
"W. c #024999",
"Q. c #0E5396",
"!. c #0356A8",
"~. c #0259B4",
"^. c #004CA4",
"/. c #0E63B7",
"(. c #3975B6",
"). c #2A5092",
"_. c #4B5E81",
"`. c #795689",
"'. c #714B82",
"]. c #52688E",
"[. c #6B6D88",
"{. c #4F77A7",
"}. c #046BCF",
"|. c #0476EA",
" X c #0178F0",
".X c #2777CE",
"XX c #917995",
"oX c #7492AE",
"OX c #6285A7",
"+X c #0183FF",
"@X c #2F90EA",
"#X c #70A3D5",
"$X c #6494D1",
"%X c #6EC1FF",
"&X c #898788",
"*X c #948C84",
"=X c #939096",
"-X c #9391A8",
";X c #B3ADAD",
":X c #AC9DA0",
">X c #CDBBBA",
",X c #C9BA9D",
"<X c #BDFA94",
"1X c #B8F88B",
"2X c #D6FB86",
"3X c #DBFB98",
"4X c #C7FB8E",
"5X c #E3FB9B",
"6X c #E4FD8D",
"7X c #D0CCBD",
"8X c #C8FEA7",
"9X c #D9FBA6",
"0X c #D4FBB7",
"qX c #CAFFB4",
"wX c #E2FAA4",
"eX c #E3F9AC",
"rX c #ECFDAC",
"tX c #E6FAB8",
"yX c #F2FBB8",
"uX c #E0CD97",
"iX c #B2B1CA",
"pX c #8DA0CA",
"aX c #92CAF8",
"sX c #B1D3F0",
"dX c #BCC9D3",
"fX c #D8D8D7",
"gX c #D0CCCB",
"hX c #E3DCD4",
"jX c #DDF9C4",
"kX c #EBF9C4",
"lX c #EDF8CB",
"zX c #E6FCC8",
"xX c #F2FBCC",
"cX c #F3F9D9",
"vX c #ECF3D8",
"bX c #DBDEE2",
"nX c #EAEAEA",
"mX c #ECF8E3",
"MX c #F6F8EA",
"NX c #FBF9ED",
"BX c #F5F9E3",
"VX c #F6F8F4",
"CX c #FAF8F5",
"ZX c #FAF8FA",
"AX c #FCF7FB",
"SX c #ECF2F7",
"DX c #DAE9F2",
"FX c #C8B7C8",
/* pixels */
"              X.@.%.%.+.+.+.+.+.+.+.%.#.o. ...                                                                                                                                      s s i ~ l.) ^                         ",
"              @.=.2.6.5.5.5.6.<.,.<.<.<.$.} X.                                                                                                                                      s i i ^ ` ~ a                         ",
"            o.<.8.d.C.G.G.D.V.d.y.y.t.y.7.,.#.o. . .                                                                                                                        Q s E s E s j Q ^ ^ ( j                       ",
"           .%.8.F.0XlXxXxXkXkX0XqX8XL.c.u.y.3.,.#.} o.                                                                                                                    ! ) ) ) ) ) l.v.b.) b.v.]                       ",
"        X.@.1.u.8XAXAXAXAXAXAXAXAXAXzX1XK.C.u.w.4.,.*.*.@.X.                                                                                                            ~ ) x.m.m.x.z.m.7XfXuXuX;XP                       ",
"      @.#.<.u.J.xXAXAXAXAXAXAXAXAXAXVXMXBX9XG.B.u.r.3.<.*.o. .                                                                                                        l.l.z.n.m.m.n.' M.gXSXmX,X[ d                       ",
"      *.,.e.G.rXNXAXAXAXAXAXAXAXAXAXAXAXAXCX0XJ.C.B.u.8.2.%.} X.                                                                                                      z.l._ _ _ ) ( ( { uX7X;X] ^ /                       ",
"    *.&.4.f.3XNXAXAXAXAXAXAXAXAXAXAXAXAXAXAXVX0XJ.A.V.t.8.>.*.#.#.@.X. .                                                                                              ! ! Q Q Q p t ! z.m.b.l d _ '                       ",
"    *.<.w.A.tXAXAXAXAXAXAXAXZXZXZXAXAXAXAXAXAXmXjX0X<XB.u.w.3.<.,.%.#.o.X.                                                                                            E E p t r e r ` x.l.p ; d { { g                     ",
"    #.6.f.P.yXAXAXAXAXAXAXAXZXZXZXZXAXAXAXAXAXAXAXAXmX<XJ.G.f.w.7.4.4.,.@. .                                                                                          s s p t e r p ` l.! e e W _ P A S I                 ",
"    -.p.A.Y.tXCXAXAXAXAXZXVXVXVXVXZXVXVXAXVXZXAXAXAXAXmXcXzXK.B.f.f.d.8.&.X...                                                                                        t t p p p p s ~ ~ s u i s s f Y -XgX:X              ",
"    $.a.J.T.eXCXAXAXAXAXVXVXVXVXVXVXVXVXZXZXVXAXAXAXAXAXAXAXjXK.C.A.C.u.2.} O. .                                                                                      e e p s p s ( _ ( W E p e ; m ].-X>X>X:X            ",
"..} ,.d.J.Y.tXCXAXAXVXVXZXZXAXAXAXAXAXVXVXVXZXZXVXVXAXAXAXAXAXjXK.C.A.A.a.$.| @.#.@.X.                                                                                  e p s u l M.N.' / p - X 5 R.).I Y XXFX;X          ",
"X.*.7.B.U.eXcXAXAXAXZXVXZXZXAXAXAXAXZXVXVXVXVXZXAXAXCXCXAXAXAXVX0X<X8XtX1Xk.6.6.<.%.}  .                                                                                  u s ( [ M.n.{ ] M $ 5 W.}..X[.[.{.pXFX:X        ",
"#.<.t.S.wXBXAXAXAXAXVXVXVXZXAXAXAXAXAXZXVXVXZXZXZXAXAXAXAXAXAXAXVXVXAXAXmX1XC.f.e.2.%.o...                                                                                  ~ M.N._ / [ ].E.c C |.+X@XpX#X.X).XX>X=X      ",
"#.6.V.P.rXCXAXAXAXAXVXVXVXAXAXAXAXAXAXZXZXVXZXZXZXAXAXAXAXAXAXAXAXAXAXAXAXcX4XS.i.y.8.=.X...                                                                                  N.N.` p f C Z N W.|. X.XOX(.W.z F XXXXm     ",
"#.5.D.T.wXMXAXAXZXVXVXVXVXVXAXAXZXVXAXAXAXAXAXAXAXAXAXAXAXAXZXZXAXAXAXAXAXAXvX<XK.J.f.8.&.} }   @.X.                                                                            M.( ; , , 5 N W.~.!.E.C R.Z $ + D `.U     ",
"#.5.D.T.wXMXAXAXZXZXVXVXZXZXAXAXVXVXZXZXAXAXAXAXZXZXAXAXAXAXZXVXZXAXAXAXAXAXVXmXBXtXJ.u.0.>.%.+.+.}  .                                                                          M w 5 < o @ c R.C V c b R.E.1 X F -X;XT A ",
"@.5.D.I.wXMXAXAXZXZXZXAXZXAXAXAXVXVXVXZXVXVXZXVXZXZXVXVXZXVXVXVXZXZXAXAXAXAXAXAXAXCXjX<XD.t.q.>.2.5.-.X.                                                                        3 b K I w o > z 4 < $ 5 b V & . f iXnX=XS ",
"#.5.D.I.wXMXAXAXZXZXZXAXZXAXAXAXVXVXVXZXVXVXVXVXVXVXVXVXVXVXVXVXZXZXAXAXVXAXAXAXAXAXCXVXmX8XB.y.f.V.5.#.@.o.X.                                                                5 x W.#XdXT 1 . . . . . o # # . . 7 =XfX&XA ",
",.6.D.I.wXMXAXAXAXZXZXAXZXZXZXZXZXZXVXVXVXZXZXZXAXAXZXVXVXVXVXZXVXVXZXZXVXVXVXVXAXAXAXAXAXNX0X8X4XP.Z.a.k.;.} }                                                               4 Z }.aXSX-Xv % . . . . # . . . # 6 Y -XY m ",
"2.p.D.I.wXNXAXAXAXVXZXZXZXZXZXZXZXVXVXVXZXZXAXAXAXAXVXVXVXVXVXZXVXVXVXZXVXZXVXVXAXAXAXAXAXAXAXAXBXwXH.S.C.j.;.#.#.o.                                                          b W.|.%XsX].z , > $ o # < # . # 5 m U `.G m ",
"2.e.D.T.wXNXAXAXAXZXVXVXZXZXZXZXZXAXVXVXAXAXAXAXAXAXAXZXVXVXZXZXAXAXZXZXZXZXAXZXZXZXVXVXZXAXAXAXAXBX3XP.S.C.j.e.6.<.,.                                                      4 E.~.}.@X(.n # o 5 c < o # o . = m U `.'.D m ",
"1.e.G.2X5XxXCXAXAXAXZXZXZXZXZXVXCXCXVXVXZXAXAXAXAXAXAXZXZXZXZXZXAXZXZXZXZXAXAXZXZXAXAXZXAXAXAXAXAXAXcX9X4XK.J.C.u.0.7.4.                                                  # V !.~.~.W.N o . o 4 c < . . . O 8 D `.`.U A w ",
"1.e.D.2X6X5XkXAXAXAXAXAXAXAXAXAXAXAXAXAXAXAXAXAXAXAXAXZXAXAXAXZXAXAXVXZXZXAXAXAXZXZXZXVXVXVXCXAXAXAXCXMXMXlX2XJ.B.t.y.w.;.                                              . c !.W.C B z o . # < 1 $ o . . O 8 A U `.U A     ",
",.6.j.J.Y.I.2XlXAXAXAXAXAXAXAXAXAXAXAXAXAXAXAXAXAXAXZXZXAXAXAXZXZXAXVXVXZXAXAXAXZXZXZXZXVXVXAXAXAXAXAXAXAXCXlX2XS.B.f.f.5.#.                                          . 4 !.}.B > $ . . 5 N z @ . . . . * m D U U D w     ",
"#.=.1.j.D.G.J.2XxXAXAXAXAXAXAXAXAXAXAXAXAXAXAXAXAXAXAXAXAXAXAXAXVXZXVXVXVXZXAXAXZXZXZXZXVXZXZXAXAXAXAXAXAXAXCXkX4XJ.J.D.r.2.>.                  v v v v v v     v 1 o 5 !.}.W.9 . . . 1 C E.5 X . . . . * m D G D A w     ",
"  #.=.4.r.f.C.H.3XkXxXkXkXkXkXkXkXtXtXkXMXAXAXAXAXAXAXAXAXAXAXAXZXVXVXVXVXAXAXAXZXZXZXZXVXVXZXAXZXZXAXAXAXAXAXMXvXzXtXU.f.0.8.7.              3 4 V C B b C E.b > # 9 W.}.E.c c 9 # < B C n y ; X . . . = m D D A m       ",
"    #.=.2.0.t.V.J.T.2X2X2XY.Y.Y.Y.Y.I.2XkXNXCXCXMXMXMXMXCXAXAXAXAXAXAXAXAXAXZXVXZXZXAXZXAXAXZXZXZXZXZXAXAXAXAXAXAXAXNXeXC.u.t.w.7.          , , % z B c 3 x N 4 . o B }.W.< $ C E.5 5 B z ; E s - X . . o 7 A D A         ",
"      #.=.2.7.0.t.B.G.H.H.H.H.H.H.J.G.J.2XeXeXwXwXwX9XeXvXAXAXAXAXAXAXAXAXAXAXAXAXAXAXAXAXAXAXAXAXAXAXAXAXAXAXAXAXAXAXMX4XC.B.f.w.          , % . o $ @ . o @ o . # E.!.v . # E.W.5 # $ o - s ^ t ; - X . o w D           ",
"        *.=.,.,.1.w.d.f.f.d.d.d.d.d.f.C.H.Y.Y.I.I.I.P.U.3XxXBXBXcXcXcXcXBXAXAXAXAXAXAXAXAXAXAXAXAXAXAXAXAXAXAXAXAXAXAXAXvX4XH.C.u.          _.R L : . O k P : . . * ].{.v @ 5 V b # . . . + y u u u r ; + = 8             ",
"          *.#.*.,.1.4.4.4.1.1.1.2.1.9.d.C.G.G.G.G.G.C.G.U.3X5X5X3X3X3X2XeXBXAXAXAXAXAXAXAXAXAXAXAXAXAXAXAXAXAXCXAXAXAXAXAXBXeXU.C.          fXgXgX=XH T gXhX:Xq . * oXiX{.V z < o . . . . . X - e u i E l U S             ",
"                =.=.=.&.=.=.=.=.&.&.2.9.r.a.a.r.r.r.s.f.G.I.T.I.U.I.P.J.4XtXxXlXlXlXlXlXlXlXlXlXlXlXlXlXkXkXkXtXlXCXAXAXAXAXNXlX0X    AXAXAX>X=XhXAXgXbXAXAXAX7Xk + I aXsXOX0 . . . . . . . . . - t W / M.;X[.            ",
"                  #.#.#.#.#.#.#.#.#.<.1.1.2.<.2.<.,.2.9.d.C.D.C.C.C.C.C.J.2X2X2X2X2XY.Y.Y.Y.Y.Y.Y.Y.Y.2X2X2XY.Y.5XcXCXCXCXCXCXAXAX    SXnXfXL 7 oXDXfXgXbXfXgXgXT 2 x OXdX&X* o . . # $ # . . o O y i s ] =XR             ",
"                                        ,.=.*.*.*.*.*.:.6.9.9.9.9.9.9.t.V.G.U.H.H.H.H.H.H.H.H.H.H.H.H.H.H.H.H.J.U.5XeX9X9XrXyXcXAX    -X_.H O o K {.I I _.I k L H z 3 0 L H v z c c B C V c c b c 2 - - : q M             ",
"                                          -.-.-.-.-.-.#.=.2.1.2.,.&.,.7.t.f.h.g.g.g.g.g.g.g.g.g.g.f.f.f.f.f.f.f.V.C.C.f.V.C.J.4X0X    H 3 , o . 3 3 % z Z z . . 5 N 1 . . < C ^.~.~.~.!.!.~.~.W.B > . . * q L             ",
"                                                                o.X.#.<.7.7.3.3.3.3.3.3.3.3.3.3.3.3.3.3.3.3.3.3.3.3.3.4.4.8.y.d.f.          @ . . % c C R.x @ . < b 1 . . > B !.}. X!.J ~. X}.E.c o . . L :X=X            ",
"                                                                                                ,.,.&.&.,.&.&.&.&.&.&.&.&.,.<.8.              X f &XoX).z , @ . @ > @ . . @ 4 b C E.V v V E.B 9 # . . . I iXXX            ",
"                                                                                                  *.#.#.#.#.#.#.#.#.#.#.#.#.#.                  *XnXbXT 7 + O . . . . . . . o o # # # $ $ # # . . o & 0 R oXI             ",
"                                                                                                                                                      ;X*Xv.L . . . . . . . . . . . . . .     . . 5 K =XpX(.              ",
"                                                                                                                                                        nXnX;XL w * . . . . . . o 1 < .         < c {.DXsX).              ",
"                                                                                                                                                            fX;X;X&Xw . . . . . 5 J c #           5 I gX:X0               ",
"                                                                                                                                                                  fX&XL q * . > B J 4 < B       ^.b n [.L                 ",
"                                                                                                                                                                    gXfXfX] 0 V C 1 . 4 Q.    /.~.!.Q.n                   ",
"                                                                                                                                                                          hX=XK 5 . . v {.      /.@XOX                    ",
"                                                                                                                                                                          ,X*Xq . . . 2 =X        #X                      ",
"                                                                                                                                                                          : w 0 @ . . * *X                                ",
"                                                                                                                                                                          , 3 4 > . o b oX                                ",
"                                                                                                                                                                          W.Z z @ . 3 /.aX                                ",
"                                                                                                                                                                        +X~.z @ . . n #X                                  ",
"                                                                                                                                                                       X XQ.7 7 2 2 T                                     ",
"                                                                                                                                                                       X|.{.*X:X=X=X                                      ",
"                                                                                                                                                                      |.|.#XfXcXhXfX                                      "
};
