/* XPM */
static char *luke_121[] = {
/* columns rows colors chars-per-pixel */
"89 77 256 2 ",
"   c None",
".  c #010101",
"X  c #01040B",
"o  c #0A0507",
"O  c #1A0B04",
"+  c #020913",
"@  c #020D1C",
"#  c #050714",
"$  c #161219",
"%  c #0F0F19",
"&  c #30140E",
"*  c #362717",
"=  c #010C26",
"-  c #031224",
";  c #01142C",
":  c #0C1529",
">  c #1A1526",
",  c #010D38",
"<  c #021633",
"1  c #021C3C",
"2  c #091E3B",
"3  c #031936",
"4  c #161D37",
"5  c #120B20",
"6  c #281B28",
"7  c #281D34",
"8  c #331C2B",
"9  c #122238",
"0  c #382538",
"q  c #2E2733",
"w  c #002511",
"e  c #4A1905",
"r  c #4D1806",
"t  c #582605",
"y  c #4D2817",
"u  c #672A05",
"i  c #753409",
"p  c #793914",
"a  c #69310B",
"s  c #4A2C2F",
"d  c #6C3D39",
"f  c #0C6428",
"g  c #714C37",
"h  c #514427",
"j  c #021D42",
"k  c #021A45",
"l  c #06184B",
"z  c #032244",
"x  c #092243",
"c  c #03244B",
"v  c #06274A",
"b  c #022653",
"n  c #042A54",
"m  c #032B5B",
"M  c #072959",
"N  c #133055",
"B  c #382845",
"V  c #2E2F4F",
"C  c #022E63",
"Z  c #00296B",
"A  c #033264",
"S  c #01336B",
"D  c #073767",
"F  c #023573",
"G  c #023B75",
"H  c #013C7B",
"J  c #003779",
"K  c #113969",
"L  c #221B54",
"P  c #442D46",
"I  c #47334B",
"U  c #563249",
"Y  c #4B3657",
"T  c #563A5B",
"R  c #4E2C4B",
"E  c #573D65",
"W  c #4D3769",
"Q  c #643D60",
"!  c #304257",
"~  c #03427C",
"^  c #1B4477",
"/  c #324B71",
"(  c #005B5B",
")  c #534D4B",
"_  c #6F544F",
"`  c #4F4D6B",
"'  c #6B4975",
"]  c #6B4D73",
"[  c #726F6E",
"{  c #7E695A",
"}  c #893A0A",
"|  c #945617",
" . c #8C4613",
".. c #A35618",
"X. c #96621B",
"o. c #9C5427",
"O. c #98542C",
"+. c #A85927",
"@. c #AD5F2C",
"#. c #B56737",
"$. c #AF6F32",
"%. c #AB7314",
"&. c #C97235",
"*. c #B76B48",
"=. c #8F726D",
"-. c #A36952",
";. c #C97C50",
":. c #01B51C",
">. c #00972B",
",. c #008C34",
"<. c #008939",
"1. c #009734",
"2. c #0D852B",
"3. c #00A42B",
"4. c #01AC2C",
"5. c #03AB28",
"6. c #03BD25",
"7. c #02B32A",
"8. c #08BA28",
"9. c #03A833",
"0. c #16B72C",
"q. c #1F9F1D",
"w. c #03C519",
"e. c #12D518",
"r. c #28DE1C",
"t. c #2DEE1D",
"y. c #09C724",
"u. c #13C828",
"i. c #13D422",
"p. c #1DD925",
"a. c #1BD526",
"s. c #11CC2C",
"d. c #22DC26",
"f. c #26DB29",
"g. c #39D737",
"h. c #2FCE35",
"j. c #39E82A",
"k. c #33E42F",
"l. c #0BE918",
"z. c #51DD38",
"x. c #44EA34",
"c. c #56F738",
"v. c #4CF230",
"b. c #65F937",
"n. c #74FD3E",
"m. c #42FF19",
"M. c #0D975C",
"N. c #5E8C57",
"B. c #3AC941",
"V. c #5AEA43",
"C. c #6BF844",
"Z. c #76F849",
"A. c #75EE52",
"S. c #79F451",
"D. c #6AE749",
"F. c #59DC47",
"G. c #409D3B",
"H. c #B88C2D",
"J. c #C38A38",
"K. c #C89634",
"L. c #CEA73A",
"P. c #AB9178",
"I. c #CB8C45",
"U. c #F09151",
"Y. c #D4AB48",
"T. c #E6986F",
"R. c #EFA274",
"E. c #D8A667",
"W. c #86FD49",
"Q. c #8CF954",
"!. c #96FC57",
"~. c #93FF4C",
"^. c #A5FD57",
"/. c #AEFF57",
"(. c #9DF764",
"). c #90FB6C",
"_. c #A9FC64",
"`. c #BBFD6B",
"'. c #B5FD64",
"]. c #B8FD77",
"[. c #A9FD76",
"{. c #C6FD6C",
"}. c #C9FC76",
"|. c #D2FD78",
" X c #043D86",
".X c #00349C",
"XX c #003DA4",
"oX c #01448A",
"OX c #034689",
"+X c #014B92",
"@X c #024A98",
"#X c #0D4E96",
"$X c #2E5087",
"%X c #0154A4",
"&X c #005AAD",
"*X c #0456AA",
"=X c #025CB2",
"-X c #085DB6",
";X c #0E55A8",
":X c #0162BB",
">X c #2A70B5",
",X c #196AA4",
"<X c #705285",
"1X c #627597",
"2X c #0266C7",
"3X c #036BD6",
"4X c #0571DA",
"5X c #1571CC",
"6X c #0478E7",
"7X c #0676F3",
"8X c #2370CA",
"9X c #407DCA",
"0X c #8B6D9A",
"qX c #67939B",
"wX c #3A82CE",
"eX c #0886FB",
"rX c #2D8BEE",
"tX c #5E9DDF",
"yX c #978B93",
"uX c #AD948E",
"iX c #9996B9",
"pX c #ACACB4",
"aX c #A49FAB",
"sX c #DFAB89",
"dX c #B6FD89",
"fX c #95E58B",
"gX c #C6FD87",
"hX c #D5FB84",
"jX c #DAFD8B",
"kX c #C7FC96",
"lX c #D9FA98",
"zX c #E1FB98",
"xX c #DBFBA5",
"cX c #D6FBB2",
"vX c #E4FAA9",
"bX c #E5F9B8",
"nX c #CFCFB3",
"mX c #98B4D0",
"MX c #9ABAD5",
"NX c #8EC7F7",
"BX c #CBCDCF",
"VX c #DCFBCC",
"CX c #ECF9CB",
"ZX c #E8F9C6",
"AX c #EAF9D6",
"SX c #F2F9DD",
"DX c #F6F9D6",
"FX c #F2FBCA",
"GX c #F5F9EB",
"HX c #F7FBE6",
"JX c #FAF9F4",
"KX c #FAF8FA",
"LX c #F7F7F5",
"PX c #EDF4E5",
"IX c #DDDCE9",
"UX c #CAB8CF",
/* pixels */
"      *.#.J.E.nXBXBXBXnXY.%. .                                                                                                                                                    ",
"      J.J.J.E.sXuXuXuXE.Y.H.X. .                                                                                                                                                  ",
"      L.K.&.I.I.$.o.O.#.K.L.H.| i                                                                                                                                                 ",
"      I.$.+.+.$.H.%. . .$.Y.L.X.i                                                                                                                                                 ",
"      +. .a u  .$.J.%.+.$.I.J.$. .                                                                                                                                                ",
"      } i r e i @.I.J.K.K.I.I.H.$.|                                                                                                                                               ",
"      $.O.p p O.#.O.X.H.K.I.I.Y.K.|                                                                                                                                               ",
"      sXT.;.I.T.;. .t a O.I.Y.Y.K.|                                                                                                                                               ",
"      T.T.R.R.T.;.O.u e u O.I.Y.K.| * , ,                                                                                                                                         ",
"      o.#.T.T.;.#.+.O.p u p @.K.K...y b F m                                                                                                                                       ",
"      }  .*.;.*.+.o.@.+.p t p #.&...I %X4X=XN                                                                                                                                     ",
"      +.+.+.+.+...+.#.O.t O & d O.d ^ 2XeX4X@Xx                                                                                                                                   ",
"      #.+. .i p o.@.o.a O . X 7 P V G *X2X2X*XH x                                                                                                                                 ",
"      y y * y s g d * & & O . # : x M F OXOX~ oXH c                                                                                                                               ",
"      . % ) ] ] E B X O u u O . # 7 7 x c j ; A %X@XM                                                                                                                             ",
"      5 B yXpX0X<XW 5 O i  .t o X 6 B B x @ . x :X6X-XN                                                                                                                           ",
"      8 0 [ 1X<X<X<XY 0 y O.| t O 7 Y E V : # n 2XeX3XA                                                                                                                           ",
"    0 $ % q ! N ! ' <XE P g &.@.a 8 T ' T 7 : m *X3X*Xn                                                                                                                           ",
"    4 j K 1X1XN < 0 T V 4 _ T.U.O.* 0 T T 0 % - c H H c 2                                                                                                                         ",
"    1 H wXNXmX/ = o s 0 # g T.U.O.q 4 B U P # . . - c c x 2                                                                                                                       ",
"    j %XeXrX>XK # o R B $ y &.&._ #XOXB U P 4 X . . @ c n x                                                                                                                       ",
"    x %X4X2XoXc # o 8 0 8 y p } g 5X4X^ P I V 9 # . # C G x                                                                                                                       ",
"    x OX*XoXb < # . o 6 B 6 O t _ rX7X=XV R U V : X 1 @X+Xx                                                                                                                       ",
"    2 A H S k ; j c ; - 4 : % ! >X6X6X=XN 0 U B : x +X:X@X2                                                                                                                       ",
"    x m F J K / $XOXM 4 7 > 4 #X3X2X%XOXx 0 U 8 # c *X2X+X2                                                                                                                       ",
"    C C Z oX9XiXqX$XN P R 8 > m H C n c 4 P Y 8 o # m %X+Xx                                                                                                                       ",
"    S b j F wXNXtX#X#X$XY 8 8 7 : @ 4 V B P Y q o . # S H x                                                                                                                       ",
"      ; X j ;XrX5X:X2X-XK B s s & 6 Y ' P 0 I 0 o . @ C G c                                                                                                                       ",
"      - # j @X3X:X@X@X%X=X$XU y & U ] ' 0 8 I B - X j oXoXn                                                                                                                       ",
"      x 1 x S @X@Xm < A =X>X$XN V T Q P > > 0 L 1 1 A ^ K 2                                                                                                                       ",
"      A c - < A S j - 1 S ;X4X4X;XV 8 > 6 7 4 1 j b N 0 * o                                                                                                                       ",
"        m < @ - - - 2 j m >XtXrX;XF 2 * _ <X` ` ` N N V 6 o                                                                                                                       ",
"          C 1 # . X < l C qXpX=.V @X/ O.P.aX1XiXaX) ;  X~ -                                                                                                                       ",
"          J m - . . X = < ) $.} e ! { #.-.` / iXBX) . l oX@X                                                                                                                      ",
"          S C x - - - - # O & r i | &.#.y X ; 1XIXyX& . Z 7X                                                                                                                      ",
"            C C G OX+XS < . o e ..U.U.+.u O o ` IXIX=.O l 7X                                                                                                                      ",
"              F %X2X*XS 9 O O y -.sX;. .i r O s uXBXqXf A ,XM.                                                                                                                    ",
"                    m $ & r r s ' 0X_ t r r e r h G.s.4.>.9.7.:.5.4.4.4.4.4.4.7.                                                                                                  ",
"                    > & e y y q V V q & & & e * q.e.l.l.w.w.w.w.6.6.6.6.6.6.6.y.y.i.i.i.i.i.i.i.i.i.i.i.i.u.4.<.                                                                  ",
"                    s P 0 7 6 % % > % % 6 7 B N.A.Z.c.j.r.r.r.f.f.d.d.d.d.d.d.d.d.d.p.p.p.p.p.p.p.f.f.f.d.i.7.>.>.                                                                ",
"                  s Y Y 7 > % . o > 5 X 7 R W aXVXxX`.^.Q.Z.Q.!.Q.Z.S.S.S.S.S.S.S.S.A.A.A.A.A.A.A.A.S.S.c.k.y.6.8.u.p.p.y.4.9.9.4.4.9.9.                                          ",
"                B P P q $ o . . # $ # # B ] iXIXKXHXFXbXvXxXvXzX}.'.'.`.`.`.`.`.`.`.`.`.`.`.`.`.`.`.{.'.Q.c.x.k.k.k.x.k.h.u.7.7.5.7.7.7.y.                                        ",
"              s I Y 0 6 $ o . o o X $ 0 E 0XUXJXKXKXKXLXLXLXLXDXlX|.|.hXhXhXhXhXhXhXhXhXhXhXhXhXhXhXjXgX_.!.Q.Q.Q.Q.!.!.S.x.p.y.y.i.i.i.i.p.y.4.4.4.4.4.4.4.4.4.                  ",
"            s U T E T I 0 8 6 $ o . 8 E ' ] yXnXbXCXGXKXKXKXKXLXAXbXZXZXCXCXCXCXCXCXCXCXCXCXCXCXCXCXDXbXgX`.`.}.{.{.}.}._.W.C.c.c.V.V.V.c.j.a.y.6.6.6.6.6.6.6.8.8.9.9.            ",
"          N V Y Y T ' ' ' E T P 8 8 T ' E 7 B N._.}.vXHXKXKXKXKXKXKXKXKXKXKXKXKXKXKXKXKXKXKXKXKXKXKXKXGXbXlXlXlXlXlXzXlX}._.^._._._._.'.!.C.j.f.a.f.f.f.f.f.f.p.y.7.4.9.          ",
"        F OX#X^ V 0 T ' ' ' <X' ` T ' ' 8 # = G.Z.^.`.kXAXKXKXKXKXKXKXKXKXKXKXKXKXKXKXKXKXKXKXKXKXKXKXKXGXSXSXHXSXHXHXSXxX}.{.}.}.}.|.|.}.!.Z.C.C.C.S.S.S.Z.C.v.d.y.y.8.7.        ",
"      H @X*X@Xm - $ 8 0 B T ' ' ' W I 8 o . # 2.c.W.~.!.dXHXKXKXKXKXKXKXKXKXKXKXKXKXKXKXKXKXKXKXKXKXKXKXKXKXKXKXKXKXKXKXSXvXxXvXvXvXvXbXlX`./.'.`.`.`.`.`.`.'.!.b.j.k.p.6.4.      ",
"    C @X*X@Xm @ . . . % 2 4 7 8 7 x : X . . . f f.c.b.b.!.xXHXKXKXKXKXKXKXKXKXKXKXKXKXKXKXKXKXKXKXKXKXKXKXKXKXKXKXKXKXKXLXLXLXLXLXLXKXKXAXlX}.|.hXhXhXhXhXhXjXhX].Q.C.v.p.6.4.    ",
"2 x C @X@Xm @ . . . . ; b c : $     < # . . . w 2.f.t.t.n.].xXbXCXGXKXKXKXKXKXKXKXKXKXLXKXKXKXKXKXKXKXKXKXKXKXLXLXLXKXKXKXKXKXKXKXKXKXKXLXAXZXZXCXCXCXCXCXCXDXDXvX}.!.W.c.f.6.4.4.",
"2 n F H c # . . . . ; m S m 1       x 1 ; # . X 9 <.s.e.x.!._._.}.bXLXKXKXKXKXKXKXKXKXLXKXKXKXKXKXKXKXKXKXKXKXLXLXLXKXKXKXKXKXKXKXKXKXKXKXKXKXKXKXKXKXKXKXKXKXKXSXlX`._.[.S.f.8.7.",
"2 A @XA # . . . . . x S m c         x n G n # . 1 ~ M.9.f.b.Z.W.^.gXbXLXKXKXKXKXKXKXLXLXKXKXKXKXKXKXKXKXKXKXKXKXLXKXKXKXKXKXLXKXKXKXKXKXKXKXKXKXKXKXKXKXKXKXKXKXKXSXlX}.|.}.S.g.u.",
"2 A @XS ; @ @ # # ; n m c             n OX~ 1 - b .X-XqXF.m.m.c.W.'.hXvXSXGXJXKXKXKXLXLXLXKXKXKXLXKXKXKXKXKXKXKXLXKXKXKXKXKXKXKXKXKXKXLXKXKXKXKXKXKXKXKXKXKXKXKXKXKXSXvXjXjX[.c.d.",
"x m G S b b c x c m n x                 n m m b Z XX8XMXfXj.l.t.c.~._.].gXlXCXKXKXKXKXKXKXKXKXKXLXLXKXKXKXKXLXKXKXKXKXKXKXKXKXKXLXLXLXLXKXLXLXLXLXLXLXLXLXLXLXKXKXKXKXSXvX|._.c.d.",
"m m n j 1 b A A A m c                     x b j c %XrXtXqXM.9.y.r.k.V.Q./.{.lXFXKXKXKXKXKXKXKXKXLXLXKXKXKXKXLXLXKXKXKXKXKXKXKXKXLXKXLXLXKXLXLXLXKXKXKXKXKXKXKXKXKXKXKXLXvX}.!.x.p.",
"A m 1 @ @ 1 m S m v                         2 @ - ~ -X#X XOX( <.9.4.8.F.!.!.'.jXFXGXLXKXKXKXKXKXLXLXKXKXKXKXLXLXKXKXKXKXLXLXLXLXKXKXKXKXKXKXLXLXKXKXKXKXKXKXKXKXKXKXKXGXvX}.(.z.i.",
"c < # - 1 c v                                 : - < x k k k 1 A   ( 1.8.h.z.A.'.].dXkXAXKXKXKXKXKXKXKXKXKXKXLXLXLXLXKXKXKXLXLXLXKXKXKXKXKXKXKXKXKXKXKXKXKXKXKXKXKXKXKXGXvX}.(.g.8.",
": # . @ 1 < -                                 x 1 < ; @ . . . ,     M.3.:.5.h.D.b.v.b.[.ZXHXGXKXKXKXKXKXKXKXKXKXLXLXKXKXKXKXKXKXKXLXLXLXLXLXKXKXLXLXLXKXKXKXLXLXKXKXKXGXvX{.(.B.4.",
"2 @ . . . . # 2                               2 n G S - . . . 1 @X        3.3.0.8.w.i.x.Z.(.kXHXKXKXKXKXKXKXKXKXLXLXKXKXKXKXLXLXKXKXLXLXKXLXKXKXLXLXLXKXKXKXKXLXKXKXKXGXvX|._.B.4.",
"H m ; X . # n #X                                c G H 1 . . < ,XtXtX        >.>.3.4.5.6.r.v.!.kXZXZXGXKXKXKXKXLXLXKXKXKXKXKXLXLXKXKXKXKXKXKXKXKXLXLXKXKXKXKXLXLXKXKXKXGXvX|._.B.4.",
"*X%XG c < j @X4X4X                                x m m x 1 H wXMXmX9X      <.>.    >.<.3.f.b.!.^.[.bXLXKXKXKXKXKXKXKXKXKXLXLXLXKXKXKXKXKXKXKXKXKXKXKXKXKXKXLXKXKXKXKXLXvX|.!.h.7.",
"  =X%XH b c F %X2X:X                                c +X=X*XH v h P.mXwX              <.<.9.a.j.b.^.}.bXLXKXKXKXKXKXKXKXKXKXKXKXLXLXKXKXKXKXKXKXKXKXKXKXKXKXKXKXKXKXKXLXvX{.Z.h.7.",
"    *X%XG b < j oX2X                                  %X6X3XG X . s yXmXwX              <.1.3.y.g.D.D.(.cXHXHXAXPXKXKXKXKXLXKXKXLXLXKXKXKXKXKXLXKXKXKXKXKXKXKXKXKXKXLXCXlX!.v.u.3.",
"      *X%XG ; X c =X                                    =X@XOXC < o s uXMX                <.1.4.8.0.0.h.).gXgX[.kXPXKXKXKXKXKXKXLXLXKXKXKXKXLXLXLXLXKXKXKXKXKXKXKXLXCXlX`.Z.p.4.1.",
"        =XoX< . # A *X                                    S H %X+X< o s [ ,X                    4.>.,.3.g.W.^.^._.kXPXKXKXKXKXKXLXLXKXKXKXKXLXLXLXKXKXKXKXKXKXKXKXLXvX|.'.D.8.    ",
"           X1 . . # ~ =X                                    m oX*XS X . > ,X5X                    <.f >.8.x.Q._.!.!.kXHXKXKXKXKXKXKXKXKXKXKXKXKXKXKXKXLXLXLXKXKXKXLXbX|./.F.4.    ",
"            b < X . < OX*X                                    H =X@X< . 6 qXtX5X                    <.<.4.a.x.c.v.b.!.gXcXbXGXKXKXKXKXKXKXKXKXKXKXKXKXKXLXLXKXKXKXKXZX|.!.g.4.    ",
"              F < . o A *X                                      @X@XC # & =.mXtX                      ,.1.7.y.y.i.k.c.Z.W._.cXGXGXLXKXKXKXKXKXKXKXKXKXKXKXKXKXKXKXKXZX`.b.a.7.    ",
"              %Xc . . n %X                                      F +X@XA - * [ pX                        <.1.1.3.7.7.u.d.v.Z._.].dXVXKXKXKXKXKXKXKXKXKXKXKXKXKXKXKXKXvX!.j.y.7.    ",
"                ~ x < 1 m OX                                      H @X@Xb # q { =.                              9.1.3.6.p.v.n.~.^.dXAXKXKXKXKXKXKXKXKXKXLXKXKXKXKXDXgXb.i.5.      ",
"                =X=X@X1 X x %X                                      H %X@Xc . O U <X                              1.1.9.y.p.j.C.~.!.].ZXKXKXKXKXKXKXKXKXKXKXKXKXSXjX~.k.8.        ",
"                3XeX3Xn . c 2X                                        %X%Xx . . [ iX>X                              ,.1.9.8.u.h.x.c.W.].xXcXHXKXKXKXKXKXKXKXKXKXCX!.j.8.1.        ",
"                6XeX:Xc @ G 6X                                          +X- . K mXIXtX                                ,.1.9.9.3.6.a.x.n.W.!.dXVXGXGXGXGXGXGXGXSXdXv.w.1.          ",
"      7X6X2X*X=X2X=Xn @ 1 @X2X                                            - 1 5XNXLXIX                                      1.<.1.9.8.a.j.b.Z.Q.).[.dXkXkXkXgX[.c.p.3.            ",
"      4X2X~ c n A x X . ; H *X                                            A oX=X>XpXSX                                          <.,.1.3.8.f.k.f.r.r.z.z.z.z.z.f.u.7.              ",
"        @X< . . . . . . . m *X                                          ; G oXb < ! aX                                            ,.<.<.1.9.7.7.4.4.4.4.4.4.7.5.3.                ",
"                                                                      . + 1 1 X . # 0                                                                                             ",
"                                                                      . . . . . . . .                                                                                             "
};
