/* XPM */
static char *luke_82[] = {
/* columns rows colors chars-per-pixel */
"74 59 256 2 ",
"   c None",
".  c #010101",
"X  c #01040B",
"o  c #080604",
"O  c #001602",
"+  c #020512",
"@  c #010A14",
"#  c #00031C",
"$  c #010C1B",
"%  c #0B0B14",
"&  c #160E17",
"*  c #06111D",
"=  c #1B121A",
"-  c #18141A",
";  c #1A0D0A",
":  c #2E130B",
">  c #00340A",
",  c #020C27",
"<  c #021224",
"1  c #04142B",
"2  c #08172C",
"3  c #020738",
"4  c #031A34",
"5  c #011B3B",
"6  c #051937",
"7  c #161934",
"8  c #1C1220",
"9  c #271A28",
"0  c #291D37",
"q  c #331D30",
"w  c #18263A",
"e  c #042A36",
"r  c #292336",
"t  c #372437",
"y  c #32262A",
"u  c #35211A",
"i  c #571A01",
"p  c #4C1601",
"a  c #50260B",
"s  c #642706",
"d  c #7A3808",
"f  c #793A14",
"g  c #6D2F09",
"h  c #492C31",
"j  c #015313",
"k  c #026818",
"l  c #00660E",
"z  c #0C4D30",
"x  c #006C30",
"c  c #734834",
"v  c #7A4612",
"b  c #021E43",
"n  c #011B48",
"m  c #071152",
"M  c #022245",
"N  c #03234A",
"B  c #072447",
"V  c #162846",
"C  c #032957",
"Z  c #133157",
"A  c #262845",
"S  c #392944",
"D  c #373558",
"F  c #2E3353",
"G  c #012D63",
"H  c #032D68",
"J  c #023363",
"K  c #02336B",
"L  c #02396D",
"P  c #033975",
"I  c #0A3070",
"U  c #2D376A",
"Y  c #111F52",
"T  c #492D45",
"R  c #48324C",
"E  c #55324B",
"W  c #4A3557",
"Q  c #543959",
"!  c #502E4A",
"~  c #573C63",
"^  c #483A66",
"/  c #683F5D",
"(  c #0E4B4B",
")  c #394355",
"_  c #007353",
"`  c #05417C",
"'  c #154D75",
"]  c #36466A",
"[  c #395478",
"{  c #167261",
"}  c #534A53",
"|  c #694C52",
" . c #5D4268",
".. c #4C506E",
"X. c #654469",
"o. c #694975",
"O. c #725179",
"+. c #6B676D",
"@. c #6A645F",
"#. c #913B0A",
"$. c #A63E01",
"%. c #965518",
"&. c #8E4A11",
"*. c #A75414",
"=. c #9B621D",
"-. c #AA7315",
";. c #94522C",
":. c #A7592A",
">. c #A95C32",
",. c #9B6933",
"<. c #B26C2F",
"1. c #CD7032",
"2. c #E87026",
"3. c #8C5B45",
"4. c #B97352",
"5. c #907159",
"6. c #C8754C",
"7. c #029A1A",
"8. c #039109",
"9. c #03A717",
"0. c #0BB618",
"q. c #0EB216",
"w. c #008A2A",
"e. c #009424",
"r. c #01932C",
"t. c #039C2B",
"y. c #029C25",
"u. c #008C34",
"i. c #008C39",
"p. c #038331",
"a. c #019332",
"s. c #099C33",
"d. c #06A428",
"f. c #1AB52C",
"g. c #14B02F",
"h. c #29B938",
"j. c #2FB130",
"k. c #17C718",
"l. c #26D519",
"z. c #1AC830",
"x. c #26C724",
"c. c #39C83A",
"v. c #2FD128",
"b. c #34E232",
"n. c #22E61B",
"m. c #49D53A",
"M. c #52EF33",
"N. c #71FF3D",
"B. c #31B34C",
"V. c #129056",
"C. c #538E6A",
"Z. c #49AA64",
"A. c #3CC647",
"S. c #3DC757",
"D. c #44CA47",
"F. c #56DA4B",
"G. c #4CD04E",
"H. c #63DA5A",
"J. c #5AEC4A",
"K. c #66FA43",
"L. c #6BED57",
"P. c #7CDD77",
"I. c #6CD469",
"U. c #73EA70",
"Y. c #45CD64",
"T. c #B28536",
"R. c #B3831E",
"E. c #C89034",
"W. c #CFA934",
"Q. c #B48D72",
"!. c #D38558",
"~. c #F09251",
"^. c #CAAA53",
"/. c #D29168",
"(. c #EB9C71",
"). c #D1B672",
"_. c #F4A67A",
"`. c #FFA15F",
"'. c #82DE7E",
"]. c #97F77D",
"[. c #8AED77",
"{. c #FFC17A",
"}. c #033A89",
"|. c #003894",
" X c #123495",
".X c #1C2B81",
"XX c #014482",
"oX c #01448B",
"OX c #04488B",
"+X c #014C93",
"@X c #034797",
"#X c #02539C",
"$X c #0C548D",
"%X c #0154A4",
"&X c #0255AC",
"*X c #015AB5",
"=X c #054EAA",
"-X c #0767B1",
";X c #2B6EB2",
":X c #22638D",
">X c #485490",
",X c #735487",
"<X c #557590",
"1X c #63759B",
"2X c #0364C6",
"3X c #0467D5",
"4X c #0E70CD",
"5X c #087AE8",
"6X c #0579F6",
"7X c #1079E0",
"8X c #2772DC",
"9X c #5972D4",
"0X c #008692",
"qX c #31BA9D",
"wX c #71AF96",
"eX c #6C89AC",
"rX c #63949C",
"tX c #6ED090",
"yX c #0E87F9",
"uX c #348ADA",
"iX c #7389C5",
"pX c #68B0F3",
"aX c #4B9AEB",
"sX c #86868A",
"dX c #B09896",
"fX c #B1ADAF",
"gX c #96A1AC",
"hX c #CFB396",
"jX c #D6AC98",
"kX c #93EB8F",
"lX c #A6F497",
"zX c #ABF696",
"xX c #ADF8A3",
"cX c #B7F9A7",
"vX c #B0EDA9",
"bX c #97D19A",
"nX c #D5CBB1",
"mX c #C5F7B7",
"MX c #CDFEB0",
"NX c #F8C78C",
"BX c #8EADD3",
"VX c #ACBDCC",
"CX c #88B3EF",
"ZX c #B8C6D4",
"AX c #D0CDD3",
"SX c #D8FDC7",
"DX c #D9FAD7",
"FX c #C9F3C7",
"GX c #E6FDDA",
"HX c #E1FEC9",
"JX c #E8FCE4",
"KX c #F4FFEB",
"LX c #FEFFFD",
"PX c #F8FDF5",
"IX c #ECFEFF",
"UX c #D2E5E3",
/* pixels */
"              <.<.^.nXAXAXAXnX).R.&.d                                                                                                               ",
"              T.-.T.).hXdXdXhX^.E.-.&.                                                                                                              ",
"              E.=.%.T.T.=.;.<.E.W.W.=.f                                                                                                             ",
"              E.%.d &.-.-.&.#.:.W.W.-.g                                                                                                             ",
"              ;.f i s &.R.-.,.4./.E.-.&.                                                                                                            ",
"              f s p s d %.-.^.nXjX!.E.-.&.                                                                                                          ",
"              ,.f f ;.;.d v T.hXAXjX/.E.%.d                                                                                                         ",
"              (.6.6./.!.&.i s ,.jXAXjX1.&.d                                                                                                         ",
"              (._._.(.!.>.g p i ;.Q.).E.*.g                                                                                                         ",
"              <./._.!.4.>.;.f i p g -.E.,.h                                                                                                         ",
"              &.<.!.6.:.;.>.>.&.i i #.,.<X=XN                                                                                                       ",
"              %.*.:.>.:.>.6.6.%.g s s } 4X3XH $                                                                                                     ",
"              >.*.d d %.<.6.>.f s g h I *X*XP 5 C                                                                                                   ",
"            T | c u : g ;.;.a ; : h A H }.P H J OX&X                                                                                                ",
"          } X.X.Q 7 . : d a o . % q A N C b 4 J *X7X%X                                                                                              ",
"        | dXdX,X,XD + ; d d : . + 0 S A b < . 5 &X6X2XC                                                                                             ",
"      = ..BXBX,X,Xo.0 : f :.&.: ; t Q Q A 2 . + H 2X*XC 2                                                                                           ",
"    q 9 ' uX4XU ~ O.~ S h 3.1.&.a t ~ o.Q r < X $ C P C 5                                                                                           ",
"  N U <XeX;X@XH w E o.D 0 3.(.!.f u S X.~ S * . . + 5 N N                                                                                           ",
"5 K ;XCXgX>X|.@XN 9 R 0 % 3._.~.c r 7 T Q S % . . . < H C 5                                                                                         ",
"b oXyXaXeX' oX*XP < & X . c ~.1.| $XI t E R 2 X . . $ H J B                                                                               u.u.      ",
"N +X5X3XoXH P P C $ . . & h #.$.@.7X2XU T W F 2 X . X b P K B                                                                           s.e.7.e.    ",
"B ` *X=XH n 4 < @ . . & t 9 : g +.yX6X$XF T W F 1 X . @ J +XL 5                                                                     s.t.d.f.c.h.s.u.",
"B J +XoXH 1 . . . . . q W 9 % ) ;X5X6X&XV h E D B < . . < P oXP                                                                   t.9.9.h.P.cXlXZ.u.",
"N C H K B @ . . . . . q E t w %X7X2X*XOXV h E D   b 1 . . < P &X                                                            s.t.d.f.c.c.'.JXLXDXZ.u.",
"C b < $ @ . . . . . . q E h w P oXP J C w h E     N B 1 . . 5 P                                                       s.a.s.d.0.x.L.vXFXKXLXKXkXB.w.",
"N , . . . X < $ . . . = S T r 7 2 2 7 A r h E D     n 5 X . # b                                                     t.d.d.g.A.L.].GXPXLXPXSXkXh.e.w.",
"b 5 * . . < N N < . . @ V D R t = 8 R ~ t y R ~       b + . 1 N 5                                               s.a.d.x.n.J.cXGXKXLXLXvXH.F.h.e.    ",
"' [ +.S @ $ B C N 5 C H H U Q T 9 9 X.,XQ t R W       } h c +...b ,                                           9.d.B.tXlXcXMXSXSXFXmXkXA.9.9.t.      ",
";XiXZXeXB . $ B C K OXoXK U Q T 9 9 Q O.X.Q W 0       1.!.NXNXQ.} 7                                     r.s.d.f.H.vXPXLXLXGX[.m.c.D.h.d.w.w.        ",
"%XuXpXaXK . < J C 5 B B 4 S Q R 9 = 9 R o.O.^ 7 u :.2.2.~.NX{.`.!.}                                   w.9.D.bXvXGXLXPXmXlX'.c.9.7.y.t.a.            ",
"}.*X5X5XK X B +XJ X . . . 9 W W t = o 8 ^ ,X| u y c ;.v ,./.4.6./.+.                                0.9.D.cXLXLXJXDXxXm.k.f.s.a.u.u.u.              ",
"K oX2X*XN . N %X` 4 1 $ . * F ^ h = o 2 OX>Xc s y Z Z Z F ] D ) ..] K H H G                 a.a.g.x.v.F.cXLXLXFXP.F.A.g.y.r.u.i.                    ",
"4 H +XoX1 . N %X` 5 5 1 . . 7 W q ; h <X4X$Xh s t U OX@X|.}.}.}.}.}.oXoXoX}.}.            t.9.0.A.P.zXMXGXDXvXH.0.9.t.a.u.u.i.                      ",
"X 1 C C $ . B +XJ X X . . . & S q u 5.VXuXoXr h !  .>X&X&X=X&X&X&X%X%X%X=X=X|.K     d.t.s.f.c.M.lXGXPXDXP.m.c.f.t.w.u.u.                            ",
"N 5 $ @ . . 1 J 5 . o . . % & q } sXfXgX>XZ A W X./ D P XX` ` XXXX` P H |.=X#X_ p.t.d.0.v.P.FXGXSXmXlXP.h.9.7.r.i.i.                                ",
"%XL X . . $ 1 1 X . & - - 9 8 8 @.fXsXy = q W o.X.t & 1 B B 5 1 1 1 2 4 J OX{ t.9.f.D.L.].MXLXLXvXF.x.f.s.r.u.u.i.                                  ",
"2X+X5 . $ J J @ . . 2 A S R q = R +.t . o h o.X.t % . . < 1 + . . + , z x i.s.k.l.L.cXGXKXmXkXP.D.d.7.e.a.i.                                        ",
"*X%XH X 4 #XXX@ . X 5 Z W X.Q q & & . % r  .O.W = . . . + # . . O 2 z w.0.k.D.'.zXMXHXDXmXH.x.q.d.a.u.u.u.                                          ",
"*X+XH X 4 #XXX@ . X 1 6 r Q o.W 9 & 8 S ~ X.Q y & . . . . . . O l r.t.f.b.M.zXPXLXGX].F.D.h.t.r.w.u.                                                ",
"&X+XC X 2 +XXX@ . . + X . 9 Q o. . .X.X.E q 9 = o . . . O > > l 0.n.b.P.mXHXSXMXmXkXc.9.d.a.i.i.                                                    ",
"*X#XK + 2 #XXX@ . . . . . = R o.O.o.O.~ 7 + % o . . X X j d.g.S.L.L.].SXPXPXlXm.x.f.s.a.u.u.i.                                                      ",
"    oX< 1 +XXX@ . . $ 2 9 R  .Q y 9 0 Z H C , . X > k k 9.b.kXDXKXKXGXMX].U.G.d.7.r.u.i.                                                            ",
"    %XB < J P 5 X . $ A  .X.E 8 . . , }.9X8X X, > 8.z.Y.U.xXJXLXLXJXmXH.x.0.d.a.u.u.u.                                                              ",
"    &XK $ @ N P 5 . . S O.Q = . . # G ;XBXCX8XXXw.x.U.DXJXLXLXGXkXF.D.f.y.e.u.i.                                                                    ",
"    *XP $ . 3 }.N . . 9 D U N + . + C V.tXtXqXqXtXxXGXLXLXmXlXP.v.0.9.r.i.i.                                                                        ",
"    *XH X ; ] ;X] 9 * % % N P 4 . O j d.B.D.U.cXKXLXLXJXkXD.x.f.d.r.w.u.i.                                                                          ",
"    +Xb ; @.VXZXVXsXF X . # b z j l 8.v.tXFXSXMXcXlXkXP.c.9.7.e.u.u.                                                                                ",
"  1 P Z ..BXZXfXUXBXU # X O > 8.z.Y.U.lXSXJXGXlXM.l.q.q.q.7.e.w.w.                                                                                  ",
". X V rXVXpX:X) ;X8X}.e k 7.q.l.U.DXLXGXzX[.H.D.l.q.7.7.e.w.                                                                                        ",
". . r fXIXpXP # m +X{ j.M.U.kXlXSXLXLXMXK.l.0.q.q.9.i.0X0X                                                                                          ",
". . w ZXLXBXI 3 3 ( m.M.K.xXKXLXLXLXcXK.l.k.d.r.u.i.V.4X6X                                                                                          ",
". . w ZXLX1Xm m 3 z M.M.j.I.SXLXLXcXK.l.0.d.r._ $X-X-X*X3X6X                                                                                        ",
". # I BXAXC.j z z C.H.Z.w z I.vXxXK.n.f.p.k x ' 3X6X3X}.@X3X3X                                                                                      ",
". n 4XaXgXG.v.m.m.H.wX>Xm < z B.A.z.0.u.z 2 e #X6XyX3XP C }.%X2X6XyX                                                                                ",
". Z pXCXeXI.U.L.N.K.C.>X.XY B ( _ x j z B m }.3XyX5X+Xb < 1 B P #X&X                                                                                ",
"= @.VXBX1XeXeXwXU.m.( U >X] G oXOXB X X 5 H =X3X5X&XN . . . . @ 4                                                                                   ",
"sXsXeX..D >X9XiXwXC.( Y ] D             # 5 C J K K                                                                                                 ",
"AXBX:X, = ..iXiXeX<XZ 5 V V             . . . . $                                                                                                   "
};
