/* XPM */
static char *luke_26[] = {
/* columns rows colors chars-per-pixel */
"89 77 256 2 ",
"   c None",
".  c #010101",
"X  c #01040B",
"o  c #0A0507",
"O  c #1A0B04",
"+  c #020913",
"@  c #020D1C",
"#  c #050714",
"$  c #08101C",
"%  c #161219",
"&  c #150D18",
"*  c #2F150E",
"=  c #322516",
"-  c #010C26",
";  c #031224",
":  c #01142B",
">  c #0C1529",
",  c #1A1526",
"<  c #021633",
"1  c #021C3C",
"2  c #091E3C",
"3  c #031836",
"4  c #171B38",
"5  c #050E2F",
"6  c #281B28",
"7  c #341B28",
"8  c #281D34",
"9  c #311F33",
"0  c #122237",
"q  c #2B2437",
"w  c #382538",
"e  c #312930",
"r  c #042215",
"t  c #491804",
"y  c #4D1909",
"u  c #582605",
"i  c #4D2817",
"p  c #672A05",
"a  c #743409",
"s  c #793914",
"d  c #69310B",
"f  c #4A2C2F",
"g  c #6C3D39",
"h  c #165F28",
"j  c #714C37",
"k  c #514227",
"l  c #021D42",
"z  c #021A46",
"x  c #06184B",
"c  c #351A44",
"v  c #032244",
"b  c #092243",
"n  c #03244B",
"m  c #07274B",
"M  c #022653",
"N  c #042A54",
"B  c #032B5B",
"V  c #072959",
"C  c #132F55",
"Z  c #382844",
"A  c #2E2E4F",
"S  c #022E63",
"D  c #00296B",
"F  c #033264",
"G  c #01336B",
"H  c #073767",
"J  c #013573",
"K  c #023B75",
"L  c #013C7B",
"P  c #003779",
"I  c #113969",
"U  c #132066",
"Y  c #442D46",
"T  c #47334B",
"R  c #563249",
"E  c #4B3657",
"W  c #563A5B",
"Q  c #4E2C4B",
"!  c #573D65",
"~  c #4E3869",
"^  c #643D60",
"/  c #2D4456",
"(  c #03427C",
")  c #1B4477",
"_  c #324B71",
"`  c #056960",
"'  c #534D4B",
"]  c #6F544F",
"[  c #4F4D6B",
"{  c #6B4975",
"}  c #6A4C72",
"|  c #726F6E",
" . c #606B54",
".. c #893A0A",
"X. c #945617",
"o. c #8C4613",
"O. c #A35618",
"+. c #96621B",
"@. c #AB7314",
"#. c #9C5428",
"$. c #98542C",
"%. c #A85927",
"&. c #AD5F2C",
"*. c #B56737",
"=. c #AF6F32",
"-. c #C97235",
";. c #B76B48",
":. c #8F726D",
">. c #A36952",
",. c #C97C50",
"<. c #0DB819",
"1. c #059A2C",
"2. c #008D38",
"3. c #008D35",
"4. c #039338",
"5. c #0D9D38",
"6. c #079A34",
"7. c #139B3C",
"8. c #0BA62A",
"9. c #18B72A",
"0. c #0EA136",
"q. c #12A438",
"w. c #15A938",
"e. c #19AD38",
"r. c #14A836",
"t. c #1CB338",
"y. c #1EB435",
"u. c #0AB52C",
"i. c #21B638",
"p. c #22BA38",
"a. c #25BA36",
"s. c #21AD37",
"d. c #089D0D",
"f. c #15C616",
"g. c #1ED217",
"h. c #2AD919",
"j. c #36E81A",
"k. c #34F112",
"l. c #1AC426",
"z. c #2BCC29",
"x. c #3CDC2D",
"c. c #36D828",
"v. c #2CC434",
"b. c #2AC238",
"n. c #34CD36",
"m. c #35CA36",
"M. c #38D335",
"N. c #2ED228",
"B. c #3CE327",
"V. c #38E638",
"C. c #45F81D",
"Z. c #43DD33",
"A. c #42E42C",
"S. c #46EB2A",
"D. c #45EC27",
"F. c #49F625",
"G. c #53FB2C",
"H. c #47E532",
"J. c #57F933",
"K. c #4FEF38",
"L. c #64FD3F",
"P. c #069647",
"I. c #13A355",
"U. c #468A56",
"Y. c #4BCF49",
"T. c #59E944",
"R. c #68FA46",
"E. c #76FB58",
"W. c #6CEB58",
"Q. c #69D962",
"!. c #79E969",
"~. c #7FFD61",
"^. c #3FCD49",
"/. c #B88C2D",
"(. c #C38A37",
"). c #C89634",
"_. c #CEA73A",
"`. c #AC9279",
"'. c #C88743",
"]. c #CF9147",
"[. c #F09151",
"{. c #D4AB48",
"}. c #E6986F",
"|. c #EFA274",
" X c #D8A667",
".X c #85FC68",
"XX c #8AF774",
"oX c #91F879",
"OX c #043C89",
"+X c #003FA3",
"@X c #01438B",
"#X c #034689",
"$X c #014B93",
"%X c #014A98",
"&X c #0F4E96",
"*X c #2E5087",
"=X c #0154A4",
"-X c #005AAD",
";X c #0456AA",
":X c #025CB2",
">X c #085DB6",
",X c #0E57A7",
"<X c #0463BA",
"1X c #2D70B2",
"2X c #1A62A5",
"3X c #705285",
"4X c #707588",
"5X c #546E9B",
"6X c #0266C7",
"7X c #036CD6",
"8X c #0D71D4",
"9X c #377BCC",
"0X c #0477E6",
"qX c #0677F3",
"wX c #005EC3",
"eX c #8B6D9A",
"rX c #658E9F",
"tX c #3982CF",
"yX c #0886FB",
"uX c #2D8CEE",
"iX c #458FE5",
"pX c #66A2DC",
"aX c #1D9882",
"sX c #AC958E",
"dX c #9997B7",
"fX c #ACACB4",
"gX c #9C989F",
"hX c #DFAB89",
"jX c #9AFA85",
"kX c #94EC89",
"lX c #AEFC9B",
"zX c #A6F895",
"xX c #A9FC95",
"cX c #B6FBA6",
"vX c #B2F2A9",
"bX c #A2D19D",
"nX c #C6F8BC",
"mX c #C0FDAF",
"MX c #D6CFB3",
"NX c #99B6D1",
"BX c #96BAD8",
"VX c #9DD6E5",
"CX c #CDCED0",
"ZX c #CDFAC3",
"AX c #D4FBC9",
"SX c #DDF9D7",
"DX c #E3FBDC",
"FX c #EAFAE6",
"GX c #F2FCEE",
"HX c #F6F9F6",
"JX c #F9FAF6",
"KX c #FAF8FA",
"LX c #F6F7F3",
"PX c #EEEAE8",
"IX c #DCDDEA",
"UX c #CDB8D0",
/* pixels */
"                                                                                                                                                    o.@.{.MXCXCXCXMX X).=.;.      ",
"                                                                                                                                                  o.+./.{. XsXsXsXhX X(.(.(.      ",
"                                                                                                                                                a X./._.).*.$.#.=.].'.-.)._.      ",
"                                                                                                                                                a +._.{.*.o.o.@.@.=.%.%.=.].      ",
"                                                                                                                                                o.=.(.].=.+.@.(.=.o.p d o.%.      ",
"                                                                                                                                              X.=./.'.'.).).(.'.&.a t t a ..      ",
"                                                                                                                                              X.).{.].].)./.+.#.*.$.s s $.;.      ",
"                                                                                                                                              X.).{.{.'.$.d u o.,.}.'.,.}.hX      ",
"                                                                                                                                        5 5 = X.).{.].$.p t p #.,.}.|.|.}.}.      ",
"                                                                                                                                      B J M f O.).].&.s p s #.%.*.,.}.}.*.#.      ",
"                                                                                                                                    V :X7X=XT O.-.*.s u s %.&.#.%.;.,.;.o...      ",
"                                                                                                                                  v $X0XyX6X) j $.g * O u #.*.%.O.%.%.%.%.%.      ",
"                                                                                                                                v L ;X6X6X;XK A T 8 X . O d #.&.#.s a o.%.*.      ",
"                                                                                                                              m L @X( @XOXG V b > + . O * * = g g f i i i i       ",
"                                                                                                                            V %X=XF : l m b q 8 + . O p p O X c ! { } ' & .       ",
"                                                                                                                          V >X0X<Xv . @ l Z Z 6 X o u o.a O & ~ 3XeXfXgXZ &       ",
"                                                                                                                          F 7XyX6XV + > A ! E 8 O u X.#.i w E 3X3X3X4X| w 7       ",
"                                                                                                                          V ;X7X;XB > 8 W { W 7 d &.-.j Y ! 3X{ A C / q & % w     ",
"                                                                                                                        2 m L L m ; $ w W W 9 = #.[.}.] 4 E W q 3 C 4X4XI l 4     ",
"                                                                                                                      2 l m m - . . # Y R q 4 q $.[.}.j # Z f o - _ NXBXtXL 1     ",
"                                                                                                                      b V M @ . . X 4 T R A @X&X] -.-.i & T Y o @ I 9XuXyX%Xv     ",
"                                                                                                                      b K F + . + 4 A T T ) 7X8Xj ..s i 9 w 7 o + M OX6X7X%Xb     ",
"                                                                                                                      b $X$X1 X > A R Y A :XqXuX .u O 6 Z 6 o . + 3 B @X;X( b     ",
"                                                                                                                      2 $X<X$Xv > Z R w C >X0X0X1X/ $ > 0 ; : m l 5 l G L B 2     ",
"                                                                                                                      2 $X6X;Xm # 7 R w b @X=X6X7X$X4 , 8 4 V #X*X_ I P J B v     ",
"                                                                                                                      b $X=XB + o 7 E Y 0 m V S L V , 7 Y T C *XrXdX1X@XG S S     ",
"                                                                                                                      b L G + . o e E Y Z Z 4 @ > 6 7 7 T *X&X&XpXBXtXJ l M G     ",
"                                                                                                                      m J S @ . o q T w Y } T * * f f Z I >X6X<X8XuX,Xl X :       ",
"                                                                                                                      V @X@X1 X > Z Y 8 w } { R 7 y R *X:X=X$X%XwX7X@Xl + ;       ",
"                                                                                                                      2 I ) F 1 1 b q 6 , T ^ ! A C *X2X:XF 1 B $X%XG v 1 b       ",
"                                                                                                                      o = e C B l 1 b 8 6 6 7 A ,X7X8X,XG 1 > l G F 3 ; M F       ",
"                                                                                                                      . 6 A V C [ [ [ 4X] = 2 P ,XiXpX1XB x l ; ; ; @ 3 B         ",
"                                                                                                                      ; ( OX5 ' fXdX4XfX`.j _ @XA :.fXrXS x 3 X . X 1 S           ",
"                                                                                                                      @X@Xx . ' CXdX_ [ >.*.| / y ..=.' 3 - . . . $ B P           ",
"                                                                                                                      qXD . * gXIX4X- X i *.-.O.p t * O + - ; $ ; v S G           ",
"                                                                                                                      0XU & :.PXIX[ . O p %.[.[.O.t o X 1 K $X@XK S S             ",
"                                                                                                                    I.2XF h gXCXsXf O u a o.,.hX>.i O O 0 H ;X6X=XJ               ",
"                                                                                                  q.q.q.0.5.5.5.0.8.0.P.2.5.i.U.k t t u u u ] eX} f t t * % B                     ",
"                                                                  4.0.e.t.t.t.t.t.t.t.t.t.t.t.t.e.e.q.q.q.q.q.q.0.0.8.8.u.u.u.d.h = y 7 * * e A A w i i y * ,                     ",
"                                                                6.4.q.t.p.p.p.p.p.p.p.p.p.p.p.p.p.p.p.p.p.a.p.a.y.9.9.<.f.f.g.V.Y. .c c 6 & % , % & 6 7 w Y f                     ",
"                                          q.5.0.5.5.5.5.e.t.t.e.q.q.e.a.m.n.M.M.n.n.n.n.n.n.n.n.M.M.M.M.M.M.M.M.x.B.B.N.c.j.F.XXnXdX~ Q 8 X & , o X & , q T E f                   ",
"                                        e.q.q.q.q.0.q.e.a.b.b.a.a.b.b.m.x.S.S.S.S.S.S.S.S.S.S.S.S.S.S.S.S.D.B.j.G.E.oXoXXXoXjXAXKXIXdX{ Z # # % # . . o % e Y Y Z                 ",
"                  0.5.5.5.5.5.5.5.0.e.t.t.t.e.e.e.e.t.a.M.x.x.x.x.x.x.x.S.J.J.G.G.G.G.G.G.G.G.G.G.G.G.G.G.G.F.C.E.nXFXFXFXFXGXKXKXHXUXeX! 9 # X o o . o % 6 w E T f               ",
"            5.5.q.q.q.q.q.q.q.q.q.q.t.a.v.n.n.v.v.v.n.M.S.F.C.C.C.C.k.k.T.jXcXcXlXlXlXlXlXlXlXlXlXlXlXlXlXxXxXjXnXKXKXKXKXKXSXlXlXbXgX3X{ ! 8 . o % 6 8 w T W W W R f             ",
"          q.0.q.e.t.a.a.a.a.a.t.t.a.a.M.Z.S.S.S.S.B.B.B.J.E.E.E.E.E.R.R.jXFXKXKXKXKXKXKXKXKXKXKXKXKXKXKXKXKXKXKXKXKXKXKXKXAX.XF.S.U.Z c ! { W 8 8 T W [ } { } W E E A C           ",
"        q.e.e.e.y.v.n.M.M.M.M.M.M.M.M.x.S.F.F.F.F.C.k.F.XXZXAXZXZXZXnXnXDXKXKXKXKXKXKXKXKXKXKXKXKXKXKXKXKXKXKXKXKXKXKXKXnXW.F.k.N.h 5 # 9 } } W [ 3X3X{ } } W w A ) &X#XJ         ",
"      5.q.t.p.v.z.c.B.D.D.D.D.D.D.j.k.S.E.XXXX.X.X.XE.XXAXKXKXKXKXKXKXKXKXKXKXKXKXKXKXKXKXKXKXKXKXKXKXKXKXKXKXKXKXKXKXAXW.c.B.K.n.h @ . o 8 T E } } } W Z w 6 & ; B %X;X$XL       ",
"    5.q.a.v.n.x.K.J.J.J.G.G.G.J.J.F.C.E.nXJXJXGXGXGXFXFXLXKXKXKXKXKXKXKXKXKXKXKXKXKXKXKXKXKXKXKXKXKXKXKXKXKXKXKXKXKXAX~.B.N.c.V.a.h . . . . > b q 7 9 0 2 $ . . . @ B %X;X$XS     ",
"5.5.q.p.n.M.c.F.E.cXmXcXcXcXlXlXlXxXxXmXLXKXKXKXKXKXKXKXKXKXKXKXKXKXKXKXKXKXLXLXKXKXKXKXKXKXKXKXKXKXKXKXKXKXKXDXcXzX.XS.N.z.N.a.h r . . . + 3     & > m M : . . . . @ B $X@XS v 2 ",
"0.e.p.M.H.B.j.E.AXKXKXKXKXJXKXJXJXLXLXKXKXKXKXKXKXKXKXKXKXKXKXKXKXKXKXKXLXLXLXLXKXKXKXKXKXKXKXKXKXKXKXKXKXKXFXoXG.S.H.x.l.u.e.` 0 X . + : 1 v       2 B G B : . . . . + m L J V 2 ",
"e.a.M.K.G.C.E.ZXKXKXKXKXKXKXKXKXKXKXKXKXKXKXKXKXKXKXKXKXKXKXLXLXLXLXKXKXKXKXKXKXKXKXKXKXKXKXKXKXKXKXKXKXKXDXjXJ.j.h.c.z.9.P.` ( 1 . + V K V v         m S G v X . . . . + F $XF 2 ",
"a.v.H.J.J.~.ZXKXKXKXKXKXKXKXKXKXKXKXKXKXKXKXKXKXKXKXKXKXKXKXKXLXLXLXKXKXKXKXKXKXLXKXLXKXKXLXKXKXKXKXLXSXnXjXJ.j.M.z.z.c.Y.aX2X+XM ; 1 ( @XV             m B V : + + @ @ : G $XF 2 ",
"y.v.S.F.E.ZXKXKXKXLXLXLXLXLXKXKXLXLXLXKXKXKXKXKXKXKXKXKXKXKXLXLXLXKXKXKXKXKXKXKXLXLXLXLXKXKXKXKXKXJXlXE.T.K.S.x.z.l.l.^.bXBX9X%XD M B B V                 v V B m v m M M G K B b ",
"y.v.B.C.XXFXKXKXKXLXLXLXKXKXKXKXKXKXKXKXKXKXKXKXKXKXKXKXKXKXLXLXKXKXKXKXKXKXKXKXKXLXKXKXKXKXKXKXJXcXR.k.k.c.v.9.9.u.I.aXrXpXuX=Xm l M b                     m B F F F M 1 l V B B ",
"y.b.S.C..XDXKXKXLXKXKXKXKXKXKXKXLXKXLXLXKXKXKXKXKXKXLXKXKXKXKXLXKXKXKXKXKXKXKXKXKXKXKXKXKXKXGXFXcXR.B.B.c.z.r.s.7.P.` $XOX&X>X( ; @ 2                         m B G B 1 @ @ 1 B G ",
"q.a.x.C.~.SXKXKXKXKXKXKXKXKXKXKXLXLXLXLXKXKXKXKXKXKXLXLXKXKXKXKXKXKXKXKXKXKXKXKXKXKXKXKXKXnXkX!.W.S.z.a.9.8.7.U.5X/ 1 1 z z v 3 ; >                                 m m 1 ; + 3 M ",
"5.y.Z.C..XSXKXKXKXKXLXLXLXKXKXKXLXKXKXKXKXKXLXLXKXKXLXKXKXKXKXKXKXLXKXKXKXKXKXKXKXKXFXDXnXW.f.f.z.v.e.1.1.4.I.1X*X4 . . X @ : 3 1 b                                 ; 3 1 @ . # > ",
"5.y.S.C..XSXKXKXKXKXLXKXLXKXKXKXLXLXKXKXKXKXLXLXKXKXKXLXKXKXKXKXLXLXKXKXKXKXKXKXKXDXXXZ.Y.v.u.8.8.q.1.1.        ,X2 . . . ; G K V 2                               2 + . . . . @ 2 ",
"5.y.S.C..XDXKXKXKXKXKXKXKXKXKXKXLXLXKXKXKXKXKXLXKXKXLXKXKXKXKXKXLXLXKXKXKXKXFXnXzXXXH.f.<.8.5.5.4.1.1.        iXpX2X3 . . 1 L K m                                 $XV + . X 3 B L ",
"5.y.Z.C.XXDXKXKXKXKXKXKXKXKXKXKXLXLXKXKXKXKXKXKXKXKXLXKXKXKXKXKXKXKXKXKXKXLXzXK.B.x.z.9.4.3.4.    1.3.      9XNXNXtXL 1 v S V b                                 7X7X@Xl 3 m K %X;X",
"5.e.M.F.XXDXKXKXKXLXKXKXKXLXLXLXKXKXKXKXKXKXKXKXKXKXKXLXKXKXKXKXKXKXKXKXGXzXK.h.g.9.e.5.3.3.              tXNX`.k m L ;X:X$Xm                                 <X6X=XJ m M L =X:X  ",
"5.q.v.S.E.cXFXKXKXKXKXKXKXLXLXLXKXKXKXKXKXKXKXKXKXKXLXLXKXKXKXKXSXZXAXAXzXZ.g.z.a.q.6.4.1.              iXNXsXf . X K 7X0X=X                                  6X@Xl 3 M L %X;X    ",
"4.5.y.M.S.R.cXLXKXKXKXKXKXKXLXKXKXKXLXLXKXKXKXKXLXKXKXKXKXKXKXAX!.T.W.W.Y.9.8.q.q.5.4.3.                BXsXf o 3 S @X%X:X                                    :Xm X : K =X;X      ",
"    q.n.j.k.XXLXKXKXKXKXKXKXKXKXKXKXLXLXLXKXKXKXKXKXKXKXKXKXSX!.j.k.j.h.9.4.2.4.5.                    2X| f . 3 @X%XL G                                     ;XF + . 3 @X;X        ",
"    5.a.B.C.oXLXKXKXKXKXKXKXLXLXLXKXKXKXKXKXKXKXKXKXKXKXGXSX!.c.B.S.x.z.0.3.2.2.                    8X2X, . + G ;X@XB                                     :X( + . . 1 OX          ",
"    5.a.x.F.jXKXKXKXKXKXKXKXLXLXKXKXKXKXKXKXKXKXKXKXFXvXkX!.Z.z.z.n.b.t.5.2.2.                    6XpXrX6 . < $X:XL                                     ;X@X3 . X 3 M             ",
"    5.e.z.D.jXKXKXKXKXKXKXKXKXKXKXKXKXKXKXKXKXLXFXSXkXH.h.N.v.a.e.e.e.5.4.2.                      pXfX:.* + F %X$X                                      ;XF o . 3 J               ",
"    5.e.l.c.oXGXKXKXKXKXKXKXKXKXKXKXKXKXKXKXKXvXW.T.T.M.l.9.e.q.5.5.4.4.4.                        fX| = $ F $X$XJ                                       =XV . . m %X              ",
"      q.9.z.W.cXGXKXKXKXKXKXKXKXKXKXKXKXKXKXvXT.j.h.M.v.a.q.6.4.5.                              :.| e @ B $X$XL                                       @XB 1 3 v (                 ",
"        q.a.h.R.nXKXKXKXKXKXKXKXKXKXKXKXKXvXT.j.c.z.v.a.e.5.4.4.                              3XR O . m %X=XL                                       =Xv X 1 @X:X:X                ",
"        4.0.<.Z.cXKXKXKXKXKXKXKXKXKXAXkXXXW.x.N.v.a.e.q.5.4.3.                              1XdX} . . v =X=X                                        6Xm . V 7XqX7X                ",
"          4.8.m.kXSXDXDXDXDXDXDXSXnX!.j.h.M.a.y.q.5.6.5.4.3.                                pXIXNXI . $ $X                                          0XK @ n <XyX0X                ",
"            6.y.Y.Q.!.W.W.!.W.Q.Q.Y.M.z.l.9.q.5.4.4.4.                                      IXLXVX6X1 ;                                             6X$X1 @ V :X6X:X;X6X0XqX      ",
"              0.8.<.<.f.f.f.<.<.<.9.9.a.q.5.4.2.3.                                          PXfX1X>X@XB                                             ;XL : . X v B V n ( 6X7X      ",
"                4.1.1.6.6.6.6.6.1.1.0.5.4.2.2.2.                                            gX/ 3 M @XK :                                           ;XB . . . . . . . 3 $X        ",
"                                                                                            e + . X 1 1 + .                                                                       ",
"                                                                                            . . . . . . . .                                                                       "
};
