/* XPM */
static char *luke_77[] = {
/* columns rows colors chars-per-pixel */
"81 77 253 2 ",
"   c None",
".  c #010001",
"X  c #0B0302",
"o  c #01040B",
"O  c #09060C",
"+  c #150707",
"@  c #010513",
"#  c #020A13",
"$  c #020C1B",
"%  c #090817",
"&  c #170C17",
"*  c #1B131A",
"=  c #121213",
"-  c #26150A",
";  c #25151B",
":  c #2C1015",
">  c #020B24",
",  c #011224",
"<  c #02142B",
"1  c #05152C",
"2  c #181526",
"3  c #051937",
"4  c #191B34",
"5  c #090A34",
"6  c #281928",
"7  c #301734",
"8  c #17253B",
"9  c #0E2A30",
"0  c #34272A",
"q  c #272637",
"w  c #38243B",
"e  c #2D3239",
"r  c #37251A",
"t  c #491800",
"y  c #541A00",
"u  c #502C0E",
"i  c #793808",
"p  c #783B14",
"a  c #6B2F08",
"s  c #493135",
"d  c #582D22",
"f  c #0E512F",
"g  c #037431",
"h  c #166B1A",
"j  c #7B4512",
"k  c #616131",
"l  c #011C44",
"z  c #0A184A",
"x  c #022243",
"c  c #02244A",
"v  c #0A2445",
"b  c #012453",
"n  c #032C5A",
"m  c #062A56",
"M  c #112E54",
"N  c #372746",
"B  c #353357",
"V  c #2C2B4E",
"C  c #032D65",
"Z  c #023468",
"A  c #013978",
"S  c #113568",
"D  c #1E2761",
"F  c #4C1B49",
"G  c #432D46",
"H  c #462D53",
"J  c #56385A",
"K  c #4B334F",
"L  c #533A63",
"P  c #643F69",
"I  c #32444B",
"U  c #0F4577",
"Y  c #304C75",
"T  c #3E6949",
"R  c #4C4B54",
"E  c #695155",
"W  c #594567",
"Q  c #544D76",
"!  c #694A78",
"~  c #6E4E71",
"^  c #767678",
"/  c #59665A",
"(  c #88370A",
")  c #894915",
"_  c #964F15",
"`  c #986519",
"'  c #A87317",
"]  c #964B23",
"[  c #92542C",
"{  c #A5592A",
"}  c #B05E31",
"|  c #AA7725",
" . c #B9693A",
".. c #AE712E",
"X. c #AE4D0E",
"o. c #E16D25",
"O. c #8E6856",
"+. c #B36D47",
"@. c #966E60",
"#. c #D0774A",
"$. c #019814",
"%. c #06B71B",
"&. c #0BB017",
"*. c #008629",
"=. c #009A2B",
"-. c #019628",
";. c #008535",
":. c #008B34",
">. c #028739",
",. c #019333",
"<. c #049933",
"1. c #138B2F",
"2. c #00A224",
"3. c #01A22B",
"4. c #05AA29",
"5. c #06B725",
"6. c #12AA30",
"7. c #26B037",
"8. c #3A8C31",
"9. c #08C51C",
"0. c #14D518",
"q. c #07D112",
"w. c #32EB1D",
"e. c #16C827",
"r. c #1CD724",
"t. c #11CA30",
"y. c #23D827",
"u. c #34CE30",
"i. c #37EB29",
"p. c #46DB3A",
"a. c #41E928",
"s. c #49F227",
"d. c #50F031",
"f. c #65F739",
"g. c #7EFD3F",
"h. c #30AE4B",
"j. c #52B254",
"k. c #51D04F",
"l. c #51E64A",
"z. c #75F14C",
"x. c #77EB72",
"c. c #65D26B",
"v. c #3EAD3E",
"b. c #B88D2D",
"n. c #C9973B",
"m. c #C49435",
"M. c #D0AD3A",
"N. c #9ABB72",
"B. c #A09965",
"V. c #CA8845",
"C. c #D08A53",
"Z. c #D58D69",
"A. c #E49770",
"S. c #DDA861",
"D. c #96FA56",
"F. c #8AFA4E",
"G. c #A1FE57",
"H. c #AACC74",
"J. c #8AEC65",
"K. c #A6FD69",
"L. c #B9FE67",
"P. c #B6FC77",
"I. c #A8FE76",
"U. c #C9FB77",
"Y. c #CCFB6E",
"T. c #E3FE7F",
"R. c #013B85",
"E. c #024585",
"W. c #02458C",
"Q. c #024B96",
"!. c #04519D",
"~. c #165391",
"^. c #2C558B",
"/. c #2F6497",
"(. c #0354A4",
"). c #0458AB",
"_. c #025BB4",
"`. c #0651A4",
"'. c #0262BB",
"]. c #1C64B1",
"[. c #306BAE",
"{. c #4A5B88",
"}. c #785585",
"|. c #6F4882",
" X c #55698E",
".X c #68788F",
"XX c #5E79A8",
"oX c #005EC4",
"OX c #0266C8",
"+X c #026AD7",
"@X c #0875DB",
"#X c #1773CF",
"$X c #287CCD",
"%X c #0475E8",
"&X c #007BF5",
"*X c #5F78C5",
"=X c #896F92",
"-X c #71858C",
";X c #7990AB",
":X c #5683B4",
">X c #0989FD",
",X c #3392EA",
"<X c #3C8BD9",
"1X c #6CA5D4",
"2X c #53AAF4",
"3X c #5B9BD6",
"4X c #76C4FF",
"5X c #79CE90",
"6X c #909298",
"7X c #88AA94",
"8X c #8F96AB",
"9X c #ADABB4",
"0X c #A49F9F",
"qX c #F9AB87",
"wX c #D8B28C",
"eX c #B7FA85",
"rX c #B0F290",
"tX c #B0F0B2",
"yX c #9BD08C",
"uX c #D4F98A",
"iX c #C6FE9C",
"pX c #D8FB98",
"aX c #C9FD84",
"sX c #E4FD8A",
"dX c #E7FE94",
"fX c #F4FF9F",
"gX c #DAFBA4",
"hX c #DBFCB5",
"jX c #C9FDAC",
"kX c #E8FDA9",
"lX c #E6FDB8",
"zX c #F4FEAD",
"xX c #DAC99B",
"cX c #92AEC9",
"vX c #ADB6CA",
"bX c #C7B3C7",
"nX c #B5C2D2",
"mX c #A1CFEE",
"MX c #D0D3D7",
"NX c #D3F8CF",
"BX c #E9FBC9",
"VX c #F5FCCA",
"CX c #ECF9D7",
"ZX c #F2FCD5",
"AX c #F8FCD9",
"SX c #D6E7F2",
"DX c #FCFDE4",
"FX c #F7FBEA",
"GX c #FDFCF5",
"HX c #FCF9FD",
"JX c #F8F8F8",
"KX c #EBEEEC",
"LX c #D4D2E3",
/* pixels */
"                                                                                                                          >.,.,.,.,.>.                            ",
"                                                                                                                        >.3.7.v.v.7.3.-.                          ",
"                                                                                                                      ;.2.0.z.eXP.z.y.2.>.>.-.                    ",
"                                                                                                                    ;.2.0.f.iXAXkXY.D.J.k.%.$.*.;.                ",
"                                                                                                                  ;.-.0.f.iXFXDXkXT.sXfXpXJ.k.h.,.-.              ",
"                                                                                                                ;.-.0.f.iXFXAXgXuXU.sXVXFXFXCXtXc.%.$.*.;.        ",
"                                                                                                              >.2.0.f.iXFXAXpXY.Y.aXhXFXJXJXJXJXCXx.c.h.6.-.      ",
"                                _ m.xXMXLXLXMXxXn... .                                                      >.2.0.f.iXDXVXpXU.U.aXhXFXJXJXJXJXJXJXGXJXtXl.%.-.    ",
"                              ` b.M.S.Z.@.B.S.C.| | n.                                                    >.2.0.f.iXDXVXuXU.pXBXCXDXJXJXJXJXJXJXJXJXJXDXeXa.5.,.>.",
"                            ) b.M.n. .] ) ' | ` ) ..M.                                                  :.2.0.f.iXDXAXkXuXgXCXHXJXJXJXJXJXJXJXJXJXJXJXGXkXF.r.3.>.",
"                            ) b.M.V.] ) ' ' _ i i { #.                                                ;.2.0.f.jXDXVXlXBXCXFXJXHXJXJXJXJXJXJXJXJXJXJXJXGXzXD.r.3.>.",
"                          ) | b.V.V...| | ` i y y p ]                                               ;.6.i.z.jXDXVXuXuXCXHXHXHXHXJXJXJXJXJXJXJXJXJXJXFXVXfXD.r.=.>.",
"                        j | m.V.V.n.n.b.` ) p a y a )                                             =.h.J.G.eXCXVXuXY.pXDXHXHXHXJXJXJXJXJXHXJXJXJXJXGXlXdXuXF.y.3.>.",
"                        p { V.C.m.| ` j a ] +.+.) } C.                                      >.5.0.u.yXlXpXuXgXpXU.pXCXJXHXHXHXHXJXJXJXJXJXJXJXJXJXVXsXL.z.d.r.4.>.",
"                        i { V.V.| i t t a  .A.A.Z.A.qX                                    >.=.9.a.K.AXJXVXpXpXuXpXCXJXJXHXJXJXJXJXJXJXJXJXJXJXFXlXL.D.z.y.9.e.6.>.",
"                        ( | n.| j t t a ] +.Z.A.qXA.C.                                  ;.=.9.a.K.AXJXJXHXCXCXCXCXJXHXHXHXHXHXHXJXJXJXJXJXAXzXpXF.d.w.r.4.,.<.    ",
"                          V.| p y y p { { { +.Z.A.+.)                                 >.=.9.a.K.AXJXJXJXJXJXHXJXJXJXJXJXJXJXJXJXJXJXGXDXBXeXF.f.y.9.5.3.,.>.      ",
"                            j y y i }  .{ _ } #. .{ p                               >.=.9.s.K.AXJXJXJXJXJXJXJXJXJXJXJXJXJXJXJXJXJXAXkXU.D.d.0.0.4.>.>.,.          ",
"                    N 6XSX0Xd y a p } #. .{ _ _ _ _ {                             >.=.9.s.K.AXJXJXJXJXJXHXJXJXJXJXJXJXJXJXBXVXAXBXeXF.d.w.e.=.3.<.                ",
"                  ; N =XvX.X; t y t u } C.+.p y p  .#.                          >.=.9.s.K.AXJXJXJXJXJXJXJXJXJXJXJXGXGXGXAXdXU.L.K.d.0.9.5.<.>.>.                  ",
"            ; . . X w }.=XW & X + . X d Z.C.u . s +.                          ;.-.9.s.K.AXJXJXJXJXJXJXJXJXJXJXJXJXAXkXkXfXsXD.i.w.e.3.-.,.                        ",
"          M R E B , 2 K ! J & . . o . = +.+.r . & s                         >.6.y.s.K.AXJXJXJXJXJXJXJXJXJXJXAXAXAXzXU.L.D.z.p.5.%.3.>.>.                          ",
"        C S .XvX1XU > 6 P ! w O % 2 @ + [ [ - . o 6                       ;.h.z.D.P.BXJXJXJXJXJXJXJXJXJXJXGXkXuXsXsXK.d.y.e.6.>.>.,.                              ",
"      )._.R./.1X2XOXl * J }.W w 6 4 > 6 [ ) - @ q N 4                   *.7.J.hXVXAXGXJXJXJXJXJXJXJXJXJXJXGXkXY.G.F.l.5.2.3.,.                                    ",
"    A (.).Z Z ).%X+XZ 4 J }.! G 2 2 N E +.j - 4 W W H                 g 7.J.lXGXJXJXJXJXJXJXJXJXJXJXJXJXJXBXaXD.a.r.5.,.;.>.                                      ",
"    C c 3 3 l A _._.Z V ! }.J 6 o * O.A.#.p ; N L ! |.              -.6.J.lXGXJXJXJXJXJXJXJXJXJXJXJXJXJXjXD.z.p.6.-.-.                                            ",
"    b > . @ 3 C Q.W.n B }.}.G O . + O.A.C.( : 2 N P |.            z.u.c.hXGXJXHXJXJXJXJXJXJXDXAXBXNXNXtXl.w.s.u.>.g                                               ",
"    C M M v b C Z n l B }.}.G & . . p o.o.] 0 4 w K H         7.z.G.K.jXGXJXJXHXJXJXJXJXJXAXdXY.F.a.y.e.3.6.                                                      ",
"    S .X;X/.R.Z c $ @ N }.}.K & . . y X.X.[ ^.A N K F z 9 g 2.e.z.aXBXGXJXJXJXJXJXJXDXAXlXP.z.s.w.%.$.$.;.                                                        ",
"    ^.cXmX<XR.l $ . . 6 ! }.K & . . 0 k [  X@X).B F F v f -.9.w.F.gXGXJXHXJXJXJXJXDXpXL.D.a.0.9.5.<.;.g                                                           ",
"    ).,X2X].b @ . . . 2 L ! K 6 X % U ].$X@X+X~.H F B f *.9.a.F.L.lXJXJXJXJXFXVXkXeXz.w.w.5.=.=.,.                                                                ",
"    ).+X+XQ.1 . . . . & G W K 6 + * S OX&X%X`.D F N f -.q.d.I.gXlXAXJXGXDXAXgXK.g.d.y.%.5.<.>.>.                                                                  ",
"    A !.).A m x , . . & w L L w * * 6 M (.(.D 7 q f =.q.f.U.VXGXGXJXJXVXpXL.z.i.0.9.4.>.>.,.                                                                      ",
"    b A Z x A ).A $ + * 0 J ! K * * r G S m 7 0 f -.t.x.hXDXJXJXJXJXJXrXf.s.y.5.2.=.,.                                                                            ",
"      n 1 . c ).W.1 & * & N L G & ; K P V 5 6 f $.q.l.NXJXJXJXJXGXGXCXx.0.q.5.>.>.>.                                                                              ",
"        < . # x v 3 3 < > 2 6 ; * 7 H L H 7 7 h 9.i.K.kXDXJXJXFXhXpXeXk.-.-.,.                                                                                    ",
"        x , . X u Q ~.~.Q R e e B B B W =X~ w T yXjXkXdXkXAXFXjXx.p.u.6.;.;.                                                                                      ",
"        c b > * @.cX,X<XcX9X X XXX XL ~ MX9Xs / NXJXAXdXY.I.eXx.7.-.<.1.                                                                                          ",
"        < b A ].2X2X~.^.8XcX*X*XcX7X/ ~ LXMXs 9 5XtXrXaXJ.p.t.7.8.k                                                                                               ",
"        . , A +X%X!.8 e  X;X8X8XtXuXB.W 8XbX/ f -.e.i.z.k.1.g h [ #.                                                                                              ",
"          . , l 3 v ^ 8X;X7XrXuXdXsXyX{.Y 6X9X-Xf h 5.t.8.u u u ( #.qX                                                                                            ",
"            . . . Y MXJXnX7XN.N.N.H.yX-XS .XHXvXV 9 g g e ( ( ( i { C.Z.                                                                                          ",
"            . o n <XSXJXKX8XI q 8 I N.H.T  X        l x 0     (     ) )                                                                                           ",
"      ! }.V . 4 :XmXJXJXJXvXY 5 @ 1 N.Y.k 4                                                                                                                       ",
"    G ~ ! V 5 K 8XKXJXJXKXvX{.S b Z j.H.k 2 >                                                                                                                     ",
"    G ~ Q M v H W 8XKXJX0XR B E.oXOXY k B.^ v >                                                                                                                   ",
"    L {.^.M 8 N V Q vXbXJ + . c _.+XC * ^ vX;XR w                                                                                                                 ",
"G K |.[.!.n 4 w H ! =X~ 7 X . o l Z l @ q -XvX6XG 7                                                                                                               ",
"0 G W ^.U v & * 7 w 7 : + o @ @ o o X . . e .X.XV 2 7 w                                                                                                           ",
"; 6 w w 0 ; X . . X . . $ c A R.b @ . . . # 1 3 v K E s 4                                                                                                         ",
"* * ; : : + . . . . > C !.OX%X%XoXZ > . + & o . 6 6X0XR 1 <                                                                                                       ",
"* ; 2 8 v < . . . o b _.&X>X>X2X4X3X~.> 2 ; + . * ^ cX[.R.C 3                                                                                                     ",
"        !.A < o . . c Q.+X&X,XmXKXSX1X~.< X + X X q ^.@X%X).C 3 3 3                                                                                               ",
"          Q.Z c # . # c W.OX#X.XO.B.cX1Xe . X X . . 3 Q._.(.(.).Q.n 3                                                                                             ",
"            W.!.n # . o b !.W.3 X - -XvXR o @ # o . . , 3 m ).%XOXE.n c                                                                                           ",
"                  m . . 3 A C > . . Y :X^.b C Z 3 o . . . # n W.E.E.Q.Q.                                                                                          ",
"                    @ . n E.b $ . . b !.Q.W._.).Z x , # . . o # , m Q.).                                                                                          ",
"                      , Z A 1 . . o n Q.W.      A W.W.C $ . . . . # c M                                                                                           ",
"                      R l @ . . . x Q.(.              E.3 o . . . . % 1                                                                                           ",
"                      6Xe - = = x Q.OX                  Z S n c 3 3 3 v                                                                                           ",
"                      1X0XwX6X/._.oX                      OX'.).).(.Q.E.                                                                                          ",
"                    $X#X8XwX0X<X%X                        _.Q.E.!._.'.'.                                                                                          ",
"                  nX~.b q u e ~.OX                    '.E.x , $ < C ).'.                                                                                          ",
"                  MX^.$ . . 3 W.                      OXC # . . $ C (.                                                                                            ",
"                  vXY # . 3 Q._.                      (.x . . < A ).                                                                                              ",
"                  {.3 . . m '.OX                    (.m o . 1 E.'.                                                                                                ",
"                  b o . , A _.                      C o . 1 U _.                                                                                                  ",
"                  3 . $ A _.                        < . , E.'.                                                                                                    ",
"                  o . 3 (.OX                        $ . n @X>X                                                                                                    ",
"                  . . c (.OX                        3 . n @X>X                                                                                                    ",
"            8Xm . . 3 E.).                          C o > (.>X&X                                                                                                  ",
"            1X XR R ~._.                            Q.# . c _.@XOX                                                                                                ",
"            2XnXMX9X$XoX                            '., . o c Q._.+X>X>X                                                                                          ",
"            4XmX9X-X[.OX                            OX, . . o < m U `.).                                                                                          ",
"            1X/.8 2 Z ).                            OX, . . . . . $ 3                                                                                             ",
"            I 1 . . > x                                                                                                                                           ",
"            . . . . . .                                                                                                                                           "
};
