/* XPM */
static char *luke_149[] = {
/* columns rows colors chars-per-pixel */
"94 72 256 2 ",
"   c None",
".  c #010101",
"X  c #01040B",
"o  c #0A0708",
"O  c #170605",
"+  c #020A14",
"@  c #020C1B",
"#  c #060715",
"$  c #1A1319",
"%  c #130F15",
"&  c #27171A",
"*  c #321409",
"=  c #010C22",
"-  c #050B28",
";  c #041223",
":  c #02132C",
">  c #091528",
",  c #191826",
"<  c #060936",
"1  c #021534",
"2  c #031933",
"3  c #0A1A34",
"4  c #041C3C",
"5  c #091D3B",
"6  c #051437",
"7  c #141B35",
"8  c #140E2A",
"9  c #271A28",
"0  c #2C1C32",
"q  c #05213E",
"w  c #18233B",
"e  c #132A29",
"r  c #2B2438",
"t  c #352437",
"y  c #30272E",
"u  c #342112",
"i  c #4C1A02",
"p  c #50260D",
"a  c #682A09",
"s  c #753708",
"d  c #6D3414",
"f  c #442A3C",
"g  c #4D3234",
"h  c #69352C",
"j  c #401D26",
"k  c #006806",
"l  c #007D32",
"z  c #034C29",
"x  c #704430",
"c  c #584C3F",
"v  c #011D44",
"b  c #041A47",
"n  c #001954",
"m  c #251F42",
"M  c #042244",
"N  c #03244B",
"B  c #082549",
"V  c #172D48",
"C  c #022553",
"Z  c #032A54",
"A  c #022C5C",
"S  c #072656",
"D  c #02315D",
"F  c #172E4E",
"G  c #272A46",
"H  c #3A2A4A",
"J  c #2C2F54",
"K  c #303553",
"L  c #012B63",
"P  c #002A6A",
"I  c #033264",
"U  c #02346B",
"Y  c #06396B",
"T  c #013573",
"R  c #033B73",
"E  c #023C7A",
"W  c #03357B",
"Q  c #10366B",
"!  c #2A3564",
"~  c #0A1D67",
"^  c #462D44",
"/  c #48324B",
"(  c #55324A",
")  c #4A3455",
"_  c #563958",
"`  c #502C40",
"'  c #553C63",
"]  c #03407B",
"[  c #164574",
"{  c #304F73",
"}  c #26564E",
"|  c #534E51",
" . c #675655",
".. c #554C69",
"X. c #644469",
"o. c #6C5278",
"O. c #6C6B6E",
"+. c #606770",
"@. c #8C390A",
"#. c #8F4C16",
"$. c #A74F13",
"%. c #A66D16",
"&. c #94502A",
"*. c #A55829",
"=. c #AE5C2D",
"-. c #B56738",
";. c #B36E2F",
":. c #966427",
">. c #CD6F34",
",. c #D06523",
"<. c #B66D45",
"1. c #887A6D",
"2. c #935E49",
"3. c #CB7B47",
"4. c #09B61B",
"5. c #0CB51D",
"6. c #008A2D",
"7. c #00942E",
"8. c #019B2B",
"9. c #009C25",
"0. c #008634",
"q. c #008C34",
"w. c #008C39",
"e. c #008639",
"r. c #009333",
"t. c #019933",
"y. c #02A32B",
"u. c #02AA29",
"i. c #05A827",
"p. c #09B625",
"a. c #15BA29",
"s. c #0CA633",
"d. c #19AD33",
"f. c #1BD21C",
"g. c #2BDD19",
"h. c #16C526",
"j. c #19D224",
"k. c #29D627",
"l. c #36D92A",
"z. c #37D835",
"x. c #2ACC2E",
"c. c #3CE826",
"v. c #3CE134",
"b. c #32E91F",
"n. c #45DA3B",
"m. c #4BE736",
"M. c #53F032",
"N. c #6BF43D",
"B. c #58BD72",
"V. c #3CD945",
"C. c #57EB45",
"Z. c #77FB4A",
"A. c #67EC52",
"S. c #76F856",
"D. c #6AF24C",
"F. c #48DA43",
"G. c #B98827",
"H. c #C4883B",
"J. c #C59836",
"K. c #CC8F36",
"L. c #D1AC3C",
"P. c #CE8A4B",
"I. c #E68A52",
"U. c #D5AC4B",
"Y. c #EB986D",
"T. c #F9A879",
"R. c #FFAC6F",
"E. c #DAAB5C",
"W. c #87FB59",
"Q. c #8AEE5A",
"!. c #9AFC77",
"~. c #8EF56A",
"^. c #A8FE72",
"/. c #B1FE7E",
"(. c #92877B",
"). c #013A86",
"_. c #002284",
"`. c #001A93",
"'. c #03498D",
"]. c #044487",
"[. c #034995",
"{. c #01529B",
"}. c #0E559F",
"|. c #174E8F",
" X c #2D5792",
".X c #014CA4",
"XX c #0253A4",
"oX c #0558AB",
"OX c #045AB5",
"+X c #1057AF",
"@X c #0261B9",
"#X c #1863B0",
"$X c #2F6DAC",
"%X c #346A9E",
"&X c #754F88",
"*X c #546E8F",
"=X c #697889",
"-X c #4677AB",
";X c #6B6FA5",
":X c #0367C8",
">X c #036BD8",
",X c #0471D9",
"<X c #1871D3",
"1X c #2D79CA",
"2X c #0478E7",
"3X c #057BF5",
"4X c #117FEB",
"5X c #0355C7",
"6X c #847196",
"7X c #6A8FB1",
"8X c #6383A2",
"9X c #0983FC",
"0X c #0682F9",
"qX c #178BF9",
"wX c #3394F1",
"eX c #659BCE",
"rX c #76A7D4",
"tX c #5CA5EB",
"yX c #8E8E93",
"uX c #AC958C",
"iX c #B6A794",
"pX c #98A7B7",
"aX c #B1B3B4",
"sX c #9A97A9",
"dX c #CFB486",
"fX c #A8FE87",
"gX c #B5FD95",
"hX c #B4FD8B",
"jX c #B9FFA7",
"kX c #9EF28B",
"lX c #C9FC97",
"zX c #D0FF9C",
"xX c #D5CCB7",
"cX c #C9FCB6",
"vX c #D8FFB7",
"bX c #CDFEA5",
"nX c #E3FFBB",
"mX c #8DAECC",
"MX c #9AAED5",
"NX c #99C9F2",
"BX c #A9CDED",
"VX c #BBE1FF",
"CX c #CECFD2",
"ZX c #EEDACD",
"AX c #E5FFC9",
"SX c #E8FFD7",
"DX c #F5FED8",
"FX c #F5F6CF",
"GX c #C4D5E8",
"HX c #F7FEE9",
"JX c #FCFFF4",
"KX c #FEFEFD",
"LX c #F9F4F4",
"PX c #E8F2E7",
"IX c #D8ECD3",
"UX c #C9ACC3",
/* pixels */
"                                                                                                                                                      <.-.K.E.xXCXCXCXxXU.%.#.              ",
"                                                                                                                                                      H.H.H.U.dXiXuXuXdXU.G.%.              ",
"                                                                                                                                                      L.J.-.3.P.G.#.&.-.H.L.J.:.            ",
"                                                                                                                                                      P.H.*.*.;.G.%.#.@.-.U.L.%.            ",
"                                                                                                                                                      -.&.d a #.;.J.;.%.;.P.H.;.            ",
"                                                                                                                                                      $.@.i i d *.H.J.G.J.P.3.H.;.          ",
"                                                                                                                                                      &.=.#.d &.-.*.:.;.H.P.P.U.J.#.        ",
"                                                                                                                                                       .Y.I.P.Y.P.#.i a &.P.U.U.J.#.        ",
"                                                                                                                                                    <  .Y.T.T.Y.3.*.d i a *.P.U.J.#.        ",
"                                                                                                                                                A T L f -.Y.T.P.-.=.*.#.a d *.K.J.#.        ",
"                                                                                                                                              B XX,XOXK #.>.I.3.*.*.=.=.@.a d *.;.#.        ",
"                                                                                                                                            : U :X3X@X..*.,.=.=.=.*.&.h i * j h &.#.        ",
"                                                                                                                                          5 N T oXOX].| *.$.s s *.=.p o . % H .. .          ",
"                                                                                                                                        M Y R L T W C y p * O O d #.u . X 8 ) 6X            ",
"                                                                                                                                      q ].:X'.2 1 C b ; X . . O p s * . 7 H o.              ",
"                                                                                                                                    q R ,X9X'.+ X b G r 8 X O i @.s O % ' &X6XCXCX          ",
"                                                                                                                                  3 M {.2X:XY + % H ' ) 9 O i #.*.h y ) &X&Xo.=X+.y         ",
"                                                                                                                                  3 Z {.XXU : > 0 _ o.H O i *.3.2.^ J o.&X' F F r % o       ",
"                                                                                                                                4 M U E Z @ . % t ' ' 9 O s I.R.2., b J t 3 S *X8X{ v 7     ",
"                                                                                                                              5 5 Z T C + . . % H ( f 7 G x I.R.2.o = 7 X X Q 7XNXwX[.v     ",
"                                                                                                                              3 M U Y : . . X 7 H ( f ].#X .,.>.x o m H o X U $XwXqXOXN     ",
"                                                                                                                              B R E 4 . . + 3 J ) / ! >X4X .@.@.p 9 H t O X N E OX2XoXB     ",
"                                                                                                                            M R {.D X . X 3 J _ ` G {.3XqX+.d * 9 H 0 O . X 1 C ).oX'.M     ",
"                                                                                                                            [.].D + . + : B J ( j V XX2X2X1X{ ; 9 ) r X = : 1 N Y ).U q     ",
"                                                                                                                            oXU + . + 2     K ( f w ] XXOX>XXXw y ( G V { { Q L P P C 4     ",
"                                                                                                                            Y 2 . X 2 B     J _ ^ r B Z A T A % u ^ !  XpXmX#XW A v M C     ",
"                                                                                                                            3 > + + : q     J _ ^ t G w ; , % . % G E $XNXrX#XP 1 X 2 E     ",
"                                                                                                                            5 5 2 + X :     J / t t ' _ y 9 $ . X 5 ].<XqX<X].C = . M {.    ",
"                                                                                                                            5 N C @ . =     J / y y X.o.X.H % . X 1 R OX,XOXT 4 3 N ].      ",
"                                                                                                                            4 Y [.C o o     H ) t y / X.X./ $ . X - b E .X].N @ 4 '.        ",
"                                                                                                                            4 ).:X Xp a     ( _ H 9 9 y f ^ t > - 1 4 C T Z + . : [.        ",
"                                                                                                                            b T  XO.=.>.    x _ m o . . O u 0 0 | +.K 4 v = . X N {.        ",
"                                                                                                                            3 y x *.>.Y.I.*.h t 8 . . o % , 9 _ sXUX*XN 6 X . N oX          ",
"                                                                                                                            p s $.,.>.I.3.#.i X # ^ O.*X}.[.%XsXGXNX1XE v . . Y             ",
"                                                                                                                            x &.,.I.Y.Y.-.a O $ o.UXPXNX<X5X1XrXeX<XOX).6 # 1 [             ",
"                                                                                                                            |...<.T.ZXZX1.* y sXPXLXLXmX[._.[.$X#X).P 6 X 1 ]               ",
"                                                                                                                            `.Q +.yXpXNXrX=XaXKXCXuX1.{ ).|.*X8X7X*Xr O O , {               ",
"                                                                                                                            ~ F [ V V #XwXBXZXxX .O o E 1XmXCXCXGXaX..u d s d *.=.s         ",
"                                                                                                                          #X;XO.V . . ).<X=X1.c O X n 1XNXLXPXNXrX8X%X-XiX<.a i p *         ",
"                                                                                                    q.q.7.y.4.4.h.V.C.k.l  XpXyX& . X U R > . . . - OXtXGXDXGXwX[.~ .XwXNXsXK % O O         ",
"                                                                                              w.q.0.6.y.h.l.c.m.~.cXjXV.k 7 ! | , X : N M = X X . = ).<XeXCXBX1X~ # C }.$X1XOXA 9 ^ H       ",
"                                                                                            0.q.t.y.4.k.D.!.fXbXDXKXcXm.k . X b E ].E Y A 5 3 ; . . v W +XeXrX$X4 . X : b ).:X@X{ .._ ^     ",
"                                                                                        w.q.6.8.a.c.M.S.cXJXJXKXJXvXW.k.    < W >X,XOX{.].D S q + . > b W oX#X].: . . . . : ].,X:X! ( X./ 9 ",
"                                                                                      0.r.i.5.f.M.fXcXSXKXKXDXvXfXA.k.p.  b ).:X3X:X[.] ] '.[.].M + X > C ).).L = . . . . . 4 .XXXV ` o._ y ",
"                                                                                q.q.7.9.p.z.N.S.jXHXKXKXHXvX!.D.z.a.u.7.z S OX2X:X].A 2 N '.@XoXR : . X 4 A b = . . . . . . X 4 N 7 ( o.) 9 ",
"                                                                          w.q.0.q.y.h.g.c.!.vXSXKXKXDXbX^.A.x.p.y.8.t.q.z S .X:X].Y b + + N R R T M . . 2 N 1 X + > + . . . . . X $ ^ ' ^ 9 ",
"                                                                        q.q.7.y.p.l.S.!.gXSXKXKXDXvX!.M.l.h.y.6.q.r.    e S [.XXE L C : X X + > Z N X . @ C [ ..=X+.w . . . . . . % t ^ y 9 ",
"                                                                    q.q.6.8.h.l.N.fXAXJXKXKXHXbX^.D.z.p.8.7.q.          < S [.XX).S M 3 > X . + 2 : . . @ L %XpXZXaX .O . . . . . $ 9 9 9 & ",
"                                                                  0.7.i.5.k.D.fXvXJXKXKXDXvXfXC.k.a.y.q.0.w.            < b E [.E G u $ : 4 v 4 @ . . : Y Y ! +.1.1.(. .$ . . . X 3 w , & & ",
"                                                            q.q.7.9.p.v.Z.^.nXKXKXJXJXvX~.N.z.p.7.q.q.q.                < b A P N & * O X v C v @ . + ].:XE + . . 9 yXpXK X . . : A         ",
"                                                      q.q.0.6.y.h.l.D.gXDXKXKXKXDXzX!.A.x.p.y.7.q.                            N @ O O O . @ = = : 1 v [.:XoX4 . . > %X-XQ < 6 v A           ",
"                                                    0.q.7.9.i.z.S./.nXJXKXHXSXvX!.M.l.a.8.q.q.w.                              U 2 + . . + 2 q M C L L E OX,X'.@ . 4 .X.XP n n P             ",
"                                                q.q.q.8.h.m.N./.SXKXJXFXlX~.S.D.x.i.8.r.q.                                    OX{.U @ . > ]             @X0XOX: . 2 [.{.Q                   ",
"                                              0.7.i.a.l.S.jXSXJXJXSXbX^.Z.c.f.a.y.6.0.q.                                      3X2X'.> . . Z               9X,XY + @ ! *XyX                  ",
"                                        7.7.7.9.a.v.Z./.AXKXKXSXlXQ.N.M.z.p.8.q.q.q.                                          9X0XOXB . . X N {.          9X9X:XN . 9 o.pX                  ",
"                                  0.l q.a.k.g.l.D.gXSXJXJXFXzX~.n.h.h.a.s.r.q.                                                  3X2XoXM . . . q '.          9X3XT . O r -X                  ",
"                                r.8.9.a.C.!.fXhXnXJXKXDXlXQ.m.j.i.8.8.q.q.w.                                                      9X3XoXM . . @ R           3X3XT . O G -X                  ",
"                            6.6.s.l.c.D.jXHXKXKXKXDXzX~.n.a.p.i.7.q.q.                                                              9X3XOXM . X Z           qXqX|.$ & ..pX                  ",
"                          8.5.4.z.!.gXcXKXKXJXDXbX~.n.f.p.8.r.r.r.w.                                                                  9X3XoXM . @ R         NXBXMXO.g H *X                  ",
"                    7.6.8.x.C.Z.fXHXKXKXJXAXlXW.m.h.u.y.t.q.q.w.                                                                        9X9XOXB . > R       CXxXxXiX .G |.                  ",
"              0.l q.a.f.l.~.cXSXJXKXJXFXhXS.n.h.p.y.6.r.r.                                                                                9X9XOXB X > Y     8X .g | O.sXmX                  ",
"            r.9.9.a.A.W.fXSXKXKXJXAXgXQ.m.j.u.8.t.r.w.w.                                                                                    0X,XU . . 2 '.  ).6 X % | aXFX                  ",
"        0.6.s.l.M.D.cXHXJXKXJXvX^.S.n.a.p.u.r.q.q.                                                                                          :XoXM . . @ M   L E L = o | CX                  ",
"      s.5.5.F.!.bXAXKXKXHXvXfXA.l.j.p.8.r.r.q.w.                                                                                            @X[.M + @ @ +   4 R U @ . ; 7XVX                ",
"    8.z.N.Z.gXHXKXKXJXvX^.D.v.h.u.y.t.q.w.w.                                                                                                :X:XE 5 > @       4 M @ . = [.tXBX              ",
"6.9.x.!.vXSXJXKXSXfX!.S.z.f.p.8.r.r.r.                                                                                                    :X3X2X[.5 + .       : U R N = : |.wX              ",
"6.d.kXHXKXJXSXvX~.c.b.j.u.8.t.r.w.w.                                                                                                    '.[.OXXXA + .           '.@XR X . A 2X              ",
"q.B.PXKXHXgXW.D.z.p.p.u.r.q.q.                                                                                                          Z Z M : + .               OXD . . A ,X              ",
"w.B.cXAXfXm.g.j.p.t.r.r.w.w.                                                                                                              3 + . .                   N . . 2 E               ",
"q.d.C.Z.m.a.i.u.t.q.w.w.                                                                                                                                              . . . X               ",
"  r.a.h.h.y.q.r.q.                                                                                                                                                                          ",
"    q.y.u.r.e.w.                                                                                                                                                                            "
};
