/* XPM */
static char *luke_83[] = {
/* columns rows colors chars-per-pixel */
"74 59 256 2 ",
"   c None",
".  c #010101",
"X  c #01040B",
"o  c #090505",
"O  c #001400",
"+  c #010512",
"@  c #010A14",
"#  c #010C1B",
"$  c #070817",
"%  c #160E17",
"&  c #06111D",
"*  c #1B121A",
"=  c #171319",
"-  c #1A0D0A",
";  c #2D130B",
":  c #003005",
">  c #020928",
",  c #021224",
"<  c #04142B",
"1  c #08172C",
"2  c #031A33",
"3  c #011B3B",
"4  c #051837",
"5  c #161934",
"6  c #100F2B",
"7  c #271A28",
"8  c #291D37",
"9  c #331D30",
"0  c #1A253B",
"q  c #062C33",
"w  c #292336",
"e  c #372538",
"r  c #32262A",
"t  c #35211A",
"y  c #571A01",
"u  c #4C1601",
"i  c #50260B",
"p  c #642706",
"a  c #7A3808",
"s  c #793A14",
"d  c #6D2F09",
"f  c #492C31",
"g  c #005408",
"h  c #026E0F",
"j  c #005029",
"k  c #007C2C",
"l  c #344B38",
"z  c #734834",
"x  c #7A4612",
"c  c #021E43",
"v  c #011B48",
"b  c #011B58",
"n  c #060F4B",
"m  c #032244",
"M  c #03234B",
"N  c #072447",
"B  c #182A47",
"V  c #032957",
"C  c #143156",
"Z  c #252844",
"A  c #392944",
"S  c #363657",
"D  c #2D3252",
"F  c #012D63",
"G  c #032C69",
"H  c #023364",
"J  c #03336B",
"K  c #02396D",
"L  c #043975",
"P  c #072F71",
"I  c #2A376A",
"U  c #221F42",
"Y  c #492D45",
"T  c #49324B",
"R  c #56334C",
"E  c #4A3557",
"W  c #543959",
"Q  c #502E4A",
"!  c #573C63",
"~  c #483A66",
"^  c #683F5D",
"/  c #344A4D",
"(  c #006A4C",
")  c #04417D",
"_  c #114D76",
"`  c #354669",
"'  c #395478",
"]  c #007F72",
"[  c #524B52",
"{  c #694C52",
"}  c #5D4268",
"|  c #4A506D",
" . c #654469",
".. c #694975",
"X. c #725179",
"o. c #6B676D",
"O. c #5D635D",
"+. c #913B0A",
"@. c #A63E01",
"#. c #965518",
"$. c #8E4A11",
"%. c #A75414",
"&. c #9B621D",
"*. c #AA7315",
"=. c #94522C",
"-. c #A7592A",
";. c #A95C32",
":. c #9B6933",
">. c #B26C2F",
",. c #CD7032",
"<. c #E87026",
"1. c #8C5B45",
"2. c #B97352",
"3. c #907159",
"4. c #C8754C",
"5. c #028E11",
"6. c #04B81A",
"7. c #0CAC15",
"8. c #018B2A",
"9. c #009829",
"0. c #008B34",
"q. c #008836",
"w. c #019332",
"e. c #02A424",
"r. c #02AB25",
"t. c #07A928",
"y. c #08B526",
"u. c #15B42C",
"i. c #28B32E",
"p. c #0BC715",
"a. c #18C717",
"s. c #17DC15",
"d. c #33E718",
"f. c #14C82E",
"g. c #26C928",
"h. c #2AD52B",
"j. c #2DD231",
"k. c #33E42B",
"l. c #26D31B",
"z. c #55E63B",
"x. c #54F034",
"c. c #6AF53B",
"v. c #4CDB3B",
"b. c #0F985B",
"n. c #728A70",
"m. c #56B861",
"M. c #51D850",
"N. c #5BEA47",
"B. c #57EF48",
"V. c #63EA47",
"C. c #78FE45",
"Z. c #77F856",
"A. c #6BF54A",
"S. c #5FE165",
"D. c #3CD64A",
"F. c #B28536",
"G. c #B3831E",
"H. c #C89034",
"J. c #CFA934",
"K. c #A89371",
"L. c #D38558",
"P. c #F09251",
"I. c #CAAA53",
"U. c #D29168",
"Y. c #EB9C71",
"T. c #D1B672",
"R. c #F4A67A",
"E. c #FFA15F",
"W. c #AED175",
"Q. c #96FB67",
"!. c #9AFD79",
"~. c #AAFA79",
"^. c #B3FA73",
"/. c #8FE963",
"(. c #D0F27C",
"). c #FFC17A",
"_. c #043989",
"`. c #013795",
"'. c #062F86",
"]. c #001B82",
"[. c #014483",
"{. c #02468B",
"}. c #014C93",
"|. c #034797",
" X c #02529C",
".X c #10548F",
"XX c #375186",
"oX c #014CA6",
"OX c #0155A4",
"+X c #0256AC",
"@X c #015AB5",
"#X c #0951AD",
"$X c #0969AD",
"%X c #2D70B4",
"&X c #186590",
"*X c #43578C",
"=X c #735487",
"-X c #51758D",
";X c #5E73A0",
":X c #0465C6",
">X c #0467D5",
",X c #0F72CF",
"<X c #3474D3",
"1X c #087AE8",
"2X c #0579F6",
"3X c #1079E0",
"4X c #1A6CE7",
"5X c #008084",
"6X c #748B91",
"7X c #6D87B3",
"8X c #4F82B1",
"9X c #58C9A1",
"0X c #0E87F9",
"qX c #348ADA",
"wX c #6AAFF4",
"eX c #5A9FDF",
"rX c #878385",
"tX c #B09896",
"yX c #93ADB2",
"uX c #B1ADAF",
"iX c #9D92A5",
"pX c #CFB396",
"aX c #D6AC98",
"sX c #B2CC93",
"dX c #94F687",
"fX c #A6F987",
"gX c #AFF792",
"hX c #B3F7AC",
"jX c #98D7A3",
"kX c #D1FB91",
"lX c #D5CBB1",
"zX c #C9FFA7",
"xX c #C9FAB4",
"cX c #D6FEB8",
"vX c #D0FBA5",
"bX c #E5FDB7",
"nX c #EBFFB3",
"mX c #F8DA8F",
"MX c #8DACD0",
"NX c #ABBDCB",
"BX c #89B5E9",
"VX c #B7C7D7",
"CX c #CFCCD2",
"ZX c #D8FEC4",
"AX c #D5FFD8",
"SX c #E6FFC8",
"DX c #FBFFCD",
"FX c #EBFDD7",
"GX c #FAFFDB",
"HX c #FCFFEC",
"JX c #F8FFE8",
"KX c #FEFFF3",
"LX c #FFFFFD",
"PX c #F7FDF6",
"IX c #E9FCEA",
"UX c #C6D7E5",
/* pixels */
"              >.>.I.lXCXCXCXlXT.G.$.a                                                                                                               ",
"              F.*.F.T.pXtXtXpXI.H.*.$.                                                                                                              ",
"              H.&.#.F.F.&.=.>.H.J.J.&.a                                                                                                             ",
"              H.#.a $.*.*.$.+.-.J.J.*.d                                                                                                             ",
"              =.s y p $.G.*.:.2.U.H.*.$.                                                                                                            ",
"              s p u p a #.*.I.lXaXL.H.*.$.                                                                                                          ",
"              :.s s =.=.a x F.pXCXaXU.H.#.a                                                                                                         ",
"              Y.4.4.U.L.$.y p :.aXCXaX,.$.a                                                                                                         ",
"              Y.R.R.Y.L.;.d u y =.K.T.H.%.d                                                                                                         ",
"              >.U.R.L.2.;.=.s y u d *.H.:.f                                                                                                         ",
"              $.>.L.4.-.=.;.;.$.y y +.:.-X#Xv                                                                                                       ",
"              #.%.-.;.-.;.4.4.#.d p p [ ,X>XG #                                                                                                     ",
"              ;.%.a a #.>.4.;.s p d f P @X@XK 3 V                                                                                                   ",
"            Y { z t ; d =.=.i - ; f Z G _.L G H {.+X                                                                                                ",
"          [  . .W 5 . ; a i o . $ 9 Z M V c 2 H @X3XOX                                                                                              ",
"        { tXiX=X=XS + - a a ; . + 8 A Z c , . 3 +X2X:XV                                                                                             ",
"      % | MXMX=X=X..8 ; s -.$.; - e W W Z 6 . + G :X@XV 1                                                                                           ",
"    9 7 _ qX,XI ! X.! A f 1.,.$.i e ! ..W w , X # V L M 3                                                                                           ",
"  M I -X6X%XoXG 0 R ..S 8 1.Y.L.s t A  .! A & . . + 3 V M                                                                                           ",
"3 J %XBXyXXX`.|.M 7 T 8 $ 1.R.P.z w 5 Y W A $ . . . , G V 3                                                                                         ",
"c {.0XeX8X_ |.@XL , % X . z P.,.{ .XP e R S 1 X . . # G H N                                                                               0.k       ",
"M }.1X>X{.G K L V # . . % f +.@.O.3X:XI Y E D 1 X . X m L J N                                                                           e.r.t.t.    ",
"N ) @XoXP v 2 , $ . . % e 7 ; d o.0X2X.XD Y E D < X . $ H }.J 3                                                                     r.e.y.k.c.z.u.0.",
"m H }.|.G < . . . . . 9 E 7 % / %X1X2X+XB f R S N , . . , L {.L                                                                   r.p.p.k.!.cXhXm.0.",
"M V G G m $ . . . . . 7 R e 0 OX3X:X@X{.B f R S   c < . . # L +X                                                            r.r.y.j.x.A.fXIXLXIXm.0.",
"V c , # $ . . . . . . 7 R f 0 L |.K H V 0 f R     M m < . . 3 L                                                       r.e.r.p.h.V.~.zXZXJXLXHXgXi.8.",
"M > . . . X , # X . . * A Y w 5 1 1 5 Z w f R S     v 3 X . # c                                                     r.y.u.g.N.~.nXHXLXLXKXFXfXv.e.8.",
"c 3 & . . , V V , . . $ B S T e * * T ! e r T !       c + . < v 3                                               r.e.u.N./.^.cXHXLXLXLXxXQ.Z.M.e.    ",
"_ ' o.S $ # m V M 3 V G G I W Y 7 7  .=XW e T E       [ f z o.| c >                                           6.g.M.jXcXDXHXKXFXZXxXgXN.a.p.t.      ",
"%X7XVX7XN . # m V J {.{.J S W Y 7 7 W X...W E 8       ,.L.aXmXK.[ 5                                     9.r.u.M.fXZXPXLXLXJXzX/.A.V.v.u.8.8.        ",
"#XqXwXqXJ . , H V 3 m m 2 A W T 7 * 7 T ..X.~ 5 t -.<.<.P.mX).E.L.O.                                  8.i.S.jXxXKXLXLXFXvX!.N.g.6.u.t.w.            ",
"_.@X1X1XJ X m }.H X . . . 7 E E e * o = ~ =X{ t r z =.x :.U.2.4.U.o.                                g.i./.SXLXLXJXFXcXQ.x.h.y.w.q.q.0.              ",
"J |.:X@XM . M OX) 2 < # . & D ~ Y * o 1 [.*Xz p r C C C D ` S S | ` J G G G                 e.e.f.x.Z.gXFXLXLXZX!.Z.N.g.e.9.w.0.                    ",
"2 G }.{.< . M OX) 3 3 < X . 5 E 9 - f -X,X.Xf p e I |.|.`._._._._._.{.{.{._.].            6.p.j.M.fXbXGXGXFXxXZ.k.a.y.9.0.0.q.                      ",
"X < V V # . m }.H X X . . . % A 9 r 3.NXqX{.w f Q } *X#X@XoXoX+X+XOXOXoXoXoX`.J     y.r.y.h.A.^.bXHXLXFX!.c.x.h.r.9.0.0.                            ",
"M 3 # $ . . < H 3 . o . . o * 7 [ rXuXiX*XC U E ..^ S L [.) ) ) [.L K P `.#X X( 8.6.p.h.V.fXSXHXKXGXvX!.k.p.6.e.w.q.                                ",
"OXK X . . # < < X . % = = 7 * * O.uXrXr * 9 E .. .e % < m m 3 < < 1 4 2 V {.b.r.p.h.V.~.bXHXLXLXxXQ.z.h.y.w.0.0.q.                                  ",
":X}.3 . # H H $ . . 1 D A T 9 * T o.e . o f .. .e % . . , > + . . X , j k 0.y.d.c.fXZXHXLXGXvX~.N.g.t.9.w.0.                                        ",
"@XOXG X 2  X[.$ . X 3 C E  .W 9 * % . o w } ..E * . . . + # X . O : j 9.s.k.V.fXbXHXKXGXcX!.z.h.y.9.0.q.q.                                          ",
"@X}.G X 2  X[.$ . X < 4 w W ..E 7 * * A ! ..W r % . . . . . . : h e.y.h.C.^.cXLXLXJXvXQ.V.h.r.w.0.0.                                                ",
"+X}.V X < }.[.$ . . + X . 7 W ..} }  ...R e 7 * o . . . O : g h h.B.Z.fXSXKXHXGXcXfXz.g.y.9.w.0.                                                    ",
"@X XJ + <  X[.$ . . . . . * T ......X.! 5 + o o . . . O g r.f.M.!.kXnXHXLXKXcXQ.x.h.y.w.0.0.0.                                                      ",
"    {., < }.[.$ . . # 6 7 T } W r 7 8 C G V > . . : h 5.a.Z.hXAXPXLXLXGXvX!.N.g.r.9.w.0.                                                            ",
"    OXm , F L 3 X . # Z } ..Q * . . > '.<X<X'.> : 5.k.S.dXSXKXLXLXHXZX!.z.g.y.9.0.q.0.                                                              ",
"    +XJ # $ V L 3 . . A ..W * . . # b $XwXBX<X_ 8.z.gXAXJXLXLXHXvXQ.A.h.t.9.w.0.                                                                    ",
"    @XL # . 4 _.v . . 7 S I c + . + V b.m.9X9X9XjXcXHXLXLXcXzXfXN.l.6.e.0.q.                                                                        ",
"    +XG X - ` %X` 7 & $ & V P 2 . O h y.j.M.fXAXLXLXLXIXgXA.x.h.y.9.8.0.0.                                                                          ",
"    }.c - o.NXVXNXrXD X . > c j g h 7.V.dXhXGXGXDXvXgX!.z.a.6.e.w.8.                                                                                ",
"  < L C O.MXVXNXUXBXI + . O g 7.j.M.dXcXHXKXJXnX^.c.d.d.a.e.5.8.8.                                                                                  ",
". X B 6XNXwX%X/ %X<X'.q h 7.a.c.fXAXPXKXGXvXQ.C.x.l.6.e.9.8.                                                                                        ",
". . w uXPXwXP # n }.-Xm.Z.Z.dXzXGXLXLXGXkXc.d.s.a.7.q.5X$X                                                                                          ",
". . 0 VXLXMXG > > / W.(.kXSXKXLXLXLXDXkXC.d.p.9.8.q.] :X2X                                                                                          ",
". . 0 CXPX;Xn > > / (.(.K.sXHXLXLXDXkXC.h.6.9.( ] $X$X@X>X2X                                                                                        ",
". # L MXCXn.l / / n.sXn.Z [ sXxXxX~.C.k.w.h j _ :X2X>X_.|.>X>X                                                                                      ",
". v :XeXyXW.W.W.W.sXyXXXn < / m.D.j.f.9.j < 3  X2X0X>XK V _.OX:X2X0X                                                                                ",
". C eXwXyXsXvXvXnXkX6XXXI N m ( q.k g q m b '.>X0X1X}.c , < m L  X#X                                                                                ",
"* O.NXMX;X7X7XyXvXW.O.I *X` V [.{.m . X 3 P oX>X1X+XM . . . . $ 2                                                                                   ",
"rX6X7X| S *X;X7XyX6X/ B ` S             + 3 V H J J                                                                                                 ",
"CXMX.X> = | 7X7X7X-XC 3 3 B             . . . . #                                                                                                   "
};
