/* XPM */
static char *luke_23[] = {
/* columns rows colors chars-per-pixel */
"67 59 254 2 ",
"   c None",
".  c #010001",
"X  c #01040C",
"o  c #060605",
"O  c #150606",
"+  c #000413",
"@  c #030A14",
"#  c #020C1C",
"$  c #090817",
"%  c #170814",
"&  c #0E1514",
"*  c #2A1819",
"=  c #301008",
"-  c #062D11",
";  c #322619",
":  c #010C25",
">  c #02142C",
",  c #031525",
"<  c #030936",
"1  c #01153C",
"2  c #021B3A",
"3  c #041934",
"4  c #14162B",
"5  c #2F112F",
"6  c #08223C",
"7  c #192739",
"8  c #0E2C28",
"9  c #2A2828",
"0  c #262835",
"q  c #392437",
"w  c #343131",
"e  c #4C1B03",
"r  c #592C0B",
"t  c #672B06",
"y  c #6D330C",
"u  c #783609",
"i  c #723816",
"p  c #452E35",
"a  c #511F33",
"s  c #005514",
"d  c #004B0F",
"f  c #0C6818",
"g  c #035E2A",
"h  c #036328",
"j  c #0C6C38",
"k  c #2B483F",
"l  c #764F31",
"z  c #524315",
"x  c #001845",
"c  c #08114C",
"v  c #371240",
"b  c #092243",
"n  c #01234C",
"m  c #042548",
"M  c #032B54",
"N  c #022859",
"B  c #04325D",
"V  c #183457",
"C  c #302E4F",
"Z  c #012966",
"A  c #00356A",
"S  c #053566",
"D  c #033D7B",
"F  c #053A75",
"G  c #082671",
"H  c #1A2E6B",
"J  c #471A47",
"K  c #4F304F",
"L  c #4F3769",
"P  c #6A346F",
"I  c #324948",
"U  c #0E7251",
"Y  c #23774D",
"T  c #04427E",
"R  c #1B477D",
"E  c #2B4768",
"W  c #4D4C4C",
"Q  c #6B574B",
"!  c #675C54",
"~  c #526F52",
"^  c #534E6A",
"/  c #6A4874",
"(  c #754A72",
")  c #526976",
"_  c #6F7674",
"`  c #8B370E",
"'  c #88430B",
"]  c #864215",
"[  c #944A1B",
"{  c #945712",
"}  c #A7521B",
"|  c #964B22",
" . c #9D5427",
".. c #8B502E",
"X. c #A7572A",
"o. c #AE532A",
"O. c #B66939",
"+. c #BD793B",
"@. c #B3732D",
"#. c #9C6519",
"$. c #CB6433",
"%. c #B36E43",
"&. c #8D7272",
"*. c #C57548",
"=. c #D6714E",
"-. c #00A41C",
";. c #00AB1C",
":. c #00A513",
">. c #06BA1B",
",. c #00892C",
"<. c #009E26",
"1. c #009A2B",
"2. c #01922F",
"3. c #008B33",
"4. c #008C38",
"5. c #029A31",
"6. c #00A224",
"7. c #00AA23",
"8. c #05A62D",
"9. c #06BA23",
"0. c #0AB335",
"q. c #149A29",
"w. c #15CC1F",
"e. c #1ACD1E",
"r. c #16CB19",
"t. c #18DA19",
"y. c #0FD11A",
"u. c #0EC221",
"i. c #18C925",
"p. c #15DB24",
"a. c #0EDD23",
"s. c #27D12E",
"d. c #1BE222",
"f. c #22E523",
"g. c #36EB2B",
"h. c #1DE01C",
"j. c #5DED3A",
"k. c #4FEF38",
"l. c #61EF3C",
"z. c #67F03E",
"x. c #178751",
"c. c #789B66",
"v. c #698B53",
"b. c #3ACF4C",
"n. c #6BF443",
"m. c #73F445",
"M. c #7CF44B",
"N. c #74FA4C",
"B. c #77F64A",
"V. c #7DFC53",
"C. c #6DEB50",
"Z. c #4BD16A",
"A. c #528427",
"S. c #B99038",
"D. c #B6891D",
"F. c #C58E39",
"G. c #CFAA3D",
"H. c #978B79",
"J. c #8FB270",
"K. c #A19C76",
"L. c #CF904B",
"P. c #CEB151",
"I. c #D39068",
"U. c #EA9770",
"Y. c #F7A37B",
"T. c #DCA262",
"R. c #8DFA52",
"E. c #ADD272",
"W. c #95F764",
"Q. c #B1FF69",
"!. c #D2FC7C",
"~. c #E5F57D",
"^. c #033B88",
"/. c #0035A0",
"(. c #034484",
"). c #03458C",
"_. c #044B96",
"`. c #045299",
"'. c #194F8D",
"]. c #3C6390",
"[. c #0249A7",
"{. c #015BAD",
"}. c #0455A7",
"|. c #004AB4",
" X c #035AB8",
".X c #2E71B7",
"XX c #235D97",
"oX c #536E9C",
"OX c #5771AE",
"+X c #76698F",
"@X c #055BCC",
"#X c #036AD7",
"$X c #0E6DCE",
"%X c #2576CD",
"&X c #0778E6",
"*X c #047BF9",
"=X c #107CEA",
"-X c #85508D",
";X c #A07A82",
":X c #927199",
">X c #718BAF",
",X c #618DA1",
"<X c #1083F7",
"1X c #2B8EEF",
"2X c #398FE1",
"3X c #6E9AC5",
"4X c #4895E2",
"5X c #57A8F9",
"6X c #74B1EA",
"7X c #488CD2",
"8X c #7ACAFF",
"9X c #979290",
"0X c #AE9B90",
"qX c #928DB4",
"wX c #A5B2AD",
"eX c #9DA69F",
"rX c #CCB28E",
"tX c #FAAC87",
"yX c #ACCA8C",
"uX c #B7E99B",
"iX c #D8CB90",
"pX c #CCFF94",
"aX c #CEFF99",
"sX c #CDFC96",
"dX c #D5D3B4",
"fX c #D5FFA1",
"gX c #DCFFA4",
"hX c #DCFFA9",
"jX c #C7F5BA",
"kX c #E2FFAB",
"lX c #E3FFA6",
"zX c #EAFFB5",
"xX c #F2FFB5",
"cX c #EDEBA7",
"vX c #8DA7CE",
"bX c #B0B9CC",
"nX c #8AA9D4",
"mX c #C4BEC6",
"MX c #B6C6CD",
"NX c #8AC9FC",
"BX c #86D2FF",
"VX c #96C9F3",
"CX c #CACBD5",
"ZX c #E5DDD8",
"AX c #DCE5CC",
"SX c #FCF9D1",
"DX c #CCD9E6",
"FX c #FEFFED",
"GX c #F1F5E3",
"HX c #FFFFF4",
"JX c #FFFFFB",
"KX c #F5F6FB",
"LX c #E6EEEF",
"PX c #D4DEF5",
/* pixels */
"                                                                                                                    3.3.3.3.          ",
"                                                                                                                    2.7.7.1.          ",
"                                                                                                                  3.8.d.f.i.5.        ",
"                                                                                                                3.6.s.R.R.j.i.5.      ",
"                                                                                                              3.6.s.W.zXxXQ.g.9.3.    ",
"                                                                                                            3.6.e.R.zXJXSXQ.k.9.3.    ",
"                                                                                                          3.6.e.M.zXJXFXaXC.i.8.3.    ",
"                                                                                                        3.6.e.M.zXJXFXpXl.u.5.4.      ",
"                                                                                                      3.6.e.M.kXJXFXpXj.9.1.3.        ",
"                                                                                                    3.6.w.M.kXJXFXpXj.9.1.3.          ",
"                                                                                                  3.6.e.M.kXJXFXpXj.9.1.3.            ",
"                                                                                                3.<.i.B.kXJXFXpXj.9.1.3.              ",
"                                                                                              3.<.w.M.kXJXFXpXj.u.1.3.                ",
"                                                                                            3.6.w.m.kXJXFXpXj.u.1.3.                  ",
"                                                                                          3.<.i.m.kXJXHXpXj.u.1.3.                    ",
"                                            u #.P.AXdXP.@.                              3.<.w.m.lXJXHXpXl.u.1.3.                      ",
"                                          u { D.P.dXiXL.F.+.                          3.<.w.m.lXJXHXpXl.u.1.3.                        ",
"                                        u #.S.G.G.P.L.+.F.F.+.                      3.6.i.m.lXJXHXpXl.u.1.3.                          ",
"                                      u #.F.L.L.S.#.{ | O.L.F.F.                  3.<.i.m.gXHXHXaXl.u.1.3.                            ",
"                                  ] .. .@.@.O.%.O.[ u u | +.L.G.                3.6.w.m.lXHXHXaXz.u.1.3.                              ",
"                                { S.rX0X%.' ' @.L.O.] u u  .+.L.              3.6.w.m.gXHXHXaXn.w.<.3.                                ",
"                              u { S.iXdX0X..[ @.L.*.| t e t `  .            3.6.w.m.lXHXHXfXm.w.<.3.                                  ",
"                              u u { S.iXdX0X%.O.O. .] u e e y `           ,.-.w.m.gXJXHXfXm.e.<.3.                                    ",
"                                ` [ { @.H.H.%.[ i y [ O...i  .=.        ,.6.e.m.gXJXHXfXm.e.6.3.                                      ",
"                                  o.} ' i i y t e y O.U.I.=.U.tX      ,.6.i.M.kXHXHXfXm.i.6.3.                                        ",
"                                    $.o.[ u e e t | *.U.Y.Y.Y.I.    ,.-.e.M.hXHXHXfXm.e.6.,.                                          ",
"                                      X.o.] t u  .X.X.*.U.U.=.l   2.-.e.M.kXHXHXfXm.r.:.,.                                            ",
"                                        t y u X.O.X. .O.=.=.} z f ;.p.M.kXHXHXfXm.r.-.,.                                              ",
"                                        o = t i l  .o.o.o.} i f -.t.m.hXHXHXgXm.t.<.U                                                 ",
"                                    '.w 0 9 = = * l o.` ` y f -.t.m.kXHXHXgXN.t.-.U                                                   ",
"                      + 9 0XDX5X*X<X3XeXeX+Xp o o * e = = f 7.p.N.hXJXHXgXN.d.;.g Z @XNX                                              ",
"                    F : V 3XVX7X|. X3XDXZXeX^ 4 o . . o s 7.p.N.hXHXHXhXV.d.:.s , c ^.7X9X                                            ",
"    3 |.5XDX9XR @X#XF x `.1X2X'.< > E oXqX:X^ 5 % . o s 6.a.N.hXHXHXhXV.f.;.s o . o # 6 9 r ` O.U.tXI.X.`                             ",
"  x _.4XNXVX7X|.|._.n 3 F }. X).2 . . < L +X/ J 5 @ s ;.d.N.gXHXHXhXN.t.7.g # . . . . . = u O.I.U.U.=.O. .]                           ",
"n ^.%XnXMX4X<X=X_.> . . o : ^.#X}.3 . # K -X-XP C h -.p.N.lXHXHXhXN.p.7.g 3 < 3 2 2 3 * t } L.Y.U.*.O.%.O. .]                         ",
"}. X{.) W V %X6X) . . . . . M $X X2 > S ^ -X-X^ Y 7.d.N.gXHXHXhXN.t.9.Y V                 ] *.U.*.} [  . .[ ]                         ",
"*X XN & . . W eX^ & ; 9 , o > A B > n D L P ^ Y 7.t.N.gXHXHXhXB.t.:.j ^ L                 9 [ o. .y u ' ' ' '                         ",
"<X Xx . . . = w V ].9X>XR x # # # : > c C L Y 7.t.m.gXHXHXhXN.h.;.h 0 J (     FXFXJXLX>XG     ] r 9                                   ",
"*X#X).2 # o . . N 2XNX6X'.3 * W W 4 . O 0 Y 7.t.m.gXHXHXkXV.t.0.U V 5 5 &.  LXVXNXPXKXMXoX    9 0                                     ",
"    #X).Z n # . n =X1X%XM . w 9X&.* . & g 7.t.m.fXHXHXkXV.h.;.U _.G 5 a ;XCXNX<X*X5XDXZXbX].G                                         ",
"      _.D }.B o S &X*X@XZ x V ) K O o h 7.a.m.gXHXHXkXV.f.;.h B G c J &.bX6X%X|./.'.) &.9XeX,XD x 3 3                                 ",
"        F $X(.# F <X*X#X|.|._.7 O o - 1.p.N.gXHXHXkXV.d.:.h 6 < < v &.mXNX<X[.N < + . . ; H.vX'.c : 2 n                               ",
"                                A.s f 8.C.gXHXHXkXV.f.;.d @ 5 v p &.CXNX<X[.Z 3 o . . . o ; ]. XZ + n D M                             ",
"                                  Z.8.s.uXFXJXSXQ.g.;.h & % J ( ;XbXNX1X[.Z 3 @ . . . . . . 6 7X>XW '. X).n                           ",
"                              yXSX  Z.b.jXHXxX!.R.0.h 8 5 J K &.CXVX1X|.Z 2 @ . . . . @ # o w wXLXbX.X|._.F b                         ",
"                        ~.~ 8 J.FXKX,Xx.uXzXW.k.b.Y 7 5 J K 5 ^ 6X5X|.Z 3 @ . . . . o + 7 ^ &.H.dXZXoX3 n ).}.                        ",
"                        E.~ I J.AXDX+X^ J.W.g.>.j I q * 5 q 4 F $X@XZ 3 # . . . . , x : 9 H.&.w _ MX_ O . B #X                        ",
"                        ~ c.c.~ _ vXbXqX_ q.-.f & J J O o 4 T  X|.A 2 @ . . . . @ S ).n O p ; . S 5XbXQ O + F &X                      ",
"                        6 J.E.I c qXKXPX^ 8 d - $ q J * . , }.#X^.2 # . . . . @ M ).(.n # # o . x %X8XMXQ o . A &X                    ",
"                        7 J.E.I E CX        . + : C L L * @ A ).M @ . . . . @ M _.(.3 : Z ).B o . x %XBXMXQ o + (.&X                  ",
"              JXJXCXV > v.!.E.) >X            : 7 L -X-XJ . + > , . . . . # M (.T n # 2     {.S o . x %XBXMXQ O o Z $X                ",
"              JXJXCX^ ~ E.lXyX,XvX            C K / -X( q . . . . . . . . 2 _.`.n o 2         {.A o . 3 %XBXMXQ o . N #X              ",
"                JXGXyXJ.yXwXeX>XnX          q L ( ( / p % . . . . . . . . b {.}., . n           {.A @ . x %X8XMXQ o . Z #X      &X}.b ",
"                  FXsXeX>XOXOXoXoX          K ^ / ^ C 7 @ . . . . . . . # B ).A , : n             {.A @ . 3 .XBXbX! r p XX}.  (. XD > ",
"                    wX,XOXOXoXE m           / K 0 V (.(.6 . . . . . . # S ).B , 3 B                 {.S @ . 3 %X8XMXrX0X) n x B B > o ",
"                    bX>X                    / q & 3 D _.(.M M B M M B D `._.M : n                     {.B @ o A $XnXDXVXE o + # @ .   ",
"                    KXbX                    L q % % 6 F _.{.{.{.{.{.{.{._.D Z B                         {.A 2 x n V .X1XB . . . .     ",
"                                                        D T T D F F D F A                                  X(.2 . . ^.#X              ",
"                                                        B m b b b b b b n                                 @X`.2 . . ).#X              "
};
