/* XPM */
static char *luke_57[] = {
/* columns rows colors chars-per-pixel */
"59 92 256 2 ",
"   c None",
".  c #010101",
"X  c #0B0303",
"o  c #02050B",
"O  c #0B050A",
"+  c #09090C",
"@  c #180607",
"#  c #010513",
"$  c #030913",
"%  c #030D1B",
"&  c #050518",
"*  c #180D14",
"=  c #1A1419",
"-  c #08111B",
";  c #251617",
":  c #31100B",
">  c #03301B",
",  c #010D25",
"<  c #031124",
"1  c #04152C",
"2  c #171525",
"3  c #000735",
"4  c #001532",
"5  c #00153B",
"6  c #031D3C",
"7  c #0A1D3A",
"8  c #061A34",
"9  c #18182F",
"0  c #241A25",
"q  c #2A1E2C",
"w  c #281926",
"e  c #321D32",
"r  c #01203D",
"t  c #152138",
"y  c #113029",
"u  c #372639",
"i  c #2D2834",
"p  c #39261B",
"a  c #4D1C01",
"s  c #4E250D",
"d  c #682B07",
"f  c #7A3908",
"g  c #74340D",
"h  c #45273A",
"j  c #4A372F",
"k  c #682F1A",
"l  c #047413",
"z  c #11762F",
"x  c #2A531D",
"c  c #4B5119",
"v  c #714E35",
"b  c #4E6228",
"n  c #64452E",
"m  c #021C43",
"M  c #051749",
"N  c #001D57",
"B  c #0D1449",
"V  c #082142",
"C  c #01244B",
"Z  c #052549",
"A  c #022552",
"S  c #042A54",
"D  c #012B5C",
"F  c #062756",
"G  c #172D53",
"H  c #392844",
"J  c #323153",
"K  c #012C63",
"L  c #012966",
"P  c #02326A",
"I  c #043465",
"U  c #002B77",
"Y  c #033B72",
"T  c #023D7B",
"R  c #043775",
"E  c #163668",
"W  c #2A3868",
"Q  c #001B67",
"!  c #462D47",
"~  c #4A314C",
"^  c #55324C",
"/  c #4D3553",
"(  c #483558",
")  c #543758",
"_  c #643C59",
"`  c #543D64",
"'  c #663368",
"]  c #085249",
"[  c #3E4F50",
"{  c #03417D",
"}  c #184066",
"|  c #33496F",
" . c #386274",
".. c #4B5159",
"X. c #4A474E",
"o. c #67534B",
"O. c #53744D",
"+. c #514A6D",
"@. c #664775",
"#. c #67476F",
"$. c #4E6B6E",
"%. c #6D6D71",
"&. c #6F6358",
"*. c #853A0A",
"=. c #8A3712",
"-. c #823F24",
";. c #894516",
":. c #94470F",
">. c #AE5418",
",. c #9A5426",
"<. c #8F4F2B",
"1. c #A95829",
"2. c #AB542D",
"3. c #AA683A",
"4. c #B76533",
"5. c #C26534",
"6. c #97664E",
"7. c #B26945",
"8. c #8B7F74",
"9. c #C87B52",
"0. c #C47549",
"q. c #04831D",
"w. c #009114",
"e. c #00AB1E",
"r. c #00AA19",
"t. c #02B71C",
"y. c #05BD0E",
"u. c #008D2E",
"i. c #088823",
"p. c #00952C",
"a. c #00992E",
"s. c #049625",
"d. c #008B36",
"f. c #008536",
"g. c #019833",
"h. c #14912F",
"j. c #00AC20",
"k. c #03A62C",
"l. c #09B725",
"z. c #05B823",
"x. c #13AC2A",
"c. c #5D9539",
"v. c #04C31C",
"b. c #24D81F",
"n. c #01C223",
"m. c #11CB2D",
"M. c #2CDB23",
"N. c #26DA21",
"B. c #33D72A",
"V. c #37E72A",
"C. c #36EA34",
"Z. c #36ED2A",
"A. c #45E332",
"S. c #4BE534",
"D. c #4BE832",
"F. c #46D239",
"G. c #05984E",
"H. c #0E9561",
"J. c #6F8B6D",
"K. c #6D8D56",
"L. c #67F343",
"P. c #4ED642",
"I. c #8DB16E",
"U. c #9B8D61",
"Y. c #D58F65",
"T. c #E6936D",
"R. c #F3A679",
"E. c #E0914C",
"W. c #98FA5D",
"Q. c #8DFE4F",
"!. c #9DFB62",
"~. c #96F678",
"^. c #A5FD6A",
"/. c #ADFD74",
"(. c #A6FD75",
"). c #B3FE7B",
"_. c #B4FD7A",
"`. c #B6EC76",
"'. c #96DC69",
"]. c #CDF67C",
"[. c #023B8A",
"{. c #00398C",
"}. c #044588",
"|. c #014B93",
" X c #024895",
".X c #04529B",
"XX c #144E8F",
"oX c #2F5390",
"OX c #006E8D",
"+X c #014CA5",
"@X c #0255AA",
"#X c #0357A7",
"$X c #0259B5",
"%X c #135BAC",
"&X c #0D64B6",
"*X c #3372B4",
"=X c #2D6891",
"-X c #4D6695",
";X c #73758F",
":X c #5576AB",
">X c #6E6EA2",
",X c #0466C7",
"<X c #066DD4",
"1X c #0672DD",
"2X c #1573D6",
"3X c #2875C7",
"4X c #057AE9",
"5X c #007CFB",
"6X c #005CD0",
"7X c #83578F",
"8X c #877D99",
"9X c #368690",
"0X c #718698",
"qX c #708AAD",
"wX c #68A5A6",
"eX c #0784FD",
"rX c #088BFC",
"tX c #238DF0",
"yX c #3981C8",
"uX c #4B8EC9",
"iX c #64A5E3",
"pX c #8B8C8F",
"aX c #8EB292",
"sX c #8994AA",
"dX c #8EA6AE",
"fX c #A0AEB8",
"gX c #E1BC98",
"hX c #B1F98C",
"jX c #A6D496",
"kX c #CFF98A",
"lX c #F0FEA8",
"zX c #D2E0AB",
"xX c #929EC8",
"cX c #92AACA",
"vX c #A4B4CD",
"bX c #87BAEC",
"nX c #B4C4CF",
"mX c #8EC6F8",
"MX c #9FE6F1",
"NX c #D2D1CE",
"BX c #F3FFC5",
"VX c #F4FFCC",
"CX c #FAFFCC",
"ZX c #F5FFD4",
"AX c #FAFFD5",
"SX c #FAFFDB",
"DX c #F6FFDA",
"FX c #F0F2D8",
"GX c #D1D6E8",
"HX c #CEE8FD",
"JX c #FFFFFF",
"KX c #FFFFFE",
"LX c #FCFDF5",
"PX c #EFEFEB",
"IX c #E1D4C6",
"UX c #C5B5DA",
/* pixels */
"                                                                                                    f.p.m.Z.M.l.d.    ",
"                                                                                                    p.k.P.L.L.B.k.    ",
"                                                                                                  u.e.B.(.lX].L.m.k.d.",
"                                                                                                u.j.M.!.CXLXlXQ.N.k.d.",
"                                                                                              u.e.N.W.BXJXSXkXL.m.a.d.",
"                                                                                            u.e.b.W.BXJXSXhXS.x.g.d.  ",
"                                                                                          u.e.N.W.BXJXSX).S.l.a.d.    ",
"                                                                                        u.e.N.W.BXJXSX).S.l.a.d.      ",
"                                                                                      u.e.b.W.BXJXSX).S.l.a.d.        ",
"                                                                                    u.e.b.W.BXJXSX).S.l.a.d.          ",
"                                                                                  u.j.M.W.BXJXSX).A.l.a.d.            ",
"                                                                                u.j.N.W.BXJXDX).S.l.a.d.              ",
"                                                                              u.j.N.W.BXJXDX).S.l.a.d.                ",
"                                                                            u.j.M.W.BXJXDX).A.l.a.d.                  ",
"                                                                          u.e.M.!.CXJXDX).S.l.p.d.                    ",
"                                                                        u.e.M.!.CXJXZX/.A.l.p.d.                      ",
"                                                                      u.e.M.W.CXJXZX/.A.l.p.d.                        ",
"                                                                    u.e.M.!.CXJXZX/.A.l.p.d.                          ",
"                                                                  u.e.M.!.CXJXZX/.A.l.p.d.                            ",
"                                                                u.e.M.!.CXJXZX/.A.l.p.d.                              ",
"                                                              u.j.M.^.CXJXAX/.A.l.p.d.                                ",
"                                                            p.e.M.^.CXJXDX/.S.l.p.d.                                  ",
"                                                          u.j.M.^.CXJXZX/.A.z.p.d.                                    ",
"                                                        u.j.M.^.CXJXZX/.A.l.p.d.                                      ",
"                                                      u.e.M.^.CXJXDX/.C.e.p.f.                                        ",
"                                                    u.e.M.^.CXJXZX(.C.z.p.d.                                          ",
"                                                  g.e.M.^.CXJXZX(.V.n.x.c.                                            ",
"                                            =.x u.t.V.^.CXJXZX(.C.z.h.c.E.                                            ",
"                                          =.c z e.V.^.AXJXZX(.C.n.q.b 3.E.                                            ",
"                                        g c i.n.Z.^.AXJXZX(.C.n.l x d =.2.                                            ",
"                                        z i.z.Z./.AXJXZX(.C.n.i.x a a g =.                                            ",
"                                        g.z.V./.AXJXZX(.C.t.q.b 3.,.g <.3.                                            ",
"                                      p.z.V./.AXJXCX(.C.z.l c 1.T.T.9.Y.R.                                            ",
"                                    p.e.V.^.AXJXCX^.C.n.q.c ;.5.T.R.R.T.T.                                            ",
"                                  p.e.V./.AXJXZX^.V.t.i.b ,.2.2.0.T.T.9.1.                                            ",
"                                p.l.V.^.AXJXCX^.Z.n.q.c ,.4.2.,.4.9.9.1.f                                             ",
"                              p.e.V./.AXJXVX^.V.m.H.] d =.;.<.1.1.1.1.,.;.                                            ",
"                            w.e.A./.AXJXCX(.Z.y.f.OXXXu @ : n 1.;.f ;.1.4.                                            ",
"                          w.y.A./.AXJXCX^.C.v.l > L +XT , . s f s a *.5.                                              ",
"              , M | dXwXh.r.A.).AXJXCX^.Z.v.l > 2 G {. XI p d a X @                                                   ",
"        , . + 3 U |.H.g.a.F.hXSXJXBX^.Z.v.l y u ' @.W C ..Y.4.a . +                                                   ",
"      ..$.E 3 1  .9X] l x.~.DXJXSXkXL.n.f.y 9 ! 7X7XH O v gXE.=.X #                                                   ",
"    G sXMXiXU = U.jX$.> x.hXLXCXkX!.F.z ] N B J #.` w @ <.R.R.<.; 2 H ) J                                             ",
"    .XuXMXMX=Xy U.lXzX$.z I.lX).D.B.l > N Q D J ` u ; d >.0.pX-XJ e ^ _ ~ t                                           ",
"    +X$XuXjXI.O.K.zXFXxX$.J.'.D.m.G.] , 3 m G J ! : s <.6.o.=X&XW h ^ ` | E C                                         ",
"    N m 7 [ I.I.O. .qXGXUX;Xz s.G.OX+XU 4 2 H H : a v :X3XXXE W ( h q G XX,X.XZ                                       ",
"    & . . % J.`.O.B -XPXJXsX7 > ] Y {.T D G / q * X.:XrX5X$XG h ^ h * % R ,X,XT V                                     ",
"V G M & . 2 J.`.O.W vXJX      # - $ # 4 Y oX` p 2 XX2X,X,X@XW h ^ ! = . % P @X@XY V                                   ",
"dXdXqXG % O.].].J.>XPX        O O . . . E oXJ : $ C L C S W W ~ ~ / u @ . # L .X}.S 6                                 ",
"JXJXPXpXO.I.kXkXaXxX          O O . . * ! / w X . O O X * u / / ! / / 0 . . % A P D m 7                               ",
"  JXJXzXI.aXdXdXqXqX          * + . = H ~ u = X = h ^ h ; w ! / ~ / / 0 . . . $ 6 A V 7                               ",
"    LXzXaX0X:X:X-X-X          u q q H ) ! e 0 * 0 #.7X#.u = u ( / ~ ! 9 $ . . $ 6 P Y S                               ",
"      nXqX:X:X:X| Z           ( ( ( ` / u q q q u @.;X#.u 0 q ! / h i Z C % . < C T #X}.S                             ",
"        cXqXqX:X| 5           u J ` ) u q 0 q H ` #.#.! u u u q u i Z L T P 6 $ $ 6 T .X}.D                           ",
"        GX                    s H H e 2 = * O e ) ^ u w u ~ u ; ; t L     $X{ $ . . < P  XT m                         ",
"                            d <.n = + * * O X * w w * = w u w ; =           @XC + . . < L U F                         ",
"                          g ,.1.=.: X ; o.&.&.o...E 5 X X @ = ;               T A 1 + * H +.X.                        ",
"                        a ;.,.*.f g p u pXNXNXNXnXiX#X4 .                       +X XF j ,.7.7.,.                      ",
"                        @ s s a v Y.0X%X:XiXmXHXLXHXiX%X4                         ,X$.<.>.>.4.9.3.                    ",
"                        * @ O 9 %.vXiX,XU {.2XmXPXPXmXtXR .                         6.1.*.d ,.Y.Y.3.                  ",
"                      u ! e 7  X3X*X*X[.3 3 +XiXGXvXyX#XA . $ 6 V 7 7 7 7 8         1.:.*.d f ,.9.T.                  ",
"                    u ^ #.| XX<X$XL 5 , . & { uXiX*X{.D % . $ 1 7 S I Y T T D       :.:.;.;.;.f 1.T.                  ",
"                  u #._ J XX1X$XA # . . . # D %X&X|.L 4 + . < V Z P |.#X,X1X$XA       *.:.1.1.;.;.7.                  ",
"                  u @._ q T $XP + . . . . + m T {.L 6 $ + < I }.}.}.{ }.$X4X4X@XL       ;.,.,.;.;.;.                  ",
"                  u #.#.q V C , . . . . . . # 5 D S < . # S }.$X$XP 6 V Y @X1X4X}.m       :.;.    f                   ",
"                  q ) ) q + + . . . . . % % . % m V % . < L T T P 8 + 1 D T $X,X}.m                                   ",
"                  0 u u ; X . . . . . . [ ;X%.| I 4 . . 4 D 6 % $ + $ 6 D P |.#XT m                                   ",
"                  ; 0 q 0 O . . . . . q pXIXNXqXXX5 . . % 6 < + . $ 1 t Z P |.#XY 6                                   ",
"                  ; = t V % . . . X j 8.U.8.%...I T S + . $ 8 m 6 1 - ; q E }.}.I 7                                   ",
"                        L m $ . . 2 0XfX... . . V $X$Xr . + 4 A A 1 X : : t L L A 7                                   ",
"                          L C 5 3 F *XuXE + . % Y ,X$XI 4 4 < , , + . X @ O 4                                         ",
"                            U L M N {.$XR + . C ,X,X|.P L D C V r % . . + < C                                         ",
"                                  G }.+XI + . Y 4X1X            |.S + + m }.$X                                        ",
"                                  sX>XoX7 + r @XeX              }.1 . . F $X4X                                        ",
"                                  nX8X! O < |.4XeX          #XT 1 . . % { <XeX                                        ",
"                                  uX| @ . 6 ,XeX          #XP < . . % R ,X4X                                          ",
"                                  uX| @ . 5 6XeX          #Xr . . % R <XeX                                            ",
"                                  cX;Xh * G 2XtX          |.< . $ R <XeX                                              ",
"                                  qX+.u o.sXmXmX        |.C . $ R <XeX                                                ",
"                                  &X} u U.gXIXNX       XC . % }.1XeX                                                  ",
"                                  cXdXpX&.n n %.    |.V + < }.1XeX                                                    ",
"                                  FXIXpXi + , L   @XI + . 1 #X4X                                                      ",
"                                  PXpX; . m T R   A 8 . . $ { ,X                                                      ",
"                                HXbX| . . V T D   + % % + < Y $X                                                      ",
"                              GXbX3XD + + 8 V       + < 1 F .X,X                                                      ",
"                              iX*XD % 8 I P 6       . + < I ,X4X<X                                                    ",
"                              rX@X# . C #X$X          . . 8 }.$X#X}.                                                  ",
"                              eX+X# . 4 .X              . + < 6 C F                                                   ",
"                              }.S + . <                   . . . <                                                     ",
"                              + . . .                                                                                 ",
"                              . . . .                                                                                 ",
"                              . . . .                                                                                 "
};
