/* XPM */
static char *luke_0[] = {
/* columns rows colors chars-per-pixel */
"59 89 256 2 ",
"   c None",
".  c #010101",
"X  c #0A0403",
"o  c #01040B",
"O  c #0B080A",
"+  c #150809",
"@  c #000511",
"#  c #010A14",
"$  c #020D1A",
"%  c #0B0A14",
"&  c #160A14",
"*  c #0B1116",
"=  c #19121A",
"-  c #0D170D",
";  c #251519",
":  c #2C110E",
">  c #0C2C17",
",  c #020A26",
"<  c #011224",
"1  c #02142B",
"2  c #0B1526",
"3  c #191727",
"4  c #050D3A",
"5  c #011532",
"6  c #021B34",
"7  c #091A35",
"8  c #031C3B",
"9  c #071A3A",
"0  c #181B33",
"q  c #150E28",
"w  c #261A27",
"e  c #351A37",
"r  c #2C1026",
"t  c #14292E",
"y  c #362436",
"u  c #2E2C2E",
"i  c #352F1B",
"p  c #551A00",
"a  c #471801",
"s  c #582304",
"d  c #4E281D",
"f  c #662A06",
"g  c #763709",
"h  c #72370B",
"j  c #4B2E36",
"k  c #5A2631",
"l  c #005615",
"z  c #075630",
"x  c #056729",
"c  c #086A31",
"v  c #066414",
"b  c #774835",
"n  c #031C46",
"m  c #021B53",
"M  c #1F1F42",
"N  c #3B1B47",
"B  c #032244",
"V  c #03244B",
"C  c #092447",
"Z  c #032A54",
"A  c #002559",
"S  c #022C5C",
"D  c #052754",
"F  c #142E4F",
"G  c #3C2944",
"H  c #2F354C",
"J  c #012E64",
"K  c #022B69",
"L  c #01346C",
"P  c #043569",
"I  c #013B73",
"U  c #013878",
"Y  c #0A2E73",
"T  c #051468",
"R  c #471E48",
"E  c #511F5A",
"W  c #452A46",
"Q  c #46314C",
"!  c #4B3656",
"~  c #553157",
"^  c #5A3C64",
"/  c #5D2C65",
"(  c #6A3371",
")  c #67344F",
"_  c #374651",
"`  c #0A774A",
"'  c #00427D",
"]  c #144377",
"[  c #314B71",
"{  c #21714D",
"}  c #744F4C",
"|  c #4F7152",
" . c #5C4267",
".. c #49526B",
"X. c #64466D",
"o. c #6B4B79",
"O. c #6E4D78",
"+. c #4F6E71",
"@. c #6E7271",
"#. c #5B5858",
"$. c #843E0F",
"%. c #894617",
"&. c #944A1A",
"*. c #945516",
"=. c #89480B",
"-. c #AA7719",
";. c #AC7517",
":. c #944F29",
">. c #A75829",
",. c #AF5C31",
"<. c #B66837",
"1. c #AE732A",
"2. c #9B631F",
"3. c #C16C3A",
"4. c #D46722",
"5. c #825E50",
"6. c #906A4C",
"7. c #B67249",
"8. c #AA7C6E",
"9. c #C8764E",
"0. c #009410",
"q. c #00AA19",
"w. c #008A2E",
"e. c #009D24",
"r. c #009F28",
"t. c #079B29",
"y. c #008733",
"u. c #008B34",
"i. c #028A3A",
"p. c #019534",
"a. c #00A226",
"s. c #02A629",
"d. c #06B529",
"f. c #33AF3D",
"g. c #14CC1A",
"h. c #13CB18",
"j. c #18D71A",
"k. c #08D218",
"l. c #22DB16",
"z. c #1ACA23",
"x. c #16C822",
"c. c #16D521",
"v. c #2ECE33",
"b. c #19E323",
"n. c #0FE122",
"m. c #2AE326",
"M. c #18E21B",
"N. c #55F138",
"B. c #739054",
"V. c #67B25B",
"C. c #11C343",
"Z. c #6EF145",
"A. c #6AF745",
"S. c #73F344",
"D. c #74F249",
"F. c #7BF74B",
"G. c #74F351",
"H. c #60E756",
"J. c #2A8055",
"K. c #BA8732",
"L. c #C58E33",
"P. c #CEA732",
"I. c #92B76D",
"U. c #AC936C",
"Y. c #CD8B52",
"T. c #EC8C54",
"R. c #D3AD49",
"E. c #D3946C",
"W. c #EA986C",
"Q. c #C7AE65",
"!. c #F4A477",
"~. c #85F955",
"^. c #84F951",
"/. c #A2E370",
"(. c #CBF67B",
"). c #003C86",
"_. c #003992",
"`. c #003FAB",
"'. c #024385",
"]. c #01458B",
"[. c #03498A",
"{. c #024A96",
"}. c #105295",
"|. c #024BA8",
" X c #0255A4",
".X c #0357AB",
"XX c #035BB6",
"oX c #0041B7",
"OX c #0362BC",
"+X c #0361B9",
"@X c #0962A6",
"#X c #2B72B6",
"$X c #335A8E",
"%X c #795689",
"&X c #755086",
"*X c #556B8F",
"=X c #4D76AD",
"-X c #697BAC",
";X c #5C6B8D",
":X c #025DC9",
">X c #0467C7",
",X c #0874DC",
"<X c #0C6BDA",
"1X c #0778E5",
"2X c #0671EC",
"3X c #1B6ED3",
"4X c #437EC9",
"5X c #836581",
"6X c #845E96",
"7X c #6D8AAF",
"8X c #648CAB",
"9X c #0887FD",
"0X c #1286F1",
"qX c #2A8AE9",
"wX c #378EE0",
"eX c #4D8BCA",
"rX c #5BA5EA",
"tX c #6AC98F",
"yX c #8B9089",
"uX c #9194A5",
"iX c #A496AC",
"pX c #8FA8AF",
"aX c #AEADB2",
"sX c #A79693",
"dX c #CFB9B0",
"fX c #DDA987",
"gX c #B0D28D",
"hX c #ABD295",
"jX c #D6FF9C",
"kX c #DAFF9D",
"lX c #D1FA8F",
"zX c #E5FF8E",
"xX c #D8CFB1",
"cX c #DBFFA2",
"vX c #DEFFAB",
"bX c #DDFEB5",
"nX c #E1FFAE",
"mX c #E1FFA6",
"MX c #E3FFB3",
"NX c #E7FFB9",
"BX c #F1FFAD",
"VX c #EFC6AB",
"CX c #8CA9CA",
"ZX c #B2BBCD",
"AX c #8EBBE4",
"SX c #CEBAD3",
"DX c #8DC7F8",
"FX c #AAC4DC",
"GX c #EDF8C9",
"HX c #CDD3EB",
"JX c #FFFFEE",
"KX c #FDFFE7",
"LX c #FFFFF1",
"PX c #FFFFFB",
"IX c #ECF1F3",
"UX c #D8D9D8",
/* pixels */
"                                                                                                  w.d.m.m.x.p.i.      ",
"                                                                                                w.a.v.Z.Z.v.d.p.      ",
"                        =.;.R.xXHXHXUXxXQ.K.<.7.                                              y.r.z.~.kXzX~.m.d.u.i.i.",
"                      %.-.P.R.E.8.8.U.Q.K.-.K.L.                                            y.r.g.F.MXJXGX(.N.d.u.i.i.",
"                      *.P.P.L.>.&.*.-.-.*.*.L.R.                                          y.r.h.S.nXPXLXvX~.v.s.u.i.i.",
"                      2.P.R.<.%.*.;.;.=.g %.<.9.                                        y.r.h.S.cXPXLXcXG.v.a.u.      ",
"                    *.;.L.E.sX7.-.-.*.f p f $.&.                                      y.r.h.S.vXPXLXcXD.z.a.u.        ",
"                  =.-.L.E.dXxXQ.-.=.%.h s s g %.                                    y.r.h.S.vXPXLXcXD.z.a.u.          ",
"                  =.1.E.dXSXfX6.h g ,.7.>.:.7.E.                                  y.r.h.S.vXPXLXcXD.z.a.u.            ",
"                  =.<.fXdXU.%.p p %.Y.!.W.E.!.fX                                u.r.g.S.vXPXLXcXD.z.a.u.              ",
"                  *.K.Y.6.b p p h >.9.W.!.!.E.9.                              u.r.g.S.nXPXLXkXD.z.r.u.                ",
"                    -.2.f a f %.:.>.,.9.W.Y.>.%.                            u.r.g.S.vXPXLXcXD.z.a.u.                  ",
"                      g s s %.<.<.&.&.<.9.<.&.$.                          y.r.g.S.vXPXLXcXD.z.a.u.                    ",
"                        h f %.3.9.>.&.&.&.>.>.>.                        u.r.g.S.vXLXLXcXD.z.a.u.                      ",
"                        s a a b 9.T.3.g s h :.7.                      u.r.h.S.nXPXLXkXS.z.a.u.                        ",
"                      w + X . + b !.W.:.: & j                       y.r.g.S.vXPXLXkXD.z.r.u.                          ",
"                    @.#.3 o . . = 6.!.7.: o 0                     u.r.h.S.vXPXLXkXS.z.r.u.                            ",
"              j y X.aXiX .q o . . ; U.E.j . q G                 u.r.g.S.vXPXLXkXD.z.a.u.                              ",
"            } yX5X%XiXiXX.e & . . * @.VX6.+ O w e             w.r.g.S.vXPXJXcXZ.z.r.u.                                ",
"          ! sXZXuXo.&X&X .G w O . * @.xXE.s . q R R         w.r.g.D.nXPXJXkXS.z.r.u.                                  ",
"        [ iXZXeX}.H ^ &X&X .W = . + @.VX!.h X 0 / / u     u.a.g.F.nXPXJXkXZ.z.r.u.                                    ",
"        [ CXrX>Xm * Q %X%XO.^ w . + 5.VX!.%.+ w ( ( H c e.a.g.F.MXPXJXjXZ.z.r.u.                                      ",
"        P @X0X,XA . y O.%XO.^ w . + 5.!.T.:.; q E ( ..i.q.j.F.nXPXJXkXZ.x.r.u.                                        ",
"        A U :X>XL * y X.%X%X .w . + b T.4.} ] Y N _ { s.j.F.nXPXJXkXZ.x.r.u.                                          ",
"        J K ]..XI 7 y ~ O.%XO.G o X f 4.>.*X<X|.F v s.j.D.nXPXLXjXZ.x.r.u.                                            ",
"      '.].L L L J 8 3 y ^ &X%X^ q X p &.;X<X<X Xc 0.j.D.bXPXJXjXZ.x.r.u.                                              ",
"    *X#XXX).V 5 < < w W X.&X%XX.e X u *X3X2X@X` q.j.F.vXPXJXjXZ.x.r.u.                                                ",
"    ZXrX.XK 8 @ . O y  .O.&X&XX.y = Y <X2X@X` q.j.F.vXPXJXkXZ.x.r.u.                                                  ",
"] =XrXeXL 1 8 B $ . w !  . .X.^ j w T `.{.` q.l.F.bXPXJXkXZ.z.r.u.                                                    ",
").XX1X.X5 # S '.V . X w G ^ X.^ W r , 8 c q.l.^.MXPXJXkXZ.x.r.u.                                                      ",
"U {..XS < Z [.I 5 . . = Q X.O.^ R r - l q.l.^.MXPXJXkXZ.z.a.u.                                                        ",
"Z L I < < [..XD % . . & Q O.o./ e > l q.b.F.MXPXLXjXZ.c.d.p.                                                          ",
"V S V o < {..XD * X . % G ^ ~ e t x q.b.F.MXPXJXjXA.c.a.u.                                                            ",
"{.'.n . < [..XD q + . % e R e t l s.b.F.MXPXJXjXA.b.a.z z                                                             ",
"1XXXJ < 6 ' ].Z 3 = X & e e > l q.b.F.MXPXLXjXA.j.q.z 6 4                                                             ",
",XXXU L I L V     e + & N H x q.b.F.MXPXJXjXA.n.q.l $ 4 4                                                             ",
"].L J {..XJ 7     W + & H ` d.M.F.MXPXJXjXA.n.s.z * , V S C                                                           ",
"S 8 < I .XJ 0     R & - x d.b.^.MXPXJXlXN.k.a.{ G r n ].'.V 7                                                         ",
"V < . 8 L V       N > v q.b.^.NXPXJXlXN.k.q.{  .R r 7 ].'.V 7                                                         ",
"m 1 . # 5 n       t c q.b.^.NXPXJXlXA.b.C.J.! / k + o V J C 7                                                         ",
"m 1 . o , 9       c y.v.~.NXPXKXlXN.k.C.tXyX~ R     . o 5 n B                                                         ",
"..H % 4 T m     V.v 0.H.bXPXLXBX~.j.0.c @.5.r M     1 . @ n V                                                         ",
"aX@.3 U oXY   (.I.> 0.H.IXJXBX(.G.s.l # ; : X L     ].# . 5 n                                                         ",
"7X..3 +.eX] | lXxX@.c V.GXmX~.N.f.z B K K 5 * [.9X    ; : i u                                                         ",
"}.D - B.gX+.| gXGXZX;X@./.G.b.s.z 3 D |.:XU 0 P :X}.  %.&.%.%.                                                        ",
"_.m o i I.I.B.| uXHXSXuX| t.a.c 3 & q V J B % 6 A F } Y.T.3.,.                                                        ",
").m o o _ gXI.F $XHXIXiXH z z u e r + X X . . 1 V F } E.W.<.,.                                                        ",
"{.m o o | (.I._ -XHXSX%XN 0 u G G e ; ; ; + o L XXY ) 9.3.&.%.                                                        ",
"eX[ $ i I.zX/.+.-XiX5X~ W e N ! ^ Q y y W y C XX2X}.k ,.>.$.g                                                         ",
"IXuX_ B.lXzXhX7X..Q Q Q G G ~ &X%X .y w W G J |.:XP d >.>.%.                                                          ",
"PXGXI.I.hXaXpX7X..e W Q G ! O.6X6X .w & y y 7 A L 7 d %.&.                                                            ",
"LXGXgXyX-X-X8X*XH e j W G ! X.O.X.Q & . = q * H [ M : g                                                               ",
"    pX*X-X-X*XF 0 w w w w y y y y w O . + * 0 @.uX..w                                                                 ",
"    CX4X4X8X    1 * O X O O X X % 2 * + & % 2 ..;X[ 7                                                                 ",
"      rX1X        1 o . . . . . o 6 0 = = X # H [ F 8                                                                 ",
"                  8 < o . . . . o     0 O . 2 +.7X[ 5                                                                 ",
"                  8 Z B # . . o 1       $ . 2 @.uX+.n 5                                                               ",
"                  V ].'.8 . . 6 J         $ o w _ F A n 7                                                             ",
"                K |.XX{.C . . V ).        1 o . @ V U Z 7                                                             ",
"              C #XqX1X{.8 . @ V U         1 o . 1 ]..XS 7                                                             ",
"              F 7XDXqX{.< @ 8 J           1 . . V >X>XP 7                                                             ",
"              F 7XDXwXL o < L U           < . . V OX>XP 7                                                             ",
"              F $XeX}.5 . 1 L U           1 . . < I ].S 7                                                             ",
"              V ).{.S o . 1 S L             # . . 5 S C 7                                                             ",
"              4 m m 1 . . $ B C             8 # . # 7 7 7                                                             ",
"              , @ . . . . $ 7 C             S 8 # . o 2 2                                                             ",
"              _ u u 2 < $ 1 C                 J B $ < D P                                                             ",
"              dXdXpX#X{.A 8                     ' Z J XX<X                                                            ",
"              FXaXCXqXXXA <                     [.Z J >X2X                                                            ",
"              qX$X[ .X'.< .                     [.< < {.>X                                                            ",
"              2XL n '.L # .                     .X1 # I +X                                                            ",
"              ,XL n '.I # .                     >X8 # ' OX                                                            ",
"              ,XZ < ' I $ .                     >X8 # ' OX                                                            ",
"              ,XB o I '.6 o                     OX6 # ' OX                                                            ",
"              ,XB o L .XI Z                     [.< # ' +X                                                            ",
"              ,XV o L OX.X{.                    J @ $ '.+X                                                            ",
"              ,XV o I OXXX.X                    n # 6 {.>X                                                            ",
"              ,XB o L .X{.U                     2 7 S .X,X                                                            ",
"              OX6 . Z ].L                         C S I OX9X                                                          ",
"              {.8 o 8 L                             8 # I 0X9X                                                        ",
"              |.).K A A                             V . 1 OX9X1X                                                      ",
"              4XwXwX}.J                             I . o J >X1X>X                                                    ",
"            wXFXHXDX#X{.                            .X$ . # L .X>X1X9X9X                                              ",
"            DXFXdXuX#X>X                            XX< . . $ B I  XOX>X                                              ",
"            AX=XH u [.>X                            OX< . . . . # 6 D                                                 ",
"            ..B o . 5 S                                                                                               ",
"            X . . . . .                                                                                               ",
"            . . . . . .                                                                                               ",
"            . . . . . .                                                                                               "
};
