/* XPM */
static char *luke_110[] = {
/* columns rows colors chars-per-pixel */
"67 110 252 2 ",
"   c None",
".  c #010001",
"X  c #01050C",
"o  c #0B0506",
"O  c #160A0A",
"+  c #020A14",
"@  c #020C1C",
"#  c #050717",
"$  c #140C16",
"%  c #181316",
"&  c #09101A",
"*  c #2B1510",
"=  c #020927",
"-  c #041224",
";  c #02152C",
":  c #09172A",
">  c #010737",
",  c #021C3D",
"<  c #071A37",
"1  c #19182C",
"2  c #261A28",
"3  c #261B33",
"4  c #35182E",
"5  c #122337",
"6  c #35253C",
"7  c #39263A",
"8  c #2F2A34",
"9  c #382415",
"0  c #461903",
"q  c #541C01",
"w  c #562404",
"e  c #562A05",
"r  c #77360B",
"t  c #6F330D",
"y  c #492B32",
"u  c #693D2D",
"i  c #31473E",
"p  c #007D35",
"a  c #007D2D",
"s  c #784D2F",
"d  c #73440B",
"f  c #021D43",
"g  c #021647",
"h  c #01114D",
"j  c #022244",
"k  c #02244C",
"l  c #0C2248",
"z  c #162544",
"x  c #032C5A",
"c  c #032655",
"v  c #133159",
"b  c #3B2B44",
"n  c #382A45",
"m  c #332E53",
"M  c #022D64",
"N  c #042C6A",
"B  c #02336A",
"V  c #043468",
"C  c #013976",
"Z  c #133873",
"A  c #312B52",
"S  c #432D47",
"D  c #46314D",
"F  c #4B3656",
"G  c #533B5D",
"H  c #56385A",
"J  c #4D334F",
"K  c #673D56",
"L  c #573D64",
"P  c #6F3B6B",
"I  c #0F4379",
"U  c #314B70",
"Y  c #29474E",
"T  c #5E436B",
"R  c #5A4169",
"E  c #4F4E71",
"W  c #65466D",
"Q  c #684976",
"!  c #76517B",
"~  c #5A716F",
"^  c #665754",
"/  c #883910",
"(  c #A3350D",
")  c #82460D",
"_  c #874718",
"`  c #94481B",
"'  c #985116",
"]  c #9C6A1D",
"[  c #9A5324",
"{  c #914C26",
"}  c #A6592A",
"|  c #AA5934",
" . c #B56537",
".. c #B0752F",
"X. c #B2681E",
"o. c #C86438",
"O. c #B76744",
"+. c #85685D",
"@. c #C9774F",
"#. c #009318",
"$. c #05B91C",
"%. c #05AC16",
"&. c #008D2C",
"*. c #018827",
"=. c #00942D",
"-. c #019D2B",
";. c #059725",
":. c #008433",
">. c #008B34",
",. c #00843A",
"<. c #009232",
"1. c #099637",
"2. c #179E30",
"3. c #01A22B",
"4. c #03A726",
"5. c #0AB825",
"6. c #18A836",
"7. c #17B32F",
"8. c #33B735",
"9. c #0CC91A",
"0. c #11CB1E",
"q. c #1BD215",
"w. c #28DA1F",
"e. c #36E81E",
"r. c #1CD624",
"t. c #15C92C",
"y. c #26D727",
"u. c #2FCE31",
"i. c #3AE927",
"p. c #2AE122",
"a. c #1CE320",
"s. c #49D338",
"d. c #5AF634",
"f. c #5FF83D",
"g. c #4DEA32",
"h. c #6BF839",
"j. c #2EAE48",
"k. c #42BD48",
"l. c #799A6F",
"z. c #51CD4C",
"x. c #6CDA4F",
"c. c #56E74D",
"v. c #69EB48",
"b. c #73EF4C",
"n. c #74EE67",
"m. c #49C969",
"M. c #3ED558",
"N. c #B68B28",
"B. c #C48F34",
"V. c #CDA839",
"C. c #D3AB37",
"Z. c #AB9D5D",
"A. c #CD914B",
"S. c #D4AC44",
"D. c #ED9D76",
"F. c #EDA279",
"G. c #D79C65",
"H. c #98FC5B",
"J. c #88F352",
"K. c #A6FD57",
"L. c #AACF6A",
"P. c #9AFA69",
"I. c #95F777",
"U. c #B8FC69",
"Y. c #B2F974",
"T. c #CAFB77",
"R. c #D7FC7B",
"E. c #C9F769",
"W. c #003B84",
"Q. c #02458A",
"!. c #034B96",
"~. c #00519C",
"^. c #154F8F",
"/. c #0156A7",
"(. c #005BB4",
"). c #0C54A5",
"_. c #0462BB",
"`. c #346FAB",
"'. c #2B5E93",
"]. c #775585",
"[. c #754F89",
"{. c #566C88",
"}. c #687A91",
"|. c #5B73A8",
" X c #637BA9",
".X c #727EA4",
"XX c #5E4B83",
"oX c #005BC1",
"OX c #0264C6",
"+X c #0A70D6",
"@X c #0473EA",
"#X c #864F87",
"$X c #94779E",
"%X c #5586AD",
"&X c #738BAB",
"*X c #72899D",
"=X c #3386DE",
"-X c #0C89FA",
";X c #2D90EF",
":X c #37A3FD",
">X c #3DA5CF",
",X c #498CCE",
"<X c #70B4F0",
"1X c #5BA5E8",
"2X c #78DE93",
"3X c #8B8992",
"4X c #93B594",
"5X c #AEA492",
"6X c #8D92AE",
"7X c #B5B1AB",
"8X c #9E9C9A",
"9X c #FCA280",
"0X c #ADD18D",
"qX c #B4FB8F",
"wX c #A8EFA9",
"eX c #94ED94",
"rX c #D6FB88",
"tX c #C2FE95",
"yX c #CBFF9D",
"uX c #D6FA97",
"iX c #CCF688",
"pX c #E4FE89",
"aX c #E6FD95",
"sX c #F8FF9E",
"dX c #C8FDB6",
"fX c #D7FDAB",
"gX c #E7FBA9",
"hX c #E6FBB7",
"jX c #F2F7B2",
"kX c #D8D0A0",
"lX c #A6BACD",
"zX c #8AAFD3",
"xX c #C8B6CA",
"cX c #B8D2D1",
"vX c #A0C7EB",
"bX c #CCCDD8",
"nX c #D2FCC9",
"mX c #EAFACD",
"MX c #E7FEC4",
"NX c #F7FDC9",
"BX c #EBFBD8",
"VX c #F7FCD8",
"CX c #CFEBFA",
"ZX c #E9E9E9",
"AX c #ECFDE3",
"SX c #FCFDEB",
"DX c #F5FAE6",
"FX c #FCFCF2",
"GX c #FCF9FD",
"HX c #F7F8F7",
"JX c #ECFCF2",
"KX c #D5D0D5",
/* pixels */
"              =.$.y.p.y.y.a.9.<.,.                                                                                                    ",
"            &.4.u.v.b.b.v.i.9.=.,.                                                                                                    ",
"          :.-.u.P.uXaXaXT.b.y.3.>.                                                                                                    ",
"          a j.wXVXSXSXNXaXT.b.t.3.>.                                                                                                  ",
"          #.m.JXGXGXGXDXhXsXU.i.$.>.,.                                                                                                ",
"        *.%.n.FXGXGXGXGXFXjXT.g.$.>.,.                                                                                                ",
"        =.m.dXFXGXGXGXGXGXMXT.J.u.4.<.                                                                                                ",
"        j.wXGXGXGXGXGXGXGXmXaXR.J.r.4.>.                                                                                              ",
"      #.z.nXGXGXGXGXGXGXGXDXNXsXK.a.4.:.                                                                                              ",
"    >.$.n.BXGXGXGXGXJXGXGXGXSXgXK.g.5.<.>.                                                                                            ",
"    >.z.uXSXGXGXGXGXGXGXGXGXDXgXR.U.g.5.=.,.                                                                                          ",
"  &.4.J.sXNXDXGXGXGXGXGXGXGXHXBXjXpXv.9.=.,.                                                                                          ",
":.4.u.H.pXpXhXDXGXGXGXGXGXGXGXGXVXrXJ.r.3.>.                                                                                          ",
">.7.v.U.R.R.iXhXDXGXGXGXGXGXGXGXDXuXU.b.u.3.>.                                                                                        ",
">.j.Y.gXjXrXE.iXmXGXGXGXHXGXGXGXDXhXaXT.i.$.>.,.                                                                                      ",
">.8.Y.VXSXgXE.T.hXGXGXGXHXGXGXGXGXSXNXT.g.$.&.,.                                                                                      ",
">.7.v.yXSXVXgXiXuXBXHXGXGXGXGXGXGXGXNXT.J.u.4.<.                                                                                      ",
">.3.r.f.tXSXVXuXT.uXAXGXGXGXGXGXGXGXmXaXpXJ.r.4.>.                                                                                    ",
"  <.3.0.d.tXSXBXuXrXBXGXGXGXGXGXGXGXDXVXsXH.y.4.:.                                                                                    ",
"    >.-.0.d.tXSXNXhXmXBXAXHXGXGXGXGXGXFXgXU.g.5.<.>.                                                                                  ",
"      >.3.0.d.tXSXBXhXuXuXmXFXGXGXGXGXFXgXR.U.c.5.=.>.                                                                                ",
"        >.3.0.d.tXSXNXuXT.uXmXJXGXGXGXJXmXjXpXJ.r.=.:.                                                                                ",
"          >.-.0.d.tXSXVXuXT.uXBXGXGXGXGXGXVXpXK.g.7.>.                                                                                ",
"            >.-.9.d.tXSXVXuXrXmXGXGXGXGXGXVXrXE.H.g.6.<.                                                                              ",
"              >.-.0.d.qXmXgXrXmXGXGXGXGXGXBXhXgXrXJ.y.&.p                                                                             ",
"                >.-.0.f.qXiXuXDXGXGXGXGXGXJXSXFXBXP.p.&.p                                                                             ",
"                  >.-.u.H.aXVXGXGXGXGXGXGXGXGXGXGXnXn.8.-.                                                                            ",
"                    >.6.J.hXGXGXGXGXGXGXGXGXGXGXGXGXnXd.$.&.                         ...B.V.S.C...)                                   ",
"                      >.j.I.mXGXGXGXGXGXGXGXGXGXGXGXmXf.$.:.                      | { _ ] ..A.C.V...)                                 ",
"                        :.u.P.MXGXGXGXGXGXGXJXHXGXGXBXqXi.3.>.                  @. .[ r r `  .A.S.C...)                               ",
"                        :.5.i.H.hXGXGXGXGXGXGXGXGXGXGXBXI.u.4.:.                V.B. .` r r {  .A.C.V...)                             ",
"                          =.$.e.H.MXGXGXGXGXGXGXGXGXGXGXyXg.%.a                 A.A. .` r ` { { | B.C.S.Z.+.                          ",
"                            =.$.i.H.hXGXGXGXGXGXGXGXGXGXdXf.5.:.                 .} r t r [ } [ [ ..S.kXKX5X_                         ",
"                              =.$.i.H.hXGXGXGXGXGXGXGXGXDXwXc.7.=.              / t q q t ` [ ..B.A.kXhXkXG.N.)                       ",
"                                =.$.e.H.MXGXGXGXGXGXGXGXGXFXP.q.;.p             } _ t t { _ ) ] N.A.5X5XZ.B.B.] r                     ",
"                                  =.$.i.H.MXGXGXGXGXGXGXGXSXI.p.;.p             F.A.O.@.G. .t e d _ s u ) X.@.} r                     ",
"                                    <.$.i.H.hXFXGXGXGXGXGXJXnXn.u.-.            9XD.D.F.D.@._ q 0 q t / `  .o.}                       ",
"                                      =.$.g.Y.mXGXGXGXGXGXGXGXdXv.$.*.          o.@.F.D.@. .} ` t w / | O.O.                          ",
"                                        =.u.J.MXGXGXGXGXGXGXGXmXb.q.*.          ( } A.G.O.} }  .[ r r s                               ",
"                                          1.x.fXFXGXGXGXGXGXGXBXI.s.6.>.        ( ` }  . .} [ { ` r q *                               ",
"                                            1.x.uXSXGXGXGXGXGXGXAXqXx.6.>.      o.} ` / ` } { 9 * w w 0 3                             ",
"                                              ;.z.tXDXGXGXGXGXGXGXhXJ.8.:.        o.` w 0 e 9 o $ y K K G m                           ",
"                                                2.x.uXSXGXGXGXGXGXNXP.8.:.              o o o o $ H ! ].].W b                         ",
"                                                1.z.U.uXAXGXGXGXGXFXdXz.4.*.            : 6 3 o o 1 S W ].].T b                       ",
"                                                1.k.J.U.fXVXSXSXGXGXBXn.9.#.:.          F R m : 1 8 7 m T #X].G 6                     ",
"                                                  1.k.H.U.iXuXMXFXGXSXqXs.;.a           Q m x Q.%X8X{.l A W ].W S 6                   ",
"                                                    1.k.v.h.K.gXSXGXGXBXqXz.2.          [.b M OX:X<X`.c # 6 W ].L b 6                 ",
"                                                      >.4.a.h.iXSXGXGXGXVXY.u.;.        #XK U +X-X+XQ., o o 7 ! Q S 6                 ",
"                                                        &.4.r.J.gXFXGXGXSXqXs.*.        #XK E _.oXW.x - o o % T ].D 8                 ",
"                                                          <.3.y.H.NXGXGXNXY.x.6.<.      P P E ^.Q.M , - X o o D ].G b                 ",
"                                                            <.4.u.qXGXVXaXiXU.x.6.>.    J P E Z B x f l k - o 4 Q ].G n               ",
"                                                              &.4.M.eXuXaXjXuXv.%.#.    S P XXZ N N B '.*XG o $ G ].W b               ",
"                                                                <.4.y.h.yXFXwXy.%.1.    7 P XXZ c x W.,XvX3X% o 7 ].W b               ",
"                                                                  &.%.q.eXJXeXt.m.      2 H F 1 + @ x `.1X,XI + % Q Q b               ",
"                                                                    #.%.c.nXcX2X        $ S 7 o o o < !.@X@X/.- O L ! F b             ",
"                                                                                GXbX    $ 4 2 o X - k W.oXOXW.@ o D ! Q F 6           ",
"                                                                                bX{.g > 3 4 * ; C !.M k C !.x X o 6 Q ].G 6           ",
"                                                                          GXGXZX}.f z E +.J l !.@XOXl X , x , o o 3 W ].G 6           ",
"                                                                                }.U l.rXkX%XoX@X@XQ.+ o X @ + o o 3 T ].G 6           ",
"                                                                                0X4X0XE.0X>X-X:X`.5 @ @ X o o o o 2 T ].R b           ",
"                                                                          |.4XrXaX0X~ i Y ~.;XvX3Xv N M - o o o o 3 T ].W F           ",
"                                                                           X&X0XaXL.m = = g U *X*X^.W.k + o @ - 2 b G R L             ",
"                                                                           X|.6XuXL.i > = o + v ).!.l X o @ < z b G F S               ",
"                                                                           X|.&XtXL.i c A % o g N f X o + - - 3 F L F 6               ",
"                                                                           X|.&X4XL.~ .X&XU > > @ o o @ ; @ o * y J S n               ",
"                                                                             X X*X6XbXZXCX1X!.= o o @ ; @ o o w t y 2                 ",
"                                                                               X&XbXHXGXGXCX1X5 o % 1 : X o % u u O o                 ",
"                                                                                cXGXGXGXGXHXlXF 4 S 6 % $ 2 D Q H $ X 3               ",
"                                                                                      GXHX7XE n D H 7 % % 6 G W L D 6 3               ",
"                                                                                        ZX}.< 1 7 S 6 2 % 2 7 H ].6X$XG 6             ",
"                                                                                          6Xm 3 2 3 7 7 2 % 2 F $XxXxX].S 4           ",
"                                                                                          $XW 6 8 7 7 7 S D S H ! 8X3XW y 4           ",
"                                                                                          ].W D G T D b T ].! F b n S y               ",
"                                                                                          D H R Q Q T L T W H n l M l                 ",
"                                                                                          1 D ! ].W W G 7 3 3 1 k Q.                  ",
"                                                                                          , A ! ! H S 2 o - k f                       ",
"                                                                                          l l m G y O o X , M                         ",
"                                                                                        V k k V v % o o @ k C     (.OX+X+XOX          ",
"                                                                                      Q.Q.x x /.~.l o o - c W.(.OXQ.x l l M /.        ",
"                                                                                    W./.!.x V +X@XC + o ; x B Q.C , X o o + x /.      ",
"                                                                                  C ~./.C , V @X-X/.@ o f V k ; + o X @ - + + x /.    ",
"                                                                                B Q.Q.V ; @ V +X-X/.@ @ V C ; o o o X - ; @ + @ x /.  ",
"                                                                                N M k @ o X Z =X-X/.@ - I V + o o o o X X + - + + x ~.",
"                                                                                @ @ X o o X U zX<X).@ @ M k X @ ; X       o + @ @ ; , ",
"                                                                                o o o o o X E lX<X^.@ X f , ; f k           o @ < @ o ",
"                                                                                < - o o o + I =X=XC + o ; c M B                       ",
"                                                                                  , - + + ; C oXoXx X o + x !.                        ",
"                                                                                    , < , c W.(.(.B + o o l /.                        ",
"                                                                                                OX!.; o o ; Q.                        ",
"                                                                                                  !., o o X > W.                      ",
"                                                                                                  C c @ o o + V /.                    ",
"                                                                                                  M C c X 9 ^ &X,X                    ",
"                                                                                                    /.B + y 7XZXZX                    ",
"                                                                                                    _.Q.@ O ^ KXSX                    ",
"                                                                                                      !., o & }.CX                    ",
"                                                                                                        Q.; o Z <XCX                  ",
"                                                                                                        OXx o > `.KX7X                ",
"                                                                                                        _.B + o 8 lXzX^.              ",
"                                                                                                          ~.x o % %X:XOX              ",
"                                                                                                            ~., @ C ;X;X).            ",
"                                                                                                            (.C = @ ~ lX%XN           ",
"                                                                                                            OX/.h o s KX6XV           ",
"                                                                                                              +XI 8 ^ 7X*XN           ",
"                                                                                                            -X<XlX5X+.^ z f           ",
"                                                                                                            +X<XCXbX^ o - N           ",
"                                                                                                            V `.,X{.2 o c /.          ",
"                                                                                                            + f g - o o l C           ",
"                                                                                                            o o o o o o o X           ",
"                                                                                                            o o o o o o o o           ",
"                                                                                                            o o o o o o o o           "
};
