/* XPM */
static char *luke_111[] = {
/* columns rows colors chars-per-pixel */
"46 127 256 2 ",
"   c None",
".  c #010101",
"X  c #01040B",
"o  c #0A0607",
"O  c #16080A",
"+  c #010413",
"@  c #030A14",
"#  c #020C1B",
"$  c #080A18",
"%  c #180D17",
"&  c #1A1318",
"*  c #131312",
"=  c #26151D",
"-  c #2F1408",
";  c #000C24",
":  c #021224",
">  c #01132B",
",  c #07182D",
"<  c #161329",
"1  c #031A34",
"2  c #021C3B",
"3  c #071835",
"4  c #111230",
"5  c #291A2B",
"6  c #291C35",
"7  c #331730",
"8  c #08233C",
"9  c #2B213A",
"0  c #37253A",
"q  c #2F2C2F",
"w  c #3E2009",
"e  c #551A00",
"r  c #4B1300",
"t  c #582704",
"y  c #48230D",
"u  c #682904",
"i  c #773707",
"p  c #6D320F",
"a  c #4A3532",
"s  c #64382B",
"d  c #6E1701",
"f  c #106F2F",
"g  c #1B5D36",
"h  c #544533",
"j  c #675C26",
"k  c #011D42",
"l  c #001D4C",
"z  c #0F1D4B",
"x  c #022245",
"c  c #02234C",
"v  c #06264A",
"b  c #022A55",
"n  c #012B5B",
"m  c #032556",
"M  c #162F52",
"N  c #392947",
"B  c #2E3453",
"V  c #012C62",
"C  c #012B6A",
"Z  c #043164",
"A  c #01336B",
"S  c #0A356B",
"D  c #013572",
"F  c #013A73",
"G  c #003C7B",
"H  c #053775",
"J  c #0E356F",
"K  c #393867",
"L  c #21396F",
"P  c #230B52",
"I  c #462D47",
"U  c #49314D",
"Y  c #4B3757",
"T  c #54395A",
"R  c #56334B",
"E  c #573C64",
"W  c #493768",
"Q  c #643C5C",
"!  c #27564C",
"~  c #03427E",
"^  c #174878",
"/  c #35546D",
"(  c #2B6157",
")  c #544549",
"_  c #6E4C54",
"`  c #5B4368",
"'  c #504A71",
"]  c #66446A",
"[  c #6B4D7C",
"{  c #694976",
"}  c #724E79",
"|  c #774F73",
" . c #757B41",
".. c #88360B",
"X. c #993F27",
"o. c #89470C",
"O. c #884618",
"+. c #954716",
"@. c #955611",
"#. c #A54E18",
"$. c #9B6917",
"%. c #AB7217",
"&. c #91522A",
"*. c #A75928",
"=. c #AF5A2E",
"-. c #B56F32",
";. c #C15834",
":. c #C36837",
">. c #C97931",
",. c #905956",
"<. c #B36B4D",
"1. c #8D736F",
"2. c #98685D",
"3. c #CB774D",
"4. c #E47957",
"5. c #06931A",
"6. c #06A81D",
"7. c #11B31C",
"8. c #008E2D",
"9. c #008C27",
"0. c #009324",
"q. c #009A25",
"w. c #00932A",
"e. c #009929",
"r. c #008735",
"t. c #008A32",
"y. c #008A39",
"u. c #039438",
"i. c #0EAE20",
"p. c #05A128",
"a. c #14B122",
"s. c #19B327",
"d. c #1BB336",
"f. c #10AA30",
"g. c #21B42F",
"h. c #23B635",
"j. c #3BB52D",
"k. c #279927",
"l. c #1DC71C",
"z. c #2EC531",
"x. c #2DC831",
"c. c #31C435",
"v. c #3BCF3C",
"b. c #30CF2C",
"n. c #20C423",
"m. c #42D63B",
"M. c #4DCD37",
"N. c #5DF038",
"B. c #28A74E",
"V. c #48B348",
"C. c #61B176",
"Z. c #50D14B",
"A. c #7EDF77",
"S. c #7BDB7E",
"D. c #63D66A",
"F. c #78EE70",
"G. c #5FE44C",
"H. c #B4862B",
"J. c #80993D",
"K. c #C88931",
"L. c #CFA734",
"P. c #A59659",
"I. c #D18C53",
"U. c #D5906C",
"Y. c #F39874",
"T. c #CEA971",
"R. c #E5A15D",
"E. c #83E07C",
"W. c #80FF6D",
"Q. c #80DF79",
"!. c #003D89",
"~. c #302A91",
"^. c #024384",
"/. c #00458B",
"(. c #03488B",
"). c #174B89",
"_. c #014B93",
"`. c #024A98",
"'. c #00519C",
"]. c #0B5093",
"[. c #175394",
"{. c #2A5492",
"}. c #0154A4",
"|. c #0258AB",
" X c #015DB3",
".X c #0459B7",
"XX c #0147A4",
"oX c #0161BB",
"OX c #3975B1",
"+X c #3B6793",
"@X c #775588",
"#X c #6D528F",
"$X c #446389",
"%X c #54718E",
"&X c #4D72AA",
"*X c #625C90",
"=X c #0059C4",
"-X c #0365C8",
";X c #036DD8",
":X c #0874DB",
">X c #1973CC",
",X c #0B77E4",
"<X c #077BF7",
"1X c #2E7BC7",
"2X c #4132AA",
"3X c #845B91",
"4X c #897994",
"5X c #8474CF",
"6X c #6C8D90",
"7X c #6FAD93",
"8X c #728EAF",
"9X c #508A9D",
"0X c #75D681",
"qX c #0F8AF8",
"wX c #37A4FF",
"eX c #3490E5",
"rX c #4A8DCC",
"tX c #74A5D3",
"yX c #4AACFF",
"uX c #76B5ED",
"iX c #5498DC",
"pX c #5AC1FF",
"aX c #8D8F8F",
"sX c #A5998F",
"dX c #8492AC",
"fX c #A0ABB8",
"gX c #C9AF98",
"hX c #D3ADA5",
"jX c #8FE389",
"kX c #89E283",
"lX c #95EA8B",
"zX c #A4F593",
"xX c #A4EC97",
"cX c #BCF9AA",
"vX c #BFF2B4",
"bX c #B0E8B6",
"nX c #86D39A",
"mX c #D7C8B7",
"MX c #C0F2B6",
"NX c #C4F3BC",
"BX c #C2FCAE",
"VX c #DAC69E",
"CX c #ABB5CB",
"ZX c #91BCE3",
"AX c #93AFCB",
"SX c #C6BBC5",
"DX c #AED3E3",
"FX c #D4D7E2",
"GX c #EDDCFF",
"HX c #CCECF9",
"JX c #F7FFED",
"KX c #FCFFF4",
"LX c #FDFEFD",
"PX c #F4F2F6",
"IX c #EDFCE9",
"UX c #D4DECD",
/* pixels */
"y.u.d.x.b.x.f.u.t.                                                                          ",
"y.u.d.b.b.x.f.y.y.                                                                          ",
"y.u.d.m.G.v.f.t.y.                                                                          ",
"t.w.d.kXcXD.p.8.y.                                                                          ",
"t.w.h.bXLXnX6.8.y.                                                                          ",
"t.w.h.bXLXnX6.8.y.                                                                          ",
"t.w.d.bXKX0X6.8.y.                                                                          ",
"t.w.h.bXKXS.6.8.y.                                                                          ",
"t.w.h.NXKXS.6.8.y.                                                                          ",
"t.e.x.NXKXE.7.8.y.                                                                          ",
"t.e.x.NXKXA.i.8.y.                                                                          ",
"t.e.x.NXKXA.i.8.y.                                                                          ",
"t.e.x.NXKXA.i.8.y.                                                                          ",
"t.e.x.NXKXA.i.8.y.                                                                          ",
"t.e.x.NXKXA.i.8.y.                                                                          ",
"t.e.x.NXKXA.i.8.y.                                                                          ",
"t.e.x.NXKXA.i.8.y.                                                                          ",
"t.e.x.NXKXA.i.8.y.                                                                          ",
"t.e.x.NXKXA.i.8.y.                                                                          ",
"t.e.x.NXKXA.i.8.y.                                                                          ",
"t.q.x.NXKXE.a.8.y.                                                                          ",
"t.q.x.NXKXE.s.8.t.                                                                          ",
"t.q.c.NXKXkXs.8.t.                                                                          ",
"t.q.c.NXJXkXs.8.t.                                                                          ",
"t.q.c.MXJXkXg.0.r.                                                                          ",
"t.q.c.MXJXjXg.0.r.                                                                          ",
"t.q.c.MXJXjXg.9.r.                                                                          ",
"t.q.c.MXJXjXg.0.r.                                                                          ",
"t.q.c.MXJXjXg.0.r.                                                                          ",
"t.q.c.MXJXjXg.0.r.                                                                          ",
"t.q.c.vXKXjXs.9.t.                                                                          ",
"t.q.c.vXKXjXs.9.t.                                                                          ",
"t.q.c.vXKXkXs.0.t.                                                                          ",
"t.q.c.MXKXkXi.w.t.                                                                          ",
"t.q.c.NXKXE.7.w.t.                                                                          ",
"t.q.c.NXKXE.7.0.t.                                                                          ",
"t.e.x.NXKXE.i.0.t.                                                                          ",
"t.e.x.NXKXQ.s.0.t.                                                                          ",
"t.e.x.NXKXE.s.0.t.                                                                          ",
"t.e.c.NXKXE.s.0.t.                                                                          ",
"t.e.c.NXKXkXs.0.t.                                                                          ",
"t.e.c.NXKXkXs.0.t.                                                                          ",
"t.e.c.NXKXkXs.0.t.                                                                          ",
"t.e.c.MXKXkXs.0.t.                                                                          ",
"t.e.c.MXKXkXs.0.t.    >.K.T.mXSXSXSXVXL.%.o.                                                ",
"t.e.c.MXKXjXs.0.t.  J.K.%.-.P.P.2.<.I.L.L.H.O.                                              ",
"t.e.c.MXKXlXs.0.t.  J.>.#.o.$.%.@.+.#.-.L.L.@.p                                             ",
"t.e.c.vXKXlXs.0.u.   .=...u i %.%.@.&.<.I.K.$.i                                             ",
"t.e.v.cXKXlXs.0.u.  j ..d r u o.%.H.P.gXgXK.%.$.                                            ",
"t.e.v.cXKXzXl.q.t.  j O.d p O.O.o.$.T.mXmXU.I.-.O.                                          ",
"t.p.m.cXKXzXl.0.t.  J.3.;.<.I.=.i u &.U.mXmXT.-.o.                                          ",
"t.p.m.cXKXzXl.0.t.  P.Y.Y.Y.Y.3.O.e e i 2.gXT.-.o.                                          ",
"r.p.m.cXKXzXl.0.8.   .I.Y.Y.U.<.*...u e p &.H.K.@.                                          ",
"r.p.m.cXKXzXl.q.t.  j =.4.U.3.*.*.*.+.u r t @.%.@.                                          ",
"r.p.m.cXKXzXl.q.t.  j +.;.:.-.*.*.-.=.i e e i i p                                           ",
"t.p.m.BXKXzXn.q.t.   .=.#.+.+.*.:.3.=.i t i ..p q                                           ",
"t.p.m.BXKXzXn.q.t.    :.X.y w t &.<.2._ s s &._ B m                                         ",
"8.p.b.cXJXlXl.5.t.        % . . = T } ] T R ] 3X#XK k                                       ",
"t.5.n.xXIXA.6.5.8.        6 4 4 < 6 6 < $ 5 E 3X@XK m k                                     ",
"f w.Z.NXKXbXB.9.9.      7 I E E N $ o & * : B { ] K J V c                                   ",
"  B.bXLXLXIXnXB.        7 T } ` 6 > ! aX6X^ n N U ` *XL n x                                 ",
"    FXGXGXGXDX          7 E } Y 3 l +XZXuX>Xn < I | } B c m m                               ",
"    dX5X5X5X7X          < E } Y 3 l ).1XqX:Xm O R 3XQ = # l n v                             ",
"  M./ ~.2X~.( N.        < E [ N # > n !.-X.X2 O Q 3XT O . # x n                             ",
"D.V.( / %X( f j.xX      0 Y E 6 X + 1 V `./.> O Q 3X` & . . > V                             ",
"7XC.V.G.G.Z.k.f 6XFX      0 N z 3 > 2 n G V # O R @X[ 5 . . > V                             ",
"7XC.V.j.M.N.m.( *X4X        7 ' %X{.A D D m @ . 7 { @XU o . > V                             ",
"Z.V.! 8 g M.F.7XK %         I aXCXrX/.C C n # . % T @X` = . : V                             ",
"5.g L P 8 j.W.nXB .         ).rXuX1XA 3 c n > . O Y @X{ 5 . ; V                             ",
"B ' &X{.M k.Z.6XM 4         =X:X,X}.2 . : k ; . % Y @X[ 0 . # V                             ",
"CXCX8X&X/ ! g M V ).CXHXpX;XXX|..X!.k # # + . . & I { @XT O # V                             ",
"LXSX%X$XdXdX' 3 2 J 8XtXOX!.C !./.m c Z 2 X . . o & N [ { 5 # 2                             ",
"    / %XFXPXCXB + # M M 3 @ > n m > c (.Z $ . . . . * Y @XY % X                             ",
"    dXCXPXLXHXOX> . + ; X . X # > c A A M 5 O . . . X N @X` % .                             ",
"    PXLXLX    eXC # ; k > @ X . @ n V : & 9 < + X X $ W #XW < .                             ",
"                `.l k A ~ F k o X # ; . . % 9 N N 9 N { #XW a y                             ",
"                  C n G |..X]./ ) O . O - - a _ ,._ _ _ | 1.,.O.                            ",
"                              6XsX_ y t i i i &.-.=.O.i *.U.U.*.                            ",
"                              a 1.sX1.O...u e t o.o.t t @.R.I.#.                            ",
"                              . q aXsXs r - . - s s 7 y &.:.*.i                             ",
"                              l S / _ a = O $ 9 ` ] ` ` ,.&.i w                             ",
"                              (.).B U E E N 9 N Y [ #X#X| s y 0                             ",
"                            H J B E { @X@X[ T 0 9 Y @X3X[ U I `                             ",
"                          !./.v 5 R { [ { [ [ T 0 0 T [ @X{ ` `                             ",
"                        H _.(.8 . = N 0 9 0 T ] T U Y ` [ [ E N                             ",
"                      F _.].M $ . O = O . . % 7 U E ] E Y Y I                               ",
"                    H /.}.~ < . . . O . . X + X % I ] ] R 0                                 ",
"                  H /.}._.Z 3 o . . . * < 2 c k @ % I ] `                                   ",
"                F /.}._.A k # X . . @ 8 3 3 c Z n x z K K                                   ",
"              H /.}._.Z k # . . . . 3 n x @ @ n '.}.!.H S                                   ",
"            H (.'._.A 2 @ . . . . # c A n # . : G -X;X.X!.A                                 ",
"          G /.'._.Z 2 @ . . . . @ 3 n H A k X . > !.,XyXOXJ                                 ",
"          |.}./.Z 2 @ . . . . # 3 v m   H n # . . 3 ).AXCX$X                                ",
"          -X|.A 3 @ . . . . # 2 v v       V 2 @ . X v %XfXfX$X                              ",
"          .X_.c @ . . . . X ,               G x . . > m $XCX8XL                             ",
"          ^.Z : . . . . @ ,                 .XF # . > 1 J &XOXJ                             ",
"          A k . . . . @ Z (.                ;X'.2 @ # 2 V !.[.$X                            ",
"          A k X . . . 2 |.:X                  }.Z ; X > n D &XfX%X                          ",
"            m 3 2 m F ^._.|.                    m ; . X > n &XuX9XS                         ",
"              V G |.,X.X2 > ^.                  v : . . . c -XqX.Xn                         ",
"                G }.;X}.: . 3 (.                ^.x . . . c =X<X.XV                         ",
"                  H `.'.m X . 2 _.              oX~ 3 . . > ^.-X-X/.                        ",
"                        }.m X . 2 _.              oX(.> . . 3 ^.;X;X/.                      ",
"                          _.3 . . 8 (.              |.x . . + n -XqX;X_.                    ",
"                            V > o . 2 (.              m o . X 2 G -X<X-XH                   ",
"                              F n X . 3 ~             _.c X . . : F -XoXH                   ",
"                              }.'.c . . n .X          oX_.2 @ > 2 x F _.!.                  ",
"                              .X.XG # . x }.            '.A G |.`.m 3 J -X                  ",
"                                .X}.n X . m '.            G ^..XoXH # B tXyX                ",
"                                  .XF o . : ^.-X            c b ^.G 2 h sXZXwX              ",
"                                  oXF X . k `.                > x A F M h sXZXyX            ",
"                                  ;X^.o . k                     3 c H A b _ aXrX<X          ",
"                                  qX}.@ . @                       > : V XX^ 0 L -X<X        ",
"                                qXqX}.# .                           . : G /.l > / tXyX      ",
"                              :X:XoXA X                               . # m C 1 a sXuXqX    ",
"                              m c 2 #                                   . # x V B ) $X,X    ",
"                                . .                                       . X H D + M rX    ",
"                                                                            + G D + a fX    ",
"                                                                              rX/ X q 8X    ",
"                                                                                gXh , [.,X<X",
"                                                                            wXHXJXgX' C XX-X",
"                                                                          -X>XtXHXHX6X8 l G ",
"                                                                          m Z [.eXyX{.@ + 2 ",
"                                                                          X @ 3 D !.k . @ 3 ",
"                                                                          . . . . . . .     ",
"                                                                          . . . . . . .     ",
"                                                                          . . . . . . .     "
};
