/* XPM */
static char *luke_89[] = {
/* columns rows colors chars-per-pixel */
"47 101 245 2 ",
"   c None",
".  c #010102",
"X  c #0C0303",
"o  c #01040B",
"O  c #09080C",
"+  c #150A0A",
"@  c #020A14",
"#  c #010D1C",
"$  c #040715",
"%  c #150D12",
"&  c #191517",
"*  c #0D1218",
"=  c #231419",
"-  c #2E1305",
";  c #2D261E",
":  c #000D24",
">  c #000C2C",
",  c #070A25",
"<  c #031224",
"1  c #03142B",
"2  c #08162A",
"3  c #181526",
"4  c #011533",
"5  c #021B34",
"6  c #021C3B",
"7  c #061939",
"8  c #0A1636",
"9  c #281B27",
"0  c #261B37",
"q  c #371E2A",
"w  c #04203F",
"e  c #14233A",
"r  c #292235",
"t  c #342334",
"y  c #38263C",
"u  c #2D2C2F",
"i  c #4E1A04",
"p  c #592604",
"a  c #76350A",
"s  c #6B3211",
"d  c #483039",
"f  c #6A3C24",
"g  c #714E32",
"h  c #011C43",
"j  c #001743",
"k  c #001F50",
"l  c #022243",
"z  c #02244A",
"x  c #092549",
"c  c #022B55",
"v  c #012A5D",
"b  c #022555",
"n  c #01315C",
"m  c #162A4E",
"M  c #3C2A44",
"N  c #372947",
"B  c #3A3445",
"V  c #283050",
"C  c #002A66",
"Z  c #033464",
"A  c #01346B",
"S  c #06386B",
"D  c #013C74",
"F  c #033877",
"G  c #0B3672",
"H  c #2C1E4C",
"J  c #442D46",
"K  c #46324B",
"L  c #4B3553",
"P  c #4A3557",
"I  c #523A5C",
"U  c #5B3A59",
"Y  c #55324C",
"T  c #653945",
"R  c #573C64",
"E  c #483767",
"W  c #02417D",
"Q  c #0F447E",
"!  c #164373",
"~  c #2C4F76",
"^  c #007D4E",
"/  c #4E4D4D",
"(  c #6E5254",
")  c #5D4268",
"_  c #585072",
"`  c #63446C",
"'  c #644367",
"]  c #684A76",
"[  c #724E7A",
"{  c #6D6B6D",
"}  c #666A67",
"|  c #8D3D0F",
" . c #884815",
".. c #954B19",
"X. c #944E14",
"o. c #A9541A",
"O. c #9B661B",
"+. c #A56D13",
"@. c #995A32",
"#. c #975329",
"$. c #A7592B",
"%. c #A95D31",
"&. c #B96A38",
"*. c #AF6A2E",
"=. c #956321",
"-. c #C1773A",
";. c #955741",
":. c #B36A43",
">. c #AF7C77",
",. c #C87B4F",
"<. c #048516",
"1. c #00A715",
"2. c #00AC1C",
"3. c #00A916",
"4. c #11BE1D",
"5. c #06B21D",
"6. c #00872F",
"7. c #01892F",
"8. c #058822",
"9. c #008A34",
"0. c #008834",
"q. c #009132",
"w. c #009A33",
"e. c #009326",
"r. c #00A829",
"t. c #1BBC29",
"y. c #14BB22",
"u. c #0CB829",
"i. c #35BE34",
"p. c #2CBE2C",
"a. c #1CC027",
"s. c #34DC3B",
"d. c #29D12B",
"f. c #3DE23B",
"g. c #3EC81A",
"h. c #49C63E",
"j. c #48CA2D",
"k. c #47DD1F",
"l. c #008E41",
"z. c #3FE540",
"x. c #38DE40",
"c. c #43E643",
"v. c #5CED4A",
"b. c #71F552",
"n. c #7EFB59",
"m. c #7AF957",
"M. c #73F74F",
"N. c #B98A2B",
"B. c #C59537",
"V. c #C28636",
"C. c #D2AD3C",
"Z. c #A2896F",
"A. c #C98844",
"S. c #D29348",
"D. c #D5AD4B",
"F. c #EA9B74",
"G. c #E0A666",
"H. c #80FB5D",
"J. c #B5F97D",
"K. c #ACFA77",
"L. c #92F967",
"P. c #C5FF75",
"I. c #E2C476",
"U. c #003B84",
"Y. c #003D95",
"T. c #024485",
"R. c #03468A",
"E. c #024B94",
"W. c #044896",
"Q. c #06519C",
"!. c #16508A",
"~. c #014EA4",
"^. c #0254A3",
"/. c #0458AB",
"(. c #025DB3",
"). c #0457B7",
"_. c #0B53B3",
"`. c #0162BB",
"'. c #1668B6",
"]. c #3577B5",
"[. c #2B5B98",
"{. c #785587",
"}. c #775B93",
"|. c #4E6D92",
" X c #6D778C",
".X c #586DA3",
"XX c #005BC7",
"oX c #0054D8",
"OX c #0468CA",
"+X c #046BD5",
"@X c #0573DC",
"#X c #1870CD",
"$X c #257CD1",
"%X c #0878E6",
"&X c #0470F5",
"*X c #206FEA",
"=X c #887591",
"-X c #977DA4",
";X c #845C93",
":X c #0D84A5",
">X c #6B88A3",
",X c #3087DC",
"<X c #0885F8",
"1X c #138CFB",
"2X c #2C8DF0",
"3X c #6FA4CC",
"4X c #5AB5FD",
"5X c #6DAAF3",
"6X c #5394CF",
"7X c #6EC5FF",
"8X c #929190",
"9X c #AE9590",
"0X c #B3A6B2",
"qX c #AFA99C",
"wX c #D5AC92",
"eX c #F3A980",
"rX c #BAFB88",
"tX c #A1EB81",
"yX c #CAFE90",
"uX c #D6D0BC",
"iX c #DECBA2",
"pX c #8AB1D2",
"aX c #ABB5C6",
"sX c #83BAEE",
"dX c #C1BFC0",
"fX c #87C7FD",
"gX c #9AC5E8",
"hX c #B3D1F5",
"jX c #A4D9EF",
"kX c #CAFDC5",
"lX c #D1FECC",
"zX c #D9FED8",
"xX c #E7FFD4",
"cX c #E8FFD5",
"vX c #ECFFDA",
"bX c #E4F5D0",
"nX c #DADFEB",
"mX c #E5FFE3",
"MX c #EAFCE6",
"NX c #F2FFE7",
"BX c #F2FFE8",
"VX c #FEFFEC",
"CX c #F9F9E5",
"ZX c #F6F6EF",
"AX c #DADAD9",
/* pixels */
"                                                                    9.9.9.9.9.                ",
"                                                                    w.r.r.w.q.                ",
"                                                                  w.u.d.d.u.w.9.              ",
"                                                                9.r.d.M.M.d.r.q.              ",
"                                                                9.2.f.yXyXc.r.q.              ",
"                                                                9.3.f.bXxXc.r.q.              ",
"                                                                9.1.s.zXmXc.2.q.              ",
"                                                                9.1.s.zXmXc.2.q.              ",
"                                                                9.3.s.lXmXc.2.q.              ",
"                                                                9.3.s.lXmXz.2.q.              ",
"                                                                9.1.s.lXmXz.2.q.              ",
"                                                                9.1.s.lXmXz.2.q.              ",
"                                                                9.1.s.lXmXz.2.q.              ",
"                                                                9.1.s.lXmXz.2.q.              ",
"                                                                9.1.s.lXmXz.2.q.              ",
"                                                                9.1.s.lXmXc.2.q.              ",
"                                                                9.1.s.lXmXc.2.q.              ",
"                                                                9.1.s.lXmXz.2.q.              ",
"                                                                9.1.s.kXmXz.2.q.              ",
"                                                                9.1.s.kXmXz.2.q.              ",
"                                                                9.1.s.kXmXz.2.q.              ",
"                                                                9.1.s.kXmXc.2.q.              ",
"                                                                9.1.s.kXmXz.2.q.              ",
"                                                                9.1.s.kXmXz.2.q.              ",
"                                                                9.3.f.lXmXc.2.q.              ",
"                                                                0.5.v.xXmXb.u.q.              ",
"                                                                0.y.b.xXNXn.t.q.              ",
"                                                                0.y.b.xXBXn.t.q.              ",
"                                                                0.y.b.xXNXn.t.q.              ",
"                                                                0.y.b.xXNXn.t.q.              ",
"                                                                0.y.b.xXNXn.t.q.              ",
"                                                                0.4.b.xXNXn.t.q.              ",
"                                                                9.4.b.xXNXn.t.q.              ",
"                                                                9.4.b.xXNXn.t.q.              ",
"                                                                6.4.b.xXNXn.t.q.              ",
"                                                                6.4.b.xXNXn.t.q.              ",
"                                                                6.4.b.xXBXn.t.q.              ",
"                          +.D.uXnXnXnXuXG.V.&.                  6.4.b.xXBXn.t.q.              ",
"                        O.N.D.wXqX9XqXwXD.V.V.V.                6.4.b.vXBXn.t.q.              ",
"                      X.B.C.B.&.#...N.S.A.-.B.C.                6.4.b.vXNXH.a.q.              ",
"                    a O.C.D.*.|  .+.*.*.$.%.V.S.                6.4.M.vXNXn.a.q.              ",
"                     .*.B.S.*.O.+.B.-...s a ..$.                6.4.M.vXNXn.a.q.              ",
"                   .*.V.,.A.B.N.B.A.%.a i i a |                 6.4.b.vXNXH.a.q.              ",
"                  X.N.D.S.S.B.N.=.@.%.@.a a @.&.                6.4.b.vXBXn.t.q.              ",
"                   .B.D.D.A.@.s p  .,.F.,.,.F.eX                6.4.b.xXBXn.t.q.              ",
"                   .B.D.S.@.s i p ..,.F.F.F.F.F.                6.4.b.xXNXn.t.q.              ",
"                  X.V.S.%.s p a #.%.&.,.F.F.:.$.                9.4.b.xXBXn.t.q.              ",
"                  X.&.%.a p a $.%...$.,.A.:. .a                 6.4.b.xXBXn.t.q.              ",
"                  ..;.( i - i ..o.X.X.o.o... . .                6.4.b.xXBXn.t.q.              ",
"                    T P M 3 + s %.&.%. .a ..%.&.                6.4.b.xXBXn.t.q.              ",
"                    M 0 H / } ( >.wX9X( T ;.-.                  6.4.b.xXBXn.t.q.              ",
"                    M 0 B 8XaX=X=XqX=XE                         6.4.b.xXBXn.t.q.              ",
"                    R R ] -X-X) B K 9 3 E                       6.4.b.xXBXn.t.q.              ",
"                    [ ;X{.] J % . < u d d R                     6.4.b.xXBXn.t.q.              ",
"                  L [ {.` y % . > !.3X8Xd 9 R                   6.4.b.xXNXn.t.q.              ",
"                  ` {.[ K % . # U.%X4X3X~ w M Y                 6.4.b.xXNXn.t.q.              ",
"                  {.{.] t X . h ~.@X%X#X(.F 3 =                 6.y.n.vXBXL.t.q.              ",
"                  [ {.) 9 . . 6 S R.~.).~.A 5 @                 6.p.L.CXVXK.i.q.              ",
"                  R ) L & . . o * x T.E.C 4 : :                 6.i.K.VXVXrXh.q.              ",
"                  L L y & . . . o 2 C C < $ 1 x m               6.i.J.VXVXrXh.9.              ",
"                  L I L 9 + < z l # # < 1 h ! |. X~             6.i.J.VXVXrXh.6.              ",
"                  K ` ) y = e W W 5 . . 1 C '.5XgX.Xb           e.i.J.VXVXrXh.6.              ",
"                  J R R M 9 3 x F F 5 . . 4 W.,X4X,XF j         e.i.rXVXVXrXh.6.              ",
"                  M L I L t % . 5 D w . o # 6 F (.OXT.6 $       q.g.J.VXVXrXh.6.              ",
"                  M L ` [ K % . o # . < Z Z # . > C A h , b     l.g.J.VXVXrXh.8.              ",
"                  M L [ {.I % . . . . b Q.^.n # . o 6 S _ .X*XOX0.g.P.CXVXyXh.<.              ",
"                  y K ] {.I & o o @ 4 v A R.^.R.z o > !.3XhX5X'.^ p.tXMXCXP.j.<.              ",
"                  9 y ) {.U r 6 b z 6 : # 5 W /.E.b h R.,XfXhX3X'.:X                  8Xe     ",
"                  9 t I [ ` N x C b # . . . 5 R.(.A : j W.,XsXhX5X1X                hX6XS     ",
"                  r y K ) ` J 3 : # . o # @ @ A ^.b . . 4 Y.,XfXhX5X&X&X&X          2X#X~.    ",
"                  H H N I ` J + . . . 6 F n 1 5 Z n < . . > Y.,XsX3X#X).oX&X        ).F G     ",
"                    e x P ` K % . . o b Q.R.w o 1 D Z # @ $ 6 F !.Q b k Y.@X5XAX    V o &     ",
"                    & # N [ ) 9 . . . 5 A Z 1 o # 6 n F F b # o $ $ . . v OX'.{ uXuX/ . & Z.CX",
"                    - o N {.{.I 9 o . . : , . o @ $ 6 E.(.T.5 o @ # o . w XXU.& { 8Xu . & 8XZX",
"              J :.%.- $ N ` [ [ E 2 . . : # . . o 4 C U.F D F W T.R.b o l OXY.$ + ; O . & 8XnX",
"              M g f + . 3 9 y J 0 3 B } } g - X o V [.W.F T./.`.^.E.W b R.+XR.@ . . . . % { 0X",
"              M t = . . . . . O . 2  XuXI.N.a - = I .X_.^./.`.Q.Z x x T.`.`.Z o . . . . O L }.",
"              y 0 3 3 3 9 9 = X # Z .X9XZ.@.f d Y U B Q T.T.W Z 7 2 7 D E.W 6 . . . . . o H   ",
"              M M M y K R R d = x R.G r 9 y P ] ) t % 1 l x 7 1 1 7 x x l 5 O X X % u u =     ",
"              M L K t M ) ) d 9 r m 1 . o N ] ` y O . . < 8 @ . o 1 x x : . - i i / 8X9X;.    ",
"              M L K 9 9 J R L r = = X O t ) [ L & . . . @ < o . . o < 1 $ . p X.| g 9XwX,.    ",
"              M I L 9 + 9 L ` P t 9 9 J R ` L r % . . . . . . . . . . . o 4 ( &.o.a f @.      ",
"              M I L 9 . . 3 I ] ] ` ] ' J q 9 & O . . . . . . @ o . . . j Q. X                ",
"              M K K 9 O . % K ] [ [ [ R 3 o X X . . . . . # b F Z 6 < 4 W.%X                  ",
"              t t t M t 0 J U L t 9 0 m A v 1 . . . o < < x /.+X`.^.Q.E.XX                    ",
"                = y ` {.] U d = . o 4 !.6X6X!.1 @ 5 z 5 # w W R.W /.@X+X                      ",
"                  J ] ;X{.B % . . $ C ].gXfX$XF b W F < . o @ o @ Z (.                        ",
"                  q y d N n l @ . o z [.3X4X1XXXU.Z w . . . # 5 l A                           ",
"                $ X X . o b F l # @ # 6 Q $X2X1X^.5 . . . < F /./.                            ",
"    AXVXhX2XXXC 1 # o . . @ 6 b A D 5 . > |.gX7X'.4 . . < W `.                                ",
"  / qXdXpX,X+X_.|._ ! 4 o . o 4 T.Q.z . o _ aX7X#X6 . @ F (.                                  ",
". < V ~ !.(.XX$XpXaX].W.C v 6 : l A 6 o $ m ].2X#X4 @ F `.                                    ",
". o > C Y.Y.F G } >X,X&X%XOXE.z < 1 4 1 # : A +X+Xb z OX<X                                    ",
". o 4 A Y.C > o X e ^.%X@X`.Q.A 1 @ 6 z @ . 6 /.+XQ.R.+X<X                                    ",
". o 4 b b j 6 b v k h l z l 5 < O % e l o . < T.OX+X(.^.+X%X                                  ",
". > C ~ } { [.OXOXE.6 o o . . . X % x z # . * F +X<X+XU.E.OXOX                                ",
"o v $XpXAXuX3X      E.W F z # . . . 6 v z 2 7 Q.<X1XOXA b U.^.OX<X<X                          ",
"O ~ fXjXgX8X_             Q.F b 5 @ : h v Z R.%X1X%XR.6 # < l F ^./.                          ",
"+ } aX3X!.2 X               (.(.R.6 . o h F ^.OX@X^.l . . . . @ 5                             ",
"X ; / V : . .                           @ 5 z b Z A                                           ",
". . . . . . .                           . . . . #                                             "
};
