/* XPM */
static char *misc_1[] = {
/* columns rows colors chars-per-pixel */
"100 100 26 1 ",
"  c #000000",
". c #060609",
"X c #0A0B0F",
"o c #0C0D12",
"O c #0F1116",
"+ c #101117",
"@ c #16181F",
"# c #171820",
"$ c #1D1F28",
"% c #1F212A",
"& c #21232E",
"* c #252733",
"= c #262835",
"- c #282A37",
"; c #2A2D3A",
": c #2D303F",
"> c #2F3242",
", c #313445",
"< c #323748",
"1 c #333849",
"2 c #383D4F",
"3 c #373C50",
"4 c #383D50",
"5 c #3E4357",
"6 c #3E4359",
"7 c #40455C",
/* pixels */
"4444444444444444444444444444444444444444444444444444444444444444444444444444444444444444444444444444",
"4444444444444444444444444444444444444444444444444444444444444444444444444444444444444444444444444444",
"4444444444444444444444444444444444444444444444444444444444444444444444444444444444444444444444444444",
"4444444444444444444444444444444444444444444444444444444444444444444444444444444444444444444444444444",
"4444444444444444444444424444444444444444444444444444444444444444444444444444444444444444444444444444",
"4444444444444411111111<<1111111111111111111111111111111111111111111111111111111111111144444444444444",
"444444444444445,:::::::;::::::::::::::::::::::::::::::::::::::::::::::::::::::::::::>454444444444444",
"4444444444444467:**&*********************=;;;=**;;;;=*=;;;;=***********************=4744444444444444",
"44444444444444477*$@#$$$$$$$$$$$$$$$$$$$$*****$$****&$%****%$$$$$$$$$$$$$$$$$$$$$$%17644444444444444",
"444444444444444477$###$$$$$$$$$$$$$$$$$$$*****$%****&$&****%$$$$$$$$$$$$$$$$$$$$$$<76444444444444444",
"4444444444444444476*$$$%&&&&&&&&&&&&&&&&&;;;;;&*;;;;=&*;;;;*&&&&&&&&&&&&&&&&**&&*1761444444444444444",
"44444444444444444577*$$$*****************;>>>:*=>>>>;*;>>>>=********************17744444444444444444",
"444441144444444444577=$$$****************;>>>:*=>>>>;*-:>>>=******************=176444444444441<44444",
"444441>144444444444576*$$$***************;>>>:*=>>>>;*-:>>>=******************177444444444441,,44444",
"444441>>144444444444576=$$$**************;>>>:*=::>>;*;>>>>=****************=176444444444441,><44444",
"444441>>>144444444444577&$$$*************;>>>:*=:>>>;*;>>>>=****************177444444444444,>,644444",
"444441>;:>144444444444574&$$$************;>>>:**::::;*;>>>>=**************=176444444444441,>;7644444",
"444441>**:>144444444444477=$$$&**********;>>>:**::::;*;>>>:=*************=476344444444441,>;&7644444",
"444441>=$*>>144444444444577*$$$**********;:::;**::::;*-::::=*************176444444444442,>;$&7644444",
"444441>=$$->>144444444444577=$$$&********=====**====***====*************176444444444441,>;$$&7644444",
"444441>=$$*;>>144444444444577*$$$**************************************177444444444442,>;$$$*7644444",
"444441>=$$**->>144444444444577=$$$************************************176444444444441,>;$$$&=7644444",
"444441>=$$***;>>144444444444577&$$$&*********************************177444444444441,>;%$$&*;7644444",
"444441>=$$****->>144444444444576&@@@$$$$$$$$$$$$$$$$$$$$$$$$$$$$$$$$<77444444444441,>;$$$&**;7644444",
"444441>=$$*****=:>144444444444477&@@@$$$$$$$$$$$$$$$$$$$$$$$$$$$$$$276444444444441,>=$$$&***;7644444",
"444441>=$$******=>>144444444444477$@@@$$$$$$$$$$$$$$$$$$$$$$$$$$$$<76444444444441,>=$$$&****;7644444",
"444441>=$$*******->>144444444444476&@@@$$$$$$$$$$$$$$$$$$$$$$$$$$<76444444444441,>;$$$&*****;7644444",
"444441>=$$********;>>144444444444577$+O+@@@@@@@@@@@@@@@@@@@@@@@@<77444444444441,>;%$$&******;7644444",
"444441>=$$*********;:>144444444444576+                         ;77444444444441,>;$$$&*******;7644444",
"444441>=$$**********;:>144444444444576X                       ;77444444444441,>;$$$&********;7644444",
"444441>=$$***********;:>144444444444576+                     ;76444444444441,>;$$$&*********;7644444",
"444441>=$$************;:>144444444444576o                   ;77444444444441,>;$$$&**********;7644444",
"444441>=$$**************:>144424444444576@                 ;77444444444441,:=$$$&***********;7644444",
"444441>=$$*************$*:>144244444444476@               ,76444444444441,>*@$$&************;7644444",
"444421>=$$*************$$&:>142244444444476o             ;76444444444441,:*@@$&*************;7644444",
"444441>=$$*************$$$*:>122444444444476@           ;76444444444441,:=@@@$**************;7644444",
"444441>=$$*******===*==$$$$&:>114444444444576o         ;77444444444441,:;$##$&=====*********;7644444",
"444441>=$$*******@O++++ooooo@::144444444444576@       ;77444444444441,:&.XoooO++++o*********;7644444",
"444441>=$$*******@***==$$$$@ @:>144444444144576o     ;77444444444443,:=  #$$$&==*=@*********;7644444",
"444441>=$$*******@*&%**$$$$@  @:>144444444444576@   ;77444444444441,:&   $$$$&*&&&@*********;7644444",
"444441>=$$*******@*&***$$$$@   @:>144444444444576. ;77444444444444,:=   .$$$$&**&*@*********;7644444",
"444441>=$$*******@&****$$$$@    @:>144444444444571;77444444444441,:*    .$$$$&****@*********;7644444",
"444441>=$$*******@&****$$$$@     @:>1222444444444776444444444441,:&     .$$$$&****@*********;7644444",
"444441>=$$*******@&****$$$$@      @:>12244444444456444444444441,:=      .$$$$&****@*********;7644444",
"444441>=$$*******@*****$$$$@       @:>114444444444444444444441,:*       .$$$$&****@*********;7644444",
"444441>=$$*******@*****$$$$@        @::1444444444444444444441,:=        .$$$$&****@*********;7644444",
"444441>=$$*******@*****$$$$@         @:>14444444444444444443,:*         .$$$$&****+*********;7644444",
"444441>=$$*******@*****$$$$@          @:>144444444444444443,:=          .$$$$&****@*********;7644444",
"444441>*$$*******@*****$$$$@           @:>1444444444444441,:*           .$$$$&****+*********=7644444",
"444441>*$$%%%%%%%o&****$$$$@            o;4444444444444441>$            .$$$$&****O%%%%%%%%%*7644444",
"444441>$XXooooooo &****$$$$@             ;76444444444444445X            .$$$$&****oooooooooo@7644444",
"444441>=%%=======@&****$$$$@            ;7644444444444444476+           .$$$$&****@=========;7644444",
"444441>=$$*******@*****$$$$@           ;774444444444444444576X          .$$$$&****@*********;7644444",
"444441>=$$*******@*****$$$$@          ;77444444444444444444576+         .$$$$&****@*********;7644444",
"444441>=$$*******@*****$$$$@         ;7744444444444444444444576X        .$$$$&****@*********;7644444",
"444441>=$$*******@*****$$$$@        ;774444444444114444444444576+       .$$$$&****@*********;7644444",
"444441>=$$*******@&****$$$$@       ;77444444444443144444444444576X      .$$$$&****@*********;7644444",
"444441>=$$*******@&****$$$$@      ;77444444444441,>114444444444576+     .$$$$&****@*********;7644444",
"444421>=$$*******@&****$$$$@     ,76444444444411,>>>114444444444476+    .$$$$&****+*********;7644444",
"444441>=$$*******@*****$$$$@    ;76444444444441,>$+:>144444444444476X   .$$$$&****@*********;7644444",
"444441>=$$*******@*&&**$$$$@   ;76444444444411,>&  @:>114444444444476@   $$$$&*&&&@*********;7644444",
"444441>=$$*******@*&&**$$$$@  ;77444444444441,>=    +:>144444444444576X  @$$$&**&*@*********;7644444",
"444441>=$$*******@@@#@@++++o ;77444444444411,>&      @:>114444444444575O oo++@@@@#o*********;7644444",
"444441>=$$********&&&&&$$$$@;77444444444441,>=        +:>144444444444576+###$&&&&&**********;7644444",
"444441>=$$*************$$$$,77444444444441,>&          @:>114444444444576%@@@$**************;7644444",
"444441>=$$*************$$$,77444444444444,>=            +:>124444444444576$@@$&*************;7644444",
"444441>=$$*************$$,77444444444441,>*              @:>124444444443574$@$$&************;7644444",
"444441>=$$*************$176244444444411,>&                @:>114444444444476&$$$&***********;7644444",
"444441>=$$*************<76444444444441>:=                  +>>144444444444576&$$$***********;7644444",
"444441>=$$************176444444444431,:&                    @:>114444444444576=$$$&*********;7644444",
"444441>=$$***********177444444444441,>=                      +;>144444444444576*$$$*********;7644444",
"444441>=$$**********177444444444441,>*                        @;>144444444444576=$$$********;7644444",
"444441>=$$*********177444444444442,>=.   ...   .....     ...   @>>144444444444576*$$$*******;7644444",
"444441>=$$********177444444444441,>=#@@$$$$$$$$$$$$$$$$$$$$$$$$$&:>144444444444576=$$$******;7644444",
"444441>=$$*******476444444444431,;*@@@$$$$$$$$$$$$$$$$$$$$$$$$$$$&;>134444444444476=$$$&****;7644444",
"444441>=$$******176444444444441,:*@@@$$$$$$$$$$$$$$$$$$$$$$$$$$$$$&>>144444444444476*$$$&***;7644444",
"444441>=$$*****176444444444431,>=@@@$$$$$$$$$$$$$$$$$$$$$$$$$$$$$$$&;>134444444444476=$$$&**;7644444",
"444441>=$$****177444444444441,>;$$$$&&&&&&&&&&&&&&&&&&&&&&&&&&&&&&&&=>>144444444444576*$$$&*;7644444",
"444441>=$$***177444444444441,>;%$$&**********************************-:>144444444444576=$$$&-7644444",
"444441>=$$**177444444444442,>;%$$&************************************->>144444444444576*$$$=7644444",
"444441>=$$*177444444444443,>;%$$%**************************************->>144444444444576=$$&7644444",
"444441>=$$177444444444444,>;%$$&*********;:::;*=::::;*-::::=************->>144444444444576*$&7644444",
"444441>=$<77444444444441,>;%$$%**********;:::;*=::::;*-::::=*************-:>144444444444576=&7644444",
"444441>=176444444444441,:=$$$&***********;>>>:*=>>>>;*;:>>>=**************->>134444444444477;7644444",
"444441>476444444444442,>=$$$&************;>>>:*=>>>>;*;>>>>=***************->>1444444444444777644444",
"444441476444444444441,>;$$$&*************;>>>:*=>>>>;*;>>>>=****************->>144444444444477644444",
"44444577444444444442,>;%$$&**************;>>>:*=::>>;*;>:>>=*****************->>14444444444457644444",
"4444577444444444441,>;%$$&***************;>>>:*=::>>;*;>:>>=******************->>1444444444445644444",
"444455444444444442,>;%$$&****************;>>>:*=::>>;*;>>>>=*******************->>144444444444444444",
"44444444444444441,>;%$$&*********=*******;>>>:*=::>>;*-:>>>=*************=******->>14444444444444444",
"4444444444444444,>;%$$&******************;>>>:*=:>>>;*-:>>>=*********************->>2444444444444444",
"444444444444441,>;%$$&*******************;>>>:*=::>>;*;:>>>=**********************;>>144444444444444",
"44444444444441,:;%%%*====================:>>>:==>>>>;=;>>>>;=======================;>>14444444444444",
"4444444444444,>,777777777777777777777777777777777777777777777777777777777777777777774>>1444444444444",
"444444444444<,,66666666666666666666666666666666666666666666666666666666666666666666661,,144444444444",
"4444444444444444444444444444444444444444444444444444444444444444444444444444444444444444444444444444",
"4444444444444444444444444444444444444444444444444444444444444444444444444444444444444444444444444444",
"4444444444444444444444444444444444444444444444444444444444444444444444444444444444444444444444444444",
"4444444444444444444444444444444444444444444444444444444444444444444444444444444444444444444444444444",
"4444444444444444444444444444444444444444444444444444444444444444444444444444444444444444444444444444"
};
