/* XPM */
static char *struc_0[] = {
/* columns rows colors chars-per-pixel */
"64 64 177 2 ",
"   c None",
".  c #21250C",
"X  c #22260D",
"o  c #22260E",
"O  c #23260E",
"+  c #23270E",
"@  c #24270E",
"#  c #24280E",
"$  c #24280F",
"%  c #25280F",
"&  c #25290F",
"*  c #26290F",
"=  c #252910",
"-  c #262A10",
";  c #272B10",
":  c #262A11",
">  c #272B11",
",  c #282B10",
"<  c #282B11",
"1  c #282C11",
"2  c #292C11",
"3  c #282C12",
"4  c #282D12",
"5  c #292D12",
"6  c #292D13",
"7  c #292E13",
"8  c #2A2E13",
"9  c #2B2F13",
"0  c #2A2F14",
"q  c #2B2F14",
"w  c #2B3014",
"e  c #2B3015",
"r  c #2C3014",
"t  c #2D3014",
"y  c #2D3114",
"u  c #2C3015",
"i  c #2C3115",
"p  c #2D3115",
"a  c #2D3215",
"s  c #2E3215",
"d  c #2C3116",
"f  c #2D3116",
"g  c #2D3216",
"h  c #2D3217",
"j  c #2E3216",
"k  c #2F3316",
"l  c #2E3217",
"z  c #2E3317",
"x  c #2F3317",
"c  c #2F3318",
"v  c #303417",
"b  c #313417",
"n  c #313517",
"m  c #323517",
"M  c #303518",
"N  c #313518",
"B  c #313618",
"V  c #323618",
"C  c #323718",
"Z  c #333718",
"A  c #323719",
"S  c #333719",
"D  c #33371A",
"F  c #333819",
"G  c #33381A",
"H  c #343819",
"J  c #34381A",
"K  c #34391A",
"L  c #35391A",
"P  c #34381B",
"I  c #34391B",
"U  c #35391B",
"Y  c #353A1A",
"T  c #353A1B",
"R  c #353B1B",
"E  c #363A1B",
"W  c #363B1B",
"Q  c #363B1C",
"!  c #373B1C",
"~  c #363C1C",
"^  c #373C1C",
"/  c #373C1D",
"(  c #373D1D",
")  c #383C1D",
"_  c #383D1D",
"`  c #383D1E",
"'  c #393D1E",
"]  c #383D1F",
"[  c #383E1E",
"{  c #393E1E",
"}  c #393E1F",
"|  c #393F1F",
" . c #3A3F1F",
".. c #3A3F20",
"X. c #3A401F",
"o. c #3A4020",
"O. c #3B4020",
"+. c #3B4120",
"@. c #3B4021",
"#. c #3B4121",
"$. c #3B4221",
"%. c #3C4121",
"&. c #3C4221",
"*. c #3D4321",
"=. c #3C4122",
"-. c #3C4222",
";. c #3D4222",
":. c #3C4322",
">. c #3D4322",
",. c #3D4323",
"<. c #3E4323",
"1. c #3E4423",
"2. c #3E4523",
"3. c #3F4523",
"4. c #3E4424",
"5. c #3F4424",
"6. c #3F4524",
"7. c #3F4425",
"8. c #3F4525",
"9. c #404525",
"0. c #404625",
"q. c #404526",
"w. c #414626",
"e. c #414726",
"r. c #414727",
"t. c #424727",
"y. c #424827",
"u. c #434827",
"i. c #424728",
"p. c #434728",
"a. c #424828",
"s. c #434828",
"d. c #434928",
"f. c #434829",
"g. c #444929",
"h. c #44492A",
"j. c #45492A",
"k. c #454A2A",
"l. c #464B2A",
"z. c #464B2B",
"x. c #575C38",
"c. c #575D38",
"v. c #595F38",
"b. c #595F39",
"n. c #5D633B",
"m. c #5C613C",
"M. c #5C623C",
"N. c #60663E",
"B. c #646A41",
"V. c #646A42",
"C. c #656B43",
"Z. c #666C43",
"A. c #676D43",
"S. c #676D44",
"D. c #686D45",
"F. c #686E45",
"G. c #686E46",
"H. c #696E46",
"J. c #6D7349",
"K. c #6E7449",
"L. c #6F754A",
"P. c #70764B",
"I. c #71774C",
"U. c #757B4F",
"Y. c #797F52",
"T. c #7B8154",
"R. c #7C8254",
"E. c #7C8255",
"W. c #7D8355",
"Q. c #808658",
"!. c #818758",
"~. c #818759",
"^. c #818859",
"/. c #828859",
"(. c #82885A",
"). c #83895A",
"_. c #83895B",
/* pixels */
"T.T.T.T.T.T.T.T.T.T.T.T.T.T.T.T.T.T.    T.T.T.T.T.T.T.T.T.T.T.T.T.T.T.T.T.T.T.T.T.    T.T.T.T.T.T.T.T.T.T.T.T.T.T.T.T.T.T.T.T.T.",
"T.T.T.T.T.T.T.T.T.T.T.T.T.T.T.T.T.T.P.K.T.T.T.T.T.T.T.T.T.T.T.T.T.T.T.T.T.T.T.T.T.K.P.T.T.T.T.T.T.T.T.T.T.T.T.T.T.T.T.T.T.T.T.T.",
"T.T.T.T.T.T.T.T.T.T.T.T.T.T.T.T.T.T.P.K.T.T.T.T.T.T.T.T.T.T.T.T.T.T.T.T.T.T.T.T.T.K.P.T.T.T.T.T.T.T.T.T.T.T.T.T.T.T.T.T.T.T.T.T.",
"T.T.T.T.T.T.T.T.T.T.T.T.T.T.T.T.T.T.P.K.T.T.T.T.T.T.T.T.T.T.T.T.T.T.T.T.T.T.T.T.T.K.P.T.T.T.T.T.T.T.T.T.T.T.T.T.T.T.T.T.T.T.T.T.",
"(.~.~.~.~.~.~.~.~.~.~.~.~.(.(.(.~.Y.n.c.U.~.(.(.~.~.~.~.~.~.~.~.~.~.~.(.(.(.(.~.U.c.n.Y.~.(.(.~.~.~.~.~.~.~.~.~.~.~.~.(.(.(.T.U.",
"Z.F.F.F.F.F.F.F.F.F.F.F.Z.Z.Z.Z.Z.n.y.5.v.Z.Z.Z.F.F.F.F.F.F.F.F.F.F.F.Z.Z.Z.Z.Z.v.5.f.n.Z.Z.Z.F.F.F.F.F.F.F.F.F.Z.F.Z.Z.Z.Z.N.v.",
"5.5.i.t.t.t.t.t.t.t.t.i.5.X.X._ 5.5.G G 5.5.X.5.t.i.t.t.t.t.t.t.t.t.i.5.X.X.X.X.5.G G 5.5.X.5.t.i.t.t.t.t.t.t.t.t.t.5._ 5.5.5.5.",
"5.5.5.f.i.i.i.i.i.i.i.5.5.5.X.5.5.5._ _ 5.5.5.5.5.t.f.i.i.i.i.i.i.t.5.5.5.5.X.5.5._ _ 5.5.5.5.5.t.f.i.i.i.i.i.f.t.5.5.X.X.5.5.5.",
"5.5.5.y.f.f.f.f.f.f.f.t.5.5.5.5.5.5.S S 5.5.5.5.5.5.t.f.f.f.f.f.f.f.5.5.5.5.5.5.5.S S 5.5.5.5.5.t.f.f.f.f.f.f.f.f.5.5.5.5.5.5._ ",
"5.5.5.5.t.t.t.t.t.t.t.5.5.5.5.5._ G 7 ; G _ 5.5.5.5.5.t.t.t.t.t.t.t.5.5.5.5.5.G G ; 7 G _ 5.5.5.5.5.t.t.t.t.t.t.t.5.5.5.5.5._ G ",
"  G S G G G G G G G G G G G G x 7 7 ; ; 7 7 x G G G G G G G G G G G G G G G x 7 7 ; ; 7 7 x G G G G G G G G G G G G G G G 7 x   ",
"  x % ; ; 7 7 ; 7 ; 7 7 7 7 7 % X X X % X X % 7 7 7 7 ; 7 7 ; ; ; 7 7 7 7 7 % X X % % X X % 7 7 7 ; ; 7 7 ; ; 7 7 7 7 7 7 X     ",
"  G 7 x x x x x x x x x x x x x x x c x x x x x x x x x x x x x x x x x x x x x x c x x x x x x x x x x x x x x x x x x x 7 _   ",
"f.5.5.f.f.t.5.f.f.t.5.5.5.f.f.5.5.f.f.t.5.t.f.f.5.5.f.f.5.5.f.f.t.5.5.t.f.f.5.5.f.f.t.5.f.f.t.5.t.f.f.5.5.f.f.t.5.5.t.f.f.5.5.f.",
"..G _ 5.5._ G 5.5.5.G G _ 5.5._ G 5.5...G ..5.5.G _ 5.5._ G 5.5._ G G _ 5.5._ _ 5.5._ G 5.5.5.G _ 5.5.G _ 5.5._ G G ..5.5.G _ ..",
"G S S G G S S G G G m m S G G S S G G G m G G G S S G G S S G G G m m G G G S S G G G m G G G m G G G S S G G S m m G G G S S G ",
"G S S G G S S G G G S m S G G S S G G G S G G G S G G G S S G G G m m G G G S S G G S S G G G S G G G S S G G S m m G G G S S G ",
"G 7 x G G x 7 S G S 7 ; x G G x 7 S G m 7 m G S 7 x G G x 7 G G x 7 ; x G G x 7 G G x 7 S G S 7 x G G 7 x G G x 7 7 m G G 7 x G ",
"x ; ; x 7 7 ; 7 x 7 ; % ; 7 x 7 ; 7 x 7 ; 7 7 7 ; 7 x x ; ; 7 x 7 % % 7 x x ; ; 7 x 7 ; 7 x 7 ; 7 x 7 ; ; 7 x 7 % ; 7 x 7 ; 7 x ",
"; ; ; 7 7 7 7 7 7 7 7 7 7 7 7 7 7 7 7 7 7 7 7 ; 7 7 7 7 7 7 7 7 7 7 7 7 7 7 7 7 7 7 7 7 7 7 7 7 7 7 7 7 7 7 7 7 7 7 7 7 7 ; ; ; ",
"      S S S S S S S S S S S S S S S S S S S S S S S S S S S S S S S S S S S S S S S S S S S S S S S S S S S S S S S S S m       ",
"      x x x x x x x x x x x x x x x x x x x 7 7 x x x x x x x x x 7 x x x x x x x x x 7 x 7 7 x x x x x x x x x x x x x x       ",
"      ; ; ; ; % % % ; ; ; ; ; ; ; ; % ; ; ; ; % ; ; ; ; ; ; ; % ; % ; ; ; ; ; ; ; ; ; ; ; ; ; ; % % ; ; ; ; ; % % ; ; ; ;       ",
"      ; ;     ; ; ;       ; ;     ; ; ;   ; ; ;     ; ;     ; ; ;     ; ; ;     ; ; ;   ; ; ;   ; ; ;     ; ;       ; ; ;       ",
"                                                                                                                                ",
"                                                                                                                                ",
"                                                                                                                                ",
"                                                                                                                                ",
"                                                                                                                                ",
"                                                                                                                                ",
"                                                                                                                                ",
"                                                                                                                                ",
"                                                                                                                                ",
"                                                                                                                                ",
"                                                                                                                                ",
"                                                                                                                                ",
"                                                                                                                                ",
"                                                                                                                                ",
"                                                                                                                                ",
"                                                                                                                                ",
"                                                                                                                                ",
"                                                                                                                                ",
"                                                                                                                                ",
"                                                                                                                                ",
"                                                                                                                                ",
"                                                                                                                                ",
"                                                                                                                                ",
"                                                                                                                                ",
"                                                                                                                                ",
"                                                                                                                                ",
"                                                                                                                                ",
"                                                                                                                                ",
"                                                                                                                                ",
"                                                                                                                                ",
"                                                                                                                                ",
"                                                                                                                                ",
"                                                                                                                                ",
"                                                                                                                                ",
"                                                                                                                                ",
"                                                                                                                                ",
"                                                                                                                                ",
"                                                                                                                                ",
"                                                                                                                                ",
"                                                                                                                                "
};
