/* XPM */
static char *luke_120[] = {
/* columns rows colors chars-per-pixel */
"120 120 24 1 ",
"  c None",
". c black",
"X c #201820",
"o c #502000",
"O c #082040",
"+ c #382840",
"@ c #003068",
"# c #503858",
"$ c #804010",
"% c #B86840",
"& c #009038",
"* c #10A038",
"= c #20B838",
"- c #38C838",
"; c #48E038",
": c #60F840",
"> c #C8A038",
", c #0058A8",
"< c #705080",
"1 c #0878E8",
"2 c #8078B0",
"3 c #F0A880",
"4 c #D0D0D0",
"5 c #F8F8F8",
/* pixels */
"                                                                                                                        ",
"                                                                                                                        ",
"                                                                                                                        ",
"                                                                                                                        ",
"                                                                                                                        ",
"                                                                                                                        ",
"                                                                                                                        ",
"                                                                                                                        ",
"                                                                                                                        ",
"                                                                                                                        ",
"                                                                                                                        ",
"                                                                                                                        ",
"                                                                                                                        ",
"                                                                                                                        ",
"                                                                                                                        ",
"                                                                                                                        ",
"                                                                                                                        ",
"                                                                                                                        ",
"                                                                                                                        ",
"                                                                                                                        ",
"                                                                                                                        ",
"                                                                                                                        ",
"                                                                                                                        ",
"                                                                                                                        ",
"                                                                                                                        ",
"                                                                                                                        ",
"                                                                                                                        ",
"                                                                                                                        ",
"                                                                                                                        ",
"                                                                                                                        ",
"                                                                                                                        ",
"                                                                                                                        ",
"                                                                                                                        ",
"                                                                                                                        ",
"                                                                                                                        ",
"                                                                                                                        ",
"                                                                                                                        ",
"                                                                                                                        ",
"                                                                                                                        ",
"                                                                                                                        ",
"                                                                                                                        ",
"                                                                                                                        ",
"                                                                                                                        ",
"                                                                                                                        ",
"                                                                                                                        ",
"                                                                                                                        ",
"                                                                                                                        ",
"                                                                                                                        ",
"                                                     %>444>$                                                            ",
"                                                     >%>$%>>$                                                           ",
"                                                     %$%>$%>$                                                           ",
"                                                     $o$%>>%>$                                                          ",
"                                                     3%3$o%>>$                                                          ",
"                                                     %3%%$o%>$OO                                                        ",
"                                                     $%%$%$o%$,1O                                                       ",
"                                                     %$$%$..#O,,,O                                                      ",
"                                                     .+#+.$..+O@O,O                                                     ",
"                                                     +4<<.$$.++O.,1O                                                    ",
"                                                    +.OO<<+%$+<+O,,O                                                    ",
"                                                    O,4@.#.3%X+#..@OO                                                   ",
"                                                    O1,@.<.%$1+#O..@O                                                   ",
"                                                    O,@O..#.$1,+#O.,O                                                   ",
"                                                    O@@O,OOX1,,X#.,,O                                                   ",
"                                                    @@,4@##XOOO+#..,O                                                   ",
"                                                     .@1,1O#+X<X#..@O                                                   ",
"                                                     O@,@O1#X<#X#OO,O                                                   ",
"                                                     @.@OOO11XX+OO@o.                                                   ",
"                                                      @..@@4o1$4<4.1.                                                   ",
"                                                      @O...oo$%.O4..1                                                   ",
"                                                       @,,O.$3$$.44.1                                                   ",
"                                                         .oo#<oooo*********                                             ",
"                                                         ++XXXX++--================*&                                   ",
"                                                        +#XX.+.#<5::;:;;;;;;;;;;;;-====*****                            ",
"                                                       +#XX.X.+<455555::::::::::::;;;;;-=====******                     ",
"                                                      +##<##XX<+#;:555555555555555:::::;;;;;-======**                   ",
"                                                     @,@X##<<##.O-;;5555555555555555555:::::;;;;;;-==*                  ",
"                                                    @,@...OXXO...=--:55555555555555555555555:::::::;-=*                 ",
"                                                   O@@...O@O  O..O==;;:5555555555555555555555555555:;;=*                ",
"                                                   O,....@O   O,.O,&--;:5555555555555555555555555555::;=                ",
"                                                   O@@@O@O     O@@,4==-;;:555555555555555555555555555:;=                ",
"                                                   @O.O@O       O.1@,&**;;:55555555555555555555555555:;=                ",
"                                                   O.@O          O.O.O2&**;-;555555555555555555555555:;*                ",
"                                                   O...O         O,...,  &**=-;5555555555555555555555:;*                ",
"                                                   ,@O@1          O@.14,  & &*-;;55555555555555555555:;*                ",
"                                                    ,@O@,          ,1..4,    &*=;;5555555555555555555:-*                ",
"                                                     ,@.,           @,O.4     &***;;;555555555555555:;=&                ",
"                                                      @..,           @,..,      &&=;;;55555555555555:;*                 ",
"                                                       @.O,           ,O.4,      &*==-;;555555555555:-*                 ",
"                                                       ,.O,           @,O.4       &&**=-;;5555555555;=*                 ",
"                                                        ,@.,           @,O.<         &*=-;;55555555:-*                  ",
"                                                        1,.1            ,.O4,         &**=-;;555555-*&                  ",
"                                                     1,,,.@,             .144           &&*=---;;;-=&                   ",
"                                                     ,.....,             ,OO4             &&*******&                    ",
"                                                                        .....                                           ",
"                                                                                                                        ",
"                                                                                                                        ",
"                                                                                                                        ",
"                                                                                                                        ",
"                                                                                                                        ",
"                                                                                                                        ",
"                                                                                                                        ",
"                                                                                                                        ",
"                                                                                                                        ",
"                                                                                                                        ",
"                                                                                                                        ",
"                                                                                                                        ",
"                                                                                                                        ",
"                                                                                                                        ",
"                                                                                                                        ",
"                                                                                                                        ",
"                                                                                                                        ",
"                                                                                                                        ",
"                                                                                                                        ",
"                                                                                                                        ",
"                                                                                                                        ",
"                                                                                                                        ",
"                                                                                                                        ",
"                                                                                                                        ",
"                                                                                                                        ",
"                                                                                                                        "
};
