/* XPM */
static char *luke_85[] = {
/* columns rows colors chars-per-pixel */
"120 120 23 1 ",
"  c None",
". c black",
"X c #201820",
"o c #502000",
"O c #082040",
"+ c #382840",
"@ c #003068",
"# c #503858",
"$ c #804010",
"% c #B86840",
"& c #009038",
"* c #08B030",
"= c #20D828",
"- c #60F840",
"; c #C8A038",
": c #A0F868",
"> c #0058A8",
", c #705080",
"< c #0878E8",
"1 c #F0A880",
"2 c #D0F888",
"3 c #D0D0D0",
"4 c #F8F8F8",
/* pixels */
"                                                                                                                        ",
"                                                                                                                        ",
"                                                                                                                        ",
"                                                                                                                        ",
"                                                                                                                        ",
"                                                                                                                        ",
"                                                                                                                        ",
"                                                                                                                        ",
"                                                                                                                        ",
"                                                                                                                        ",
"                                                                                                                        ",
"                                                                                                                        ",
"                                                                                                                        ",
"                                                                                                                        ",
"                                                                                                                        ",
"                                                                                                                        ",
"                                                                                                                        ",
"                                                                                                                        ",
"                                                                                                                        ",
"                                                                                                                        ",
"                                                                                                                        ",
"                                                                                                                        ",
"                                                                                                                        ",
"                                                                                                                        ",
"                                                                                                                        ",
"                                                                                                                        ",
"                                                                                                                        ",
"                                                                                                                        ",
"                                                                                                                        ",
"                                                                                                                        ",
"                                                                                                                        ",
"                                                                                                                        ",
"                                                                                                                        ",
"                                    &&&&                                                                                ",
"                                   &*=-=&                                                                               ",
"                                   &=42-=&                                                                              ",
"                                   &-242-=&                                                                             ",
"                                   &=-442-=&                                                                            ",
"                                    &=-442-=&                                                                           ",
"                                     &=-442-=&                                                                          ",
"                                      &=-442-=&                                                                         ",
"                                       &=-442-=&                                                                        ",
"                                        &=-442-=&                                                                       ",
"                                         &=-442-=&                                                                      ",
"                                          &=-442-=&                                                                     ",
"                                           &=-442-=&                                                                    ",
"                                            &=-442-=&                                                                   ",
"                                             &=-442-=&                                                                  ",
"                                              &=-442-=&                                                                 ",
"                                               &=-442-=&                                                                ",
"                                                &=-442-=&                                                               ",
"                                                 &=-442-=&                                                              ",
"                                                  &=-442-=&                                                             ",
"                                                   &=-442-=&                                                            ",
"                                                    &=-442-=&                                                           ",
"                                                     &=-442-=&                                                          ",
"                                                    $;&=-442-=&                                                         ",
"                                                   $;;%&=-442:=                                                         ",
"                                                   $;%$;&=-242:3>                                                       ",
"                                                  $;%;;%$&=:24 <.                                                       ",
"                                                  $;;%o$1%&-:  3.33                                                     ",
"                                                  $;%o$%%1%    .3..3$                                                   ",
"                                                  $%o$%$%%$    O...3%$                                                  ",
"                                                   ##.$%$$%     O..<%$                                                  ",
"                                                     ++X$$O     O<..O<                                                  ",
"                                                    +#,,,3##    O3@.>3                                                  ",
"                                                   +,#,,OO@.@>@O3<>O>O                                                  ",
"                                                   +#,,+O3>O@3>@O@OO>                                                   ",
"                                                   +#,,XO><@O><>O..>                                                    ",
"                                                   X+,+X.OO..O@@O.>                                                     ",
"                                                   ++#+X>...O.OO.>O                                                     ",
"                                                   +#,+X.>>O>>>>>O                                                      ",
"                                                   +#,X...@.,O                                                          ",
"                                                   +#,X..@.O,O                                                          ",
"                                                   X+,+..@.X,O                                                          ",
"                                                   ++##.O.O##                                                           ",
"                                                    O##..O>,X                                                           ",
"                                                     +,XX,,#O                                                           ",
"                                                   +%##,,,+O.+@@@@@@@@                                                  ",
"                                                   +X..#..3;$.,>>>>>>>@                                                 ",
"                                                   +++##X>+++,XOOOOOO><                                                 ",
"                                                   +#X#+X+.X,X..O..OO.>                                                 ",
"                                                   +#XX,+X+,+X.......O>                                                 ",
"                                                   +#X.X,,,.X....OO.O<                                                  ",
"                                                   +X#+,X.O>O..OO<><>                                                   ",
"                                                    +,,..O>3<O>....>                                                    ",
"                                                    X..>..O><>...>>                                                     ",
"                                                33<@OO..@>.O3<..>                                                       ",
"                                               .O@><3>@@.@.O><.>                                                        ",
"                                               .O>@..<<>@.@.O<@<                                                        ",
"                                               .OOO>>....XO.O><@<                                                       ",
"                                               .<33  >>O..@OO<<@@><                                                     ",
"                                               .3>.    >>O.@><@...O                                                     ",
"                                               ....        ...                                                          ",
"                                                                                                                        ",
"                                                                                                                        ",
"                                                                                                                        ",
"                                                                                                                        ",
"                                                                                                                        ",
"                                                                                                                        ",
"                                                                                                                        ",
"                                                                                                                        ",
"                                                                                                                        ",
"                                                                                                                        ",
"                                                                                                                        ",
"                                                                                                                        ",
"                                                                                                                        ",
"                                                                                                                        ",
"                                                                                                                        ",
"                                                                                                                        ",
"                                                                                                                        ",
"                                                                                                                        ",
"                                                                                                                        ",
"                                                                                                                        ",
"                                                                                                                        ",
"                                                                                                                        ",
"                                                                                                                        ",
"                                                                                                                        ",
"                                                                                                                        ",
"                                                                                                                        "
};
