/* XPM */
static char *luke_112[] = {
/* columns rows colors chars-per-pixel */
"120 120 24 1 ",
"  c None",
". c black",
"X c #201820",
"o c #502000",
"O c #082040",
"+ c #102848",
"@ c #382840",
"# c #003068",
"$ c #503858",
"% c #804010",
"& c #B86840",
"* c #009038",
"= c #20D828",
"- c #60F840",
"; c #C8A038",
": c #A0F868",
"> c #0058A8",
", c #705080",
"< c #0878E8",
"1 c #6880A8",
"2 c #F0A880",
"3 c #D0F888",
"4 c #D0D0D0",
"5 c #F8F8F8",
/* pixels */
"                                                                                                                        ",
"                                                                                                                        ",
"                                                                                                                        ",
"                                                                                                                        ",
"                                                                                                                        ",
"                                                                                                                        ",
"                                                                                                                        ",
"                                                                                                                        ",
"                                                                                                                        ",
"                                                                                                                        ",
"                                                                                                                        ",
"                                                                                                                        ",
"                                                                                                                        ",
"                                                                                                                        ",
"                                                                                                                        ",
"                                                                                                                        ",
"                                                                                                                        ",
"                                                              *-5-                                                      ",
"                                                             *-5--                                                      ",
"                                                             *-5-*                                                      ",
"                                                            *-5--*                                                      ",
"                                                            *-5-*                                                       ",
"                                                           *-5--*                                                       ",
"                                                           *-5-*                                                        ",
"                                                          *=5==*                                                        ",
"                                                          *=5=*                                                         ",
"                                                         *=5==*                                                         ",
"                                                         *=5=*                                                          ",
"                                                        *-5==*                                                          ",
"                                                        *-5-*                                                           ",
"                                                       *-5--*                                                           ",
"                                                       *-5-*                                                            ",
"                                                      *-5--*                                                            ",
"                                                      *-5-*                                                             ",
"                                                     *-5--*                                                             ",
"                                                     *-5-*                                                              ",
"                                                    *-5--*                                                              ",
"                                                    *-5-*                                                               ",
"                                                   *-5--*                                                               ",
"                                                   *-5-*                                                                ",
"                                                  *:5:-*                                                                ",
"                                                  *:5:*                                                                 ",
"                                                 *:5::*                                                                 ",
"                                                 *:5:*                                                                  ",
"                                                *-5::*;444;%                                                            ",
"                                                *-5:*;%;%&;;%                                                           ",
"                                               *-5::*&%%;%&;%                                                           ",
"                                               *-5:* %o%%;4&;%                                                          ",
"                                               55    2&2%o&4&%                                                          ",
"                                               11    &2&&%o%;%                                                          ",
"                                              3+#    %&&%&%o%%OOOOOO                                                    ",
"                                             131.    &%%&&o%%X#####.O                                                   ",
"                                            133+3 4    ..,$,,$......#                                                   ",
"                                            33+++<.   $,,@,$,,@#...>                                                    ",
"                                            13++..   $@##..$,,@ #..#                                                    ",
"                                            13+1O<   @##4>.,$,@ #.>#                                                    ",
"                                               >>4   #.O><O@$@X #.>#                                                    ",
"                                               ..#< #4O#>O.X,@X #.#                                                     ",
"                                               <.#<#<<>###.X,@X&&&#                                                     ",
"                                                #O.O>#.>#...,@X %%&                                                     ",
"                                                 >.#.#O#....$,@@%%%                                                     ",
"                                                 #O.O> $....,,@@%%                                                      ",
"                                                  #>#  X$...,,@@%                                                       ",
"                                                        X$$,$,$@                                                        ",
"                                                        4oo%%%&%                                                        ",
"                                                        4..oo.%X@                                                       ",
"                                                        X$$$X@,@@                                                       ",
"                                                       #@$@@@$,,$@                                                      ",
"                                                      ##,,$X$@X$,,                                                      ",
"                                                    ##>@O,,,$$,,..                                                      ",
"                                                  ##>>OO.XX,,,,.#                                                       ",
"                                                  >>OO......O..O>#                                                      ",
"                                                 #OO.....OO.#O.O<#                                                      ",
"                                                 O....OOO   O#O.O<#                                                     ",
"                                                 O..OO       O#O.4#                                                     ",
"                                                 O..O        O#.O4#                                                     ",
"                                                 O..O         #O.<>                                                     ",
"                                                 O><>         O#.O4#                                                    ",
"                                                 <.>O          #O.4>#                                                   ",
"                                                 >.>O          O#O.<><>                                                 ",
"                                                 >..>             #O#>44<<                                              ",
"                                                  ..>             O.>...44<<                                            ",
"                                                  >.>              >>>>...O<4                                           ",
"                                                  >.>                  >>>.><                                           ",
"                                                  >.>                     OO>                                           ",
"                                                  >.>                     >OO                                           ",
"                                                 >..>                     >.O                                           ",
"                                               <##..O                    4O.O                                           ",
"                                               >>O                                                                      ",
"                                               OO                                                                       ",
"                                               OO                                                                       ",
"                                                                                                                        ",
"                                                                                                                        ",
"                                                                                                                        ",
"                                                                                                                        ",
"                                                                                                                        ",
"                                                                                                                        ",
"                                                                                                                        ",
"                                                                                                                        ",
"                                                                                                                        ",
"                                                                                                                        ",
"                                                                                                                        ",
"                                                                                                                        ",
"                                                                                                                        ",
"                                                                                                                        ",
"                                                                                                                        ",
"                                                                                                                        ",
"                                                                                                                        ",
"                                                                                                                        ",
"                                                                                                                        ",
"                                                                                                                        ",
"                                                                                                                        ",
"                                                                                                                        ",
"                                                                                                                        ",
"                                                                                                                        ",
"                                                                                                                        ",
"                                                                                                                        ",
"                                                                                                                        ",
"                                                                                                                        ",
"                                                                                                                        "
};
