/* XPM */
static char *luke_181[] = {
/* columns rows colors chars-per-pixel */
"120 120 23 1 ",
"  c None",
". c black",
"X c #201820",
"o c #502000",
"O c #082040",
"+ c #382840",
"@ c #003068",
"# c #503858",
"$ c #804010",
"% c #B86840",
"& c #009038",
"* c #08B030",
"= c #20D828",
"- c #60F840",
"; c #C8A038",
": c #A0F868",
"> c #0058A8",
", c #705080",
"< c #0878E8",
"1 c #F0A880",
"2 c #D0F888",
"3 c #D0D0D0",
"4 c #F8F8F8",
/* pixels */
"                                                                                                                        ",
"                                                                                                                        ",
"                                                                                                                        ",
"                                                                                                                        ",
"                                                                                                                        ",
"                                                                                                                        ",
"                                                                                                                        ",
"                                                                                                                        ",
"                                                                                                                        ",
"                                                                                                                        ",
"                                                                                                                        ",
"                                                                                                                        ",
"                                                                                                                        ",
"                                                                                                                        ",
"                                                                                                                        ",
"                                                                                                                        ",
"                                                                                                                        ",
"                                                                                                                        ",
"                                                                                                                        ",
"                                                                                                                        ",
"                                                                                                                        ",
"                                                                                                                        ",
"                                                                                                                        ",
"                                                                                                                        ",
"                                                                                                                        ",
"                                                                                                                        ",
"                                                                                                                        ",
"                                                                                                                        ",
"                                                                                                                        ",
"                                                                                                                        ",
"                                                                                                                        ",
"                                                                                                                        ",
"                                                                                                                        ",
"                                                     &&&&&&&&&&&&&&&&&&&&&&                                             ",
"                                                    &*=====================*                                            ",
"                                                   &*=::::::::::::::::::::-=                                            ",
"                                                   *-:22222222222222222222:-*                                           ",
"                                                   =:2444444444444444444442:-*                                          ",
"                                                   =:24444444444444444444442-=                                          ",
"                                                   =:24444444444444444444442:=                                          ",
"                                                   =:24444444444444444444442:=                                          ",
"                                                  *-:2444444444444444444442:-=                                          ",
"                                                  *-22444444444444444444442-=                                           ",
"                                                  *-2444444444444444444442:=                                            ",
"                                                  =:244444444444444444442:-                                             ",
"                                                 &=:24444444444444444442:-*                                             ",
"                                                 &=:2444444444444444442:-=                                              ",
"                                                 *-2444444444444444444:-*                                               ",
"                                                 *-2444444444444444442-=                                                ",
"                                                 *-244444444444444442:=                                                 ",
"                                                &=:24444444444444444:-*                                                 ",
"                                                &=:24444444444444442-*&                                                 ",
"                                                &=:244444444444442:=*&                                                  ",
"                                                &=:24444444444442:=*&                                                   ",
"                                                &=:2444444444444:=*&                                                    ",
"                                                &=:2444444444442=*&                                                     ",
"                                                &=:24444444442:=*&$                                                     ",
"                                                &-:4444444442:=*&;;$                                                    ",
"                                                &-2444444444:=*&$%;$                                                    ",
"                                                &-2444444444=*&%;;%;$                                                   ",
"                                                *-244444444:*&1$o%;;$                                                   ",
"                                                *-2444442:=*&1%%$o%;$                                                   ",
"                                                *-244442:=*&$%%$%$o%$                                                   ",
"                                                *-24444:=*& %$$%$.##                                                    ",
"                                                *-2444:=*&  O$$.>O.                                                     ",
"                                                =22442=*&  @,,3,,X++                                                    ",
"                                                =-:22:*&   ,..OO3,,#+                                                   ",
"                                                O=-::=&    .><3>X#,#,+                                                  ",
"                                                ><===&    @O@>><.+,,#+                                                  ",
"                                               O.O &&    @3>@@O..X,,#+                                                  ",
"                                              O,.33     O@<@...>.X+,+X                                                  ",
"                                              O....<@<3<OO>.@>...X+#++                                                  ",
"                                              ,....<.@>@@.@O>....X,#+O                                                  ",
"                                              <....<.......>.@...X,#+O                                                  ",
"                                              $<<<<>>>>>>>OO...@.+,+X                                                   ",
"                                              %O3%$        ,XO..O##++                                                   ",
"                                               %o$         ##>O..##O                                                    ",
"                                                           X,X..X,+.                                                    ",
"                                                  @@@@@@@@+O#,,X,##.+                                                   ",
"                                                 @>>>>>>>,.$;+,,...X+                                                   ",
"                                                 <>OOOOOOX,+++>X##+++                                                   ",
"                                                 >.OO..O..X,X.+X+#X#+                                                   ",
"                                                 >O.......X+,+X+,XX#+                                                   ",
"                                                  <O.OO....X.,,,X.X#+                                                   ",
"                                                   ><><OO..O>O.X,+#X+                                                   ",
"                                                    >....>O<3>O..,,+                                                    ",
"                                                     >>...><>O..>..X                                                    ",
"                                                       >..<3O.>@..OO@<33                                                ",
"                                                        >.<>O.@.@@>3<>@O.                                               ",
"                                                        <@<O.@.@><<..@>O.                                               ",
"                                                       <@<>O.OX....>>OOO.                                               ",
"                                                     <>@@<<OO@..O>>  33<.                                               ",
"                                                     O...@<>@.O>>    .>3.                                               ",
"                                                          ...        ....                                               ",
"                                                                                                                        ",
"                                                                                                                        ",
"                                                                                                                        ",
"                                                                                                                        ",
"                                                                                                                        ",
"                                                                                                                        ",
"                                                                                                                        ",
"                                                                                                                        ",
"                                                                                                                        ",
"                                                                                                                        ",
"                                                                                                                        ",
"                                                                                                                        ",
"                                                                                                                        ",
"                                                                                                                        ",
"                                                                                                                        ",
"                                                                                                                        ",
"                                                                                                                        ",
"                                                                                                                        ",
"                                                                                                                        ",
"                                                                                                                        ",
"                                                                                                                        ",
"                                                                                                                        ",
"                                                                                                                        ",
"                                                                                                                        ",
"                                                                                                                        ",
"                                                                                                                        "
};
