/* XPM */
static char *luke_44[] = {
/* columns rows colors chars-per-pixel */
"120 120 23 1 ",
"  c None",
". c black",
"X c #201820",
"o c #502000",
"O c #082040",
"+ c #382840",
"@ c #003068",
"# c #503858",
"$ c #804010",
"% c #B86840",
"& c #009038",
"* c #10A038",
"= c #20B838",
"- c #38C838",
"; c #48E038",
": c #60F840",
"> c #C8A038",
", c #0058A8",
"< c #705080",
"1 c #0878E8",
"2 c #F0A880",
"3 c #D0D0D0",
"4 c #F8F8F8",
/* pixels */
"                                                                                                                        ",
"                                                                                                                        ",
"                                                                                                                        ",
"                                                                                                                        ",
"                                                                                                                        ",
"                                                                                                                        ",
"                                                                                                                        ",
"                                                                                                                        ",
"                                                                                                                        ",
"                                                                                                                        ",
"                                                                                                                        ",
"                                                                                                                        ",
"                                                                                                                        ",
"                                                                                                                        ",
"                                                                                                                        ",
"                                                                                                                        ",
"                                                                                                                        ",
"                                                                                                                        ",
"                                                                                                                        ",
"                                                                                                                        ",
"                                                                                                                        ",
"                                                                                                                        ",
"                                                                                                                        ",
"                                                                                                                        ",
"                                                                                                                        ",
"                                                                                                                        ",
"                                                                                                                        ",
"                                                                                                                        ",
"                                                                                                                        ",
"                                                                                                                        ",
"                                                                                                                        ",
"                                                                                                                        ",
"                                                                                                                        ",
"                                                                                                                        ",
"                                                                                                                        ",
"                                                                                                                        ",
"                                                                                                                        ",
"                                                                                                                        ",
"                                                                                                                        ",
"                                                                                                                        ",
"                                                                                                                        ",
"                                                                                                                        ",
"                                                                                                                        ",
"                                                                                                                        ",
"                                                                                                                        ",
"                                                                                                                        ",
"                                                                                                                        ",
"                                                    $>333>%                                                             ",
"                                                   $>>%$>%>                                                             ",
"                                                   $>%$>%$%                                                             ",
"                                                  $>%>>%$o$                                                             ",
"                                                  $>>%o$2%2                                                             ",
"                                                  $>%o$%%2%OO                                                           ",
"                                                  $%o$%$%%$,1O                                                          ",
"                                                   ##..%$$%@,@O                                                         ",
"                                                    ++.$...O@O,O                                                        ",
"                                                  +3<<.$$.++O.1,O                                                       ",
"                                                 +.OO<<+%$.<+OO,O                                                       ",
"                                                 O,3@.O.2%X+#..O@O                                                      ",
"                                                 O1,@.<.%$1+#O..@O                                                      ",
"                                                 O,@O..#.$1,+#O..,O                                                     ",
"                                                 O@@O@O#X1,,X# O..,                                                     ",
"                                                 @O@,3@#.OOO+# OO.O                                                     ",
"                                                 ,.O@1,O.+X<X# O.OO                                                     ",
"                                                  ,O@,@O.X<#X# O.@O                                                     ",
"                                                  ,..@OOO#XX+# $$1O                                                     ",
"                                                   ,.OO3#XX..#$2%$O                                                     ",
"                                                   ,.O,13113<.$%%%$                                                     ",
"                                                    ,.O@,@@333.33%,     *********                                       ",
"                                                      ,...1..331.,.    --================*&                             ",
"                                                       ooooo<#oo..3,   4::;:;;;;;;;;;;;;-====*****                      ",
"                                                      +<++XXXX++.OO.   44444::::::::::::;;;;;-=====******               ",
"                                                      +++.+..X+#+.     ;:444444444444444:::::;;;;;-======**             ",
"                                                     +<3++.X..X##+     -;;4444444444444444444:::::;;;;;;-==*            ",
"                                                    +<++3#+X+X+<XO     =--:44444444444444444444444:::::::;-=*           ",
"                                                    +@@..###X##X@,@     ==;;:4444444444444444444444444444:;;=*          ",
"                                                    @3,O..O++<X..@,@     &--;:4444444444444444444444444444::;=          ",
"                                                    31@@,@OX@.....@,@     ==-;;:444444444444444444444444444:;=          ",
"                                                   @1,,.OO  OO.....@,@     &**;;:44444444444444444444444444:;=          ",
"                                                   33@@OO     O@..O.@,@      &**;-;444444444444444444444444:;*          ",
"                                                  O1,1.O       OOO.@@,@        &**=-;4444444444444444444444:;*          ",
"                                                  .,@.@O         O@O.@O         & &*-;;44444444444444444444:;*          ",
"                                                 ,...,O            @.O@            &*=;;4444444444444444444:-*          ",
"                                                ,3...O            O.O@              &***;;;444444444444444:;=&          ",
"                                                3.3,,            1.O@,                &&=;;;44444444444444:;*           ",
"                                               1..@,@           ,@O@,                  &*==-;;444444444444:-*           ",
"                                               3.O,@            ,.@,                    &&**=-;;4444444444;=*           ",
"                                              1..@,@           ,.O,                        &*=-;;44444444:-*            ",
"                                              1.@,@           ,.@,                          &**=-;;444444-*&            ",
"                                             13.,@           ,.@,                             &&*=---;;;-=&             ",
"                                             3.@,            1.,1                               &&*******&              ",
"                                            31.,@            ,@.,,,1                                                    ",
"                                           3OO@1,            ,.....,                                                    ",
"                                           ....@@                                                                       ",
"                                                                                                                        ",
"                                                                                                                        ",
"                                                                                                                        ",
"                                                                                                                        ",
"                                                                                                                        ",
"                                                                                                                        ",
"                                                                                                                        ",
"                                                                                                                        ",
"                                                                                                                        ",
"                                                                                                                        ",
"                                                                                                                        ",
"                                                                                                                        ",
"                                                                                                                        ",
"                                                                                                                        ",
"                                                                                                                        ",
"                                                                                                                        ",
"                                                                                                                        ",
"                                                                                                                        ",
"                                                                                                                        ",
"                                                                                                                        ",
"                                                                                                                        ",
"                                                                                                                        ",
"                                                                                                                        ",
"                                                                                                                        ",
"                                                                                                                        ",
"                                                                                                                        "
};
