/* XPM */
static char *luke_105[] = {
/* columns rows colors chars-per-pixel */
"120 120 16 1 ",
"  c None",
". c black",
"X c #201820",
"o c #502000",
"O c #082040",
"+ c #382840",
"@ c #003068",
"# c #503858",
"$ c #804010",
"% c #B86840",
"& c #C8A038",
"* c #0058A8",
"= c #705080",
"- c #0878E8",
"; c #F0A880",
": c #D0D0D0",
/* pixels */
"                                                                                                                        ",
"                                                                                                                        ",
"                                                                                                                        ",
"                                                                                                                        ",
"                                                                                                                        ",
"                                                                                                                        ",
"                                                                                                                        ",
"                                                                                                                        ",
"                                                                                                                        ",
"                                                                                                                        ",
"                                                                                                                        ",
"                                                                                                                        ",
"                                                                                                                        ",
"                                                                                                                        ",
"                                                                                                                        ",
"                                                                                                                        ",
"                                                                                                                        ",
"                                                                                                                        ",
"                                                                                                                        ",
"                                                                                                                        ",
"                                                                                                                        ",
"                                                                                                                        ",
"                                                                                                                        ",
"                                                                                                                        ",
"                                                                                                                        ",
"                                                                                                                        ",
"                                                                                                                        ",
"                                                                                                                        ",
"                                                                                                                        ",
"                                                                                                                        ",
"                                                                                                                        ",
"                                                                                                                        ",
"                                                                                                                        ",
"                                                                                                                        ",
"                                                                                                                        ",
"                                                                                                                        ",
"                                                                                                                        ",
"                                                                                                                        ",
"                                                                                                                        ",
"                                                                                                                        ",
"                                                                                                                        ",
"                                                                                                                        ",
"                                                                                                                        ",
"                                                                                                                        ",
"                                                                                                                        ",
"                                                                                                                        ",
"                                                                                                                        ",
"                                                                                                                        ",
"                                                            &$$&:&$$                                                    ",
"                                                            $&&::&&$                                                    ",
"                                                           &$::$&$$&$                                                   ",
"                                                            $&$..$&&$                                                   ",
"                                                           $&$.%;oo&$                                                   ",
"                                                            oo$o%$.o.o*+                                                ",
"                                                           $$ ;$ooo==:=X+                                               ",
"                                                              oo-o=XXXX:+                                               ",
"                                                           ooO*----::-X=:+                                              ",
"                                                         %;;;;:....---:X==+                                             ",
"                                                        ;%%$$$-........*X=+                                             ",
"                                                        %;$o%o-@@OO*..O*.X=+                                            ",
"                                                        %$%     O*-OO.*..X=+                                            ",
"                                                                 ..*@*...X=+                                            ",
"                                                           $    O*X#+....X=+                                            ",
"                                                          $%$$O**O.=#....#X+                                            ",
"                                                          $$%$$....==...+=X+                                            ",
"                                                           $$oo...O#=...#X#+                                            ",
"                                                            ooO@@O .o=..=X#+                                            ",
"                                                                  X+:..#XXXX                                            ",
"                                                                XX#+.:o..X=X++                                          ",
"                                                               O*O.#=.$$o+#==+                                          ",
"                                                              O*O....XXX==++##+                                         ",
"                                                             O*O....*O@...XX==+                                         ",
"                                                            O*O....O@-*@..XXXX=                                         ",
"                                                            OO...@@**:-@.*  XX                                          ",
"                                                           O*...*@ *@:@.*                                               ",
"                                                           *.@*   *@--@.                                                ",
"                                                           *.@    *@:@.*                                                ",
"                                                           *.@    *@-@*                                                 ",
"                                                           *.*    *@**                                                  ",
"                                                           *.*    *..*                                                  ",
"                                                           *.*    *..*                                                  ",
"                                                          -.*     ::-                                                   ",
"                                                         -*.*     :O*                                                   ",
"                                                       -*@..-     :.*                                                   ",
"                                                       O....-    -@.*                                                   ",
"                                                                 :.@                                                    ",
"                                                                 -.@                                                    ",
"                                                                 -.@                                                    ",
"                                                                :.@                                                     ",
"                                                             :::-.@                                                     ",
"                                                             O.*O.@                                                     ",
"                                                             @@..*@                                                     ",
"                                                             @@..*@                                                     ",
"                                                                                                                        ",
"                                                                                                                        ",
"                                                                                                                        ",
"                                                                                                                        ",
"                                                                                                                        ",
"                                                                                                                        ",
"                                                                                                                        ",
"                                                                                                                        ",
"                                                                                                                        ",
"                                                                                                                        ",
"                                                                                                                        ",
"                                                                                                                        ",
"                                                                                                                        ",
"                                                                                                                        ",
"                                                                                                                        ",
"                                                                                                                        ",
"                                                                                                                        ",
"                                                                                                                        ",
"                                                                                                                        ",
"                                                                                                                        ",
"                                                                                                                        ",
"                                                                                                                        ",
"                                                                                                                        ",
"                                                                                                                        ",
"                                                                                                                        ",
"                                                                                                                        ",
"                                                                                                                        "
};
