/* XPM */
static char *luke_14[] = {
/* columns rows colors chars-per-pixel */
"120 120 25 1 ",
"  c None",
". c black",
"X c #201820",
"o c #502000",
"O c #082040",
"+ c #102848",
"@ c #382840",
"# c #003068",
"$ c #503858",
"% c #804010",
"& c #B86840",
"* c #009038",
"= c #10A038",
"- c #20B838",
"; c #38C838",
": c #48E038",
"> c #60F840",
", c #C8A038",
"< c #0058A8",
"1 c #705080",
"2 c #0878E8",
"3 c #6880A8",
"4 c #F0A880",
"5 c #D0D0D0",
"6 c #F8F8F8",
/* pixels */
"                                                                                                                        ",
"                                                                                                                        ",
"                                                                                                                        ",
"                                                                                                                        ",
"                                                                                                                        ",
"                                                                                                                        ",
"                                                                                                                        ",
"                                                                                                                        ",
"                                                                                                                        ",
"                                                                                                                        ",
"                                                                                                                        ",
"                                                                                                                        ",
"                                                                                                                        ",
"                                                                                                                        ",
"                                                                                                                        ",
"                                                                                                                        ",
"                                                                                                                        ",
"                                                                                                                        ",
"                                                                                                                        ",
"                                                                                                                        ",
"                                                                                                                        ",
"                                                                                                                        ",
"                                                                                                                        ",
"                                                                                                                        ",
"                                                                                                                        ",
"                                                                                                                        ",
"                                                                                                                        ",
"                                                                                                                        ",
"                                                                                                                        ",
"                                                                                                                        ",
"                                                                                                                        ",
"                                                                                                                        ",
"                                                                                                                        ",
"                                                                                                                        ",
"                                                                                                                        ",
"                                                                                                                        ",
"                                                                                                                        ",
"                                                                                                                        ",
"                                                                                                                        ",
"                                                                                                                        ",
"                                                                                                                        ",
"                                                                                                                        ",
"                                                                                                                        ",
"                                                                                                                        ",
"                                                                                                                        ",
"                                                                                      ==;;*                             ",
"                                                                                    ==;;66*                             ",
"                                                            %,555,&               ==;>666;*                             ",
"                                                           %,,&%,%,             ==:>666;;*                              ",
"                                                           %,&%,%%&           ==:666:;;**                               ",
"                                                          %,&5,%%o%          *:666:;=**                                 ",
"                                                          %&5&o%4&4       ==;>66;;=**                                   ",
"                                                          %,%o%&&4&     ==;>66;;=**                                     ",
"                                                  ##.#52##1%o%&%&&%   ==;>66:;=**                                       ",
"                                                 .5<OO<#2#.1%o&&%%& ==;>66:;=**                                         ",
"                                                 .<2###.<2.$1.4.. ==;>66:;=**                                           ",
"                                                 #O.<#.#..@$$.4&==:>66:;=**                                             ",
"                                                 #..##..#O.$1.==:666:;=**%&                                             ",
"                                                 #...##....$$*:666:;=**&&&4                                             ",
"                                                 #..O   ..==:666;;=**  2&4%                                             ",
"                                                  #.#   ==:66>;;=**@$  O%%                                              ",
"                                                  5<< =-:66>;;=**$X@X# ..#                                              ",
"                                                 63++>>666>;=**1$X$$.<#.#                                               ",
"                                                 6+++>+>6>;**@X1$X@#....<                                               ",
"                                                 3>>>3++==*X@X1$X$@ #..#                                                ",
"                                                 333>+3+@@@XX1$1X@   #<#                                                ",
"                                                  333++@@@XX1$1X$@                                                      ",
"                                                       X.oo.5...@                                                       ",
"                                                       @1@111$X#@                                                       ",
"                                                       @111$$.X2##                                                      ",
"                                                       @$1$...X#52##                                                    ",
"                                                        O$#....X#<52##                                                  ",
"                                                        #O#OO.....<<52#                                                 ",
"                                                        #.O<#OOO....##5#                                                ",
"                                                        #...O#<#OOO...#O                                                ",
"                                                        #...#    #<#O.#O                                                ",
"                                                        #...#       O..O                                                ",
"                                                        #..#        O..O                                                ",
"                                                       O...#         ..O                                                ",
"                                                      O#..O#        <#25                                                ",
"                                                      #..O#         .#.2                                                ",
"                                                      ..O#          .#.2                                                ",
"                                                  <....O#           <##2                                                ",
"                                                #<#<O..#            #.2                                                 ",
"                                               2<...<#              #.2                                                 ",
"                                              <.OO<<#               #.2                                                 ",
"                                              .#<<#                 #.5                                                 ",
"                                              .<#                  #.#5                                                 ",
"                                              .<                   .O.O552                                              ",
"                                              .<                   .....O<                                              ",
"                                              ..2                     ..<<                                              ",
"                                              ...                     <                                                 ",
"                                              ...                     <                                                 ",
"                                                                                                                        ",
"                                                                                                                        ",
"                                                                                                                        ",
"                                                                                                                        ",
"                                                                                                                        ",
"                                                                                                                        ",
"                                                                                                                        ",
"                                                                                                                        ",
"                                                                                                                        ",
"                                                                                                                        ",
"                                                                                                                        ",
"                                                                                                                        ",
"                                                                                                                        ",
"                                                                                                                        ",
"                                                                                                                        ",
"                                                                                                                        ",
"                                                                                                                        ",
"                                                                                                                        ",
"                                                                                                                        ",
"                                                                                                                        ",
"                                                                                                                        ",
"                                                                                                                        ",
"                                                                                                                        ",
"                                                                                                                        ",
"                                                                                                                        ",
"                                                                                                                        ",
"                                                                                                                        "
};
