/* XPM */
static char *luke_123[] = {
/* columns rows colors chars-per-pixel */
"120 120 22 1 ",
"  c None",
". c black",
"X c #201820",
"o c #502000",
"O c #082040",
"+ c #382840",
"@ c #003068",
"# c #503858",
"$ c #804010",
"% c #B86840",
"& c #08B030",
"* c #20D828",
"= c #60F840",
"- c #C8A038",
"; c #A0F868",
": c #0058A8",
"> c #705080",
", c #0878E8",
"< c #F0A880",
"1 c #D0F888",
"2 c #D0D0D0",
"3 c #F8F8F8",
/* pixels */
"                                                                                                                        ",
"                                                                                                                        ",
"                                                                                                                        ",
"                                                                                                                        ",
"                                                                                                                        ",
"                                                                                                                        ",
"                                                                                                                        ",
"                                                                                                                        ",
"                                                                                                                        ",
"                                                                                                                        ",
"                                                                                                                        ",
"                                                                                                                        ",
"                                                                                                                        ",
"                                                                                                                        ",
"                                                                                                                        ",
"                                                                                                                        ",
"                                                                                                                        ",
"                                                                                                                        ",
"                                                                                                                        ",
"                                                                                                                        ",
"                                                                                                                        ",
"                                                                                                                        ",
"                                                                                                                        ",
"                                                                                                                        ",
"                                                                                                                        ",
"                                                                                                                        ",
"                                                                                                                        ",
"                                                                                                                        ",
"                                                                                                                        ",
"                                                                                                                        ",
"                                                                                                                        ",
"                                                                                                                        ",
"                                                                                                                        ",
"                                                                                                                        ",
"                                                                                                                        ",
"                                                                                                                        ",
"                                                                                                                        ",
"                                                                                                                        ",
"                                                                                                                        ",
"                                                                                                                        ",
"                                                                                                                        ",
"                                                                                                                        ",
"                                                                                                                        ",
"                                                                                                                        ",
"                                                                                                                        ",
"                                                                                                                        ",
"                                                                                                                        ",
"                                                             %-222-$                                                    ",
"                                                             -%-$%--$                                                   ",
"                                                             %$%-$%-$                                                   ",
"                                                             $o$%--%-$                                                  ",
"                                                             <%<$o%--$                                                  ",
"                                                           OO%<%%$o%-$                                                  ",
"                                                          O,:$%%$%$o%$                                                  ",
"                                                         O@:@%$$%$.##                                                   ",
"                                                        ::O@O+..$.+#+                                                   ",
"                                                       O,@.O++.$$.>>2+                                                  ",
"                                                       O@.O+>+$%+>>OO.+                                                 ",
"                                                      O@...#+X%<.#.@2:O                                                 ",
"                                                      O@..O#+,$%.>.@:,O                                                 ",
"                                                     O:..O#+:,$.#..O@:O                                                 ",
"                                                     :..O #X::,X#O@O@@O                                                 ",
"                                                     O.OO #+OOOX#@2:@O@                                                 ",
"                                                    O@.O  #X>X+#O:,@.@                                                  ",
"                                                    O,.O  #X#>X#O@:@O@                                                  ",
"                                                    O:.$$ #+XX#2OO@.@                                                   ",
"                                                    O:$<%$#.,,2,@..@                                                    ",
"                                                     ,22%%2,@@:@..O@                                                    ",
"                                                    2O...2.,....::@                                                     ",
"                                                  2.:..,...,.:::$X                                                      ",
"                                                   :.22..oo#>ooooo                                                      ",
"                                                         ++XXXX++>+                                                     ",
"                                                        +#========;*&                                                   ",
"                                                       +=;333333331;*&                                                  ",
"                                                       O=1333333331;=*&                                                 ",
"                                                      @:=13333333331;*&                                                 ",
"                                                     @:@==3333333331;=*&                                                ",
"                                                    @:@..=13333333331;=*&                                               ",
"                                                   @:@...=133333333331;**&                                              ",
"                                                  @:@.O..=133333333331;==*&                                             ",
"                                                  @:@@.OO=1333333333331;=*&                                             ",
"                                                  O@.O@O =13333333333331;*&                                             ",
"                                                  @O.@    =13333333333331=*&                                            ",
"                                                   @O.O   =13333333333331;*&                                            ",
"                                                   :@O.,  =11111133333111;*&                                            ",
"                                                    :@O@:  =*;;;;11111;;;=&                                             ",
"                                                     :@.:   &************&                                              ",
"                                                      :O.:   &&&&&&&&&&&&.,                                             ",
"                                                       :@.:           @:@.,                                             ",
"                                                        :@.:           @:.2,                                            ",
"                                                        ,:.,            :@.2                                            ",
"                                                     ,:::.@:            @:.,2                                           ",
"                                                     :.....:            :,@OO2                                          ",
"                                                                        @@....                                          ",
"                                                                                                                        ",
"                                                                                                                        ",
"                                                                                                                        ",
"                                                                                                                        ",
"                                                                                                                        ",
"                                                                                                                        ",
"                                                                                                                        ",
"                                                                                                                        ",
"                                                                                                                        ",
"                                                                                                                        ",
"                                                                                                                        ",
"                                                                                                                        ",
"                                                                                                                        ",
"                                                                                                                        ",
"                                                                                                                        ",
"                                                                                                                        ",
"                                                                                                                        ",
"                                                                                                                        ",
"                                                                                                                        ",
"                                                                                                                        ",
"                                                                                                                        ",
"                                                                                                                        ",
"                                                                                                                        ",
"                                                                                                                        ",
"                                                                                                                        ",
"                                                                                                                        "
};
