/* XPM */
static char *luke_110[] = {
/* columns rows colors chars-per-pixel */
"120 120 25 1 ",
"  c None",
". c black",
"X c #201820",
"o c #502000",
"O c #082040",
"+ c #102848",
"@ c #382840",
"# c #003068",
"$ c #503858",
"% c #804010",
"& c #B86840",
"* c #009038",
"= c #08B030",
"- c #20D828",
"; c #60F840",
": c #C8A038",
"> c #A0F868",
", c #0058A8",
"< c #705080",
"1 c #0878E8",
"2 c #6880A8",
"3 c #F0A880",
"4 c #D0F888",
"5 c #D0D0D0",
"6 c #F8F8F8",
/* pixels */
"                                                                                                                        ",
"                                                                                                                        ",
"                                                                                                                        ",
"                                                                                                                        ",
"                                                                                                                        ",
"                                                                                                                        ",
"                                                                                                                        ",
"                                                                                                                        ",
"                                                                                                                        ",
"                                                                                                                        ",
"                                                                                                                        ",
"                                                                                                                        ",
"                                                                                                                        ",
"                                                                                                                        ",
"                                                                                                                        ",
"                                                                                                                        ",
"                                                                                                                        ",
"                                                                                                                        ",
"                                                                                                                        ",
"                                                                                                                        ",
"                                                                                                                        ",
"                                                                                                                        ",
"                                                                                                                        ",
"                                                                                                                        ",
"                                                                                                                        ",
"                                                                                                                        ",
"                                                                                                                        ",
"                                 *----*                                                                                 ",
"                                *-444-*                                                                                 ",
"                                *66644-*                                                                                ",
"                               *-66664-*                                                                                ",
"                               *6666644-*                                                                               ",
"                              *-6666664-*                                                                               ",
"                              *466666644-*                                                                              ",
"                             *-446666664-*                                                                              ",
"                             *>4446666644-*                                                                             ",
"                             *>6446666664-*                                                                             ",
"                             *->6446666644-*                                                                            ",
"                              *->646666664-*                                                                            ",
"                               *->644666644-*                                                                           ",
"                                *->64466664;*                                                                           ",
"                                 *->64666644;*                                                                          ",
"                                  *->4666666;*                                                                          ",
"                                   *>66666666;*       &:::%                                                             ",
"                                    *>6666666;*      &%%&::%                                                            ",
"                                    *->6666666;*     :&%%&::%                                                           ",
"                                     *->666666;*     &%%&%&:5%                                                          ",
"                                      *->666666;*    %o%%::5::%                                                         ",
"                                       *->66666;*    3&3%o%o%&%                                                         ",
"                                        *->66666;*   &3&&%o&&                                                           ",
"                                         *>66666;*   %&&%&%o                                                            ",
"                                          *>66666>*  &%%&.oo@                                                           ",
"                                           *>6666>*    ...<<<@                                                          ",
"                                           *>>6666-*   @<..@<<@                                                         ",
"                                            *>>466>*   <O,5#@<$@                                                        ",
"                                             *->666>*  <$1,#.@<@                                                        ",
"                                              *-466>*  <$,#O..<@                                                        ",
"                                               *-644>* @<##O#.$<@                                                       ",
"                                                *->6-* @<##,5.X<@                                                       ",
"                                                 *-6=  X$..#1,.<@                                                       ",
"                                                     6 X@.O#,#.$<@                                                      ",
"                                                   66++<X,1.#O.@<@                                                      ",
"                                                     24411O....@<@                                                      ",
"                                                   244++,5O,...@<$                                                      ",
"                                                   224++.#,..O@$@                                                       ",
"                                                   224+2.#..O.@$@                                                       ",
"                                                    22661..O..%X                                                        ",
"                                                     6666@$XX@<.@                                                       ",
"                                                       6+@$XX$$<@                                                       ",
"                                                        <@X$XX<5<@                                                      ",
"                                                        <@<X<<@@@                                                       ",
"                                                        @<$<@@O,                                                        ",
"                                                        O<$X.#                                                          ",
"                                                       #O#X.O# ,11                                                      ",
"                                                      #,O1#.O#,O..,                                                     ",
"                                                     #,#O1,.#O..OO.,                                                    ",
"                                                     #O.O1,.,.....O.,                                                   ",
"                                                     ...O5,.#.#   .O.                                                   ",
"                                                     O..O1#.O#                                                          ",
"                                                      OO#,#..,                                                          ",
"                                                          ,..#                                                          ",
"                                                          #O..,                                                         ",
"                                                           ,.55                                                         ",
"                                                           ,..5                                                         ",
"                                                            ,.15                                                        ",
"                                                            ,..5#                                                       ",
"                                                             ,.11                                                       ",
"                                                             ,#.5#                                                      ",
"                                                              ,.5#                                                      ",
"                                                             155.O                                                      ",
"                                                             O,O.,                                                      ",
"                                                             .....                                                      ",
"                                                             .....                                                      ",
"                                                                                                                        ",
"                                                                                                                        ",
"                                                                                                                        ",
"                                                                                                                        ",
"                                                                                                                        ",
"                                                                                                                        ",
"                                                                                                                        ",
"                                                                                                                        ",
"                                                                                                                        ",
"                                                                                                                        ",
"                                                                                                                        ",
"                                                                                                                        ",
"                                                                                                                        ",
"                                                                                                                        ",
"                                                                                                                        ",
"                                                                                                                        ",
"                                                                                                                        ",
"                                                                                                                        ",
"                                                                                                                        ",
"                                                                                                                        ",
"                                                                                                                        ",
"                                                                                                                        ",
"                                                                                                                        ",
"                                                                                                                        ",
"                                                                                                                        ",
"                                                                                                                        ",
"                                                                                                                        "
};
