/* XPM */
static char *luke_78[] = {
/* columns rows colors chars-per-pixel */
"120 120 25 1 ",
"  c None",
". c black",
"X c #201820",
"o c #502000",
"O c #082040",
"+ c #102848",
"@ c #382840",
"# c #003068",
"$ c #503858",
"% c #804010",
"& c #B86840",
"* c #009038",
"= c #10A038",
"- c #20B838",
"; c #38C838",
": c #48E038",
"> c #60F840",
", c #C8A038",
"< c #0058A8",
"1 c #705080",
"2 c #0878E8",
"3 c #6880A8",
"4 c #F0A880",
"5 c #D0D0D0",
"6 c #F8F8F8",
/* pixels */
"                                                                                                                        ",
"                                                                                                                        ",
"                                                                                                                        ",
"                                                                                                                        ",
"                                                                                                                        ",
"                                                                                                                        ",
"                                                                                                                        ",
"                                                                                                                        ",
"                                                                                                                        ",
"                                                                                                                        ",
"                                                                                                                        ",
"                                                                                                                        ",
"                                                                                                                        ",
"                                                                                                                        ",
"                                                                                                                        ",
"                                                                                                                        ",
"                                                                                                                        ",
"                                                                                                                        ",
"                                                                                                                        ",
"                                                                                                                        ",
"                                                                                                                        ",
"                                                                                                                        ",
"                                                                                                                        ",
"                                                                                                                        ",
"                                                                                                                        ",
"                                                                                                                        ",
"                                                                                                                        ",
"                                                                                                                        ",
"                                                                                                                        ",
"                                                                                                                        ",
"                                                                                                                        ",
"                                                                                                                        ",
"                                                                                                                        ",
"                                                                                                                        ",
"                                                                                                                        ",
"                                                                                                                        ",
"                                                                                                                        ",
"                                                                                                                        ",
"                                                                                                                        ",
"                                                                                                                        ",
"                                                                                                                        ",
"                                                                                                                        ",
"                                                                                                                        ",
"                                                                                                                        ",
"                                                                                                                        ",
"                                                                                                                        ",
"                                                                                                                        ",
"                                                                                                                        ",
"                                                                                                                        ",
"                                                                                                                        ",
"                                                                                                                        ",
"                                                                                                                        ",
"                                                                                                                        ",
"                                                                                                                        ",
"                                                                                                                        ",
"                                                                                                                        ",
"                                                                                                                        ",
"                                                                                                                        ",
"                                                                                                                        ",
"                                                    %,555,&                                                             ",
"                                                   %,,&%,%,                                                             ",
"                                                   %,&%,%%&                                                             ",
"                                                  %,&5,%%o%                                                             ",
"                                                  %&5&o%4&4                                                             ",
"                                                  %,%o%&&4&O                                                            ",
"                                                   %o%&%&&%2O                                                           ",
"                                                   $%o&&%%&<#O                                                          ",
"                                                  @$@.%..@O#O<<                                                         ",
"                                                 @511.%%.@@O.#2O                                                        ",
"                                                @O2O1$@&%@1@O.#O                                                        ",
"                                               O<5#<.1.4&X@$...#O                                                       ",
"                                               O2<#<O..&%2@$O..#O                       **                              ",
"                                               O<#O...$.%2<@$O..<O                    ==;;*                             ",
"                                               O##....$X2<<X$ O..<                  ==;;66*                             ",
"                                               #......$XOOO@$ OO.O                ==;>666;*                             ",
"                                               OO.O#..O$@X1X$  O.#O             ==:>666;;*                              ",
"                                               <5#.O#<#$@X1$$  &44O           ==:666:;;**                               ",
"                                               #2<.<...$@XX1$X&%4&4          *:666:;=**                                 ",
"                                               #<#.<O#.O$XX<%@########    ==;>66;;=**                                   ",
"                                               .#O.<....$.5<@@1<<<<<<<# ==;>66;;=**                                     ",
"                                               <...O.X.@X5@@@1XOOOOOO<==;>66:;=**                                       ",
"                                               <#.<..O$@X@.X1X..O..O==;>66:;=**                                         ",
"                                               <#.<..OX1@X@1@X....==;>66:;=**                                           ",
"                                               <#.<....X111.X...==:>66:;=**                                             ",
"                                                <.<..O@1X.O<O.==:666:;=**                                               ",
"                                                <O.<..1..O<52*:666:;=**                                                 ",
"                                                <O.<.O.<..==:666;;=**                                                   ",
"                                                <.555O..==:66>;;=**                                                     ",
"                                               .O52.2O=-:66>;;=**                                                       ",
"                                               .O63++>>666>;=**2                                                        ",
"                                               .O6+++>+>6>;**<2#2                                                       ",
"                                               .23>>>3++==*OO22##<2                                                     ",
"                                               .5333>+3+<O.#<2#...O                                                     ",
"                                               5<.333++    ...                                                          ",
"                                                                                                                        ",
"                                                                                                                        ",
"                                                                                                                        ",
"                                                                                                                        ",
"                                                                                                                        ",
"                                                                                                                        ",
"                                                                                                                        ",
"                                                                                                                        ",
"                                                                                                                        ",
"                                                                                                                        ",
"                                                                                                                        ",
"                                                                                                                        ",
"                                                                                                                        ",
"                                                                                                                        ",
"                                                                                                                        ",
"                                                                                                                        ",
"                                                                                                                        ",
"                                                                                                                        ",
"                                                                                                                        ",
"                                                                                                                        ",
"                                                                                                                        ",
"                                                                                                                        ",
"                                                                                                                        ",
"                                                                                                                        ",
"                                                                                                                        ",
"                                                                                                                        "
};
