/* XPM */
static char *luke_46[] = {
/* columns rows colors chars-per-pixel */
"120 120 23 1 ",
"  c None",
". c black",
"X c #201820",
"o c #502000",
"O c #082040",
"+ c #382840",
"@ c #003068",
"# c #503858",
"$ c #804010",
"% c #B86840",
"& c #009038",
"* c #10A038",
"= c #20B838",
"- c #38C838",
"; c #48E038",
": c #60F840",
"> c #C8A038",
", c #0058A8",
"< c #705080",
"1 c #0878E8",
"2 c #F0A880",
"3 c #D0D0D0",
"4 c #F8F8F8",
/* pixels */
"                                                                                                                        ",
"                                                                                                                        ",
"                                                                                                                        ",
"                                                                                                                        ",
"                                                                                                                        ",
"                                                                                                                        ",
"                                                                                                                        ",
"                                                                                                                        ",
"                                                                                                                        ",
"                                                                                                                        ",
"                                                                                                                        ",
"                                                                                                                        ",
"                                                                                                                        ",
"                                                                                                                        ",
"                                                                                                                        ",
"                                                                                                                        ",
"                                                                                                                        ",
"                                                                                                                        ",
"                                                                                                                        ",
"                                                                                                                        ",
"                                     &&&&                                                                               ",
"                                    &*=-=&                                                                              ",
"                                    &=4:-=&                                                                             ",
"                                    &-:4:-=&                                                                            ",
"                                    &=-44:-=&                                                                           ",
"                                     &=-44:-=&                                                                          ",
"                                      &=-44:-=&                                                                         ",
"                                       &=-44:-=&                                                                        ",
"                                        &=-44:-=&                                                                       ",
"                                         &=-44:-=&                                                                      ",
"                                          &=-44:-=&                                                                     ",
"                                           &=-44:-=&                                                                    ",
"                                            &=-44:-=&                                                                   ",
"                                             &=-44:-=&                                                                  ",
"                                              &=-44:-=&                                                                 ",
"                                               &=-44:-=&                                                                ",
"                                                &=-44:-=&                                                               ",
"                                                 &=-44:-=&                                                              ",
"                                                  &=-44:-=&                                                             ",
"                                                   &=-44:-=&                                                            ",
"                                                    &=-44:-=&                                                           ",
"                                                     &=-44:-=&                                                          ",
"                                                      &=-44:-=&                                                         ",
"                                                     $>&=-44:-=&                                                        ",
"                                                    $>>%&=-44:;=                                                        ",
"                                                    $>%$>&=-:4:;3,                                                      ",
"                                                   $>%>>%$&=;:4 1.                                                      ",
"                                                   $>>%o$2%&-;  3.33                                                    ",
"                                                   $>%o$%%2%    .3..3$                                                  ",
"                                                   $%o$%$%%$    O...3%$                                                 ",
"                                                    ##.$%$$%     O..1%$                                                 ",
"                                                      ++X$$O     O1..O1                                                 ",
"                                                     +#<<<3##    O3@.,3                                                 ",
"                                                    +<#<<OO@.@,@O31,O,O                                                 ",
"                                                    +#<<+O3,O@3,@O@OO,                                                  ",
"                                                    +#<<XO,1@O,1,O..,                                                   ",
"                                                    X+<+X.OO..O@@O.,                                                    ",
"                                                    ++#+X,...O.OO.,O                                                    ",
"                                                    +#<+X.,,O,,,,,O                                                     ",
"                                                    +#<X...@.<O                                                         ",
"                                                    +#<X..@.O<O                                                         ",
"                                                    X+<+..@.X<O                                                         ",
"                                                    ++##.O.O##                                                          ",
"                                                     O##..O,<X                                                          ",
"                                                      +<XX<<#O                                                          ",
"                                                      ##<<<+O.                                                          ",
"                                                   o%o$X3331.$.                                                         ",
"                                                   .XX31@1331.                                                          ",
"                                                  X<X1@@.,3,@.OOOOO                                                     ",
"                                                 X<X1@...@,@O.OO,,1O                                                    ",
"                                                 X<X@....O@O.O,,O@,1O                                                   ",
"                                                 X#X....O.OO.@OO.@@,O                                                   ",
"                                                 XXX....33,..O..OO@,O                                                   ",
"                                                   @...3...1..@@.o@@O                                                   ",
"                                                    @@@,O.,,@@.....                                                     ",
"                                                      O,O.1    ,.O,                                                     ",
"                                                      3<.,1   ,..O1                                                     ",
"                                                      ,..1   ,..O1                                                      ",
"                                                      3<.1   ,.O1                                                       ",
"                                                      ,.33  ,.O1                                                        ",
"                                                      33.. ,.O1                                                         ",
"                                                      3.O, O..,                                                         ",
"                                                     31..O .OO,                                                         ",
"                                                     1.O,   .O1,                                                        ",
"                                                     1..     ..O                                                        ",
"                                                     ..                                                                 ",
"                                                                                                                        ",
"                                                                                                                        ",
"                                                                                                                        ",
"                                                                                                                        ",
"                                                                                                                        ",
"                                                                                                                        ",
"                                                                                                                        ",
"                                                                                                                        ",
"                                                                                                                        ",
"                                                                                                                        ",
"                                                                                                                        ",
"                                                                                                                        ",
"                                                                                                                        ",
"                                                                                                                        ",
"                                                                                                                        ",
"                                                                                                                        ",
"                                                                                                                        ",
"                                                                                                                        ",
"                                                                                                                        ",
"                                                                                                                        ",
"                                                                                                                        ",
"                                                                                                                        ",
"                                                                                                                        ",
"                                                                                                                        ",
"                                                                                                                        ",
"                                                                                                                        ",
"                                                                                                                        ",
"                                                                                                                        ",
"                                                                                                                        ",
"                                                                                                                        ",
"                                                                                                                        ",
"                                                                                                                        ",
"                                                                                                                        ",
"                                                                                                                        "
};
