/* XPM */
static char *luke_125[] = {
/* columns rows colors chars-per-pixel */
"120 120 23 1 ",
"  c None",
". c black",
"X c #201820",
"o c #502000",
"O c #082040",
"+ c #382840",
"@ c #003068",
"# c #503858",
"$ c #804010",
"% c #B86840",
"& c #009038",
"* c #08B030",
"= c #20D828",
"- c #60F840",
"; c #C8A038",
": c #A0F868",
"> c #0058A8",
", c #705080",
"< c #0878E8",
"1 c #F0A880",
"2 c #D0F888",
"3 c #D0D0D0",
"4 c #F8F8F8",
/* pixels */
"                                                                                                                        ",
"                                                                                                                        ",
"                                                                                                                        ",
"                                                                                                                        ",
"                                                                                                                        ",
"                                                                                                                        ",
"                                                                                                                        ",
"                                                                                                                        ",
"                                                                                                                        ",
"                                                                                                                        ",
"                                                                                                                        ",
"                                                                                                                        ",
"                                                                                                                        ",
"                                                                                                                        ",
"                                                                                                                        ",
"                                                                                                                        ",
"                                                                                                                        ",
"                                                                                                                        ",
"                                                                                                                        ",
"                                                                                                                        ",
"                                                                                                                        ",
"                                                                                                                        ",
"                                                                                                                        ",
"                                                                                                                        ",
"                                                                                                                        ",
"                                                                                                                        ",
"                                                                                                                        ",
"                                                                                                                        ",
"                                                                                                                        ",
"                                                                                                                        ",
"                                                                                                                        ",
"                                                                                                                        ",
"                                                                                                                        ",
"                                                                                                                        ",
"                                                                                                                        ",
"                                                                                                                        ",
"                                                                                                                        ",
"                                                                                                                        ",
"                                                                                                                        ",
"                                                                                                                        ",
"                                                                                                                        ",
"                                                                                                                        ",
"                                                                                                                        ",
"                                                                                                                        ",
"                                                                                                                        ",
"                                                                                                                        ",
"                                                                                                                        ",
"                                                             %;333;$                                                    ",
"                                                             ;%;$%;;$                                                   ",
"                                                             %$%;$%;$                                                   ",
"                                                             $o$%;;%;$                                                  ",
"                                                             1%1$o%;;$                                                  ",
"                                                           OO%1%%$o%;$                                                  ",
"                                                          O<>$%%$%$o%$                                                  ",
"                                                         O@>@%$$%$.##                                                   ",
"                                                        >>O@O+..$.+#+                                                   ",
"                                                       O<@.O++.$$.,,3+                                                  ",
"                                                       O@.O+,+$%+,,OO.+                                                 ",
"                                                      O@...#+X%1.#.@3>O                                                 ",
"                                                      O@..O#+<$%.,.@><O                                                 ",
"                                                     O>..O#+><$.#..O@>O                                                 ",
"                                                     >..O #X>><X#O@O@@O                                                 ",
"                                                     O.OO #+OOOX#@3>@O@                                                 ",
"                                                    O@.O  #X,X+#O><@.@                                                  ",
"                                                    O<.O  #X#,X#O@>@O@                                                  ",
"                                                    O>.$$ #+XX#3OO@.@                                                   ",
"                                                    O>$1%$#.<<3<@..@                                                    ",
"                                                     <33%%3<@@>@..O@                                                    ",
"                                                    3O...3.<....>>@                                                     ",
"                                               **=-=>..<...<.>>>$X                                                      ",
"                                       ***=---:::22:--3..oo#,ooooo                                                      ",
"                                ****=-::::2444444444:-   ++XXXX++,+                                                     ",
"                         *****=:::::44444444444444422=  +#+X..+.+++                                                     ",
"                 ******=::::4444444444444444444444222* +##X..X.++3,+                                                    ",
"          &*****=4444444444444444444444444424444424:*  OX,+X+X+#3++,+                                                   ",
"          =:4::::4444444444444444444444444222::2:22:* @>@X##X###..@@+                                                   ",
"         &=424444444444444444444444444444422::::::-* @>@..X,++O..O>3@                                                   ",
"         &**:44444444444444444444444444422:::-:::--*@>@.....@XO@>@@<3                                                   ",
"          &*-444444444444444444444444442222:--=-:-=@>@.....OO  OO.>><@                                                  ",
"           &=-22444444444444444444444222::2--=*---=>@.O..@O     OO@@33                                                  ",
"            &=--4444444444444444444422:::-----=****>@@.OOO       O.<><O                                                 ",
"             &**-44444444444444442222:::::---==**&&@.O@O         O@.@>.                                                 ",
"                 -::444444444444422::::--::---=*& @O.@            O>...>                                                ",
"                 *=-444444444444222222:-:=-===&**  @O.O            O...3>                                               ",
"                 &**-444444444442222222:::==**     >@O.<            >>3.3                                               ",
"                   &=:2244444442:2:::-:2::==*&      >@O@>           @>@..<                                              ",
"                    &=-24444444442:::--=:***&        >@.>            @>O.3                                              ",
"                     &*=-:44444444::--===**           >O.>           @>@..<                                             ",
"                      &**::2444222222--====            >@.>           @>@.<                                             ",
"                        &*===:442:::2:--===&&           >@.>           @>.3<                                            ",
"                           &**222:::::--====*&          <>.<            >@.3                                            ",
"                             &-:-:::-:---===**&      <>>>.@>            @>.<3                                           ",
"                              *=*=:----=====**&      >.....>            ><@OO3                                          ",
"                               ***-----===*==&&&                        @@....                                          ",
"                               &&&*=**=***&&*&                                                                          ",
"                                   & &&&&   &                                                                           ",
"                                                                                                                        ",
"                                                                                                                        ",
"                                                                                                                        ",
"                                                                                                                        ",
"                                                                                                                        ",
"                                                                                                                        ",
"                                                                                                                        ",
"                                                                                                                        ",
"                                                                                                                        ",
"                                                                                                                        ",
"                                                                                                                        ",
"                                                                                                                        ",
"                                                                                                                        ",
"                                                                                                                        ",
"                                                                                                                        ",
"                                                                                                                        ",
"                                                                                                                        ",
"                                                                                                                        ",
"                                                                                                                        ",
"                                                                                                                        ",
"                                                                                                                        ",
"                                                                                                                        ",
"                                                                                                                        ",
"                                                                                                                        "
};
