/* XPM */
static char *luke_89[] = {
/* columns rows colors chars-per-pixel */
"120 120 23 1 ",
"  c None",
". c black",
"X c #201820",
"o c #502000",
"O c #082040",
"+ c #382840",
"@ c #003068",
"# c #503858",
"$ c #804010",
"% c #B86840",
"& c #009038",
"* c #08B030",
"= c #20D828",
"- c #60F840",
"; c #C8A038",
": c #A0F868",
"> c #0058A8",
", c #705080",
"< c #0878E8",
"1 c #F0A880",
"2 c #D0F888",
"3 c #D0D0D0",
"4 c #F8F8F8",
/* pixels */
"                                                                                                                        ",
"                                                                                                                        ",
"                                                                                                                        ",
"                                                                                                                        ",
"                                                                                                                        ",
"                                                                                                                        ",
"                                                                                                                        ",
"                                                                                                                        ",
"                                                                                                                        ",
"                                                                                                                        ",
"                                                                                                                        ",
"                                                                                                                        ",
"                                                                                                                        ",
"                                                                                                                        ",
"                                                                                                                        ",
"                                                                                                                        ",
"                                                                                                                        ",
"                                                                                                                        ",
"                                                                                                                        ",
"                                                                                                                        ",
"                                                                                                                        ",
"                                                                                                                        ",
"                                                                                                                        ",
"                                                                                                                        ",
"                                                                                                                        ",
"                                                                                                                        ",
"                                                                                                                        ",
"                                                                                                                        ",
"                                                                                                                        ",
"                                                                                                                        ",
"                                                                                                                        ",
"                                                                                                                        ",
"                                                                                                                        ",
"                                                                                                                        ",
"                                                                   &&&                                                  ",
"                                                                  &*=*&                                                 ",
"                                                                  &=2=&                                                 ",
"                                                                  &=4=&                                                 ",
"                                                                  &=4=&                                                 ",
"                                                                  &=4=&                                                 ",
"                                                                  &=4=&                                                 ",
"                                                                  &=4=&                                                 ",
"                                                                  &=4=&                                                 ",
"                                                                  &=4=&                                                 ",
"                                                                  &=4=&                                                 ",
"                                                                  &=4=&                                                 ",
"                                                                  &=4=&                                                 ",
"                                                                  &=4=&                                                 ",
"                                                                  &=4=&                                                 ",
"                                                                  &-4-&                                                 ",
"                                                                  &-4-&                                                 ",
"                                                                  &-4-&                                                 ",
"                                                                  &-4-&                                                 ",
"                                                                  &-4-&                                                 ",
"                                                                  &-4-&                                                 ",
"                                                                  &-4-&                                                 ",
"                                                      $;333;%     &-4-&                                                 ",
"                                                     $;;%$;%;     &-4-&                                                 ",
"                                                     $;%$;%$%     &-4-&                                                 ",
"                                                    $;%;;%$o$     &-4-&                                                 ",
"                                                    $;;%o$1%1     &-4-&                                                 ",
"                                                    $;%o$%%1%     &-4-&                                                 ",
"                                                    $%o$%$%%$     &-4-&                                                 ",
"                                                     ##.$%$$%     &-4-&                                                 ",
"                                                     +X3,3,       &-4-&                                                 ",
"                                                     ,,,XX.,      &-4-&                                                 ",
"                                                    +,#X.>3.,     &-4-&                                                 ",
"                                                    ,,+.@<>>X     &-4-&                                                 ",
"                                                    #,X.OO>@O     &:4:&                                                 ",
"                                                    #+X..O@.OO    &:4:&                                                 ",
"                                                    +,+X>..@>3@   &:4:&                                                 ",
"                                                    +#+X.>..@<>O  &:4:&                                                 ",
"                                                    +#,X...>..@OO &:4:&                                                 ",
"                                                    +#,X..@@>@.>3<&:4:&                                                 ",
"                                                    X+,+@@..O>@@<3<     3O                                              ",
"                                                    ++##...O.>..@<3<<   <>                                              ",
"                                                     O##..O>O.>..@>@@<3 O.                                              ",
"                                                     .+,X..O.O.>>....<.3..3                                             ",
"                                                   +%.##,O.O..@@O>>>.<....3                                             ",
"                                                   +X.....3;$.,>>>OO>>....,                                             ",
"                                                   +++##X>+++,XOOOOOOO....                                              ",
"                                                   +#X#+X+.X,X..O..OO.$o3%                                              ",
"                                                   +#XX,+X+,+X.......O%$o                                               ",
"                                                   +#X.X,,,.X....OO.O<                                                  ",
"                                                   +X#+,X.O>O..OO<><>                                                   ",
"                                                    +,,..O>3<O>....>                                                    ",
"                                                    X..>..O><>...>>                                                     ",
"                                                33<@OO..@>.O3<..>                                                       ",
"                                               .O@><3>@@.@.O><.>                                                        ",
"                                               .O>@..<<>@.@.O<@<                                                        ",
"                                               .OOO>>....XO.O><@<                                                       ",
"                                               .<33  >>O..@OO<<@@><                                                     ",
"                                               .3>.    >>O.@><@...O                                                     ",
"                                               ....        ...                                                          ",
"                                                                                                                        ",
"                                                                                                                        ",
"                                                                                                                        ",
"                                                                                                                        ",
"                                                                                                                        ",
"                                                                                                                        ",
"                                                                                                                        ",
"                                                                                                                        ",
"                                                                                                                        ",
"                                                                                                                        ",
"                                                                                                                        ",
"                                                                                                                        ",
"                                                                                                                        ",
"                                                                                                                        ",
"                                                                                                                        ",
"                                                                                                                        ",
"                                                                                                                        ",
"                                                                                                                        ",
"                                                                                                                        ",
"                                                                                                                        ",
"                                                                                                                        ",
"                                                                                                                        ",
"                                                                                                                        ",
"                                                                                                                        ",
"                                                                                                                        ",
"                                                                                                                        "
};
