/* XPM */
static char *luke_111[] = {
/* columns rows colors chars-per-pixel */
"120 120 24 1 ",
"  c None",
". c black",
"X c #201820",
"o c #502000",
"O c #082040",
"+ c #102848",
"@ c #382840",
"# c #003068",
"$ c #503858",
"% c #804010",
"& c #B86840",
"* c #009038",
"= c #20B838",
"- c #38C838",
"; c #48E038",
": c #60F840",
"> c #C8A038",
", c #0058A8",
"< c #705080",
"1 c #0878E8",
"2 c #6880A8",
"3 c #F0A880",
"4 c #D0D0D0",
"5 c #F8F8F8",
/* pixels */
"                                                                                                                        ",
"                                                                                                                        ",
"                                                                                                                        ",
"                                                                                                                        ",
"                                                                                                                        ",
"                                                                                                                        ",
"                                                                                                                        ",
"                                                                                                                        ",
"                                                                                                                        ",
"                                                                                                                        ",
"                                                                                                                        ",
"                                                                                                                        ",
"                                                                                                                        ",
"                                                                                                                        ",
"                                                                                                                        ",
"                                                                                                                        ",
"                                                                                                                        ",
"                                               *=-=*                                                                    ",
"                                               *=;=*                                                                    ",
"                                               *=5=*                                                                    ",
"                                               *=5=*                                                                    ",
"                                               *=5=*                                                                    ",
"                                               *-5-*                                                                    ",
"                                               *-5-*                                                                    ",
"                                               *-5-*                                                                    ",
"                                               *-5-*                                                                    ",
"                                               *-5-*                                                                    ",
"                                               *-5-*                                                                    ",
"                                               *-5-*                                                                    ",
"                                               *-5-*                                                                    ",
"                                               *-5-*                                                                    ",
"                                               *-5-*                                                                    ",
"                                               *-5-*                                                                    ",
"                                               *-5-*                                                                    ",
"                                               *-5-*                                                                    ",
"                                               *-5-*                                                                    ",
"                                               *-5-*                                                                    ",
"                                               *-5-*                                                                    ",
"                                               *-5-*                                                                    ",
"                                               *-5-*                                                                    ",
"                                               *-5-*                                                                    ",
"                                               *-5-*                                                                    ",
"                                               *-5-*                                                                    ",
"                                               *-5-* &>444>%                                                            ",
"                                               *-5-* >%>%&>>%                                                           ",
"                                               *-5-* &%%>%&>%                                                           ",
"                                               *;5;* %o%%>4&>%                                                          ",
"                                               *;5;* 3&3%o&4&%                                                          ",
"                                               *;5;* &3&&%o%>%                                                          ",
"                                               *;5;* %&&%&%o%%                                                          ",
"                                               *;5;* &%%&&o%%O                                                          ",
"                                               *;5;*   ..<<$<<O                                                         ",
"                                               *=5=*  @$$...<$#O                                                        ",
"                                                555   @<X#4,O$<#O                                                       ",
"                                                222   @<O#,1.<$.#O                                                      ",
"                                               :+2+:  @<.O#,.<$..#                                                      ",
"                                               2:::+4  @#O##.$<..#                                                      ",
"                                               :++:2.  @4,##.X<@.#                                                      ",
"                                               +2+:2.  ,1#.#.X<@.#                                                      ",
"                                               522++,41#,#O..X$<.#                                                      ",
"                                                +55+.#.O#.,....<@.                                                      ",
"                                                55 1.#...,.$...<@.                                                      ",
"                                                    ##,#....$$$<$%                                                      ",
"                                                        4X%%%&%%3%                                                      ",
"                                                        .4oo.%X%&%                                                      ",
"                                                        ,X$X@<<<%X                                                      ",
"                                                       #@<<<@X<<@<                                                      ",
"                                                      #,.@@@<$@<<@                                                      ",
"                                                     #,X.X...@<@@                                                       ",
"                                                    #,#O..XO#.@<                                                        ",
"                                                   #,#O...#.O,##                                                        ",
"                                                  #,#O...O#O.#1,#                                                       ",
"                                                  ,#O...OO #..#4#                                                       ",
"                                                  ,O...O    #.O#4#                                                      ",
"                                                  #...O     ,.OO,#                                                      ",
"                                                  #...1      #.##4#                                                     ",
"                                                   #,1.,     O..#1#                                                     ",
"                                                    #,..,    ,..#1#                                                     ",
"                                                      ,..,    ,..#1#                                                    ",
"                                                       #..,    ..#,1#                                                   ",
"                                                        ,..,   ,..O,#                                                   ",
"                                                        ,#.,    #1#O1                                                   ",
"                                                         ,..,    O,.41                                                  ",
"                                                         ,.#      O,.41                                                 ",
"                                                         1..       .1.,1                                                ",
"                                                        1,.         .,.41                                               ",
"                                                        ..           .,.1                                               ",
"                                                                      ,.4                                               ",
"                                                                       .,1                                              ",
"                                                                     144O,                                              ",
"                                                                     O,1.O                                              ",
"                                                                     ....                                               ",
"                                                                     ....                                               ",
"                                                                                                                        ",
"                                                                                                                        ",
"                                                                                                                        ",
"                                                                                                                        ",
"                                                                                                                        ",
"                                                                                                                        ",
"                                                                                                                        ",
"                                                                                                                        ",
"                                                                                                                        ",
"                                                                                                                        ",
"                                                                                                                        ",
"                                                                                                                        ",
"                                                                                                                        ",
"                                                                                                                        ",
"                                                                                                                        ",
"                                                                                                                        ",
"                                                                                                                        ",
"                                                                                                                        ",
"                                                                                                                        ",
"                                                                                                                        ",
"                                                                                                                        ",
"                                                                                                                        ",
"                                                                                                                        ",
"                                                                                                                        ",
"                                                                                                                        ",
"                                                                                                                        ",
"                                                                                                                        "
};
