/* XPM */
static char *luke_77[] = {
/* columns rows colors chars-per-pixel */
"120 120 25 1 ",
"  c None",
". c black",
"X c #201820",
"o c #502000",
"O c #082040",
"+ c #102848",
"@ c #382840",
"# c #003068",
"$ c #503858",
"% c #804010",
"& c #B86840",
"* c #009038",
"= c #08B030",
"- c #20D828",
"; c #60F840",
": c #C8A038",
"> c #A0F868",
", c #0058A8",
"< c #705080",
"1 c #0878E8",
"2 c #6880A8",
"3 c #F0A880",
"4 c #D0F888",
"5 c #D0D0D0",
"6 c #F8F8F8",
/* pixels */
"                                                                                                                        ",
"                                                                                                                        ",
"                                                                                                                        ",
"                                                                                                                        ",
"                                                                                                                        ",
"                                                                                                                        ",
"                                                                                                                        ",
"                                                                                                                        ",
"                                                                                                                        ",
"                                                                                                                        ",
"                                                                                                                        ",
"                                                                                                                        ",
"                                                                                                                        ",
"                                                                                                                        ",
"                                                                                                                        ",
"                                                                                                                        ",
"                                                                                                                        ",
"                                                                                                                        ",
"                                                                                                                        ",
"                                                                                                                        ",
"                                                                                                                        ",
"                                                                                                                        ",
"                                                                                                                        ",
"                                                                                                                        ",
"                                                                                                                        ",
"                                                                                                                        ",
"                                                                                                                        ",
"                                                                                                                        ",
"                                                                                                                        ",
"                                                                                                                        ",
"                                                                                                                        ",
"                                                                                                                        ",
"                                                                                                                        ",
"                                                                                                                        ",
"                                                                                                                        ",
"                                                                                                                        ",
"                                                                                                                        ",
"                                                                                                                        ",
"                                                                                                                        ",
"                                                                                                                        ",
"                                                                                                                        ",
"                                                                                                                        ",
"                                                                                                                        ",
"                                                                                                                        ",
"                                                                                                                        ",
"                                                                                                                        ",
"                                                                                                                        ",
"                                                                                                                        ",
"                                                                                  ****                                  ",
"                                                                                 *->>-**                                ",
"                                                                                *->6444-**                              ",
"                                                                               *->6444666-**                            ",
"                                                       %:555:&                *->6444666666-*                           ",
"                                                      %::&%:%:               *->644666666664-*                          ",
"                                                      %:&%:%%&              *->6466666666664-*                          ",
"                                                     %:&::%%o%             *>>64466666666644-*                          ",
"                                                     %&:%o%3&3           *->64446666666664>--*                          ",
"                                                     %:%o%&&3&          *->6666666666664>--**                           ",
"                                                      %o%&%&&%         *->666666666664>--**                             ",
"                                                   @@5X%o&&%%&        *->66666666644>--**                               ",
"                                                 @..$<X...3.@        *->66666666444--**                                 ",
"                                                ##5,.<@.@.&..       *>>6666666444--**                                   ",
"                                               #1#,1O$<@X@&.<@     *>6666666664;-**                                     ",
"                                               #.O#,O<$.X3%@@<    *>666666666;;**                                       ",
"                                               ##O##O<$..&&X@$  *>>6666664>--*                                          ",
"                                               #5,#..<$..%%1@$O*->666664>--**                                           ",
"                                               ,1#...$$XX11,@$*->46664>--**                                             ",
"                                               #,#O..@$XXX,@@*-46664>--**                                               ",
"                                               O#.1O@X<@X<O@*-66666--**                                                 ",
"                                                O..OOOXX@$$@->466>>**                                                   ",
"                                                O#.515222$6X664>>**                                                     ",
"                                                .O11.2224@6X=->**&                                                      ",
"                                                 ...624442+6O**%%%3                                                     ",
"                                                 X.166+++4+  OO % %                                                     ",
"                                               @<O$6662++4.                                                             ",
"                                               @<O$+6$X,1.5O                                                            ",
"                                              @<,O@<<@..#XO5@                                                           ",
"                                              X@@X....##...OO@@                                                         ",
"                                              XXX...#111,.@..5OO                                                        ",
"                                                ,#..#,155,.X.O1,OO                                                      ",
"                                                 #,..#,..5....OO1,O                                                     ",
"                                                   ,.O#..,#,#...OO,                                                     ",
"                                                    .,O..,  #,#...O                                                     ",
"                                                    5...,     #OO.O                                                     ",
"                                                    1551       1,1,                                                     ",
"                                                   5#..,      ,...,                                                     ",
"                                                   5#.,       ,..,                                                      ",
"                                                   #..,      ,..,                                                       ",
"                                                   #.,       O.,                                                        ",
"                                                   ..,       #.1                                                        ",
"                                                 5#.,        ,.#1                                                       ",
"                                                 155,        1..#,1                                                     ",
"                                                 5,.,        1....O                                                     ",
"                                                 ....                                                                   ",
"                                                                                                                        ",
"                                                                                                                        ",
"                                                                                                                        ",
"                                                                                                                        ",
"                                                                                                                        ",
"                                                                                                                        ",
"                                                                                                                        ",
"                                                                                                                        ",
"                                                                                                                        ",
"                                                                                                                        ",
"                                                                                                                        ",
"                                                                                                                        ",
"                                                                                                                        ",
"                                                                                                                        ",
"                                                                                                                        ",
"                                                                                                                        ",
"                                                                                                                        ",
"                                                                                                                        ",
"                                                                                                                        ",
"                                                                                                                        ",
"                                                                                                                        ",
"                                                                                                                        ",
"                                                                                                                        ",
"                                                                                                                        ",
"                                                                                                                        ",
"                                                                                                                        "
};
