/* XPM */
static char *luke_6[] = {
/* columns rows colors chars-per-pixel */
"120 120 25 1 ",
"  c None",
". c black",
"X c #201820",
"o c #502000",
"O c #082040",
"+ c #102848",
"@ c #382840",
"# c #003068",
"$ c #503858",
"% c #804010",
"& c #B86840",
"* c #009038",
"= c #10A038",
"- c #20B838",
"; c #38C838",
": c #48E038",
"> c #60F840",
", c #C8A038",
"< c #0058A8",
"1 c #705080",
"2 c #0878E8",
"3 c #6880A8",
"4 c #F0A880",
"5 c #D0D0D0",
"6 c #F8F8F8",
/* pixels */
"                                                                                                                        ",
"                                                                                                                        ",
"                                                                                                                        ",
"                                                                                                                        ",
"                                                                                                                        ",
"                                                                                                                        ",
"                                                                                                                        ",
"                                                                                                                        ",
"                                                                                                                        ",
"                                                                                                                        ",
"                                                                                                                        ",
"                                                                                                                        ",
"                                                                                                                        ",
"                                                                                                                        ",
"                                                                                                                        ",
"                                                                                                                        ",
"                                                                                                                        ",
"                                                                                                                        ",
"                                                                                                                        ",
"                                                                                                                        ",
"                                                                                                                        ",
"                                                                                                                        ",
"                                                                                                                        ",
"                                                                                                                        ",
"                                                                                                                        ",
"                                                                                                                        ",
"                                                *************                                                           ",
"                                               *-------------*                                                          ",
"                                             *=:>>666>>>>>>>>-*                                                         ",
"                                            *->>66666>>>66>>>-*                                                         ",
"                                            *->666666>>>66>>-*                                                          ",
"                                            *->666666>>666>>-*                                                          ",
"                                            *->666666>>66>>>*                                                           ",
"                                            *;666666>>>66>>-*                                                           ",
"                                            *;666666>>666>>-*                                                           ",
"                                            *;666666>>66>>-**                                                           ",
"                                            *;666666>>66>>-*                                                            ",
"                                            *;666666>666>>-*                                                            ",
"                                            *;666666>66>>-*                                                             ",
"                                            *;66666>>66>>-*                                                             ",
"                                            *:66666>666>>**                                                             ",
"                                            *;66666>66>>-                                                               ",
"                                            *;66666>66>>-                                                               ",
"                                            *;66666666>-*&                                                              ",
"                                            *;6666666>>-*,&                                                             ",
"                                            *;6666666>>*&o,                                                             ",
"                                            *;6666666>-*oo,                                                             ",
"                                            *;666666>>-*%o%                                                             ",
"                                            *:666666>;*&%%o                                                             ",
"                                            *;666666>-*%&%o                                                             ",
"                                            *;66666>>*4&%o                                                              ",
"                                            *;66666>-*.&%oX@@                                                           ",
"                                            *;66666>-*.4&.X$5@#                                                         ",
"                                            *;6666>>*X..4.$$115#                                                        ",
"                                            *;6666>-*$X.5%$11O<5#                                                       ",
"                                            *;6666>-*$X.4&11$.2<#                                                       ",
"                                            *:666>>*11X.4&2@$O.#<#                                                      ",
"                                            *:666>-*$1$.&%<@XO..O#                                                      ",
"                                            *:66>;*$11$X%2<@$X<.<5                                                      ",
"                                            *:66>-*X@$$XOOO@X  <.2#                                                     ",
"                                            *:66>-*X$1$X..1$X  <.<#                                                     ",
"                                            *:66:* X@$XX.1$@X  <.#O                                                     ",
"                                            *:>>-* X@X$X.1@$X   <#2                                                     ",
"                                            *:6:*  X$$XX1@$$X   <.<                                                     ",
"                                            *-6-*  X$X@X1@@$X   O.<                                                     ",
"                                            666O   $XX$1$@$$X   O.<                                                     ",
"                                            3362   &X&o%X55X    2.<                                                     ",
"                                            >+3+>  X.o.&5...    ..<                                                     ",
"                                            3>>>+  @@$1$X<2X2   4%%                                                     ",
"                                            >++>3  @$@$@X...O@ 4%4&                                                     ",
"                                            +3+>3  @1$@@@X@.2@ %o&%                                                     ",
"                                            633++ @@$@@1$X$#2X  o&%                                                     ",
"                                             +26+ @@$@11$.@.OX  %%                                                      ",
"                                               2  @XXXXXX.XO5O                                                          ",
"                                                   O....OXX.OO                                                          ",
"                                                   OO... O.O5O                                                          ",
"                                                   O<O.#  O..#O                                                         ",
"                                                  O2<O.#  O..<O                                                         ",
"                                                  O52.#   O.O2O                                                         ",
"                                                  O<O.#   O..#O                                                         ",
"                                                  O#O.O    O.OO                                                         ",
"                                                  O...O    #O.O                                                         ",
"                                                  552#      <#2                                                         ",
"                                                  2O<.      <.<                                                         ",
"                                                  2O<.      2.<                                                         ",
"                                                  2.<.      2.<                                                         ",
"                                                  2.<#      <.<                                                         ",
"                                                  2.<<      #.<                                                         ",
"                                                  2.<#      X#<                                                         ",
"                                                  <.#        #.2                                                        ",
"                                                  <2#        <.#2                                                       ",
"                                                 255<        2..#<2                                                     ",
"                                                 5<.<        2....O                                                     ",
"                                                 ....                                                                   ",
"                                                                                                                        ",
"                                                                                                                        ",
"                                                                                                                        ",
"                                                                                                                        ",
"                                                                                                                        ",
"                                                                                                                        ",
"                                                                                                                        ",
"                                                                                                                        ",
"                                                                                                                        ",
"                                                                                                                        ",
"                                                                                                                        ",
"                                                                                                                        ",
"                                                                                                                        ",
"                                                                                                                        ",
"                                                                                                                        ",
"                                                                                                                        ",
"                                                                                                                        ",
"                                                                                                                        ",
"                                                                                                                        ",
"                                                                                                                        ",
"                                                                                                                        ",
"                                                                                                                        ",
"                                                                                                                        ",
"                                                                                                                        ",
"                                                                                                                        ",
"                                                                                                                        "
};
