/* XPM */
static char *luke_177[] = {
/* columns rows colors chars-per-pixel */
"120 120 25 1 ",
"  c None",
". c black",
"X c #201820",
"o c #502000",
"O c #082040",
"+ c #102848",
"@ c #382840",
"# c #003068",
"$ c #503858",
"% c #804010",
"& c #B86840",
"* c #009038",
"= c #08B030",
"- c #20D828",
"; c #60F840",
": c #C8A038",
"> c #A0F868",
", c #0058A8",
"< c #705080",
"1 c #0878E8",
"2 c #6880A8",
"3 c #F0A880",
"4 c #D0F888",
"5 c #D0D0D0",
"6 c #F8F8F8",
/* pixels */
"                                                                                                                        ",
"                                                                                                                        ",
"                                                                                                                        ",
"                                                                                                                        ",
"                                                                                                                        ",
"                                                                                                                        ",
"                                                                                                                        ",
"                                                                                                                        ",
"                                                                                                                        ",
"                                                                                                                        ",
"                                                                                                                        ",
"                                                                                                                        ",
"                                                                                                                        ",
"                                                                                                                        ",
"                                                                                                                        ",
"                                                                                                                        ",
"                                                                                                                        ",
"                                                                                                                        ",
"                                                                                                                        ",
"                                                                                                                        ",
"                                                                                                                        ",
"                                                                                                                        ",
"                                                                                                                        ",
"                                                                                                                        ",
"                                                                                                                        ",
"                                                                                                                        ",
"                                                                                                                        ",
"                                                                                                                        ",
"                                                                                                                        ",
"                                                                                                                        ",
"                                                                                                                        ",
"                                                                                                                        ",
"                                                                                                                        ",
"                                                                                                                        ",
"                                                                                                                        ",
"                                                                                                                        ",
"                                                                                                                        ",
"                                                                                                                        ",
"                                                                                                                        ",
"                                                                                                                        ",
"                                                                                                                        ",
"                                                                                                                        ",
"                                                                                                                        ",
"                                                                                                                        ",
"                                                                                                                        ",
"                                                                                                                        ",
"                                                                                                                        ",
"                                                                                                                        ",
"                                                                                                                        ",
"                                                                                                                        ",
"                                                                                                                        ",
"                                                                                                                        ",
"                                                                                                                        ",
"                                                                                                                        ",
"                                                                                                                        ",
"                                                                                                                        ",
"                                                                                                                        ",
"                                                                                                                        ",
"                                                                                                                        ",
"                                                              %:555:&                                                   ",
"                                                             %::&%:%:                                                   ",
"                                                             %:&%:%%&                                                   ",
"                                                            %:&5:%%o%                                                   ",
"                                                            %&5&o%3&3                                                   ",
"                                                            %:%o%&&3&                                                   ",
"                                                           O1%o%&%&&%                                                   ",
"                                                          O#,#%o&&%%&                                                   ",
"                                                         ,,O#O@..%.@$@                                                  ",
"                                                        O1#.O@@.%%.<<5@                                                 ",
"                                                        O#.O@<@%&@$<O1O@                                                ",
"                                                       O#...$@X&3.<.,#5,O                                               ",
"                              **                       O#..O$@1%&..O,#,1O                                               ",
"                             *;;==                    O,..O$@,1%.$...O#,O                                               ",
"                             *66;;==                  ,..O $X,,1X$....##O                                               ",
"                             *;6664;==                O.OO $@OOOX$......#                                               ",
"                              *;;6664>==             O#.O  $X<X@$O..#O.OO                                               ",
"                               **;;>666>==           O33&  $$<X@$#,#O.#5,                                               ",
"                                 **=;>666>*          3&3%&X$<XX@$...,.,1#                                               ",
"                                   **=;;664;==    ########@%,XX$O.#O,.#,#                                               ",
"                                     **=;;664;== #,,,,,,,<@@,5.$....,.O#.                                               ",
"                                       **=;>664;==,OOOOOOX<@@@5X@.X.O...,                                               ",
"                                         **=;>664;==O..O..X<X.@X@$O..,.#,                                               ",
"                                           **=;>664;==....X@<@X@<XO..,.#,                                               ",
"                                             **=;>664>==...X.<<<X....,.#,                                               ",
"                                               **=;>666>==.O,O.X<@O..,.,                                                ",
"                                                 **=;>666>*15,O..<..,.O,                                                ",
"                                                   **=;;666>==..,.O.,.O,                                                ",
"                                                     **=;;466>==..O555.,                                                ",
"                                                       **=;;466>-=O1.15O.                                               ",
"                                                        1**=;466644++26O.                                               ",
"                                                       1#1,**;464+4+++6O.                                               ",
"                                                     1,##11OO*==++244421.                                               ",
"                                                     O...#1,#.O,+2+42225.                                               ",
"                                                          ...    ++222.,5                                               ",
"                                                                                                                        ",
"                                                                                                                        ",
"                                                                                                                        ",
"                                                                                                                        ",
"                                                                                                                        ",
"                                                                                                                        ",
"                                                                                                                        ",
"                                                                                                                        ",
"                                                                                                                        ",
"                                                                                                                        ",
"                                                                                                                        ",
"                                                                                                                        ",
"                                                                                                                        ",
"                                                                                                                        ",
"                                                                                                                        ",
"                                                                                                                        ",
"                                                                                                                        ",
"                                                                                                                        ",
"                                                                                                                        ",
"                                                                                                                        ",
"                                                                                                                        ",
"                                                                                                                        ",
"                                                                                                                        ",
"                                                                                                                        ",
"                                                                                                                        ",
"                                                                                                                        "
};
