/* XPM */
static char *luke_27[] = {
/* columns rows colors chars-per-pixel */
"120 120 23 1 ",
"  c None",
". c black",
"X c #201820",
"o c #502000",
"O c #082040",
"+ c #382840",
"@ c #003068",
"# c #503858",
"$ c #804010",
"% c #B86840",
"& c #009038",
"* c #08B030",
"= c #20D828",
"- c #60F840",
"; c #C8A038",
": c #A0F868",
"> c #0058A8",
", c #705080",
"< c #0878E8",
"1 c #F0A880",
"2 c #D0F888",
"3 c #D0D0D0",
"4 c #F8F8F8",
/* pixels */
"                                                                                                                        ",
"                                                                                                                        ",
"                                                                                                                        ",
"                                                                                                                        ",
"                                                                                                                        ",
"                                                                                                                        ",
"                                                                                                                        ",
"                                                                                                                        ",
"                                                                                                                        ",
"                                                                                                                        ",
"                                                                                                                        ",
"                                                                                                                        ",
"                                                                                                                        ",
"                                                                                                                        ",
"                                                                                                                        ",
"                                                                                                                        ",
"                                                                                                                        ",
"                                                                                                                        ",
"                                                                                                                        ",
"                                                                                                                        ",
"                                                                                                                        ",
"                                                                                                                        ",
"                                                                                                                        ",
"                                                                                                                        ",
"                                                                                                                        ",
"                                                                                                                        ",
"                                                                                                                        ",
"                                                                                                                        ",
"                                                                                                                        ",
"                                                                                                                        ",
"                                                                                                                        ",
"                                                                                                                        ",
"                                                                                                                        ",
"                                                                                                                        ",
"                                                                                                                        ",
"                                                                                                                        ",
"                                                                                                                        ",
"                                                                                                                        ",
"                                                                                                                        ",
"                                                                                                                        ",
"                                                                                                                        ",
"                                                                                                                        ",
"                                                                                                                        ",
"                                                                                                                        ",
"                                                                                                                        ",
"                                                                                                                        ",
"                                                                                                                        ",
"                                                                                                                        ",
"                                                            $;333;%                                                     ",
"                                                           $;;%$;%;                                                     ",
"                                                           $;%$;%$%                                                     ",
"                                                          $;%;;%$o$                                                     ",
"                                                          $;;%o$1%1                                                     ",
"                                                        OO$;%o$%%1%                                                     ",
"                                                       O<>$%o$%$%%$                                                     ",
"                                                      O>>>O#..$%$$%                                                     ",
"                                                     O>O@O+..$.+#+.                                                     ",
"                                                    O<>.O++.$$.,,3+                                                     ",
"                                                    O>>O+,+$%+,,OO.+                                                    ",
"                                                   OO@..#+X%1.#.@3>O                                                    ",
"                                                   O@..O#+<$%.,.@><O                                                    ",
"                                                   O>.O#+><$.#..O@>O                                                    ",
"                                                   O>>.#X>><XOO>O@@O                                                    ",
"                                                   O>..#+OOOX##@3>@@                                                    ",
"                                                   O@..#X,X+#O<><@.                                                     ",
"                                                   O>OO#X#,X#<O@>@O                                                     ",
"                                                   .o@OO+XX<<OOO@.@                                                     ",
"                                                   .<.3,3$<o3@@..@                                                      ",
"                                                   <..3O.%$oo...O@                                                      ",
"                                                   <.33.$$1$.O>>@                                                       ",
"                                             *********oooo,#oo.                                                         ",
"                                   &*================--++XXXX++                                                         ",
"                            *****====-::::::::::::2:224,#.+.XX#+                                                        ",
"                     ******=====-:::::222222222222444443,+.X.XX#+                                                       ",
"                   **======-:::::222224444444444444442:#+,XX##,##+                                                      ",
"                  *==-::::::222224444444444444444444::-O.##,,##X@>@                                                     ",
"                 *=-:2222222444444444444444444444442--=...OXXO...@>@                                                    ",
"                *=::244444444444444444444444444442::==O..O  O@O...@@O                                                   ",
"                =:2244444444444444444444444444442:--&>O.>O   O@....>O                                                   ",
"                =:24444444444444444444444444442::-==3>@@O     O@O@@@O                                                   ",
"                =:2444444444444444444444444442::**&>@<.O       O@O.O@                                                   ",
"                *:2444444444444444444444444:-:**& O.O.O          O@.O                                                   ",
"                *:24444444444444444444444:-=**&  >...>O         O...O                                                   ",
"                *:244444444444444444444::-*& &  >3<.@O          <@O@>                                                   ",
"                *-24444444444444444444::=*&    >3..<>          >@O@>                                                    ",
"                &=:2444444444444444:::***&     3.O>@           >.@>                                                     ",
"                 *:244444444444444:::=&&      >..>@           >..@                                                      ",
"                 *-2444444444444::-==*&      >3.O>           >O.@                                                       ",
"                 *=:4444444444::-=**&&       3.O>@           >O.>                                                       ",
"                  *-244444444::-=*&         ,.O>@           >.@>                                                        ",
"                  &*-444444::-=**&         >3O.>            <.><                                                        ",
"                   &=-:::---=*&&           33<.             >@.>>><                                                     ",
"                    &*******&&             3OO>             >.....>                                                     ",
"                                           .....                                                                        ",
"                                                                                                                        ",
"                                                                                                                        ",
"                                                                                                                        ",
"                                                                                                                        ",
"                                                                                                                        ",
"                                                                                                                        ",
"                                                                                                                        ",
"                                                                                                                        ",
"                                                                                                                        ",
"                                                                                                                        ",
"                                                                                                                        ",
"                                                                                                                        ",
"                                                                                                                        ",
"                                                                                                                        ",
"                                                                                                                        ",
"                                                                                                                        ",
"                                                                                                                        ",
"                                                                                                                        ",
"                                                                                                                        ",
"                                                                                                                        ",
"                                                                                                                        ",
"                                                                                                                        ",
"                                                                                                                        ",
"                                                                                                                        ",
"                                                                                                                        ",
"                                                                                                                        "
};
