/* XPM */
static char *luke_104[] = {
/* columns rows colors chars-per-pixel */
"120 120 23 1 ",
"  c None",
". c #102848",
"X c #800000",
"o c #901000",
"O c #A02000",
"+ c #B03000",
"@ c #C04000",
"# c #D05000",
"$ c #E06000",
"% c #F87000",
"& c #009038",
"* c #20B838",
"= c #48E038",
"- c #60F840",
"; c #F88810",
": c #F8A028",
"> c #F8B838",
", c #F8D050",
"< c #6880A8",
"1 c #F8E088",
"2 c #D0D0D0",
"3 c #F8E8C0",
"4 c #F8F8F8",
/* pixels */
"                                                                                                                        ",
"                                                                                                                        ",
"                                                                                                                        ",
"                                                                                                                        ",
"                                                                                                                        ",
"                                                                                                                        ",
"                                                                                                                        ",
"                                                                                                                        ",
"                                                                                                                        ",
"                                                                                                                        ",
"                                                                                                                        ",
"                                                                                                                        ",
"                                                                                                                        ",
"                                                                                                                        ",
"                                                                                                                        ",
"                                                                                                                        ",
"                                                                                                                        ",
"                                                                                                                        ",
"                                                                                                                        ",
"                                                                                                                        ",
"                                                                                                                        ",
"                                                                                                                        ",
"                                                                                                                        ",
"                                                                                                                        ",
"                                                                                                                        ",
"                                                                                                                        ",
"                                                                                                                        ",
"                                                                                                                        ",
"                                                                                                                        ",
"                                                                                                                        ",
"                                                                                                                        ",
"                                                                                                                        ",
"                                                                                                                        ",
"                                                                                                                        ",
"                                                                                                                        ",
"                                                                                                                        ",
"                                                                                                                        ",
"                                                                                                                        ",
"                                                                                                                        ",
"                                                                                                                        ",
"                                                                                                                        ",
"                                                                                                                        ",
"                                         &**&                                                                           ",
"                                        &*=-*&              3>:::>1                                                     ",
"                                        &*-4-*&             >1>13>>1                                                    ",
"                                         &*-4-*&            311>13>1                                                    ",
"                                          &*-4-*&           1,11>:3>1                                                   ",
"                                           &*-4-*&          4341,3:31                                                   ",
"                                            &*-4-*&         34331,1>1                                                   ",
"                                             &*-4-*&        133131,1                                                    ",
"                                              &*-4-*&       31133,1                                                     ",
"                                               &*-4-*&       @34@@@O                                                    ",
"                                                &*-4-*&     O@4@@+o:OO                                                  ",
"                                                 &*-4-*&   O@1:@@+oXX:O                                                 ",
"                                                  &*-4-*& OX@34@+oXX#%:$                                                ",
"                                                   &*-4-*&XO+34@+oXo@;%$                                                ",
"                                                    &*-4-*&O;13@+XXo#%$$                                                ",
"                                                     &*-4-*&%;1@oXo+#$$%$                                               ",
"                                                      &*-4-*&%;+oXXo@@$%:                                               ",
"                                                       &*-4-*&#+ooO+@%@$;$                                              ",
"                                                        &*-4-*&+oXo@@#%@%$                                              ",
"                                                         &*-4-*&+oO@+#%@$#                                              ",
"                                                         #&*-4-*&+O@+#%@$;                                              ",
"                                                         #@&*-4-*&o@o #%$%                                              ",
"                                                        #%+o&*-4-*&@o #%@$                                              ",
"                                                        #$@oo&*-4-*&O  #@$                                              ",
"                                                        #@@ +:&*-4-&&  #@$                                              ",
"                                                        #@; @@@&=-4*+- ;@:                                              ",
"                                                        11 ;+;%+&*-.4-.-@%                                              ",
"                                                        34O#@@@+O&.4<.-.@%                                              ",
"                                                        13O;@O+OOOoX4.-.@%                                              ",
"                                     4                  13+;$o+oXOOoO<--.44                                             ",
"                                                         1+#@O@oXXOoO<<<-4                                              ",
"                                                          #:#+@++++++.<<<                                               ",
"                                                          ##@++#@@@@#  ;4                                               ",
"                                                          #:#@# @@@##                                                   ",
"                                                         #$@@#  $@#%#                                                   ",
"                                                         #%@@#  $@#%;#                                                  ",
"                                                         #;#@#   $@;2#                                                  ",
"                                                         #$@@#   $@#%#                                                  ",
"                                                         ##@#    #@#$#                                                  ",
"                                                         #@#$    #@@@#                                                  ",
"                                                         ;$%      $;22                                                  ",
"                                                         %@%      @%#;                                                  ",
"                                                         %@;      @%#;                                                  ",
"                                                         %@;      @%@;                                                  ",
"                                                         %@%      $%@;                                                  ",
"                                                         %@$      %%@;                                                  ",
"                                                         %$+      $%@;                                                  ",
"                                                        ;@$        $@%                                                  ",
"                                                       ;$@%        $;%                                                  ",
"                                                     ;%$@@;        %22;                                                 ",
"                                                     #@@@@;        %@%2                                                 ",
"                                                                   @@@@                                                 ",
"                                                                   @@@@                                                 ",
"                                                                                                                        ",
"                                                                                                                        ",
"                                                                                                                        ",
"                                                                                                                        ",
"                                                                                                                        ",
"                                                                                                                        ",
"                                                                                                                        ",
"                                                                                                                        ",
"                                                                                                                        ",
"                                                                                                                        ",
"                                                                                                                        ",
"                                                                                                                        ",
"                                                                                                                        ",
"                                                                                                                        ",
"                                                                                                                        ",
"                                                                                                                        ",
"                                                                                                                        ",
"                                                                                                                        ",
"                                                                                                                        ",
"                                                                                                                        ",
"                                                                                                                        ",
"                                                                                                                        ",
"                                                                                                                        ",
"                                                                                                                        ",
"                                                                                                                        "
};
