/* XPM */
static char *luke_12[] = {
/* columns rows colors chars-per-pixel */
"120 120 16 1 ",
"  c None",
". c black",
"X c #201820",
"o c #502000",
"O c #082040",
"+ c #382840",
"@ c #003068",
"# c #503858",
"$ c #804010",
"% c #B86840",
"& c #C8A038",
"* c #0058A8",
"= c #705080",
"- c #0878E8",
"; c #F0A880",
": c #D0D0D0",
/* pixels */
"                                                                                                                        ",
"                                                                                                                        ",
"                                                                                                                        ",
"                                                                                                                        ",
"                                                                                                                        ",
"                                                                                                                        ",
"                                                                                                                        ",
"                                                                                                                        ",
"                                                                                                                        ",
"                                                                                                                        ",
"                                                                                                                        ",
"                                                                                                                        ",
"                                                                                                                        ",
"                                                                                                                        ",
"                                                                                                                        ",
"                                                                                                                        ",
"                                                                                                                        ",
"                                                                                                                        ",
"                                                                                                                        ",
"                                                                                                                        ",
"                                                                                                                        ",
"                                                                                                                        ",
"                                                                                                                        ",
"                                                                                                                        ",
"                                                                                                                        ",
"                                                                                                                        ",
"                                                                                                                        ",
"                                                                                                                        ",
"                                                                                                                        ",
"                                                                                                                        ",
"                                                                                                                        ",
"                                                                                                                        ",
"                                                                                                                        ",
"                                                                                                                        ",
"                                                                                                                        ",
"                                                                                                                        ",
"                                                                                                                        ",
"                                                                                                                        ",
"                                                                                                                        ",
"                                                                                                                        ",
"                                                                                                                        ",
"                                                                                                                        ",
"                                                                                                                        ",
"                                                                                                                        ",
"                                                                                                                        ",
"                                                                                                                        ",
"                                                                                                                        ",
"                                                                                                                        ",
"                                                                                                                        ",
"                                                                                                                        ",
"                                                                                                                        ",
"                                                                                                                        ",
"                                                                                                                        ",
"                                                                                                                        ",
"                                                                                                                        ",
"                                                                                                                        ",
"                                                                                                                        ",
"                                                                                                                        ",
"                                                                                                                        ",
"                                                                                                                        ",
"                                                                                                                        ",
"                                                                                                                        ",
"                                                                                                                        ",
"                                                                                                                        ",
"                                                                                                                        ",
"                                                                                                                        ",
"                                                                                                                        ",
"                                                                                                                        ",
"                                                                                                                        ",
"                                                                                                                        ",
"                                                                                                                        ",
"                                                                                                                        ",
"                                                                                                                        ",
"                                                                                                                        ",
"                                                                                                                        ",
"                                                                                                                        ",
"                                                                                                                        ",
"                                                                                                                        ",
"                                                                                                                        ",
"                                                                                                                        ",
"                                                                                                                        ",
"                                                                                                                        ",
"                                       @*@O.*@                                                                          ",
"                                      @*@O..@*@                                                                         ",
"                                     @*@O....OO                                                                         ",
"                                    =*@O...O..--                                                                        ",
"                                   +#=O...O@.-X.-                                                                       ",
"                         XXXXXX#.++#==...O*  X...-                                                                      ",
"                %%&$o +XX+###+++o:.=+X=.O*    X...-                                                                     ",
"        %$$;   %:&$%%%$.##====##o.:.XX+=@      ...--                                                                    ",
"        $$$%;**:&&o%;%;$$XXX##===.o$XX==--:-O  O.O.-                                                                    ",
"        %%%$$..:&$$%o$o.O...XXXX##.$==##=@@@--:---..-       -:..                                                        ",
"        oo$$o@@:$$oooo$.*X**----XX.o####=.O.@@@@@@@-:::::-**:*..                                                        ",
"               %&ooo$$o*..-@O....----++++-Ooo..O..O*OO.....-:...                                                        ",
"                %&&$oo+.#.:*@@.......----.;;;;%-@O.@******@@**..                                                        ",
"                         .*-*@.O:-*.......$$$%%;.........OOOOO                                                          ",
"                          OOOO@O*@@.****OOo%o$;%                                                                        ",
"                          OOOO@O*@@.****OOo%o$;%                                                                        ",
"                                                                                                                        ",
"                                                                                                                        ",
"                                                                                                                        ",
"                                                                                                                        ",
"                                                                                                                        ",
"                                                                                                                        ",
"                                                                                                                        ",
"                                                                                                                        ",
"                                                                                                                        ",
"                                                                                                                        ",
"                                                                                                                        ",
"                                                                                                                        ",
"                                                                                                                        ",
"                                                                                                                        ",
"                                                                                                                        ",
"                                                                                                                        ",
"                                                                                                                        ",
"                                                                                                                        ",
"                                                                                                                        ",
"                                                                                                                        ",
"                                                                                                                        ",
"                                                                                                                        "
};
