/* XPM */
static char *luke_jump2[] = {
/* columns rows colors chars-per-pixel */
"120 120 23 1 ",
"  c None",
". c black",
"X c #201820",
"o c #502000",
"O c #082040",
"+ c #102848",
"@ c #382840",
"# c #003068",
"$ c #503858",
"% c #804010",
"& c #B86840",
"* c #009038",
"= c #20D828",
"- c #C8A038",
"; c #A0F868",
": c #0058A8",
"> c #705080",
", c #0878E8",
"< c #6880A8",
"1 c #F0A880",
"2 c #D0F888",
"3 c #D0D0D0",
"4 c #F8F8F8",
/* pixels */
"                                                                                                                        ",
"                                                                                                                        ",
"                                                                                                                        ",
"                                                                                                                        ",
"                                                                                                                        ",
"                                                                                                                        ",
"                                                                                                                        ",
"                                                                                                                        ",
"                                                                                                                        ",
"                                                                                                                        ",
"                                                                                                                        ",
"                                                                                                                        ",
"                                                                                                                        ",
"                                                                                                                        ",
"                                                                                                                        ",
"                                                                                                                        ",
"                                                                                                                        ",
"                                                                                                                        ",
"                                                                                                                        ",
"                                                                                                                        ",
"                                                                                                                        ",
"                                                                                                                        ",
"                                                                                                                        ",
"                                                                                                                        ",
"                                                                                                                        ",
"                                                                                                                        ",
"                                                                                                                        ",
"                                                                                                                        ",
"                                                                                                                        ",
"                                                                                                                        ",
"                                                                                                                        ",
"                                                                                                                        ",
"                                                                         **                                             ",
"                                                                        *==*                                            ",
"                                                                       *=2;=*                                           ",
"                                                                      *=242=*                                           ",
"                                                                     *=242=*                                            ",
"                                                                    *=242=*                                             ",
"                                                                   *=242=*                                              ",
"                                                                  *=242=*                                               ",
"                                                                 *=242=*                                                ",
"                                                                *=242=*                                                 ",
"                                                               *=242=*                                                  ",
"                                                              *=242=*                                                   ",
"                                                             *=242=*                                                    ",
"                                                            *=242=*                                                     ",
"                                                           *=242=*                                                      ",
"                                                          *=242=*                                                       ",
"                                                         *=242=*                                                        ",
"                                                       %*=242=*-                                                        ",
"                                                      %*=242=*%&                                                        ",
"                                                      *=242=*%o%                                                        ",
"                                                     *=242=*%1&1                                                        ",
"                                                    *=242=*%&&1&                                                        ",
"                                                   *=242=*%&%&&%                                                        ",
"                                                  *=242=*:o.&%%&                                                        ",
"                                              OO3*=242=*.#:.%.                                                          ",
"                                            O.O:**242=*X>>.1%.                                                          ",
"                                           O3,.2O=42;*#O$$.1&X@$                                                        ",
"                                           :,2+24+2=*.#O>.&%,@$$O                                                       ",
"                                           O.+2+<4+*::.$.%,:@$X#,O                                                      ",
"                                          O#.+2+4  X..:$X,::@$X.#:O                                                     ",
"                                          44+22<   X..$X...@$@$..##O                                                    ",
"                                           42<<<   X.$@XX>$X$@$...OO                                                    ",
"                                            <<<+   $$$X@X>$X@$X#.O#:O                                                   ",
"                                            4      X$X@X>$X$XX# :..O:O                                                  ",
"                                                  o&.XXXXXXXX    #..O#                                                  ",
"                                                 o&o%X333,.       :O&&%                                                 ",
"                                                 .XX3,#,33,.       &%%1%                                                ",
"                                                X>X,##.:3:#.OOOOO  %%%%1                                                ",
"                                               X>X,#...#:#O.OO::,O  %&%&                                                ",
"                                               X>X#....O#O.O::O#:,O  % %                                                ",
"                                               X$X....O.OO.#OO.##:O                                                     ",
"                                               XXX....33:..O..OO#:O                                                     ",
"                                                 #...3...,..##.o##O                                                     ",
"                                                  ###:O.::##.....                                                       ",
"                                                    O:O.,    :.O:                                                       ",
"                                                    3>.:,   :..O,                                                       ",
"                                                    :..,   :..O,                                                        ",
"                                                    3>.,   :.O,                                                         ",
"                                                    :.33  :.O,                                                          ",
"                                                    33.. :.O,                                                           ",
"                                                    3.O: O..:                                                           ",
"                                                   3,..O .OO:                                                           ",
"                                                   ,.O:   .O,:                                                          ",
"                                                   ,..     ..O                                                          ",
"                                                   ..                                                                   ",
"                                                                                                                        ",
"                                                                                                                        ",
"                                                                                                                        ",
"                                                                                                                        ",
"                                                                                                                        ",
"                                                                                                                        ",
"                                                                                                                        ",
"                                                                                                                        ",
"                                                                                                                        ",
"                                                                                                                        ",
"                                                                                                                        ",
"                                                                                                                        ",
"                                                                                                                        ",
"                                                                                                                        ",
"                                                                                                                        ",
"                                                                                                                        ",
"                                                                                                                        ",
"                                                                                                                        ",
"                                                                                                                        ",
"                                                                                                                        ",
"                                                                                                                        ",
"                                                                                                                        ",
"                                                                                                                        ",
"                                                                                                                        ",
"                                                                                                                        ",
"                                                                                                                        ",
"                                                                                                                        ",
"                                                                                                                        ",
"                                                                                                                        ",
"                                                                                                                        ",
"                                                                                                                        ",
"                                                                                                                        ",
"                                                                                                                        "
};
