/* XPM */
static char *luke_169[] = {
/* columns rows colors chars-per-pixel */
"120 120 24 1 ",
"  c None",
". c black",
"X c #201820",
"o c #502000",
"O c #082040",
"+ c #102848",
"@ c #382840",
"# c #003068",
"$ c #503858",
"% c #804010",
"& c #B86840",
"* c #009038",
"= c #08B030",
"- c #20D828",
"; c #60F840",
": c #C8A038",
"> c #A0F868",
", c #0058A8",
"< c #705080",
"1 c #0878E8",
"2 c #F0A880",
"3 c #D0F888",
"4 c #D0D0D0",
"5 c #F8F8F8",
/* pixels */
"                                                                                                                        ",
"                                                                                                                        ",
"                                                                                                                        ",
"                                                                                                                        ",
"                                                                                                                        ",
"                                                                                                                        ",
"                                                                                                                        ",
"                                                                                                                        ",
"                                                                                                                        ",
"                                                                                                                        ",
"                                                                                                                        ",
"                                                                                                                        ",
"                                                                                                                        ",
"                 **********************                                                                                 ",
"                =---------------------=*                                                                                ",
"                -;>>>>>>>>>>>>>>>>>>>>-=*                                                                               ",
"               =;>33333333333333333333>;=                                                                               ",
"              =;>3555555555555555555553>-                                                                               ",
"              -;35555555555555555555553>-                                                                               ",
"              ->35555555555555555555553>-                                                                               ",
"              ->35555555555555555555553>-                                                                               ",
"              -;>3555555555555555555553>;=                                                                              ",
"               -;35555555555555555555533;=                                                                              ",
"                ->3555555555555555555553;=                                                                              ",
"                 ;>355555555555555555553>-                                                                              ",
"                 =;>35555555555555555553>-*                                                                             ",
"                  -;>3555555555555555553>-*                                                                             ",
"                   =;>5555555555555555553;=                                                                             ",
"                    -;3555555555555555553;=                                                                             ",
"                     ->355555555555555553;=                                                                             ",
"                     =;>55555555555555553>-*                                                                            ",
"                     *=;35555555555555553>-*                                                                            ",
"                      *=->355555555555553>-*                                                                            ",
"                       *=->35555555555553>-*                                                                            ",
"                        *=->5555555555553>-*                                                                            ",
"                         *=-3555555555553>-*                                                                            ",
"                          *=->35555555553>-*                                                                            ",
"                           *=->3555555555>;*                                                                            ",
"                            *=->5555555553;*                                                                            ",
"                             *=-5555555553;*                                                                            ",
"                              *=>555555553;=                                                                            ",
"                               *=->3555553;=                                                                            ",
"                                *=->355553;=                                                                            ",
"                                 *=->55553;=                                                                            ",
"                                  *=->5553;=                                                                            ",
"                                   *=-35533-                                                                            ",
"                                    *=>33>;-                &:::                                                        ",
"                                     *->>;-                &%%&::%                                                      ",
"                                      *---                 :&%%&::%                                                     ",
"                                       **                  &%%&%&:4%                                                    ",
"                                           +. OOO          %o%%::4::                                                    ",
"                                           5..,14O         2&2%o%o%&                                                    ",
"                                            +OOOO4O        %%&%%o&&                                                     ",
"                                            ,544<OOOOO   OOOO,%.oo                                                      ",
"                                            ,#..4.4...OO##,O#OOOO<@                                                     ",
"                                            #,#5...,,,,#,14O.#,1,@4@                                                    ",
"                                            .##.5.4....O#,#..##,4O<@                                                    ",
"                                            ...##+4..,.....O..O##14@                                                    ",
"                                            .O...+5...O,,,O#...,,O<@                                                    ",
"                                            ..O..O#..........OO.@<<@                                                    ",
"                                             ,.O.#,#....%......O@4@                                                     ",
"                                             1,...O1,...o....@@@<<@                                                     ",
"                                              .,...O1#..oo.@@$<4<@                                                      ",
"                                              .O.O..O,#.%%.X$4<@@                                                       ",
"                                            1..O.. ..O,.%:$$X@@                                                         ",
"                                            ,OO.O,  .....<O                                                             ",
"                                            4...4    ,..4O                                                              ",
"                                             444   ,.4,  ,                                                              ",
"                                                   444                                                                  ",
"                                                                                                                        ",
"                                                                                                                        ",
"                                                                                                                        ",
"                                                                                                                        ",
"                                                                                                                        ",
"                                                                                                                        ",
"                                                                                                                        ",
"                                                                                                                        ",
"                                                                                                                        ",
"                                                                                                                        ",
"                                                                                                                        ",
"                                                                                                                        ",
"                                                                                                                        ",
"                                                                                                                        ",
"                                                                                                                        ",
"                                                                                                                        ",
"                                                                                                                        ",
"                                                                                                                        ",
"                                                                                                                        ",
"                                                                                                                        ",
"                                                                                                                        ",
"                                                                                                                        ",
"                                                                                                                        ",
"                                                                                                                        ",
"                                                                                                                        ",
"                                                                                                                        ",
"                                                                                                                        ",
"                                                                                                                        ",
"                                                                                                                        ",
"                                                                                                                        ",
"                                                                                                                        ",
"                                                                                                                        ",
"                                                                                                                        ",
"                                                                                                                        ",
"                                                                                                                        ",
"                                                                                                                        ",
"                                                                                                                        ",
"                                                                                                                        ",
"                                                                                                                        ",
"                                                                                                                        ",
"                                                                                                                        ",
"                                                                                                                        ",
"                                                                                                                        ",
"                                                                                                                        ",
"                                                                                                                        ",
"                                                                                                                        ",
"                                                                                                                        ",
"                                                                                                                        ",
"                                                                                                                        ",
"                                                                                                                        ",
"                                                                                                                        "
};
