/* XPM */
static char *luke_attack_b3[] = {
/* columns rows colors chars-per-pixel */
"120 120 23 1 ",
"  c None",
". c black",
"X c #201820",
"o c #502000",
"O c #082040",
"+ c #382840",
"@ c #003068",
"# c #503858",
"$ c #804010",
"% c #B86840",
"& c #009038",
"* c #10A038",
"= c #20B838",
"- c #38C838",
"; c #48E038",
": c #60F840",
"> c #C8A038",
", c #0058A8",
"< c #705080",
"1 c #0878E8",
"2 c #F0A880",
"3 c #D0D0D0",
"4 c #F8F8F8",
/* pixels */
"                                                                                                                        ",
"                                                                                                                        ",
"                                                                                                                        ",
"                                                                                                                        ",
"                                                                                                                        ",
"                                                                                                                        ",
"                                                                                                                        ",
"                                                                                                                        ",
"                                                                                                                        ",
"                                                                                                                        ",
"                                                                                                                        ",
"                                                                                                                        ",
"                                                                                                                        ",
"                                                                                                                        ",
"                                                                                                                        ",
"                                                                                                                        ",
"                                                                                                                        ",
"                                                                                                                        ",
"                                                                                                                        ",
"                                                                                                                        ",
"                                                                                                                        ",
"                                                                                                                        ",
"                                                                                                                        ",
"                                  &*******&&                                                                            ",
"                                 &=-;;;---=*&&                                                                          ",
"                                &*-444444;;-=**&                                                                        ",
"                                *-:44444444;;-=*&                                                                       ",
"                               *=;4444444444;;-=**&&                                                                    ",
"                               *-:444444444444;;-==*&                                                                   ",
"                               *;:44444444444444;;;=&&                                                                  ",
"                              &=;:444444444444444;;;***&                                                                ",
"                              *-:4444444444444444444;;=*&                                                               ",
"                              *;:44444444444444444444;;-*& &                                                            ",
"                              *;:4444444444444444444444;-=**&                                                           ",
"                              *;:444444444444444444444444;-;**&                                                         ",
"                              =;:44444444444444444444444444:;;**&                                                       ",
"                              =;:444444444444444444444444444:;;-==                                                      ",
"                              =;::4444444444444444444444444444:;--&                                                     ",
"                              *=;;:4444444444444444444444444444:;;==                                                    ",
"                               *=-;:::::::44444444444444444444444:--=                                                   ",
"                                *==-;;;;;;:::::4444444444444444444;;-                                                   ",
"                                 **======-;;;;;:::::444444444444444:;                                                   ",
"                                   ******=====-;;;;;::::::::::::44444                                                   ",
"                                          *****====-;;;;;;;;;;;;:;::431                                                 ",
"                                                 &*================--O,O3,,.3$                                          ",
"                                                           *********   .,1...3                                          ",
"                                                                         11...3$$                                       ",
"                                                                         ,@1.@1%2$                                      ",
"                                                                         @.@.31%o%$                                     ",
"                                                                    $>>>%>$@OO,@%o%                                     ",
"                                                                  $$>%%$$%o@1., $%O                                     ",
"                                                                 $>3$$>%$$$@1.@,@.O@                                    ",
"                                                                  $>3%%$$o$@1.O,@.,@                                    ",
"                                                                  %$o$o$2%2@1.O,@.O@                                    ",
"                                                                   %%o$%%2OOO,.,..,@                                    ",
"                                                                      +++@,@O.O,..,@                                    ",
"                                                                     +<.@31,@@,..,O                                     ",
"                                                                     +@OO,@@.,+.@,@                                     ",
"                                                                    +3,@@@.O,#+..@                                      ",
"                                                                    +,1,@O,,X#+..@                                      ",
"                                                                    +O.@.,@%$+<O@                                       ",
"                                                                    +<@..#.2%X+X@                                       ",
"                                                                     +@.O,.%$1++X                                       ",
"                                                                     ++X,O.$1,+X+                                       ",
"                                                                     +++X#X1,,+##                                       ",
"                                                                     ++<X.#XOOO+#                                       ",
"                                                                      ++X..<#X<##                                       ",
"                                                                       +<.X<#X#+#                                       ",
"                                                                        +X++#<#X+                                       ",
"                                                                        +++#+<#++                                       ",
"                                                                        +X#+X<#+X                                       ",
"                                                                         X$%$.33.$                                      ",
"                                                                         ooooo<#oo                                      ",
"                                                                         +<++XXXX++                                     ",
"                                                                         +<<#.+.XX#+                                    ",
"                                                                         +#3<+.X.XX#+                                   ",
"                                                                        +o1#+<XX##<##+                                  ",
"                                                                        @3@O.##<<##X@,@                                 ",
"                                                                        @1@...OXXO...@,@                                ",
"                                                                       @3,O..O  O@O...@@O                               ",
"                                                                       @1,O.,O   O@....,O                               ",
"                                                                      @33,@@O     O@O@@@O                               ",
"                                                                      1,@1.O       O@O.O@                               ",
"                                                                      O.O.O          O@.O                               ",
"                                                                     ,...,O         O...O                               ",
"                                                                    ,31.@O          1@O@,                               ",
"                                                                   ,3..1,          ,@O@,                                ",
"                                                                   3.O,@           ,.@,                                 ",
"                                                                  ,..,@           ,..@                                  ",
"                                                                 ,3.O,           ,O.@                                   ",
"                                                                 3.O,@           ,O.,                                   ",
"                                                                <.O,@           ,.@,                                    ",
"                                                               ,3O.,            1.,1                                    ",
"                                                               331.             ,@.,,,1                                 ",
"                                                               3OO,             ,.....,                                 ",
"                                                               .....                                                    ",
"                                                                                                                        ",
"                                                                                                                        ",
"                                                                                                                        ",
"                                                                                                                        ",
"                                                                                                                        ",
"                                                                                                                        ",
"                                                                                                                        ",
"                                                                                                                        ",
"                                                                                                                        ",
"                                                                                                                        ",
"                                                                                                                        ",
"                                                                                                                        ",
"                                                                                                                        ",
"                                                                                                                        ",
"                                                                                                                        ",
"                                                                                                                        ",
"                                                                                                                        ",
"                                                                                                                        ",
"                                                                                                                        ",
"                                                                                                                        ",
"                                                                                                                        ",
"                                                                                                                        ",
"                                                                                                                        ",
"                                                                                                                        "
};
