/* XPM */
static char *luke_141[] = {
/* columns rows colors chars-per-pixel */
"120 120 23 1 ",
"  c None",
". c black",
"X c #201820",
"o c #502000",
"O c #082040",
"+ c #382840",
"@ c #003068",
"# c #503858",
"$ c #804010",
"% c #B86840",
"& c #009038",
"* c #08B030",
"= c #20D828",
"- c #60F840",
"; c #C8A038",
": c #A0F868",
"> c #0058A8",
", c #705080",
"< c #0878E8",
"1 c #F0A880",
"2 c #D0F888",
"3 c #D0D0D0",
"4 c #F8F8F8",
/* pixels */
"                                                                                                                        ",
"                                                                                                                        ",
"                                                                                                                        ",
"                                                                                                                        ",
"                                                                                                                        ",
"                                                                                                                        ",
"                                                                                                                        ",
"                                                                                                                        ",
"                                                                                                                        ",
"                                                                                                                        ",
"                                                                                                                        ",
"                                                                                                                        ",
"                                                                                                                        ",
"                                                                                                                        ",
"                                                                                                                        ",
"                                                                                                                        ",
"                                                                                                                        ",
"                                                                                                                        ",
"                                                                                                                        ",
"                                                                                                                        ",
"                                                                               &&&&                                     ",
"                                                                              &=-=*&                                    ",
"                                                                             &=-24=&                                    ",
"                                                                            &=-242-&                                    ",
"                                                                           &=-244-=&                                    ",
"                                                                          &=-244-=&                                     ",
"                                                                         &=-244-=&                                      ",
"                                                                        &=-244-=&                                       ",
"                                                                       &=-244-=&                                        ",
"                                                                      &=-244-=&                                         ",
"                                                                     &=-244-=&                                          ",
"                                                                    &=-244-=&                                           ",
"                                                                   &=-244-=&                                            ",
"                                                                  &=-244-=&                                             ",
"                                                                 &=-244-=&                                              ",
"                                                                &=-244-=&                                               ",
"                                                               &=-244-=&                                                ",
"                                                              &=-244-=&                                                 ",
"                                                             &=-244-=&                                                  ",
"                                                            &=-244-=&                                                   ",
"                                                           &=-244-=&                                                    ",
"                                                          &=-244-=&                                                     ",
"                                                         &=-244-=&                                                      ",
"                                                        &=-244-=&;$                                                     ",
"                                                        =:244-=&%;;$                                                    ",
"                                                      >3:242-=&;$%;$                                                    ",
"                                                      .< 42:=&$%;;%;$                                                   ",
"                                                    33.3  :-&%1$o%;;$                                                   ",
"                                                  $3..3.    %1%%$o%;$                                                   ",
"                                                 $%3...O    $%%$%$o%$                                                   ",
"                                                 $%<..O     %$$%$.##                                                    ",
"                                                 <O..<O     O$$X++                                                      ",
"                                                 3>.@3O    ##3,,,#+                                                     ",
"                                                 O>O><3O@>@.@OO,,#,+                                                    ",
"                                                  >OO@O@>3@O>3O+,,#+                                                    ",
"                                                   >..O><>O@<>OX,,#+                                                    ",
"                                                    >.O@@O..OO.X+,+X                                                    ",
"                                                    O>.OO.O...>X+#++                                                    ",
"                                                     O>>>>>O>>.X+,#+                                                    ",
"                                                         O,.@...X,#+                                                    ",
"                                                         O,O.@..X,#+                                                    ",
"                                                         O,X.@..+,+X                                                    ",
"                                                          ##O.O.##++                                                    ",
"                                                          X,>O..##O                                                     ",
"                                                          O#,,XX,+                                                      ",
"                                                          .O+,,,##                                                      ",
"                                                         .$.<333X$o%o                                                   ",
"                                                          .<33<@<3XX.                                                   ",
"                                                     OOOOO.@>3>.@@<X,X                                                  ",
"                                                    O<>>OO.O@>@...@<X,X                                                 ",
"                                                   O<>@O>>O.O@O....@X,X                                                 ",
"                                                   O>@@.OO@.OO.O....X#X                                                 ",
"                                                   O>@OO..O..>33....XXX                                                 ",
"                                                   O@@o.@@..<...3...@                                                   ",
"                                                     .....@@>>.O>@@@                                                    ",
"                                                     >O.>    <.O>O                                                      ",
"                                                     <O..>   <>.,3                                                      ",
"                                                      <O..>   <..>                                                      ",
"                                                       <O.>   <.,3                                                      ",
"                                                        <O.>  33.>                                                      ",
"                                                         <O.> ..33                                                      ",
"                                                         >..O >O.3                                                      ",
"                                                         >OO. O..<3                                                     ",
"                                                        ><O.   >O.<                                                     ",
"                                                        O..     ..<                                                     ",
"                                                                 ..                                                     ",
"                                                                                                                        ",
"                                                                                                                        ",
"                                                                                                                        ",
"                                                                                                                        ",
"                                                                                                                        ",
"                                                                                                                        ",
"                                                                                                                        ",
"                                                                                                                        ",
"                                                                                                                        ",
"                                                                                                                        ",
"                                                                                                                        ",
"                                                                                                                        ",
"                                                                                                                        ",
"                                                                                                                        ",
"                                                                                                                        ",
"                                                                                                                        ",
"                                                                                                                        ",
"                                                                                                                        ",
"                                                                                                                        ",
"                                                                                                                        ",
"                                                                                                                        ",
"                                                                                                                        ",
"                                                                                                                        ",
"                                                                                                                        ",
"                                                                                                                        ",
"                                                                                                                        ",
"                                                                                                                        ",
"                                                                                                                        ",
"                                                                                                                        ",
"                                                                                                                        ",
"                                                                                                                        ",
"                                                                                                                        ",
"                                                                                                                        ",
"                                                                                                                        "
};
