/* XPM */
static char *luke_152[] = {
/* columns rows colors chars-per-pixel */
"120 120 23 1 ",
"  c None",
". c black",
"X c #201820",
"o c #502000",
"O c #082040",
"+ c #382840",
"@ c #003068",
"# c #503858",
"$ c #804010",
"% c #B86840",
"& c #009038",
"* c #10A038",
"= c #20B838",
"- c #38C838",
"; c #48E038",
": c #60F840",
"> c #C8A038",
", c #0058A8",
"< c #705080",
"1 c #0878E8",
"2 c #F0A880",
"3 c #D0D0D0",
"4 c #F8F8F8",
/* pixels */
"                                                                                                                        ",
"                                                                                                                        ",
"                                                                                                                        ",
"                                                                                                                        ",
"                                                                                                                        ",
"                                                                                                                        ",
"                                                                                                                        ",
"                                                                                                                        ",
"                                                                                                                        ",
"                                                                                                                        ",
"                                                                                                                        ",
"                                                                                                                        ",
"                                                                                                                        ",
"                                                                                                                        ",
"                                                                                                                        ",
"                                                                                                                        ",
"                                                                                                                        ",
"                                                                                                                        ",
"                                                                                                                        ",
"                                                                                                                        ",
"                                                                                                                        ",
"                                                                                                                        ",
"                                                                                                                        ",
"                                                                                                                        ",
"                                                                                                                        ",
"                                                                                                                        ",
"                                                                                                                        ",
"                                                                                                      &****==----=&     ",
"                                                                                                    &*=---;;:444:-*     ",
"                                                                                                &***=-;:::444444;=*     ",
"                                                                                             &**==-;;::44444444:-*      ",
"                                                                                          &**==;;;::4444444444:-*       ",
"                                                                                       &&*==;;;::4444444444444;=&       ",
"                                                                                     &&*=-;;:444444444444444:;=*        ",
"                                                                                  &&**=;;:44444444444444444;-*&         ",
"                                                                              &&&**=-;:44444444444444444;;-=*&          ",
"                                                                           &***==-;:4444444444444444:;;-=**&&           ",
"                                                                          **=;;;:4444444444444;;-=====**&&              ",
"                                                                          =;;:44444444444::;-==*&&&&&&&                 ",
"                                                                          ;;44444444:;--;;-=*&&&                        ",
"                                                                %2%2    .34444:;;;;-==*****&                            ",
"                                                            @@@%$o3333O3., --===****&&&&&                               ",
"                                                           @,,.$o$33@,.,   &&&&&&&&                                     ",
"                                                          @,O....3311..                                                 ",
"                                                         @,O.@O%>31@.@$                                                 ",
"                                                        @,O.,O >%33@.@>$                                                ",
"                                                       @@O.,@  %$.@.@%>$                                                ",
"                                                       @...@   $o...,3%>$                                               ",
"                                                       @@...O  2%O@.@,3>$                                               ",
"                                                       @,..,O  %2@,@@1%>$                                               ",
"                                                        @...,@ $%,1@.3o<                                                ",
"                                                        @....,.%$O1,@,<                                                 ",
"                                                        @,@.+#.$$.@O@@,                                                 ",
"                                                         @..+#..%.@O@,O                                                 ",
"                                                         @..++..%.@@,3O                                                 ",
"                                                          @.<+$%+..@1,O                                                 ",
"                                                          @++X%2.#O..,O                                                 ",
"                                                          X++1$%.#..,O+                                                 ",
"                                                          +#+,1$.#@@1+                                                  ",
"                                                          ##+,,1X#.1+                                                   ",
"                                                          #+OOOX#.@O+                                                   ",
"                                                          #<XX#<O..+                                                    ",
"                                                          ##<X#<..+                                                     ",
"                                                          +#<X#<X.+                                                     ",
"                                                          +#<X+#++X                                                     ",
"                                                          X+#<X+#X                                                      ",
"                                                         $..1333X$o%o                                                   ",
"                                                          .1331@13XX.                                                   ",
"                                                     OOOOO.@,3,.@@1X<X                                                  ",
"                                                    O1,,OO.O@,@...@1X<X                                                 ",
"                                                   O1,@O,,O.O@O....@X<X                                                 ",
"                                                   O,@@.OO@.OO.O....X#X                                                 ",
"                                                   O,@OO..O..,33....XXX                                                 ",
"                                                   O@@o.@@..1...3...@                                                   ",
"                                                     .....@@,,.O,@@@                                                    ",
"                                                     ,O.,    1.O,O                                                      ",
"                                                     1O..,   1,.<3                                                      ",
"                                                      1O..,   1..,                                                      ",
"                                                       1O.,   1.<3                                                      ",
"                                                        1O.,  33.,                                                      ",
"                                                         1O., ..33                                                      ",
"                                                         ,..O ,O.3                                                      ",
"                                                         ,OO. O..13                                                     ",
"                                                        ,1O.   ,O.1                                                     ",
"                                                        O..     ..1                                                     ",
"                                                                 ..                                                     ",
"                                                                                                                        ",
"                                                                                                                        ",
"                                                                                                                        ",
"                                                                                                                        ",
"                                                                                                                        ",
"                                                                                                                        ",
"                                                                                                                        ",
"                                                                                                                        ",
"                                                                                                                        ",
"                                                                                                                        ",
"                                                                                                                        ",
"                                                                                                                        ",
"                                                                                                                        ",
"                                                                                                                        ",
"                                                                                                                        ",
"                                                                                                                        ",
"                                                                                                                        ",
"                                                                                                                        ",
"                                                                                                                        ",
"                                                                                                                        ",
"                                                                                                                        ",
"                                                                                                                        ",
"                                                                                                                        ",
"                                                                                                                        ",
"                                                                                                                        ",
"                                                                                                                        ",
"                                                                                                                        ",
"                                                                                                                        ",
"                                                                                                                        ",
"                                                                                                                        ",
"                                                                                                                        ",
"                                                                                                                        ",
"                                                                                                                        ",
"                                                                                                                        "
};
