/* XPM */
static char *luke_119[] = {
/* columns rows colors chars-per-pixel */
"120 120 23 1 ",
"  c None",
". c black",
"X c #201820",
"o c #502000",
"O c #082040",
"+ c #382840",
"@ c #003068",
"# c #503858",
"$ c #804010",
"% c #B86840",
"& c #009038",
"* c #08B030",
"= c #20D828",
"- c #60F840",
"; c #C8A038",
": c #A0F868",
"> c #0058A8",
", c #705080",
"< c #0878E8",
"1 c #F0A880",
"2 c #D0F888",
"3 c #D0D0D0",
"4 c #F8F8F8",
/* pixels */
"                                                                                                                        ",
"                                                                                                                        ",
"                                                                                                                        ",
"                                                                                                                        ",
"                                                                                                                        ",
"                                                                                                                        ",
"                                                                                                                        ",
"                                                                                                                        ",
"                                                                                                                        ",
"                                                                                                                        ",
"                                                                                                                        ",
"                                                                                                                        ",
"                                                                                                                        ",
"                                                                                                                        ",
"                                                                                                                        ",
"                                                                                                                        ",
"                                                                                                                        ",
"                                                                                                                        ",
"                                                                                                                        ",
"                                                                                                                        ",
"                                                                                                                        ",
"                                                                                                                        ",
"                                                                                                                        ",
"                                                                                                                        ",
"                                                                                                                        ",
"                                                                                                                        ",
"                                                                                                                        ",
"                                                                                                                        ",
"                                                                                                                        ",
"                                                                                                                        ",
"                                                                                                                        ",
"                                                                                                                        ",
"                                                                                                                        ",
"                                                                                                                        ",
"                                                                                                                        ",
"                                                                                                                        ",
"                                                                                                                        ",
"                                                                                                                        ",
"                                                                                                                        ",
"                                                                                                                        ",
"                                                                                                                        ",
"                                                                                                                        ",
"                                                                                                                        ",
"                                                                                                                        ",
"                                                                                                                        ",
"                                                                                                                        ",
"                                                                                                                        ",
"                                                                                                                        ",
"                                                     %;333;$                                                            ",
"                                                     ;%;$%;;$                                                           ",
"                                                     %$%;$%;$                                                           ",
"                                                     $o$%;;%;$                                                          ",
"                                                     1%1$o%;;$O                                                         ",
"                                                     %1%%$o%;$>O                                                        ",
"                                                     $%%$%$o%$><O                                                       ",
"                                                     %$$%$o.#O>>@O                                                      ",
"                                                      +#+.$..+O@O>>                                                     ",
"                                                     +3,,.$$.++O.@<O                                                    ",
"                                                    +.OO,,+%$+,+O.@O                                                    ",
"                                                    O>3@.#.1%X+#...@O                                                   ",
"                                                    O<>@.,.%$<+#O..@O                                                   ",
"                                                    O>@O..#.$<>+#O..>O                                                  ",
"                                                    O@@O@O#X<>>X#.O..>                                                  ",
"                                                    @O@>3@#XOOO+# OO.O                                                  ",
"                                                     @.@<>O#+X,X# OO.@O                                                 ",
"                                                     @O@>@<#X,#X# OO.<O                                                 ",
"                                                      @.@OO<<XX+O333oo                                                  ",
"                                                       @..@<3<<.....3o                                                  ",
"                                                       @O..@>@<o%.<..3                                                  ",
"                                                        @>>...$1$3.<.  &&&&&&&&                                         ",
"                                                         Ooo#,ooooo3.  --===****&&&&&                                   ",
"                                                         ++XXXX++,+.3 44442::::-==*****&                                ",
"                                                        +#X+..+#,,+@< ::444444442:--::-=*&&&                            ",
"                                                       +#XX.X##,,##+  =::24444444444422:-==*&&&&&&&                     ",
"                                                      +##,##XX,+#<.#  **=:::24444444444444::-=====**&&                  ",
"                                                     @>@.##,,##.@3.@   &***==-:244444444444444442::-=**&&               ",
"                                                    @>@...OXXO..@<@.      &&&**=-:244444444444444444::-=*&              ",
"                                                   O>@...O@O  O.O>3.@         &&**=::244444444444444444:-*&             ",
"                                                   O@....@O   O>O><@.            &&*=-::24444444444444442:=*            ",
"                                                   @O.@O@O     O@>33@              &&*==:::224444444444444:=&           ",
"                                                   O..O@O       .@>><@                &**==:::2244444444442-*           ",
"                                                   O.@.          O.OO@                   &**==-::22444444442-*          ",
"                                                    @..          O>...>                     &***=-:222444444:=*         ",
"                                                   >@O@<          O@.<3>                        &*=---::24442-*         ",
"                                                    >@O@           ><..3>                         &****==----=&         ",
"                                                     >O.>           @>O.>                                               ",
"                                                     >@.>            @>.3>                                              ",
"                                                      >O.>            @..>                                              ",
"                                                      >@.>            @>.3>                                             ",
"                                                       >@.>            @..>                                             ",
"                                                       <>.>            >..3>                                            ",
"                                                    <>>>.@>            ..<33                                            ",
"                                                    >.....>             >OO3                                            ",
"                                                                        ....                                            ",
"                                                                                                                        ",
"                                                                                                                        ",
"                                                                                                                        ",
"                                                                                                                        ",
"                                                                                                                        ",
"                                                                                                                        ",
"                                                                                                                        ",
"                                                                                                                        ",
"                                                                                                                        ",
"                                                                                                                        ",
"                                                                                                                        ",
"                                                                                                                        ",
"                                                                                                                        ",
"                                                                                                                        ",
"                                                                                                                        ",
"                                                                                                                        ",
"                                                                                                                        ",
"                                                                                                                        ",
"                                                                                                                        ",
"                                                                                                                        ",
"                                                                                                                        ",
"                                                                                                                        ",
"                                                                                                                        ",
"                                                                                                                        ",
"                                                                                                                        ",
"                                                                                                                        "
};
