/* XPM */
static char *luke_19[] = {
/* columns rows colors chars-per-pixel */
"120 120 25 1 ",
"  c None",
". c black",
"X c #201820",
"o c #502000",
"O c #082040",
"+ c #102848",
"@ c #382840",
"# c #003068",
"$ c #503858",
"% c #804010",
"& c #B86840",
"* c #009038",
"= c #08B030",
"- c #20D828",
"; c #60F840",
": c #C8A038",
"> c #A0F868",
", c #0058A8",
"< c #705080",
"1 c #0878E8",
"2 c #6880A8",
"3 c #F0A880",
"4 c #D0F888",
"5 c #D0D0D0",
"6 c #F8F8F8",
/* pixels */
"                                                                                                                        ",
"                                                                                                                        ",
"                                                                                                                        ",
"                                                                                                                        ",
"                                                                                                                        ",
"                                                                                                                        ",
"                                                                                                                        ",
"                                                                                                                        ",
"                                                                                                                        ",
"                                                                                                                        ",
"                                                                                                                        ",
"                                                                                                                        ",
"                                                                                                                        ",
"                                                                                                                        ",
"                                                                                                                        ",
"                                                                                                                        ",
"                                                                                                                        ",
"                                                                                                                        ",
"                                                                                                                        ",
"                                                         *-------------*                                                ",
"                                                        *-4444444466644>=*                                              ",
"                                                        *-444664446666644-*                                             ",
"                                                         *-44664446666664-*                                             ",
"                                                         *-44666446666664-*                                             ",
"                                                          *44466446666664-*                                             ",
"                                                          *-4466444666666;*                                             ",
"                                                          *-4466644666666;*                                             ",
"                                                          **-446644666666;*                                             ",
"                                                           *-446644666666;*                                             ",
"                                                           *-446664666666;*                                             ",
"                                                            *-44664666666;*                                             ",
"                                                            *-44664466666;*                                             ",
"                                                            **44666466666>*                                             ",
"                                                              -4466466666;*                                             ",
"                                                              -4466466666;*                                             ",
"                                                              *-466666666;*                                             ",
"                                                              *-446666666;*                                             ",
"                                                               *446666666;*                                             ",
"                                                               *-46666666;*                                             ",
"                                                               *-44666666;*                                             ",
"                                                                *;4666666>*                                             ",
"                                                                *-4666666;*                                             ",
"                                                                 *4466666;*                                             ",
"                                                                 *-466666;*                                             ",
"                                                                 *-466666;*                                             ",
"                                                             %:5:&*446666;*                                             ",
"                                                            %:::&:*-46666;*                                             ",
"                                                          %%:&&%%&*-46666;*                                             ",
"                                                         %:5%%:&%%&*44666>*                                             ",
"                                                         %%:5&&%%o%*-4666>*                                             ",
"                                                          &%o%o%3&3 *;466>*                                             ",
"                                                           &&o%&&3& *-466>*                                             ",
"                                                            o%&%&&% *-466>*                                             ",
"                                                           @oo.&%%&  *>66>*                                             ",
"                                                          @$$O...    *-44>*                                             ",
"                                                         @$<..<%      *>6>*                                             ",
"                                                        @<$O,5#<$     *-6-*                                             ",
"                                                        @$<$1,#O.$      666                                             ",
"                                                        @$<O,#O.OO      622                                             ",
"                                                        @<$O##O#O.    4+2+4                                             ",
"                                                        @<XO.#,5,.    +4442                                             ",
"                                                        @<XO#.#1,O. 5 24++4                                             ",
"                                                       @<$X.#O#,#15,,124+2+                                             ",
"                                                       @<.X..#.#O.#...++226                                             ",
"                                                       @<.OX..#...#.1O+6 +                                              ",
"                                                       @<O.X....##,,#                                                   ",
"                                                        X%&X....#                                                       ",
"                                                        $$O.oo5.                                                        ",
"                                                        <$$.<XX,                                                        ",
"                                                       $<@<@XX@X                                                        ",
"                                                      <<@<@XXX<$$                                                       ",
"                                                      $<<<$@X$$$#                                                       ",
"                                                      @<$X@$<<<O#                                                       ",
"                                                        .$$$$$.O#                                                       ",
"                                                 55     #....#.O#                                                       ",
"                                                ,O,5    #....#..O#                                                      ",
"                                               #O.O#,   #...##..O#                                                      ",
"                                               .,,..O5  #...#,..O#                                                      ",
"                                              .,O..#,., #..O,O..O#                                                      ",
"                                              ,O.   .,.....#, O.O#                                                      ",
"                                              ,,.    .,...O,  O.O#                                                      ",
"                                                      .O..O,  O..,1                                                     ",
"                                                       ..O,    ,#.,                                                     ",
"                                                        .O,     #.,                                                     ",
"                                                        OO      #.,                                                     ",
"                                                                ,.,                                                     ",
"                                                                ,.,                                                     ",
"                                                                ,.,                                                     ",
"                                                                 ,.1                                                    ",
"                                                                 ,.,1                                                   ",
"                                                                 1..#,1                                                 ",
"                                                                 1....O                                                 ",
"                                                                 1....O                                                 ",
"                                                                                                                        ",
"                                                                                                                        ",
"                                                                                                                        ",
"                                                                                                                        ",
"                                                                                                                        ",
"                                                                                                                        ",
"                                                                                                                        ",
"                                                                                                                        ",
"                                                                                                                        ",
"                                                                                                                        ",
"                                                                                                                        ",
"                                                                                                                        ",
"                                                                                                                        ",
"                                                                                                                        ",
"                                                                                                                        ",
"                                                                                                                        ",
"                                                                                                                        ",
"                                                                                                                        ",
"                                                                                                                        ",
"                                                                                                                        ",
"                                                                                                                        ",
"                                                                                                                        ",
"                                                                                                                        ",
"                                                                                                                        ",
"                                                                                                                        ",
"                                                                                                                        ",
"                                                                                                                        "
};
