/* XPM */
static char *luke_attack_a1[] = {
/* columns rows colors chars-per-pixel */
"120 120 23 1 ",
"  c None",
". c black",
"X c #201820",
"o c #502000",
"O c #082040",
"+ c #382840",
"@ c #003068",
"# c #503858",
"$ c #804010",
"% c #B86840",
"& c #009038",
"* c #10A038",
"= c #20B838",
"- c #38C838",
"; c #48E038",
": c #60F840",
"> c #C8A038",
", c #0058A8",
"< c #705080",
"1 c #0878E8",
"2 c #F0A880",
"3 c #D0D0D0",
"4 c #F8F8F8",
/* pixels */
"                                                                                                                        ",
"                                                                                                                        ",
"                                                                                                                        ",
"                                                                                                                        ",
"                                                                                                                        ",
"                                                                                                                        ",
"                                                                                                                        ",
"                                                                                                                        ",
"                                                                                                                        ",
"                                                                                                                        ",
"                                                                                                                        ",
"                                                                                                                        ",
"                                                                                                                        ",
"                                                                                                                        ",
"                                                                                                                        ",
"                                                                                                                        ",
"                                                                                                                        ",
"                                                                                                                        ",
"                                                                                                                        ",
"                                                                                                                        ",
"                                                                                                                        ",
"                                                                                                                        ",
"                                                                                                                        ",
"                                                                                                                        ",
"                                                                                                                        ",
"                                                                                                                        ",
"                                                                                                                        ",
"                                                                                                                        ",
"                                                                                                                        ",
"                                                                                                                        ",
"                                                                                                                        ",
"                                                                                                                        ",
"                                                                                                                        ",
"                                                                                                                        ",
"                                                                                                                        ",
"                                                                                                                        ",
"                                                                                                                        ",
"                                                                                 $>333>%                                ",
"                                                                                $>>%$>%>                                ",
"                                                                                $>%$>%$%                                ",
"                                                                               $>%>>%$o$                                ",
"                                                                              O$>>%o$2%2                                ",
"                                                                             O,$>%o$%%2%                                ",
"                                                                            O1,$%o$%$%%$                                ",
"                                                                           O@,,O#.o$%$$%                                ",
"                                                                          ,,O@O+..$.+#+                                 ",
"                                                                         O1@.O++.$$.<<3+                                ",
"                                                                         O@.O+<+$%+<<OO.+                               ",
"                                                                        O@...#+X%2.#.@3,O                               ",
"                                                                        O@..O#+1$%.<.@,1O                               ",
"                                                                       O,..O#+,1$.#..O@,O                               ",
"                                                                       ,..O.#X,,1X#O@O@@O                               ",
"                                                                       O.OO #+OOOX#@3,@O@                               ",
"                                                                      O@.OO #X<X+#O,1@.@                                ",
"                                                                      O1.OO #X#<X#1@,@O@                                ",
"                                                                       oo333O+XX11OO@.@                                 ",
"                                                                       o3.....1131@..@                                  ",
"                                                                       3..1.%o1@,@..O@                                  ",
"                                                              &&&&&&&&  .1.3$2$...,,@                                   ",
"                                                        &&&&&****===--  .3ooooo<#ooO                                    ",
"                                                     &*****==-;;;;:4444 3.+<++XXXX++                                    ",
"                                                 &&&*=-;;--;:44444444;; 1@+<<#+..+X#+                                   ",
"                                          &&&&&&&*==-;::44444444444:;;=  +##<<##X.XX#+                                  ",
"                                       &&**=====-;;4444444444444:;;;=**  #.1#+<XX##<##+                                 ",
"                                    &&**=-;;:4444444444444444:;-==***&   @.3@.##<<##.@,@                                ",
"                                   &*=-;;44444444444444444:;-=**&&&      .@1@..OXXO...@,@                               ",
"                                  &*-;44444444444444444:;;=**&&         @.3,O.O  O@O...@,O                              ",
"                                 *=;:444444444444444:;;-=*&&            .@1,O,O   O@....@O                              ",
"                                &=;4444444444444::;;;==*&&              @33,@O     O@O@.O@                              ",
"                                *-:4444444444::;;;==**&                @1,,@.       O@O..O                              ",
"                               *-:44444444::;;-==**&                   @OO.O          .@.O                              ",
"                              *=;444444:::;-=***&                     ,...,O          ..@                               ",
"                              *-:444:;;---=*&                        ,31.@O          1@O@,                              ",
"                              &=----==****&                         ,3..1,           @O@,                               ",
"                                                                    ,.O,@           ,.O,                                ",
"                                                                   ,3.,@            ,.@,                                ",
"                                                                   ,..@            ,.O,                                 ",
"                                                                  ,3.,@            ,.@,                                 ",
"                                                                  ,..@            ,.@,                                  ",
"                                                                 ,3..,            ,.,1                                  ",
"                                                                 331..            ,@.,,,1                               ",
"                                                                 3OO,             ,.....,                               ",
"                                                                 ....                                                   ",
"                                                                                                                        ",
"                                                                                                                        ",
"                                                                                                                        ",
"                                                                                                                        ",
"                                                                                                                        ",
"                                                                                                                        ",
"                                                                                                                        ",
"                                                                                                                        ",
"                                                                                                                        ",
"                                                                                                                        ",
"                                                                                                                        ",
"                                                                                                                        ",
"                                                                                                                        ",
"                                                                                                                        ",
"                                                                                                                        ",
"                                                                                                                        ",
"                                                                                                                        ",
"                                                                                                                        ",
"                                                                                                                        ",
"                                                                                                                        ",
"                                                                                                                        ",
"                                                                                                                        ",
"                                                                                                                        ",
"                                                                                                                        ",
"                                                                                                                        ",
"                                                                                                                        ",
"                                                                                                                        ",
"                                                                                                                        ",
"                                                                                                                        ",
"                                                                                                                        ",
"                                                                                                                        ",
"                                                                                                                        ",
"                                                                                                                        ",
"                                                                                                                        ",
"                                                                                                                        ",
"                                                                                                                        ",
"                                                                                                                        "
};
