/* XPM */
static char *luke_attack_b10[] = {
/* columns rows colors chars-per-pixel */
"120 120 23 1 ",
"  c None",
". c black",
"X c #201820",
"o c #502000",
"O c #082040",
"+ c #382840",
"@ c #003068",
"# c #503858",
"$ c #804010",
"% c #B86840",
"& c #009038",
"* c #08B030",
"= c #20D828",
"- c #60F840",
"; c #C8A038",
": c #A0F868",
"> c #0058A8",
", c #705080",
"< c #0878E8",
"1 c #F0A880",
"2 c #D0F888",
"3 c #D0D0D0",
"4 c #F8F8F8",
/* pixels */
"                                                                                                                        ",
"                                                                                                                        ",
"                                                                                                                        ",
"                                                                                                                        ",
"                                                                                                                        ",
"                                                                                                                        ",
"                                                                                                                        ",
"                                                                                                                        ",
"                                                                                                                        ",
"                                                                                                                        ",
"                                                                                                                        ",
"                                                                                                                        ",
"                                                                                                                        ",
"                                                                                                                        ",
"                                                                                                                        ",
"                                                                                                                        ",
"                                                                                                                        ",
"                                                                                                                        ",
"                                                                                                                        ",
"                                                                                                                        ",
"                                                                                                                        ",
"                                                                                                                        ",
"                                                                                                                        ",
"                                                                                                                        ",
"                                                                                                                        ",
"                                                                                                                        ",
"                                                                                                                        ",
"                                                                                                                        ",
"                                                                                                                        ",
"                                                                                                                        ",
"                                                                                                                        ",
"                                                                                                                        ",
"                                                                                                                        ",
"                                                                                                                        ",
"                                                                                                                        ",
"                                                                                                                        ",
"                                  $;;%$;%;                                                                              ",
"                                  $;%$;%$%                                                                              ",
"                                 $;%;;%$o$                                                                              ",
"                                 $;;%o$1%1                                                                              ",
"                                 $;%o$%%1%OO                                                                            ",
"                                 $%o$%$%%$><O                                                                           ",
"                                  ##..%$$%@>@O                                                                          ",
"                                   ++.$...O@O>O                                                                         ",
"                                 +3,,.$$.++O.<>O                                                                        ",
"                                +.OO,,+%$.,+OO>O                                                                        ",
"                                O>3@.O.1%X+#..O@O                                                                       ",
"                                O<>@.,.%$<+#O..@O                                                                       ",
"                                O>@O..#.$<>+#O..>O                                                                      ",
"                                O@@O@O#X<>>X# O..>                                                                      ",
"                                @O@>3@#.OOO+# OO.O                                                                      ",
"                                >.O@<>O.+X,X# O.OO                                                                      ",
"                                 >O@>@O.X,#X# O.@O                                                                      ",
"                                 >..@OOO#XX+# $$<O                                                                      ",
"                                  >.OO3#XX..#$1%$O                                                                      ",
"                                  >.O><3<<3,.$%%%$                                                                      ",
"                                   >.O@>@@333.33%>     *********                                                        ",
"                                     >...<..33<.>.    --================*&                                              ",
"                                      ooooo,#oo..3>   422:2::::::::::::-====*****                                       ",
"                                     +,++XXXX++.OO.   44444222222222222:::::-=====******                                ",
"                                     +++.+..X+#+.     :244444444444444422222:::::-======**                              ",
"                                    +,3++.X..X##+     -::444444444444444444422222::::::-==*                             ",
"                                   +,++3#+X+X+,XO     =--2444444444444444444444442222222:-=*                            ",
"                                   +@@..###X##X@>@     ==::244444444444444444444444444442::=*                           ",
"                                   @3>O..O++,X..@>@     &--:2444444444444444444444444444422:=                           ",
"                                   3<@@>@OX@.....@>@     ==-::24444444444444444444444444442:=                           ",
"                                  @<>>.OO  OO.....@>@     &**::2444444444444444444444444442:=                           ",
"                                  33@@OO     O@..O.@>@      &**:-:4444444444444444444444442:*                           ",
"                                 O<><.O       OOO.@@>@        &**=-:44444444444444444444442:*                           ",
"                                 .>@.@O         O@O.@O         & &*-::444444444444444444442:*                           ",
"                                >...>O            @.O@            &*=::44444444444444444442-*                           ",
"                               >3...O            O.O@              &***:::4444444444444442:=&                           ",
"                               3.3>>            <.O@>                &&=:::444444444444442:*                            ",
"                              <..@>@           >@O@>                  &*==-::4444444444442-*                            ",
"                              3.O>@            >.@>                    &&**=-::4444444444:=*                            ",
"                             <..@>@           >.O>                        &*=-::444444442-*                             ",
"                             <.@>@           >.@>                          &**=-::444444-*&                             ",
"                            <3.>@           >.@>                             &&*=---:::-=&                              ",
"                            3.@>            <.><                               &&*******&                               ",
"                           3<.>@            >@.>>><                                                                     ",
"                          3OO@<>            >.....>                                                                     ",
"                          ....@@                                                                                        ",
"                          ....@@                                                                                        ",
"                                                                                                                        ",
"                                                                                                                        ",
"                                                                                                                        ",
"                                                                                                                        ",
"                                                                                                                        ",
"                                                                                                                        ",
"                                                                                                                        ",
"                                                                                                                        ",
"                                                                                                                        ",
"                                                                                                                        ",
"                                                                                                                        ",
"                                                                                                                        ",
"                                                                                                                        ",
"                                                                                                                        ",
"                                                                                                                        ",
"                                                                                                                        ",
"                                                                                                                        ",
"                                                                                                                        ",
"                                                                                                                        ",
"                                                                                                                        ",
"                                                                                                                        ",
"                                                                                                                        ",
"                                                                                                                        ",
"                                                                                                                        ",
"                                                                                                                        ",
"                                                                                                                        ",
"                                                                                                                        ",
"                                                                                                                        ",
"                                                                                                                        ",
"                                                                                                                        ",
"                                                                                                                        ",
"                                                                                                                        ",
"                                                                                                                        ",
"                                                                                                                        ",
"                                                                                                                        ",
"                                                                                                                        ",
"                                                                                                                        "
};
