/* XPM */
static char *luke_attack_a3[] = {
/* columns rows colors chars-per-pixel */
"120 120 24 1 ",
"  c None",
". c black",
"X c #201820",
"o c #502000",
"O c #082040",
"+ c #382840",
"@ c #003068",
"# c #503858",
"$ c #804010",
"% c #B86840",
"& c #009038",
"* c #10A038",
"= c #20B838",
"- c #38C838",
"; c #48E038",
": c #60F840",
"> c #C8A038",
", c #0058A8",
"< c #705080",
"1 c #0878E8",
"2 c #8078B0",
"3 c #F0A880",
"4 c #D0D0D0",
"5 c #F8F8F8",
/* pixels */
"                                                                                                                        ",
"                                                                                                                        ",
"                                                                                                                        ",
"                                                                                                                        ",
"                                                                                                                        ",
"                                                                                                                        ",
"                                                                                                                        ",
"                                                                                                                        ",
"                                                                                                                        ",
"                                                                                                                        ",
"                                                                                                                        ",
"                                                                                                                        ",
"                                                                                                                        ",
"                                                                                                                        ",
"                                                                                                                        ",
"                                                                                                                        ",
"                                                                                                                        ",
"                                                                                                                        ",
"                                                                                                                        ",
"                                                                                                                        ",
"                                                                                                                        ",
"                                                                                                                        ",
"                                                                                                                        ",
"                                                                                                                        ",
"                                                                                                                        ",
"                                                                                                                        ",
"                                                                                                                        ",
"                                                                                                                        ",
"                                                                                                                        ",
"                                                                                                                        ",
"                                                                                                                        ",
"                                                                                                                        ",
"                                                                                                                        ",
"                                                                                                                        ",
"                                                                                                                        ",
"                                                                                                                        ",
"                                                                                                                        ",
"                                                                             $>444>%                                    ",
"                                                                            $>>%$>%>                                    ",
"                                                                            $>%$>%$%                                    ",
"                                                                           $>%>>%$o$                                    ",
"                                                                           $>>%o$3%3                                    ",
"                                                                         OO$>%o$%%3%                                    ",
"                                                                        O1,$%o$%$%%$                                    ",
"                                                                       O,,,O#..$%$$%                                    ",
"                                                                      O,O@O+..$.+#+.                                    ",
"                                                                     O1,.O++.$$.<<4+                                    ",
"                                                                     O,,O+<+$%+<<OO.+                                   ",
"                                                                    OO@..#+X%3.#.@4,O                                   ",
"                                                                    O@..O#+1$%.<.@,1O                                   ",
"                                                                    O,.O#+,1$.#..O@,O                                   ",
"                                                                    O,,.#X,,1XOO,O@@O                                   ",
"                                                                    O,..#+OOOX##@4,@@                                   ",
"                                                                    O@..#X<X+#O1,1@.                                    ",
"                                                                    O,OO#X#<X#1O@,@O                                    ",
"                                                                    .o@OO+XX11OOO@.@                                    ",
"                                                                    .1.4<4$1o4@@..@                                     ",
"                                                                    1..4O.%$oo...O@                                     ",
"                                                                    1.44.$$3$.O,,@                                      ",
"                                                              *********oooo<#oo.                                        ",
"                                                    &*================--++XXXX++                                        ",
"                                             *****====-;;;;;;;;;;;;:;::5<#.+.XX#+                                       ",
"                                      ******=====-;;;;;::::::::::::555554<+.X.XX#+                                      ",
"                                    **======-;;;;;:::::555555555555555:;#+<XX##<##+                                     ",
"                                   *==-;;;;;;:::::5555555555555555555;;-O.##<<##X@,@                                    ",
"                                  *=-;:::::::55555555555555555555555:--=...OXXO...@,@                                   ",
"                                 *=;;:5555555555555555555555555555:;;==O..O  O@O...@@O                                  ",
"                                 =;::5555555555555555555555555555:;--&,O.,O   O@....,O                                  ",
"                                 =;:555555555555555555555555555:;;-==4,@@O     O@O@@@O                                  ",
"                                 =;:55555555555555555555555555:;;**&,@1.O       O@O.O@                                  ",
"                                 *;:555555555555555555555555;-;**&2O.O.O          O@.O                                  ",
"                                 *;:5555555555555555555555;-=**&  ,...,O         O...O                                  ",
"                                 *;:55555555555555555555;;-*& &  ,41.@O          1@O@,                                  ",
"                                 *-:5555555555555555555;;=*&    ,4..1,          ,@O@,                                   ",
"                                 &=;:555555555555555;;;***&     4.O,@           ,.@,                                    ",
"                                  *;:55555555555555;;;=&&      ,..,@           ,..@                                     ",
"                                  *-:555555555555;;-==*&      ,4.O,           ,O.@                                      ",
"                                  *=;5555555555;;-=**&&       4.O,@           ,O.,                                      ",
"                                   *-:55555555;;-=*&         <.O,@           ,.@,                                       ",
"                                   &*-555555;;-=**&         ,4O.,            1.,1                                       ",
"                                    &=-;;;---=*&&           441.             ,@.,,,1                                    ",
"                                     &*******&&             4OO,             ,.....,                                    ",
"                                                            .....                                                       ",
"                                                                                                                        ",
"                                                                                                                        ",
"                                                                                                                        ",
"                                                                                                                        ",
"                                                                                                                        ",
"                                                                                                                        ",
"                                                                                                                        ",
"                                                                                                                        ",
"                                                                                                                        ",
"                                                                                                                        ",
"                                                                                                                        ",
"                                                                                                                        ",
"                                                                                                                        ",
"                                                                                                                        ",
"                                                                                                                        ",
"                                                                                                                        ",
"                                                                                                                        ",
"                                                                                                                        ",
"                                                                                                                        ",
"                                                                                                                        ",
"                                                                                                                        ",
"                                                                                                                        ",
"                                                                                                                        ",
"                                                                                                                        ",
"                                                                                                                        ",
"                                                                                                                        ",
"                                                                                                                        ",
"                                                                                                                        ",
"                                                                                                                        ",
"                                                                                                                        ",
"                                                                                                                        ",
"                                                                                                                        ",
"                                                                                                                        ",
"                                                                                                                        ",
"                                                                                                                        ",
"                                                                                                                        ",
"                                                                                                                        "
};
