/* XPM */
static char *luke_165[] = {
/* columns rows colors chars-per-pixel */
"120 120 24 1 ",
"  c None",
". c black",
"X c #201820",
"o c #502000",
"O c #082040",
"+ c #102848",
"@ c #382840",
"# c #003068",
"$ c #503858",
"% c #804010",
"& c #B86840",
"* c #009038",
"= c #08B030",
"- c #20D828",
"; c #60F840",
": c #C8A038",
"> c #A0F868",
", c #0058A8",
"< c #705080",
"1 c #0878E8",
"2 c #F0A880",
"3 c #D0F888",
"4 c #D0D0D0",
"5 c #F8F8F8",
/* pixels */
"                                                                                                                        ",
"                                                                                                                        ",
"                                                                                                                        ",
"                                                                                                                        ",
"                                                                                                                        ",
"                                                                                                                        ",
"                                                                                                                        ",
"                                                                                                                        ",
"                                                                                                                        ",
"                                                                                                                        ",
"                                                                                                                        ",
"                                                                                                                        ",
"                                                                                                                        ",
"                                                                                                                        ",
"                                                                                                                        ",
"                                                                                                                        ",
"                                                                                                                        ",
"                                                                                                                        ",
"                                                                                                                        ",
"                                                                                                                        ",
"                                                                                                                        ",
"                                                                                                                        ",
"                                                                                                                        ",
"                                                                                                                        ",
"                                                                                                                        ",
"                                                                                                                        ",
"                                                                                                                        ",
"                                                                                                                        ",
"                                                                                                                        ",
"                                                                                                                        ",
"                                                                                                                        ",
"                                                                                                                        ",
"                                                                                                                        ",
"                                                                                                                        ",
"                                                                                                                        ",
"                                                                                                                        ",
"                                                                                                                        ",
"                                                                                                                        ",
"                                                                                                                        ",
"                                                                                                                        ",
"                                                                                                                        ",
"                                                                                                                        ",
"                                                                                                                        ",
"                                                                                                                        ",
"                                                                                                                        ",
"                                                                                                                        ",
"                                                                                                                        ",
"                                                                 444                                                    ",
"                                                             ,  ,4.,   444                                              ",
"                                                             O4..,    4...4                                             ",
"                                                            O<.....  ,O.OO,                                             ",
"                                                        @@X$$:%.,O.. ..O..1                                             ",
"                                                      @@<4$X.%%.#,O..O.O.                                               ",
"                                                     @<4<$@@.oo..#1O...,.                                               ",
"                                                    @<<@@@....o...,1O...,1                                              ",
"                                                    @4@O......%....#,#.O.,                                              ",
"                                                   @<<@.OO..........#O..O..                                             ",
"                                                   @<O,,...#O,,,O........O.                                             ",
"                                                   @41##O..O.....,.#4,##...                                             ",
"                                                   @<O4,##..#,#O....4#..##.                                             ",
"                                                   @4@,1,#.O41,#,,,,...4#,#                                             ",
"                                                    @<OOOO#O,##OO5+.4.44.#,                                             ",
"                                                     oo.%,OOOO  .O+OOO<44.,                                             ",
"                                                    &&o%%&%%      .5O4OOOOO                                             ",
"                                                   &%o%o%2&2        5O41,,                                              ",
"                                                   ::4::%%o%        . OOO                                               ",
"                                                   %4:&%&%%&          5                                                 ",
"                                                    %::&%%&:           +                                                ",
"                                                     %::&%%&          ..5  **                                           ",
"                                                       :::&            .+ ---*                                          ",
"                                                                         -;>>-*                                         ",
"                                                                        -;>33>=*                                        ",
"                                                                        -33553-=*                                       ",
"                                                                        =;3555>-=*                                      ",
"                                                                        =;35555>-=*                                     ",
"                                                                        =;355553>-=*                                    ",
"                                                                        =;3555553>-=*                                   ",
"                                                                        =;355555555>=*                                  ",
"                                                                        *;3555555555-=*                                 ",
"                                                                        *;3555555555>-=*                                ",
"                                                                        *;>5555555553>-=*                               ",
"                                                                        *->35555555553>-=*                              ",
"                                                                        *->3555555555553-=*                             ",
"                                                                        *->3555555555555>-=*                            ",
"                                                                        *->35555555555553>-=*                           ",
"                                                                        *->355555555555553>-=*                          ",
"                                                                        *->35555555555555553;=*                         ",
"                                                                        *->35555555555555555>;=                         ",
"                                                                         =;355555555555555553>-                         ",
"                                                                         =;3555555555555555553;-                        ",
"                                                                         =;3555555555555555555>;=                       ",
"                                                                         *->3555555555555555553>;-                      ",
"                                                                         *->35555555555555555553>;=                     ",
"                                                                          ->355555555555555555553>;                     ",
"                                                                          =;3555555555555555555553>-                    ",
"                                                                          =;33555555555555555555553;-                   ",
"                                                                          =;>3555555555555555555553>;-                  ",
"                                                                           ->35555555555555555555553>-                  ",
"                                                                           ->35555555555555555555553>-                  ",
"                                                                           ->35555555555555555555553;-                  ",
"                                                                           ->3555555555555555555553>;=                  ",
"                                                                           =;>33333333333333333333>;=                   ",
"                                                                           *=->>>>>>>>>>>>>>>>>>>>;-                    ",
"                                                                            *=---------------------=                    ",
"                                                                             **********************                     ",
"                                                                                                                        ",
"                                                                                                                        ",
"                                                                                                                        ",
"                                                                                                                        ",
"                                                                                                                        ",
"                                                                                                                        ",
"                                                                                                                        ",
"                                                                                                                        ",
"                                                                                                                        ",
"                                                                                                                        ",
"                                                                                                                        ",
"                                                                                                                        ",
"                                                                                                                        ",
"                                                                                                                        ",
"                                                                                                                        "
};
