/* XPM */
static char *luke_55[] = {
/* columns rows colors chars-per-pixel */
"120 120 23 1 ",
"  c None",
". c black",
"X c #201820",
"o c #502000",
"O c #082040",
"+ c #382840",
"@ c #003068",
"# c #503858",
"$ c #804010",
"% c #B86840",
"& c #009038",
"* c #08B030",
"= c #20D828",
"- c #60F840",
"; c #C8A038",
": c #A0F868",
"> c #0058A8",
", c #705080",
"< c #0878E8",
"1 c #F0A880",
"2 c #D0F888",
"3 c #D0D0D0",
"4 c #F8F8F8",
/* pixels */
"                                                                                                                        ",
"                                                                                                                        ",
"                                                                                                                        ",
"                                                                                                                        ",
"                                                                                                                        ",
"                                                                                                                        ",
"                                                                                                                        ",
"                                                                                                                        ",
"                                                                                                                        ",
"                                                                                                                        ",
"                                                                                                                        ",
"                                                                                                                        ",
"                                                                                                                        ",
"                                                                                                                        ",
"                                                                                                                        ",
"                                                                                                                        ",
"                                                                                                                        ",
"                                                                                                                        ",
"                                                                                                                        ",
"                                                                                                                        ",
"                                                                                                                        ",
"                                                                                                                        ",
"                                                                                                                        ",
"                                                                                                                        ",
"                                                                                                                        ",
"                                                                                                                        ",
"                                                                                                                        ",
"                                                                                                                        ",
"                                                                                                                        ",
"                                                                                                                        ",
"                                                                                                                        ",
"                                                                                                                        ",
"                                                                                                                        ",
"                                                                                                                        ",
"                                                                                                                        ",
"                                                                                                                        ",
"                                                                                                                        ",
"                                                                                                                        ",
"                                                                                                                        ",
"                                                                                                                        ",
"                                                                                                                        ",
"                                                                                                                        ",
"                                                                                                                        ",
"                                                                                                                        ",
"                                                     $;333;%                                                            ",
"                                                    $;;%$;%;                                                            ",
"                                                    $;%$;%$%                                                            ",
"                                                   $;%;;%$o$                                                            ",
"                                                   $;;%o$1%1                                                            ",
"                                                   $;%o$%%1%OO                                                          ",
"                                                   $%o$%$%%$><O                                                         ",
"                                                    ##..%$$%@>@O                                                        ",
"                                                     ++.$...O@O>O                                                       ",
"                                                   +3,,.$$.++O.<>O                                                      ",
"                                                  +.OO,,+%$.,+OO>O                                                      ",
"                                                  O>3@.O.1%X+#..O@O                                                     ",
"                                                  O<>@.,.%$<+#O..@O                                                     ",
"                                                  O>@O..#.$<>+#O..>O                                                    ",
"                                                  O@@O@O#X<>>X# O..>                                                    ",
"                                                  @O@>3@#.OOO+# OO.O                                                    ",
"                                                  >.O@<>O.+X,X# O.OO                                                    ",
"                                                   >O@>@O.X,#X# O.@O                                                    ",
"                                                   >..@OOO#XX+# $$<O                                                    ",
"                                                    >.OO3#XX..#$1%$O                                                    ",
"                                                    >.O><3<<3,.$%%%$                                                    ",
"                                                     >.O@>@@333.33%>                                                    ",
"                                                   o%o$X333<..33<.>.                                                    ",
"                                                   .XX3<@<33<...>..3>==**&&                                             ",
"                                                  X,X<@@.>3>@.OOOOOO.=4:--*&&                                           ",
"                                                 X,X<@...@>@O.OO>><O =:444--*&&                                         ",
"                                                 X,X@....O@O.O>>O@><O&*-:444--*&&                                       ",
"                                                 X#X....O.OO.@OO.@@>O &&*-:444--*&&                                     ",
"                                                 XXX....33>..O..OO@>O   &&*-:444:-*&&                                   ",
"                                                   @...3...<..@@.o@@O     &&*-:444:-*&&                                 ",
"                                                    @@@>O.>>@@.....         &&*-:444:-*&&                               ",
"                                                      O>O.<    >.O>           &&*--244:-*&&                             ",
"                                                      3,.><   >..O<             &&*--244:-*&&                           ",
"                                                      >..<   >..O<                &&**-244:--&&                         ",
"                                                      3,.<   >.O<                   &&**-2444--&&                       ",
"                                                      >.33  >.O<                      &&**-2444--&&                     ",
"                                                      33.. >.O<                         &&**-2444--&&                   ",
"                                                      3.O> O..>                           &&**-:444--&&                 ",
"                                                     3<..O .OO>                             &&**-:444--&                ",
"                                                     <.O>   .O<>                              &&**--444-&               ",
"                                                     <..     ..O                                &&**--44&               ",
"                                                     ..                                           &&**--&               ",
"                                                                                                    &&*&                ",
"                                                                                                                        ",
"                                                                                                                        ",
"                                                                                                                        ",
"                                                                                                                        ",
"                                                                                                                        ",
"                                                                                                                        ",
"                                                                                                                        ",
"                                                                                                                        ",
"                                                                                                                        ",
"                                                                                                                        ",
"                                                                                                                        ",
"                                                                                                                        ",
"                                                                                                                        ",
"                                                                                                                        ",
"                                                                                                                        ",
"                                                                                                                        ",
"                                                                                                                        ",
"                                                                                                                        ",
"                                                                                                                        ",
"                                                                                                                        ",
"                                                                                                                        ",
"                                                                                                                        ",
"                                                                                                                        ",
"                                                                                                                        ",
"                                                                                                                        ",
"                                                                                                                        ",
"                                                                                                                        ",
"                                                                                                                        ",
"                                                                                                                        ",
"                                                                                                                        ",
"                                                                                                                        ",
"                                                                                                                        ",
"                                                                                                                        "
};
