/* XPM */
static char *luke_83[] = {
/* columns rows colors chars-per-pixel */
"120 120 25 1 ",
"  c None",
". c black",
"X c #201820",
"o c #502000",
"O c #082040",
"+ c #102848",
"@ c #382840",
"# c #003068",
"$ c #503858",
"% c #804010",
"& c #B86840",
"* c #009038",
"= c #08B030",
"- c #20D828",
"; c #60F840",
": c #C8A038",
"> c #A0F868",
", c #0058A8",
"< c #705080",
"1 c #0878E8",
"2 c #6880A8",
"3 c #F0A880",
"4 c #D0F888",
"5 c #D0D0D0",
"6 c #F8F8F8",
/* pixels */
"                                                                                                                        ",
"                                                                                                                        ",
"                                                                                                                        ",
"                                                                                                                        ",
"                                                                                                                        ",
"                                                                                                                        ",
"                                                                                                                        ",
"                                                                                                                        ",
"                                                                                                                        ",
"                                                                                                                        ",
"                                                                                                                        ",
"                                                                                                                        ",
"                                                                                                                        ",
"                                                                                                                        ",
"                                                                                                                        ",
"                                                                                                                        ",
"                                                                                                                        ",
"                                                                                                                        ",
"                                                                                                                        ",
"                                                                                                                        ",
"                                                                                                                        ",
"                                                                                                                        ",
"                                                                                                                        ",
"                                                                                                                        ",
"                                                                                                                        ",
"                                                                                                                        ",
"                                                                                                                        ",
"                                                                                                                        ",
"                                                                                                                        ",
"                                                                                                                        ",
"                                                                                                                        ",
"                                                                                                                        ",
"                                                                                                                        ",
"                                                                                                                        ",
"                                                                                                                        ",
"                                                                                                                        ",
"                                                                                                                        ",
"                                                                                                                        ",
"                                                                                                                        ",
"                                                                                                                        ",
"                                                                                                                        ",
"                                                                                                                        ",
"                                                                                                                        ",
"                                                                                                                        ",
"                                                                                                                        ",
"                                                                                                                        ",
"                                                                                                                        ",
"                                                                                                                        ",
"                                                                                                                        ",
"                                                                                                                        ",
"                                                                                                                        ",
"                                                                                                                        ",
"                                                                                                                        ",
"                                                                                                                        ",
"                                                                                                                        ",
"                                                                                                                        ",
"                                                                                                                        ",
"                                                                                                                        ",
"                                                                                                                        ",
"                                                   &:555:%                                                              ",
"                                                   :%:%&::%                                                             ",
"                                                   &%%:%&:%                                                             ",
"                                                   %o%%:5&:%                                                            ",
"                                                   3&3%o&5&%                                                            ",
"                                                   &3&&%o%:%                                                            ",
"                                                   %&&%&%o%1O                                                           ",
"                                                   &%%&&o%#,#O                                                          ",
"                                                  @$@.%..@O#O,,                                                         ",
"                                                 @5<<.%%.@@O.#1O                                                        ",
"                                                @O1O<$@&%@<@O.#O                                                        ",
"                                               O,5#,.<.3&X@$...#O                                                       ",
"                                               O1,#,O..&%1@$O..#O                       **                              ",
"                                               O,#O...$.%1,@$O..,O                    ==;;*                             ",
"                                               O##....$X1,,X$ O..,                  ==;;66*                             ",
"                                               #......$XOOO@$ OO.O                ==;4666;*                             ",
"                                               OO.O#..O$@X<X$  O.#O             ==>4666;;*                              ",
"                                               ,5#.O#,#$@X<$$  &33O           ==>666>;;**                               ",
"                                               #1,.,...$@XX<$X&%3&3          *>666>;=**                                 ",
"                                               #,#.,O#.O$XX,%@########    ==;466;;=**                                   ",
"                                               .#O.,....$.5,@@<,,,,,,,# ==;466;;=**                                     ",
"                                               ,...O.X.@X5@@@<XOOOOOO,==;466>;=**                                       ",
"                                               ,#.,..O$@X@.X<X..O..O==;466>;=**                                         ",
"                                               ,#.,..OX<@X@<@X....==;466>;=**                                           ",
"                                               ,#.,....X<<<.X...==>466>;=**                                             ",
"                                                ,.,..O@<X.O,O.==>666>;=**                                               ",
"                                                ,O.,..<..O,51*>666>;=**                                                 ",
"                                                ,O.,.O.,..==>666;;=**                                                   ",
"                                                ,.555O..==>664;;=**                                                     ",
"                                               .O51.1O=->664;;=**                                                       ",
"                                               .O62++446664;=**1                                                        ",
"                                               .O6+++4+464;**,1#1                                                       ",
"                                               .124442++==*OO11##,1                                                     ",
"                                               .52224+2+,O.#,1#...O                                                     ",
"                                               5,.222++    ...                                                          ",
"                                                                                                                        ",
"                                                                                                                        ",
"                                                                                                                        ",
"                                                                                                                        ",
"                                                                                                                        ",
"                                                                                                                        ",
"                                                                                                                        ",
"                                                                                                                        ",
"                                                                                                                        ",
"                                                                                                                        ",
"                                                                                                                        ",
"                                                                                                                        ",
"                                                                                                                        ",
"                                                                                                                        ",
"                                                                                                                        ",
"                                                                                                                        ",
"                                                                                                                        ",
"                                                                                                                        ",
"                                                                                                                        ",
"                                                                                                                        ",
"                                                                                                                        ",
"                                                                                                                        ",
"                                                                                                                        ",
"                                                                                                                        ",
"                                                                                                                        ",
"                                                                                                                        "
};
