/* XPM */
static char *luke_91[] = {
/* columns rows colors chars-per-pixel */
"120 120 23 1 ",
"  c None",
". c black",
"X c #201820",
"o c #502000",
"O c #082040",
"+ c #382840",
"@ c #003068",
"# c #503858",
"$ c #804010",
"% c #B86840",
"& c #009038",
"* c #08B030",
"= c #20D828",
"- c #60F840",
"; c #C8A038",
": c #A0F868",
"> c #0058A8",
", c #705080",
"< c #0878E8",
"1 c #F0A880",
"2 c #D0F888",
"3 c #D0D0D0",
"4 c #F8F8F8",
/* pixels */
"                                                                                                                        ",
"                                                                                                                        ",
"                                                                                                                        ",
"                                                                                                                        ",
"                                                                                                                        ",
"                                                                                                                        ",
"                                                                                                                        ",
"                                                                                                                        ",
"                                                                                                                        ",
"                                                                                                                        ",
"                                                                                                                        ",
"                                                                                                                        ",
"                                                                                                                        ",
"                                                                                                                        ",
"                                                                                                                        ",
"                                                                                                                        ",
"                                                                                                                        ",
"                                                                                                                        ",
"                                                                                                                        ",
"                                                                                                                        ",
"                                                                                                                        ",
"                                                                                                                        ",
"                                                                                                                        ",
"                                                                                                                        ",
"                                                                                                                        ",
"                                                                                                                        ",
"                                                                                                                        ",
"                                                                                                                        ",
"                                                                                                                        ",
"                                                                                                                        ",
"                                                                                                                        ",
"                                                                                                                        ",
"                                                                                                                        ",
"                                                                                                                        ",
"                                                                                                                        ",
"                                                                                                                        ",
"                                                                                                                        ",
"                                                                                                                        ",
"                                                                                                                        ",
"                                                                                                                        ",
"                                                                                                                        ",
"                                                                                                                        ",
"                                                                                                                        ",
"                                                                                                                        ",
"                                                                                                                        ",
"                                                                                                                        ",
"                                                                                                                        ",
"                                                                                                                        ",
"                                                                                                                        ",
"                                                                                                                        ",
"                                                                                                                        ",
"                                                                                                                        ",
"                                                                                                                        ",
"                                                                                                                        ",
"                                                                                                                        ",
"                                                                                                                        ",
"                                                                                                                        ",
"                                                   $;333;%                                                              ",
"                                                  $;;%$;%;                              &&*******&                      ",
"                                                  $;%$;%$%                            &&*=---:::-=&                     ",
"                                                 $;%;;%$o$                          &**=-::444444-*&                    ",
"                                                 $;;%o$1%1                         &*=-::444444442-*                    ",
"                                                 $;%o$%%1%OO                    &&**=-::4444444444:=*                   ",
"                                                 $%o$%$%%$><O                  &*==-::4444444444442-*                   ",
"                                                  ##.$%$$%@>@O                &&=:::444444444444442:*                   ",
"                                                  +#+.$..+O@O>>             &***:::4444444444444442:=&                  ",
"                                                 +3,,.$$.++O.@<O           &*=::44444444444444444442-*                  ",
"                                                +.OO,,+%$+,+O.@O        & &*-::444444444444444444442:*                  ",
"                                                O>3@.#.1%X+#...@O      &**=-:44444444444444444444442:*                  ",
"                                                O<>@.,.%$<+#O..@O    &**:-:4444444444444444444444442:*                  ",
"                                                O>@O..#.$<>+#O..>O &**::2444444444444444444444444442:=                  ",
"                                                O@@O@O#X<>>X# O..>==-::24444444444444444444444444442:=                  ",
"                                                @O@>3@#XOOO+# OO.&--:2444444444444444444444444444422:=                  ",
"                                                 @.@<>O#+X,X#  O==::244444444444444444444444444442::=*                  ",
"                                                 @O@>@O#X,#X#  =--2444444444444444444444442222222:-=*                   ",
"                                                  @.@OO3#XX+# $-::444444444444444444422222::::::-==*                    ",
"                                                   @..@<3<<.#$%:244444444444444422222:::::-======**                     ",
"                                                   @O..@>@@<3%%44444222222222222:::::-=====******                       ",
"                                                   +@>>....<.3.422:2::::::::::::-====*****                              ",
"                                                   +XX$>>>.<...--================*&                                     ",
"                                                   +++##X>>>>...*********                                               ",
"                                                   +#X#+X+.X,>@<@<.OO.>                                                 ",
"                                                   +#XX,+X+,+X.......O>                                                 ",
"                                                   +#X.X,,,.X....OO.O<                                                  ",
"                                                   +X#+,X.O>O..OO<><>                                                   ",
"                                                    +,,..O>3<O>....>                                                    ",
"                                                    X..>..O><>...>>                                                     ",
"                                                33<@OO..@>.O3<..>                                                       ",
"                                               .O@><3>@@.@.O><.>                                                        ",
"                                               .O>@..<<>@.@.O<@<                                                        ",
"                                               .OOO>>....XO.O><@<                                                       ",
"                                               .<33  >>O..@OO<<@@><                                                     ",
"                                               .3>.    >>O.@><@...O                                                     ",
"                                               ....        ...                                                          ",
"                                                                                                                        ",
"                                                                                                                        ",
"                                                                                                                        ",
"                                                                                                                        ",
"                                                                                                                        ",
"                                                                                                                        ",
"                                                                                                                        ",
"                                                                                                                        ",
"                                                                                                                        ",
"                                                                                                                        ",
"                                                                                                                        ",
"                                                                                                                        ",
"                                                                                                                        ",
"                                                                                                                        ",
"                                                                                                                        ",
"                                                                                                                        ",
"                                                                                                                        ",
"                                                                                                                        ",
"                                                                                                                        ",
"                                                                                                                        ",
"                                                                                                                        ",
"                                                                                                                        ",
"                                                                                                                        ",
"                                                                                                                        ",
"                                                                                                                        ",
"                                                                                                                        "
};
