/* XPM */
static char *luke_run8[] = {
/* columns rows colors chars-per-pixel */
"120 120 24 1 ",
"  c None",
". c black",
"X c #201820",
"o c #502000",
"O c #082040",
"+ c #102848",
"@ c #382840",
"# c #003068",
"$ c #503858",
"% c #804010",
"& c #B86840",
"* c #009038",
"= c #20B838",
"- c #38C838",
"; c #48E038",
": c #60F840",
"> c #C8A038",
", c #0058A8",
"< c #705080",
"1 c #0878E8",
"2 c #6880A8",
"3 c #F0A880",
"4 c #D0D0D0",
"5 c #F8F8F8",
/* pixels */
"                                                                                                                        ",
"                                                                                                                        ",
"                                                                                                                        ",
"                                                                                                                        ",
"                                                                                                                        ",
"                                                                                                                        ",
"                                                                                                                        ",
"                                                                                                                        ",
"                                                                                                                        ",
"                                                                                                                        ",
"                                                                                                                        ",
"                                                                                                                        ",
"                                                                                                                        ",
"                                                                                                                        ",
"                                                                                                                        ",
"                                                                                                                        ",
"                                                                                                                        ",
"                                                                                                                        ",
"                                                                                                                        ",
"                                                                                                                        ",
"                                                                                                                        ",
"                                                                                                                        ",
"                                                                                                                        ",
"                                                                                                                        ",
"                                                                                                                        ",
"                                                                                                                        ",
"                                                                                                                        ",
"                                                                                                                        ",
"                                                                                                                        ",
"                                                                                                                        ",
"                                                                        *-5-                                            ",
"                                                                        *-5-                                            ",
"                                                                       *-5--                                            ",
"                                                                       *-5-*                                            ",
"                                                                      *-5--*                                            ",
"                                                                      *-5-*                                             ",
"                                                                     *-5--*                                             ",
"                                                                     *-5-*                                              ",
"                                                                    *=5==*                                              ",
"                                                                    *=5=*                                               ",
"                                                                   *=5==*                                               ",
"                                                                   *=5=*                                                ",
"                                                                  *-5==*                                                ",
"                                                     %>>>&        *-5-*                                                 ",
"                                                    %>>&%%&      *-5--*                                                 ",
"                                                   %>>&%%&>      *-5-*                                                  ",
"                                                  %4>&%&%%&     *-5--*                                                  ",
"                                                 %>>4>>%%o%     *-5-*                                                   ",
"                                                 %&%o%o%3&3    *-5--*                                                   ",
"                                                  %&&o%&&3&    *-5-*                                                    ",
"                                                    o%&%&&%   *-5--*                                                    ",
"                                                   @o..&%%&   *-5-*                                                     ",
"                                                  @<<@.3.    *-5--*                                                     ",
"                                                 @..<<@&.@   *-5-*                                                      ",
"                                                ##4,O<.3X@@ *;5;-*                                                      ",
"                                               #1#,1@<.&1@@ *;5;*                                                       ",
"                                               #.O#,@<.%,@@*;5;;*                                                       ",
"                                               ##O##@<X1,@@*;5;*                                                        ",
"                                               #4,#.@<XOO@*-5;;*                                                        ",
"                                               ,1#..@$@@<@*-5;*                                                         ",
"                                               #,#O.$<X<@*-5;;*                                                         ",
"                                               O#.1O$$X<@*-5;*                                                          ",
"                                               ...,,$@X<@55                                                             ",
"                                               @#..4,,4@@22                                                             ",
"                                               .O,.#..@@:+                                                              ",
"                                               O.1##.142:2&                                                             ",
"                                               O.O,O..2::+:&                                                            ",
"                                               @..4#1.::+++                                                             ",
"                                               $@<@...2:++                                                              ",
"                                               @@<<$@<2:+2                                                              ",
"                                                $$X@<<$X#                                                               ",
"                                                  $$XXXO#                                                               ",
"                                                   #...,1#                                                              ",
"                                                     ..O4#                                                              ",
"                                            1441     ..O1#                                                              ",
"                                            O,O.4,  O..O,1#                                                             ",
"                                            .,O...,,#O..,,#                                                             ",
"                                            ,O.#....,#O.O4#                                                             ",
"                                            ..  ##..,...O1#                                                             ",
"                                            ..    #..,...1#                                                             ",
"                                                   ###...##                                                             ",
"                                                   #...###                                                              ",
"                                                  #.O#                                                                  ",
"                                                  ,.#                                                                   ",
"                                                 #.O#                                                                   ",
"                                                 ,.#                                                                    ",
"                                                #.O#                                                                    ",
"                                                ,.1                                                                     ",
"                                               1..#,1                                                                   ",
"                                               1....O                                                                   ",
"                                                                                                                        ",
"                                                                                                                        ",
"                                                                                                                        ",
"                                                                                                                        ",
"                                                                                                                        ",
"                                                                                                                        ",
"                                                                                                                        ",
"                                                                                                                        ",
"                                                                                                                        ",
"                                                                                                                        ",
"                                                                                                                        ",
"                                                                                                                        ",
"                                                                                                                        ",
"                                                                                                                        ",
"                                                                                                                        ",
"                                                                                                                        ",
"                                                                                                                        ",
"                                                                                                                        ",
"                                                                                                                        ",
"                                                                                                                        ",
"                                                                                                                        ",
"                                                                                                                        ",
"                                                                                                                        ",
"                                                                                                                        ",
"                                                                                                                        ",
"                                                                                                                        ",
"                                                                                                                        ",
"                                                                                                                        ",
"                                                                                                                        ",
"                                                                                                                        "
};
