/* XPM */
static char *luke_attack_a12[] = {
/* columns rows colors chars-per-pixel */
"120 120 23 1 ",
"  c None",
". c black",
"X c #201820",
"o c #502000",
"O c #082040",
"+ c #382840",
"@ c #003068",
"# c #503858",
"$ c #804010",
"% c #B86840",
"& c #009038",
"* c #08B030",
"= c #20D828",
"- c #60F840",
"; c #C8A038",
": c #A0F868",
"> c #0058A8",
", c #705080",
"< c #0878E8",
"1 c #F0A880",
"2 c #D0F888",
"3 c #D0D0D0",
"4 c #F8F8F8",
/* pixels */
"                                                                                                                        ",
"                                                                                                                        ",
"                                                                                                                        ",
"                                                                                                                        ",
"                                                                                                                        ",
"                                                                                                                        ",
"                                                                                                                        ",
"                                                                                                                        ",
"                                                                                                                        ",
"                                                                                                                        ",
"                                                                                                                        ",
"                                                                                                                        ",
"                                                                                                                        ",
"                                                                                                                        ",
"                                                                                                                        ",
"                                                                                                                        ",
"                                                                                                                        ",
"                                                                                                                        ",
"                                                                                                                        ",
"                                                                                                                        ",
"                                                                                                                        ",
"                                                                                                                        ",
"                                                                                                                        ",
"                                                                                                                        ",
"                                                                                                                        ",
"                                                                                                                        ",
"                                                                                                                        ",
"                                                                                                                        ",
"                                                                                    &&**--&                             ",
"                                                                                  &&**--44&                             ",
"                                                                                &&**--444-&                             ",
"                                                                              &&**-:444--&                              ",
"                                                                            &&**-:444--&&                               ",
"                                                                          &&**-2444--&&                                 ",
"                                                                        &&**-2444--&&                                   ",
"                                                                      &&**-2444--&&                                     ",
"                                                                    &&**-244:--&&                                       ",
"                                                                  &&*--244:-*&&                                         ",
"                                                                &&*--244:-*&&                                           ",
"                                                              &&*-:444:-*&&                                             ",
"                                                            &&*-:444:-*&&                                               ",
"                                                          &&*-:444:-*&&                                                 ",
"                                    $;;;%               &&*-:444--*&&                                                   ",
"                                   $;;%$$%             &*-:444--*&&                                                     ",
"                                  $;;%$$%;           O,=:444--*&&                                                       ",
"                                 $3;%$%$$%        OOO33=4:--*&&                                                         ",
"                                 ;;3;;$$o$       O3<3..==**&&                                                           ",
"                                 %$o$o$1%1O>>>@OO<3..>.<O                                                               ",
"                                  %%o$%%1%..OOO<<.<.>.<O                                                                ",
"                                   O.OOOOOOO>3<>..O<<<O                                                                 ",
"                                   +O33>>3<>@<@..O$o%$                                                                  ",
"                                  +,3><>@<@@>...O>o$$                                                                   ",
"                                  +,@OOO>...@OO>>O                                                                      ",
"                                  +,.@@..@OO>>>.O                                                                       ",
"                                  +,....O@>>.+,O                                                                        ",
"                                   +>..O>#.1%XXX                                                                        ",
"                                   +>..>O#.%$<+#                                                                        ",
"                                   +##@..#.$<>+#                                                                        ",
"                                    +,+..#X<>>+#                                                                        ",
"                                     #,...#XOOO#                                                                        ",
"                                     +,+..++X,##                                                                        ",
"                                      #,.XXXX,X#                                                                        ",
"                                      +##+XX,+X#                                                                        ",
"                                       +,XXX,X+#                                                                        ",
"                                        X#+X,#++                                                                        ",
"                                        X+%$.33.$                                                                       ",
"                                         ooooo,#oo                                                                      ",
"                                        +,++XXXX++                                                                      ",
"                                        +++.+..X+#+                                                                     ",
"                                       +,3++.X..X##+                                                                    ",
"                                      +,++3#+X+X+,XO                                                                    ",
"                                      +@@..###X##X@>@                                                                   ",
"                                      @3>O..O++,X..@>@                                                                  ",
"                                      3<@@>@OX@.....@>@                                                                 ",
"                                     @<>>.OO  OO.....@>@                                                                ",
"                                     33@@OO     O@..O.@>@                                                               ",
"                                    O<><.O       OOO.@@>@                                                               ",
"                                    .>@.@O         O@O.@O                                                               ",
"                                   >...>O            @.O@                                                               ",
"                                  >3...O            O.O@                                                                ",
"                                  3.3>>            <.O@>                                                                ",
"                                 <..@>@           >@O@>                                                                 ",
"                                 3.O>@            >.@>                                                                  ",
"                                <..@>@           >.O>                                                                   ",
"                                <.@>@           >.@>                                                                    ",
"                               <3.>@           >.@>                                                                     ",
"                               3.@>            <.><                                                                     ",
"                              3<.>@            >@.>>><                                                                  ",
"                             3OO@<>            >.....>                                                                  ",
"                             ....@@                                                                                     ",
"                             ....@@                                                                                     ",
"                                                                                                                        ",
"                                                                                                                        ",
"                                                                                                                        ",
"                                                                                                                        ",
"                                                                                                                        ",
"                                                                                                                        ",
"                                                                                                                        ",
"                                                                                                                        ",
"                                                                                                                        ",
"                                                                                                                        ",
"                                                                                                                        ",
"                                                                                                                        ",
"                                                                                                                        ",
"                                                                                                                        ",
"                                                                                                                        ",
"                                                                                                                        ",
"                                                                                                                        ",
"                                                                                                                        ",
"                                                                                                                        ",
"                                                                                                                        ",
"                                                                                                                        ",
"                                                                                                                        ",
"                                                                                                                        ",
"                                                                                                                        ",
"                                                                                                                        ",
"                                                                                                                        ",
"                                                                                                                        ",
"                                                                                                                        ",
"                                                                                                                        "
};
