/* XPM */
static char *luke_171[] = {
/* columns rows colors chars-per-pixel */
"120 120 25 1 ",
"  c None",
". c black",
"X c #201820",
"o c #502000",
"O c #082040",
"+ c #102848",
"@ c #382840",
"# c #003068",
"$ c #503858",
"% c #804010",
"& c #B86840",
"* c #009038",
"= c #08B030",
"- c #20D828",
"; c #60F840",
": c #C8A038",
"> c #A0F868",
", c #0058A8",
"< c #705080",
"1 c #0878E8",
"2 c #6880A8",
"3 c #F0A880",
"4 c #D0F888",
"5 c #D0D0D0",
"6 c #F8F8F8",
/* pixels */
"                                                                                                                        ",
"                                                                                                                        ",
"                                                                                                                        ",
"                                                                                                                        ",
"                                                                                                                        ",
"                                                                                                                        ",
"                                                                                                                        ",
"                                                                                                                        ",
"                                                                                                                        ",
"                                                                                                                        ",
"                                                                                                                        ",
"                                                                                                                        ",
"                                                                                                                        ",
"                                                                                                                        ",
"                                                                                                                        ",
"                                                                                                                        ",
"                                                                                                                        ",
"                                                                                                                        ",
"                                                                                                                        ",
"                                                                                                                        ",
"                                                                                                                        ",
"                                                                                                                        ",
"                                                                                                                        ",
"                                                                                                                        ",
"                                                                                                                        ",
"                                                                                                                        ",
"                                                                                                                        ",
"                                                                                                                        ",
"                                                                                                                        ",
"                                                                                                                        ",
"                                                                                                                        ",
"                                                                                                                        ",
"                                                                                                                        ",
"                                                                                                                        ",
"                                                                                                                        ",
"                                                                                                                        ",
"                                                                                                                        ",
"                                                                                                                        ",
"                                                                                                                        ",
"                                                                                                                        ",
"                                                                                                                        ",
"                                                                                                                        ",
"                                                                                                                        ",
"                                                                                                                        ",
"                                                                                                                        ",
"                                                                                                                        ",
"                                                                                                                        ",
"                                                                                                                        ",
"                                  ****                                                                                  ",
"                                **->>-*                                                                                 ",
"                              **-4446>-*                                                                                ",
"                            **-6664446>-*                                                                               ",
"                           *-6666664446>-*                &:555:%                                                       ",
"                          *-466666666446>-*               :%:%&::%                                                      ",
"                          *-4666666666646>-*              &%%:%&:%                                                      ",
"                          *-44666666666446>>*             %o%%::&:%                                                     ",
"                          *-->46666666664446>-*           3&3%o%:&%                                                     ",
"                           **-->4666666666666>-*          &3&&%o%:%                                                     ",
"                             **-->466666666666>-*         %&&%&%o%                                                      ",
"                               **-->44666666666>-*        &%%&&o%X5@@                                                   ",
"                                 **--44466666666>-*        @.3...X<$..@                                                 ",
"                                   **--4446666666>>*       ..&.@.@<.,5##                                                ",
"                                     **-;4666666666>*     @<.&@X@<$O1,#1#                                               ",
"                                       **;;666666666>*    <@@%3X.$<O,#O.#                                               ",
"                                          *-->4666666>>*  $@X&&..$<O##O##                                               ",
"                                           **-->466666>-*O$@1%%..$<..#,5#                                               ",
"                                             **-->46664>-*$@,11XX$$...#1,                                               ",
"                                               **-->46664-*@@,XXX$@..O#,#                                               ",
"                                                 **--66666-*@O<X@<X@O1.#O                                               ",
"                                                   **>>664>-@$$@XXOOO..O                                                ",
"                                                     **>>466X6$222515.#O                                                ",
"                                                      &**>-=X6@4222.11O.                                                ",
"                                                     3%%%**O6+244426...                                                 ",
"                                                     % % OO  +4+++661.X                                                 ",
"                                                             .4++2666$O<@                                               ",
"                                                            O5.1,X$6+$O<@                                               ",
"                                                           @5OX#..@<<@O,<@                                              ",
"                                                         @@OO...##....X@@X                                              ",
"                                                        OO5..@.,111#...XXX                                              ",
"                                                      OO,1O.X.,551,#..#,                                                ",
"                                                     O,1OO....5..,#..,#                                                 ",
"                                                     ,OO...#,#,..#O.,                                                   ",
"                                                     O...#,#  ,..O,.                                                    ",
"                                                     O.OO#     ,...5                                                    ",
"                                                     ,1,1       1551                                                    ",
"                                                     ,...,      ,..#5                                                   ",
"                                                      ,..,       ,.#5                                                   ",
"                                                       ,..,      ,..#                                                   ",
"                                                        ,.O       ,.#                                                   ",
"                                                        1.#       ,..                                                   ",
"                                                       1#.,        ,.#5                                                 ",
"                                                     1,#..1        ,551                                                 ",
"                                                     O....1        ,.,5                                                 ",
"                                                                   ....                                                 ",
"                                                                                                                        ",
"                                                                                                                        ",
"                                                                                                                        ",
"                                                                                                                        ",
"                                                                                                                        ",
"                                                                                                                        ",
"                                                                                                                        ",
"                                                                                                                        ",
"                                                                                                                        ",
"                                                                                                                        ",
"                                                                                                                        ",
"                                                                                                                        ",
"                                                                                                                        ",
"                                                                                                                        ",
"                                                                                                                        ",
"                                                                                                                        ",
"                                                                                                                        ",
"                                                                                                                        ",
"                                                                                                                        ",
"                                                                                                                        ",
"                                                                                                                        ",
"                                                                                                                        ",
"                                                                                                                        ",
"                                                                                                                        ",
"                                                                                                                        ",
"                                                                                                                        "
};
