/* XPM */
static char *luke_146[] = {
/* columns rows colors chars-per-pixel */
"120 120 23 1 ",
"  c None",
". c black",
"X c #201820",
"o c #502000",
"O c #082040",
"+ c #382840",
"@ c #003068",
"# c #503858",
"$ c #804010",
"% c #B86840",
"& c #009038",
"* c #10A038",
"= c #20B838",
"- c #38C838",
"; c #48E038",
": c #60F840",
"> c #C8A038",
", c #0058A8",
"< c #705080",
"1 c #0878E8",
"2 c #F0A880",
"3 c #D0D0D0",
"4 c #F8F8F8",
/* pixels */
"                                                                                                                        ",
"                                                                                                                        ",
"                                                                                                                        ",
"                                                                                                                        ",
"                                                                                                                        ",
"                                                                                                                        ",
"                                                                                                                        ",
"                                                                                                                        ",
"                                                                                                                        ",
"                                                                                                                        ",
"                                                                                                                        ",
"                                                                                                                        ",
"                                                                                                                        ",
"                                                                                                                        ",
"                                                                                                                        ",
"                                                                                                                        ",
"                                                                                                                        ",
"                                                                                                                        ",
"                                                                                                                        ",
"                                                                                                                        ",
"                                                                                                                        ",
"                                                                                                                        ",
"                                                                                                                        ",
"                                                                                                                        ",
"                                                                                                                        ",
"                                                                                                                        ",
"                                                                                                                        ",
"                                                                                                                        ",
"                                                                                                                        ",
"                                                                                                                        ",
"                                                                                                                        ",
"                                                                                                                        ",
"                                                                                                                        ",
"                                                                                                                        ",
"                                                                                                                        ",
"                                                                                                                        ",
"                                                                                                                        ",
"                                                                                                                        ",
"                                                                                                                        ",
"                                                                                                                        ",
"                                                                                                                        ",
"                                                                                                                        ",
"                                                                                                                        ",
"                                                                                                                        ",
"                                                           %>333>$                                                      ",
"                     &*******&&                            >%>$%>>$                                                     ",
"                    &=-;;;---=*&&                          %$%>$%>$                                                     ",
"                   &*-444444;;-=**&                        $o$%>>%>$                                                    ",
"                   *-:44444444;;-=*&                       2%2$o%>>$                                                    ",
"                  *=;4444444444;;-=**&&                  OO%2%%$o%>$                                                    ",
"                  *-:444444444444;;-==*&                O1,$%%$%$o%$                                                    ",
"                  *;:44444444444444;;;=&&              O@,@%$$%$.##                                                     ",
"                 &=;:444444444444444;;;***&           ,,O@O+..$.+#+                                                     ",
"                 *-:4444444444444444444;;=*&         O1@.O++.$$.<<3+                                                    ",
"                 *;:44444444444444444444;;-*& &      O@.O+<+$%+<<OO.+                                                   ",
"                 *;:4444444444444444444444;-=**&    O@...#+X%2.#.@3,O                                                   ",
"                 *;:444444444444444444444444;-;**&  O@..O#+1$%.<.@,1O                                                   ",
"                 =;:44444444444444444444444444:;;**&,..O#+,1$.#..O@,O                                                   ",
"                 =;:444444444444444444444444444:;;-==.O #X,,1X#O@O@@O                                                   ",
"                 =;::4444444444444444444444444444:;--&O #+OOOX#@3,@O@                                                   ",
"                 *=;;:4444444444444444444444444444:;;== #X<X+#O,1@.@                                                    ",
"                  *=-;:::::::44444444444444444444444:--=#X#<X#O@,@O@                                                    ",
"                   *==-;;;;;;:::::4444444444444444444;;-#+XX#3OO@.@                                                     ",
"                    **======-;;;;;:::::444444444444444:;#.1131@..@                                                      ",
"                      ******=====-;;;;;::::::::::::4444431@@,@..O@                                                      ",
"                             *****====-;;;;;;;;;;;;:;::4.1....,,@                                                       ",
"                                    &*================--.1..1333X$o%o                                                   ",
"                                              *********.,,.1331@13XX.                                                   ",
"                                                   1@OOOOO.@,3,.@@1X<X                                                  ",
"                                                    O1,,OO.O@,@...@1X<X                                                 ",
"                                                   O1,@O,,O.O@O....@X<X                                                 ",
"                                                   O,@@.OO@.OO.O....X#X                                                 ",
"                                                   O,@OO..O..,33....XXX                                                 ",
"                                                   O@@o.@@..1...3...@                                                   ",
"                                                     .....@@,,.O,@@@                                                    ",
"                                                     ,O.,    1.O,O                                                      ",
"                                                     1O..,   1,.<3                                                      ",
"                                                      1O..,   1..,                                                      ",
"                                                       1O.,   1.<3                                                      ",
"                                                        1O.,  33.,                                                      ",
"                                                         1O., ..33                                                      ",
"                                                         ,..O ,O.3                                                      ",
"                                                         ,OO. O..13                                                     ",
"                                                        ,1O.   ,O.1                                                     ",
"                                                        O..     ..1                                                     ",
"                                                                 ..                                                     ",
"                                                                                                                        ",
"                                                                                                                        ",
"                                                                                                                        ",
"                                                                                                                        ",
"                                                                                                                        ",
"                                                                                                                        ",
"                                                                                                                        ",
"                                                                                                                        ",
"                                                                                                                        ",
"                                                                                                                        ",
"                                                                                                                        ",
"                                                                                                                        ",
"                                                                                                                        ",
"                                                                                                                        ",
"                                                                                                                        ",
"                                                                                                                        ",
"                                                                                                                        ",
"                                                                                                                        ",
"                                                                                                                        ",
"                                                                                                                        ",
"                                                                                                                        ",
"                                                                                                                        ",
"                                                                                                                        ",
"                                                                                                                        ",
"                                                                                                                        ",
"                                                                                                                        ",
"                                                                                                                        ",
"                                                                                                                        ",
"                                                                                                                        ",
"                                                                                                                        ",
"                                                                                                                        ",
"                                                                                                                        ",
"                                                                                                                        ",
"                                                                                                                        "
};
