/* XPM */
static char *luke_93[] = {
/* columns rows colors chars-per-pixel */
"120 120 23 1 ",
"  c None",
". c black",
"X c #201820",
"o c #502000",
"O c #082040",
"+ c #382840",
"@ c #003068",
"# c #503858",
"$ c #804010",
"% c #B86840",
"& c #009038",
"* c #10A038",
"= c #20B838",
"- c #38C838",
"; c #48E038",
": c #60F840",
"> c #C8A038",
", c #0058A8",
"< c #705080",
"1 c #0878E8",
"2 c #F0A880",
"3 c #D0D0D0",
"4 c #F8F8F8",
/* pixels */
"                                                                                                                        ",
"                                                                                                                        ",
"                                                                                                                        ",
"                                                                                                                        ",
"                                                                                                                        ",
"                                                                                                                        ",
"                                                                                                                        ",
"                                                                                                                        ",
"                                                                                                                        ",
"                                                                                                                        ",
"                                                                                                                        ",
"                                                                                                                        ",
"                                                                                                                        ",
"                                                                                                                        ",
"                                                                                                                        ",
"                                                                                                                        ",
"                                                                                                                        ",
"                                                                                                                        ",
"                                                                                                                        ",
"                                                                                                                        ",
"                                                                                                                        ",
"                                                                                                                        ",
"                                                                                                                        ",
"                                                                                                                        ",
"                                                                                                                        ",
"                                                                                                                        ",
"                                                                                                                        ",
"                                                                                                                        ",
"                                                                                                                        ",
"                                                                                                                        ",
"                                                                                                                        ",
"                                                                                                                        ",
"                                                                                                                        ",
"                                                                                                                        ",
"                                                                                                                        ",
"                                                                                                                        ",
"                                                                                                                        ",
"                                                                                                                        ",
"                                                                                                                        ",
"                                                                                                                        ",
"                                                                                                                        ",
"                                                                                                                        ",
"                                                                                                                        ",
"                                                                                                                        ",
"                                                                                                                        ",
"                                                                                                                        ",
"                                                                                                                        ",
"                                                                                                                        ",
"                                                                                                                        ",
"                                                                                                                        ",
"                                                                                                                        ",
"                                                                                                                        ",
"                                                                                                                        ",
"                                                                                                                        ",
"                                                                                                                        ",
"                                                                                                                        ",
"                                                                                                                        ",
"                                                  $>333>%                                                               ",
"                                                 $>>%$>%>                                                               ",
"                                                 $>%$>%$%                                                               ",
"                                                $>%>>%$o$                                                               ",
"                                                $>>%o$2%2                                                               ",
"                                                $>%o$%%2%OO                                                             ",
"                                                $%o$%$%%$,1O                                                            ",
"                                                 ##..%$$%@,@O                                                           ",
"                                                  ++.$...O@O,O                                                          ",
"                                                +3<<.$$.++O.1,O                                                         ",
"                                               +.OO<<+%$.<+OO,O                                                         ",
"                                               O,3@.O.2%X+#..O@O                                                        ",
"                                               O1,@.<.%$1+#O..@O                                                        ",
"                                               O,@O..#.$1,+#O..,O                                                       ",
"                                               O@@O@O#X1,,X# O..,                                                       ",
"                                               @O@,3@#.OOO+# OO.O                                                       ",
"                                               ,.O@1,O.+X<X# O.OO                                                       ",
"                                                ,O@,@O.X<#X# O.@O                                                       ",
"                                                ,..@OOO#XX+# $$1O                                                       ",
"                                                 ,.OO3#XX..#$2%$O                                                       ",
"                                                 ,.O,13113<.$%%%$                                                       ",
"                                                  ,.O@,@@333.33%,@@@@@                                                  ",
"                                                   +,...1..331.,.,,,,,@                                                 ",
"                                                   +++,@1....,..3,==**&&                                                ",
"                                                   +#X#+X1,.,1.OO.=4;--*&&                                              ",
"                                                   +#XX<+X+,..1...=;444--*&&                                            ",
"                                                   +#X.X<<<.X....O&*-;444--*&&                                          ",
"                                                   +X#+<X.O,O..OO1,&&*-;444--*&&                                        ",
"                                                    +<<..O,31O,...., &&*-;444;-*&&                                      ",
"                                                    X..,..O,1,...,,    &&*-;444;-*&&                                    ",
"                                                331@OO..@,.O31..,        &&*-;444;-*&&                                  ",
"                                               .O@,13,@@.@.O,1.,           &&*--:44;-*&&                                ",
"                                               .O,@..11,@.@.O1@1             &&*--:44;-*&&                              ",
"                                               .OOO,,....XO.O,1@1              &&**-:44;--&&                            ",
"                                               .133  ,,O..@OO11@@,1              &&**-:444--&&                          ",
"                                               .3,.    ,,O.@,1@...O                &&**-:444--&&                        ",
"                                               ....        ...                       &&**-:444--&&                      ",
"                                                                                       &&**-;444--&&                    ",
"                                                                                         &&**-;444--&                   ",
"                                                                                           &&**--444-&                  ",
"                                                                                             &&**--44&                  ",
"                                                                                               &&**--&                  ",
"                                                                                                 &&*&                   ",
"                                                                                                                        ",
"                                                                                                                        ",
"                                                                                                                        ",
"                                                                                                                        ",
"                                                                                                                        ",
"                                                                                                                        ",
"                                                                                                                        ",
"                                                                                                                        ",
"                                                                                                                        ",
"                                                                                                                        ",
"                                                                                                                        ",
"                                                                                                                        ",
"                                                                                                                        ",
"                                                                                                                        ",
"                                                                                                                        ",
"                                                                                                                        ",
"                                                                                                                        ",
"                                                                                                                        ",
"                                                                                                                        ",
"                                                                                                                        "
};
