/* XPM */
static char *luke_138[] = {
/* columns rows colors chars-per-pixel */
"120 120 23 1 ",
"  c None",
". c black",
"X c #201820",
"o c #502000",
"O c #082040",
"+ c #382840",
"@ c #003068",
"# c #503858",
"$ c #804010",
"% c #B86840",
"& c #009038",
"* c #10A038",
"= c #20B838",
"- c #38C838",
"; c #48E038",
": c #60F840",
"> c #C8A038",
", c #0058A8",
"< c #705080",
"1 c #0878E8",
"2 c #F0A880",
"3 c #D0D0D0",
"4 c #F8F8F8",
/* pixels */
"                                                                                                                        ",
"                                                                                                                        ",
"                                                                                                                        ",
"                                                                                                                        ",
"                                                                                                                        ",
"                                                                                                                        ",
"                                                                                                                        ",
"                                                                                                                        ",
"                                                                                                                        ",
"                                                                                                                        ",
"                                                                                                                        ",
"                                                                                                                        ",
"                                                                                                                        ",
"                                                                                                                        ",
"                                                                                                                        ",
"                                                                                                                        ",
"                                                                                                                        ",
"                                                                                                                        ",
"                                                                                                                        ",
"                                                                                                                        ",
"                                                                                                                        ",
"                                                                                                                        ",
"                                                                                                                        ",
"                                                                                                                        ",
"                                                                                                                        ",
"                                                                                                                        ",
"                                                                                                                        ",
"                                                                                                                        ",
"                                                                                                                        ",
"                                                                                                                        ",
"                                                                                                                        ",
"                                                                                                                        ",
"                                                                                                                        ",
"                                                                                                                        ",
"                                                                                                                        ",
"                                                                                                                        ",
"                                                                                                                        ",
"                                                                                                                        ",
"                                                                                                                        ",
"                                                                                                                        ",
"                                                                                                                        ",
"                                                                                                                        ",
"                                                                                                                        ",
"                                                                                                                        ",
"                                                                                                                        ",
"                                                                                                                        ",
"                                                                                                                        ",
"                                                             %>333>$                                                    ",
"                                                             >%>$%>>$                                                   ",
"                                                             %$%>$%>$                                                   ",
"                                                             $o$%>>%>$                                                  ",
"                                                             2%2$o%>>$                                                  ",
"                                                           OO%2%%$o%>$                                                  ",
"                                                          O1,$%%$%$o%$                                                  ",
"                                                         O@,@%$$%..##                                                   ",
"                                                        O,O@O...$.++                                                    ",
"                                                       O,1.O++.$$.<<3+                                                  ",
"                                                       O,OO+<.$%+<<OO.+                                                 ",
"                                                      O@O..#+X%2.O.@3,O                                                 ",
"                                                      O@..O#+1$%.<.@,1O                                                 ",
"                                                     O,..O#+,1$.#..O@,O                                                 ",
"                                                     ,..O #X,,1X#O@O@@O                                                 ",
"                                                     O.OO #+OOO.#@3,@O@                                                 ",
"                                                     OO.O #X<X+.O,1@O.,                                                 ",
"                                                     O@.O #X#<X.O@,@O,                                                  ",
"                                                     O1$$ #+XX#OOO@..,                                                  ",
"                                                     O$%2$#..XX#3OO.,                                                   ",
"                                                     $%%%$.<31131,O.,                                                   ",
"                                       *********     ,%33.333@@,@O.,                                                    ",
"                             &*================--    .,.133..1...,                                                      ",
"                      *****====-;;;;;;;;;;;;:;::4   ,3..oo#<ooooo                                                       ",
"               ******=====-;;;;;::::::::::::44444   .OO.++XXXX++<+                                                      ",
"             **======-;;;;;:::::444444444444444:;     .+#+X..+.+++                                                      ",
"            *==-;;;;;;:::::4444444444444444444;;-     +##X..X.++3<+                                                     ",
"           *=-;:::::::44444444444444444444444:--=     OX<+X+X+#3++<+                                                    ",
"          *=;;:4444444444444444444444444444:;;==     @,@X##X###..@@+                                                    ",
"          =;::4444444444444444444444444444:;--&     @,@..X<++O..O,3@                                                    ",
"          =;:444444444444444444444444444:;;-==     @,@.....@XO@,@@13                                                    ",
"          =;:44444444444444444444444444:;;**&     @,@.....OO  OO.,,1@                                                   ",
"          *;:444444444444444444444444;-;**&      @,@.O..@O     OO@@33                                                   ",
"          *;:4444444444444444444444;-=**&        @,@@.OOO       O.1,1O                                                  ",
"          *;:44444444444444444444;;-*& &         O@.O@O         O@.@,.                                                  ",
"          *-:4444444444444444444;;=*&            @O.@            O,...,                                                 ",
"          &=;:444444444444444;;;***&              @O.O            O...3,                                                ",
"           *;:44444444444444;;;=&&                ,@O.1            ,,3.3                                                ",
"           *-:444444444444;;-==*&                  ,@O@,           @,@..1                                               ",
"           *=;4444444444;;-=**&&                    ,@.,            @,O.3                                               ",
"            *-:44444444;;-=*&                        ,O.,           @,@..1                                              ",
"            &*-444444;;-=**&                          ,@.,           @,@.1                                              ",
"             &=-;;;---=*&&                             ,@.,           @,.31                                             ",
"              &*******&&                               1,.1            ,@.3                                             ",
"                                                    1,,,.@,            @,.13                                            ",
"                                                    ,.....,            ,1@OO3                                           ",
"                                                                       @@....                                           ",
"                                                                                                                        ",
"                                                                                                                        ",
"                                                                                                                        ",
"                                                                                                                        ",
"                                                                                                                        ",
"                                                                                                                        ",
"                                                                                                                        ",
"                                                                                                                        ",
"                                                                                                                        ",
"                                                                                                                        ",
"                                                                                                                        ",
"                                                                                                                        ",
"                                                                                                                        ",
"                                                                                                                        ",
"                                                                                                                        ",
"                                                                                                                        ",
"                                                                                                                        ",
"                                                                                                                        ",
"                                                                                                                        ",
"                                                                                                                        ",
"                                                                                                                        ",
"                                                                                                                        ",
"                                                                                                                        ",
"                                                                                                                        ",
"                                                                                                                        ",
"                                                                                                                        "
};
