/* XPM */
static char *luke_101[] = {
/* columns rows colors chars-per-pixel */
"120 120 25 1 ",
"  c None",
". c black",
"X c #201820",
"o c #502000",
"O c #082040",
"+ c #102848",
"@ c #382840",
"# c #003068",
"$ c #503858",
"% c #804010",
"& c #B86840",
"* c #009038",
"= c #08B030",
"- c #20D828",
"; c #60F840",
": c #C8A038",
"> c #A0F868",
", c #0058A8",
"< c #705080",
"1 c #0878E8",
"2 c #6880A8",
"3 c #F0A880",
"4 c #D0F888",
"5 c #D0D0D0",
"6 c #F8F8F8",
/* pixels */
"                                                                                                                        ",
"                                                                                                                        ",
"                                                                                                                        ",
"                                                                                                                        ",
"                                                                                                                        ",
"                                                                                                                        ",
"                                                                                                                        ",
"                                                                                                                        ",
"                                                                                                                        ",
"                                                                                                                        ",
"                                                                                                                        ",
"                                                                                                                        ",
"                                                                                                                        ",
"                                                                                                                        ",
"                                                                                                                        ",
"                                                                                                                        ",
"                                                                                                                        ",
"                                                                                                                        ",
"                                                                                                                        ",
"                                                                                                                        ",
"                                                                                                                        ",
"                                                                                                                        ",
"                                                                                                                        ",
"                                                                                                                        ",
"                                                                                                                        ",
"                                                                                                                        ",
"                                                           *************                                                ",
"                                                          *-------------*                                               ",
"                                                         *-4444444466644>=*                                             ",
"                                                         *-444664446666644-*                                            ",
"                                                          *-44664446666664-*                                            ",
"                                                          *-44666446666664-*                                            ",
"                                                           *44466446666664-*                                            ",
"                                                           *-4466444666666;*                                            ",
"                                                           *-4466644666666;*                                            ",
"                                                           **-446644666666;*                                            ",
"                                                            *-446644666666;*                                            ",
"                                                            *-446664666666;*                                            ",
"                                                             *-44664666666;*                                            ",
"                                                             *-44664466666;*                                            ",
"                                                             **44666466666>*                                            ",
"                                                               -4466466666;*                                            ",
"                                                               -4466466666;*                                            ",
"                                                              &*-466666666;*                                            ",
"                                                             &:*-446666666;*                                            ",
"                                                             :o&*446666666;*                                            ",
"                                                             :oo*-46666666;*                                            ",
"                                                             %o%*-44666666;*                                            ",
"                                                             o%%&*;4666666>*                                            ",
"                                                             o%&%*-4666666;*                                            ",
"                                                              o%&3*4466666;*                                            ",
"                                                           @@Xo%&.*-466666;*                                            ",
"                                                         #@5$X.&3.*-466666;*                                            ",
"                                                        #5<<$$.3..X*446666;*                                            ",
"                                                       #5,O<<$%5.X$*-46666;*                                            ",
"                                                       #,1.$<<&3.X$*-46666;*                                            ",
"                                                      #,#.O$@1&3.X<<*44666>*                                            ",
"                                                      #O..OX@,%&.$<$*-4666>*                                            ",
"                                                      5,.,X$@,1%X$<<$*;466>*                                            ",
"                                                     #1.,  X@OOOX$$@X*-466>*                                            ",
"                                                     #,.,  X$<..X$<$X*-466>*                                            ",
"                                                     O#.,  X@$<.XX$@X *>66>*                                            ",
"                                                     1#,   X$@<.X$X@X *-44>*                                            ",
"                                                     ,.,   X$$@<XX$$X  *>6>*                                            ",
"                                                     ,.O   X$@@<X@X$X  *-6-*                                            ",
"                                                     ,.O   X$$@$<$XX$   O666                                            ",
"                                                     ,.1    X55X%o&X&   1622                                            ",
"                                                     ,..    ...5&.o.X  4+2+4                                            ",
"                                                     %%3   1X1,X$<$@@  +4442                                            ",
"                                                     &3%3 @O...X@$@$@  24++4                                            ",
"                                                     %&o% @1.@X@@@$<@  24+2+                                            ",
"                                                     %&o  X1#$X$<@@$@@ ++226                                            ",
"                                                      %%  XO.@.$<<@$@@ +61+                                             ",
"                                                          O5OX.XXXXXX@  1                                               ",
"                                                          OO.XXO....O                                                   ",
"                                                          O5O.O ...OO                                                   ",
"                                                         O#..O  #.O,O                                                   ",
"                                                         O,..O  #.O,1O                                                  ",
"                                                         O1O.O   #.15O                                                  ",
"                                                         O#..O   #.O,O                                                  ",
"                                                         OO.O    O.O#O                                                  ",
"                                                         O.O#    O...O                                                  ",
"                                                         1#,      #155                                                  ",
"                                                         ,.,      .,O1                                                  ",
"                                                         ,.1      .,O1                                                  ",
"                                                         ,.1      .,.1                                                  ",
"                                                         ,.,      #,.1                                                  ",
"                                                         ,.#      ,,.1                                                  ",
"                                                         ,#X      #,.1                                                  ",
"                                                        1.#        #.,                                                  ",
"                                                       1#.,        #1,                                                  ",
"                                                     1,#..1        ,551                                                 ",
"                                                     O....1        ,.,5                                                 ",
"                                                                   ....                                                 ",
"                                                                                                                        ",
"                                                                                                                        ",
"                                                                                                                        ",
"                                                                                                                        ",
"                                                                                                                        ",
"                                                                                                                        ",
"                                                                                                                        ",
"                                                                                                                        ",
"                                                                                                                        ",
"                                                                                                                        ",
"                                                                                                                        ",
"                                                                                                                        ",
"                                                                                                                        ",
"                                                                                                                        ",
"                                                                                                                        ",
"                                                                                                                        ",
"                                                                                                                        ",
"                                                                                                                        ",
"                                                                                                                        ",
"                                                                                                                        ",
"                                                                                                                        ",
"                                                                                                                        ",
"                                                                                                                        ",
"                                                                                                                        ",
"                                                                                                                        ",
"                                                                                                                        "
};
