/* XPM */
static char *luke_109[] = {
/* columns rows colors chars-per-pixel */
"120 120 23 1 ",
"  c None",
". c black",
"X c #201820",
"o c #502000",
"O c #082040",
"+ c #102848",
"@ c #382840",
"# c #003068",
"$ c #503858",
"% c #804010",
"& c #B86840",
"* c #009038",
"= c #20D828",
"- c #C8A038",
"; c #A0F868",
": c #0058A8",
"> c #705080",
", c #0878E8",
"< c #6880A8",
"1 c #F0A880",
"2 c #D0F888",
"3 c #D0D0D0",
"4 c #F8F8F8",
/* pixels */
"                                                                                                                        ",
"                                                                                                                        ",
"                                                                                                                        ",
"                                                                                                                        ",
"                                                                                                                        ",
"                                                                                                                        ",
"                                                                                                                        ",
"                                                                                                                        ",
"                                                                                                                        ",
"                                                                                                                        ",
"                                                                                                                        ",
"                                                                                                                        ",
"                                                                                                                        ",
"                                                                                                                        ",
"                                                                                                                        ",
"                                                                                                                        ",
"                                                                                                                        ",
"                                                                                                                        ",
"                                                                                                                        ",
"                                                                                                                        ",
"                                                                                                                        ",
"                                                                                                                        ",
"                                                                                                                        ",
"                                                                                                                        ",
"                                                                                                                        ",
"                                                                                                                        ",
"                                                                                                                        ",
"                                                                                                                        ",
"                                                                                                                        ",
"                                                                                                                        ",
"                                                                                                                        ",
"                                                                                                                        ",
"                                                                                                                        ",
"                                                                                                                        ",
"                                                                                                                        ",
"                                                                                                                        ",
"                            *=;2=*                                                                                      ",
"                            *=242=*                                                                                     ",
"                             *=242=*                                                                                    ",
"                              *=242=*                                                                                   ",
"                               *=242=*                                                                                  ",
"                                *=242=*                                                                                 ",
"                                 *=242=*                                                                                ",
"                                  *=242=*             &-3-%                                                             ",
"                                   *=242=*           &-&---%                                                            ",
"                                    *=242=*          -&%%&&-%%                                                          ",
"                                     *=242=*         &%%&-%%3-%                                                         ",
"                                      *=242=*        %o%%&&3-%%                                                         ",
"                                       *=242=*       1&1%o%o%&                                                          ",
"                                        *=242=*      &1&&%o&&                                                           ",
"                                         *=242=*     %&&%&%o                                                            ",
"                                          *=242=*    &%%&.ooO@                                                          ",
"                                           *=242=*     .&.@@>$O                                                         ",
"                                            *=242=*    .1.@>$..@                                                        ",
"                                             *=242=*  @X1.>$.:3##                                                       ",
"                                              *=242=* @,&.>$O,:#,#                                                      ",
"                                               *=242=*@:%.>$O:#O.#                                                      ",
"                                                *=242=*:,X@>O##O##                                                      ",
"                                                 *=242=*OX@>..#:3#                                                      ",
"                                                  *=242**>X$...#,:                                                      ",
"                                                  &*;24=@2X@..O#:#                                                      ",
"                                                  &%*=2+42+2@O,.#O                                                      ",
"                                                  o%#*+4<+2+@,..O                                                       ",
"                                                   o:...4+2+:3.#O                                                       ",
"                                                     #:#O<22+44O.                                                       ",
"                                                        3<<<24..X                                                       ",
"                                                        .+<<<..X.$                                                      ",
"                                                       @#,,.4@$$>>                                                      ",
"                                                       @@..$>@@>>>                                                      ",
"                                                        @,#.$>>>>$                                                      ",
"                                                       #,#O..$$$$                                                       ",
"                                                       #3O.O#.O                                                         ",
"                                                      #,#O.#:.O                                                         ",
"                                                      #3O.O#..O      :,                                                 ",
"                                                     #,:O.:...O     :..#                                                ",
"                                                     #3O.O#...O    #....                                                ",
"                                                     #:O.: O..#   #..###.                                               ",
"                                                     #:.O  O..O  #..#...#.                                              ",
"                                                     ##.O  O...O#.O#   .#.                                              ",
"                                                     #O.O   O..#..#     ..                                              ",
"                                                     33,    O..O.#                                                      ",
"                                                     3O:     O.O.                                                       ",
"                                                     3.:     O..O                                                       ",
"                                                    ,#.:      #O                                                        ",
"                                                    3.#                                                                 ",
"                                                    ,.#                                                                 ",
"                                                    ,.#                                                                 ",
"                                                   3.#                                                                  ",
"                                                333,.#                                                                  ",
"                                                O.:O.#                                                                  ",
"                                                ##..:#                                                                  ",
"                                                ##..:#                                                                  ",
"                                                ##..:#                                                                  ",
"                                                                                                                        ",
"                                                                                                                        ",
"                                                                                                                        ",
"                                                                                                                        ",
"                                                                                                                        ",
"                                                                                                                        ",
"                                                                                                                        ",
"                                                                                                                        ",
"                                                                                                                        ",
"                                                                                                                        ",
"                                                                                                                        ",
"                                                                                                                        ",
"                                                                                                                        ",
"                                                                                                                        ",
"                                                                                                                        ",
"                                                                                                                        ",
"                                                                                                                        ",
"                                                                                                                        ",
"                                                                                                                        ",
"                                                                                                                        ",
"                                                                                                                        ",
"                                                                                                                        ",
"                                                                                                                        ",
"                                                                                                                        ",
"                                                                                                                        ",
"                                                                                                                        ",
"                                                                                                                        "
};
