/* XPM */
static char *luke_attack_b2[] = {
/* columns rows colors chars-per-pixel */
"120 120 23 1 ",
"  c None",
". c black",
"X c #201820",
"o c #502000",
"O c #082040",
"+ c #382840",
"@ c #003068",
"# c #503858",
"$ c #804010",
"% c #B86840",
"& c #009038",
"* c #08B030",
"= c #20D828",
"- c #60F840",
"; c #C8A038",
": c #A0F868",
"> c #0058A8",
", c #705080",
"< c #0878E8",
"1 c #F0A880",
"2 c #D0F888",
"3 c #D0D0D0",
"4 c #F8F8F8",
/* pixels */
"                                                                                                                        ",
"                                                                                                                        ",
"                                                                                                                        ",
"                                                                                                                        ",
"                                                                                                                        ",
"                                                                                                                        ",
"                                                                                                                        ",
"                                                                                                                        ",
"                                                                                                                        ",
"                                                                                                                        ",
"                                                                                                                        ",
"                                                                                                                        ",
"                                                                                                                        ",
"                                                                                                                        ",
"                                                                                                                        ",
"                                                                                                                        ",
"                                                                                                                        ",
"                                                                                                                        ",
"                                                                                                                        ",
"                                                                                                                        ",
"                                                                                                                        ",
"                                                                                                                        ",
"                                                                                                                        ",
"                                                                                                                        ",
"                                                                                                                        ",
"                                                                                                                        ",
"                                                                                                                        ",
"                                                                                                                        ",
"                           &=----==****&                                                                                ",
"                           *-24442::---=*&                                                                              ",
"                           *=:444444222:-=***&                                                                          ",
"                            *-24444444422::-==**&                                                                       ",
"                             *-2444444444422:::==**&                                                                    ",
"                             &=:444444444444422:::==*&&                                                                 ",
"                              *=:24444444444444442::-=*&&                                                               ",
"                               &*-:444444444444444442::=**&&                                                            ",
"                                &*=-::444444444444444442:-=**&&&                                                        ",
"                                 &&**=-::244444444444444442:-==***&                                                     ",
"                                    &&**=====-::44444444444442:::=**                                                    ",
"                                       &&&&&&&*==-:22444444444442::=                                                    ",
"                                              &&&*=-::--:244444444::                                                    ",
"                                                  &*****==-::::244443.    1%1%                                          ",
"                                                     &&&&&****===-- >.3O3333o$%@@@                                      ",
"                                                           &&&&&&&&   >.>@33$o$.>>@                                     ",
"                                                                       ..<<33....O>@                                    ",
"                                                                       $@.@<3;%O@.O>@                                   ",
"                                                                      $;@.@33%; O>.O>@                                  ",
"                                                                      $;%@.@.$%  @>.O@@                                 ",
"                                                                     $;%3>...o$   @...@                                 ",
"                                                                     $;3>@.@O%1  O...@@                                 ",
"                                                                     $;%<@@>@1%  O>..>@                                 ",
"                                                                      ,o3.@<>%$ @>...@                                  ",
"                                                                       ,>@><O$%.>....@                                  ",
"                                                                       >@@O@.$$.#+.@>@                                  ",
"                                                                       O>@O@.%..#+..@                                   ",
"                                                                       O3>@@.%..++..@                                   ",
"                                                                       O><@..+%$+,.@                                    ",
"                                                                       O>..O#.1%X++@                                    ",
"                                                                       +O>..#.%$<++X                                    ",
"                                                                        +<@@#.$<>+#+                                    ",
"                                                                         +<.#X<>>+##                                    ",
"                                                                         +O@.#XOOO+#                                    ",
"                                                                          +..O,#XX,#                                    ",
"                                                                           +..,#X,##                                    ",
"                                                                           +.X,#X,#+                                    ",
"                                                                           X++#+X,#+                                    ",
"                                                                            X#+X,#+X                                    ",
"                                                                            X$%$.33.$                                   ",
"                                                                            ooooo,#oo                                   ",
"                                                                            +,++XXXX++                                  ",
"                                                                            +,,#+..+X#+                                 ",
"                                                                           +##,,##X.XX#+                                ",
"                                                                           #.<#+,XX##,##+                               ",
"                                                                           @.3@.##,,##.@>@                              ",
"                                                                           .@<@..OXXO...@>@                             ",
"                                                                          @.3>O.O  O@O...@>O                            ",
"                                                                          .@<>O>O   O@....@O                            ",
"                                                                          @33>@O     O@O@.O@                            ",
"                                                                         @<>>@.       O@O..O                            ",
"                                                                         @OO.O          .@.O                            ",
"                                                                        >...>O          ..@                             ",
"                                                                       >3<.@O          <@O@>                            ",
"                                                                      >3..<>           @O@>                             ",
"                                                                      >.O>@           >.O>                              ",
"                                                                     >3.>@            >.@>                              ",
"                                                                     >..@            >.O>                               ",
"                                                                    >3.>@            >.@>                               ",
"                                                                    >..@            >.@>                                ",
"                                                                   >3..>            >.><                                ",
"                                                                   33<..            >@.>>><                             ",
"                                                                   3OO>             >.....>                             ",
"                                                                   ....                                                 ",
"                                                                                                                        ",
"                                                                                                                        ",
"                                                                                                                        ",
"                                                                                                                        ",
"                                                                                                                        ",
"                                                                                                                        ",
"                                                                                                                        ",
"                                                                                                                        ",
"                                                                                                                        ",
"                                                                                                                        ",
"                                                                                                                        ",
"                                                                                                                        ",
"                                                                                                                        ",
"                                                                                                                        ",
"                                                                                                                        ",
"                                                                                                                        ",
"                                                                                                                        ",
"                                                                                                                        ",
"                                                                                                                        ",
"                                                                                                                        ",
"                                                                                                                        ",
"                                                                                                                        ",
"                                                                                                                        ",
"                                                                                                                        ",
"                                                                                                                        ",
"                                                                                                                        ",
"                                                                                                                        ",
"                                                                                                                        "
};
