/* XPM */
static char *luke_168[] = {
/* columns rows colors chars-per-pixel */
"120 120 24 1 ",
"  c None",
". c black",
"X c #201820",
"o c #502000",
"O c #082040",
"+ c #102848",
"@ c #382840",
"# c #003068",
"$ c #503858",
"% c #804010",
"& c #B86840",
"* c #009038",
"= c #08B030",
"- c #20D828",
"; c #60F840",
": c #C8A038",
"> c #A0F868",
", c #0058A8",
"< c #705080",
"1 c #0878E8",
"2 c #F0A880",
"3 c #D0F888",
"4 c #D0D0D0",
"5 c #F8F8F8",
/* pixels */
"                                                                                                                        ",
"                                                                                                                        ",
"                                                                                                                        ",
"                                                    *******                                                             ",
"                                                  *=;;;;;;-=*                                                           ",
"                                                 *=;3333>;;;-=                                                          ",
"                                                *=->5555553;;-=                                                         ",
"                                                *;>355555553>;-=                                                        ",
"                                               *=;>5555555553>-=                                                        ",
"                                               *-;35555555553>;=                                                        ",
"                                               *-;355555555533;=                                                        ",
"                                               *-;3555555555>;-=                                                        ",
"                                               *-;3555555555;;-                                                         ",
"                                               *-;3555555555;-=                                                         ",
"                                               *-;3555555555;-=                                                         ",
"                                               *-;3555555555;-=                                                         ",
"                                               *-;3555555555;-                                                          ",
"                                               *-;3555555555;=                                                          ",
"                                               *-;3555555555-=                                                          ",
"                                               *-;355555553;-=                                                          ",
"                                               *-;355555553;-                                                           ",
"                                               *-;35555555>;=                                                           ",
"                                               *-;35555553;-=                                                           ",
"                                               *-;35555553;-=                                                           ",
"                                               *-;35555553;-=                                                           ",
"                                               *-;3555555>;-                                                            ",
"                                               *-;3555555>;=                                                            ",
"                                               *-;3555553;-=                                                            ",
"                                               *-;3555553;-                                                             ",
"                                               *-;3555553;-                                                             ",
"                                               *-;355555>;=                                                             ",
"                                               *-;355555;;=                                                             ",
"                                               *-;355553;-=                                                             ",
"                                               *-;355553;-=                                                             ",
"                                               *-;355553;-                                                              ",
"                                                =;>5555>;=                                                              ",
"                                                =;>5555;;=                                                              ",
"                                                *->5553;-=                                                              ",
"                                                *->3553;-                                                               ",
"                                                *-;3553;=                                                               ",
"                                                 =->33>;=                                                               ",
"                                                  =>33;=                                                                ",
"                                                   +                                                                    ",
"                                                   .544OO                                                               ",
"                                                  ,..O4.OO                                                              ",
"                                                  ,##4O.,O                                                              ",
"                                                 ,..#.4.OO                                                              ",
"                                                 ,.#544.,O                                                              ",
"                                                ,.......O                                                               ",
"                                                ,..#5....O                                                              ",
"                                               ,....+,4,,.O        &&%                                                  ",
"                                          11   ,.....4#.,,.       o%%:%                                                 ",
"                                          ..,.1....#+.#..,,O     %%o%&:%                                                ",
"                                          ,OOO.,...,5..,,.#,#O  2o%o%::%                                                ",
"                                          1.....,..1#.....#,1,O%%2%%o&:%                                                ",
"                                           44.OO..OO,...,..,44OO&&%::&:%                                                ",
"                                            444, ..1#....,..#O.O,%%o:44%                                                ",
"                                                  .,#..%%.O.O.##O.%oo4:%                                                ",
"                                               , ..O#.oo...#..#,1Oo&&%4                                                 ",
"                                              4,.,...%oo......O,1,<@&%                                                  ",
"                                               O44...%%.....O.##4@4@                                                    ",
"                                                ., 4.4$.@@@...,#1<4@                                                    ",
"                                                  X$@@@$$$$@O...<4@                                                     ",
"                                                        @$<<@@<<4@                                                      ",
"                                                         @@<<44@@                                                       ",
"                                                           @@@@                                                         ",
"                                                                                                                        ",
"                                                                                                                        ",
"                                                                                                                        ",
"                                                                                                                        ",
"                                                                                                                        ",
"                                                                                                                        ",
"                                                                                                                        ",
"                                                                                                                        ",
"                                                                                                                        ",
"                                                                                                                        ",
"                                                                                                                        ",
"                                                                                                                        ",
"                                                                                                                        ",
"                                                                                                                        ",
"                                                                                                                        ",
"                                                                                                                        ",
"                                                                                                                        ",
"                                                                                                                        ",
"                                                                                                                        ",
"                                                                                                                        ",
"                                                                                                                        ",
"                                                                                                                        ",
"                                                                                                                        ",
"                                                                                                                        ",
"                                                                                                                        ",
"                                                                                                                        ",
"                                                                                                                        ",
"                                                                                                                        ",
"                                                                                                                        ",
"                                                                                                                        ",
"                                                                                                                        ",
"                                                                                                                        ",
"                                                                                                                        ",
"                                                                                                                        ",
"                                                                                                                        ",
"                                                                                                                        ",
"                                                                                                                        ",
"                                                                                                                        ",
"                                                                                                                        ",
"                                                                                                                        ",
"                                                                                                                        ",
"                                                                                                                        ",
"                                                                                                                        ",
"                                                                                                                        ",
"                                                                                                                        ",
"                                                                                                                        ",
"                                                                                                                        ",
"                                                                                                                        ",
"                                                                                                                        ",
"                                                                                                                        ",
"                                                                                                                        ",
"                                                                                                                        ",
"                                                                                                                        ",
"                                                                                                                        "
};
